<svg width="40" height="40" viewBox="0 0 40 40" fill="none" xmlns="http://www.w3.org/2000/svg">
<g clip-path="url(#clip0_131_562)">
<path d="M17.3184 22.8198C17.3184 24.218 18.5749 25.3832 20.1305 25.3832C21.686 25.3832 22.9425 24.218 22.9425 22.8198C22.9425 21.4217 21.4467 20.7809 20.1305 20.1401C18.8141 19.4993 17.3184 18.8584 17.3184 17.4603C17.3184 16.0621 18.5749 14.897 20.1305 14.897C21.686 14.897 22.9425 16.0621 22.9425 17.4603" stroke="white" stroke-width="1.7" stroke-miterlimit="10" stroke-linecap="round"/>
<path d="M20.1309 14.8391V13.0913" stroke="white" stroke-width="1.7" stroke-miterlimit="10" stroke-linecap="round"/>
<path d="M20.1309 27.0728V25.3833" stroke="white" stroke-width="1.7" stroke-miterlimit="10" stroke-linecap="round"/>
<path d="M13.85 11.2272C15.645 10.0038 17.7988 9.30469 20.1921 9.30469C26.2948 9.30469 31.3206 14.14 31.3206 20.1404C31.3206 26.0825 26.3547 30.976 20.1921 30.976C14.0893 30.976 9.06354 26.1407 9.06354 20.1404C9.06354 17.9266 9.78149 15.8294 10.9781 14.0817" stroke="white" stroke-width="1.7" stroke-miterlimit="10" stroke-linecap="round" stroke-linejoin="round"/>
<path d="M6.67034 11.2853L7.32849 12.1592C6.43102 13.5573 5.71304 15.1302 5.35406 16.7614L1.40521 17.4022V22.6453L5.35406 23.2861C5.71304 24.9756 6.43102 26.5484 7.32849 27.9467L4.99507 31.1508L8.76442 34.8209L12.0552 32.5489C13.491 33.4228 15.1065 34.0635 16.8415 34.4713L17.4997 38.3162H22.8247L23.4828 34.4713C25.2179 34.1218 26.8333 33.4228 28.2693 32.5489L31.5599 34.8209L35.3293 31.1508L32.9959 27.9467C33.8933 26.5484 34.6114 24.9756 34.9703 23.3443L38.9192 22.7036V17.4606L34.9703 16.8197C34.6114 15.1302 33.8933 13.5573 32.9959 12.1592L35.3293 8.95508L31.5599 5.28493L28.2693 7.55693C26.8333 6.68308 25.2179 5.98399 23.4828 5.63446L22.8247 1.78955H17.4997" stroke="white" stroke-width="1.7" stroke-miterlimit="10" stroke-linecap="round" stroke-linejoin="round"/>
<path d="M16.9616 4.70215L16.7821 5.6925C15.047 6.04203 13.4316 6.74113 11.9957 7.61497L8.70494 5.34296L4.93561 9.01312" stroke="white" stroke-width="1.7" stroke-miterlimit="10" stroke-linecap="round" stroke-linejoin="round"/>
</g>
<defs>
<clipPath id="clip0_131_562">
<rect width="40" height="40" fill="white"/>
</clipPath>
</defs>
</svg>
