<svg width="40" height="40" viewBox="0 0 40 40" fill="none" xmlns="http://www.w3.org/2000/svg">
<g clip-path="url(#clip0_131_541)">
<path d="M39.919 25.7145L33.045 18.9707C28.7101 14.7178 22.1457 14.1711 18.4919 17.8164C14.8382 21.4009 15.3337 27.8409 19.6686 32.0938L26.5425 38.8376" stroke="white" stroke-width="1.7" stroke-miterlimit="10" stroke-linejoin="round"/>
<path d="M25.4902 2.08105H17.3777V10.04H25.4902V2.08105Z" stroke="white" stroke-width="1.7" stroke-miterlimit="10"/>
<path d="M10.1936 2.08105H2.08105V10.04H10.1936V2.08105Z" stroke="white" stroke-width="1.7" stroke-miterlimit="10"/>
<path d="M10.1936 17.0269H2.08105V24.9858H10.1936V17.0269Z" stroke="white" stroke-width="1.7" stroke-miterlimit="10"/>
<path d="M31.3729 22.981L30.1963 21.8266C27.4715 19.1534 23.4462 18.6673 21.4025 20.6722C20.164 21.8873 20.1021 23.5278 20.164 24.439C20.2878 26.1402 21.1548 27.9629 22.5792 29.2995L23.7558 30.4538C23.7558 30.4538 28.5243 28.8742 31.3729 22.981Z" stroke="white" stroke-width="1.7" stroke-miterlimit="10"/>
</g>
<defs>
<clipPath id="clip0_131_541">
<rect width="40" height="40" fill="white"/>
</clipPath>
</defs>
</svg>
