<svg width="40" height="40" viewBox="0 0 40 40" fill="none" xmlns="http://www.w3.org/2000/svg">
<path d="M13.5011 34.2953V29.0044C13.5006 28.928 13.48 28.8529 13.4414 28.787C13.4027 28.721 13.3475 28.6665 13.281 28.6287L8.55879 25.9725C8.49516 25.9358 8.42298 25.9164 8.3495 25.9164C8.27603 25.9164 8.20385 25.9358 8.14023 25.9725L3.41801 28.6287C3.35155 28.6665 3.29621 28.721 3.25759 28.787C3.21896 28.8529 3.19841 28.928 3.198 29.0044V34.2953C3.19841 34.3718 3.21896 34.4468 3.25759 34.5127C3.29621 34.5787 3.35155 34.6332 3.41801 34.671L8.14023 37.3272C8.20385 37.364 8.27603 37.3833 8.3495 37.3833C8.42298 37.3833 8.49516 37.364 8.55879 37.3272L13.281 34.671C13.3475 34.6332 13.4027 34.5787 13.4414 34.5127C13.48 34.4468 13.5006 34.3718 13.5011 34.2953Z" stroke="white" stroke-width="1.7" stroke-linecap="round" stroke-linejoin="round"/>
<path d="M13.4425 28.7843L8.39841 31.6498L3.25763 28.7843" stroke="white" stroke-width="1.7" stroke-linecap="round" stroke-linejoin="round"/>
<path d="M8.39839 31.6499L8.3501 37.381" stroke="white" stroke-width="1.7" stroke-linecap="round" stroke-linejoin="round"/>
<path d="M36.6825 34.2953V29.0044C36.6821 28.928 36.6616 28.8529 36.6229 28.787C36.5843 28.721 36.5289 28.6665 36.4625 28.6287L31.7403 25.9725C31.6767 25.9358 31.6045 25.9164 31.531 25.9164C31.4576 25.9164 31.3854 25.9358 31.3218 25.9725L26.5996 28.6287C26.533 28.6665 26.4778 28.721 26.4391 28.787C26.4005 28.8529 26.3799 28.928 26.3795 29.0044V34.2953C26.3799 34.3718 26.4005 34.4468 26.4391 34.5127C26.4778 34.5787 26.533 34.6332 26.5996 34.671L31.3218 37.3272C31.3854 37.364 31.4576 37.3833 31.531 37.3833C31.6045 37.3833 31.6767 37.364 31.7403 37.3272L36.4625 34.671C36.5289 34.6332 36.5843 34.5787 36.6229 34.5127C36.6616 34.4468 36.6821 34.3718 36.6825 34.2953Z" stroke="white" stroke-width="1.7" stroke-linecap="round" stroke-linejoin="round"/>
<path d="M36.6241 28.7843L31.5799 31.6498L26.4391 28.7843" stroke="white" stroke-width="1.7" stroke-linecap="round" stroke-linejoin="round"/>
<path d="M31.58 31.6499L31.5317 37.381" stroke="white" stroke-width="1.7" stroke-linecap="round" stroke-linejoin="round"/>
<path d="M13.5011 10.255V4.96392C13.5006 4.8875 13.48 4.81253 13.4414 4.74659C13.4027 4.68064 13.3475 4.62604 13.281 4.58829L8.55879 1.93205C8.49516 1.89531 8.42298 1.87598 8.3495 1.87598C8.27603 1.87598 8.20385 1.89531 8.14023 1.93205L3.41801 4.58829C3.35155 4.62604 3.29621 4.68064 3.25759 4.74659C3.21896 4.81253 3.19841 4.8875 3.198 4.96392V10.255C3.19841 10.3314 3.21896 10.4064 3.25759 10.4723C3.29621 10.5383 3.35155 10.5929 3.41801 10.6306L8.14023 13.2869C8.20385 13.3236 8.27603 13.3429 8.3495 13.3429C8.42298 13.3429 8.49516 13.3236 8.55879 13.2869L13.281 10.6306C13.3475 10.5929 13.4027 10.5383 13.4414 10.4723C13.48 10.4064 13.5006 10.3314 13.5011 10.255Z" stroke="white" stroke-width="1.7" stroke-linecap="round" stroke-linejoin="round"/>
<path d="M13.4425 4.7439L8.39841 7.60943L3.25763 4.7439" stroke="white" stroke-width="1.7" stroke-linecap="round" stroke-linejoin="round"/>
<path d="M8.39839 7.6095L8.3501 13.3405" stroke="white" stroke-width="1.7" stroke-linecap="round" stroke-linejoin="round"/>
<path d="M36.6825 10.255V4.96392C36.6821 4.8875 36.6616 4.81253 36.6229 4.74659C36.5843 4.68064 36.5289 4.62604 36.4625 4.58829L31.7403 1.93205C31.6767 1.89531 31.6045 1.87598 31.531 1.87598C31.4576 1.87598 31.3854 1.89531 31.3218 1.93205L26.5996 4.58829C26.533 4.62604 26.4778 4.68064 26.4391 4.74659C26.4005 4.81253 26.3799 4.8875 26.3795 4.96392V10.255C26.3799 10.3314 26.4005 10.4064 26.4391 10.4723C26.4778 10.5383 26.533 10.5929 26.5996 10.6306L31.3218 13.2869C31.3854 13.3236 31.4576 13.3429 31.531 13.3429C31.6045 13.3429 31.6767 13.3236 31.7403 13.2869L36.4625 10.6306C36.5289 10.5929 36.5843 10.5383 36.6229 10.4723C36.6616 10.4064 36.6821 10.3314 36.6825 10.255Z" stroke="white" stroke-width="1.7" stroke-linecap="round" stroke-linejoin="round"/>
<path d="M36.6241 4.7439L31.5799 7.60943L26.4391 4.7439" stroke="white" stroke-width="1.7" stroke-linecap="round" stroke-linejoin="round"/>
<path d="M31.58 7.6095L31.5317 13.3405" stroke="white" stroke-width="1.7" stroke-linecap="round" stroke-linejoin="round"/>
<path d="M30.9135 23.3497V15.9094" stroke="white" stroke-width="1.7" stroke-linecap="round"/>
<path d="M16.2206 9.50513H23.661" stroke="white" stroke-width="1.7" stroke-linecap="round"/>
<path d="M16.2206 27.9647H23.661" stroke="white" stroke-width="1.7" stroke-linecap="round"/>
<path d="M7.83881 23.3497V15.9094" stroke="white" stroke-width="1.7" stroke-linecap="round"/>
</svg>
