<svg width="40" height="40" viewBox="0 0 40 40" fill="none" xmlns="http://www.w3.org/2000/svg">
<path d="M27.4072 20.7407L25.1849 22.5926L27.4072 24.4444" stroke="white" stroke-width="1.7" stroke-linecap="round" stroke-linejoin="round"/>
<path d="M29.6294 20.7407L31.8516 22.5926L29.6294 24.4444" stroke="white" stroke-width="1.7" stroke-linecap="round" stroke-linejoin="round"/>
<path d="M4.81769 28.2491V9.54415C4.81769 8.78101 5.12087 8.04901 5.66054 7.50936C6.20021 6.96969 6.93216 6.6665 7.69537 6.6665H33.5945C34.3577 6.6665 35.0896 6.96969 35.6293 7.50936C36.169 8.04901 36.4721 8.78101 36.4721 9.54415V28.2491" stroke="white" stroke-width="1.7" stroke-linecap="round" stroke-linejoin="round"/>
<path d="M1.48132 28.249H38.8912V31.1268C38.8912 31.89 38.588 32.6219 38.0483 33.1616C37.5086 33.7012 36.7767 34.0044 36.0135 34.0044H4.359C3.59579 34.0044 2.86385 33.7012 2.32418 33.1616C1.78451 32.6219 1.48132 31.89 1.48132 31.1268V28.249Z" stroke="white" stroke-width="1.7" stroke-linecap="round" stroke-linejoin="round"/>
<path d="M17.4488 17.7779H9.2312C9.18626 17.7779 9.14171 17.7691 9.10014 17.7519C9.05857 17.7346 9.02077 17.7095 8.98892 17.6776C8.95716 17.6458 8.9319 17.6081 8.91473 17.5665C8.89747 17.5249 8.88861 17.4804 8.88861 17.4353V11.8521H17.4071C17.5054 11.8521 17.5996 11.891 17.669 11.9605C17.7385 12.03 17.7775 12.1242 17.7775 12.2224V17.4492C17.7775 17.5364 17.7429 17.6201 17.6812 17.6817C17.6196 17.7433 17.536 17.7779 17.4488 17.7779Z" stroke="white" stroke-width="1.7" stroke-linecap="round" stroke-linejoin="round"/>
<path d="M8.88861 11.8521V10.741C8.88861 10.6428 8.92767 10.5486 8.99708 10.4791C9.06657 10.4096 9.16077 10.3706 9.25896 10.3706H11.6988C11.7469 10.3705 11.7946 10.3798 11.839 10.3981C11.8835 10.4163 11.924 10.4432 11.958 10.4771L13.3331 11.8521" stroke="white" stroke-width="1.7" stroke-linecap="round" stroke-linejoin="round"/>
</svg>
