<svg width="230" height="40" viewBox="0 0 230 40" fill="none" xmlns="http://www.w3.org/2000/svg">
<path d="M4.4617 12.1979C4.4617 13.0166 4.83025 13.344 5.68949 13.344H6.26256C8.34997 13.344 9.3324 12.4027 9.3324 9.90561C9.3324 7.65413 8.06343 6.83572 5.85318 6.83572H4.4617V12.1979ZM5.85353 6.46716C8.02296 6.46716 8.84173 5.40305 8.84173 3.35648C8.84173 1.10503 7.85928 0.613986 5.89473 0.613986H4.42051V6.46752L5.85353 6.46716ZM0 13.3848L1.02328 13.262C2.12859 13.0983 2.25109 12.7709 2.25109 11.9522V2.04666C2.25109 1.18705 2.12823 0.85969 1.02328 0.736838L0 0.613986V0.286621H6.09889C8.63654 0.286621 11.2153 1.02337 11.2153 3.39731C11.2153 5.2802 9.49607 6.30348 7.20383 6.59002V6.67203C9.94634 6.83572 11.8292 7.77734 11.8292 9.94679C11.8292 12.4435 9.65983 13.7126 6.3034 13.7126H0V13.3848Z" fill="white"/>
<path d="M22.5537 6.95857C23.1267 6.9994 23.577 6.9994 24.068 6.9994C26.2374 6.9994 27.3428 6.09896 27.3428 3.84752C27.3428 1.35074 26.1966 0.613986 23.9455 0.613986H22.5537V6.95857ZM28.9803 13.7126C27.7525 13.7126 27.5885 13.426 27.1383 12.5664L24.4775 7.32712H24.0272C23.495 7.32712 22.9631 7.32712 22.5537 7.2863V11.9113C22.5537 12.7709 22.6766 13.0983 23.7815 13.2211L24.8048 13.344V13.7126H18.092V13.3848L19.1153 13.262C20.2206 13.0983 20.3431 12.7709 20.3431 11.9522V2.04666C20.3431 1.18705 20.2202 0.85969 19.1153 0.736838L18.092 0.613986V0.286621H23.9452C27.4653 0.286621 29.7167 1.26908 29.7167 3.80669C29.7167 5.73041 28.0383 6.71287 26.442 6.9994C26.7991 7.40893 27.1017 7.86291 27.3424 8.35005L29.1024 11.5836C29.7164 12.7297 29.962 13.0571 30.8217 13.262L31.5176 13.4256V13.7122L28.9803 13.7126Z" fill="white"/>
<path d="M42.4876 6.59037C43.7566 6.59037 44.1659 5.73077 44.8207 3.64337H45.1481V9.94713H44.8207C44.1248 7.69568 43.7566 6.95893 42.4876 6.95893H41.0549V12.1979C41.0549 13.0166 41.4235 13.344 42.2827 13.344H43.5518C45.844 13.344 46.4171 12.4844 47.6857 9.00516H48.0951L47.8906 13.7122H36.5933V13.3848L37.6165 13.262C38.7218 13.0983 38.8443 12.7709 38.8443 11.9522V2.04666C38.8443 1.18705 38.7215 0.85969 37.6165 0.736838L36.5933 0.613986V0.286621H47.2766L47.4812 4.58463H47.0718C45.8848 1.55561 45.3526 0.655175 43.3881 0.655175H41.0141V6.6312H42.4876V6.59037Z" fill="white"/>
<path d="M55.6269 2.74257C55.0538 1.22824 54.6445 0.818858 53.826 0.696006L53.0894 0.613986V0.286621C54.2355 0.327452 55.3816 0.327452 56.4866 0.327452C57.6327 0.327452 58.738 0.327452 59.8837 0.286621V0.613986L58.7376 0.736838C57.6735 0.85969 57.5507 1.43275 57.878 2.29236L61.1936 11.4614L64.0997 3.60254C64.8365 1.67882 64.6728 1.02373 63.3222 0.778385L62.3398 0.614702V0.286621C63.2402 0.327452 64.0997 0.327452 64.9593 0.327452C65.8598 0.327452 66.7194 0.327452 67.6198 0.286621V0.573155L66.8831 0.777669C65.7369 1.02337 65.3276 1.63727 64.5092 3.72467L61.603 11.4611L60.8254 13.7538H59.8841L55.6269 2.74257Z" fill="white"/>
<path d="M72.3275 8.92314H77.1986L74.7834 2.49687L72.3275 8.92314ZM79.6545 13.6717H76.4618V13.3443L77.6079 13.2215C78.6717 13.0986 78.6309 12.5255 78.3035 11.666L77.4031 9.33283H72.2046L71.7952 10.3969C71.0584 12.3619 71.0584 12.9346 72.3683 13.1803L73.3508 13.344V13.7126H68.4797V13.426L69.1347 13.2623C70.1988 12.9758 70.5674 12.4435 71.3862 10.3153L74.4149 2.49687L75.1924 0.20459H76.2161L80.5141 11.2562C81.0871 12.7705 81.3329 13.1799 82.1512 13.3028L82.8063 13.3848V13.7121C81.7011 13.7121 80.7598 13.6717 79.6545 13.6717Z" fill="white"/>
<path d="M89.601 1.88298V10.8472C89.601 12.5664 89.9697 13.0575 91.0335 13.2211L91.8519 13.344V13.7126H86.8987V13.3848L87.7179 13.262C88.8231 13.0983 89.1504 12.6069 89.1504 10.8881V2.04666C89.1504 1.18705 89.0273 0.85969 87.9229 0.736838L86.8995 0.613986V0.286621H91.1972L98.4013 10.8884V3.11077C98.4013 1.39157 98.0334 0.900525 96.9687 0.736838L96.1504 0.613986V0.286621C97.0506 0.286621 97.7466 0.327452 98.6468 0.327452C99.547 0.327452 100.243 0.286621 101.103 0.286621V0.613986L100.284 0.736838C99.2196 0.900525 98.8518 1.39192 98.8518 3.11077V13.7126H97.6234L89.601 1.88298Z" fill="white"/>
<path d="M130.861 2.04666C130.861 1.18705 130.737 0.85969 129.632 0.736838L128.609 0.613986V0.286621C129.796 0.286621 130.779 0.327452 131.966 0.327452C133.111 0.327452 134.135 0.286621 135.322 0.286621V0.613986L134.298 0.736838C133.193 0.900525 133.071 1.22788 133.071 2.04666V11.9113C133.071 12.7709 133.193 13.0983 134.298 13.2211L135.322 13.344V13.7125H128.609V13.3848L129.632 13.262C130.737 13.0983 130.86 12.7709 130.86 11.9522V7.04059H124.598V11.9117C124.598 12.7713 124.72 13.0986 125.825 13.2215L126.849 13.3443V13.7129H120.136V13.3848L121.159 13.262C122.264 13.0983 122.387 12.7709 122.387 11.9522V2.04666C122.387 1.18705 122.264 0.85969 121.159 0.736838L120.136 0.613986V0.286621C121.323 0.286621 122.306 0.327452 123.492 0.327452C124.679 0.327452 125.662 0.286621 126.849 0.286621V0.613986L125.825 0.736838C124.72 0.900525 124.598 1.22788 124.598 2.04666V6.6312H130.861V2.04666Z" fill="white"/>
<path d="M146.619 13.7125C149.607 13.7125 150.834 10.6835 150.834 6.99967C150.834 3.31592 149.648 0.286534 146.619 0.286534C143.548 0.286534 142.361 3.31556 142.361 6.99931C142.361 10.6831 143.508 13.7125 146.619 13.7125ZM146.619 13.9986C142.935 13.9986 139.905 11.2153 139.905 6.99931C139.905 2.74249 142.894 0 146.619 0C150.302 0 153.29 2.78332 153.29 6.99931C153.29 11.2153 150.302 13.9986 146.619 13.9986Z" fill="white"/>
<path d="M159.512 2.70138C159.021 1.26871 158.653 0.818489 157.752 0.695638L157.056 0.613618V0.286252C158.203 0.327083 159.349 0.327082 160.454 0.327082C161.6 0.327082 162.706 0.327083 163.851 0.286252V0.613618L162.705 0.736469C161.6 0.859321 161.477 1.51405 161.723 2.29199L164.383 11.0514L167.454 0.20459H168.477L172.038 11.0517L174.249 3.60181C174.903 1.43239 174.453 0.982175 173.184 0.736469L172.324 0.572786V0.24542C173.225 0.286252 174.085 0.286252 174.985 0.286252C175.845 0.286252 176.745 0.286252 177.605 0.24542V0.531955L176.909 0.695638C175.722 0.941344 175.271 1.59607 174.657 3.68383L172.365 11.2562L171.71 13.7121H170.687L167.044 2.94708L164.671 11.2154L164.015 13.7121H163.033L159.512 2.70138Z" fill="white"/>
<path d="M183.049 8.92314H187.919L185.505 2.49687L183.049 8.92314ZM190.335 13.6717H187.142V13.3443L188.288 13.2215C189.352 13.0986 189.312 12.5255 188.984 11.666L188.083 9.33283H182.885L182.476 10.3969C181.739 12.3619 181.739 12.9346 183.049 13.1803L184.031 13.344V13.7126H179.161V13.426L179.815 13.2623C180.879 12.9758 181.248 12.4435 182.067 10.3153L185.096 2.49687L185.873 0.20459H186.897L191.195 11.2562C191.767 12.7705 192.013 13.1799 192.832 13.3028L193.487 13.3848V13.7121C192.423 13.7121 191.481 13.6717 190.335 13.6717Z" fill="white"/>
<path d="M202 6.95857C202.573 6.9994 203.024 6.9994 203.515 6.9994C205.684 6.9994 206.79 6.09896 206.79 3.84752C206.79 1.35074 205.643 0.613986 203.392 0.613986H202V6.95857ZM208.427 13.7126C207.199 13.7126 207.035 13.426 206.585 12.5664L203.925 7.32712H203.474C202.942 7.32712 202.41 7.32712 202.001 7.2863V11.9113C202.001 12.7709 202.123 13.0983 203.229 13.2211L204.252 13.344V13.7126H197.539V13.3848L198.562 13.262C199.668 13.0983 199.79 12.7709 199.79 11.9522V2.04666C199.79 1.18705 199.667 0.85969 198.562 0.736838L197.539 0.613986V0.286621H203.351C206.871 0.286621 209.123 1.26908 209.123 3.80669C209.123 5.73041 207.445 6.71287 205.847 6.9994C206.205 7.40893 206.507 7.86291 206.748 8.35005L208.508 11.5836C209.123 12.7297 209.368 13.0571 210.228 13.262L210.924 13.4256V13.7122L208.427 13.7126Z" fill="white"/>
<path d="M221.893 13.344C224.922 13.344 226.6 11.5839 226.6 6.9994C226.6 2.37402 224.84 0.613986 221.893 0.613986H220.174V12.157C220.174 12.9758 220.542 13.3031 221.402 13.3031H221.893V13.344ZM215.754 13.3848L216.776 13.262C217.882 13.0983 218.005 12.7709 218.005 11.9522V2.04666C218.005 1.18705 217.881 0.85969 216.776 0.736838L215.754 0.613986V0.286621H221.934C225.659 0.286621 229.139 2.16951 229.139 6.9994C229.139 11.8293 225.7 13.7122 221.934 13.7122H215.794V13.3848H215.754Z" fill="white"/>
<path d="M153.333 38.722C153.333 37.9444 153.374 31.1904 153.333 29.8394H155.544C156.186 29.8202 156.829 29.8476 157.467 29.9214C158.654 30.0851 161.151 31.1904 161.151 34.0966C161.151 37.9032 158.204 38.5583 157.222 38.64C156.444 38.722 154.97 38.722 154.397 38.722H153.333ZM154.357 38.1897C154.602 38.2717 156.813 38.3942 157.713 38.0261C158.532 37.6987 160.046 36.9619 160.169 34.506C160.216 33.5785 159.94 32.6635 159.387 31.917C158.835 31.1705 158.041 30.6388 157.14 30.4125C156.218 30.2822 155.287 30.2274 154.357 30.2488C154.315 32.7864 154.357 35.6518 154.357 38.1897Z" fill="white"/>
<path d="M167.742 38.7224C167.742 37.9449 167.782 31.1909 167.742 29.8398H168.724V38.7224H167.742Z" fill="white"/>
<path d="M182.477 34.833H183.5V38.1077C182.455 38.5226 181.349 38.7579 180.225 38.8037C177.933 38.8037 175.518 37.3301 175.518 34.3831C175.518 31.8864 177.278 29.717 180.103 29.717C181.299 29.666 182.475 30.0433 183.419 30.7811L183.091 31.6406C182.273 30.3716 181.331 30.1671 180.308 30.1671C177.812 30.1671 176.624 32.4186 176.624 34.4239C176.624 36.9616 178.303 38.5171 180.513 38.5171C181.184 38.4748 181.839 38.2935 182.437 37.9849V34.833H182.477Z" fill="white"/>
<path d="M190.623 38.7224C190.623 37.9449 190.663 31.1909 190.623 29.8398H191.605V38.7224H190.623Z" fill="white"/>
<path d="M201.183 38.7224V30.2084H198.072L198.154 29.8398H205.44V30.2084H202.165V38.7224H201.183Z" fill="white"/>
<path d="M216.205 38.7219C215.918 37.8622 215.427 36.6753 215.018 35.6112H211.498L210.188 38.7219H209.819L213.544 29.7168H213.667C213.667 29.7168 213.872 30.2898 213.995 30.6581C215.141 33.5233 216.819 37.4936 217.351 38.7219H216.205ZM214.895 35.2017C214.199 33.4417 213.299 31.2314 213.299 31.2314V31.0678L211.662 35.2017H214.895Z" fill="white"/>
<path d="M223.818 38.7224C223.818 37.9449 223.86 31.1909 223.818 29.8398H224.842V38.3539C224.842 38.3539 228.485 38.3947 229.14 38.2719L228.977 38.7224H223.818Z" fill="white"/>
</svg>
