<svg width="230" height="42" viewBox="0 0 230 42" fill="none" xmlns="http://www.w3.org/2000/svg">
<g clip-path="url(#clip0_131_452)">
<path fill-rule="evenodd" clip-rule="evenodd" d="M51.2123 35.9063H53.6943L54.1907 37.4783H55.4317L53.1979 30.7768H51.8741L49.5576 37.4783H50.7159L51.2123 35.9063ZM53.3634 34.8308H51.5432L52.4533 32.1833L53.3634 34.8308ZM60.6439 37.4783H63.3741C65.7734 37.4783 66.518 35.9063 66.518 34.0862C66.518 32.1833 65.5252 30.7768 63.3741 30.7768H60.6439V37.4783ZM61.8849 31.7696H63.4569C64.6151 31.7696 65.277 32.597 65.277 34.0034C65.277 35.5754 64.6151 36.32 63.4569 36.32H61.8849V31.7696ZM73.1367 34.2516C73.8813 34.0862 74.3777 33.5898 74.3777 32.597C74.3777 31.2732 73.3022 30.6941 72.0612 30.6941H68.9173V37.3955H70.1583V34.6653H71.6475C72.6403 34.6653 72.8885 35.079 72.9713 36.0718C73.054 36.8991 73.1367 37.2301 73.2195 37.4783H74.4605C74.295 37.2301 74.2123 36.8164 74.1295 35.989C74.1295 34.9962 73.7159 34.4998 73.1367 34.2516ZM70.0756 33.5898V31.7696H72.0612C72.6403 31.7696 73.1367 32.0178 73.1367 32.597C73.1367 33.2588 72.7231 33.507 71.9785 33.507C71.9785 33.5898 70.0756 33.5898 70.0756 33.5898ZM80.5828 32.3488L81.9893 37.3955H83.2303L85.1331 30.6941H83.8921L82.5684 35.5754L81.2446 30.6941H79.9209L78.5972 35.5754L77.3562 30.6941H76.0324L77.8526 37.3955H79.1763C79.1763 37.4783 80.5828 32.3488 80.5828 32.3488ZM96.054 35.7408L94.9785 35.1617C94.7303 35.9063 94.2339 36.4027 93.2411 36.4027C91.7518 36.4027 91.2554 35.4926 91.2554 34.0034C91.2554 32.597 91.8346 31.6042 93.2411 31.6042C94.2339 31.6042 94.6475 32.1833 94.8957 32.9279L95.9713 32.3488C95.5576 31.1905 94.6475 30.5286 93.2411 30.5286C91.09 30.5286 89.9317 32.0178 89.9317 34.0034C89.9317 36.0718 91.0072 37.4783 93.1583 37.4783C94.8957 37.561 95.7231 36.7337 96.054 35.7408ZM97.8741 34.0862C97.8741 36.1545 99.1979 37.561 101.266 37.561C103.417 37.561 104.576 36.0718 104.576 34.0862C104.576 32.1006 103.252 30.6113 101.184 30.6113C99.1979 30.6113 97.8741 32.1006 97.8741 34.0862ZM101.266 31.6869C102.59 31.6869 103.335 32.597 103.335 34.0034C103.335 35.6581 102.673 36.4027 101.266 36.4027C99.9425 36.4027 99.1979 35.4926 99.1979 34.0034C99.1979 32.6797 99.9425 31.6869 101.266 31.6869ZM113.594 30.6941H111.939L110.201 35.3272L108.547 30.6941H106.809V37.3955H107.885V32.3488L109.705 37.3955H110.532L112.353 32.3488V37.3955H113.511V30.6941H113.594ZM119.881 30.6941H116.489V37.3955H117.73V34.5826H119.881C121.205 34.5826 122.115 33.9207 122.115 32.597C122.115 31.356 121.04 30.6941 119.881 30.6941ZM117.73 33.5898V31.8524H119.799C120.378 31.8524 120.791 32.1006 120.791 32.6797C120.791 33.3416 120.378 33.5898 119.799 33.5898H117.73ZM124.68 35.9063H127.162L127.658 37.4783H128.899L126.666 30.7768H125.342L123.025 37.4783H124.184L124.68 35.9063ZM126.831 34.8308H125.094L126.004 32.1833L126.831 34.8308ZM135.353 35.3272L132.457 30.6941H131.05V37.3955H132.126V32.3488L135.27 37.3955H136.511V30.6941H135.435L135.353 35.3272ZM140.896 34.9135V37.3955H142.137V34.8308L144.453 30.6941H143.13L141.558 33.5898L139.903 30.6941H138.496L140.896 34.9135ZM56.3418 21.097C60.2303 21.097 62.2159 19.2768 63.5396 16.9603L60.0648 14.8919C59.4029 16.4639 58.1619 17.5394 56.3418 17.5394C53.9425 17.5394 52.2878 15.9675 52.2878 12.9063C52.2878 9.9279 53.8598 8.35595 56.259 8.35595C58.0792 8.35595 59.1547 9.18329 59.8993 10.9207L63.2087 8.93509C61.9677 6.61854 59.9821 4.96387 56.259 4.96387C51.4605 4.96387 48.1511 8.35595 48.1511 12.989C48.1511 17.6221 50.9641 21.097 56.3418 21.097ZM73.9641 21.097C78.5144 21.097 81.4101 19.0286 81.4101 14.3955V5.2948H77.4389V14.1473C77.4389 16.6293 76.6943 17.5394 74.0468 17.5394C71.3993 17.5394 70.6547 16.5466 70.6547 14.1473V5.21207H66.6835V14.3128C66.518 18.8631 69.0828 21.097 73.9641 21.097ZM85.5468 20.766H89.1871V10.3416L93.1583 20.6833H95.9713L99.9425 10.3416V20.6833H103.831V5.21207H98.3705L94.6475 15.3883L91.0072 5.21207H85.5468V20.766ZM108.133 20.766H117.151C121.536 20.766 122.86 18.9459 122.86 16.2984C122.86 14.2301 121.95 13.32 120.543 12.7408C121.95 12.079 122.529 11.1689 122.529 9.43149C122.529 7.44588 121.288 5.21207 117.068 5.21207H108.05L108.133 20.766ZM112.187 14.3128H116.903C118.558 14.3128 119.054 14.8092 119.054 15.8847C119.054 16.9603 118.64 17.4567 117.068 17.4567H112.187V14.3128ZM112.187 11.2516V8.60415H116.903C118.392 8.60415 118.806 9.01782 118.806 9.9279C118.806 11.0034 118.309 11.2516 116.903 11.2516H112.187ZM126.666 20.766H140.399V17.6221H130.719V14.3128H137.752V11.2516H130.719V8.27322H140.068V5.21207H126.666V20.766ZM147.845 15.1401H151.32C153.306 15.1401 154.05 15.802 154.05 17.6221C154.133 19.6078 154.216 20.2696 154.381 20.766H158.518V20.6006C158.353 20.4351 158.27 20.0214 158.187 19.3595C158.022 17.9531 158.022 16.3811 157.608 15.2229C157.36 14.561 156.532 13.8991 155.622 13.7337C157.112 13.32 158.435 12.2444 158.435 9.9279C158.435 6.94948 156.698 5.37754 152.561 5.37754H143.874V20.8488H147.928L147.845 15.1401ZM147.845 11.9135V8.52142H152.23C153.802 8.52142 154.381 9.01782 154.381 10.0934C154.381 11.2516 153.802 11.9135 152.23 11.9135H147.845ZM162.158 20.766H173.079L174.237 17.5394H166.13V5.21207H162.158V20.766ZM180.939 17.8703H187.309L188.302 20.766H192.522L186.648 5.2948H181.849L175.975 20.766H179.863L180.939 17.8703ZM186.151 14.8919H181.932L184 8.93509L186.151 14.8919ZM195.335 20.766H199.14L198.975 9.84516L205.594 20.766H210.309V5.21207H206.504L206.669 15.5538L200.464 5.21207H195.417L195.335 20.766ZM214.612 20.766H221.313C226.856 20.766 229.752 17.5394 229.752 12.9063C229.752 8.10775 226.525 5.2948 221.396 5.2948H214.612V20.766ZM218.666 17.4567V8.52142H221.644C223.96 8.52142 225.615 9.84516 225.615 12.9063C225.615 15.9675 224.043 17.3739 221.644 17.3739H218.666V17.4567Z" fill="white"/>
<path fill-rule="evenodd" clip-rule="evenodd" d="M3.80579 24.1578H17.2087L8.35615 33.0104C10.7554 35.4924 13.8166 37.2298 17.1259 37.9744V29.2873H18.8633L22.3382 32.7622L18.8633 36.237H21.6763C22.5036 35.8233 23.2482 35.3269 23.9928 34.7478V29.3701H22.3382V27.6327H18.8633L22.3382 24.1578L18.8633 20.683H23.9928V29.2873H25.7303L27.5504 31.1075C28.3777 30.0319 29.0396 28.8737 29.536 27.6327H25.813L29.2878 24.1578L25.813 20.683H30.9425V17.2082H17.2087L30.9425 3.55713H17.2087V12.1614H15.4713L11.9964 8.68663L15.4713 5.21181H11.9964V3.55713H10.259V12.1614H11.9964V13.8989H15.4713L11.9964 17.3737L15.4713 20.8485H10.3418V12.1614H8.60435L5.12953 8.68663L8.60435 5.21181H5.12953V3.55713H3.47485V12.1614H5.21226V13.8989H8.68708L5.21226 17.3737L8.68708 20.8485H3.47485C3.47485 21.924 3.55759 23.0823 3.80579 24.1578Z" fill="white"/>
<path fill-rule="evenodd" clip-rule="evenodd" d="M32.6799 20.766C32.6799 30.1149 26.0612 37.8919 17.2086 39.6293C8.35612 37.8091 1.73741 30.0322 1.73741 20.766V1.81993H32.6799V20.766ZM0 0.0825195V20.6832C0 25.6473 1.73741 30.3631 4.79856 34.0861C6.28777 35.9063 8.10791 37.4782 10.1763 38.6365C12.2446 39.8775 14.4784 40.7876 16.8777 41.2012L17.2086 41.284L17.5396 41.2012C19.9389 40.7048 22.1727 39.8775 24.241 38.6365C26.2266 37.3955 28.0468 35.9063 29.6187 34.0861C32.7626 30.3631 34.4173 25.5645 34.4173 20.6832V0.0825195H0Z" fill="white"/>
</g>
<defs>
<clipPath id="clip0_131_452">
<rect width="230" height="41.3669" fill="white"/>
</clipPath>
</defs>
</svg>
