<svg width="82" height="22" viewBox="0 0 82 22" fill="none" xmlns="http://www.w3.org/2000/svg">
<path d="M3.22133 3.25958H18.7781V19C20.7686 16.9858 22 14.2035 22 11.13C22 4.98279 17.0747 0 11.0003 0C4.9258 0 0 4.98301 0 11.13C0 14.2034 1.23142 16.9853 3.22188 18.9993L3.22133 3.25958Z" fill="white"/>
<path d="M3 19V22H19V19H3Z" fill="white"/>
<path d="M30.97 18.39C30.3233 18.39 29.7367 18.3233 29.21 18.19C28.69 18.0567 28.2333 17.8667 27.84 17.62C27.4533 17.38 27.1433 17.0967 26.91 16.77L28.05 15.68C28.1767 15.8533 28.3467 16.0367 28.56 16.23C28.78 16.43 29.0767 16.6 29.45 16.74C29.8233 16.88 30.31 16.95 30.91 16.95C31.4967 16.95 31.9933 16.8233 32.4 16.57C32.8067 16.3233 33.1167 15.9867 33.33 15.56C33.5433 15.1333 33.65 14.6533 33.65 14.12V13.85H35.35V14.23C35.35 15.1367 35.1533 15.8967 34.76 16.51C34.3733 17.13 33.85 17.5967 33.19 17.91C32.53 18.23 31.79 18.39 30.97 18.39ZM33.65 14V12.4C33.5967 12.5667 33.44 12.7967 33.18 13.09C32.9267 13.3833 32.5767 13.65 32.13 13.89C31.69 14.1233 31.17 14.24 30.57 14.24C29.81 14.24 29.12 14.06 28.5 13.7C27.8867 13.34 27.3967 12.8367 27.03 12.19C26.67 11.5367 26.49 10.7733 26.49 9.90001C26.49 9.02667 26.67 8.26667 27.03 7.62001C27.3967 6.96667 27.8867 6.46001 28.5 6.10001C29.12 5.73334 29.81 5.55001 30.57 5.55001C31.1633 5.55001 31.6767 5.65667 32.11 5.87001C32.55 6.08334 32.9 6.33001 33.16 6.61001C33.4267 6.89001 33.5833 7.13001 33.63 7.33001V5.79001H35.35V14H33.65ZM28.21 9.90001C28.21 10.4933 28.34 11.0067 28.6 11.44C28.86 11.8733 29.1967 12.21 29.61 12.45C30.03 12.6833 30.4767 12.8 30.95 12.8C31.4567 12.8 31.91 12.68 32.31 12.44C32.71 12.2 33.0267 11.8633 33.26 11.43C33.4933 10.99 33.61 10.48 33.61 9.90001C33.61 9.32001 33.4933 8.81334 33.26 8.38001C33.0267 7.94001 32.71 7.60001 32.31 7.36001C31.91 7.11334 31.4567 6.99001 30.95 6.99001C30.4767 6.99001 30.03 7.11001 29.61 7.35001C29.1967 7.59001 28.86 7.92667 28.6 8.36001C28.34 8.79334 28.21 9.30667 28.21 9.90001Z" fill="white"/>
<path d="M44.3531 14V12.4C44.2998 12.5667 44.1431 12.7967 43.8831 13.09C43.6298 13.3833 43.2798 13.65 42.8331 13.89C42.3931 14.1233 41.8731 14.24 41.2731 14.24C40.5131 14.24 39.8231 14.06 39.2031 13.7C38.5898 13.34 38.0998 12.8367 37.7331 12.19C37.3731 11.5367 37.1931 10.7733 37.1931 9.90001C37.1931 9.02667 37.3731 8.26667 37.7331 7.62001C38.0998 6.96667 38.5898 6.46001 39.2031 6.10001C39.8231 5.73334 40.5131 5.55001 41.2731 5.55001C41.8664 5.55001 42.3798 5.65667 42.8131 5.87001C43.2531 6.08334 43.6031 6.33001 43.8631 6.61001C44.1298 6.89001 44.2864 7.13001 44.3331 7.33001V5.79001H46.0531V14H44.3531ZM38.9131 9.90001C38.9131 10.4933 39.0431 11.0067 39.3031 11.44C39.5631 11.8733 39.8998 12.21 40.3131 12.45C40.7331 12.6833 41.1798 12.8 41.6531 12.8C42.1598 12.8 42.6131 12.68 43.0131 12.44C43.4131 12.2 43.7298 11.8633 43.9631 11.43C44.1964 10.99 44.3131 10.48 44.3131 9.90001C44.3131 9.32001 44.1964 8.81334 43.9631 8.38001C43.7298 7.94001 43.4131 7.60001 43.0131 7.36001C42.6131 7.11334 42.1598 6.99001 41.6531 6.99001C41.1798 6.99001 40.7331 7.11001 40.3131 7.35001C39.8998 7.59001 39.5631 7.92667 39.3031 8.36001C39.0431 8.79334 38.9131 9.30667 38.9131 9.90001Z" fill="white"/>
<path d="M50.1881 14H48.4381V0.240005H50.1881V14Z" fill="white"/>
<path d="M59.2945 14V12.4C59.2412 12.5667 59.0845 12.7967 58.8245 13.09C58.5712 13.3833 58.2212 13.65 57.7745 13.89C57.3345 14.1233 56.8145 14.24 56.2145 14.24C55.4545 14.24 54.7645 14.06 54.1445 13.7C53.5312 13.34 53.0412 12.8367 52.6745 12.19C52.3145 11.5367 52.1345 10.7733 52.1345 9.90001C52.1345 9.02667 52.3145 8.26667 52.6745 7.62001C53.0412 6.96667 53.5312 6.46001 54.1445 6.10001C54.7645 5.73334 55.4545 5.55001 56.2145 5.55001C56.8079 5.55001 57.3212 5.65667 57.7545 5.87001C58.1945 6.08334 58.5445 6.33001 58.8045 6.61001C59.0712 6.89001 59.2279 7.13001 59.2745 7.33001V5.79001H60.9945V14H59.2945ZM53.8545 9.90001C53.8545 10.4933 53.9845 11.0067 54.2445 11.44C54.5045 11.8733 54.8412 12.21 55.2545 12.45C55.6745 12.6833 56.1212 12.8 56.5945 12.8C57.1012 12.8 57.5545 12.68 57.9545 12.44C58.3545 12.2 58.6712 11.8633 58.9045 11.43C59.1379 10.99 59.2545 10.48 59.2545 9.90001C59.2545 9.32001 59.1379 8.81334 58.9045 8.38001C58.6712 7.94001 58.3545 7.60001 57.9545 7.36001C57.5545 7.11334 57.1012 6.99001 56.5945 6.99001C56.1212 6.99001 55.6745 7.11001 55.2545 7.35001C54.8412 7.59001 54.5045 7.92667 54.2445 8.36001C53.9845 8.79334 53.8545 9.30667 53.8545 9.90001Z" fill="white"/>
<path d="M68.1695 9.66001L71.7295 14H69.7295L67.0995 10.73L64.4795 14H62.5895L66.1395 9.76001L62.9495 5.79001H64.9595L67.1895 8.64001L69.4595 5.79001H71.3195L68.1695 9.66001Z" fill="white"/>
<path d="M76.8272 12.41L79.5972 5.79001H81.3372L75.7972 18.16H74.0372L75.8972 14L72.5172 5.79001H74.2872L76.8272 12.41Z" fill="white"/>
</svg>
