<svg viewBox="0 0 396 72" xmlns="http://www.w3.org/2000/svg">
    <g fill="none" fill-rule="evenodd">
        <g fill-rule="nonzero">
            <g class="logo__IMC" transform="translate(216 9)" fill="#1180C4">
                <path
                    d="M176.505 41.22a20.458 20.458 0 0 1-17.894 9.5c-8.243-.274-15.464-7.04-18.695-18.302-4-13.923-.569-23.434 8.42-27.582 6.948-3.167 14.98.169 17.327 3.525-3.158 1.542-3.716 5.479-3 7.864a7.01 7.01 0 0 0 4.624 4.55 6.985 6.985 0 0 0 6.366-1.204c2.39-1.847 3.042-4.813 2.39-7.779-.727-3.167-3.359-5.71-6.432-7.653A27.312 27.312 0 0 0 154.874.001c-14.537-.137-28.021 12.129-28.021 28.933 0 17.311 14.947 27.793 27.79 27.793a27.669 27.669 0 0 0 24.43-13.828c-.168-.126-2.336-1.456-2.568-1.678">
                </path>
                <path
                    d="M116.41 49.116V20.543c0-5.975-.652-10.197-3.473-13.87C109.4 2.06 105.116.339 99.516.339c-7.895 0-14.337 4.782-18.527 10.387a14.79 14.79 0 0 0-2.178-4.011C75.274 2.102 70.979.38 65.379.38 58.295.255 52.42 4.161 48.21 8.995v-7.58H31v1.7h1.053c2.326 0 3.81 1.404 3.81 4.223v41.81c0 2.818-1.484 4.222-3.8 4.222h-1.052v1.71h22.105v-1.74h-1.053c-2.337 0-3.81-1.404-3.81-4.223V15.402c2.779-3.694 7.42-7.78 12.358-7.78a8.759 8.759 0 0 1 7.526 3.494A11.086 11.086 0 0 1 69.916 18v31.117c0 2.808-1.474 4.223-3.8 4.223h-1.053v1.7h22.105v-1.71h-1.052c-2.327 0-3.8-1.405-3.8-4.223V20.532a44.509 44.509 0 0 0-.21-4.76c2.747-3.78 7.536-8.15 12.63-8.15a8.748 8.748 0 0 1 7.517 3.494 11.096 11.096 0 0 1 1.79 6.883v31.117c0 2.808-1.485 4.223-3.811 4.223h-1.053v1.7h22.105v-1.71h-1.052c-2.327 0-3.81-1.405-3.81-4.223">
                </path>
                <path
                    d="M0 3.126h1.053c2.326 0 3.81 1.404 3.81 4.222v41.357c0 2.808-1.474 4.665-3.8 4.665H.011v1.7h22.105v-1.69h-1.053c-2.326 0-3.8-1.403-3.8-4.221V7.349c0-2.809 1.474-4.223 3.8-4.223h1.053v-1.71H.01L0 3.126z">
                </path>
            </g>
            <g class="logo__shape">
                <g class="logo__outer-hor-blobs">
                    <path
                        d="M12 24c6 0 9-5 12-5s5.5 5 12 5 12-5 12-12S42.5 0 36 0s-9 5-12 5-5.5-5-12-5S0 5 0 12s6 12 12 12z"
                        fill="#D9E2F0"></path>
                    <path
                        d="M12 48c6 0 9-5 12-5s5.5 5 12 5 12-5 12-12-5.5-12-12-12-9 5-12 5-5.5-5-12-5S0 29 0 36s6 12 12 12z"
                        fill="#C8E4E2"></path>
                    <path
                        d="M12 72c6 0 9-5 12-5s5.5 5 12 5 12-5 12-12-5.5-12-12-12-9 5-12 5-5.5-5-12-5S0 53 0 60s6 12 12 12z"
                        fill="#9BD3D0"></path>
                    <path
                        d="M36 24c6 0 9-5 12-5s5.5 5 12 5 12-5 12-12S66.5 0 60 0s-9 5-12 5-5.5-5-12-5-12 5-12 12 6 12 12 12z"
                        fill="#CDDBEE"></path>
                    <path
                        d="M36 48c6 0 9-5 12-5s5.5 5 12 5 12-5 12-12-5.5-12-12-12-9 5-12 5-5.5-5-12-5-12 5-12 12 6 12 12 12z"
                        fill="#91CFCE"></path>
                    <path
                        d="M36 72c6 0 9-5 12-5s5.5 5 12 5 12-5 12-12-5.5-12-12-12-9 5-12 5-5.5-5-12-5-12 5-12 12 6 12 12 12z"
                        fill="#D0E1F0"></path>
                    <path
                        d="M60 24c6 0 9-5 12-5s5.5 5 12 5 12-5 12-12S90.5 0 84 0s-9 5-12 5-5.5-5-12-5-12 5-12 12 6 12 12 12z"
                        fill="#CDDBEE"></path>
                    <path
                        d="M60 48c6 0 9-5 12-5s5.5 5 12 5 12-5 12-12-5.5-12-12-12-9 5-12 5-5.5-5-12-5-12 5-12 12 6 12 12 12z"
                        fill="#90C6CA"></path>
                    <path
                        d="M60 72c6 0 9-5 12-5s5.5 5 12 5 12-5 12-12-5.5-12-12-12-9 5-12 5-5.5-5-12-5-12 5-12 12 6 12 12 12z"
                        fill="#D0E1F0"></path>
                    <path
                        d="M84 24c6 0 9-5 12-5s5.5 5 12 5 12-5 12-12-5.5-12-12-12-9 5-12 5-5.5-5-12-5-12 5-12 12 6 12 12 12z"
                        fill="#BFD3EA"></path>
                    <path
                        d="M84 48c6 0 9-5 12-5s5.5 5 12 5 12-5 12-12-5.5-12-12-12-9 5-12 5-5.5-5-12-5-12 5-12 12 6 12 12 12z"
                        fill="#9CBFE2"></path>
                    <path
                        d="M84 72c6 0 9-5 12-5s5.5 5 12 5 12-5 12-12-5.5-12-12-12-9 5-12 5-5.5-5-12-5-12 5-12 12 6 12 12 12z"
                        fill="#CDDBEE"></path>
                    <path
                        d="M108 24c6 0 9-5 12-5s5.5 5 12 5 12-5 12-12-5.5-12-12-12-9 5-12 5-5.5-5-12-5-12 5-12 12 6 12 12 12z"
                        fill="#B6CEE7"></path>
                    <path
                        d="M108 48c6 0 9-5 12-5s5.5 5 12 5 12-5 12-12-5.5-12-12-12-9 5-12 5-5.5-5-12-5-12 5-12 12 6 12 12 12z"
                        fill="#8FBAE0"></path>
                    <path
                        d="M108 72c6 0 9-5 12-5s5.5 5 12 5 12-5 12-12-5.5-12-12-12-9 5-12 5-5.5-5-12-5-12 5-12 12 6 12 12 12z"
                        fill="#B9D0E9"></path>
                    <path
                        d="M132 24c6 0 9-5 12-5s5.5 5 12 5 12-5 12-12-5.5-12-12-12-9 5-12 5-5.5-5-12-5-12 5-12 12 6 12 12 12zm0 24c6 0 9-5 12-5s5.5 5 12 5 12-5 12-12-5.5-12-12-12-9 5-12 5-5.5-5-12-5-12 5-12 12 6 12 12 12z"
                        fill="#8BB7DF"></path>
                    <path
                        d="M132 72c6 0 9-5 12-5s5.5 5 12 5 12-5 12-12-5.5-12-12-12-9 5-12 5-5.5-5-12-5-12 5-12 12 6 12 12 12z"
                        fill="#98BDE0"></path>
                    <path
                        d="M156 24c6 0 9-5 12-5s5.5 5 12 5 12-5 12-12-5.5-12-12-12-9 5-12 5-5.5-5-12-5-12 5-12 12 6 12 12 12zm0 24c6 0 9-5 12-5s5.5 5 12 5 12-5 12-12-5.5-12-12-12-9 5-12 5-5.5-5-12-5-12 5-12 12 6 12 12 12z"
                        fill="#8BB7DF"></path>
                    <path
                        d="M156 72c6 0 9-5 12-5s5.5 5 12 5 12-5 12-12-5.5-12-12-12-9 5-12 5-5.5-5-12-5-12 5-12 12 6 12 12 12z"
                        fill="#98BBE0"></path>
                </g>
                <g class="logo__outer-ver-blobs">
                    <path
                        d="M0 36c6 0 9-5 12-5s5.5 5 12 5 12-5 12-12-5.5-12-12-12-9 5-12 5-5.5-5-12-5-12 5-12 12 6 12 12 12z"
                        fill="#D9E2F0" transform="rotate(90 12 24)"></path>
                    <path
                        d="M0 60c6 0 9-5 12-5s5.5 5 12 5 12-5 12-12-5.5-12-12-12-9 5-12 5-5.5-5-12-5-12 5-12 12 6 12 12 12z"
                        fill="#A6D7D5" transform="rotate(90 12 48)"></path>
                    <path
                        d="M24 36c6 0 9-5 12-5s5.5 5 12 5 12-5 12-12-5.5-12-12-12-9 5-12 5-5.5-5-12-5-12 5-12 12 6 12 12 12z"
                        fill="#D9E2F0" transform="rotate(90 36 24)"></path>
                    <path
                        d="M24 60c6 0 9-5 12-5s5.5 5 12 5 12-5 12-12-5.5-12-12-12-9 5-12 5-5.5-5-12-5-12 5-12 12 6 12 12 12z"
                        fill="#CDE7E3" transform="rotate(90 36 48)"></path>
                    <path
                        d="M48 36c6 0 9-5 12-5s5.5 5 12 5 12-5 12-12-5.5-12-12-12-9 5-12 5-5.5-5-12-5-12 5-12 12 6 12 12 12z"
                        fill="#CDDBEE" transform="rotate(90 60 24)"></path>
                    <path
                        d="M48 60c6 0 9-5 12-5s5.5 5 12 5 12-5 12-12-5.5-12-12-12-9 5-12 5-5.5-5-12-5-12 5-12 12 6 12 12 12z"
                        fill="#CDDBEE" transform="rotate(90 60 48)"></path>
                    <path
                        d="M72 36c6 0 9-5 12-5s5.5 5 12 5 12-5 12-12-5.5-12-12-12-9 5-12 5-5.5-5-12-5-12 5-12 12 6 12 12 12z"
                        fill="#BFD3EA" transform="rotate(90 84 24)"></path>
                    <path
                        d="M72 60c6 0 9-5 12-5s5.5 5 12 5 12-5 12-12-5.5-12-12-12-9 5-12 5-5.5-5-12-5-12 5-12 12 6 12 12 12z"
                        fill="#BFD3EA" transform="rotate(90 84 48)"></path>
                    <path
                        d="M96 36c6 0 9-5 12-5s5.5 5 12 5 12-5 12-12-5.5-12-12-12-9 5-12 5-5.5-5-12-5-12 5-12 12 6 12 12 12z"
                        fill="#A4C2E3" transform="rotate(90 108 24)"></path>
                    <path
                        d="M96 60c6 0 9-5 12-5s5.5 5 12 5 12-5 12-12-5.5-12-12-12-9 5-12 5-5.5-5-12-5-12 5-12 12 6 12 12 12z"
                        fill="#BFD3EA" transform="rotate(90 108 48)"></path>
                    <path
                        d="M120 36c6 0 9-5 12-5s5.5 5 12 5 12-5 12-12-5.5-12-12-12-9 5-12 5-5.5-5-12-5-12 5-12 12 6 12 12 12z"
                        fill="#80AFDC" transform="rotate(90 132 24)"></path>
                    <path
                        d="M120 60c6 0 9-5 12-5s5.5 5 12 5 12-5 12-12-5.5-12-12-12-9 5-12 5-5.5-5-12-5-12 5-12 12 6 12 12 12z"
                        fill="#A4C2E3" transform="rotate(90 132 48)"></path>
                    <path
                        d="M144 36c6 0 9-5 12-5s5.5 5 12 5 12-5 12-12-5.5-12-12-12-9 5-12 5-5.5-5-12-5-12 5-12 12 6 12 12 12z"
                        fill="#80AFDC" transform="rotate(90 156 24)"></path>
                    <path
                        d="M144 60c6 0 9-5 12-5s5.5 5 12 5 12-5 12-12-5.5-12-12-12-9 5-12 5-5.5-5-12-5-12 5-12 12 6 12 12 12z"
                        fill="#8BB7DF" transform="rotate(90 156 48)"></path>
                    <path
                        d="M168 36c6 0 9-5 12-5s5.5 5 12 5 12-5 12-12-5.5-12-12-12-9 5-12 5-5.5-5-12-5-12 5-12 12 6 12 12 12z"
                        fill="#6BA3D6" transform="rotate(90 180 24)"></path>
                    <path
                        d="M168 60c6 0 9-5 12-5s5.5 5 12 5 12-5 12-12-5.5-12-12-12-9 5-12 5-5.5-5-12-5-12 5-12 12 6 12 12 12z"
                        fill="#79A8D8" transform="rotate(90 180 48)"></path>
                </g>
                <g class="logo__outer-dots">
                    <path
                        d="M12 24C5.373 24 0 18.627 0 12S5.373 0 12 0s12 5.373 12 12-5.373 12-12 12zm0-7.25a4.75 4.75 0 1 0 0-9.5 4.75 4.75 0 0 0 0 9.5z"
                        fill="#BFD3E7"></path>
                    <path
                        d="M36 24c-6.627 0-12-5.373-12-12S29.373 0 36 0s12 5.373 12 12-5.373 12-12 12zm0-7.25a4.75 4.75 0 1 0 0-9.5 4.75 4.75 0 0 0 0 9.5z"
                        fill="#A5C3E1"></path>
                    <path
                        d="M60 24c-6.627 0-12-5.373-12-12S53.373 0 60 0s12 5.373 12 12-5.373 12-12 12zm0-7.25a4.75 4.75 0 1 0 0-9.5 4.75 4.75 0 0 0 0 9.5z"
                        fill="#8CB7DD"></path>
                    <path
                        d="M84 24c-6.627 0-12-5.373-12-12S77.373 0 84 0s12 5.373 12 12-5.373 12-12 12zm0-7.25a4.75 4.75 0 1 0 0-9.5 4.75 4.75 0 0 0 0 9.5z"
                        fill="#82B0DA"></path>
                    <path
                        d="M108 24c-6.627 0-12-5.373-12-12s5.373-12 12-12 12 5.373 12 12-5.373 12-12 12zm0-7.25a4.75 4.75 0 1 0 0-9.5 4.75 4.75 0 0 0 0 9.5z"
                        fill="#519AD0"></path>
                    <path
                        d="M132 24c-6.627 0-12-5.373-12-12s5.373-12 12-12 12 5.373 12 12-5.373 12-12 12zm0-7.25a4.75 4.75 0 1 0 0-9.5 4.75 4.75 0 0 0 0 9.5z"
                        fill="#1386C6"></path>
                    <path
                        d="M156 24c-6.627 0-12-5.373-12-12s5.373-12 12-12 12 5.373 12 12-5.373 12-12 12zm0-7.25a4.75 4.75 0 1 0 0-9.5 4.75 4.75 0 0 0 0 9.5z"
                        fill="#1181C0"></path>
                    <path
                        d="M180 24c-6.627 0-12-5.373-12-12s5.373-12 12-12 12 5.373 12 12-5.373 12-12 12zm0-7.25a4.75 4.75 0 1 0 0-9.5 4.75 4.75 0 0 0 0 9.5z"
                        fill="#1386C6"></path>
                    <path
                        d="M12 48C5.373 48 0 42.627 0 36s5.373-12 12-12 12 5.373 12 12-5.373 12-12 12zm0-7.25a4.75 4.75 0 1 0 0-9.5 4.75 4.75 0 0 0 0 9.5z"
                        fill="#81BFC5"></path>
                    <path
                        d="M36 48c-6.627 0-12-5.373-12-12s5.373-12 12-12 12 5.373 12 12-5.373 12-12 12zm0-7.25a4.75 4.75 0 1 0 0-9.5 4.75 4.75 0 0 0 0 9.5z"
                        fill="#64B7BC"></path>
                    <path
                        d="M60 48c-6.627 0-12-5.373-12-12s5.373-12 12-12 12 5.373 12 12-5.373 12-12 12zm0-7.25a4.75 4.75 0 1 0 0-9.5 4.75 4.75 0 0 0 0 9.5z"
                        fill="#42A5B2"></path>
                    <path
                        d="M84 48c-6.627 0-12-5.373-12-12s5.373-12 12-12 12 5.373 12 12-5.373 12-12 12zm0-7.25a4.75 4.75 0 1 0 0-9.5 4.75 4.75 0 0 0 0 9.5z"
                        fill="#2E9AB3"></path>
                    <path
                        d="M108 48c-6.627 0-12-5.373-12-12s5.373-12 12-12 12 5.373 12 12-5.373 12-12 12zm0-7.25a4.75 4.75 0 1 0 0-9.5 4.75 4.75 0 0 0 0 9.5z"
                        fill="#0888B6"></path>
                    <path
                        d="M132 48c-6.627 0-12-5.373-12-12s5.373-12 12-12 12 5.373 12 12-5.373 12-12 12zm0-7.25a4.75 4.75 0 1 0 0-9.5 4.75 4.75 0 0 0 0 9.5zM156 48c-6.627 0-12-5.373-12-12s5.373-12 12-12 12 5.373 12 12-5.373 12-12 12zm0-7.25a4.75 4.75 0 1 0 0-9.5 4.75 4.75 0 0 0 0 9.5zM180 48c-6.627 0-12-5.373-12-12s5.373-12 12-12 12 5.373 12 12-5.373 12-12 12zm0-7.25a4.75 4.75 0 1 0 0-9.5 4.75 4.75 0 0 0 0 9.5z"
                        fill="#1881C1"></path>
                    <path
                        d="M12 72C5.373 72 0 66.627 0 60s5.373-12 12-12 12 5.373 12 12-5.373 12-12 12zm0-7.25a4.75 4.75 0 1 0 0-9.5 4.75 4.75 0 0 0 0 9.5z"
                        fill="#6CC0BD"></path>
                    <path
                        d="M36 72c-6.627 0-12-5.373-12-12s5.373-12 12-12 12 5.373 12 12-5.373 12-12 12zm0-7.25a4.75 4.75 0 1 0 0-9.5 4.75 4.75 0 0 0 0 9.5z"
                        fill="#81C4C5"></path>
                    <path
                        d="M60 72c-6.627 0-12-5.373-12-12s5.373-12 12-12 12 5.373 12 12-5.373 12-12 12zm0-7.25a4.75 4.75 0 1 0 0-9.5 4.75 4.75 0 0 0 0 9.5z"
                        fill="#B2CBE4"></path>
                    <path
                        d="M84 72c-6.627 0-12-5.373-12-12s5.373-12 12-12 12 5.373 12 12-5.373 12-12 12zm0-7.25a4.75 4.75 0 1 0 0-9.5 4.75 4.75 0 0 0 0 9.5z"
                        fill="#9CC0E1"></path>
                    <path
                        d="M108 72c-6.627 0-12-5.373-12-12s5.373-12 12-12 12 5.373 12 12-5.373 12-12 12zm0-7.25a4.75 4.75 0 1 0 0-9.5 4.75 4.75 0 0 0 0 9.5z"
                        fill="#7AA9D6"></path>
                    <path
                        d="M132 72c-6.627 0-12-5.373-12-12s5.373-12 12-12 12 5.373 12 12-5.373 12-12 12zm0-7.25a4.75 4.75 0 1 0 0-9.5 4.75 4.75 0 0 0 0 9.5z"
                        fill="#619ED1"></path>
                    <path
                        d="M156 72c-6.627 0-12-5.373-12-12s5.373-12 12-12 12 5.373 12 12-5.373 12-12 12zm0-7.25a4.75 4.75 0 1 0 0-9.5 4.75 4.75 0 0 0 0 9.5zM180 72c-6.627 0-12-5.373-12-12s5.373-12 12-12 12 5.373 12 12-5.373 12-12 12zm0-7.25a4.75 4.75 0 1 0 0-9.5 4.75 4.75 0 0 0 0 9.5z"
                        fill="#1386C6"></path>
                </g>
                <g class="logo__inner-ver-blobs" transform="translate(7.25 7.25)" fill="#0D4F90" fill-opacity=".2">
                    <path
                        d="M4.75 33.5c2.761 0 4.734-2.285 4.75-4.749.016-2.464-3.733-9.546-3.697-12.501C5.839 13.295 9.5 7.334 9.5 4.75 9.5 2.166 7.512 0 4.75 0 1.99 0 0 2.166 0 4.75s3.727 8.545 3.698 11.5C3.668 19.205.018 26.286 0 28.75c-.017 2.464 1.989 4.75 4.75 4.75z">
                    </path>
                    <path
                        d="M4.75 57.5c2.761 0 4.734-2.285 4.75-4.749.016-2.464-3.733-9.546-3.697-12.501.036-2.955 3.697-8.916 3.697-11.5C9.5 26.166 7.512 24 4.75 24 1.99 24 0 26.166 0 28.75s3.727 8.545 3.698 11.5C3.668 43.205.018 50.286 0 52.75c-.017 2.464 1.989 4.75 4.75 4.75zm24-24c2.761 0 4.734-2.285 4.75-4.749.016-2.464-3.733-9.546-3.697-12.501.036-2.955 3.697-8.916 3.697-11.5C33.5 2.166 31.512 0 28.75 0 25.99 0 24 2.166 24 4.75s3.727 8.545 3.698 11.5c-.03 2.955-3.68 10.036-3.698 12.5-.017 2.464 1.989 4.75 4.75 4.75z">
                    </path>
                    <path
                        d="M28.75 57.5c2.761 0 4.734-2.285 4.75-4.749.016-2.464-3.733-9.546-3.697-12.501.036-2.955 3.697-8.916 3.697-11.5 0-2.584-1.988-4.75-4.75-4.75-2.76 0-4.75 2.166-4.75 4.75s3.727 8.545 3.698 11.5c-.03 2.955-3.68 10.036-3.698 12.5-.017 2.464 1.989 4.75 4.75 4.75zm24-24c2.761 0 4.734-2.285 4.75-4.749.016-2.464-3.733-9.546-3.697-12.501.036-2.955 3.697-8.916 3.697-11.5C57.5 2.166 55.512 0 52.75 0 49.99 0 48 2.166 48 4.75s3.727 8.545 3.698 11.5c-.03 2.955-3.68 10.036-3.698 12.5-.017 2.464 1.989 4.75 4.75 4.75z">
                    </path>
                    <path
                        d="M52.75 57.5c2.761 0 4.734-2.285 4.75-4.749.016-2.464-3.733-9.546-3.697-12.501.036-2.955 3.697-8.916 3.697-11.5 0-2.584-1.988-4.75-4.75-4.75-2.76 0-4.75 2.166-4.75 4.75s3.727 8.545 3.698 11.5c-.03 2.955-3.68 10.036-3.698 12.5-.017 2.464 1.989 4.75 4.75 4.75zm24-24c2.761 0 4.734-2.285 4.75-4.749.016-2.464-3.733-9.546-3.697-12.501.036-2.955 3.697-8.916 3.697-11.5C81.5 2.166 79.512 0 76.75 0 73.99 0 72 2.166 72 4.75s3.727 8.545 3.698 11.5c-.03 2.955-3.68 10.036-3.698 12.5-.017 2.464 1.989 4.75 4.75 4.75z">
                    </path>
                    <path
                        d="M76.75 57.5c2.761 0 4.734-2.285 4.75-4.749.016-2.464-3.733-9.546-3.697-12.501.036-2.955 3.697-8.916 3.697-11.5 0-2.584-1.988-4.75-4.75-4.75-2.76 0-4.75 2.166-4.75 4.75s3.727 8.545 3.698 11.5c-.03 2.955-3.68 10.036-3.698 12.5-.017 2.464 1.989 4.75 4.75 4.75zm24-24c2.761 0 4.734-2.285 4.75-4.749.016-2.464-3.733-9.546-3.697-12.501.036-2.955 3.697-8.916 3.697-11.5 0-2.584-1.988-4.75-4.75-4.75C97.99 0 96 2.166 96 4.75s3.727 8.545 3.698 11.5c-.03 2.955-3.68 10.036-3.698 12.5-.017 2.464 1.989 4.75 4.75 4.75z">
                    </path>
                    <path
                        d="M100.75 57.5c2.761 0 4.734-2.285 4.75-4.749.016-2.464-3.733-9.546-3.697-12.501.036-2.955 3.697-8.916 3.697-11.5 0-2.584-1.988-4.75-4.75-4.75-2.76 0-4.75 2.166-4.75 4.75s3.727 8.545 3.698 11.5c-.03 2.955-3.68 10.036-3.698 12.5-.017 2.464 1.989 4.75 4.75 4.75zm24-24c2.761 0 4.734-2.285 4.75-4.749.016-2.464-3.733-9.546-3.697-12.501.036-2.955 3.697-8.916 3.697-11.5 0-2.584-1.988-4.75-4.75-4.75-2.76 0-4.75 2.166-4.75 4.75s3.727 8.545 3.698 11.5c-.03 2.955-3.68 10.036-3.698 12.5-.017 2.464 1.989 4.75 4.75 4.75z">
                    </path>
                    <path
                        d="M124.75 57.5c2.761 0 4.734-2.285 4.75-4.749.016-2.464-3.733-9.546-3.697-12.501.036-2.955 3.697-8.916 3.697-11.5 0-2.584-1.988-4.75-4.75-4.75-2.761 0-4.75 2.166-4.75 4.75s3.727 8.545 3.698 11.5c-.03 2.955-3.68 10.036-3.698 12.5-.017 2.464 1.989 4.75 4.75 4.75zm24-24c2.761 0 4.734-2.285 4.75-4.749.016-2.464-3.733-9.546-3.697-12.501.036-2.955 3.697-8.916 3.697-11.5 0-2.584-1.988-4.75-4.75-4.75-2.76 0-4.75 2.166-4.75 4.75s3.727 8.545 3.698 11.5c-.03 2.955-3.68 10.036-3.698 12.5-.017 2.464 1.989 4.75 4.75 4.75z">
                    </path>
                    <path
                        d="M148.75 57.5c2.761 0 4.734-2.285 4.75-4.749.016-2.464-3.733-9.546-3.697-12.501.036-2.955 3.697-8.916 3.697-11.5 0-2.584-1.988-4.75-4.75-4.75-2.761 0-4.75 2.166-4.75 4.75s3.727 8.545 3.698 11.5c-.03 2.955-3.68 10.036-3.698 12.5-.017 2.464 1.989 4.75 4.75 4.75zm24-24c2.761 0 4.734-2.285 4.75-4.749.016-2.464-3.733-9.546-3.697-12.501.036-2.955 3.697-8.916 3.697-11.5 0-2.584-1.988-4.75-4.75-4.75-2.76 0-4.75 2.166-4.75 4.75s3.727 8.545 3.698 11.5c-.03 2.955-3.68 10.036-3.698 12.5-.017 2.464 1.989 4.75 4.75 4.75z">
                    </path>
                    <path
                        d="M172.75 57.5c2.761 0 4.734-2.285 4.75-4.749.016-2.464-3.733-9.546-3.697-12.501.036-2.955 3.697-8.916 3.697-11.5 0-2.584-1.988-4.75-4.75-4.75-2.761 0-4.75 2.166-4.75 4.75s3.727 8.545 3.698 11.5c-.03 2.955-3.68 10.036-3.698 12.5-.017 2.464 1.989 4.75 4.75 4.75z">
                    </path>
                </g>
                <g class="logo__inner-hor-blobs" transform="translate(7.25 7.25)" fill="#114D8F" fill-opacity=".2">
                    <path
                        d="M16.75 21.5c2.761 0 4.734-2.285 4.75-4.749.016-2.464-3.733-9.546-3.697-12.501.036-2.955 3.697-8.916 3.697-11.5 0-2.584-1.988-4.75-4.75-4.75C13.99-12 12-9.834 12-7.25s3.727 8.545 3.698 11.5c-.03 2.955-3.68 10.036-3.698 12.5-.017 2.464 1.989 4.75 4.75 4.75z"
                        transform="rotate(90 16.75 4.75)"></path>
                    <path
                        d="M40.75 21.5c2.761 0 4.734-2.285 4.75-4.749.016-2.464-3.733-9.546-3.697-12.501.036-2.955 3.697-8.916 3.697-11.5 0-2.584-1.988-4.75-4.75-4.75C37.99-12 36-9.834 36-7.25s3.727 8.545 3.698 11.5c-.03 2.955-3.68 10.036-3.698 12.5-.017 2.464 1.989 4.75 4.75 4.75z"
                        transform="rotate(90 40.75 4.75)"></path>
                    <path
                        d="M64.75 21.5c2.761 0 4.734-2.285 4.75-4.749.016-2.464-3.733-9.546-3.697-12.501.036-2.955 3.697-8.916 3.697-11.5 0-2.584-1.988-4.75-4.75-4.75C61.99-12 60-9.834 60-7.25s3.727 8.545 3.698 11.5c-.03 2.955-3.68 10.036-3.698 12.5-.017 2.464 1.989 4.75 4.75 4.75z"
                        transform="rotate(90 64.75 4.75)"></path>
                    <path
                        d="M88.75 21.5c2.761 0 4.734-2.285 4.75-4.749.016-2.464-3.733-9.546-3.697-12.501.036-2.955 3.697-8.916 3.697-11.5 0-2.584-1.988-4.75-4.75-4.75C85.99-12 84-9.834 84-7.25s3.727 8.545 3.698 11.5c-.03 2.955-3.68 10.036-3.698 12.5-.017 2.464 1.989 4.75 4.75 4.75z"
                        transform="rotate(90 88.75 4.75)"></path>
                    <path
                        d="M112.75 21.5c2.761 0 4.734-2.285 4.75-4.749.016-2.464-3.733-9.546-3.697-12.501.036-2.955 3.697-8.916 3.697-11.5 0-2.584-1.988-4.75-4.75-4.75-2.761 0-4.75 2.166-4.75 4.75s3.727 8.545 3.698 11.5c-.03 2.955-3.68 10.036-3.698 12.5-.017 2.464 1.989 4.75 4.75 4.75z"
                        transform="rotate(90 112.75 4.75)"></path>
                    <path
                        d="M136.75 21.5c2.761 0 4.734-2.285 4.75-4.749.016-2.464-3.733-9.546-3.697-12.501.036-2.955 3.697-8.916 3.697-11.5 0-2.584-1.988-4.75-4.75-4.75-2.761 0-4.75 2.166-4.75 4.75s3.727 8.545 3.698 11.5c-.03 2.955-3.68 10.036-3.698 12.5-.017 2.464 1.989 4.75 4.75 4.75z"
                        transform="rotate(90 136.75 4.75)"></path>
                    <path
                        d="M160.75 21.5c2.761 0 4.734-2.285 4.75-4.749.016-2.464-3.733-9.546-3.697-12.501.036-2.955 3.697-8.916 3.697-11.5 0-2.584-1.988-4.75-4.75-4.75-2.761 0-4.75 2.166-4.75 4.75s3.727 8.545 3.698 11.5c-.03 2.955-3.68 10.036-3.698 12.5-.017 2.464 1.989 4.75 4.75 4.75z"
                        transform="rotate(90 160.75 4.75)"></path>
                    <path
                        d="M16.75 45.5c2.761 0 4.734-2.285 4.75-4.749.016-2.464-3.733-9.546-3.697-12.501.036-2.955 3.697-8.916 3.697-11.5 0-2.584-1.988-4.75-4.75-4.75-2.76 0-4.75 2.166-4.75 4.75s3.727 8.545 3.698 11.5c-.03 2.955-3.68 10.036-3.698 12.5-.017 2.464 1.989 4.75 4.75 4.75z"
                        transform="rotate(90 16.75 28.75)"></path>
                    <path
                        d="M40.75 45.5c2.761 0 4.734-2.285 4.75-4.749.016-2.464-3.733-9.546-3.697-12.501.036-2.955 3.697-8.916 3.697-11.5 0-2.584-1.988-4.75-4.75-4.75-2.76 0-4.75 2.166-4.75 4.75s3.727 8.545 3.698 11.5c-.03 2.955-3.68 10.036-3.698 12.5-.017 2.464 1.989 4.75 4.75 4.75z"
                        transform="rotate(90 40.75 28.75)"></path>
                    <path
                        d="M64.75 45.5c2.761 0 4.734-2.285 4.75-4.749.016-2.464-3.733-9.546-3.697-12.501.036-2.955 3.697-8.916 3.697-11.5 0-2.584-1.988-4.75-4.75-4.75-2.76 0-4.75 2.166-4.75 4.75s3.727 8.545 3.698 11.5c-.03 2.955-3.68 10.036-3.698 12.5-.017 2.464 1.989 4.75 4.75 4.75z"
                        transform="rotate(90 64.75 28.75)"></path>
                    <path
                        d="M88.75 45.5c2.761 0 4.734-2.285 4.75-4.749.016-2.464-3.733-9.546-3.697-12.501.036-2.955 3.697-8.916 3.697-11.5 0-2.584-1.988-4.75-4.75-4.75-2.76 0-4.75 2.166-4.75 4.75s3.727 8.545 3.698 11.5c-.03 2.955-3.68 10.036-3.698 12.5-.017 2.464 1.989 4.75 4.75 4.75z"
                        transform="rotate(90 88.75 28.75)"></path>
                    <path
                        d="M112.75 45.5c2.761 0 4.734-2.285 4.75-4.749.016-2.464-3.733-9.546-3.697-12.501.036-2.955 3.697-8.916 3.697-11.5 0-2.584-1.988-4.75-4.75-4.75-2.761 0-4.75 2.166-4.75 4.75s3.727 8.545 3.698 11.5c-.03 2.955-3.68 10.036-3.698 12.5-.017 2.464 1.989 4.75 4.75 4.75z"
                        transform="rotate(90 112.75 28.75)"></path>
                    <path
                        d="M136.75 45.5c2.761 0 4.734-2.285 4.75-4.749.016-2.464-3.733-9.546-3.697-12.501.036-2.955 3.697-8.916 3.697-11.5 0-2.584-1.988-4.75-4.75-4.75-2.761 0-4.75 2.166-4.75 4.75s3.727 8.545 3.698 11.5c-.03 2.955-3.68 10.036-3.698 12.5-.017 2.464 1.989 4.75 4.75 4.75z"
                        transform="rotate(90 136.75 28.75)"></path>
                    <path
                        d="M160.75 45.5c2.761 0 4.734-2.285 4.75-4.749.016-2.464-3.733-9.546-3.697-12.501.036-2.955 3.697-8.916 3.697-11.5 0-2.584-1.988-4.75-4.75-4.75-2.761 0-4.75 2.166-4.75 4.75s3.727 8.545 3.698 11.5c-.03 2.955-3.68 10.036-3.698 12.5-.017 2.464 1.989 4.75 4.75 4.75z"
                        transform="rotate(90 160.75 28.75)"></path>
                    <path
                        d="M16.75 69.5c2.761 0 4.734-2.285 4.75-4.749.016-2.464-3.733-9.546-3.697-12.501.036-2.955 3.697-8.916 3.697-11.5 0-2.584-1.988-4.75-4.75-4.75-2.76 0-4.75 2.166-4.75 4.75s3.727 8.545 3.698 11.5c-.03 2.955-3.68 10.036-3.698 12.5-.017 2.464 1.989 4.75 4.75 4.75z"
                        transform="rotate(90 16.75 52.75)"></path>
                    <path
                        d="M40.75 69.5c2.761 0 4.734-2.285 4.75-4.749.016-2.464-3.733-9.546-3.697-12.501.036-2.955 3.697-8.916 3.697-11.5 0-2.584-1.988-4.75-4.75-4.75-2.76 0-4.75 2.166-4.75 4.75s3.727 8.545 3.698 11.5c-.03 2.955-3.68 10.036-3.698 12.5-.017 2.464 1.989 4.75 4.75 4.75z"
                        transform="rotate(90 40.75 52.75)"></path>
                    <path
                        d="M64.75 69.5c2.761 0 4.734-2.285 4.75-4.749.016-2.464-3.733-9.546-3.697-12.501.036-2.955 3.697-8.916 3.697-11.5 0-2.584-1.988-4.75-4.75-4.75-2.76 0-4.75 2.166-4.75 4.75s3.727 8.545 3.698 11.5c-.03 2.955-3.68 10.036-3.698 12.5-.017 2.464 1.989 4.75 4.75 4.75z"
                        transform="rotate(90 64.75 52.75)"></path>
                    <path
                        d="M88.75 69.5c2.761 0 4.734-2.285 4.75-4.749.016-2.464-3.733-9.546-3.697-12.501.036-2.955 3.697-8.916 3.697-11.5 0-2.584-1.988-4.75-4.75-4.75-2.76 0-4.75 2.166-4.75 4.75s3.727 8.545 3.698 11.5c-.03 2.955-3.68 10.036-3.698 12.5-.017 2.464 1.989 4.75 4.75 4.75z"
                        transform="rotate(90 88.75 52.75)"></path>
                    <path
                        d="M112.75 69.5c2.761 0 4.734-2.285 4.75-4.749.016-2.464-3.733-9.546-3.697-12.501.036-2.955 3.697-8.916 3.697-11.5 0-2.584-1.988-4.75-4.75-4.75-2.761 0-4.75 2.166-4.75 4.75s3.727 8.545 3.698 11.5c-.03 2.955-3.68 10.036-3.698 12.5-.017 2.464 1.989 4.75 4.75 4.75z"
                        transform="rotate(90 112.75 52.75)"></path>
                    <path
                        d="M136.75 69.5c2.761 0 4.734-2.285 4.75-4.749.016-2.464-3.733-9.546-3.697-12.501.036-2.955 3.697-8.916 3.697-11.5 0-2.584-1.988-4.75-4.75-4.75-2.761 0-4.75 2.166-4.75 4.75s3.727 8.545 3.698 11.5c-.03 2.955-3.68 10.036-3.698 12.5-.017 2.464 1.989 4.75 4.75 4.75z"
                        transform="rotate(90 136.75 52.75)"></path>
                    <path
                        d="M160.75 69.5c2.761 0 4.734-2.285 4.75-4.749.016-2.464-3.733-9.546-3.697-12.501.036-2.955 3.697-8.916 3.697-11.5 0-2.584-1.988-4.75-4.75-4.75-2.761 0-4.75 2.166-4.75 4.75s3.727 8.545 3.698 11.5c-.03 2.955-3.68 10.036-3.698 12.5-.017 2.464 1.989 4.75 4.75 4.75z"
                        transform="rotate(90 160.75 52.75)"></path>
                </g>
                <g class="logo__inner-dots" transform="translate(7.25 7.25)">
                    <circle fill="#76A1CC" cx="4.75" cy="4.75" r="4.75"></circle>
                    <circle fill="#6A91C2" cx="28.75" cy="4.75" r="4.75"></circle>
                    <circle fill="#4981B3" cx="52.75" cy="4.75" r="4.75"></circle>
                    <circle fill="#406EA7" cx="76.75" cy="4.75" r="4.75"></circle>
                    <circle fill="#055293" cx="100.75" cy="4.75" r="4.75"></circle>
                    <circle fill="#1C4787" cx="124.75" cy="4.75" r="4.75"></circle>
                    <circle fill="#1F4686" cx="148.75" cy="4.75" r="4.75"></circle>
                    <circle fill="#114D8F" cx="172.75" cy="4.75" r="4.75"></circle>
                    <circle fill="#0492A0" cx="4.75" cy="28.75" r="4.75"></circle>
                    <circle fill="#018188" cx="28.75" cy="28.75" r="4.75"></circle>
                    <circle fill="#067581" cx="52.75" cy="28.75" r="4.75"></circle>
                    <circle fill="#056B80" cx="76.75" cy="28.75" r="4.75"></circle>
                    <circle fill="#005782" cx="100.75" cy="28.75" r="4.75"></circle>
                    <circle fill="#204580" cx="124.75" cy="28.75" r="4.75"></circle>
                    <circle fill="#1F4686" cx="148.75" cy="28.75" r="4.75"></circle>
                    <circle fill="#1A4888" cx="172.75" cy="28.75" r="4.75"></circle>
                    <circle fill="#029DA2" cx="4.75" cy="52.75" r="4.75"></circle>
                    <circle fill="#0598A6" cx="28.75" cy="52.75" r="4.75"></circle>
                    <circle fill="#3A98BF" cx="52.75" cy="52.75" r="4.75"></circle>
                    <circle fill="#467EB3" cx="76.75" cy="52.75" r="4.75"></circle>
                    <circle fill="#2A5F9D" cx="100.75" cy="52.75" r="4.75"></circle>
                    <circle fill="#1C4787" cx="124.75" cy="52.75" r="4.75"></circle>
                    <circle fill="#1F4686" cx="148.75" cy="52.75" r="4.75"></circle>
                    <circle fill="#19498A" cx="172.75" cy="52.75" r="4.75"></circle>
                </g>
            </g>
        </g>
    </g>
</svg>