<svg width="120" height="39" viewBox="0 0 120 39" fill="none" xmlns="http://www.w3.org/2000/svg">
<g clip-path="url(#clip0_131_458)">
<mask id="mask0_131_458" style="mask-type:luminance" maskUnits="userSpaceOnUse" x="0" y="0" width="99" height="39">
<path d="M98.3053 0H0V38.5714H98.3053V0Z" fill="white"/>
</mask>
<g mask="url(#mask0_131_458)">
<path d="M9.23029 9.25355H10.614V30.6405C10.614 35.3761 6.98408 38.5713 0 38.5713V34.0742C2.99885 34.0742 4.49711 32.812 4.49711 30.2456V9.25355H9.23029ZM5.16793 5.78021C4.84939 5.46948 4.59625 5.09817 4.4234 4.68811C4.25057 4.27806 4.16153 3.83757 4.16153 3.39258C4.16153 2.94759 4.25057 2.50709 4.4234 2.09704C4.59625 1.68699 4.84939 1.31567 5.16793 1.00495C5.47866 0.686404 5.84998 0.433261 6.26003 0.260421C6.67008 0.0875788 7.11058 -0.00146486 7.55557 -0.00146484C8.00056 -0.00146486 8.44105 0.0875788 8.8511 0.260421C9.26116 0.433261 9.63247 0.686404 9.94319 1.00495C10.2617 1.31567 10.5149 1.68699 10.6877 2.09704C10.8606 2.50709 10.9496 2.94759 10.9496 3.39258C10.9496 3.83757 10.8606 4.27806 10.6877 4.68811C10.5149 5.09817 10.2617 5.46948 9.94319 5.78021C9.63247 6.09875 9.26116 6.35189 8.8511 6.52474C8.44105 6.69757 8.00056 6.78661 7.55557 6.78661C7.11058 6.78661 6.67008 6.69757 6.26003 6.52474C5.84998 6.35189 5.47866 6.09875 5.16793 5.78021Z" fill="white"/>
<path d="M28.322 9.25391H34.4389V29.4956H28.322V26.5364C27.3959 27.6125 26.2441 28.4713 24.9486 29.0519C23.6529 29.6323 22.2455 29.9203 20.826 29.8952C16.247 29.8952 13.2085 27.0553 13.2085 21.7285V9.25859H19.3278V19.4005C19.3278 22.9065 20.7091 24.6876 23.5117 24.6876C26.1949 24.6876 28.3243 22.5956 28.3243 18.4514L28.322 9.25391Z" fill="white"/>
<path d="M72.6058 17.0398V29.5073H66.4914V19.169C66.4914 15.7752 65.1886 14.079 62.5832 14.0806C60.0589 14.0806 57.8874 16.21 57.8874 20.3143V29.5073H51.7705V19.169C51.7705 15.7752 50.4686 14.079 47.8647 14.0806C45.3404 14.0806 43.169 16.21 43.169 20.3143V29.5073H37.052V9.26559H43.169V12.185C45.1814 9.97616 47.5492 8.87058 50.3517 8.87058C53.9022 8.87058 56.1951 10.252 57.2563 13.0147C59.4285 10.2442 62.0331 8.85889 65.0702 8.85889C69.7659 8.85889 72.6058 11.3833 72.6058 17.0398Z" fill="white"/>
<path d="M95.3463 11.6217C97.319 13.515 98.3054 16.0791 98.3054 19.356C98.3054 22.6331 97.319 25.1996 95.3463 27.0507C93.3735 28.944 90.8866 29.8906 87.848 29.8906C85.1646 29.8906 82.9941 29.0228 81.336 27.2868V38.179H75.2214V9.25395H81.336V11.43C82.9941 9.69572 85.1646 8.82777 87.848 8.82621C90.8866 8.8192 93.3735 9.76583 95.3463 11.6217ZM91.9127 19.356C91.9127 15.7262 89.6642 13.3186 86.6255 13.3186C83.6267 13.3186 81.336 15.6069 81.336 19.356C81.336 23.1052 83.6267 25.3935 86.6255 25.3935C89.6642 25.3935 91.9127 22.986 91.9127 19.356Z" fill="white"/>
</g>
<path d="M120 23.9009V28.6811H100.879V23.9009H120Z" fill="white"/>
</g>
<defs>
<clipPath id="clip0_131_458">
<rect width="120" height="38.64" fill="white"/>
</clipPath>
</defs>
</svg>
