<svg width="120" height="39" viewBox="0 0 120 39" fill="none" xmlns="http://www.w3.org/2000/svg">
<g clip-path="url(#clip0_131_489)">
<path d="M46.5628 11.671H52.9543V33.0066H59.0901V11.671H65.4816V6.29443H46.5628V11.671ZM67.6121 6.37977V33.092H73.748V22.5095L81.9292 33.0066H89.6841L80.4803 21.9974C83.804 20.9733 86.0196 18.2423 86.0196 14.2313C86.0196 9.02539 82.27 6.29443 77.242 6.29443H67.6121V6.37977ZM73.748 18.157V11.159H74.4297C76.7307 11.159 79.5429 11.3296 79.5429 14.658C79.5429 17.9863 76.8159 18.157 74.4297 18.157H73.748ZM113.205 33.0066H119.341L116.955 6.29443H110.478L104.512 21.6561L98.547 6.29443H92.0703L89.5137 33.0066H95.6495L96.9279 17.2182H97.0983L102.638 32.9213H106.217L111.756 17.2182H111.927L113.205 33.0066Z" fill="white"/>
<path d="M21.8474 35.3379C21.8474 33.8017 20.7395 32.5216 19.2907 32.2656V23.9874C20.1429 23.902 20.8247 23.5607 21.5065 23.0486L27.9832 29.5347C27.4719 30.3881 27.557 31.5828 28.3241 32.2656C29.1763 33.119 30.625 33.119 31.4773 32.2656C32.3294 31.4122 32.3294 29.9614 31.4773 29.1079C30.7102 28.3399 29.6023 28.2544 28.7502 28.7666L22.2734 22.2806C22.7848 21.6831 23.1256 20.915 23.2109 20.0616H31.4773C31.7329 21.5124 33.0112 22.6219 34.5452 22.6219C36.2495 22.6219 37.613 21.2564 37.613 19.5496C37.613 17.8427 36.0792 16.648 34.3747 16.648C32.8407 16.648 31.5625 17.7574 31.3068 19.2082H23.0405C22.9552 18.3548 22.6143 17.5867 22.103 16.9893L28.5798 10.5033C29.432 11.0153 30.625 10.93 31.3068 10.1619C32.159 9.30848 32.159 7.85766 31.3068 7.00423C30.4546 6.15081 29.0059 6.15081 28.1536 7.00423C27.3867 7.77232 27.3014 8.88177 27.8128 9.7352L21.5065 16.3066C20.91 15.7944 20.1429 15.4531 19.2907 15.3677V7.17493C20.7395 6.91889 21.8474 5.63876 21.8474 4.1026C21.8474 2.39575 20.4839 1.03027 18.7794 1.03027C17.075 1.03027 15.7115 2.39575 15.7115 4.1026C15.7115 5.63876 16.8194 6.91889 18.2681 7.17493V15.3677C17.4159 15.4531 16.6489 15.7944 16.0523 16.3066L9.66088 9.90588C10.1722 9.05246 10.087 7.85766 9.32 7.17493C8.4678 6.3215 7.01906 6.3215 6.16686 7.17493C5.31466 8.02835 5.31466 9.47916 6.16686 10.3326C6.93383 11.1007 8.04169 11.186 8.89389 10.674L15.2854 17.0747C14.7741 17.672 14.4332 18.4401 14.348 19.2935H6.16686C5.9112 17.8427 4.63289 16.7333 3.09893 16.7333C1.39453 16.7333 0.0310059 18.0988 0.0310059 19.8056C0.0310059 21.5124 1.39453 22.878 3.09893 22.878C4.63289 22.878 5.9112 21.7684 6.16686 20.3176H14.348C14.4332 21.171 14.7741 21.9391 15.2854 22.5366L8.89389 28.9373C8.04169 28.4251 6.84861 28.5106 6.16686 29.2786C5.31466 30.132 5.31466 31.5828 6.16686 32.4362C7.01906 33.2897 8.4678 33.2897 9.32 32.4362C10.087 31.6682 10.1722 30.5587 9.66088 29.7053L16.1376 23.2193C16.7341 23.7314 17.5012 24.0727 18.3533 24.1581V32.4362C16.9046 32.6923 15.7967 33.9724 15.7967 35.5086C15.7967 37.2154 17.1602 38.5809 18.8647 38.5809C20.4839 38.4956 21.8474 37.0448 21.8474 35.3379Z" fill="white"/>
</g>
<defs>
<clipPath id="clip0_131_489">
<rect width="120" height="38.8235" fill="white"/>
</clipPath>
</defs>
</svg>
