<svg viewBox="0 0 100 100" version="1.1" xmlns="http://www.w3.org/2000/svg" xmlns:xlink="http://www.w3.org/1999/xlink">
    <g stroke="none" stroke-width="1" fill="none" fill-rule="evenodd">
        <g transform="translate(-144.000000, -145.000000)">
            <g transform="translate(144.000000, 145.000000)">
                    <path d="M50.0000746,0.000223880597 C22.4299254,0.000223880597 7.46268657e-05,22.4300746 7.46268657e-05,50.0002239 C7.46268657e-05,77.5703731 22.4299254,100.000224 50.0000746,100.000224 C77.5702239,100.000224 100.000075,77.5703731 100.000075,50.0002239 C100.000075,22.4300746 77.5702239,0.000223880597 50.0000746,0.000223880597" fill="#FFF" mask="url(#mask-2)"></path>
                <polygon fill="#000" points="35.6686567 34.5989552 12.7208955 65.1959701 17.3843284 65.1959701 22.4216418 58.4795522 38.430597 58.4795522 38.430597 54.748209 25.2201493 54.748209 40.3328358 34.5989552"></polygon>
                <polygon fill="#000" points="87.2763433 65.1959701 64.3285821 34.5989552 59.664403 34.5989552 74.7763433 54.748209 61.5658955 54.748209 61.5658955 58.4795522 77.5748507 58.4795522 82.6121642 65.1959701"></polygon>
                <polygon fill="#000" points="48.1328358 65.1962687 51.8641791 65.1962687 51.8641791 17.8686567 48.1328358 17.8686567"></polygon>
                <polygon fill="#000" points="22.0126866 57.7335821 37.6843284 57.7335821 37.6843284 55.4947761 22.0126866 55.4947761"></polygon>
                <polygon stroke="#000" stroke-width="1.49253731" points="22.0126866 57.7335821 37.6843284 57.7335821 37.6843284 55.4947761 22.0126866 55.4947761"></polygon>
                <polygon fill="#000" points="62.3119403 57.7335821 77.9835821 57.7335821 77.9835821 55.4947761 62.3119403 55.4947761"></polygon>
                <polygon stroke="#000" stroke-width="1.49253731" points="62.3119403 57.7335821 77.9835821 57.7335821 77.9835821 55.4947761 62.3119403 55.4947761"></polygon>
            </g>
        </g>
    </g>
</svg>
