
<svg version="1.1" xmlns="http://www.w3.org/2000/svg" xmlns:xlink="http://www.w3.org/1999/xlink"
	 viewBox="0 0 1000 1000" xml:space="preserve">
<style type="text/css">
	.st0-egld{fill:#fff;}
	.st1-egld{fill:#fff;}
	.st2-egld{fill:#fff;}
	.st3-egld{fill:#fff;}
	.st4-egld{fill:#fff;}
</style>
<g>
	<path class="st0-egld" d="M395.9,330.8c31.2-20.3,65.7-30.6,103.5-30.6c37.4-0.1,71.9,10.2,103.6,30.9l66.4-66.4
		c-51.6-39.6-108.3-59.5-170-59.4c-62,0.1-118.6,19.8-169.9,59.3L395.9,330.8z"/>
	<path class="st0-egld" d="M330.5,603.6c-21.1-32-31.6-66.6-31.5-103.7c0.1-37.7,10.5-72.2,31.3-103.6L264.1,330
		c-38.9,50.7-58.4,107.3-58.5,169.9c-0.1,62,19.5,118.6,58.7,170L330.5,603.6z"/>
	<path class="st0-egld" d="M603.6,669.5c-31.5,21.2-66,32-103.5,32.3c-38.1,0.3-73-10.5-104.7-32.1l-66,66
		c51.3,39.9,108.3,59.6,171.1,59.1c62.1-0.5,118.5-20.2,169.2-59.2L603.6,669.5z"/>
	<path class="st0-egld" d="M668.9,396.2c21.3,32.1,31.7,67.3,31.3,105.6c-0.4,36.9-10.9,70.9-31.4,102l66.3,66.3
		c39-50.8,58.8-107.2,59.3-169.1c0.5-62.8-19.2-119.8-59.1-171.1L668.9,396.2z"/>
</g>
<g>
	<path class="st0-egld" d="M734,740.5c-1-1-1.5-2.2-1.5-3.5l0,0c0-1.3,0.5-2.5,1.5-3.5l0,0c1.9-1.9,5-1.9,7,0l0,0c1,1,1.5,2.2,1.5,3.5
		l0,0c0,1.3-0.5,2.5-1.5,3.5l0,0c-1,1-2.2,1.4-3.5,1.4l0,0C736.2,741.9,735,741.4,734,740.5z M720,726.5c-1-1-1.4-2.2-1.4-3.5l0,0
		c0-1.3,0.5-2.5,1.4-3.5l0,0c1.9-1.9,5.1-1.9,7,0l0,0c1,1,1.4,2.2,1.4,3.5l0,0c0,1.3-0.5,2.5-1.4,3.5l0,0c-1,1-2.2,1.4-3.5,1.4l0,0
		C722.3,727.9,721,727.5,720,726.5z M706.1,712.5c-1-1-1.5-2.2-1.5-3.5l0,0c0-1.3,0.5-2.5,1.5-3.5l0,0c1.9-1.9,5.1-1.9,7,0l0,0
		c1,1,1.4,2.2,1.4,3.5l0,0c0,1.3-0.5,2.5-1.4,3.5l0,0c-1,1-2.2,1.5-3.5,1.5l0,0C708.3,714,707,713.5,706.1,712.5z M692.1,698.5
		c-1-1-1.4-2.2-1.4-3.5l0,0c0-1.3,0.5-2.5,1.4-3.5l0,0c1.9-1.9,5.1-1.9,7,0l0,0c1,1,1.4,2.2,1.4,3.5l0,0c0,1.3-0.5,2.5-1.4,3.5l0,0
		c-1,1-2.2,1.5-3.5,1.5l0,0C694.3,700,693.1,699.5,692.1,698.5z M678.1,684.6c-1-1-1.5-2.2-1.5-3.5l0,0c0-1.3,0.5-2.5,1.5-3.5l0,0
		c1.9-1.9,5-1.9,7,0l0,0c1,1,1.4,2.2,1.4,3.5l0,0c0,1.3-0.5,2.5-1.4,3.5l0,0c-1,1-2.2,1.4-3.5,1.4l0,0
		C680.4,686,679.1,685.5,678.1,684.6z M664.2,670.6c-1-1-1.5-2.2-1.5-3.5l0,0c0-1.3,0.5-2.5,1.5-3.5l0,0c1.9-1.9,5-1.9,7,0l0,0
		c1,1,1.5,2.2,1.5,3.5l0,0c0,1.3-0.5,2.5-1.5,3.5l0,0c-1,1-2.2,1.4-3.5,1.4l0,0C666.4,672,665.1,671.6,664.2,670.6z M650.2,656.6
		c-1-1-1.4-2.2-1.4-3.5l0,0c0-1.3,0.5-2.5,1.4-3.5l0,0c1.9-1.9,5.1-1.9,7,0l0,0c1,1,1.5,2.2,1.5,3.5l0,0c0,1.3-0.5,2.5-1.5,3.5l0,0
		c-1,1-2.2,1.5-3.5,1.5l0,0C652.4,658.1,651.2,657.6,650.2,656.6z M636.2,642.7c-1-1-1.5-2.2-1.5-3.5l0,0c0-1.3,0.5-2.5,1.5-3.5l0,0
		c1.9-1.9,5.1-1.9,7,0l0,0c1,1,1.4,2.2,1.4,3.5l0,0c0,1.3-0.5,2.5-1.4,3.5l0,0c-1,1-2.2,1.4-3.5,1.4l0,0
		C638.5,644.1,637.2,643.6,636.2,642.7z M622.2,628.7c-1-1-1.5-2.2-1.5-3.5l0,0c0-1.3,0.5-2.5,1.5-3.5l0,0c1.9-1.9,5.1-1.9,7,0l0,0
		c1,1,1.5,2.2,1.5,3.5l0,0c0,1.3-0.5,2.5-1.5,3.5l0,0c-1,1-2.2,1.5-3.5,1.5l0,0C624.5,630.1,623.2,629.6,622.2,628.7z M608.3,614.7
		c-1-1-1.5-2.2-1.5-3.5l0,0c0-1.3,0.5-2.5,1.5-3.5l0,0c1.9-1.9,5-1.9,7,0l0,0c1,1,1.5,2.2,1.5,3.5l0,0c0,1.3-0.5,2.5-1.5,3.5l0,0
		c-1,1-2.2,1.5-3.5,1.5l0,0C610.5,616.2,609.2,615.7,608.3,614.7z M594.3,600.8c-1-1-1.5-2.2-1.5-3.5l0,0c0-1.3,0.5-2.5,1.5-3.5l0,0
		c1.9-1.9,5-1.9,7,0l0,0c1,1,1.5,2.2,1.5,3.5l0,0c0,1.3-0.5,2.5-1.5,3.5l0,0c-1,1-2.2,1.4-3.5,1.4l0,0
		C596.5,602.2,595.3,601.7,594.3,600.8z M580.3,586.8c-1-1-1.4-2.2-1.4-3.5l0,0c0-1.3,0.5-2.5,1.4-3.5l0,0c1.9-1.9,5.1-1.9,7,0l0,0
		c1,1,1.5,2.2,1.5,3.5l0,0c0,1.3-0.5,2.5-1.5,3.5l0,0c-1,1-2.2,1.5-3.5,1.5l0,0C582.6,588.2,581.3,587.7,580.3,586.8z M566.4,572.8
		c-1-1-1.4-2.2-1.4-3.5l0,0c0-1.3,0.5-2.5,1.4-3.5l0,0c1.9-1.9,5.1-1.9,7,0l0,0c1,1,1.5,2.2,1.5,3.5l0,0c0,1.3-0.5,2.5-1.5,3.5l0,0
		c-1,1-2.2,1.5-3.5,1.5l0,0C568.6,574.2,567.3,573.8,566.4,572.8z M552.4,558.8c-1-1-1.5-2.2-1.5-3.5l0,0c0-1.3,0.5-2.5,1.5-3.5l0,0
		c1.9-1.9,5.1-1.9,7,0l0,0c1,1,1.4,2.2,1.4,3.5l0,0c0,1.3-0.5,2.5-1.4,3.5l0,0c-1,1-2.2,1.5-3.5,1.5l0,0
		C554.6,560.3,553.3,559.8,552.4,558.8z M538.4,544.9c-1-1-1.5-2.2-1.5-3.5l0,0c0-1.3,0.5-2.5,1.5-3.5l0,0c1.9-1.9,5.1-1.9,7,0l0,0
		c1,1,1.5,2.2,1.5,3.5l0,0c0,1.3-0.5,2.5-1.5,3.5l0,0c-1,1-2.2,1.5-3.5,1.5l0,0C540.6,546.3,539.4,545.8,538.4,544.9z M524.5,530.9
		c-1-1-1.5-2.2-1.5-3.5l0,0c0-1.3,0.5-2.5,1.5-3.5l0,0c1.9-1.9,5-1.9,7,0l0,0c1,1,1.5,2.2,1.5,3.5l0,0c0,1.3-0.5,2.5-1.5,3.5l0,0
		c-1,1-2.2,1.4-3.5,1.4l0,0C526.7,532.3,525.4,531.8,524.5,530.9z M510.5,516.9c-1-1-1.4-2.2-1.4-3.5l0,0c0-1.3,0.5-2.5,1.4-3.5l0,0
		c1.9-1.9,5.1-1.9,7,0l0,0c1,1,1.5,2.2,1.5,3.5l0,0c0,1.3-0.5,2.5-1.5,3.5l0,0c-1,1-2.2,1.4-3.5,1.4l0,0
		C512.7,518.4,511.4,517.9,510.5,516.9z M496.5,502.9c-1-1-1.4-2.2-1.4-3.5l0,0c0-1.3,0.5-2.5,1.4-3.5l0,0c1.9-1.9,5.1-1.9,7,0l0,0
		c1,1,1.4,2.2,1.4,3.5l0,0c0,1.3-0.5,2.5-1.4,3.5l0,0c-1,1-2.2,1.5-3.5,1.5l0,0C498.7,504.4,497.5,503.9,496.5,502.9z M482.5,489
		c-1-1-1.5-2.2-1.5-3.5l0,0c0-1.3,0.5-2.5,1.5-3.5l0,0c1.9-1.9,5.1-1.9,7,0l0,0c1,1,1.4,2.2,1.4,3.5l0,0c0,1.3-0.5,2.5-1.4,3.5l0,0
		c-1,1-2.2,1.5-3.5,1.5l0,0C484.8,490.4,483.5,489.9,482.5,489z M468.6,475c-1-1-1.5-2.2-1.5-3.5l0,0c0-1.3,0.5-2.5,1.5-3.5l0,0
		c1.9-1.9,5.1-1.9,7,0l0,0c1,1,1.4,2.2,1.4,3.5l0,0c0,1.3-0.5,2.5-1.4,3.5l0,0c-1,1-2.2,1.4-3.5,1.4l0,0
		C470.8,476.4,469.5,476,468.6,475z M454.6,461c-1-1-1.5-2.2-1.5-3.5l0,0c0-1.3,0.5-2.5,1.5-3.5l0,0c1.9-1.9,5-1.9,7,0l0,0
		c1,1,1.5,2.2,1.5,3.5l0,0c0,1.3-0.5,2.5-1.5,3.5l0,0c-1,1-2.2,1.5-3.5,1.5l0,0C456.8,462.5,455.5,462,454.6,461z M440.6,447.1
		c-1-1-1.4-2.2-1.4-3.5l0,0c0-1.3,0.5-2.5,1.4-3.5l0,0c1.9-1.9,5.1-1.9,7,0l0,0c1,1,1.5,2.2,1.5,3.5l0,0c0,1.3-0.5,2.5-1.5,3.5l0,0
		c-1,1-2.2,1.4-3.5,1.4l0,0C442.8,448.5,441.6,448,440.6,447.1z M426.6,433.1c-1-1-1.5-2.2-1.5-3.5l0,0c0-1.3,0.5-2.5,1.5-3.5l0,0
		c1.9-1.9,5-1.9,7,0l0,0c1,1,1.4,2.2,1.4,3.5l0,0c0,1.3-0.5,2.5-1.4,3.5l0,0c-1,1-2.2,1.4-3.5,1.4l0,0
		C428.9,434.5,427.6,434,426.6,433.1z M412.7,419.1c-1-1-1.4-2.2-1.4-3.5l0,0c0-1.3,0.5-2.5,1.4-3.5l0,0c1.9-1.9,5.1-1.9,7,0l0,0
		c1,1,1.5,2.2,1.5,3.5l0,0c0,1.3-0.5,2.5-1.5,3.5l0,0c-1,1-2.2,1.5-3.5,1.5l0,0C414.9,420.6,413.6,420.1,412.7,419.1z M398.7,405.1
		c-1-1-1.4-2.2-1.4-3.5l0,0c0-1.3,0.5-2.5,1.4-3.5l0,0c1.9-1.9,5.1-1.9,7,0l0,0c1,1,1.4,2.2,1.4,3.5l0,0c0,1.3-0.5,2.5-1.4,3.5l0,0
		c-1,1-2.2,1.5-3.5,1.5l0,0C400.9,406.6,399.7,406.1,398.7,405.1z M384.7,391.2c-1-1-1.5-2.2-1.5-3.5l0,0c0-1.3,0.5-2.5,1.5-3.5l0,0
		c1.9-1.9,5.1-1.9,7,0l0,0c1,1,1.4,2.2,1.4,3.5l0,0c0,1.3-0.5,2.5-1.4,3.5l0,0c-1,1-2.2,1.4-3.5,1.4l0,0
		C387,392.6,385.7,392.1,384.7,391.2z M370.8,377.2c-1-1-1.4-2.2-1.4-3.5l0,0c0-1.3,0.5-2.5,1.4-3.5l0,0c1.9-1.9,5.1-1.9,7,0l0,0
		c1,1,1.5,2.2,1.5,3.5l0,0c0,1.3-0.5,2.5-1.5,3.5l0,0c-1,1-2.2,1.4-3.5,1.4l0,0C373,378.6,371.7,378.2,370.8,377.2z M356.8,363.2
		c-1-1-1.5-2.2-1.5-3.5l0,0c0-1.3,0.5-2.5,1.5-3.5l0,0c1.9-1.9,5-1.9,7,0l0,0c1,1,1.4,2.2,1.4,3.5l0,0c0,1.3-0.5,2.5-1.4,3.5l0,0
		c-1,1-2.2,1.5-3.5,1.5l0,0C359,364.7,357.8,364.2,356.8,363.2z M342.8,349.2c-1-1-1.4-2.2-1.4-3.5l0,0c0-1.3,0.5-2.5,1.4-3.5l0,0
		c1.9-1.9,5.1-1.9,7,0l0,0c1,1,1.5,2.2,1.5,3.5l0,0c0,1.3-0.5,2.5-1.5,3.5l0,0c-1,1-2.2,1.4-3.5,1.4l0,0
		C345,350.7,343.8,350.2,342.8,349.2z M328.8,335.3c-1-1-1.5-2.2-1.5-3.5l0,0c0-1.3,0.5-2.5,1.5-3.5l0,0c1.9-1.9,5.1-1.9,7,0l0,0
		c1,1,1.4,2.2,1.4,3.5l0,0c0,1.3-0.5,2.5-1.4,3.5l0,0c-1,1-2.2,1.5-3.5,1.5l0,0C331.1,336.7,329.8,336.2,328.8,335.3z M314.9,321.3
		c-1-1-1.4-2.2-1.4-3.5l0,0c0-1.3,0.5-2.5,1.4-3.5l0,0c1.9-1.9,5.1-1.9,7,0l0,0c1,1,1.5,2.2,1.5,3.5l0,0c0,1.3-0.5,2.5-1.5,3.5l0,0
		c-1,1-2.2,1.4-3.5,1.4l0,0C317.1,322.8,315.8,322.3,314.9,321.3z M300.9,307.3c-1-1-1.5-2.2-1.5-3.5l0,0c0-1.3,0.5-2.5,1.5-3.5l0,0
		c1.9-1.9,5-1.9,7,0l0,0c1,1,1.4,2.2,1.4,3.5l0,0c0,1.3-0.5,2.5-1.4,3.5l0,0c-1,1-2.2,1.5-3.5,1.5l0,0
		C303.1,308.8,301.9,308.3,300.9,307.3z"/>
	<path class="st0-egld" d="M259,740.5c-1-1-1.4-2.2-1.4-3.5l0,0c0-1.3,0.5-2.5,1.4-3.5l0,0c1.9-1.9,5.1-1.9,7,0l0,0c1,1,1.5,2.2,1.5,3.5
		l0,0c0,1.3-0.5,2.5-1.5,3.5l0,0c-1,1-2.2,1.4-3.5,1.4l0,0C261.2,741.9,259.9,741.4,259,740.5z M273,726.5c-1-1-1.5-2.2-1.5-3.5l0,0
		c0-1.3,0.5-2.5,1.5-3.5l0,0c1.9-1.9,5.1-1.9,7,0l0,0c1,1,1.4,2.2,1.4,3.5l0,0c0,1.3-0.5,2.5-1.4,3.5l0,0c-1,1-2.2,1.4-3.5,1.4l0,0
		C275.2,727.9,273.9,727.5,273,726.5z M286.9,712.5c-1-1-1.4-2.2-1.4-3.5l0,0c0-1.3,0.5-2.5,1.4-3.5l0,0c1.9-1.9,5.1-1.9,7,0l0,0
		c1,1,1.4,2.2,1.4,3.5l0,0c0,1.3-0.5,2.5-1.4,3.5l0,0c-1,1-2.2,1.5-3.5,1.5l0,0C289.2,714,287.9,713.5,286.9,712.5z M300.9,698.5
		c-1-1-1.4-2.2-1.4-3.5l0,0c0-1.3,0.5-2.5,1.4-3.5l0,0c1.9-1.9,5.1-1.9,7,0l0,0c1,1,1.5,2.2,1.5,3.5l0,0c0,1.3-0.5,2.5-1.5,3.5l0,0
		c-1,1-2.2,1.5-3.5,1.5l0,0C303.1,700,301.9,699.5,300.9,698.5z M314.9,684.6c-1-1-1.5-2.2-1.5-3.5l0,0c0-1.3,0.5-2.5,1.5-3.5l0,0
		c1.9-1.9,5-1.9,7,0l0,0c1,1,1.5,2.2,1.5,3.5l0,0c0,1.3-0.5,2.5-1.5,3.5l0,0c-1,1-2.2,1.4-3.5,1.4l0,0
		C317.1,686,315.8,685.5,314.9,684.6z M328.8,670.6c-1-1-1.4-2.2-1.4-3.5l0,0c0-1.3,0.5-2.5,1.4-3.5l0,0c1.9-1.9,5.1-1.9,7,0l0,0
		c1,1,1.5,2.2,1.5,3.5l0,0c0,1.3-0.5,2.5-1.5,3.5l0,0c-1,1-2.2,1.4-3.5,1.4l0,0C331.1,672,329.8,671.6,328.8,670.6z M342.8,656.6
		c-1-1-1.5-2.2-1.5-3.5l0,0c0-1.3,0.5-2.5,1.5-3.5l0,0c1.9-1.9,5.1-1.9,7,0l0,0c1,1,1.4,2.2,1.4,3.5l0,0c0,1.3-0.5,2.5-1.4,3.5l0,0
		c-1,1-2.2,1.5-3.5,1.5l0,0C345,658.1,343.8,657.6,342.8,656.6z M356.8,642.7c-1-1-1.5-2.2-1.5-3.5l0,0c0-1.3,0.5-2.5,1.5-3.5l0,0
		c1.9-1.9,5.1-1.9,7,0l0,0c1,1,1.5,2.2,1.5,3.5l0,0c0,1.3-0.5,2.5-1.5,3.5l0,0c-1,1-2.2,1.4-3.5,1.4l0,0
		C359,644.1,357.8,643.6,356.8,642.7z M370.8,628.7c-1-1-1.4-2.2-1.4-3.5l0,0c0-1.3,0.5-2.5,1.4-3.5l0,0c1.9-1.9,5.1-1.9,7,0l0,0
		c1,1,1.4,2.2,1.4,3.5l0,0c0,1.3-0.5,2.5-1.4,3.5l0,0c-1,1-2.2,1.5-3.5,1.5l0,0C373,630.1,371.7,629.6,370.8,628.7z M384.7,614.7
		c-1-1-1.4-2.2-1.4-3.5l0,0c0-1.3,0.5-2.5,1.4-3.5l0,0c1.9-1.9,5.1-1.9,7,0l0,0c1,1,1.5,2.2,1.5,3.5l0,0c0,1.3-0.5,2.5-1.5,3.5l0,0
		c-1,1-2.2,1.5-3.5,1.5l0,0C387,616.2,385.7,615.7,384.7,614.7z M398.7,600.8c-1-1-1.5-2.2-1.5-3.5l0,0c0-1.3,0.5-2.5,1.5-3.5l0,0
		c1.9-1.9,5-1.9,7,0l0,0c1,1,1.4,2.2,1.4,3.5l0,0c0,1.3-0.5,2.5-1.4,3.5l0,0c-1,1-2.2,1.4-3.5,1.4l0,0
		C400.9,602.2,399.7,601.7,398.7,600.8z M412.7,586.8c-1-1-1.4-2.2-1.4-3.5l0,0c0-1.3,0.5-2.5,1.4-3.5l0,0c1.9-1.9,5.1-1.9,7,0l0,0
		c1,1,1.4,2.2,1.4,3.5l0,0c0,1.3-0.5,2.5-1.4,3.5l0,0c-1,1-2.2,1.5-3.5,1.5l0,0C414.9,588.2,413.6,587.7,412.7,586.8z M426.6,572.8
		c-1-1-1.5-2.2-1.5-3.5l0,0c0-1.3,0.5-2.5,1.5-3.5l0,0c1.9-1.9,5.1-1.9,7,0l0,0c1,1,1.4,2.2,1.4,3.5l0,0c0,1.3-0.5,2.5-1.4,3.5l0,0
		c-1,1-2.2,1.5-3.5,1.5l0,0C428.9,574.2,427.6,573.8,426.6,572.8z M440.6,558.8c-1-1-1.4-2.2-1.4-3.5l0,0c0-1.3,0.5-2.5,1.4-3.5l0,0
		c1.9-1.9,5.1-1.9,7,0l0,0c1,1,1.5,2.2,1.5,3.5l0,0c0,1.3-0.5,2.5-1.5,3.5l0,0c-1,1-2.2,1.5-3.5,1.5l0,0
		C442.8,560.3,441.6,559.8,440.6,558.8z M454.6,544.9c-1-1-1.4-2.2-1.4-3.5l0,0c0-1.3,0.5-2.5,1.4-3.5l0,0c1.9-1.9,5.1-1.9,7,0l0,0
		c1,1,1.5,2.2,1.5,3.5l0,0c0,1.3-0.5,2.5-1.5,3.5l0,0c-1,1-2.2,1.5-3.5,1.5l0,0C456.8,546.3,455.6,545.8,454.6,544.9z M468.6,530.9
		c-1-1-1.5-2.2-1.5-3.5l0,0c0-1.3,0.5-2.5,1.5-3.5l0,0c1.9-1.9,5-1.9,7,0l0,0c1,1,1.5,2.2,1.5,3.5l0,0c0,1.3-0.5,2.5-1.5,3.5l0,0
		c-1,1-2.2,1.4-3.5,1.4l0,0C470.8,532.3,469.5,531.8,468.6,530.9z M482.5,516.9c-1-1-1.5-2.2-1.5-3.5l0,0c0-1.3,0.5-2.5,1.5-3.5l0,0
		c1.9-1.9,5-1.9,7,0l0,0c1,1,1.4,2.2,1.4,3.5l0,0c0,1.3-0.5,2.5-1.4,3.5l0,0c-1,1-2.2,1.4-3.5,1.4l0,0
		C484.8,518.4,483.5,517.9,482.5,516.9z M496.5,502.9c-1-1-1.4-2.2-1.4-3.5l0,0c0-1.3,0.5-2.5,1.4-3.5l0,0c1.9-1.9,5.1-1.9,7,0l0,0
		c1,1,1.4,2.2,1.4,3.5l0,0c0,1.3-0.5,2.5-1.4,3.5l0,0c-1,1-2.2,1.5-3.5,1.5l0,0C498.7,504.4,497.5,503.9,496.5,502.9z M510.5,489
		c-1-1-1.4-2.2-1.4-3.5l0,0c0-1.3,0.5-2.5,1.4-3.5l0,0c1.9-1.9,5.1-1.9,7,0l0,0c1,1,1.4,2.2,1.4,3.5l0,0c0,1.3-0.5,2.5-1.4,3.5l0,0
		c-1,1-2.2,1.5-3.5,1.5l0,0C512.7,490.4,511.5,489.9,510.5,489z M524.5,475c-1-1-1.4-2.2-1.4-3.5l0,0c0-1.3,0.5-2.5,1.4-3.5l0,0
		c1.9-1.9,5.1-1.9,7,0l0,0c1,1,1.5,2.2,1.5,3.5l0,0c0,1.3-0.5,2.5-1.5,3.5l0,0c-1,1-2.2,1.4-3.5,1.4l0,0
		C526.7,476.4,525.4,476,524.5,475z M538.4,461c-1-1-1.5-2.2-1.5-3.5l0,0c0-1.3,0.5-2.5,1.5-3.5l0,0c1.9-1.9,5-1.9,7,0l0,0
		c1,1,1.4,2.2,1.4,3.5l0,0c0,1.3-0.5,2.5-1.4,3.5l0,0c-1,1-2.2,1.4-3.5,1.4l0,0C540.6,462.5,539.4,462,538.4,461z M552.4,447.1
		c-1-1-1.4-2.2-1.4-3.5l0,0c0-1.3,0.5-2.5,1.4-3.5l0,0c1.9-1.9,5.1-1.9,7,0l0,0c1,1,1.5,2.2,1.5,3.5l0,0c0,1.3-0.5,2.5-1.5,3.5l0,0
		c-1,1-2.2,1.4-3.5,1.4l0,0C554.6,448.5,553.4,448,552.4,447.1z M566.4,433.1c-1-1-1.5-2.2-1.5-3.5l0,0c0-1.3,0.5-2.5,1.5-3.5l0,0
		c1.9-1.9,5.1-1.9,7,0l0,0c1,1,1.5,2.2,1.5,3.5l0,0c0,1.3-0.5,2.5-1.5,3.5l0,0c-1,1-2.2,1.5-3.5,1.5l0,0
		C568.6,434.5,567.3,434,566.4,433.1z M580.3,419.1c-1-1-1.5-2.2-1.5-3.5l0,0c0-1.3,0.5-2.5,1.5-3.5l0,0c1.9-1.9,5.1-1.9,7,0l0,0
		c1,1,1.4,2.2,1.4,3.5l0,0c0,1.3-0.5,2.5-1.4,3.5l0,0c-1,1-2.2,1.5-3.5,1.5l0,0C582.6,420.6,581.3,420.1,580.3,419.1z M594.3,405.1
		c-1-1-1.4-2.2-1.4-3.5l0,0c0-1.3,0.5-2.5,1.4-3.5l0,0c1.9-1.9,5.1-1.9,7,0l0,0c1,1,1.5,2.2,1.5,3.5l0,0c0,1.3-0.5,2.5-1.5,3.5l0,0
		c-1,1-2.2,1.5-3.5,1.5l0,0C596.5,406.6,595.3,406.1,594.3,405.1z M608.3,391.2c-1-1-1.5-2.2-1.5-3.5l0,0c0-1.3,0.5-2.5,1.5-3.5l0,0
		c1.9-1.9,5-1.9,7,0l0,0c1,1,1.5,2.2,1.5,3.5l0,0c0,1.3-0.5,2.5-1.5,3.5l0,0c-1,1-2.2,1.4-3.5,1.4l0,0
		C610.5,392.6,609.2,392.1,608.3,391.2z M622.3,377.2c-1-1-1.5-2.2-1.5-3.5l0,0c0-1.3,0.5-2.5,1.5-3.5l0,0c1.9-1.9,5-1.9,7,0l0,0
		c1,1,1.4,2.2,1.4,3.5l0,0c0,1.3-0.5,2.5-1.4,3.5l0,0c-1,1-2.2,1.4-3.5,1.4l0,0C624.5,378.6,623.2,378.2,622.3,377.2z M636.2,363.2
		c-1-1-1.4-2.2-1.4-3.5l0,0c0-1.3,0.5-2.5,1.4-3.5l0,0c1.9-1.9,5.1-1.9,7,0l0,0c1,1,1.5,2.2,1.5,3.5l0,0c0,1.3-0.5,2.5-1.5,3.5l0,0
		c-1,1-2.2,1.5-3.5,1.5l0,0C638.5,364.7,637.2,364.2,636.2,363.2z M650.2,349.2c-1-1-1.5-2.2-1.5-3.5l0,0c0-1.3,0.5-2.5,1.5-3.5l0,0
		c1.9-1.9,5.1-1.9,7,0l0,0c1,1,1.4,2.2,1.4,3.5l0,0c0,1.3-0.5,2.5-1.4,3.5l0,0c-1,1-2.2,1.4-3.5,1.4l0,0
		C652.4,350.7,651.2,350.2,650.2,349.2z M664.2,335.3c-1-1-1.4-2.2-1.4-3.5l0,0c0-1.3,0.5-2.5,1.4-3.5l0,0c1.9-1.9,5.1-1.9,7,0l0,0
		c1,1,1.4,2.2,1.4,3.5l0,0c0,1.3-0.5,2.5-1.4,3.5l0,0c-1,1-2.2,1.5-3.5,1.5l0,0C666.4,336.7,665.1,336.2,664.2,335.3z M678.1,321.3
		c-1-1-1.4-2.2-1.4-3.5l0,0c0-1.3,0.5-2.5,1.4-3.5l0,0c1.9-1.9,5.1-1.9,7,0l0,0c1,1,1.5,2.2,1.5,3.5l0,0c0,1.3-0.5,2.5-1.5,3.5l0,0
		c-1,1-2.2,1.4-3.5,1.4l0,0C680.4,322.8,679.1,322.3,678.1,321.3z M692.1,307.3c-1-1-1.5-2.2-1.5-3.5l0,0c0-1.3,0.5-2.5,1.5-3.5l0,0
		c1.9-1.9,5-1.9,7,0l0,0c1,1,1.5,2.2,1.5,3.5l0,0c0,1.3-0.5,2.5-1.5,3.5l0,0c-1,1-2.2,1.5-3.5,1.5l0,0
		C694.3,308.8,693.1,308.3,692.1,307.3z M706.1,293.4c-1-1-1.5-2.2-1.5-3.5l0,0c0-1.3,0.5-2.5,1.5-3.5l0,0c1.9-1.9,5.1-1.9,7,0l0,0
		c1,1,1.5,2.2,1.5,3.5l0,0c0,1.3-0.5,2.5-1.5,3.5l0,0c-1,1-2.2,1.4-3.5,1.4l0,0C708.3,294.8,707,294.3,706.1,293.4z M720.1,279.4
		c-1-1-1.5-2.2-1.5-3.5l0,0c0-1.3,0.5-2.5,1.5-3.5l0,0c1.9-1.9,5.1-1.9,7,0l0,0c1,1,1.4,2.2,1.4,3.5l0,0c0,1.3-0.5,2.5-1.4,3.5l0,0
		c-1,1-2.2,1.4-3.5,1.4l0,0C722.3,280.8,721,280.4,720.1,279.4z M734,265.4c-1.9-1.9-1.9-5.1,0-7l0,0c1.9-1.9,5.1-1.9,7,0l0,0
		c1.9,1.9,1.9,5,0,7l0,0c-1,1-2.2,1.4-3.5,1.4l0,0C736.3,266.9,735,266.4,734,265.4z"/>
</g>
<circle class="st1-egld" cx="737.8" cy="736.9" r="46.1"/>
<circle class="st2-egld" cx="262.8" cy="737" r="46.1"/>
<circle class="st3-egld" cx="738.2" cy="261.5" r="46.1"/>
<circle class="st4-egld" cx="261.6" cy="260.7" r="46.1"/>
</svg>
