<?xml version="1.0" standalone="no"?>
<!DOCTYPE svg PUBLIC "-//W3C//DTD SVG 20010904//EN"
 "http://www.w3.org/TR/2001/REC-SVG-20010904/DTD/svg10.dtd">
<svg version="1.0" xmlns="http://www.w3.org/2000/svg"
 width="400.000000pt" height="400.000000pt" viewBox="0 0 400.000000 400.000000"
 preserveAspectRatio="xMidYMid meet">

<g transform="translate(0.000000,400.000000) scale(0.100000,-0.100000)"
fill="#FFF" stroke="none">
<path fill="white" d="M810 3445 c-194 -29 -320 -79 -457 -182 -125 -94 -197 -191 -228
-309 -38 -140 -45 -294 -44 -999 0 -724 6 -850 48 -969 55 -158 173 -289 344
-385 39 -21 153 -64 222 -82 67 -18 304 -18 370 0 120 32 251 114 298 186 34
53 49 45 81 -42 16 -43 33 -84 38 -90 8 -10 73 -13 263 -13 221 0 254 2 259
16 8 20 8 1468 0 1488 -5 14 -58 16 -490 16 l-484 0 2 -212 3 -213 80 -5 80
-5 0 -265 c-1 -291 -8 -334 -62 -374 -35 -26 -100 -32 -146 -12 -76 31 -72
-20 -72 981 0 954 0 948 50 981 13 8 47 15 80 15 45 1 61 -3 79 -20 40 -37 46
-84 46 -338 0 -172 3 -242 12 -251 9 -9 115 -12 414 -12 l403 0 6 21 c17 52
-13 429 -43 549 -13 53 -52 140 -83 185 -52 77 -178 179 -294 237 -196 99
-516 141 -775 103z"/>
<path fill="white" d="M2765 3444 c-354 -39 -597 -182 -669 -394 -38 -113 -48 -192 -48
-400 0 -176 2 -216 20 -282 25 -93 70 -185 123 -255 64 -82 84 -96 539 -364
164 -96 291 -181 341 -226 76 -68 99 -144 99 -323 0 -143 -15 -191 -71 -230
-41 -30 -139 -33 -181 -6 -51 33 -58 74 -58 326 0 126 -4 231 -8 234 -14 9
-736 11 -749 3 -10 -6 -11 -55 -8 -200 5 -191 14 -273 42 -377 60 -229 250
-375 585 -451 117 -26 354 -36 495 -20 301 33 556 156 651 314 35 57 43 82 66
197 43 209 23 529 -45 720 -66 184 -240 328 -704 585 -167 92 -262 155 -291
193 -38 49 -54 118 -54 229 0 109 14 157 56 195 30 26 93 39 134 28 78 -22 84
-38 90 -250 l5 -175 384 -3 384 -2 -6 172 c-14 375 -59 492 -230 602 -111 71
-198 105 -367 141 -74 16 -433 29 -525 19z"/>
</g>
</svg>
