<?xml version="1.0" encoding="utf-8"?>
<svg viewBox="0 0 1000 1000" xmlns="http://www.w3.org/2000/svg">
  <g transform="matrix(0.544073, 0, 0, 0.544073, -169.051361, -428.388824)">
    <g>
      <path d="M 1229.196 793.514 C 1732.619 793.514 2140.865 1201.758 2140.865 1705.182 C 2140.865 2208.605 1732.619 2616.851 1229.196 2616.851 C 725.773 2616.851 317.528 2208.605 317.528 1705.182 C 317.528 1201.758 725.773 793.514 1229.196 793.514 Z" style="fill-rule: evenodd; fill: rgb(255, 255, 255);"/>
      <path d="M 877.042 2073.19 L 939.307 2259.678 L 1366.706 1700.771 L 939.307 1141.865 L 874.008 1324.306 L 1157.912 1700.669 L 877.042 2073.19 Z" style="opacity: 0.3;"/>
      <path d="M 776.642 1141.865 L 939.206 1141.865 L 939.206 2259.576 L 776.642 2259.576 L 776.642 1141.865 Z" style=""/>
      <g transform="matrix(0.505797, 0, 0, 0.505797, 776.642456, 1141.86438)">
        <path d="M2000,2209.8h-401l-845.2-1105L1599,0h401l-833.3,1104.8L2000,2209.8z" />
      </g>
    </g>
  </g>
</svg>