<?xml version="1.0" encoding="UTF-8"?>
<svg version="1.1" viewBox="0 0 16 16" xmlns="http://www.w3.org/2000/svg">
<g fill="none" fill-rule="evenodd">
<g fill="#fff">
<path d="m3.8599 8.3424c0.51881 0 1.0117 0.10376 1.4786 0.31128 0.45655 0.19715 0.85603 0.46692 1.1984 0.80934s0.61219 0.74189 0.80934 1.1984c0.20752 0.46693 0.31128 0.95979 0.31128 1.4786 0 0.52919-0.098572 1.022-0.29572 1.4786-0.20752 0.45655-0.48249 0.85862-0.8249 1.2062-0.34241 0.3476-0.74189 0.61997-1.1984 0.81712-0.46693 0.19715-0.95979 0.29572-1.4786 0.29572-0.52919 0-1.022-0.098572-1.4786-0.29572-0.45655-0.19715-0.85862-0.46952-1.2062-0.81712-0.3476-0.3476-0.61997-0.74967-0.81712-1.2062-0.19715-0.45655-0.29572-0.94941-0.29572-1.4786 0-0.51881 0.098572-1.0117 0.29572-1.4786 0.19715-0.45655 0.46952-0.85603 0.81712-1.1984 0.3476-0.34241 0.74967-0.61738 1.2062-0.8249 0.45655-0.19715 0.94941-0.29572 1.4786-0.29572zm0 6.2724c0.67445 0 1.2529-0.24124 1.7354-0.72374 0.48249-0.48249 0.72374-1.0661 0.72374-1.751 0-0.67445-0.24124-1.2529-0.72374-1.7354-0.48249-0.48249-1.061-0.72374-1.7354-0.72374-0.68483 0-1.2685 0.24124-1.751 0.72374-0.48249 0.48249-0.72374 1.061-0.72374 1.7354 0 0.68483 0.24124 1.2685 0.72374 1.751 0.48249 0.48249 1.0661 0.72374 1.751 0.72374zm8.3424-14.615c0.52919 0 1.022 0.098572 1.4786 0.29572 0.45655 0.19715 0.85862 0.46952 1.2062 0.81712 0.3476 0.3476 0.61997 0.74967 0.81712 1.2062 0.19715 0.45655 0.29572 0.94941 0.29572 1.4786 0 0.51881-0.098572 1.0117-0.29572 1.4786-0.19715 0.45655-0.46952 0.85603-0.81712 1.1984-0.3476 0.34241-0.74967 0.61738-1.2062 0.8249-0.45655 0.19715-0.94941 0.29572-1.4786 0.29572-0.51881 0-1.0117-0.098572-1.4786-0.29572-0.45655-0.20752-0.85603-0.48249-1.1984-0.8249s-0.61738-0.74189-0.8249-1.1984c-0.19715-0.46693-0.29572-0.95979-0.29572-1.4786 0-0.52919 0.098572-1.022 0.29572-1.4786 0.20752-0.45655 0.48249-0.85862 0.8249-1.2062 0.34241-0.3476 0.74189-0.61997 1.1984-0.81712 0.46693-0.19715 0.95979-0.29572 1.4786-0.29572zm0 6.2568c0.68483 0 1.2685-0.24124 1.751-0.72374s0.72374-1.061 0.72374-1.7354c0-0.68483-0.24124-1.2685-0.72374-1.751-0.48249-0.48249-1.0661-0.72374-1.751-0.72374-0.67445 0-1.2529 0.24124-1.7354 0.72374-0.48249 0.48249-0.72374 1.0661-0.72374 1.751 0 0.67445 0.24124 1.2529 0.72374 1.7354 0.48249 0.48249 1.061 0.72374 1.7354 0.72374zm-8.8249-6.2568h4.3268v1.323h-0.96498c0.28016 0.33204 0.50065 0.70558 0.66148 1.1206 0.16083 0.41505 0.24125 0.85603 0.24125 1.323v0.031128c0 0.52919-0.10376 1.022-0.31128 1.4786-0.19715 0.46693-0.46952 0.87419-0.81712 1.2218-0.3476 0.3476-0.74967 0.61997-1.2062 0.81712-0.46693 0.19715-0.96498 0.29572-1.4942 0.29572-0.52919 0-1.022-0.098572-1.4786-0.29572-0.46693-0.19715-0.87159-0.46952-1.214-0.81712-0.34241-0.3476-0.61738-0.75486-0.8249-1.2218-0.19715-0.45655-0.29572-0.94941-0.29572-1.4786 0-0.49806 0.098572-0.96498 0.29572-1.4008 0.19715-0.4358 0.45395-0.82231 0.77043-1.1595 0.31647-0.33723 0.67704-0.61478 1.0817-0.83268 0.40467-0.2179 0.81452-0.3476 1.2296-0.38911v-0.015564zm2.9416 3.7977c0-0.68483-0.24124-1.2685-0.72374-1.751-0.48249-0.48249-1.061-0.72374-1.7354-0.72374-0.68483 0-1.2685 0.24124-1.751 0.72374-0.48249 0.48249-0.72374 1.0661-0.72374 1.751 0 0.67445 0.24124 1.2529 0.72374 1.7354 0.48249 0.48249 1.0661 0.72374 1.751 0.72374 0.67445 0 1.2529-0.24124 1.7354-0.72374 0.48249-0.48249 0.72374-1.061 0.72374-1.7354z"/>
</g>
</g>
</svg>
