<svg width="32" height="32" viewBox="0 0 32 32" fill="none" xmlns="http://www.w3.org/2000/svg">
<g id="tusd">
<path id="Shape" d="M17.4483 18.8231C17.4483 17.6924 17.4483 13.0402 17.4483 13.0402C17.4483 13.0402 16.931 13.0402 18.3379 13.0402C21.2759 13.0402 22 10 22 10C22 10 17.9448 10 14.2828 10C10.6207 10 10 13.0402 10 13.0402H14.5517V21.9929C14.5517 21.9929 17.4483 21.1853 17.4483 18.8231Z" fill="white"/>
<path id="Shape_2" d="M27.7185 27.3409C30.5559 24.3081 31.6455 20.0947 30.624 16.0664C30.1019 13.9829 29.0124 12.0613 27.4915 10.5102C26.6038 9.50356 26.0957 10.1706 26.5491 10.9309C29.1671 15.3206 28.6186 21.1445 24.9038 24.9332C20.0986 29.8341 12.6963 30.483 7.20329 26.8799C6.37852 26.4355 5.38256 26.4149 6.49482 27.5724C12.2831 33.4759 21.6805 33.4759 27.4688 27.5724C27.5823 27.5029 27.6504 27.4335 27.7185 27.3409Z" fill="white"/>
<path id="Shape_3" d="M6.04643 21.3713C2.74018 17.0318 3.077 10.7976 7.0569 6.8441C11.9758 1.9578 19.6226 1.42145 25.1404 5.23504C25.8207 5.70526 26.5317 5.40442 25.4221 4.30216C19.6476 -1.43405 10.2725 -1.43405 4.498 4.30216C4.43007 4.36965 4.36213 4.45963 4.27155 4.52711C0.444521 8.53122 -0.0763174 14.5149 2.98078 19.0589C3.67665 20.0762 4.53239 20.9952 5.50386 21.7633C6.2079 22.32 6.35211 21.7725 6.04643 21.3713Z" fill="white"/>
</g>
</svg>
