<svg data-v-fde0c5aa="" xmlns="http://www.w3.org/2000/svg" viewBox="0 0 300 300" class="font"><!----><defs data-v-fde0c5aa=""><linearGradient data-v-fde0c5aa="" gradientTransform="rotate(25)" id="9dbad364-927f-4a03-96b3-2f6c8860a0d4" x1="0%" y1="0%" x2="100%" y2="0%"><stop data-v-fde0c5aa="" offset="0%" stop-color="#3616AC" stop-opacity="1"></stop><stop data-v-fde0c5aa="" offset="100%" stop-color="#E09BED" stop-opacity="1"></stop></linearGradient></defs><rect data-v-fde0c5aa="" fill="url(#9dbad364-927f-4a03-96b3-2f6c8860a0d4)" x="0" y="0" width="300px" height="300px" class="logo-background-square"></rect><defs data-v-fde0c5aa=""><!----></defs><g data-v-fde0c5aa="" id="c6b83a7f-c040-4bd8-8fe1-a749564329f0" fill="#ffffff" transform="matrix(4.389465376864622,0,0,4.389465376864622,33.547485770425396,113.12848936919504)"><path d="M5.29 3.75L5.29 3.75Q7.20 3.75 8.29 4.66L8.29 4.66L8.29 4.66Q9.38 5.57 9.38 7.17L9.38 7.17L9.38 7.17Q9.38 8.76 8.29 9.67L8.29 9.67L8.29 9.67Q7.20 10.58 5.29 10.58L5.29 10.58L2.87 10.58L2.87 13.55L1.47 13.55L1.47 3.75L5.29 3.75ZM5.25 9.37L5.25 9.37Q6.58 9.37 7.28 8.80L7.28 8.80L7.28 8.80Q7.98 8.23 7.98 7.17L7.98 7.17L7.98 7.17Q7.98 6.10 7.28 5.54L7.28 5.54L7.28 5.54Q6.58 4.97 5.25 4.97L5.25 4.97L2.87 4.97L2.87 9.37L5.25 9.37ZM14.08 6.06L14.08 6.06Q15.62 6.06 16.44 6.82L16.44 6.82L16.44 6.82Q17.26 7.57 17.26 9.07L17.26 9.07L17.26 13.55L15.99 13.55L15.99 12.57L15.99 12.57Q15.65 13.09 15.03 13.36L15.03 13.36L15.03 13.36Q14.41 13.64 13.55 13.64L13.55 13.64L13.55 13.64Q12.31 13.64 11.56 13.03L11.56 13.03L11.56 13.03Q10.81 12.43 10.81 11.45L10.81 11.45L10.81 11.45Q10.81 10.47 11.52 9.88L11.52 9.88L11.52 9.88Q12.24 9.28 13.79 9.28L13.79 9.28L15.92 9.28L15.92 9.02L15.92 9.02Q15.92 8.15 15.41 7.69L15.41 7.69L15.41 7.69Q14.91 7.22 13.93 7.22L13.93 7.22L13.93 7.22Q13.27 7.22 12.64 7.44L12.64 7.44L12.64 7.44Q12.01 7.66 11.58 8.02L11.58 8.02L11.02 7.01L11.02 7.01Q11.59 6.55 12.39 6.31L12.39 6.31L12.39 6.31Q13.19 6.06 14.08 6.06L14.08 6.06ZM13.78 12.60L13.78 12.60Q14.55 12.60 15.11 12.26L15.11 12.26L15.11 12.26Q15.67 11.91 15.92 11.28L15.92 11.28L15.92 10.25L13.85 10.25L13.85 10.25Q12.14 10.25 12.14 11.40L12.14 11.40L12.14 11.40Q12.14 11.96 12.57 12.28L12.57 12.28L12.57 12.28Q13.01 12.60 13.78 12.60L13.78 12.60ZM21.04 7.38L21.04 7.38Q21.39 6.73 22.08 6.40L22.08 6.40L22.08 6.40Q22.76 6.06 23.74 6.06L23.74 6.06L23.74 7.36L23.74 7.36Q23.63 7.35 23.44 7.35L23.44 7.35L23.44 7.35Q22.34 7.35 21.72 8.00L21.72 8.00L21.72 8.00Q21.10 8.65 21.10 9.86L21.10 9.86L21.10 13.55L19.75 13.55L19.75 6.13L21.04 6.13L21.04 7.38ZM28.20 6.06L28.20 6.06Q29.74 6.06 30.55 6.82L30.55 6.82L30.55 6.82Q31.37 7.57 31.37 9.07L31.37 9.07L31.37 13.55L30.10 13.55L30.10 12.57L30.10 12.57Q29.76 13.09 29.14 13.36L29.14 13.36L29.14 13.36Q28.52 13.64 27.66 13.64L27.66 13.64L27.66 13.64Q26.42 13.64 25.67 13.03L25.67 13.03L25.67 13.03Q24.92 12.43 24.92 11.45L24.92 11.45L24.92 11.45Q24.92 10.47 25.63 9.88L25.63 9.88L25.63 9.88Q26.35 9.28 27.90 9.28L27.90 9.28L30.03 9.28L30.03 9.02L30.03 9.02Q30.03 8.15 29.53 7.69L29.53 7.69L29.53 7.69Q29.02 7.22 28.04 7.22L28.04 7.22L28.04 7.22Q27.38 7.22 26.75 7.44L26.75 7.44L26.75 7.44Q26.12 7.66 25.69 8.02L25.69 8.02L25.13 7.01L25.13 7.01Q25.70 6.55 26.50 6.31L26.50 6.31L26.50 6.31Q27.30 6.06 28.20 6.06L28.20 6.06ZM27.89 12.60L27.89 12.60Q28.66 12.60 29.22 12.26L29.22 12.26L29.22 12.26Q29.78 11.91 30.03 11.28L30.03 11.28L30.03 10.25L27.96 10.25L27.96 10.25Q26.25 10.25 26.25 11.40L26.25 11.40L26.25 11.40Q26.25 11.96 26.68 12.28L26.68 12.28L26.68 12.28Q27.12 12.60 27.89 12.60L27.89 12.60ZM33.87 13.55L33.87 3.16L35.21 3.16L35.21 13.55L33.87 13.55ZM37.77 13.55L37.77 3.16L39.12 3.16L39.12 13.55L37.77 13.55ZM48.38 9.88L48.38 9.88Q48.38 10.04 48.36 10.29L48.36 10.29L42.34 10.29L42.34 10.29Q42.46 11.27 43.20 11.87L43.20 11.87L43.20 11.87Q43.93 12.46 45.02 12.46L45.02 12.46L45.02 12.46Q46.35 12.46 47.17 11.56L47.17 11.56L47.91 12.43L47.91 12.43Q47.40 13.02 46.65 13.33L46.65 13.33L46.65 13.33Q45.91 13.64 44.98 13.64L44.98 13.64L44.98 13.64Q43.81 13.64 42.90 13.15L42.90 13.15L42.90 13.15Q41.99 12.67 41.49 11.80L41.49 11.80L41.49 11.80Q40.99 10.93 40.99 9.84L40.99 9.84L40.99 9.84Q40.99 8.76 41.47 7.90L41.47 7.90L41.47 7.90Q41.96 7.03 42.80 6.54L42.80 6.54L42.80 6.54Q43.65 6.06 44.72 6.06L44.72 6.06L44.72 6.06Q45.78 6.06 46.61 6.54L46.61 6.54L46.61 6.54Q47.45 7.03 47.91 7.90L47.91 7.90L47.91 7.90Q48.38 8.76 48.38 9.88L48.38 9.88ZM44.72 7.20L44.72 7.20Q43.75 7.20 43.10 7.78L43.10 7.78L43.10 7.78Q42.45 8.37 42.34 9.32L42.34 9.32L47.10 9.32L47.10 9.32Q46.98 8.39 46.33 7.79L46.33 7.79L46.33 7.79Q45.68 7.20 44.72 7.20L44.72 7.20ZM50.25 13.55L50.25 3.16L51.59 3.16L51.59 13.55L50.25 13.55Z"></path></g><!----><!----></svg>