<svg width="160" height="207" viewBox="0 0 160 207" fill="none" xmlns="http://www.w3.org/2000/svg">
<g clip-path="url(#clip0_6441_32395)">
<mask id="mask0_6441_32395" style="mask-type:luminance" maskUnits="userSpaceOnUse" x="0" y="0" width="160" height="129">
<path d="M160 0H0V128.929H160V0Z" fill="white"/>
</mask>
<g mask="url(#mask0_6441_32395)">
<path d="M87.4476 3.12305L61.6618 14.4143L32.1923 52.2923L3.12329 68.2281C3.12329 68.2281 26.6669 123.003 71.2714 124.044C131.011 125.485 156.877 96.4965 156.877 96.4965C156.877 96.4965 119.4 68.0679 117.798 64.8648C116.196 61.6616 87.4476 3.12305 87.4476 3.12305Z" fill="white"/>
<path fill-rule="evenodd" clip-rule="evenodd" d="M29.3255 51.4021C43.0252 47.3056 60.4511 45.0013 79.5906 47.9235C81.2957 48.184 82.4668 49.7772 82.2065 51.4823C81.9461 53.1874 80.3528 54.3587 78.6477 54.0982C60.5498 51.335 44.062 53.5151 31.1149 57.3865C18.0582 61.2908 8.91784 66.8151 5.34225 70.4258C4.12856 71.6514 2.15113 71.6609 0.92554 70.4473C-0.30005 69.2336 -0.309696 67.2562 0.903995 66.0306C5.49658 61.3929 15.7356 55.4658 29.3255 51.4021Z" fill="black"/>
<path d="M113.554 119.8L61.6618 14.4146L14.2544 84.885" fill="white"/>
<path fill-rule="evenodd" clip-rule="evenodd" d="M61.8717 11.2984C62.9837 11.3733 63.9714 12.035 64.4636 13.0348L116.356 118.42C117.117 119.968 116.481 121.84 114.933 122.602C113.386 123.364 111.514 122.727 110.752 121.179L61.2425 20.6329L16.8456 86.6281C15.8829 88.0594 13.9422 88.4389 12.5111 87.4763C11.0799 86.5135 10.7002 84.5728 11.663 83.1416L59.0704 12.6712C59.6924 11.7465 60.76 11.2234 61.8717 11.2984Z" fill="black"/>
<path fill-rule="evenodd" clip-rule="evenodd" d="M86.1948 0.262417C87.7257 -0.408 89.5133 0.24577 90.2504 1.7458L140.861 104.729C141.622 106.277 140.984 108.148 139.436 108.909C137.888 109.67 136.016 109.032 135.255 107.484L85.9628 7.18289L62.9145 17.2755C61.3345 17.9673 59.4927 17.2473 58.8009 15.6673C58.1091 14.0873 58.8289 12.2456 60.409 11.5537L86.1948 0.262417Z" fill="black"/>
<path d="M89.5295 41.0009C91.8292 41.0009 93.6936 39.1366 93.6936 36.8367C93.6936 34.537 91.8292 32.6726 89.5295 32.6726C87.2296 32.6726 85.3652 34.537 85.3652 36.8367C85.3652 39.1366 87.2296 41.0009 89.5295 41.0009Z" fill="black"/>
<path d="M102.663 68.2283C104.963 68.2283 106.827 66.3639 106.827 64.064C106.827 61.7643 104.963 59.8999 102.663 59.8999C100.363 59.8999 98.4985 61.7643 98.4985 64.064C98.4985 66.3639 100.363 68.2283 102.663 68.2283Z" fill="black"/>
<path d="M115.716 95.3754C118.016 95.3754 119.88 93.511 119.88 91.2112C119.88 88.9114 118.016 87.0471 115.716 87.0471C113.416 87.0471 111.552 88.9114 111.552 91.2112C111.552 93.511 113.416 95.3754 115.716 95.3754Z" fill="black"/>
<path d="M84.5646 123.243C75.4356 116.997 61.6619 102.342 61.6619 102.342C61.6619 102.342 74.7949 82.2423 70.4706 67.027C66.1463 51.8118 59.5797 50.2101 55.7359 52.8528C45.7259 59.8999 47.888 83.6836 43.2434 85.6856C38.5988 87.6877 23.6238 99.2193 23.6238 99.2193C23.6238 99.2193 58.9391 125.726 81.2013 126.447C103.464 127.167 84.5646 123.243 84.5646 123.243Z" fill="#13EA5B"/>
<path fill-rule="evenodd" clip-rule="evenodd" d="M115.093 63.3041C115.955 61.8102 117.865 61.2977 119.359 62.1597C132.081 69.4996 146.778 80.3525 159.217 94.4284C160.359 95.7209 160.238 97.6945 158.945 98.8368C157.653 99.9789 155.679 99.8572 154.537 98.5646C142.632 85.093 128.5 74.6445 116.237 67.57C114.743 66.7081 114.231 64.7982 115.093 63.3041Z" fill="black"/>
<path fill-rule="evenodd" clip-rule="evenodd" d="M2.80647 65.1211C4.52245 64.9462 6.05528 66.1955 6.23014 67.9115C6.26333 68.2371 6.44888 68.9899 6.96954 70.2257C7.4678 71.4082 8.20121 72.8664 9.1783 74.5477C11.1308 77.9075 13.9845 82.0349 17.6749 86.454C25.0623 95.2999 35.6752 105.162 48.8808 112.352C62.063 119.529 77.7805 124.021 95.4943 122.26C113.203 120.499 133.186 112.462 154.859 94.1127C156.175 92.9983 158.146 93.162 159.26 94.4784C160.375 95.7947 160.211 97.7655 158.895 98.8799C136.444 117.888 115.305 126.567 96.1123 128.476C76.9244 130.383 59.9589 125.496 45.8939 117.838C31.8524 110.193 20.6534 99.765 12.8806 90.4578C8.99102 85.8002 5.92751 81.3853 3.77777 77.6862C2.70374 75.8381 1.83979 74.1376 1.21339 72.651C0.609418 71.2176 0.14307 69.7908 0.0160894 68.5447C-0.158786 66.8288 1.09051 65.2959 2.80647 65.1211Z" fill="black"/>
<path fill-rule="evenodd" clip-rule="evenodd" d="M55.7321 57.9591C53.9468 59.7486 52.2253 62.3381 50.9065 65.3227C49.6882 68.1009 49.0601 70.8437 48.4549 73.7644C48.4001 74.029 48.3452 74.2964 48.2899 74.5662C47.7509 77.1935 47.1655 80.0473 46.0849 82.8317C43.5561 89.3476 38.5111 95.0819 26.6132 100.169C25.0272 100.847 23.1918 100.111 22.5137 98.5252C21.8356 96.9392 22.5716 95.1038 24.1576 94.4257C34.9225 89.8232 38.4862 85.147 40.2617 80.5719C41.1422 78.303 41.6243 75.9622 42.1835 73.2478C42.2345 73.0007 42.2861 72.7505 42.3386 72.497C42.9517 69.538 43.6849 66.236 45.1881 62.8094L45.1914 62.8021C46.7552 59.2617 48.8768 55.9866 51.3101 53.5475C53.6732 51.1787 56.7292 49.2137 60.1345 49.2293C63.8322 49.2462 66.8004 51.5554 68.8333 55.299C70.8224 58.962 72.1664 64.365 72.782 71.7319C74.0003 86.3099 71.9097 94.6362 67.9655 99.2313C66.5022 100.936 64.8796 102.02 63.2808 102.703C64.0502 103.205 64.8941 103.763 65.8208 104.388C72.1654 108.668 80.901 115.176 87.1552 123.628C88.1812 125.014 87.8889 126.97 86.5025 127.996C85.116 129.022 83.1602 128.73 82.1342 127.343C76.5365 119.779 68.5355 113.754 62.3275 109.566C60.8638 108.579 59.3863 107.621 58.0928 106.783C56.8265 105.962 55.7363 105.255 55.0079 104.747C54.5989 104.461 54.2 104.169 53.861 103.886C53.6111 103.677 53.0622 103.209 52.6878 102.557C52.4999 102.23 52.0976 101.418 52.2663 100.349C52.4669 99.0786 53.3128 98.3192 53.9747 97.967C54.5444 97.6637 55.083 97.5868 55.353 97.5588C55.6686 97.5261 55.9664 97.5294 56.2096 97.5413C58.5301 97.6554 61.1577 97.5724 63.2258 95.163C65.4678 92.5511 67.7416 86.4229 66.5575 72.252C65.9719 65.2447 64.7333 60.8379 63.3441 58.2797C61.9986 55.802 60.7925 55.4786 60.106 55.4754C59.1269 55.471 57.5882 56.0986 55.7321 57.9591ZM57.7782 99.0133C57.7782 99.0133 57.7906 99.0238 57.8101 99.0438C57.787 99.0232 57.7782 99.0133 57.7782 99.0133Z" fill="black"/>
<path d="M53.3333 87.848C54.8548 81.1212 81.6017 74.7148 80.4805 96.6567C79.3594 118.599 46.7667 116.757 53.3333 87.848Z" fill="#FFF800"/>
<path fill-rule="evenodd" clip-rule="evenodd" d="M56.3808 88.536C56.3786 88.5413 56.3796 88.5406 56.3808 88.536L56.3789 88.5398C54.8596 95.2283 55.6936 99.9382 57.3815 102.997C59.0592 106.037 61.7314 107.74 64.5723 108.247C70.2033 109.251 76.8975 105.577 77.3615 96.4974C77.609 91.655 76.3146 88.8875 74.7144 87.2832C73.058 85.6225 70.617 84.7491 67.7589 84.6216C64.9022 84.4943 61.9321 85.1359 59.6448 86.1542C58.505 86.6615 57.6327 87.2192 57.0554 87.7314C56.5183 88.2079 56.3966 88.4984 56.3808 88.536ZM79.137 82.8722C82.2841 86.0276 83.9128 90.6876 83.5996 96.8161C82.9424 109.679 72.7798 116.055 63.4758 114.396C58.8492 113.571 54.5345 110.765 51.9128 106.015C49.3015 101.283 48.5238 94.9222 50.2879 87.1562C50.6775 85.4375 51.7726 84.0681 52.9101 83.0589C54.0822 82.0191 55.5405 81.144 57.1045 80.4478C60.2252 79.0586 64.1569 78.2086 68.037 78.3816C71.9156 78.5545 76.0461 79.7731 79.137 82.8722Z" fill="black"/>
</g>
<path d="M11.7216 157.541C12.0558 157.656 12.4067 157.715 12.7602 157.716L12.7686 157.728C13.244 157.728 13.7131 157.621 14.142 157.417C14.5708 157.212 14.9484 156.914 15.2473 156.546C15.5462 156.177 15.759 155.746 15.8698 155.285C15.9808 154.824 15.9871 154.344 15.8883 153.88C18.2063 152.906 22.3607 151.787 27.3013 150.98C25.1084 165.57 25.851 193.691 29.8778 204.143C30.1097 204.744 30.5188 205.262 31.0512 205.626C31.5835 205.991 32.2141 206.186 32.86 206.186C33.2539 206.182 33.644 206.108 34.0112 205.965C34.8012 205.661 35.4382 205.057 35.7823 204.287C36.1264 203.515 36.1494 202.639 35.8464 201.851C32.1122 192.17 31.5452 162.794 33.9122 150.159C39.4614 149.688 45.3694 149.749 50.507 150.835C51.3367 151.01 52.2021 150.849 52.9127 150.388C53.6233 149.926 54.1211 149.202 54.2964 148.375C54.4717 147.547 54.3103 146.684 53.8476 145.975C53.3849 145.266 52.6588 144.77 51.8293 144.595C44.5636 143.056 34.8536 143.151 25.202 144.853C14.9249 146.663 9.26494 149.188 8.38492 152.362C7.92191 154.063 8.51007 156.439 11.7216 157.541Z" fill="black"/>
<path fill-rule="evenodd" clip-rule="evenodd" d="M63.066 197.051C63.3589 197.018 63.6464 196.945 63.9201 196.833C64.3077 196.675 64.6601 196.442 64.9571 196.147C65.2542 195.853 65.4902 195.504 65.6517 195.118C65.813 194.732 65.8967 194.319 65.8978 193.9C65.8978 187.947 65.0678 182.303 64.2629 176.845C63.8833 174.265 63.5246 171.824 63.2618 169.41C62.5444 162.9 57.1597 159.763 52.1921 160.038C47.4206 160.3 42.599 163.719 42.599 169.755C42.599 170.6 42.9352 171.41 43.5336 172.005C44.1321 172.602 44.9436 172.939 45.7898 172.939C46.6361 172.939 47.4477 172.602 48.046 172.005C48.6444 171.41 48.9806 170.6 48.9806 169.755C48.9806 166.74 51.9377 166.428 52.5301 166.394C53.189 166.361 56.4925 166.361 56.9095 170.105C57.0676 171.56 57.2618 173.041 57.4696 174.517C56.6221 174.563 55.7731 174.575 54.9241 174.557C50.9743 174.568 46.4822 174.585 43.6628 177.631C41.9526 179.477 41.2102 182.111 41.4645 185.438C41.8817 190.847 42.3739 194.865 45.2184 197.087C46.7033 198.248 48.4301 198.697 50.7282 198.697C53.2156 198.697 56.3782 198.171 60.638 197.462L60.7594 197.442L63.066 197.051ZM58.3886 180.84C57.2428 180.919 56.0938 180.945 54.9451 180.921C52.284 180.921 49.2725 180.921 48.3382 181.948C47.8919 182.431 47.7043 183.5 47.817 184.957C47.9503 186.725 48.3049 191.413 49.1516 192.074C49.9838 192.724 54.5782 192.017 59.4475 191.202C59.2941 187.703 58.8684 184.239 58.3886 180.84Z" fill="black"/>
<path d="M76.7799 204.991C76.092 204.991 75.4227 204.769 74.8718 204.358C74.3208 203.947 73.9177 203.37 73.7226 202.712C70.6235 192.312 71.9416 162.292 73.8977 151.958C74.1 151.175 74.5935 150.499 75.278 150.065C75.9626 149.632 76.7868 149.475 77.5832 149.626C78.3797 149.777 79.0888 150.224 79.5662 150.878C80.0437 151.531 80.254 152.342 80.1542 153.144C78.1772 163.573 77.2345 192.178 79.8288 200.889C79.948 201.29 79.9868 201.711 79.9433 202.126C79.8995 202.542 79.7742 202.944 79.5743 203.312C79.3745 203.68 79.104 204.005 78.7784 204.267C78.4528 204.531 78.0784 204.727 77.6765 204.846C77.3864 204.937 77.0842 204.986 76.7799 204.991Z" fill="black"/>
<path d="M87.5955 194.539C88.1832 195.078 88.9527 195.377 89.7514 195.378C89.8114 195.378 89.8715 195.378 89.933 195.378C89.9611 195.38 89.9896 195.38 90.0183 195.381C90.861 195.312 91.6419 194.913 92.1893 194.27C92.7368 193.628 93.006 192.795 92.938 191.954C92.3373 184.52 92.5752 182.136 93.1048 176.911L93.1584 176.381C93.2615 175.36 93.375 174.237 93.4885 172.967C93.5264 172.551 93.4815 172.13 93.3568 171.733C93.232 171.334 93.0296 170.962 92.7612 170.641C92.4927 170.321 92.1636 170.055 91.7925 169.861C91.4213 169.668 91.0156 169.547 90.5981 169.509C90.1808 169.473 89.76 169.518 89.36 169.641C88.9598 169.767 88.5884 169.968 88.2665 170.235C87.9446 170.504 87.6788 170.832 87.4842 171.202C87.2896 171.571 87.17 171.977 87.132 172.393C87.0667 173.112 87.0034 173.783 86.9422 174.413C86.8782 175.073 86.8163 175.688 86.7566 176.271L86.7545 176.294C86.222 181.557 85.9276 184.468 86.5773 192.465C86.6443 193.259 87.0077 193.999 87.5955 194.539Z" fill="black"/>
<path d="M91.9077 166.016C91.5748 166.016 91.2428 165.986 90.915 165.928C90.088 165.781 89.3523 165.315 88.8687 164.63C88.385 163.945 88.1925 163.097 88.3332 162.271C88.3453 162.195 88.3606 162.119 88.3789 162.044C88.4096 161.919 88.4485 161.796 88.4959 161.677C88.0032 161.332 87.6185 160.855 87.3863 160.301C87.1542 159.747 87.0839 159.139 87.1839 158.547C87.2838 157.955 87.5497 157.404 87.9511 156.956C88.3522 156.509 88.8723 156.184 89.4509 156.019C93.7219 154.791 95.7825 156.46 96.6292 157.566C97.2355 158.39 97.5766 159.378 97.6071 160.4C97.6377 161.421 97.3563 162.428 96.8002 163.286C96.2918 164.125 95.5735 164.818 94.7159 165.296C93.8582 165.775 92.8904 166.022 91.9077 166.016Z" fill="black"/>
<path d="M103.345 199.35C106.122 201.659 110.435 202.949 114.527 202.949C116.462 202.967 118.384 202.633 120.199 201.963C123.256 200.777 125.146 198.593 125.521 195.814C126.48 188.755 121.791 185.506 117.257 182.364L117.246 182.357C115.202 180.993 113.244 179.507 111.382 177.905C108.454 175.306 108.892 172.559 109.413 171.146C109.873 169.897 110.691 168.811 111.765 168.025C112.839 167.238 114.121 166.783 115.453 166.718C118.397 166.639 119.953 167.776 120.424 168.844C120.817 169.73 120.587 170.717 119.795 171.548C119.22 172.162 118.912 172.976 118.937 173.814C118.961 174.652 119.317 175.447 119.926 176.026C120.535 176.604 121.348 176.919 122.189 176.902C123.03 176.886 123.83 176.539 124.416 175.937C126.998 173.234 127.703 169.531 126.264 166.273C124.579 162.458 120.483 160.241 115.319 160.353C112.703 160.439 110.172 161.303 108.052 162.834C105.932 164.366 104.321 166.496 103.424 168.948C101.609 173.879 102.998 179.007 107.144 182.677C109.194 184.449 111.352 186.091 113.605 187.597C118.489 190.981 119.615 192.063 119.198 194.974C119.14 195.49 118.347 195.865 117.889 196.043C114.885 197.207 109.797 196.439 107.415 194.458C106.21 193.46 106.189 192.586 106.331 191.863C106.437 191.058 106.232 190.242 105.755 189.583C105.279 188.925 104.569 188.473 103.769 188.32C102.97 188.167 102.142 188.325 101.455 188.76C100.768 189.196 100.274 189.877 100.075 190.664C99.4364 193.984 100.567 197.041 103.345 199.35Z" fill="black"/>
</g>
<defs>
<clipPath id="clip0_6441_32395">
<rect width="160" height="206.186" fill="white"/>
</clipPath>
</defs>
</svg>
