<svg xmlns="http://www.w3.org/2000/svg"  width="24" height="24" viewBox="0 0 24 24" fill="none">
	<path fill-rule="evenodd" clip-rule="evenodd" d="M10.9984 13.0037C8.78677 13.0037 6.99946 11.21 6.99946 9.00482C6.99946 6.7932 8.7932 5.00589 10.9984 5.00589C13.21 5.00589 14.9973 6.79962 14.9973 9.00482C15.0038 11.21 13.21 13.0037 10.9984 13.0037ZM10.9984 3C14.3094 3 16.9968 5.68738 16.9968 8.99839C16.9968 12.3094 14.3094 14.9968 10.9984 14.9968C7.68738 14.9968 5 12.3094 5 8.99839C5 5.68738 7.68738 3 10.9984 3ZM16.7075 15.2925C17.0997 15.6847 17.0997 16.3148 16.7075 16.7069L12.7085 20.7059C12.3164 21.098 11.6863 21.098 11.2941 20.7059C10.902 20.3137 10.902 19.6836 11.2941 19.2915L15.2931 15.2925C15.6852 14.9003 16.3153 14.9003 16.7075 15.2925ZM19.0027 4.00295C19.0027 4.55585 18.5526 5.00589 17.9997 5.00589C17.4468 5.00589 16.9968 4.55585 16.9968 4.00295C16.9968 3.45004 17.4468 3 17.9997 3C18.5526 3 19.0027 3.45004 19.0027 4.00295Z" fill="white" style="fill: rgb(255, 255, 255);"></path>
</svg>