<?xml version="1.0" encoding="UTF-8"?>
<svg version="1.1" viewBox="0 0 16 16" xmlns="http://www.w3.org/2000/svg">
<g fill="none" fill-rule="evenodd">
<g fill="#fff">
<g transform="translate(-1 2)">
<rect x="1" y="1" width="1.5" height="12" rx=".75"/>
<rect x="6.5" y="6" width="1.5" height="7" rx=".75"/>
<path transform="translate(4.582 4.1865) rotate(-48) translate(-4.582 -4.1865)" d="m4.349-0.029771h0.49999c0.27614 0 0.5 0.22386 0.5 0.5 0 7.607e-4 -1.74e-6 0.0015214-5.21e-6 0.0022821l-0.033924 7.4325c-0.0012563 0.27525-0.22474 0.49772-0.49999 0.49772h-0.49999c-0.27614 0-0.5-0.22386-0.5-0.5 0-7.607e-4 1.73e-6 -0.0015214 5.2e-6 -0.0022821l0.033924-7.4325c0.0012563-0.27525 0.22474-0.49772 0.49999-0.49772z"/>
</g>
<g transform="translate(12.5 8.5) scale(-1 1) translate(-4.5 -6.5)">
<rect x="1" y="1" width="1.5" height="12" rx=".75"/>
<rect x="6.5" y="6" width="1.5" height="7" rx=".75"/>
<path transform="translate(4.582 4.1865) rotate(-48) translate(-4.582 -4.1865)" d="m4.349-0.029771h0.49999c0.27614 0 0.5 0.22386 0.5 0.5 0 7.607e-4 -1.74e-6 0.0015214-5.21e-6 0.0022821l-0.033924 7.4325c-0.0012563 0.27525-0.22474 0.49772-0.49999 0.49772h-0.49999c-0.27614 0-0.5-0.22386-0.5-0.5 0-7.607e-4 1.73e-6 -0.0015214 5.2e-6 -0.0022821l0.033924-7.4325c0.0012563-0.27525 0.22474-0.49772 0.49999-0.49772z"/>
</g>
</g>
</g>
</svg>
