<?xml version="1.0" encoding="UTF-8"?>
<svg version="1.1" viewBox="0 0 16 16" xmlns="http://www.w3.org/2000/svg">
<g fill="none" fill-rule="evenodd">
<g fill="#fff">
<path d="m15.578 12.344c0.03125 0.052084 0.052083 0.10417 0.0625 0.15625s0.015625 0.10937 0.015625 0.17188c0 0.13542-0.039062 0.26042-0.11719 0.375s-0.17969 0.19792-0.30469 0.25l-6.6562 2.6562c-0.041667 0.020833-0.083333 0.033854-0.125 0.039062s-0.083333 0.0078125-0.125 0.0078125-0.083333-0.0026041-0.125-0.0078125c-0.041667-0.0052084-0.083333-0.018229-0.125-0.039062l-6.6719-2.6562c-0.125-0.052084-0.22396-0.13542-0.29688-0.25s-0.10938-0.23958-0.10938-0.375c0-0.0625 0.0052083-0.11979 0.015625-0.17188s0.03125-0.10417 0.0625-0.15625l6.6719-12c0.052084-0.10417 0.13021-0.1875 0.23438-0.25 0.10417-0.0625 0.21875-0.09375 0.34375-0.09375 0.125 0 0.23958 0.03125 0.34375 0.09375 0.10417 0.0625 0.18229 0.14583 0.23438 0.25l6.6719 12zm-7.25 2.2812l5-1.9844-3-1.4062h-0.015625c-0.21875-0.10417-0.39844-0.26562-0.53906-0.48438s-0.21094-0.45833-0.21094-0.71875c0-0.072917 0.0052083-0.14323 0.015625-0.21094s0.026042-0.13281 0.046875-0.19531c0.010417-0.041667 0.018229-0.083333 0.023438-0.125 0.0052084-0.041667 0.0078125-0.088541 0.0078125-0.14062v-0.015625c0-0.041667-0.0026041-0.080729-0.0078125-0.11719s-0.013021-0.070312-0.023438-0.10156v-0.0625c-0.010417-0.03125-0.018229-0.0625-0.023438-0.09375s-0.013021-0.0625-0.023438-0.09375l-0.015625-0.015625c-0.010417-0.03125-0.023437-0.0625-0.039062-0.09375l-0.039062-0.078125-0.015625-0.046875v-0.015625c-0.052084-0.072917-0.11198-0.14323-0.17969-0.21094s-0.13802-0.1276-0.21094-0.17969l0.73438-1.1094 0.015625 0.015625c0.09375 0.0625 0.18229 0.13021 0.26562 0.20312 0.083334 0.072917 0.16146 0.15104 0.23438 0.23438v-0.015625c0.03125 0.041667 0.059896 0.078125 0.085938 0.10938s0.054687 0.067708 0.085938 0.10938l0.0625 0.078125c0.03125 0.0625 0.0625 0.11979 0.09375 0.17188l0.046875 0.09375 0.09375 0.21875 0.03125 0.046875v-0.015625c0.010417 0.041667 0.023437 0.085937 0.039062 0.13281l0.054688 0.16406c0.010417 0.010417 0.013021 0.018229 0.0078125 0.023438s-0.0026042 0.023437 0.0078125 0.054688c0.010417 0.041667 0.018229 0.088541 0.023438 0.14062l0.0078125 0.078125v0.078125c0.010417 0.041667 0.018229 0.088541 0.023438 0.14062s0.0078125 0.10417 0.0078125 0.15625v0.015625c0 0.11458-0.010417 0.22656-0.03125 0.33594s-0.046875 0.21615-0.078125 0.32031v0.03125l2.5312 1.1719-4.4219-7.9688v3.5156c0 0.3125-0.096353 0.58594-0.28906 0.82031s-0.42969 0.39323-0.71094 0.47656h-0.015625c-0.0625 0.020833-0.1224 0.044271-0.17969 0.070312s-0.11198 0.054687-0.16406 0.085938l-0.10938 0.078125-0.03125 0.03125c-0.020833 0.010417-0.039062 0.023437-0.054688 0.039062s-0.033854 0.028646-0.054688 0.039062l-0.015625 0.03125c-0.020833 0.010417-0.039062 0.026042-0.054688 0.046875s-0.028646 0.041667-0.039062 0.0625l-0.015625 0.015625c-0.010417 0.020833-0.023437 0.039062-0.039062 0.054688s-0.028646 0.039062-0.039062 0.070312l-0.015625 0.015625c-0.010417 0.010417-0.020833 0.026042-0.03125 0.046875l-0.03125 0.0625-0.015625 0.046875v-0.015625c-0.03125 0.083334-0.054687 0.16667-0.070312 0.25s-0.023438 0.16667-0.023438 0.25h-1.3438v-0.015625c0-0.15625 0.013021-0.30729 0.039062-0.45312s0.065104-0.28646 0.11719-0.42188c0-0.010417 0.0052083-0.023437 0.015625-0.039062s0.015625-0.028646 0.015625-0.039062l0.046875-0.10938c0.010417-0.03125 0.026042-0.065104 0.046875-0.10156s0.041667-0.070312 0.0625-0.10156l0.046875-0.09375c0.041667-0.072917 0.088541-0.14062 0.14062-0.20312l0.046875-0.0625c0.03125-0.041667 0.059896-0.078125 0.085938-0.10938s0.054687-0.0625 0.085938-0.09375l0.0625-0.0625c0.03125-0.020833 0.0625-0.046875 0.09375-0.078125s0.0625-0.057292 0.09375-0.078125l0.078125-0.0625c0.03125-0.020833 0.0625-0.044271 0.09375-0.070312s0.067708-0.049479 0.10938-0.070312l0.0625-0.03125h-0.015625c0.10417-0.0625 0.21094-0.11719 0.32031-0.16406s0.22656-0.085937 0.35156-0.11719v-3.5156l-4.4219 7.9531 2.6562-1.2344h-0.015625c0.09375-0.03125 0.1875-0.059896 0.28125-0.085938s0.19271-0.039062 0.29688-0.039062c0.1875 0 0.36719 0.039062 0.53906 0.11719 0.17188 0.078125 0.32031 0.1849 0.44531 0.32031 0.10417 0.125 0.23177 0.22396 0.38281 0.29688s0.3151 0.10938 0.49219 0.10938h0.015625c0.125 0 0.24219-0.015625 0.35156-0.046875s0.21615-0.078125 0.32031-0.14062l0.65625 1.1562h0.015625c-0.13542 0.072917-0.27865 0.13802-0.42969 0.19531s-0.3099 0.10156-0.47656 0.13281h-0.03125 0.015625c-0.072917 0.010417-0.14323 0.018229-0.21094 0.023438s-0.13802 0.0078125-0.21094 0.0078125h-0.015625c-0.375 0-0.72396-0.07552-1.0469-0.22656s-0.59896-0.35677-0.82812-0.61719l-3.1094 1.4531 5 2z"/>
</g>
</g>
</svg>
