<?xml version="1.0" encoding="UTF-8"?>
<svg version="1.1" viewBox="0 0 16 16" xmlns="http://www.w3.org/2000/svg">
<g fill="none" fill-rule="evenodd">
<g fill="#fff">
<path d="m13.387 7.6406c0.032211 0.052084 0.059053 0.10937 0.080527 0.17188s0.032211 0.125 0.032211 0.1875c0 0.072917-0.010737 0.13802-0.032211 0.19531s-0.048316 0.11198-0.080527 0.16406l-4.8155 7.3281v0.015625c-0.064422 0.083334-0.14495 0.15365-0.24158 0.21094-0.096633 0.057292-0.20937 0.085938-0.33821 0.085938-0.11811 0-0.22816-0.028646-0.33016-0.085938-0.102-0.057292-0.18521-0.13281-0.24963-0.22656l-4.8155-7.3281h0.016105c-0.042948-0.052084-0.072474-0.10937-0.08858-0.17188-0.016106-0.0625-0.024158-0.125-0.024158-0.1875s0.0080526-0.125 0.024158-0.1875c0.016105-0.0625 0.040263-0.11979 0.072474-0.17188l4.8155-7.3281c0.064422-0.09375 0.14763-0.16927 0.24963-0.22656 0.102-0.057292 0.21205-0.085938 0.33016-0.085938 0.11811 0 0.22816 0.028646 0.33016 0.085938 0.102 0.057292 0.18521 0.13281 0.24963 0.22656l4.8155 7.3281zm-5.3953-5.7344l-3.7848 5.7656 3.7848 1.2812 3.7848-1.2812-3.7848-5.7656zm0 12.188l3.1567-4.8125-3.1567 1.0938-3.1567-1.0938 3.1567 4.8125z"/>
<rect y="2" width="1.25" height="12" rx=".625"/>
<rect x="14.75" y="2" width="1.25" height="12" rx=".625"/>
<rect y="2" width="3.5" height="1.25" rx=".625"/>
<rect x="12.5" y="2" width="3.5" height="1.25" rx=".625"/>
<rect x="12.5" y="12.75" width="3.5" height="1.25" rx=".625"/>
<rect y="12.75" width="3.5" height="1.25" rx=".625"/>
</g>
</g>
</svg>
