<?xml version="1.0" encoding="UTF-8"?>
<svg version="1.1" viewBox="0 0 16 16" xmlns="http://www.w3.org/2000/svg">
<g fill="none" fill-rule="evenodd">
<g fill="#fff">
<path d="m15.035 12l0.0043877 0.0043878-0.039062 0.058594c0.011639-0.02095 0.023197-0.041944 0.034675-0.062982h1e-7zm0.084848 0l-1.0201-1.0872-2.4854-2.9761 1.2427-1.3245-1.8567-2.3217 1.2427-1.3245 0.89181-0.96607c0.4386 0.37396 0.83333 0.78947 1.1842 1.2465 0.35088 0.45707 0.65058 0.95308 0.89912 1.4881 0.24854 0.53498 0.44103 1.0985 0.57749 1.6906 0.13645 0.59211 0.20468 1.205 0.20468 1.8386 0 0.6856-0.077972 1.3478-0.23392 1.9867-0.1513 0.61982-0.36682 1.203-0.64656 1.7494zm-11.669-2.2835l1.5497 1.9938-1.2135 1.2928-0.92105 0.99688-0.01462-0.015576c-0.4386-0.36345-0.83333-0.77362-1.1842-1.2305-0.35088-0.45691-0.65058-0.95275-0.89912-1.4875-0.24854-0.53479-0.43616-1.0981-0.56287-1.69-0.13645-0.5919-0.20468-1.2046-0.20468-1.838 0-0.68536 0.077972-1.3448 0.23392-1.9782 0.15595-0.63344 0.37037-1.2201 0.64327-1.7601l1.0234 1.0903 2.7924 3.3022-1.2427 1.324zm0.83943-4.7165l-1.2928-1.2135-0.99688-0.92105 0.015576-0.01462c0.36345-0.4386 0.77362-0.83333 1.2305-1.1842 0.45691-0.35088 0.95275-0.65058 1.4875-0.89912 0.53479-0.24854 1.0981-0.43616 1.69-0.56287 0.5919-0.13645 1.2046-0.20468 1.838-0.20468 0.68536 0 1.3448 0.077972 1.9782 0.23392 0.63344 0.15595 1.2201 0.37037 1.7601 0.64327l-1.028 0.97953-3.0374 2.5292-1.324-1.2427-2.3209 1.8567zm7.4206 6l1.2928 1.2135 0.99688 0.92105-0.015576 0.01462c-0.36345 0.4386-0.77362 0.83333-1.2305 1.1842-0.45691 0.35088-0.95275 0.65058-1.4875 0.89912-0.53479 0.24854-1.0981 0.43616-1.69 0.56287-0.5919 0.13645-1.2046 0.20468-1.838 0.20468-0.68536 0-1.3448-0.077972-1.9782-0.23392s-1.2201-0.37037-1.7601-0.64327l1.028-0.97953 3.3645-2.8363 1.324 1.5497 1.9938-1.8567z"/>
</g>
</g>
</svg>
