<svg width="560" height="288" viewBox="0 0 560 288" fill="none" xmlns="http://www.w3.org/2000/svg">
<rect width="560" height="288" rx="8" fill="#5BB1E9"/>
<path opacity="0.3" fill-rule="evenodd" clip-rule="evenodd" d="M488.216 65.7432C488.216 68.7659 490.667 71.2162 493.689 71.2162C496.712 71.2162 499.162 68.7659 499.162 65.7432V39.473C499.162 36.4503 496.712 34 493.689 34C490.667 34 488.216 36.4503 488.216 39.473V65.7432ZM440.054 94.2028C440.054 97.2254 442.504 99.6758 445.527 99.6758C448.55 99.6758 451 97.2254 451 94.2028V74.5001C451 71.4774 448.55 69.0271 445.527 69.0271C442.504 69.0271 440.054 71.4774 440.054 74.5001V94.2028ZM427.008 135.165C423.985 135.165 421.535 132.715 421.535 129.692V103.422C421.535 100.399 423.985 97.9487 427.008 97.9487C430.03 97.9487 432.481 100.399 432.481 103.422V129.692C432.481 132.715 430.03 135.165 427.008 135.165ZM384.23 180.676C381.207 180.676 378.757 178.225 378.757 175.203V148.933C378.757 145.91 381.207 143.46 384.23 143.46C387.252 143.46 389.703 145.91 389.703 148.933V175.203C389.703 178.225 387.252 180.676 384.23 180.676ZM331.689 191.622C328.667 191.622 326.216 189.171 326.216 186.149V170.824C326.216 167.802 328.667 165.351 331.689 165.351C334.712 165.351 337.162 167.802 337.162 170.824V186.149C337.162 189.171 334.712 191.622 331.689 191.622ZM360.149 196C357.126 196 354.676 193.55 354.676 190.527V170.824C354.676 167.802 357.126 165.351 360.149 165.351C363.171 165.351 365.622 167.802 365.622 170.824V190.527C365.622 193.55 363.171 196 360.149 196ZM402.838 155.5C402.838 158.523 405.288 160.973 408.311 160.973C411.333 160.973 413.784 158.523 413.784 155.5L413.784 140.176C413.784 137.153 411.333 134.703 408.311 134.703C405.288 134.703 402.838 137.153 402.838 140.176V155.5ZM469.608 82.1623C466.585 82.1623 464.135 79.7119 464.135 76.6893V56.9866C464.135 53.964 466.585 51.5136 469.608 51.5136C472.631 51.5136 475.081 53.964 475.081 56.9866V76.6893C475.081 79.7119 472.631 82.1623 469.608 82.1623ZM512.297 52.6084C512.297 55.6311 514.748 58.0814 517.77 58.0814C520.793 58.0814 523.243 55.6311 523.243 52.6084V39.4733C523.243 36.4506 520.793 34.0003 517.77 34.0003C514.748 34.0003 512.297 36.4506 512.297 39.4733V52.6084Z" fill="white"/>
<path d="M56.5938 164.219C56.3333 163.375 55.974 162.62 55.5156 161.953C55.0677 161.276 54.526 160.698 53.8906 160.219C53.2656 159.74 52.5469 159.38 51.7344 159.141C50.9219 158.891 50.0365 158.766 49.0781 158.766C47.3594 158.766 45.8281 159.198 44.4844 160.063C43.1406 160.927 42.0833 162.198 41.3125 163.875C40.5521 165.542 40.1719 167.573 40.1719 169.969C40.1719 172.385 40.5521 174.432 41.3125 176.109C42.0729 177.786 43.1302 179.062 44.4844 179.937C45.8385 180.802 47.4115 181.234 49.2031 181.234C50.8281 181.234 52.2344 180.922 53.4219 180.297C54.6198 179.672 55.5417 178.786 56.1875 177.641C56.8333 176.484 57.1563 175.13 57.1563 173.578L58.4688 173.781H49.7813V169.25H62.7656V173.094C62.7656 175.833 62.1823 178.203 61.0156 180.203C59.849 182.203 58.2448 183.745 56.2031 184.828C54.1615 185.901 51.8177 186.437 49.1719 186.437C46.224 186.437 43.6354 185.776 41.4063 184.453C39.1875 183.12 37.4531 181.229 36.2031 178.781C34.9635 176.323 34.3438 173.406 34.3438 170.031C34.3438 167.448 34.7083 165.141 35.4375 163.109C36.1771 161.078 37.2083 159.354 38.5312 157.937C39.8542 156.51 41.4063 155.427 43.1875 154.687C44.9688 153.937 46.9063 153.562 49 153.562C50.7708 153.562 52.4219 153.823 53.9531 154.344C55.4844 154.854 56.8438 155.583 58.0312 156.531C59.2292 157.479 60.2135 158.604 60.9844 159.906C61.7552 161.208 62.2604 162.646 62.5 164.219H56.5938ZM78.7461 186.469C76.3398 186.469 74.2617 185.969 72.5117 184.969C70.7721 183.958 69.4336 182.531 68.4961 180.687C67.5586 178.833 67.0898 176.651 67.0898 174.141C67.0898 171.672 67.5586 169.505 68.4961 167.641C69.444 165.766 70.7669 164.307 72.4648 163.266C74.1628 162.214 76.1576 161.688 78.4492 161.688C79.9284 161.688 81.3242 161.927 82.6367 162.406C83.9596 162.875 85.1263 163.604 86.1367 164.594C87.1576 165.583 87.9596 166.844 88.543 168.375C89.1263 169.896 89.418 171.708 89.418 173.812V175.547H69.7461V171.734H83.9961C83.9857 170.651 83.7513 169.687 83.293 168.844C82.8346 167.99 82.194 167.318 81.3711 166.828C80.5586 166.339 79.6107 166.094 78.5273 166.094C77.3711 166.094 76.3555 166.375 75.4805 166.937C74.6055 167.49 73.9232 168.219 73.4336 169.125C72.9544 170.021 72.7096 171.005 72.6992 172.078V175.406C72.6992 176.802 72.9544 178 73.4648 179C73.9753 179.99 74.6888 180.75 75.6055 181.281C76.5221 181.802 77.5951 182.062 78.8242 182.062C79.6471 182.062 80.3919 181.948 81.0586 181.719C81.7253 181.479 82.3034 181.13 82.793 180.672C83.2826 180.214 83.6523 179.646 83.9023 178.969L89.1836 179.562C88.8503 180.958 88.2148 182.177 87.2773 183.219C86.3503 184.25 85.1628 185.052 83.7148 185.625C82.2669 186.187 80.6107 186.469 78.7461 186.469ZM106.188 162V166.375H92.3906V162H106.188ZM95.7969 156.25H101.453V178.781C101.453 179.542 101.568 180.125 101.797 180.531C102.036 180.927 102.349 181.198 102.734 181.344C103.12 181.49 103.547 181.562 104.016 181.562C104.37 181.562 104.693 181.536 104.984 181.484C105.286 181.432 105.516 181.385 105.672 181.344L106.625 185.766C106.323 185.87 105.891 185.984 105.328 186.109C104.776 186.234 104.099 186.307 103.297 186.328C101.88 186.37 100.604 186.156 99.4688 185.687C98.3333 185.208 97.4323 184.469 96.7656 183.469C96.1094 182.469 95.7865 181.219 95.7969 179.719V156.25ZM122.902 162V166.375H109.105V162H122.902ZM112.512 156.25H118.168V178.781C118.168 179.542 118.283 180.125 118.512 180.531C118.751 180.927 119.064 181.198 119.449 181.344C119.835 181.49 120.262 181.562 120.73 181.562C121.085 181.562 121.408 181.536 121.699 181.484C122.001 181.432 122.23 181.385 122.387 181.344L123.34 185.766C123.038 185.87 122.605 185.984 122.043 186.109C121.491 186.234 120.814 186.307 120.012 186.328C118.595 186.37 117.319 186.156 116.184 185.687C115.048 185.208 114.147 184.469 113.48 183.469C112.824 182.469 112.501 181.219 112.512 179.719V156.25ZM127.633 186V162H133.289V186H127.633ZM130.477 158.594C129.581 158.594 128.81 158.297 128.164 157.703C127.518 157.099 127.195 156.375 127.195 155.531C127.195 154.677 127.518 153.953 128.164 153.359C128.81 152.755 129.581 152.453 130.477 152.453C131.383 152.453 132.154 152.755 132.789 153.359C133.435 153.953 133.758 154.677 133.758 155.531C133.758 156.375 133.435 157.099 132.789 157.703C132.154 158.297 131.383 158.594 130.477 158.594ZM144.762 171.937V186H139.105V162H144.512V166.078H144.793C145.345 164.734 146.225 163.667 147.434 162.875C148.652 162.083 150.158 161.688 151.949 161.688C153.605 161.688 155.048 162.042 156.277 162.75C157.517 163.458 158.475 164.484 159.152 165.828C159.84 167.172 160.178 168.802 160.168 170.719V186H154.512V171.594C154.512 169.99 154.095 168.734 153.262 167.828C152.439 166.922 151.298 166.469 149.84 166.469C148.85 166.469 147.97 166.687 147.199 167.125C146.439 167.552 145.84 168.172 145.402 168.984C144.975 169.797 144.762 170.781 144.762 171.937ZM176.355 195.5C174.324 195.5 172.579 195.224 171.121 194.672C169.663 194.13 168.491 193.401 167.605 192.484C166.72 191.568 166.105 190.552 165.762 189.438L170.855 188.203C171.085 188.672 171.418 189.135 171.855 189.594C172.293 190.063 172.882 190.448 173.621 190.75C174.371 191.063 175.314 191.219 176.449 191.219C178.053 191.219 179.382 190.828 180.434 190.047C181.486 189.276 182.012 188.005 182.012 186.234V181.687H181.73C181.439 182.271 181.012 182.87 180.449 183.484C179.897 184.099 179.163 184.615 178.246 185.031C177.34 185.448 176.199 185.656 174.824 185.656C172.98 185.656 171.309 185.224 169.809 184.359C168.319 183.484 167.132 182.182 166.246 180.453C165.371 178.714 164.934 176.536 164.934 173.922C164.934 171.286 165.371 169.062 166.246 167.25C167.132 165.427 168.324 164.047 169.824 163.109C171.324 162.161 172.996 161.688 174.84 161.688C176.246 161.688 177.402 161.927 178.309 162.406C179.225 162.875 179.954 163.443 180.496 164.109C181.038 164.766 181.449 165.385 181.73 165.969H182.043V162H187.621V186.391C187.621 188.443 187.132 190.141 186.152 191.484C185.173 192.828 183.835 193.833 182.137 194.5C180.439 195.167 178.512 195.5 176.355 195.5ZM176.402 181.219C177.6 181.219 178.621 180.927 179.465 180.344C180.309 179.76 180.949 178.922 181.387 177.828C181.824 176.734 182.043 175.422 182.043 173.891C182.043 172.38 181.824 171.057 181.387 169.922C180.96 168.786 180.324 167.906 179.48 167.281C178.647 166.646 177.621 166.328 176.402 166.328C175.142 166.328 174.09 166.656 173.246 167.312C172.402 167.969 171.767 168.87 171.34 170.016C170.913 171.151 170.699 172.443 170.699 173.891C170.699 175.359 170.913 176.646 171.34 177.75C171.777 178.844 172.418 179.698 173.262 180.312C174.116 180.917 175.163 181.219 176.402 181.219ZM53.875 221.344L48.7188 221.906C48.5729 221.385 48.3177 220.896 47.9531 220.438C47.599 219.979 47.1198 219.609 46.5156 219.328C45.9115 219.047 45.1719 218.906 44.2969 218.906C43.1198 218.906 42.1302 219.161 41.3281 219.672C40.5365 220.182 40.1458 220.844 40.1563 221.656C40.1458 222.354 40.401 222.922 40.9219 223.359C41.4531 223.797 42.3281 224.156 43.5469 224.438L47.6406 225.312C49.9115 225.802 51.599 226.578 52.7031 227.641C53.8177 228.703 54.3802 230.094 54.3906 231.812C54.3802 233.323 53.9375 234.656 53.0625 235.812C52.1979 236.958 50.9948 237.854 49.4531 238.5C47.9115 239.146 46.1406 239.469 44.1406 239.469C41.2031 239.469 38.8385 238.854 37.0469 237.625C35.2552 236.385 34.1875 234.661 33.8438 232.453L39.3594 231.922C39.6094 233.005 40.1406 233.823 40.9531 234.375C41.7656 234.927 42.8229 235.203 44.125 235.203C45.4688 235.203 46.5469 234.927 47.3594 234.375C48.1823 233.823 48.5938 233.141 48.5938 232.328C48.5938 231.641 48.3281 231.073 47.7969 230.625C47.276 230.177 46.4635 229.833 45.3594 229.594L41.2656 228.734C38.9635 228.255 37.2604 227.448 36.1562 226.312C35.0521 225.167 34.5052 223.719 34.5156 221.969C34.5052 220.49 34.9063 219.208 35.7188 218.125C36.5417 217.031 37.6823 216.187 39.1406 215.594C40.6094 214.99 42.3021 214.688 44.2188 214.688C47.0313 214.688 49.2448 215.286 50.8594 216.484C52.4844 217.682 53.4896 219.302 53.875 221.344ZM71.0391 215V219.375H57.2422V215H71.0391ZM60.6484 209.25H66.3047V231.781C66.3047 232.542 66.4193 233.125 66.6484 233.531C66.888 233.927 67.2005 234.198 67.5859 234.344C67.9714 234.49 68.3984 234.562 68.8672 234.562C69.2214 234.562 69.5443 234.536 69.8359 234.484C70.138 234.432 70.3672 234.385 70.5234 234.344L71.4766 238.766C71.1745 238.87 70.7422 238.984 70.1797 239.109C69.6276 239.234 68.9505 239.307 68.1484 239.328C66.7318 239.37 65.4557 239.156 64.3203 238.687C63.1849 238.208 62.2839 237.469 61.6172 236.469C60.9609 235.469 60.638 234.219 60.6484 232.719V209.25ZM82.6758 239.484C81.1549 239.484 79.7852 239.214 78.5664 238.672C77.3581 238.12 76.3997 237.307 75.6914 236.234C74.9935 235.161 74.6445 233.839 74.6445 232.266C74.6445 230.911 74.8945 229.792 75.3945 228.906C75.8945 228.021 76.5768 227.312 77.4414 226.781C78.306 226.25 79.2799 225.849 80.3633 225.578C81.457 225.297 82.5872 225.094 83.7539 224.969C85.1602 224.823 86.3008 224.693 87.1758 224.578C88.0508 224.453 88.6862 224.266 89.082 224.016C89.4883 223.755 89.6914 223.354 89.6914 222.812V222.719C89.6914 221.542 89.3424 220.63 88.6445 219.984C87.9466 219.339 86.9414 219.016 85.6289 219.016C84.2435 219.016 83.1445 219.318 82.332 219.922C81.5299 220.526 80.9883 221.24 80.707 222.062L75.4258 221.312C75.8424 219.854 76.5299 218.635 77.4883 217.656C78.4466 216.667 79.6185 215.927 81.0039 215.437C82.3893 214.938 83.9206 214.688 85.5977 214.688C86.7539 214.688 87.9049 214.823 89.0508 215.094C90.1966 215.365 91.2435 215.812 92.1914 216.437C93.1393 217.052 93.8997 217.891 94.4727 218.953C95.056 220.016 95.3477 221.344 95.3477 222.937V239H89.9102V235.703H89.7227C89.3789 236.37 88.8945 236.995 88.2695 237.578C87.6549 238.151 86.8789 238.615 85.9414 238.969C85.0143 239.313 83.9258 239.484 82.6758 239.484ZM84.1445 235.328C85.2799 235.328 86.2643 235.104 87.0977 234.656C87.931 234.198 88.5716 233.594 89.0195 232.844C89.4779 232.094 89.707 231.276 89.707 230.391V227.562C89.5299 227.708 89.2279 227.844 88.8008 227.969C88.3841 228.094 87.9154 228.203 87.3945 228.297C86.8737 228.391 86.3581 228.474 85.8477 228.547C85.3372 228.62 84.8945 228.682 84.5195 228.734C83.6758 228.849 82.9206 229.036 82.2539 229.297C81.5872 229.557 81.0612 229.922 80.6758 230.391C80.2904 230.849 80.0977 231.443 80.0977 232.172C80.0977 233.214 80.4779 234 81.2383 234.531C81.9987 235.062 82.9674 235.328 84.1445 235.328ZM101.035 239V215H106.52V219H106.77C107.207 217.615 107.957 216.547 109.02 215.797C110.092 215.036 111.316 214.656 112.691 214.656C113.004 214.656 113.353 214.672 113.738 214.703C114.134 214.724 114.462 214.76 114.723 214.812V220.016C114.483 219.932 114.103 219.859 113.582 219.797C113.072 219.724 112.577 219.687 112.098 219.687C111.066 219.687 110.139 219.911 109.316 220.359C108.504 220.797 107.863 221.406 107.395 222.187C106.926 222.969 106.691 223.87 106.691 224.891V239H101.035ZM131.754 215V219.375H117.957V215H131.754ZM121.363 209.25H127.02V231.781C127.02 232.542 127.134 233.125 127.363 233.531C127.603 233.927 127.915 234.198 128.301 234.344C128.686 234.49 129.113 234.562 129.582 234.562C129.936 234.562 130.259 234.536 130.551 234.484C130.853 234.432 131.082 234.385 131.238 234.344L132.191 238.766C131.889 238.87 131.457 238.984 130.895 239.109C130.342 239.234 129.665 239.307 128.863 239.328C127.447 239.37 126.171 239.156 125.035 238.687C123.9 238.208 122.999 237.469 122.332 236.469C121.676 235.469 121.353 234.219 121.363 232.719V209.25ZM146.852 239.469C144.445 239.469 142.367 238.969 140.617 237.969C138.878 236.958 137.539 235.531 136.602 233.687C135.664 231.833 135.195 229.651 135.195 227.141C135.195 224.672 135.664 222.505 136.602 220.641C137.549 218.766 138.872 217.307 140.57 216.266C142.268 215.214 144.263 214.688 146.555 214.688C148.034 214.688 149.43 214.927 150.742 215.406C152.065 215.875 153.232 216.604 154.242 217.594C155.263 218.583 156.065 219.844 156.648 221.375C157.232 222.896 157.523 224.708 157.523 226.812V228.547H137.852V224.734H152.102C152.091 223.651 151.857 222.687 151.398 221.844C150.94 220.99 150.299 220.318 149.477 219.828C148.664 219.339 147.716 219.094 146.633 219.094C145.477 219.094 144.461 219.375 143.586 219.937C142.711 220.49 142.029 221.219 141.539 222.125C141.06 223.021 140.815 224.005 140.805 225.078V228.406C140.805 229.802 141.06 231 141.57 232C142.081 232.99 142.794 233.75 143.711 234.281C144.628 234.802 145.701 235.062 146.93 235.062C147.753 235.062 148.497 234.948 149.164 234.719C149.831 234.479 150.409 234.13 150.898 233.672C151.388 233.214 151.758 232.646 152.008 231.969L157.289 232.562C156.956 233.958 156.32 235.177 155.383 236.219C154.456 237.25 153.268 238.052 151.82 238.625C150.372 239.187 148.716 239.469 146.852 239.469ZM171.215 239.422C169.329 239.422 167.642 238.938 166.152 237.969C164.663 237 163.486 235.594 162.621 233.75C161.757 231.906 161.324 229.667 161.324 227.031C161.324 224.365 161.762 222.115 162.637 220.281C163.522 218.437 164.715 217.047 166.215 216.109C167.715 215.161 169.387 214.688 171.23 214.688C172.637 214.688 173.793 214.927 174.699 215.406C175.605 215.875 176.324 216.443 176.855 217.109C177.387 217.766 177.798 218.385 178.09 218.969H178.324V207H183.996V239H178.434V235.219H178.09C177.798 235.802 177.376 236.422 176.824 237.078C176.272 237.724 175.543 238.276 174.637 238.734C173.73 239.193 172.59 239.422 171.215 239.422ZM172.793 234.781C173.991 234.781 175.012 234.458 175.855 233.812C176.699 233.156 177.34 232.245 177.777 231.078C178.215 229.911 178.434 228.552 178.434 227C178.434 225.448 178.215 224.099 177.777 222.953C177.35 221.807 176.715 220.917 175.871 220.281C175.038 219.646 174.012 219.328 172.793 219.328C171.533 219.328 170.48 219.656 169.637 220.312C168.793 220.969 168.158 221.875 167.73 223.031C167.303 224.187 167.09 225.51 167.09 227C167.09 228.5 167.303 229.839 167.73 231.016C168.168 232.182 168.809 233.104 169.652 233.781C170.507 234.448 171.553 234.781 172.793 234.781ZM222.375 215L213.828 239H207.578L199.031 215H205.063L210.578 232.828H210.828L216.359 215H222.375ZM226.289 239V215H231.945V239H226.289ZM229.133 211.594C228.237 211.594 227.466 211.297 226.82 210.703C226.174 210.099 225.852 209.375 225.852 208.531C225.852 207.677 226.174 206.953 226.82 206.359C227.466 205.755 228.237 205.453 229.133 205.453C230.039 205.453 230.81 205.755 231.445 206.359C232.091 206.953 232.414 207.677 232.414 208.531C232.414 209.375 232.091 210.099 231.445 210.703C230.81 211.297 230.039 211.594 229.133 211.594ZM246.668 239.422C244.783 239.422 243.095 238.938 241.605 237.969C240.116 237 238.939 235.594 238.074 233.75C237.21 231.906 236.777 229.667 236.777 227.031C236.777 224.365 237.215 222.115 238.09 220.281C238.975 218.437 240.168 217.047 241.668 216.109C243.168 215.161 244.84 214.688 246.684 214.688C248.09 214.688 249.246 214.927 250.152 215.406C251.059 215.875 251.777 216.443 252.309 217.109C252.84 217.766 253.251 218.385 253.543 218.969H253.777V207H259.449V239H253.887V235.219H253.543C253.251 235.802 252.829 236.422 252.277 237.078C251.725 237.724 250.996 238.276 250.09 238.734C249.184 239.193 248.043 239.422 246.668 239.422ZM248.246 234.781C249.444 234.781 250.465 234.458 251.309 233.812C252.152 233.156 252.793 232.245 253.23 231.078C253.668 229.911 253.887 228.552 253.887 227C253.887 225.448 253.668 224.099 253.23 222.953C252.803 221.807 252.168 220.917 251.324 220.281C250.491 219.646 249.465 219.328 248.246 219.328C246.986 219.328 245.934 219.656 245.09 220.312C244.246 220.969 243.611 221.875 243.184 223.031C242.757 224.187 242.543 225.51 242.543 227C242.543 228.5 242.757 229.839 243.184 231.016C243.621 232.182 244.262 233.104 245.105 233.781C245.96 234.448 247.007 234.781 248.246 234.781ZM276.102 239.469C273.695 239.469 271.617 238.969 269.867 237.969C268.128 236.958 266.789 235.531 265.852 233.687C264.914 231.833 264.445 229.651 264.445 227.141C264.445 224.672 264.914 222.505 265.852 220.641C266.799 218.766 268.122 217.307 269.82 216.266C271.518 215.214 273.513 214.688 275.805 214.688C277.284 214.688 278.68 214.927 279.992 215.406C281.315 215.875 282.482 216.604 283.492 217.594C284.513 218.583 285.315 219.844 285.898 221.375C286.482 222.896 286.773 224.708 286.773 226.812V228.547H267.102V224.734H281.352C281.341 223.651 281.107 222.687 280.648 221.844C280.19 220.99 279.549 220.318 278.727 219.828C277.914 219.339 276.966 219.094 275.883 219.094C274.727 219.094 273.711 219.375 272.836 219.937C271.961 220.49 271.279 221.219 270.789 222.125C270.31 223.021 270.065 224.005 270.055 225.078V228.406C270.055 229.802 270.31 231 270.82 232C271.331 232.99 272.044 233.75 272.961 234.281C273.878 234.802 274.951 235.062 276.18 235.062C277.003 235.062 277.747 234.948 278.414 234.719C279.081 234.479 279.659 234.13 280.148 233.672C280.638 233.214 281.008 232.646 281.258 231.969L286.539 232.562C286.206 233.958 285.57 235.177 284.633 236.219C283.706 237.25 282.518 238.052 281.07 238.625C279.622 239.187 277.966 239.469 276.102 239.469ZM302.027 239.469C299.684 239.469 297.652 238.953 295.934 237.922C294.215 236.891 292.882 235.448 291.934 233.594C290.996 231.74 290.527 229.573 290.527 227.094C290.527 224.615 290.996 222.443 291.934 220.578C292.882 218.714 294.215 217.266 295.934 216.234C297.652 215.203 299.684 214.688 302.027 214.688C304.371 214.688 306.402 215.203 308.121 216.234C309.84 217.266 311.168 218.714 312.105 220.578C313.053 222.443 313.527 224.615 313.527 227.094C313.527 229.573 313.053 231.74 312.105 233.594C311.168 235.448 309.84 236.891 308.121 237.922C306.402 238.953 304.371 239.469 302.027 239.469ZM302.059 234.937C303.329 234.937 304.392 234.589 305.246 233.891C306.1 233.182 306.736 232.234 307.152 231.047C307.579 229.859 307.793 228.536 307.793 227.078C307.793 225.609 307.579 224.281 307.152 223.094C306.736 221.896 306.1 220.943 305.246 220.234C304.392 219.526 303.329 219.172 302.059 219.172C300.757 219.172 299.673 219.526 298.809 220.234C297.954 220.943 297.314 221.896 296.887 223.094C296.47 224.281 296.262 225.609 296.262 227.078C296.262 228.536 296.47 229.859 296.887 231.047C297.314 232.234 297.954 233.182 298.809 233.891C299.673 234.589 300.757 234.937 302.059 234.937Z" fill="white"/>
</svg>
