<svg width="144" height="118" viewBox="0 0 144 118" fill="none" xmlns="http://www.w3.org/2000/svg">
  <path
    d="M1.15385 40.7692C0.604939 39.4519 1.57284 38 3 38H28C29.1046 38 30 38.8954 30 40V46C30 47.1046 29.1046 48 28 48H5.5C4.6926 48 3.96439 47.5145 3.65385 46.7692L1.15385 40.7692Z"
    fill="#64819C" />
  <path
    d="M6.87749 54.6325C6.4458 53.3374 7.40974 52 8.77485 52H28C29.1046 52 30 52.8954 30 54V60C30 61.1046 29.1046 62 28 62H10.7749C9.91399 62 9.14971 61.4491 8.87749 60.6325L6.87749 54.6325Z"
    fill="#64819C" />
  <path
    d="M11.6624 68.5103C11.3277 67.2418 12.2843 66 13.5962 66H28C29.1046 66 30 66.8954 30 68V74C30 75.1046 29.1046 76 28 76H15.1796C14.2715 76 13.4775 75.3883 13.2458 74.5103L11.6624 68.5103Z"
    fill="#64819C" />
  <path
    d="M142.846 40.7692C143.395 39.4519 142.427 38 141 38H116C114.895 38 114 38.8954 114 40V46C114 47.1046 114.895 48 116 48H138.5C139.307 48 140.036 47.5145 140.346 46.7692L142.846 40.7692Z"
    fill="#64819C" />
  <path
    d="M137.123 54.6325C137.554 53.3374 136.59 52 135.225 52H116C114.895 52 114 52.8954 114 54V60C114 61.1046 114.895 62 116 62H133.225C134.086 62 134.85 61.4491 135.123 60.6325L137.123 54.6325Z"
    fill="#64819C" />
  <path
    d="M132.338 68.5103C132.672 67.2418 131.716 66 130.404 66H116C114.895 66 114 66.8954 114 68V74C114 75.1046 114.895 76 116 76H128.82C129.728 76 130.523 75.3883 130.754 74.5103L132.338 68.5103Z"
    fill="#64819C" />
  <path
    d="M69 6.35085C70.8564 5.27906 73.1436 5.27906 75 6.35085L114.363 29.0774C116.22 30.1491 117.363 32.1299 117.363 34.2735V79.7265C117.363 81.8701 116.22 83.8509 114.363 84.9226L75 107.649C73.1436 108.721 70.8564 108.721 69 107.649L29.6366 84.9226C27.7801 83.8509 26.6366 81.8701 26.6366 79.7265V34.2735C26.6366 32.1299 27.7801 30.1491 29.6366 29.0774L69 6.35085Z"
    fill="url(#paint0_radial_9476_777)" stroke="url(#paint1_linear_9476_777)" stroke-width="8"
    stroke-linejoin="round" />
  <path
    d="M55.8568 68.948C56.7446 68.2908 57.9971 68.4778 58.6543 69.3656L59.8442 70.9731C60.5014 71.8609 60.3144 73.1133 59.4266 73.7705L49.8019 80.895C48.9141 81.5521 47.6616 81.3652 47.0045 80.4774L45.8145 78.8699C45.1574 77.9821 45.3443 76.7296 46.2321 76.0724L55.8568 68.948Z"
    fill="#66463C" />
  <path
    d="M85.7311 33.5506C82.324 45.5802 65.8206 60.9188 57.9581 67.3317L60.7579 72.2977C61.5491 72.4154 71.2648 65.0987 76.0238 61.4256C92.6802 47.323 88.5186 28.4048 85.7311 33.5506Z"
    fill="#91CEF2" />
  <path
    d="M83.9131 42.3734C78.7795 49.6978 65.5449 63.905 59.1484 69.525L61.2533 72.3656C65.2302 69.4187 73.6644 64.6684 78.3708 59.2415C82.642 54.3164 82.7793 54.3368 84.6406 51.0752C89.4269 42.6882 88.4786 35.4701 87.9841 35.3965C87.7061 34.5464 87.0195 35.0845 86.9214 35.7439C86.5682 38.1178 84.6284 40.9633 83.9131 42.3734Z"
    fill="#D1EDFE" />
  <path
    d="M53.924 63.1805C54.5234 62.715 55.3736 62.8068 55.8231 63.3855L63.961 73.8639C64.4104 74.4426 64.2889 75.2891 63.6895 75.7545L62.6043 76.5974C62.0049 77.0629 61.1547 76.9711 60.7052 76.3924L52.5673 65.914C52.1179 65.3353 52.2394 64.4888 52.8388 64.0233L53.924 63.1805Z"
    fill="#EBC659" />
  <path
    d="M87.5059 68.948C86.6181 68.2908 85.3657 68.4778 84.7085 69.3656L83.5186 70.9731C82.8614 71.8609 83.0484 73.1133 83.9362 73.7705L93.5609 80.895C94.4487 81.5521 95.7012 81.3652 96.3583 80.4774L97.5483 78.8699C98.2054 77.9821 98.0185 76.7296 97.1307 76.0724L87.5059 68.948Z"
    fill="#66463C" />
  <path
    d="M57.6317 33.5506C61.0388 45.5802 77.5422 60.9188 85.4047 67.3317L82.6049 72.2977C81.8137 72.4154 72.0979 65.0987 67.339 61.4256C50.6826 47.323 54.8441 28.4048 57.6317 33.5506Z"
    fill="#91CEF2" />
  <path
    d="M59.4496 42.3734C64.5833 49.6978 77.8179 63.905 84.2144 69.525L82.1095 72.3656C78.1326 69.4187 69.6984 64.6684 64.992 59.2415C60.7208 54.3164 60.5834 54.3368 58.7222 51.0752C53.9359 42.6882 54.8842 35.4701 55.3787 35.3965C55.6566 34.5464 56.3433 35.0845 56.4414 35.7439C56.7945 38.1178 58.7344 40.9633 59.4496 42.3734Z"
    fill="#D1EDFE" />
  <path
    d="M89.4388 63.1805C88.8394 62.715 87.9892 62.8068 87.5397 63.3855L79.4018 73.8639C78.9524 74.4426 79.0739 75.2891 79.6733 75.7545L80.7585 76.5974C81.3579 77.0629 82.2081 76.9711 82.6576 76.3924L90.7955 65.914C91.2449 65.3353 91.1234 64.4888 90.524 64.0233L89.4388 63.1805Z"
    fill="#EBC659" />
  <path
    d="M71.1093 99.7454C71.4804 99.0181 72.5196 99.0181 72.8907 99.7454L74.7665 103.421C74.9118 103.706 75.1844 103.904 75.5001 103.954L79.5754 104.602C80.3817 104.73 80.7028 105.719 80.1259 106.296L77.2099 109.216C76.984 109.442 76.8798 109.763 76.9296 110.078L77.5726 114.155C77.6998 114.961 76.8591 115.572 76.1314 115.202L72.4534 113.331C72.1685 113.186 71.8315 113.186 71.5466 113.331L67.8686 115.202C67.1409 115.572 66.3002 114.961 66.4274 114.155L67.0704 110.078C67.1202 109.763 67.016 109.442 66.7901 109.216L63.8741 106.296C63.2972 105.719 63.6183 104.73 64.4246 104.602L68.4999 103.954C68.8156 103.904 69.0882 103.706 69.2335 103.421L71.1093 99.7454Z"
    fill="url(#paint2_radial_9476_777)" />
  <defs>
    <radialGradient id="paint0_radial_9476_777" cx="0" cy="0" r="1" gradientUnits="userSpaceOnUse"
      gradientTransform="translate(72 53) rotate(-90) scale(53)">
      <stop stop-color="#9E9A9A" />
      <stop offset="1" stop-color="#202020" stop-opacity="0.8" />
    </radialGradient>
    <linearGradient id="paint1_linear_9476_777" x1="59.5" y1="3.29198e-07" x2="103" y2="106.5"
      gradientUnits="userSpaceOnUse">
      <stop stop-color="#7C9CB9" />
      <stop offset="1" stop-color="#294056" />
    </linearGradient>
    <radialGradient id="paint2_radial_9476_777" cx="0" cy="0" r="1" gradientUnits="userSpaceOnUse"
      gradientTransform="translate(72 106) rotate(68.9625) scale(6.96419)">
      <stop stop-color="#FFE080" />
      <stop offset="1" stop-color="#E0B42D" />
    </radialGradient>
  </defs>
</svg>
