<svg width="95" height="111" viewBox="0 0 95 111" fill="none" xmlns="http://www.w3.org/2000/svg">
  <path fill-rule="evenodd" clip-rule="evenodd"
    d="M47.5 3.03404C46.7205 3.03267 45.7768 3.02734 44.706 3.02128C37.0669 2.97807 22.9536 2.89823 15.7646 3.96276C7.74008 5.03925 5.06493 11.8381 4.73041 15.103C3.05857 22.5299 1.11924 45.9243 6.73662 72.6609C12.354 99.3975 35.7681 107.32 47.1366 107.938C58.1714 108.867 82.6461 99.3972 88.2634 72.6609C93.8808 45.9243 91.9414 22.5299 90.2696 15.103C89.9351 11.8381 87.2599 5.03925 79.2354 3.96276C72.0464 2.89823 57.9331 2.97807 50.294 3.02128C49.2232 3.02734 48.2795 3.03267 47.5 3.03404Z"
    fill="url(#paint0_radial_9476_914)" />
  <path fill-rule="evenodd" clip-rule="evenodd"
    d="M44.5381 0.0208821L44.7249 0.0219446C45.7951 0.028023 46.7295 0.0333246 47.5 0.0346973C48.2705 0.0333246 49.2049 0.028023 50.2751 0.0219446L50.4619 0.0208821C58.0151 -0.0220983 72.243 -0.103061 79.6833 0.998986C84.6264 1.67092 87.9782 4.14855 90.0848 6.9164C92.0875 9.54771 92.9989 12.4691 93.2388 14.5213C94.9891 22.5136 96.8609 46.25 91.2088 73.2615C88.2462 87.4197 80.2726 97.1003 71.5122 103.1C62.8881 109.007 53.3236 111.456 46.9129 110.931C34.6247 110.241 9.74183 101.7 3.7912 73.2615C-1.86087 46.25 0.0109278 22.5136 1.76116 14.5213C2.00107 12.4691 2.91248 9.54772 4.91519 6.9164C7.02182 4.14855 10.3737 1.67093 15.3167 0.998988C22.757 -0.10306 36.9849 -0.0220983 44.5381 0.0208821ZM44.6881 5.6136C36.9232 5.56949 23.1252 5.50088 16.2461 6.52367L16.2243 6.52692L16.2024 6.52987C13.1348 6.94306 11.1449 8.41512 9.82805 10.1453C8.45714 11.9465 7.85848 13.9913 7.73408 15.2104L7.71832 15.3648L7.68427 15.5167C6.10042 22.5814 4.15215 45.6903 9.69802 72.1942C14.9723 97.4004 36.8524 104.78 47.3133 105.351L47.3612 105.354L47.409 105.358C52.0308 105.748 60.1909 103.908 67.9421 98.5989C75.5789 93.3686 82.6483 84.8761 85.302 72.1942C90.8478 45.6903 88.8996 22.5814 87.3157 15.5167L87.2817 15.3648L87.2659 15.2104C87.1415 13.9913 86.5429 11.9465 85.172 10.1453C83.8551 8.41512 81.8652 6.94306 78.7976 6.52987L78.7757 6.52692L78.7539 6.52367C71.8748 5.50088 58.0768 5.56949 50.3119 5.6136L50.3061 5.61363C49.2399 5.61968 48.2914 5.62507 47.5057 5.62645H47.4943C46.7086 5.62507 45.7601 5.61968 44.6939 5.61363L44.6881 5.6136Z"
    fill="url(#paint1_linear_9476_914)" />
  <path
    d="M22.6209 13.6212C22.9993 12.9235 24.0007 12.9235 24.3791 13.6212L25.8103 16.2607C25.96 16.5368 26.2307 16.7266 26.5413 16.773L29.5479 17.2231C30.3734 17.3467 30.6931 18.3674 30.0857 18.9398L28.0115 20.8945C27.7686 21.1234 27.6559 21.4584 27.7111 21.7875L28.178 24.5736C28.3119 25.3723 27.4904 25.9906 26.7599 25.6408L23.9318 24.2868C23.6588 24.156 23.3412 24.156 23.0682 24.2868L20.2401 25.6408C19.5096 25.9906 18.6881 25.3723 18.822 24.5736L19.2889 21.7875C19.3441 21.4584 19.2314 21.1234 18.9885 20.8945L16.9143 18.9398C16.3069 18.3674 16.6266 17.3467 17.4521 17.2231L20.4587 16.773C20.7693 16.7266 21.04 16.5368 21.1897 16.2607L22.6209 13.6212Z"
    fill="url(#paint2_radial_9476_914)" />
  <path
    d="M39.6209 13.6212C39.9993 12.9235 41.0007 12.9235 41.3791 13.6212L42.8103 16.2607C42.96 16.5368 43.2307 16.7266 43.5413 16.773L46.5479 17.2231C47.3734 17.3467 47.6931 18.3674 47.0857 18.9398L45.0115 20.8945C44.7686 21.1234 44.6559 21.4584 44.7111 21.7875L45.178 24.5736C45.3119 25.3723 44.4904 25.9906 43.7599 25.6408L40.9318 24.2868C40.6588 24.156 40.3412 24.156 40.0682 24.2868L37.2401 25.6408C36.5096 25.9906 35.6881 25.3723 35.822 24.5736L36.2889 21.7875C36.3441 21.4584 36.2314 21.1234 35.9885 20.8945L33.9143 18.9398C33.3069 18.3674 33.6266 17.3467 34.4521 17.2231L37.4587 16.773C37.7693 16.7266 38.04 16.5368 38.1897 16.2607L39.6209 13.6212Z"
    fill="url(#paint3_radial_9476_914)" />
  <path
    d="M55.6209 13.6212C55.9993 12.9235 57.0007 12.9235 57.3791 13.6212L58.8103 16.2607C58.96 16.5368 59.2307 16.7266 59.5413 16.773L62.5479 17.2231C63.3734 17.3467 63.6931 18.3674 63.0857 18.9398L61.0115 20.8945C60.7686 21.1234 60.6559 21.4584 60.7111 21.7875L61.178 24.5736C61.3119 25.3723 60.4904 25.9906 59.7599 25.6408L56.9318 24.2868C56.6588 24.156 56.3412 24.156 56.0682 24.2868L53.2401 25.6408C52.5096 25.9906 51.6881 25.3723 51.822 24.5736L52.2889 21.7875C52.3441 21.4584 52.2314 21.1234 51.9885 20.8945L49.9143 18.9398C49.3069 18.3674 49.6266 17.3467 50.4521 17.2231L53.4587 16.773C53.7693 16.7266 54.04 16.5368 54.1897 16.2607L55.6209 13.6212Z"
    fill="url(#paint4_radial_9476_914)" />
  <path
    d="M71.6209 13.6212C71.9993 12.9235 73.0007 12.9235 73.3791 13.6212L74.8103 16.2607C74.96 16.5368 75.2307 16.7266 75.5413 16.773L78.5479 17.2231C79.3734 17.3467 79.6931 18.3674 79.0857 18.9398L77.0115 20.8945C76.7686 21.1234 76.6559 21.4584 76.7111 21.7875L77.178 24.5736C77.3119 25.3723 76.4904 25.9906 75.7599 25.6408L72.9318 24.2868C72.6588 24.156 72.3412 24.156 72.0682 24.2868L69.2401 25.6408C68.5096 25.9906 67.6881 25.3723 67.822 24.5736L68.2889 21.7875C68.3441 21.4584 68.2314 21.1234 67.9885 20.8945L65.9143 18.9398C65.3069 18.3674 65.6266 17.3467 66.4521 17.2231L69.4587 16.773C69.7693 16.7266 70.04 16.5368 70.1897 16.2607L71.6209 13.6212Z"
    fill="url(#paint5_radial_9476_914)" />
  <path d="M62.037 37.6544L70.1925 35.7137L69.6974 44.0823L43.1689 75.6978L35.5085 69.2699L62.037 37.6544Z"
    fill="#ECF8FC" />
  <path
    d="M62.3223 37.3145L67.7579 36.2816L70.1925 35.7137L66.1525 40.5284L39.3387 72.4838L35.5085 69.2699L62.3223 37.3145Z"
    fill="#9DE0F8" />
  <path
    d="M33.5797 71.568C34.2897 70.7218 35.5512 70.6115 36.3973 71.3215L40.9936 75.1782C41.8397 75.8882 41.9501 77.1497 41.2401 77.9959L34.8122 85.6563C34.1022 86.5024 32.8407 86.6128 31.9946 85.9028L27.3983 82.0461C26.5521 81.3361 26.4418 80.0746 27.1518 79.2284L33.5797 71.568Z"
    fill="#895242" />
  <path
    d="M30.7886 64.0043C31.4986 63.1581 32.7602 63.0477 33.6063 63.7577L48.9272 76.6135C49.7733 77.3235 49.8837 78.585 49.1737 79.4312L47.8881 80.9632C47.1781 81.8094 45.9166 81.9198 45.0705 81.2098L29.7496 68.354C28.9034 67.644 28.7931 66.3825 29.5031 65.5363L30.7886 64.0043Z"
    fill="#EBC659" />
  <defs>
    <radialGradient id="paint0_radial_9476_914" cx="0" cy="0" r="1" gradientUnits="userSpaceOnUse"
      gradientTransform="translate(48 55.7537) rotate(90) scale(78.2185 66.2995)">
      <stop stop-color="#FA8A79" />
      <stop offset="1" stop-color="#B74B39" />
    </radialGradient>
    <linearGradient id="paint1_linear_9476_914" x1="45.7416" y1="-3.73484" x2="46.6093" y2="112.046"
      gradientUnits="userSpaceOnUse">
      <stop stop-color="#FCE59B" />
      <stop offset="0.998879" stop-color="#D09928" />
    </linearGradient>
    <radialGradient id="paint2_radial_9476_914" cx="0" cy="0" r="1" gradientUnits="userSpaceOnUse"
      gradientTransform="translate(23.5 20) rotate(90) scale(8 8.5)">
      <stop stop-color="#FEFC8C" />
      <stop offset="1" stop-color="#E4E04D" />
    </radialGradient>
    <radialGradient id="paint3_radial_9476_914" cx="0" cy="0" r="1" gradientUnits="userSpaceOnUse"
      gradientTransform="translate(40.5 20) rotate(90) scale(8 8.5)">
      <stop stop-color="#FEFC8C" />
      <stop offset="1" stop-color="#E4E04D" />
    </radialGradient>
    <radialGradient id="paint4_radial_9476_914" cx="0" cy="0" r="1" gradientUnits="userSpaceOnUse"
      gradientTransform="translate(56.5 20) rotate(90) scale(8 8.5)">
      <stop stop-color="#FEFC8C" />
      <stop offset="1" stop-color="#E4E04D" />
    </radialGradient>
    <radialGradient id="paint5_radial_9476_914" cx="0" cy="0" r="1" gradientUnits="userSpaceOnUse"
      gradientTransform="translate(72.5 20) rotate(90) scale(8 8.5)">
      <stop stop-color="#FEFC8C" />
      <stop offset="1" stop-color="#E4E04D" />
    </radialGradient>
  </defs>
</svg>
