<svg id="图层_1" data-name="图层 1" xmlns="http://www.w3.org/2000/svg" xmlns:xlink="http://www.w3.org/1999/xlink" viewBox="0 0 95.48 91.01"><defs><style>.cls-1,.cls-19{fill:#edecec;}.cls-2,.cls-52{fill:#586efd;}.cls-2{opacity:0.05;}.cls-3,.cls-43{opacity:0.21;}.cls-3{fill:url(#未命名的渐变_16);}.cls-4,.cls-44{opacity:0.37;}.cls-4{fill:url(#未命名的渐变_15);}.cls-45,.cls-5{opacity:0.53;}.cls-5{fill:url(#未命名的渐变_14);}.cls-46,.cls-6{opacity:0.68;}.cls-6{fill:url(#未命名的渐变_13);}.cls-47,.cls-7{opacity:0.84;}.cls-7{fill:url(#未命名的渐变_12);}.cls-8{fill:url(#GradientFill_12);}.cls-12,.cls-13,.cls-14,.cls-15,.cls-16,.cls-17,.cls-18,.cls-19,.cls-20,.cls-21,.cls-22,.cls-24,.cls-25,.cls-26,.cls-27,.cls-28,.cls-29,.cls-30,.cls-31,.cls-32,.cls-33,.cls-34,.cls-35,.cls-36,.cls-37,.cls-40,.cls-41,.cls-42,.cls-49,.cls-50,.cls-52,.cls-9{fill-rule:evenodd;}.cls-9{fill:url(#GradientFill_11);}.cls-10{fill:url(#GradientFill_12-2);}.cls-11{fill:#fd6131;}.cls-11,.cls-38,.cls-50,.cls-51{opacity:0.5;}.cls-12{fill:#fde889;}.cls-13{fill:#e9910b;}.cls-14{fill:#fff;}.cls-15{fill:#37dde8;opacity:0.84;}.cls-16{fill:#34415e;}.cls-17,.cls-23{fill:#232344;}.cls-18{fill:#979ed4;}.cls-20{fill:#8585ca;}.cls-21{fill:#bbb8bb;}.cls-22{fill:#6969b2;}.cls-24{fill:#abbae0;}.cls-25{fill:#d4d5e9;}.cls-26{fill:#d6d4d6;}.cls-27{fill:#807c7f;}.cls-28{fill:#475053;}.cls-29{fill:#19a6bc;}.cls-30{fill:#5fd8eb;}.cls-31{fill:#807dc7;}.cls-32{fill:#bdbcbc;}.cls-33{fill:#b1c3e5;}.cls-34{fill:#6e65bc;}.cls-35{fill:#dadada;}.cls-36{fill:#4938b2;}.cls-37{fill:url(#linear-gradient);}.cls-39{fill:#fafafa;}.cls-40{fill:#afc0e3;}.cls-41{fill:#7872c2;}.cls-42{fill:#e5e3e4;}.cls-43{fill:#4d84f9;}.cls-44{fill:#439af4;}.cls-45{fill:#39b0f0;}.cls-46{fill:#2ec6ec;}.cls-47{fill:#24dce7;}.cls-48,.cls-50,.cls-51{fill:#19f2e3;}.cls-49{fill:url(#radial-gradient);}</style><radialGradient id="未命名的渐变_16" cx="98.34" cy="61.44" r="16.24" gradientTransform="matrix(0.96, 0.08, -0.25, 0.68, -61.46, -31.72)" gradientUnits="userSpaceOnUse"><stop offset="0" stop-color="#7486fd"/><stop offset="0.38" stop-color="#737ed3"/><stop offset="1" stop-color="#6f5dd6"/></radialGradient><radialGradient id="未命名的渐变_15" cx="232.23" cy="237.84" r="26.88" gradientTransform="matrix(0.92, -0.19, -0.25, 0.41, -136.78, -37.65)" gradientUnits="userSpaceOnUse"><stop offset="0" stop-color="#909efe"/><stop offset="0.38" stop-color="#8e8ea9"/><stop offset="1" stop-color="#864baf"/></radialGradient><radialGradient id="未命名的渐变_14" cx="17.21" cy="17.31" r="11.3" gradientTransform="matrix(0.47, 0.8, -0.19, -0.32, 45.39, -215.55)" gradientUnits="userSpaceOnUse"><stop offset="0" stop-color="#acb7fe"/><stop offset="0.38" stop-color="#aa9e7f"/><stop offset="1" stop-color="#9d3a88"/></radialGradient><radialGradient id="未命名的渐变_13" cx="25.16" cy="-598.94" r="23.66" gradientTransform="matrix(0.71, 0.61, -0.01, -0.48, -9.47, -287.2)" gradientUnits="userSpaceOnUse"><stop offset="0" stop-color="#c7cffe"/><stop offset="0.38" stop-color="#c5ae54"/><stop offset="1" stop-color="#b32960"/></radialGradient><radialGradient id="未命名的渐变_12" cx="159.06" cy="-422.51" r="12.57" gradientTransform="matrix(0.87, 0.41, 0.11, -0.71, -73.22, -348.5)" gradientUnits="userSpaceOnUse"><stop offset="0" stop-color="#e3e7ff"/><stop offset="0.38" stop-color="#e0be2a"/><stop offset="1" stop-color="#ca1739"/></radialGradient><radialGradient id="GradientFill_12" cx="240.2" cy="-378.28" r="9.14" gradientTransform="matrix(0.98, 0.22, 0.22, -0.98, -134.93, -404.05)" gradientUnits="userSpaceOnUse"><stop offset="0" stop-color="#fff"/><stop offset="0.38" stop-color="#fbce00"/><stop offset="1" stop-color="#e10612"/></radialGradient><radialGradient id="GradientFill_11" cx="240.34" cy="-378.33" r="14.07" gradientTransform="matrix(0.73, -0.69, -0.69, -0.73, -417.44, -91.48)" gradientUnits="userSpaceOnUse"><stop offset="0" stop-color="#ec7d00"/><stop offset="0.56" stop-color="#ec7d00"/><stop offset="0.71" stop-color="#c02821"/><stop offset="1" stop-color="#c02821"/></radialGradient><radialGradient id="GradientFill_12-2" cx="240.2" cy="-378.31" r="10.58" gradientTransform="matrix(0.71, 0.71, 0.71, -0.71, 114.8, -419.93)" xlink:href="#GradientFill_12"/><linearGradient id="linear-gradient" x1="-172.37" y1="13.06" x2="-149.83" y2="52.11" gradientTransform="matrix(-1, 0, 0, 1, -118.56, 0)" gradientUnits="userSpaceOnUse"><stop offset="0" stop-color="#9cdfe0"/><stop offset="0.15" stop-color="#6569b3"/><stop offset="0.4" stop-color="#6254b5"/><stop offset="0.71" stop-color="#b9cee9"/><stop offset="1" stop-color="#ecdce9"/></linearGradient><radialGradient id="radial-gradient" cx="-196.58" cy="41.38" r="10.77" gradientTransform="matrix(-1, 0, 0, 1, -118.56, 0)" gradientUnits="userSpaceOnUse"><stop offset="0" stop-color="#47e0fd"/><stop offset="0.8" stop-color="#0279d5"/><stop offset="1" stop-color="#22b2d2"/></radialGradient></defs><path class="cls-1" d="M41.41,18.09a.16.16,0,0,1-.22,0,.16.16,0,0,1,0-.22.16.16,0,0,1,.22,0A.16.16,0,0,1,41.41,18.09Z" transform="translate(-0.8 -2.45)"/><path class="cls-1" d="M60.58,25a.15.15,0,0,1-.22,0,.16.16,0,0,1,0-.22.15.15,0,0,1,.22-.05A.16.16,0,0,1,60.58,25Z" transform="translate(-0.8 -2.45)"/><path class="cls-1" d="M51.23,20.5a.16.16,0,1,1,0-.22A.15.15,0,0,1,51.23,20.5Z" transform="translate(-0.8 -2.45)"/><path class="cls-1" d="M48.13,12.27a.16.16,0,0,1-.22,0,.15.15,0,0,1,0-.22.16.16,0,0,1,.22,0A.15.15,0,0,1,48.13,12.27Z" transform="translate(-0.8 -2.45)"/><path class="cls-1" d="M58.52,12.16a.16.16,0,1,1-.05-.22A.15.15,0,0,1,58.52,12.16Z" transform="translate(-0.8 -2.45)"/><path class="cls-1" d="M74.69,52.64a.16.16,0,0,1,.22,0,.17.17,0,0,1,0,.22.16.16,0,0,1-.22,0A.15.15,0,0,1,74.69,52.64Z" transform="translate(-0.8 -2.45)"/><path class="cls-1" d="M83.63,71.94a.16.16,0,0,1,.22,0,.15.15,0,0,1,.05.22.17.17,0,0,1-.22,0A.16.16,0,0,1,83.63,71.94Z" transform="translate(-0.8 -2.45)"/><path class="cls-1" d="M65.9,67.05a.16.16,0,0,1,.22,0,.15.15,0,0,1,0,.22.16.16,0,0,1-.22,0A.15.15,0,0,1,65.9,67.05Z" transform="translate(-0.8 -2.45)"/><path class="cls-1" d="M63.14,59.77a.16.16,0,1,1,.26.18.16.16,0,1,1-.26-.18Z" transform="translate(-0.8 -2.45)"/><path class="cls-1" d="M50.54,72.05a.16.16,0,0,1,.27.17.17.17,0,0,1-.22,0A.15.15,0,0,1,50.54,72.05Z" transform="translate(-0.8 -2.45)"/><path class="cls-1" d="M56.45,63.58a.16.16,0,0,1,.22,0,.15.15,0,0,1,0,.22.16.16,0,0,1-.22,0A.15.15,0,0,1,56.45,63.58Z" transform="translate(-0.8 -2.45)"/><path class="cls-1" d="M41.11,68.72a.15.15,0,0,1,.22,0,.16.16,0,0,1,0,.22.15.15,0,0,1-.22,0A.16.16,0,0,1,41.11,68.72Z" transform="translate(-0.8 -2.45)"/><path class="cls-1" d="M52.26,47.34a.16.16,0,0,1,.22,0,.16.16,0,0,1,.05.22.16.16,0,0,1-.22,0A.15.15,0,0,1,52.26,47.34Z" transform="translate(-0.8 -2.45)"/><circle class="cls-1" cx="74.23" cy="20.07" r="0.16"/><path class="cls-1" d="M52.29,37.45a.16.16,0,0,1,.22,0,.15.15,0,0,1,.05.22.16.16,0,0,1-.22,0A.15.15,0,0,1,52.29,37.45Z" transform="translate(-0.8 -2.45)"/><path class="cls-1" d="M47.42,33.47a.16.16,0,0,1,.22,0,.17.17,0,0,1,0,.22.18.18,0,0,1-.23.05A.17.17,0,0,1,47.42,33.47Z" transform="translate(-0.8 -2.45)"/><path class="cls-1" d="M44.76,26.35a.16.16,0,1,1,.05.22A.15.15,0,0,1,44.76,26.35Z" transform="translate(-0.8 -2.45)"/><path class="cls-1" d="M62.47,16.4a.16.16,0,0,1,.22,0,.17.17,0,0,1,.05.22.17.17,0,0,1-.23,0A.16.16,0,0,1,62.47,16.4Z" transform="translate(-0.8 -2.45)"/><path class="cls-1" d="M62.12,51.76a.15.15,0,0,1,.22,0,.16.16,0,0,1,0,.22.15.15,0,0,1-.22,0A.16.16,0,0,1,62.12,51.76Z" transform="translate(-0.8 -2.45)"/><path class="cls-1" d="M54.5,57.4a.16.16,0,0,1,.22,0,.15.15,0,0,1,.05.22.16.16,0,0,1-.22,0A.16.16,0,0,1,54.5,57.4Z" transform="translate(-0.8 -2.45)"/><path class="cls-1" d="M47.3,65.32a.15.15,0,0,1,.22,0,.16.16,0,0,1,0,.22.15.15,0,0,1-.22.05A.16.16,0,0,1,47.3,65.32Z" transform="translate(-0.8 -2.45)"/><path class="cls-1" d="M42.48,38.65a.16.16,0,0,1,.22,0,.15.15,0,0,1,0,.22.16.16,0,0,1-.22,0A.15.15,0,0,1,42.48,38.65Z" transform="translate(-0.8 -2.45)"/><path class="cls-1" d="M72.93,33.42a.16.16,0,0,1,.22,0,.16.16,0,1,1-.18.26A.16.16,0,0,1,72.93,33.42Z" transform="translate(-0.8 -2.45)"/><path class="cls-1" d="M59.32,33.19a.16.16,0,1,1,0,.22A.15.15,0,0,1,59.32,33.19Z" transform="translate(-0.8 -2.45)"/><path class="cls-1" d="M63,45.43a.16.16,0,1,1,0,.22A.15.15,0,0,1,63,45.43Z" transform="translate(-0.8 -2.45)"/><path class="cls-1" d="M57.79,72.78a.16.16,0,0,1,.22,0,.15.15,0,0,1,.05.22.16.16,0,0,1-.22,0A.15.15,0,0,1,57.79,72.78Z" transform="translate(-0.8 -2.45)"/><path class="cls-1" d="M40.68,60.3a.15.15,0,0,1,.22,0,.16.16,0,0,1,0,.22.17.17,0,0,1-.22.05A.16.16,0,0,1,40.68,60.3Z" transform="translate(-0.8 -2.45)"/><path class="cls-1" d="M47,53.58a.15.15,0,0,1,.22,0,.16.16,0,0,1,0,.22.15.15,0,0,1-.22,0A.16.16,0,0,1,47,53.58Z" transform="translate(-0.8 -2.45)"/><path class="cls-1" d="M45.83,46.22a.16.16,0,0,1,.22,0,.16.16,0,0,1,0,.22.17.17,0,0,1-.22.05A.17.17,0,0,1,45.83,46.22Z" transform="translate(-0.8 -2.45)"/><path class="cls-1" d="M47.15,76.68a.16.16,0,0,1,.22,0,.15.15,0,0,1,.05.22.16.16,0,0,1-.22,0A.17.17,0,0,1,47.15,76.68Z" transform="translate(-0.8 -2.45)"/><path class="cls-1" d="M54.35,82.66a.15.15,0,0,1,.22,0,.16.16,0,0,1,0,.22.17.17,0,0,1-.23,0A.16.16,0,0,1,54.35,82.66Z" transform="translate(-0.8 -2.45)"/><path class="cls-1" d="M79.86,83.63a.18.18,0,0,1,.23,0,.16.16,0,0,1,0,.23.17.17,0,0,1-.22,0A.17.17,0,0,1,79.86,83.63Z" transform="translate(-0.8 -2.45)"/><path class="cls-1" d="M42.91,82.69a.16.16,0,0,1,.23,0,.16.16,0,0,1-.2.24A.16.16,0,0,1,42.91,82.69Z" transform="translate(-0.8 -2.45)"/><path class="cls-1" d="M63.42,78.94a.16.16,0,0,1,.23,0,.15.15,0,0,1,0,.22.16.16,0,0,1-.22,0A.17.17,0,0,1,63.42,78.94Z" transform="translate(-0.8 -2.45)"/><path class="cls-1" d="M71.06,83.28a.15.15,0,0,1,.22,0,.17.17,0,0,1,0,.22.16.16,0,0,1-.23,0A.16.16,0,0,1,71.06,83.28Z" transform="translate(-0.8 -2.45)"/><path class="cls-1" d="M93.31,71.72a.16.16,0,0,1,.22,0,.15.15,0,0,1,0,.22.16.16,0,0,1-.22,0A.15.15,0,0,1,93.31,71.72Z" transform="translate(-0.8 -2.45)"/><path class="cls-1" d="M93.73,81.76a.15.15,0,0,1,.22-.05.16.16,0,0,1,0,.22.15.15,0,0,1-.22,0A.16.16,0,0,1,93.73,81.76Z" transform="translate(-0.8 -2.45)"/><path class="cls-1" d="M85.64,81.48a.16.16,0,1,1,0,.22A.15.15,0,0,1,85.64,81.48Z" transform="translate(-0.8 -2.45)"/><path class="cls-1" d="M68.65,40.46a.16.16,0,0,1-.22,0,.17.17,0,0,1-.05-.22.18.18,0,0,1,.23-.05A.17.17,0,0,1,68.65,40.46Z" transform="translate(-0.8 -2.45)"/><path class="cls-1" d="M70.13,13.24a.16.16,0,0,1-.22,0,.17.17,0,0,1,0-.22.16.16,0,0,1,.23-.05A.16.16,0,0,1,70.13,13.24Z" transform="translate(-0.8 -2.45)"/><path class="cls-1" d="M70,28.14a.18.18,0,0,1-.23.05.16.16,0,0,1,0-.22.15.15,0,0,1,.22,0A.17.17,0,0,1,70,28.14Z" transform="translate(-0.8 -2.45)"/><path class="cls-1" d="M87.91,11.46a.16.16,0,0,1-.22,0,.16.16,0,0,1,0-.22.17.17,0,0,1,.22,0A.17.17,0,0,1,87.91,11.46Z" transform="translate(-0.8 -2.45)"/><path class="cls-1" d="M76.43,30.1a.17.17,0,0,1-.22,0,.16.16,0,0,1,0-.22.15.15,0,0,1,.22-.05A.16.16,0,0,1,76.43,30.1Z" transform="translate(-0.8 -2.45)"/><path class="cls-1" d="M90.71,18.51a.16.16,0,1,1,0-.22A.17.17,0,0,1,90.71,18.51Z" transform="translate(-0.8 -2.45)"/><path class="cls-1" d="M84.79,27a.15.15,0,0,1-.22.05.16.16,0,0,1,0-.22.15.15,0,0,1,.22-.05A.16.16,0,0,1,84.79,27Z" transform="translate(-0.8 -2.45)"/><path class="cls-1" d="M89,43.22a.16.16,0,0,1-.22,0,.15.15,0,0,1,0-.22.16.16,0,1,1,.27.18Z" transform="translate(-0.8 -2.45)"/><path class="cls-1" d="M74.87,68.31a.16.16,0,1,1-.05-.22A.15.15,0,0,1,74.87,68.31Z" transform="translate(-0.8 -2.45)"/><path class="cls-1" d="M89,53.11a.17.17,0,0,1-.23,0,.16.16,0,0,1,0-.22.17.17,0,0,1,.22,0A.18.18,0,0,1,89,53.11Z" transform="translate(-0.8 -2.45)"/><path class="cls-1" d="M93.22,58.2a.15.15,0,0,1-.22,0A.16.16,0,0,1,93,58a.17.17,0,0,1,.22-.05A.16.16,0,0,1,93.22,58.2Z" transform="translate(-0.8 -2.45)"/><path class="cls-1" d="M88.36,64.76a.17.17,0,0,1-.23,0,.16.16,0,1,1,.18-.26A.17.17,0,0,1,88.36,64.76Z" transform="translate(-0.8 -2.45)"/><path class="cls-1" d="M73.63,76.15a.16.16,0,0,1-.22,0,.15.15,0,0,1,0-.22.16.16,0,0,1,.22,0A.15.15,0,0,1,73.63,76.15Z" transform="translate(-0.8 -2.45)"/><path class="cls-1" d="M79.13,38.8a.16.16,0,0,1-.22,0,.17.17,0,0,1,0-.22.17.17,0,0,1,.23,0A.16.16,0,0,1,79.13,38.8Z" transform="translate(-0.8 -2.45)"/><path class="cls-1" d="M86.74,33.15a.15.15,0,0,1-.22.05.16.16,0,1,1,.22-.05Z" transform="translate(-0.8 -2.45)"/><path class="cls-1" d="M94,25.24a.16.16,0,0,1-.22,0,.17.17,0,0,1,0-.22.17.17,0,0,1,.23,0A.16.16,0,0,1,94,25.24Z" transform="translate(-0.8 -2.45)"/><path class="cls-1" d="M75.35,61.17a.15.15,0,0,1-.22,0,.16.16,0,0,1,0-.22.15.15,0,0,1,.22,0A.16.16,0,0,1,75.35,61.17Z" transform="translate(-0.8 -2.45)"/><path class="cls-1" d="M68.32,57.13a.16.16,0,0,1-.27-.17.16.16,0,0,1,.22-.05A.15.15,0,0,1,68.32,57.13Z" transform="translate(-0.8 -2.45)"/><path class="cls-1" d="M81.92,57.37a.17.17,0,0,1-.22.05.16.16,0,0,1,0-.22.15.15,0,0,1,.22-.05A.16.16,0,0,1,81.92,57.37Z" transform="translate(-0.8 -2.45)"/><path class="cls-1" d="M78.94,46.62a.16.16,0,0,1-.27-.17.16.16,0,1,1,.27.17Z" transform="translate(-0.8 -2.45)"/><path class="cls-1" d="M83.45,17.78a.16.16,0,0,1-.22,0,.16.16,0,0,1,.18-.26A.16.16,0,0,1,83.45,17.78Z" transform="translate(-0.8 -2.45)"/><path class="cls-1" d="M94.21,37A.16.16,0,0,1,94,37a.15.15,0,0,1,0-.22.16.16,0,0,1,.22,0A.15.15,0,0,1,94.21,37Z" transform="translate(-0.8 -2.45)"/><path class="cls-1" d="M94.79,47.79a.16.16,0,0,1-.22,0,.15.15,0,0,1,0-.22.16.16,0,0,1,.22,0A.15.15,0,0,1,94.79,47.79Z" transform="translate(-0.8 -2.45)"/><path class="cls-1" d="M96.25,13A.17.17,0,0,1,96,13a.16.16,0,0,1,0-.23.15.15,0,0,1,.22,0A.16.16,0,0,1,96.25,13Z" transform="translate(-0.8 -2.45)"/><path class="cls-1" d="M77.29,15.91a.16.16,0,1,1,0-.22A.15.15,0,0,1,77.29,15.91Z" transform="translate(-0.8 -2.45)"/><circle class="cls-2" cx="17.21" cy="17.21" r="13.46" transform="translate(-5.13 3.43) rotate(-17.26)"/><circle class="cls-3" cx="17.21" cy="17.24" r="12.74" transform="translate(-3.86 1.28) rotate(-11.37)"/><circle class="cls-4" cx="17.21" cy="17.28" r="12.02" transform="translate(-1.58 -1.64) rotate(-2.64)"/><circle class="cls-5" cx="17.21" cy="17.31" r="11.3" transform="translate(-3.3 29.25) rotate(-81.31)"/><circle class="cls-6" cx="17.21" cy="17.34" r="10.58" transform="translate(-5.75 25.19) rotate(-70.15)"/><circle class="cls-7" cx="17.21" cy="17.38" r="9.86" transform="translate(-7.04 21.85) rotate(-61.74)"/><circle class="cls-8" cx="17.21" cy="17.41" r="9.13" transform="translate(-7.64 19.53) rotate(-56.09)"/><path class="cls-9" d="M23.07,23.6l.24.24a.85.85,0,0,0,0-.53c-.21-.29-.47-.13-.51-.58a.65.65,0,0,0,0-.18c.26,0,.18.26.42.39s.66-.15.77-.05c-.14-.3-.5-.08-.61-.21s-.05-.36-.12-.49a.4.4,0,0,1,.16.12c.34.46.45.08.87.33.12.07.17.25.23.42.37,1,1.61-.23.7-.65.71.55-.31,1.19-.48.62-.07-.21-.08-.46-.23-.61-.33-.33-.56-.13-.76-.66l0-.08c.25.06.38-.11.6-.06a.8.8,0,0,1,.57.33c0-.3-.27-.43-.51-.57s-.36-.15-.48-.38c.24,0,.22.21.48.28S24.9,21,25,21c-.22-.26-.51.05-.65-.05s-.14-.29-.2-.4l0,0c.33.29.38-.08.75,0,.19,0,.19.47.56.46-.16,0-.15-.58-.4-.73s-.47.07-.69-.33l0,0c.3,0,.37-.19.62-.2s.6.06.62.33a.19.19,0,0,1-.26.2h0a.23.23,0,0,0,.3-.24c0-.35-.43-.46-.7-.54s-.41-.06-.6-.29c.18,0,.23.15.46.15s.48-.41.61-.37c-.25-.19-.45.14-.59.09s-.2-.24-.29-.33a.34.34,0,0,1,.15,0c.39.2.35-.17.73-.18.2,0,.29.41.66.32-.17,0-.3-.54-.56-.62s-.43.13-.68-.07c.42,0,.44-.33.74-.42a1,1,0,0,1,.78,0c-.21-.3-.52-.3-.86-.31s-.46,0-.71-.12c.11,0,.21.1.39.06s.39-.56.54-.56c-.31-.13-.43.28-.6.26S25,17,24.84,17h.05c.43.1.3-.25.67-.35.11,0,.23.07.35.15a.61.61,0,0,0,.79-.06.62.62,0,0,0,.05-.86l-.06-.05h0a.53.53,0,0,1,0,.72.49.49,0,0,1-.64.08c-.14-.12-.28-.29-.44-.3-.36,0-.39.29-.77,0h0c.27-.12.24-.34.44-.47a.83.83,0,0,1,.65-.13.79.79,0,0,0-.76-.08c-.28,0-.37.13-.62,0,.17-.18.31,0,.55-.12s.25-.63.39-.67c-.33-.05-.35.37-.52.39s-.3-.11-.42-.16h.05c.44,0,.23-.31.56-.5.17-.09.46.23.73,0-.15.07-.51-.33-.78-.27s-.31.37-.74.22h0c.23-.18.14-.39.32-.56a.84.84,0,0,1,.59-.28c-.27-.14-.5,0-.76.1s-.33.22-.58.19c.12-.21.3-.07.5-.24s.08-.68.22-.75c-.34,0-.25.45-.41.51s-.33,0-.45-.06l0,0c.42-.11.15-.36.43-.62s.49.11.7-.2c-.13.1-.57-.2-.83-.08s-.21.43-.66.39h0c.18-.23.05-.41.18-.62a.84.84,0,0,1,.5-.42c-.29-.07-.48.11-.7.28s-.27.3-.53.33c.07-.23.28-.14.43-.36s-.08-.67,0-.77c-.32.11-.13.49-.27.59s-.33,0-.45.05l0,0c.38-.21.05-.39.26-.71.11-.16.51,0,.63-.36-.1.13-.6-.06-.82.12s-.1.47-.55.54h0c.11-.27-.06-.41,0-.65a.81.81,0,0,1,.39-.53c-.31,0-.45.23-.62.45s-.19.35-.43.44c0-.24.23-.2.33-.45s-.24-.63-.16-.76c-.28.19,0,.51-.12.64s-.31.12-.42.16l0,0c.32-.3,0-.4.09-.76a2.46,2.46,0,0,0,1-1.45c-.5,1-.84.66-1.26,1.26-.2.3,0,.49-.4.67h0c.05-.3-.15-.39-.14-.64a.84.84,0,0,1,.25-.6c-.29.07-.38.32-.49.58s-.1.38-.31.53c-.05-.24.18-.25.21-.52s-.38-.55-.33-.69c-.23.25.11.49,0,.64s-.26.19-.36.26a.25.25,0,0,1,0-.13c.27-.41-.14-.42-.11-.84,0-.22.5-.28.43-.7,0,.19-.62.27-.75.56s.15.52-.25.82c-.06-.18-.22-.25-.26-.45a.86.86,0,0,1,.1-.65c-.27.15-.29.41-.34.69s0,.39-.17.59c-.1-.22.11-.29.08-.56s-.51-.44-.5-.59c-.16.3.23.45.19.62s-.21.24-.29.34a.09.09,0,0,1,0-.05c.14-.41-.22-.32-.28-.7,0-.19.37-.35.22-.7,0,.17-.49.37-.53.65s.24.42,0,.77l0,0c-.09-.28-.31-.27-.41-.49a.81.81,0,0,1-.07-.66c-.22.21-.18.47-.16.75s.09.38,0,.61c-.16-.18,0-.3-.06-.55s-.6-.31-.62-.46c-.09.33.33.39.33.56s-.15.29-.2.4a.09.09,0,0,1,0-.05c0-.43-.29-.26-.44-.61,0-.08,0-.17.06-.27h0a.63.63,0,0,0-1-.76.43.43,0,0,0,0,.07h0A.53.53,0,0,1,15,8.25c.54.43-.11.68-.08,1.08s.34.35.15.76v0c-.16-.25-.37-.19-.52-.38a.81.81,0,0,1-.23-.61c-.16.25-.06.49,0,.76s.18.35.13.6c-.2-.14,0-.31-.2-.53s-.66-.15-.71-.29c0,.34.41.3.46.46s-.08.32-.1.44l0,0c-.07-.44-.35-.19-.58-.49s.17-.48-.12-.72c.08.14-.26.55-.17.81s.41.26.32.71v0c-.21-.2-.41-.09-.6-.24a.82.82,0,0,1-.36-.55c-.1.29.05.5.21.74s.26.29.27.55c-.23-.09-.12-.29-.32-.47s-.68,0-.76-.11c.07.33.47.19.55.34s0,.32,0,.45a.28.28,0,0,1-.07-.09c-.21-.45-.42-.13-.75-.41-.17-.14-.05-.89-1-1.22a1.68,1.68,0,0,1,.71,1.31l.27.28a.53.53,0,0,1,.3.32l.35.36c.12-.15.25-.15.42-.29a.53.53,0,0,1,.05.29c-.06.23,0,0,.13-.09s.18-.21.28-.29a.25.25,0,0,0,.3-.1c.13-.2,0,0,.21-.2s.14,0-.11,0c-.07,0,.07-.15.09-.26h0c.18-.17.31-.13.53-.24a.53.53,0,0,1,0,.29c-.11.21,0,0,.15-.06s.23-.16.34-.22a.23.23,0,0,0,.31,0c.19-.16,0,0,.26-.14s.16,0-.09-.07c-.07,0,.1-.13.15-.23h0c.21-.12.33-.06.57-.1a.41.41,0,0,1-.1.26c-.16.18.05,0,.17,0s.25-.1.38-.13a.25.25,0,0,0,.3.06c.22-.12.05,0,.29-.08s.15,0-.07-.1c-.07,0,.12-.1.2-.18h0c.24-.06.33,0,.58,0a.56.56,0,0,1-.16.24c-.2.13,0,0,.16,0s.28,0,.4,0a.26.26,0,0,0,.29.13c.24-.06,0,0,.29,0s.14.06-.05-.11.26-.07.29-.18h0a2.24,2.24,0,0,1,.54.2h0a.39.39,0,0,1-.22.23c-.23.09,0,0,.15.06s.27,0,.4.07a.24.24,0,0,0,.24.2c.25,0,.05,0,.29.06s.12.09,0-.12.16,0,.26-.07h0c.24.06.29.18.49.31a.48.48,0,0,1-.24.13c-.24,0,0,0,.13.1s.26.1.37.16a.23.23,0,0,0,.19.24c.24.06.05,0,.26.14s.1.11,0-.12c0-.07.16,0,.27,0h0c.22.12.23.25.4.42a.39.39,0,0,1-.27.07c-.24,0,0,0,.11.13s.22.16.32.24a.25.25,0,0,0,.12.29c.22.11,0,0,.22.19s.07.14,0-.11c0-.08.15.05.27.06h0c.19.17.17.3.29.51a.53.53,0,0,1-.28,0c-.22-.09,0,0,.07.15s.18.21.25.31a.26.26,0,0,0,.05.31c.19.16.05,0,.17.24s0,.15.07-.1c0-.07.13.08.24.13h0c.14.2.09.33.16.56a.45.45,0,0,1-.27-.07c-.2-.14,0,.05,0,.16s.13.25.17.37a.24.24,0,0,0,0,.31c.14.21,0,0,.11.27s0,.16.09-.08c0-.07.11.12.2.18v0c.08.23,0,.34,0,.58a.43.43,0,0,1-.25-.13c-.16-.18,0,0,0,.16s.06.28.08.4a.29.29,0,0,0-.05.29c.11.28,0,0,.05.35,0,.14-.05.17.12-.07,0,0,.06,0,.09.09a.2.2,0,0,0,0,.12c0,.24-.08.33-.13.57v0a.37.37,0,0,1-.25-.18c-.1-.2,0,0,0,.14s0,.28,0,.41a.21.21,0,0,0-.12.24c0,.25,0,.05,0,.29s-.07.13.12,0,0,.15.09.26h0c0,.25-.15.31-.26.53a.48.48,0,0,1-.15-.24c-.05-.23,0,0-.09.14s-.07.27-.12.39a.23.23,0,0,0-.22.21c0,.25,0,.06-.11.28s-.1.11.12,0,0,.17,0,.28h0c-.07.26-.21.27-.36.47l0,0a.45.45,0,0,1-.09-.25c0-.24,0,0-.11.11s-.15.33-.35.48,0,.18.12.19a.7.7,0,0,1-.23.2l.65.69a.21.21,0,0,1,.1.06.17.17,0,0,1,.06.11Zm-1-1.1Zm1.3,1.64c0-.05,0-.16,0-.3l-.24-.24c0,.16,0,.43.26.54Zm-.42-.71c-.25-.11-.42.1-.59-.26l0,0c0,.12-.09.26,0,.45s.48,0,.57.31c-.09-.12-.58.08-.77-.08s-.1-.38-.35-.46c0,.29.07.31.21.51s.25.33.18.54a.6.6,0,0,0-.29-.39c-.17-.13-.34,0-.55-.28a1,1,0,0,1,0,.17c-.07.44.22.35.34.69s-.22.68-.13.82c-.3-.23,0-.57-.16-.72s-.51,0-.59-.47c0,0,0,0,0,0s-.15.24-.09.44.47.11.47.45c-.06-.14-.58-.07-.72-.27s0-.38-.21-.52c0,.25,0,.33.15.6s.21.5.05.76a.81.81,0,0,0-.25-.61c-.14-.17-.32-.13-.48-.3,0,0,0,0,0,.05-.19.47.14.45.19.84s-.43.68-.37.86c-.26-.33.12-.62,0-.82-.18-.39-.54-.18-.52-.67a.15.15,0,0,0,0-.09.49.49,0,0,0-.14.34c0,.17.42.22.35.55,0-.15-.55-.21-.64-.44s.08-.37-.08-.55c-.1.23,0,.33,0,.61a.8.8,0,0,1-.13.75.81.81,0,0,0-.09-.65c-.11-.21-.33-.2-.44-.47h0c-.27.37,0,.42,0,.78s-.52.49-.5.66c-.16-.34.23-.51.2-.7-.08-.38-.43-.28-.31-.7a.06.06,0,0,0,0,0c-.08.09-.24.14-.28.35s.36.31.21.61c0-.15-.48-.33-.52-.58s.18-.34.06-.55a1,1,0,0,0-.23.78c.1.53.13,1.07-.82,2,.64-1,.66-1.22.58-1.8,0-.24-.19-.59-.22-.88h0c-.35.29-.08.42-.2.75s-.63.35-.66.52c-.07-.37.36-.44.37-.63,0-.39-.35-.38-.13-.75a.24.24,0,0,0,0-.17c-.08.08-.25.07-.34.26s.25.35.05.58c0-.13-.34-.4-.32-.62s.19-.25.18-.42c-.25.18-.22.29-.33.58s-.18.51-.47.6a.81.81,0,0,0,.22-.62c0-.24-.19-.33-.16-.62h0c-.41.19-.17.38-.37.67s-.7.19-.76.35c0-.38.45-.34.5-.53.12-.37-.25-.45.06-.76l0,0c-.12.05-.28,0-.41.18s.17.44-.11.64c.08-.13-.27-.52-.18-.76s.31-.22.31-.46c-.23.1-.25.22-.41.46s-.3.45-.6.47a.87.87,0,0,0,.37-.55c.06-.23-.11-.37,0-.64h0c-.44.09-.26.33-.53.57s-.89.06-.73.57c.06.19.35.18.57,0h0l-.06.05c-.26.2-.57.16-.66,0a.49.49,0,0,1,.12-.58c.32-.35.46-.1.56-.27.2-.33-.14-.49.24-.72l0,0c-.12,0-.27,0-.44.07s.06.48-.25.6c.1-.1-.14-.57,0-.77s.36-.14.41-.38c-.25.05-.29.15-.51.35s-.39.36-.69.31a.86.86,0,0,0,.49-.44c.11-.2,0-.37.12-.59h-.08c-.52,0-.38.3-.75.49s-.82-.18-1-.06c.23-.37.65-.1.81-.26.31-.32,0-.6.47-.75l0,0a.44.44,0,0,0-.3,0c-.16.07-.06.48-.39.52.12-.07,0-.58.19-.75s.38-.05.49-.26c-.26,0-.32.07-.58.21s-.47.26-.75.13a.8.8,0,0,0,.58-.31c.17-.17.08-.38.3-.57h0c-.43-.13-.38.17-.73.25s-.64-.32-.8-.25c.27-.26.57.05.73-.05.33-.2.11-.5.55-.52h0c-.11,0-.21-.18-.42-.15s-.17.45-.51.41c.15,0,.15-.56.37-.68s.33,0,.46-.07c-.33-.12-.42,0-.78.06a1.33,1.33,0,0,1-1.52-.09c.81.33,1.11.09,1.38-.16s.19-.43.53-.59c-.25-.08-.32.14-.62.14s-.55-.47-.71-.44c.32-.19.53.18.72.13.36-.11.23-.46.66-.38h0c-.11-.07-.16-.23-.38-.25s-.27.39-.59.27c.15,0,.28-.51.52-.57s.36.14.56,0c-.21-.14-.32-.08-.61-.08s-.54,0-.72-.24a.82.82,0,0,0,.66,0c.23-.08.24-.3.53-.36l0,0c-.32-.32-.41,0-.76-.12s-.42-.59-.59-.6c.37-.1.48.31.67.3.38,0,.34-.39.73-.2h0c-.09-.09-.11-.26-.31-.33s-.16,0-.25.1h0a.62.62,0,0,1-.84-.18.62.62,0,0,1,.13-.85l.07,0h0a.51.51,0,0,0-.11.72c.37.46.67-.07,1-.08s.32.22.55.14c-.18-.19-.29-.16-.57-.23s-.53-.13-.65-.41a.78.78,0,0,0,.64.16c.24,0,.31-.23.6-.22v0c-.23-.39-.4-.13-.71-.3s-.26-.67-.42-.72c.37,0,.38.41.57.45.38.07.42-.3.76,0l0,0c-.06-.11,0-.28-.22-.4s-.42.22-.65,0c.14.06.49-.32.73-.26s.25.28.5.26c-.13-.22-.25-.22-.5-.36s-.48-.25-.53-.55a.84.84,0,0,0,.58.31c.24,0,.36-.15.64-.07v0c-.13-.44-.34-.23-.61-.47s0-.95-.77-.64c.84-.7.81.32,1,.41.44.24.48-.18.74.17l0,0c0-.12,0-.28-.11-.43s-.47.1-.62-.2c.11.1.55-.19.77-.08s.17.35.41.38c-.07-.25-.18-.27-.39-.47s-.41-.36-.39-.66a.83.83,0,0,0,.49.44c.21.09.37,0,.6.07,0,0,0,0,0-.06a.33.33,0,0,0,0-.15l.35.36-.05.07h0c0,.11-.1.32,0,.3.24-.07.19-.08.12,0s-.08,0-.16.25a.25.25,0,0,1-.27.16c-.07.1-.1.21-.2.35s-.11.36-.11.12a.5.5,0,0,0-.1-.26c-.15.19-.28.23-.36.46v0c0,.11,0,.3,0,.27.22-.13.17-.12.12,0s-.07,0-.09.28a.25.25,0,0,1-.22.22c0,.12,0,.23-.11.39s0,.38-.08.14a.4.4,0,0,0-.16-.22c-.1.22-.22.28-.24.53v0c.05.1.05.3.1.25s.14-.16.12,0-.06.05,0,.3a.25.25,0,0,1-.16.27c0,.12,0,.23,0,.4s.08.37,0,.16a.42.42,0,0,0-.21-.18c0,.24-.14.32-.1.57v0c.08.08.12.28.16.22.14-.21.09-.19.1-.06s0,.06.05.29a.26.26,0,0,1-.09.3c0,.12.07.22.09.39s.16.34,0,.16a.45.45,0,0,0-.25-.12c0,.24-.06.35,0,.58a.31.31,0,0,1,0,.08c0,.06.09.11.11.06.09-.28.05-.23.1-.1.09.28,0,.09.13.33a.26.26,0,0,1,0,.3c.05.13.12.21.19.38s.24.29,0,.16a.47.47,0,0,0-.28-.06c.08.23,0,.35.18.55v0c.11,0,.25.19.25.12,0-.26,0-.21.06-.11s0,.08.18.24a.23.23,0,0,1,.06.3c.08.11.16.17.26.31s.31.23.08.14a.51.51,0,0,0-.32,0c.1.19.11.33.31.49h0c.11,0,.33.14.32.05,0-.25-.06-.19,0-.11s0,.08.23.19a.23.23,0,0,1,.14.28c.09.08.19.12.33.23s.34.15.1.12a.44.44,0,0,0-.27.08c.18.17.2.3.42.41h0c.11,0,.3.06.27,0-.1-.23-.1-.18,0-.12s0,.08.26.13a.23.23,0,0,1,.2.24c.12.05.22.07.38.14s.37.06.13.09a.46.46,0,0,0-.24.15c.21.12.26.24.5.29h0c.11,0,.31,0,.26-.08s-.14-.14,0-.11,0,.06.29,0a.27.27,0,0,1,.23.13c.12,0,.22,0,.39.06s.34,0,.14.05a.35.35,0,0,0-.2.24h0c.23.07.31.18.56.16h0c.09-.06.29-.09.24-.14s-.18-.11-.06-.1.06.05.3,0a.25.25,0,0,1,.29.12c.12,0,.22,0,.4-.05s.35-.12.16,0a.52.52,0,0,0-.15.24c.24,0,.34.09.58,0h0c.07-.09.26-.17.19-.2s-.19-.06-.07-.09.07,0,.28-.09a.25.25,0,0,1,.31,0c.12,0,.21-.09.38-.14s.31-.21.16,0a.44.44,0,0,0-.08.32,1.56,1.56,0,0,0,.57-.11h0c0-.11.24-.29.15-.31-.25-.05-.2,0-.09-.07s.07,0,.25-.15a.24.24,0,0,1,.31,0c.11-.06.18-.14.33-.23s.26-.28.15-.06a.43.43,0,0,0,0,.28c.22-.11.35-.08.52-.25s.14-.06.17,0,.1-.17.05-.17-.15,0-.08,0,.06,0,.16-.15h0c-.06,0-.08-.1,0-.16s.24-.24.42-.41.12-.18.14-.19h0s0,0,0,.09a.48.48,0,0,0,.05.28,1.62,1.62,0,0,1,.19-.13l.65.69ZM11.25,11.15a.43.43,0,0,0,0,.07.72.72,0,0,0,.23.21Z" transform="translate(-0.8 -2.45)"/><circle class="cls-10" cx="17.24" cy="17.43" r="7.48" transform="translate(-1.44 31.76) rotate(-88.51)"/><path class="cls-11" d="M13.59,13.32a.69.69,0,0,1,.58-.33h0a.78.78,0,0,1,.5,0l.06,0h.07c.1,0,.2-.1.29-.13s.17,0,.22.16v.06a.56.56,0,0,1-.18.26l0,0c-.06,0-.12.08-.14,0a.77.77,0,0,1-.18.18.38.38,0,0,1-.36.09c-.14-.06,0-.4-.27-.25s-.26.18-.45.13S13.49,13.44,13.59,13.32Z" transform="translate(-0.8 -2.45)"/><path class="cls-11" d="M16.56,17.38a.36.36,0,0,1-.17.16c-.05,0-.11,0-.16-.07-.19-.26-1.26,0-.56-.59l.07,0A1.46,1.46,0,0,1,16,16.8c.33-.05.76-.13.62-.47s-1.11.08-.56-.43c.39-.38.46-.2.86,0L17,16a.47.47,0,0,0,.49-.05l0-.05a.09.09,0,0,0,0-.06c.05-.21-.51-.3-.19-.4s.31.4.51.38h0a.32.32,0,0,0,.28-.38.56.56,0,0,1,.06-.25c.17-.38.61-.9.74-.79s-.07.66-.37,1.17a5.82,5.82,0,0,1-.4.58l-.2.23s0,0,0,0-.16.1-.2.07a.69.69,0,0,0-.05.24c0,.24.05.48-.12.64-.42.39-.41-.13-.47-.42C17,16.34,16.79,17,16.56,17.38Z" transform="translate(-0.8 -2.45)"/><path class="cls-11" d="M13.4,19a.17.17,0,0,1-.06-.12.09.09,0,0,1,0-.06c.13-.16.25-.24.44-.14s.16.21.18.3.14.27.12.35a.65.65,0,0,1-.06.21l0,0c-.07.05-.09,0-.11,0-.23,0-.47.1-.62-.05S13.63,19.2,13.4,19Z" transform="translate(-0.8 -2.45)"/><path class="cls-11" d="M16.53,12.75c.3-.27,1.56.72,1,.09-.1-.13.06-.18.17-.17a4,4,0,0,1,.81.21c.33.14.63.5,1,.6.17,0-.28-.3-.14-.34a.47.47,0,0,1,.26,0l.17.08a2.7,2.7,0,0,1,.5.42c.22.11.27.25.2.31a.09.09,0,0,1-.07,0,.56.56,0,0,1-.36-.08c-.35-.18-.59.31-1-.12-.28-.27-.6-.1-.63.27s-.33.48-.65.59a2.47,2.47,0,0,1-.57.14c-.41.06-.46-.56.1-.64a1.28,1.28,0,0,1,.45.05c.24.06.34-.43.05-.52a1.29,1.29,0,0,0-.84.12,2.58,2.58,0,0,1-.42.11c-.38.05,0-.16.19-.36s.11-.17,0-.23-.1,0-.16,0h-.09a2.22,2.22,0,0,0-.6.35.74.74,0,0,1-.31.13l-.09,0a.22.22,0,0,1-.14-.1l0,0,0,0,.25-.19L16.2,13A2.17,2.17,0,0,0,16.53,12.75Z" transform="translate(-0.8 -2.45)"/><path class="cls-11" d="M21.27,15.13c.3.32.36.68,0,.9s-.95.1-.48.6a.74.74,0,0,1-.18,1,.4.4,0,0,1-.24.07c-.46,0-.36-.39-.44-.77v0c0-.11-.07-.15-.13-.14s-.29.27-.44.53l-.16.29,0,.05c-.09.17-.15.31-.18.38l0,0c-.1.26-.44.36-.57,0-.06-.15.06-.31.21-.46s.21-.19.29-.26h0a.08.08,0,0,0,0,0c.19-.21-.06-.23-.24-.25h0l0,0a1.9,1.9,0,0,1-.38.17c-.07,0-.11,0-.09-.1a.43.43,0,0,0,0-.05.49.49,0,0,1,.24-.25l.05,0a1.37,1.37,0,0,1,.35-.08c.26-.05.49-.06.43-.26s-.43-.11-.62-.27,0-.3.26-.39a.44.44,0,0,1,.61.28c.11.26.69.34.72,0s-.21-.44-.48-.51c-.08,0-.15-.17-.15-.22.05-.3.79.1.58-.34-.12-.26-.47-.15-.63-.29-.4-.33.36-.42.84.09.21.22.21.63.45.4s-.82-1,0-.77l.1,0a.56.56,0,0,1,.28.29A1,1,0,0,1,21.27,15.13Z" transform="translate(-0.8 -2.45)"/><path class="cls-11" d="M17.13,22.22s-.05-.06-.06-.07,0,0,0-.07v0s.05,0,.06-.05h0l0,0,0,0v0l0,0s.07,0,.1,0,0,0,0,.05v.06s0,0,0,0l0,0h0s0,0,0,0l-.08,0Z" transform="translate(-0.8 -2.45)"/><path class="cls-11" d="M23.29,20c-.36,0-.49-.19-.61-.47s-.22-.61-.44-.16h0c-.15.31.39.78-.16.84a1.29,1.29,0,0,1-.28,0l-.16,0-.11,0a.17.17,0,0,1-.09-.1.11.11,0,0,1,0-.08.7.7,0,0,1,.15-.28c.18-.26.36-.51-.35-.5-.24,0-.42-.36-.16-.44s.45.07.52-.05a.15.15,0,0,0,0-.07c-.32-.17-.64-1,0-.67.45.26-.32-.72.12-.72.18,0,.2,1.15.45.56.11-.26,0-.55.13-.8,0-.08.31-.49.35-.22.08.44-.23.59.42.58.4,0,0-.64-.15-.7-.46-.22-.45-.76-.78.13-.07.2-.39.06-.37-.14s.4-.41.24-.57c-.31-.3-.15-.35.1-.32h.12c.25,0,.53.13.59.13.48,0,.35-1,.42-1,.53-.07,0,1.19.24,1.18s.33-.28.62-.29.22.38.07.53-.84.25-.62.83a.93.93,0,0,0,.05.1c.06.12.11.14.16.11s.2-.68.38-.54.12.6-.14.8l-.06,0-.18.08c-.23.08-.4-.13-.73-.13s.14.53.33.54.45-.37.48,0c.05.88-.5.47-.78.08s-.76.31-.33.52c.24.11.63-.3.18.28s.67,0,.69,0C23.93,19.08,23.7,20,23.29,20Z" transform="translate(-0.8 -2.45)"/><path class="cls-11" d="M14.61,15.65a.47.47,0,0,0,.11-.21.76.76,0,0,0,0-.21c0-.33-.17-.79.27-.93a1.58,1.58,0,0,1,.37,0,2.6,2.6,0,0,1,.61.07l.1,0c.21.07.36.18.33.34a.14.14,0,0,1,0,.06.27.27,0,0,1-.06.1.94.94,0,0,1-.2.2c-.24.16-.49.13-.7.33s0,.53-.06.75a.17.17,0,0,1-.17.16.84.84,0,0,1-.23,0c-.51-.14-.81.06-.51.41.29.2.73.78.18.95-.37.11-.41-.58-.55-.46a2.49,2.49,0,0,0-.45.8,2,2,0,0,1-.14.25.81.81,0,0,1-.33.33l-.1,0A.1.1,0,0,1,13,18.5a.74.74,0,0,1,0-.3.91.91,0,0,1,.18-.29l.18-.21c.27-.31.57-.63.46-.64-.33,0-.65.13-.86-.16-.09-.1.17-.16.22-.17.6-.12-.48-.47-.55-.74s1,.24.94-.53c0-.41-.57-.22-.09-.92v0a.31.31,0,0,1,.2-.13c.2,0,.39.29.46.49s0,.11,0,.14a.88.88,0,0,1,0,.21c0,.15-.06.31,0,.38S14.51,15.76,14.61,15.65Z" transform="translate(-0.8 -2.45)"/><path class="cls-11" d="M17,22.94h0s-.1-.1-.12-.12a.14.14,0,0,1-.05-.15s0,0,0-.05l.07-.06,0,0s.07-.08.08-.07l0,0,0,0,0,0,0,0c.06-.06.13,0,.19.05s0,0,0,.1v.1s0,0,0,.05l-.07.07c-.05,0-.05.07-.08,0h0A.32.32,0,0,1,17,22.94Z" transform="translate(-0.8 -2.45)"/><path class="cls-11" d="M15.57,20.69l-.34.14c-.18.06-.36.1-.53.14s-.35-.13-.25-.3a.53.53,0,0,1,.4-.24c.34-.07.66,0,.19-.49a.31.31,0,0,1-.11-.23.22.22,0,0,1,.17-.22.38.38,0,0,1,.37.2c.21.27.32.72.54.15s-.12-.64-.55-.63c-.14,0-.88,0-.34-.28.3-.14.76.21.49-.4-.08-.18-.44-.07-.57-.05s0-.58.31-.44c.13.05.57.19.62.3s0,.56.07.61c.26.14.82-.38.41-.54s0-.47.35-.44a.33.33,0,0,1,.34.35,1.14,1.14,0,0,1-.09.43c-.14.35-.5.28-.17.59s.5-.32.57-.69a.53.53,0,0,0,0-.24.2.2,0,0,1,0-.1c0-.23.63.22.73.51a.78.78,0,0,1,0,.31.18.18,0,0,1-.15.17c-.23.07-.64-.07-.73.16s.07.45-.31.3c-.68-.26.91,1,.11,1s-.57.14-.5.35a.51.51,0,0,1,0,.39v0c-.11.26-.23.18-.27,0a.87.87,0,0,1,0-.23,1,1,0,0,0,0-.38v0c0-.05,0-.06-.07-.05s-.12.09-.19.2-.21.32-.31.47-.35.39-.46.14c0-.06.08-.23.19-.42a2.05,2.05,0,0,0,.28-.5c0-.05,0-.08-.07-.07A.46.46,0,0,0,15.57,20.69Z" transform="translate(-0.8 -2.45)"/><path class="cls-11" d="M22,20.68v0c0,.06-.13.19-.19.25l-.05.05s-.05,0-.08,0h-.13a.64.64,0,0,1-.3,0c-.07,0-.11-.08-.16-.13s0-.08.06-.13.13-.06.22-.07a.07.07,0,0,0,.06,0l0,0h.15c.05,0,.09,0,.15,0a.47.47,0,0,1,.19,0S22,20.66,22,20.68Z" transform="translate(-0.8 -2.45)"/><path class="cls-11" d="M22.9,13.17c.41.31.61.8,0,.4-.18-.12-.24.2-.12.36s1.25.79.8.91c-.13,0-.34-.38-.46-.46-.31-.23-.07.4-.08.52s-.14.06-.2,0,0-.72-.33-.46c-.05,0,0,.71-.17.52s-.09-.48-.32-.76c-.36-.44-.21.6,0,.91s.26.62.09.62l-.12,0a.41.41,0,0,1-.24-.24v0l0-.1c-.09-.46-.12-.72-.52-1s.24-.31.33-.56-.44-.33-.66-.38c-.46-.09-.1-1.14.65-.23.07.09.39.48.37.1s-.77-.79-.44-1c.79-.41.72.79,1,.71s.2-.33.41-.26S22.78,13.08,22.9,13.17Z" transform="translate(-0.8 -2.45)"/><path class="cls-11" d="M13,13.58c.14-.08.14-.17.39.09s.07.23,0,.29l-.15.09-.05,0c-.21.06-.34-.19-.55-.1s-.22.79-.67.63c-.14,0,0-.25,0-.39s-.29-.72,0-.66c.11,0,.19.06.29.08a2,2,0,0,0,.54,0h.1Z" transform="translate(-0.8 -2.45)"/><path class="cls-11" d="M14.27,11.46c-.27.2-.15.23-.09.44v0c0,.12.1.32,0,.41H14.1c-.18,0-.53-.37-.64-.1h0c-.11.26-.05.4-.32.68a.87.87,0,0,1-.58.25c-.34,0-.6-.16-.35-.36l.15-.1c.16-.08.33,0,.44-.16.36-.31-.17-.36,0-.75l.09-.16a.33.33,0,0,1,.41-.14l.13.06c.11,0,.21.08.29,0a.22.22,0,0,0,0-.08c.09-.16.18-.41.38-.3S14.2,11.43,14.27,11.46Z" transform="translate(-0.8 -2.45)"/><path class="cls-11" d="M15.35,10.92c0,.05,0,.09,0,.13s0,0,0,0l-.17.05a.16.16,0,0,1-.15,0l-.05,0s0-.08,0-.1,0-.07,0-.07h0v0h0v0c0-.06.07-.1.15-.13s.07,0,.11,0l.09,0h0s0,.06,0,.08S15.41,10.92,15.35,10.92Z" transform="translate(-0.8 -2.45)"/><path class="cls-11" d="M21.07,12.11c-.29.12-.7-.47-.88-.35s.06.84-.28.5c-.06-.06,0-.31-.1-.28s-.09.12-.16.16a2.5,2.5,0,0,1-.59.31l-.07,0c-.25.09-.44.1-.25-.18l0-.05a.21.21,0,0,0,0-.06c.13-.24,0-.27-.21-.23l-.08,0c-.18,0-.4.12-.58.18-.62.21-1,0-.2-.26.15-.05-.11-.16-.23-.13s-.32,0-.23-.14.31,0,.38-.1-.25-.18-.34-.15c-.25.09-.21.91-.68.61-.3-.19.24-.38.25-.49,0-.42-.78.29-1.45.72a1.6,1.6,0,0,1-.66.3c-.15,0-.24-.06-.25-.26v-.11a.54.54,0,0,1,.33-.53c.46-.19,1.2.13,1-.41,0-.11.13-.13.22-.16s.11.16.22.12c.51-.18-.44-.67.78-.69h.09c.24,0,.51,0,.59.27.19.56.58.52.47.21,0,0-.33-.53.16-.1.32.27.05,0,.3-.12.82-.41-.46,1.07.35.85s.76-.83,1.69-.43C21.16,11.34,21.73,11.85,21.07,12.11Z" transform="translate(-0.8 -2.45)"/><path class="cls-11" d="M19.61,23.57c.25-.46.44-1.33.7-1.91l.12-.21a1,1,0,0,1,.16-.22c.36-.34.45.4.48.9,0,.16,0,.3,0,.37a.08.08,0,0,1,0,0l.07,0a.4.4,0,0,0,.27,0c.27-.13.56-.43.51-.54-.2-.49-.11-.65.1-.7a2.05,2.05,0,0,1,.55,0h.08a.64.64,0,0,0,.38-.05.18.18,0,0,0,.09-.08,3.86,3.86,0,0,0,.17-.63l.07-.14c.35-.55.64-.17.36.23l-.14.21c-.15.19-.29.36-.44.53l-.2.24,0,0c-.08.1-.17.19-.26.29l-.48.53c-.1.12-.17.33-.31.52a.61.61,0,0,1-.13.15l0,0c-.15.14-.43.36-.43.32s-.49.42-.67.26,0-.58-.26-.5-.32.33-.55.55S19.49,23.8,19.61,23.57Z" transform="translate(-0.8 -2.45)"/><path class="cls-11" d="M12.31,15s0,0,0,0l.07-.07.06-.06,0,0,0,0,0,0h0c.05,0,.11,0,.15,0s0,0,0,.07,0,0,0,.07,0,0,0,0l0,0s0,.06-.06,0-.07.06-.11.07h0l-.09-.09A.11.11,0,0,1,12.31,15Z" transform="translate(-0.8 -2.45)"/><path class="cls-11" d="M13.15,22.27c.1,0,.18-.82.41-.39,0,.07-.08.3,0,.3s.13-.1.21-.12a2.45,2.45,0,0,1,.55-.11c.35-.05.68,0,.37.22l-.09.07c-.27.25,0,.31.3.31.16,0,.35,0,.51,0,.65,0,.92.28.11.31-.15,0,.06.18.19.19s.31.06.18.2-.27,0-.36,0h0c-.12.08.15.22.26.23h0c.27,0,.46-.81.82-.39s-.34.29-.37.4c-.13.34.62,0,1.33-.19a4.27,4.27,0,0,1,.6-.17.92.92,0,0,1,.36,0c.12,0,.2.08.2.21a.6.6,0,0,1-.05.23l0,.08a.54.54,0,0,1-.46.33c-.48,0-1.09-.46-1.07.09,0,.12-.16.09-.26.09S16.8,24,16.69,24s-.23.12-.23.24,0,.42-.74.19c-.24-.07-.54-.17-.55-.45,0-.59-.4-.66-.39-.33,0,0,.16.6-.18.06-.23-.36-.06,0-.33,0-.9.15.75-.9-.09-.91s-1,.57-1.74-.08c-.34-.29-.74-.94,0-1C12.72,21.66,12.94,22.34,13.15,22.27Z" transform="translate(-0.8 -2.45)"/><path class="cls-11" d="M18.4,23a.61.61,0,0,1-.2-.14c-.18-.16-.26-.27-.27-.36s.46-.23.55-.48c.16-.45-.15-.3-.4-.2s-.51.17-.72-.1.21-1.05.43-.82c0,0,.41,1,.48.44.1-.69.08-.15.31-.07.42.16.49-.61.13-.56s-1.09,0-.45-.58c.25-.21.2.26.29.34a.76.76,0,0,0,.59,0s.05-.08,0-.14a1.13,1.13,0,0,0-.33-.21.4.4,0,0,1-.24-.2l0-.09a.92.92,0,0,1,0-.37c0-.24.15-.44.45-.4s-.43.8.06.65c.69-.21.24-.7.25-1a.44.44,0,0,1,.09-.23c.08-.12.21-.18.32-.06s0,.42.21.6.19-.05.32-.22l0-.05.19-.24c.15-.17.3-.27.42-.1,0,0-.11.14-.24.29a1.45,1.45,0,0,0-.17.26l0,0a.31.31,0,0,0,.05.33c.09.09,1.26.69.41.67h-.05c-.15.05-.08.42-.17.53s-.43,0-.34-.17c.38-.8,0-.44-.43-.61-.12-.05-.83.09-.57.36.42.45.32.14.66-.1s.12.31.09.38a1.33,1.33,0,0,1-.29.38,1.24,1.24,0,0,0-.14.18l0,.06c-.11.28,0,.23.21.13L20,21c.13-.07.23-.12.27-.08s0,.19-.1.26a1.47,1.47,0,0,1-.22.1c-.18.08-.31.14-.1.2.67.19-.13.55-.46.44-.15.14.19.27.28.43s-.25.35-.41.18C18.47,21.69,18.88,23.16,18.4,23Z" transform="translate(-0.8 -2.45)"/><path class="cls-11" d="M13.34,20c.69.36,0,.68.2.92s.49.22.36.46l-.07.08c-.12.13-.2,0-.23,0-.19-.3-.23-.15-.46-.11s-.32.09-.4,0,.44-.55.12-.7-.38-.07-.65-.35a.88.88,0,0,1-.21-.75c.05-.3.26-.44.45,0,.07.16,0,.33.14.45C12.88,20.29,13,19.76,13.34,20Z" transform="translate(-0.8 -2.45)"/><path class="cls-11" d="M11.1,14.53l-.23.5,0,.12s.07,0,.17,0c.28-.07.79-.31.41.19a.52.52,0,0,1-.13.11l-.23.16c-.17.11-.32.22-.26.29s.29-.05.45-.09.16,0,.07.06h0a3.84,3.84,0,0,1-.49.28c-.22.12-.35.25,0,.33,0,0,.12,0,.22-.12l.43-.36a1.84,1.84,0,0,1,.22-.17c.41-.31.79-.46.74.34a.53.53,0,0,1-.11.32.5.5,0,0,1-.25.15,3.32,3.32,0,0,0-.64.12h0c-.27.2,0,.39-.13.62s-.24.6-.36.91-.08.4.2.36a.14.14,0,0,0,.09-.05c.32-.24.81-1.32.92-.77.09.39-.34.81-.59,1.12s-.2.3-.13.39.27.3.27.58c0,.48-.64.6-.58.15,0-.18,0-.88-.32-.6-.45.44-.08-.28-.48-.69-.14-.15.24-.49.22-.72s-.38-.25-.37-.47a.29.29,0,0,1,0-.09c.06-.18.31-.22.45-.36.3-.28-.23-.27-.4-.34s-.07-.63.08-1.22c.06-.21.12-.43.18-.62l.09-.31c.05-.16.1-.3.13-.38C10.91,13.57,11.48,14.05,11.1,14.53Z" transform="translate(-0.8 -2.45)"/><path class="cls-12" d="M26.22,4.08h0a1.08,1.08,0,0,0-1.11,1A1.08,1.08,0,0,0,24.06,4h0A1.08,1.08,0,0,0,25.16,3,1.08,1.08,0,0,0,26.22,4.08Z" transform="translate(-0.8 -2.45)"/><path class="cls-13" d="M2.47,21.84h0a1,1,0,0,0-1-1,.94.94,0,0,0,1-.94h0a1,1,0,0,0,1,1A1,1,0,0,0,2.47,21.84Z" transform="translate(-0.8 -2.45)"/><path class="cls-14" d="M7.69,31.25h0a1,1,0,0,0-.94-1,1,1,0,0,0,1-.94h0a1,1,0,0,0,.94,1A1,1,0,0,0,7.69,31.25Z" transform="translate(-0.8 -2.45)"/><path class="cls-13" d="M4.88,31.83a.48.48,0,1,0-.64-.24A.48.48,0,0,0,4.88,31.83Z" transform="translate(-0.8 -2.45)"/><path class="cls-15" d="M3.6,25.47h0a1.32,1.32,0,0,0-1.32-1.34A1.34,1.34,0,0,0,3.62,22.8h0A1.35,1.35,0,0,0,5,24.15,1.33,1.33,0,0,0,3.6,25.47Z" transform="translate(-0.8 -2.45)"/><path class="cls-14" d="M2.14,16.6h0a.94.94,0,0,0-1.34,0,1,1,0,0,0,0-1.35h0a1,1,0,0,0,1.35,0A1,1,0,0,0,2.14,16.6Z" transform="translate(-0.8 -2.45)"/><path class="cls-13" d="M22.73,3.38A.48.48,0,0,0,23,2.74a.49.49,0,0,0-.65-.25.5.5,0,0,0-.24.65A.49.49,0,0,0,22.73,3.38Z" transform="translate(-0.8 -2.45)"/><path class="cls-16" d="M19.51,65.33,11.57,78.6l-5.29-3c-5.3-3,2.62-16.55,7.81-13.36Z" transform="translate(-0.8 -2.45)"/><path class="cls-17" d="M15.64,65.71a12,12,0,0,0-5.5,9.45c0,3.5,2.47,4.93,5.5,3.2a12,12,0,0,0,5.5-9.46C21.14,65.41,18.68,64,15.64,65.71Z" transform="translate(-0.8 -2.45)"/><path class="cls-18" d="M15.64,67.12a9.32,9.32,0,0,0-4.27,7.35c0,2.71,1.91,3.82,4.27,2.48a9.36,9.36,0,0,0,4.28-7.35C19.92,66.88,18,65.77,15.64,67.12Z" transform="translate(-0.8 -2.45)"/><path class="cls-19" d="M15.64,67.72a8.2,8.2,0,0,0-3.75,6.45c0,2.38,1.68,3.36,3.75,2.18a8.19,8.19,0,0,0,3.76-6.46C19.4,67.51,17.72,66.54,15.64,67.72Z" transform="translate(-0.8 -2.45)"/><path class="cls-20" d="M12.2,75.72a2.65,2.65,0,0,0,2.71-.22A8.21,8.21,0,0,0,18.66,69a3.52,3.52,0,0,0-.31-1.54,2.6,2.6,0,0,0-2.71.22,8.2,8.2,0,0,0-3.75,6.45A3.6,3.6,0,0,0,12.2,75.72Z" transform="translate(-0.8 -2.45)"/><path class="cls-21" d="M15.22,70.17a3.31,3.31,0,0,0-1.5,2.59c0,1,.67,1.35,1.5.87a3.26,3.26,0,0,0,1.51-2.58C16.73,70.09,16.06,69.7,15.22,70.17Z" transform="translate(-0.8 -2.45)"/><path class="cls-22" d="M16.72,69.89,14.25,74l-2.19-1.24a8.74,8.74,0,0,1,2.4-4.17Z" transform="translate(-0.8 -2.45)"/><path class="cls-19" d="M15.81,69.37c-1.66-.74-3.71,1.94-2.36,4.19l.8.46,2.47-4.13Z" transform="translate(-0.8 -2.45)"/><path class="cls-18" d="M15.52,70a3.74,3.74,0,0,0-1.71,3c0,1.08.76,1.53,1.71,1A3.76,3.76,0,0,0,17.23,71C17.23,69.91,16.46,69.47,15.52,70Z" transform="translate(-0.8 -2.45)"/><path class="cls-19" d="M15.52,71.16a1.55,1.55,0,0,0-.71,1.22c0,.45.32.63.71.41a1.55,1.55,0,0,0,.71-1.22C16.23,71.12,15.91,70.93,15.52,71.16Z" transform="translate(-0.8 -2.45)"/><path class="cls-22" d="M14.81,72.46a.43.43,0,0,0,.63.08,1.55,1.55,0,0,0,.71-1.22v-.09c-.12-.19-.36-.23-.63-.07a1.55,1.55,0,0,0-.71,1.22Z" transform="translate(-0.8 -2.45)"/><path class="cls-23" d="M17.53,73.77a.83.83,0,0,0,.22,0,.74.74,0,0,0,.46-.39l3.62-6.95a.77.77,0,1,0-1.37-.72L17.2,71.94l-1.05-.57a.77.77,0,0,0-.74,1.36l1.75,1A.78.78,0,0,0,17.53,73.77Z" transform="translate(-0.8 -2.45)"/><path class="cls-23" d="M66.47,70.77a.78.78,0,0,0,.39-1.45l-9-5.12,3.28-6.3a.77.77,0,0,0-1.37-.71l-3.62,7a.77.77,0,0,0,.3,1l9.65,5.5A.75.75,0,0,0,66.47,70.77Z" transform="translate(-0.8 -2.45)"/><path class="cls-24" d="M66,68.09l-1.56,2.59L57.52,66.8c-1-.59.51-3.23,1.53-2.61Z" transform="translate(-0.8 -2.45)"/><path class="cls-16" d="M71.33,64,63.39,77.22l-5.29-3c-5.3-3,2.62-16.55,7.81-13.35Z" transform="translate(-0.8 -2.45)"/><path class="cls-17" d="M67.47,64.33A12,12,0,0,0,62,73.79c0,3.49,2.46,4.92,5.5,3.19A12,12,0,0,0,73,67.52C73,64,70.5,62.6,67.47,64.33Z" transform="translate(-0.8 -2.45)"/><path class="cls-18" d="M67.47,65.74a9.35,9.35,0,0,0-4.28,7.35c0,2.71,1.92,3.83,4.28,2.48a9.32,9.32,0,0,0,4.27-7.35C71.74,65.51,69.83,64.4,67.47,65.74Z" transform="translate(-0.8 -2.45)"/><path class="cls-19" d="M67.47,66.34a8.19,8.19,0,0,0-3.76,6.45c0,2.39,1.68,3.36,3.76,2.18a8.2,8.2,0,0,0,3.75-6.45C71.22,66.13,69.54,65.16,67.47,66.34Z" transform="translate(-0.8 -2.45)"/><path class="cls-20" d="M64,74.34a2.61,2.61,0,0,0,2.7-.22,8.2,8.2,0,0,0,3.75-6.45,3.6,3.6,0,0,0-.31-1.55,2.61,2.61,0,0,0-2.7.22,8.19,8.19,0,0,0-3.76,6.45A3.56,3.56,0,0,0,64,74.34Z" transform="translate(-0.8 -2.45)"/><path class="cls-21" d="M67.05,68.8a3.29,3.29,0,0,0-1.51,2.58c0,1,.68,1.35,1.51.88a3.29,3.29,0,0,0,1.5-2.59C68.55,68.71,67.88,68.32,67.05,68.8Z" transform="translate(-0.8 -2.45)"/><path class="cls-22" d="M68.55,68.51l-2.48,4.13L63.89,71.4a8.83,8.83,0,0,1,2.4-4.17Z" transform="translate(-0.8 -2.45)"/><path class="cls-19" d="M67.64,68c-1.66-.74-3.72,1.93-2.37,4.19l.8.45,2.48-4.13Z" transform="translate(-0.8 -2.45)"/><path class="cls-18" d="M67.34,68.63a3.74,3.74,0,0,0-1.71,2.94c0,1.09.77,1.53,1.71,1a3.7,3.7,0,0,0,1.71-2.94C69.05,68.53,68.29,68.09,67.34,68.63Z" transform="translate(-0.8 -2.45)"/><path class="cls-19" d="M67.34,69.78A1.55,1.55,0,0,0,66.63,71c0,.45.32.63.71.41a1.55,1.55,0,0,0,.71-1.22C68.05,69.74,67.73,69.56,67.34,69.78Z" transform="translate(-0.8 -2.45)"/><path class="cls-22" d="M66.64,71.08c.12.2.35.24.63.08a1.54,1.54,0,0,0,.7-1.22v-.08c-.12-.19-.35-.24-.63-.08A1.55,1.55,0,0,0,66.63,71,.19.19,0,0,0,66.64,71.08Z" transform="translate(-0.8 -2.45)"/><path class="cls-23" d="M53,78.64a.76.76,0,0,0,.67-.39.78.78,0,0,0-.29-1.06l-9-5.12,3.28-6.3a.77.77,0,0,0-.33-1,.78.78,0,0,0-1,.33l-3.62,7a.78.78,0,0,0,.31,1l9.65,5.5A.75.75,0,0,0,53,78.64Z" transform="translate(-0.8 -2.45)"/><path class="cls-24" d="M52.43,76l-1.55,2.6L44,74.67c-1-.59.51-3.23,1.53-2.61Z" transform="translate(-0.8 -2.45)"/><path class="cls-16" d="M57.82,71.83,49.88,85.09l-5.29-3c-5.3-3,2.62-16.55,7.81-13.35Z" transform="translate(-0.8 -2.45)"/><path class="cls-17" d="M54,72.2a12,12,0,0,0-5.5,9.46c0,3.49,2.46,4.92,5.5,3.19a12,12,0,0,0,5.49-9.46C59.45,71.9,57,70.47,54,72.2Z" transform="translate(-0.8 -2.45)"/><path class="cls-18" d="M54,73.61A9.36,9.36,0,0,0,49.68,81c0,2.72,1.92,3.83,4.28,2.48a9.35,9.35,0,0,0,4.27-7.35C58.23,73.38,56.31,72.27,54,73.61Z" transform="translate(-0.8 -2.45)"/><path class="cls-19" d="M54,74.21a8.19,8.19,0,0,0-3.76,6.45c0,2.39,1.68,3.36,3.76,2.18a8.2,8.2,0,0,0,3.75-6.45C57.71,74,56,73,54,74.21Z" transform="translate(-0.8 -2.45)"/><path class="cls-20" d="M50.51,82.21A2.6,2.6,0,0,0,53.22,82,8.2,8.2,0,0,0,57,75.54,3.6,3.6,0,0,0,56.66,74a2.63,2.63,0,0,0-2.7.22,8.19,8.19,0,0,0-3.76,6.45A3.53,3.53,0,0,0,50.51,82.21Z" transform="translate(-0.8 -2.45)"/><path class="cls-21" d="M53.54,76.67A3.29,3.29,0,0,0,52,79.26c0,.95.68,1.34,1.51.87A3.28,3.28,0,0,0,55,77.54C55,76.59,54.37,76.19,53.54,76.67Z" transform="translate(-0.8 -2.45)"/><path class="cls-22" d="M55,76.38l-2.47,4.13-2.19-1.24a8.83,8.83,0,0,1,2.4-4.17Z" transform="translate(-0.8 -2.45)"/><path class="cls-19" d="M54.13,75.87c-1.67-.74-3.72,1.93-2.37,4.19l.8.45L55,76.38Z" transform="translate(-0.8 -2.45)"/><path class="cls-18" d="M53.83,76.5a3.74,3.74,0,0,0-1.71,2.94c0,1.09.77,1.53,1.71,1a3.74,3.74,0,0,0,1.71-3C55.54,76.4,54.78,76,53.83,76.5Z" transform="translate(-0.8 -2.45)"/><path class="cls-19" d="M53.83,77.65a1.55,1.55,0,0,0-.71,1.22c0,.45.32.64.71.41a1.55,1.55,0,0,0,.71-1.22C54.54,77.61,54.22,77.43,53.83,77.65Z" transform="translate(-0.8 -2.45)"/><path class="cls-22" d="M53.13,79c.11.19.35.23.62.08a1.59,1.59,0,0,0,.71-1.23v-.08c-.12-.19-.36-.23-.63-.08a1.55,1.55,0,0,0-.71,1.22A.28.28,0,0,0,53.13,79Z" transform="translate(-0.8 -2.45)"/><polygon class="cls-20" points="27.53 74.93 23.46 70.5 44.97 61.94 45.38 65.26 27.53 74.93"/><polygon class="cls-24" points="27.53 74.93 23.46 70.5 13.02 64.5 17.45 69.03 27.53 74.93"/><polygon class="cls-19" points="44.97 61.94 23.46 70.5 13.02 64.5 27.11 52.27 44.97 61.94"/><polygon class="cls-18" points="37.53 71.89 37.57 69.56 63.59 54.88 62.51 57.61 37.53 71.89"/><path class="cls-24" d="M38.33,74.34,33.57,71.6V69.24L38.37,72l0,2.33ZM18.48,62.9,15.9,61.41l0-2.33,4.18,2.41Z" transform="translate(-0.8 -2.45)"/><path class="cls-19" d="M61,59.13,38.37,72,15.93,59.08,38.52,46.2Z" transform="translate(-0.8 -2.45)"/><polygon class="cls-18" points="37.57 68.14 37.89 58.47 55.99 42.96 58.99 56.01 37.57 68.14"/><path class="cls-19" d="M56.79,45.41,38.66,61c-7.72-4.46-5.58-3.25-13.59-7.87L43.19,37.54Z" transform="translate(-0.8 -2.45)"/><path class="cls-23" d="M39.45,86.51a.76.76,0,0,0,.67-.39.78.78,0,0,0-.29-1.06l-9-5.12,3.28-6.3a.78.78,0,0,0-1.38-.71l-3.62,6.95a.77.77,0,0,0,.31,1l9.64,5.5A.81.81,0,0,0,39.45,86.51Z" transform="translate(-0.8 -2.45)"/><path class="cls-24" d="M38.92,83.84l-1.55,2.59L30.5,82.54c-1-.58.51-3.23,1.52-2.61Z" transform="translate(-0.8 -2.45)"/><path class="cls-16" d="M44.31,79.7,36.37,93l-5.29-3c-5.3-3,2.62-16.55,7.81-13.35Z" transform="translate(-0.8 -2.45)"/><path class="cls-17" d="M40.44,80.07a12,12,0,0,0-5.5,9.46c0,3.49,2.47,4.92,5.5,3.19a12,12,0,0,0,5.5-9.46C45.94,79.77,43.48,78.34,40.44,80.07Z" transform="translate(-0.8 -2.45)"/><path class="cls-18" d="M40.44,81.48a9.35,9.35,0,0,0-4.27,7.35c0,2.72,1.91,3.83,4.27,2.48A9.33,9.33,0,0,0,44.72,84C44.72,81.25,42.8,80.14,40.44,81.48Z" transform="translate(-0.8 -2.45)"/><path class="cls-19" d="M40.44,82.08a8.21,8.21,0,0,0-3.75,6.46c0,2.38,1.68,3.35,3.75,2.17a8.19,8.19,0,0,0,3.76-6.45C44.2,81.88,42.52,80.9,40.44,82.08Z" transform="translate(-0.8 -2.45)"/><path class="cls-20" d="M37,90.08a2.6,2.6,0,0,0,2.71-.22,8.2,8.2,0,0,0,3.75-6.45,3.6,3.6,0,0,0-.31-1.55,2.65,2.65,0,0,0-2.71.22,8.21,8.21,0,0,0-3.75,6.46A3.52,3.52,0,0,0,37,90.08Z" transform="translate(-0.8 -2.45)"/><path class="cls-21" d="M40,84.54a3.26,3.26,0,0,0-1.51,2.59c0,1,.67,1.34,1.51.87a3.28,3.28,0,0,0,1.5-2.59C41.53,84.46,40.86,84.07,40,84.54Z" transform="translate(-0.8 -2.45)"/><path class="cls-22" d="M41.52,84.25l-2.47,4.13-2.19-1.24A8.83,8.83,0,0,1,39.26,83Z" transform="translate(-0.8 -2.45)"/><path class="cls-19" d="M40.61,83.74C39,83,36.9,85.67,38.25,87.93l.8.45,2.47-4.13Z" transform="translate(-0.8 -2.45)"/><path class="cls-18" d="M40.32,84.37a3.73,3.73,0,0,0-1.71,2.94c0,1.09.76,1.54,1.71,1a3.76,3.76,0,0,0,1.71-3C42,84.28,41.26,83.83,40.32,84.37Z" transform="translate(-0.8 -2.45)"/><path class="cls-19" d="M40.32,85.52a1.57,1.57,0,0,0-.71,1.22c0,.45.32.64.71.41A1.55,1.55,0,0,0,41,85.93C41,85.48,40.71,85.3,40.32,85.52Z" transform="translate(-0.8 -2.45)"/><path class="cls-22" d="M39.61,86.83c.12.19.36.23.63.08A1.57,1.57,0,0,0,41,85.69V85.6c-.12-.19-.36-.23-.63-.08a1.57,1.57,0,0,0-.71,1.22Z" transform="translate(-0.8 -2.45)"/><polygon class="cls-19" points="43.02 65.35 46.6 60.99 58.57 54.17 57.36 48.9 64.3 52.89 47.71 61.62 46.34 63.28 43.02 65.35"/><polygon class="cls-18" points="44.13 65.98 47.71 61.62 64.3 52.89 63.39 55.38 44.13 65.98"/><polygon class="cls-25" points="37.57 68.14 37.89 58.51 24.27 50.63 17.01 56.48 37.57 68.14"/><path class="cls-19" d="M20,60.05l-1,.6V58.48L21.61,57h0a.3.3,0,0,1,.26,0l3,1.77a.71.71,0,0,1,.36.63l-.45,2a.28.28,0,0,1-.13.2l-2.19,1.27Z" transform="translate(-0.8 -2.45)"/><path class="cls-26" d="M22.24,62.29V60.74L25.18,59a.68.68,0,0,1,.07.32l-.45,2a.28.28,0,0,1-.13.2l-2.19,1.27Z" transform="translate(-0.8 -2.45)"/><path class="cls-27" d="M24.69,61.5l-2.07,1.19a.24.24,0,0,0,.12-.2V60.75l2.51-1.45v.05l-.45,2A.33.33,0,0,1,24.69,61.5Z" transform="translate(-0.8 -2.45)"/><path class="cls-28" d="M22.22,62.77,19.2,61a.72.72,0,0,1-.37-.63V58.7a.24.24,0,0,1,.13-.22.23.23,0,0,1,.25,0l3,1.77a.7.7,0,0,1,.36.62v1.7A.24.24,0,0,1,22.22,62.77Z" transform="translate(-0.8 -2.45)"/><path class="cls-24" d="M22.06,62.46l-2.7-1.58a.57.57,0,0,1-.3-.51V59c0-.23.06-.33.31-.18l2.7,1.58a.58.58,0,0,1,.3.51V62.3C22.37,62.5,22.32,62.61,22.06,62.46Z" transform="translate(-0.8 -2.45)"/><path class="cls-29" d="M22.37,62.25l-2.76-1.62a.62.62,0,0,1-.32-.55V58.75l.08,0,2.7,1.58a.63.63,0,0,1,.26.28h0a.45.45,0,0,1,0,.2h0Z" transform="translate(-0.8 -2.45)"/><path class="cls-30" d="M22.16,62l-2.43-1.43a.54.54,0,0,1-.28-.48V58.88l.07,0C19.7,59.8,19.68,60.29,22.16,62Z" transform="translate(-0.8 -2.45)"/><polygon class="cls-18" points="31.63 64.77 23.32 69.45 14.56 64.44 14.56 64.11 32.74 61.28 31.63 64.77"/><path class="cls-25" d="M33.54,63.73l-9.42,7.84-8.76-5,9.57-7.78C32,53.32,34.54,55.57,33.54,63.73Z" transform="translate(-0.8 -2.45)"/><path class="cls-31" d="M32.67,63.72c-2.44-4.84-6.13-4.9-7.78-4.47C30.91,54.76,33.24,56.79,32.67,63.72Z" transform="translate(-0.8 -2.45)"/><path class="cls-19" d="M32.67,63.72c-2.15-6.82-5.26-5.74-7.78-4.47C31.25,54.32,33.58,56.34,32.67,63.72Z" transform="translate(-0.8 -2.45)"/><path class="cls-31" d="M29.35,66c-2.19-4.34-5.5-4.4-7-4C27.77,57.94,29.86,59.76,29.35,66Z" transform="translate(-0.8 -2.45)"/><path class="cls-19" d="M29.35,66c-1.93-6.12-4.72-5.15-7-4C28.08,57.54,30.17,59.36,29.35,66Z" transform="translate(-0.8 -2.45)"/><path class="cls-31" d="M26,68.23c-1.94-3.84-4.87-3.89-6.17-3.54C24.63,61.12,26.48,62.73,26,68.23Z" transform="translate(-0.8 -2.45)"/><path class="cls-19" d="M26,68.23c-1.71-5.41-4.17-4.55-6.17-3.54C24.9,60.77,26.75,62.38,26,68.23Z" transform="translate(-0.8 -2.45)"/><path class="cls-31" d="M22.71,70.49c-1.69-3.34-4.23-3.38-5.37-3.09C21.49,64.3,23.1,65.7,22.71,70.49Z" transform="translate(-0.8 -2.45)"/><path class="cls-19" d="M22.71,70.49c-1.49-4.71-3.63-4-5.37-3.09C21.73,64,23.33,65.4,22.71,70.49Z" transform="translate(-0.8 -2.45)"/><path class="cls-19" d="M31.72,66.86l-1,.6V65.29l2.64-1.52h0a.3.3,0,0,1,.26,0l3,1.77a.71.71,0,0,1,.36.63l-.45,2a.28.28,0,0,1-.13.2l-2.19,1.27Z" transform="translate(-0.8 -2.45)"/><path class="cls-24" d="M34,69.1V67.55l2.94-1.71a.68.68,0,0,1,.07.32l-.45,2a.28.28,0,0,1-.13.2l-2.19,1.27Z" transform="translate(-0.8 -2.45)"/><path class="cls-18" d="M36.4,68.31,34.33,69.5a.23.23,0,0,0,.12-.2V67.56L37,66.11v0l-.45,2A.33.33,0,0,1,36.4,68.31Z" transform="translate(-0.8 -2.45)"/><path class="cls-28" d="M33.93,69.59l-3-1.77a.72.72,0,0,1-.37-.63V65.51a.26.26,0,0,1,.13-.22.23.23,0,0,1,.25,0l3,1.77a.7.7,0,0,1,.36.62v1.7A.25.25,0,0,1,33.93,69.59Z" transform="translate(-0.8 -2.45)"/><path class="cls-24" d="M33.77,69.27l-2.7-1.58a.57.57,0,0,1-.3-.51v-1.4c0-.23.06-.33.31-.18l2.7,1.58a.59.59,0,0,1,.3.52v1.41C34.08,69.31,34,69.42,33.77,69.27Z" transform="translate(-0.8 -2.45)"/><path class="cls-29" d="M34.08,69.06l-2.76-1.62a.62.62,0,0,1-.32-.55V65.56l.08,0,2.7,1.58a.61.61,0,0,1,.26.29h0a.45.45,0,0,1,0,.2h0Z" transform="translate(-0.8 -2.45)"/><path class="cls-30" d="M33.87,68.78l-2.43-1.43a.54.54,0,0,1-.28-.48V65.69l.07,0C31.41,66.61,31.39,67.1,33.87,68.78Z" transform="translate(-0.8 -2.45)"/><path class="cls-31" d="M41.41,58.59a36.57,36.57,0,0,1-14.59-7l16.37-14,13.6,7.87Z" transform="translate(-0.8 -2.45)"/><path class="cls-32" d="M60.28,35.61l4.28,2.44-8,13.29L52.45,49h0a3.86,3.86,0,0,1-1.64-3.58,12,12,0,0,1,5.51-9.47c1.55-.89,3-.95,4-.33Z" transform="translate(-0.8 -2.45)"/><path class="cls-33" d="M60.69,38.42a12.05,12.05,0,0,0-5.51,9.48c0,3.5,2.47,4.93,5.51,3.19a12,12,0,0,0,5.51-9.47C66.2,38.12,63.73,36.69,60.69,38.42Z" transform="translate(-0.8 -2.45)"/><path class="cls-34" d="M60.69,39.83a9.36,9.36,0,0,0-4.28,7.37c0,2.72,1.91,3.83,4.28,2.48A9.35,9.35,0,0,0,65,42.32C65,39.6,63.05,38.49,60.69,39.83Z" transform="translate(-0.8 -2.45)"/><path class="cls-18" d="M60.69,40.43a8.22,8.22,0,0,0-3.76,6.47c0,2.39,1.68,3.37,3.76,2.18a8.23,8.23,0,0,0,3.76-6.46C64.45,40.23,62.76,39.25,60.69,40.43Z" transform="translate(-0.8 -2.45)"/><path class="cls-14" d="M59.8,42.63a3.31,3.31,0,0,0-1.5,2.6c0,1,.67,1.35,1.5.87a3.26,3.26,0,0,0,1.51-2.59C61.31,42.55,60.64,42.16,59.8,42.63Z" transform="translate(-0.8 -2.45)"/><path class="cls-35" d="M60.27,42.89a3.32,3.32,0,0,0-1.51,2.6c0,1,.68,1.35,1.51.87a3.29,3.29,0,0,0,1.51-2.59C61.78,42.81,61.1,42.42,60.27,42.89Z" transform="translate(-0.8 -2.45)"/><path class="cls-36" d="M32.91,54.83C63.3,65.85,79.07,21.91,51.3,10Z" transform="translate(-0.8 -2.45)"/><path class="cls-19" d="M22.12,27.65C18.34,40.43,24.4,53,35.66,55.74S59.17,50.31,63,37.53,60.68,12.16,49.41,9.43,25.92,14.86,22.12,27.65Z" transform="translate(-0.8 -2.45)"/><path class="cls-37" d="M23.55,28c-3.53,11.89,2.1,23.6,12.6,26.14s21.85-5.05,25.39-17S59.42,13.58,48.93,11,27.08,16.1,23.55,28Z" transform="translate(-0.8 -2.45)"/><path class="cls-29" d="M37.35,33.14c-1.18,4,.71,7.93,4.24,8.78s7.33-1.69,8.52-5.69-.71-7.93-4.23-8.78S38.54,29.15,37.35,33.14Z" transform="translate(-0.8 -2.45)"/><path class="cls-1" d="M41.57,42a5.79,5.79,0,0,1-3.69-2.81,7.7,7.7,0,0,1-.58-6c1-3.42,4-5.9,7.2-5.9a5.77,5.77,0,0,1,5.09,3,7.75,7.75,0,0,1,.58,6c-1,3.42-4.05,5.9-7.21,5.9A5.94,5.94,0,0,1,41.57,42Zm-4.16-8.82a7.61,7.61,0,0,0,.57,6,5.73,5.73,0,0,0,3.62,2.76A6.17,6.17,0,0,0,43,42c3.11,0,6.09-2.45,7.1-5.82a7.63,7.63,0,0,0-.57-5.94,5.75,5.75,0,0,0-3.63-2.76,5.62,5.62,0,0,0-1.36-.16C41.39,27.35,38.41,29.79,37.41,33.16Z" transform="translate(-0.8 -2.45)"/><path class="cls-1" d="M36.72,52.22a15.7,15.7,0,0,1-9.94-7.57,20.83,20.83,0,0,1-1.56-16.27C28,19.18,36.1,12.51,44.6,12.51a16.38,16.38,0,0,1,3.76.44,15.72,15.72,0,0,1,9.94,7.58,20.83,20.83,0,0,1,1.57,16.25C57.13,46,49,52.66,40.47,52.66A16.23,16.23,0,0,1,36.72,52.22ZM25.49,28.46a20.56,20.56,0,0,0,1.53,16A15.43,15.43,0,0,0,36.79,52a15.69,15.69,0,0,0,3.68.43c8.38,0,16.42-6.59,19.13-15.67a20.57,20.57,0,0,0-1.54-16,15.44,15.44,0,0,0-9.77-7.45,15.71,15.71,0,0,0-3.69-.43C36.22,12.79,28.19,19.38,25.49,28.46Z" transform="translate(-0.8 -2.45)"/><g class="cls-38"><path class="cls-1" d="M37.33,50.94a14.43,14.43,0,0,1-9.16-7,19.16,19.16,0,0,1-1.44-15c2.52-8.48,10-14.63,17.86-14.63a14.88,14.88,0,0,1,3.46.41,14.45,14.45,0,0,1,9.16,7,19.2,19.2,0,0,1,1.45,15c-2.53,8.48-10,14.63-17.88,14.63A14.8,14.8,0,0,1,37.33,50.94ZM27,29.05a18.92,18.92,0,0,0,1.41,14.78,14.11,14.11,0,0,0,12.39,7.26c7.72,0,15.13-6.08,17.63-14.45A19,19,0,0,0,57,21.87,14.2,14.2,0,0,0,48,15a14.37,14.37,0,0,0-3.4-.4C36.87,14.61,29.47,20.68,27,29.05Z" transform="translate(-0.8 -2.45)"/></g><g class="cls-38"><path class="cls-1" d="M37.94,49.66a13.24,13.24,0,0,1-8.39-6.38,17.61,17.61,0,0,1-1.31-13.71c2.3-7.76,9.17-13.38,16.33-13.38a13.47,13.47,0,0,1,3.17.37A13.24,13.24,0,0,1,56.12,23a17.54,17.54,0,0,1,1.32,13.7C55.13,44.4,48.26,50,41.1,50A13.33,13.33,0,0,1,37.94,49.66Zm-9.47-20a17.28,17.28,0,0,0,1.29,13.52A13,13,0,0,0,38,49.43a13.49,13.49,0,0,0,3.11.36c7.06,0,13.83-5.55,16.11-13.21a17.29,17.29,0,0,0-1.29-13.51,13,13,0,0,0-8.24-6.28,13.43,13.43,0,0,0-3.11-.36C37.52,16.43,30.74,22,28.47,29.64Z" transform="translate(-0.8 -2.45)"/></g><g class="cls-38"><path class="cls-1" d="M38.54,48.38a12,12,0,0,1-7.6-5.79,15.91,15.91,0,0,1-1.19-12.43C31.84,23.13,38.07,18,44.56,18A11.94,11.94,0,0,1,55,24.16a15.89,15.89,0,0,1,1.2,12.42c-2.09,7-8.33,12.14-14.82,12.14A12,12,0,0,1,38.54,48.38ZM30,30.22a15.71,15.71,0,0,0,1.17,12.26,11.77,11.77,0,0,0,7.46,5.69,12.15,12.15,0,0,0,2.82.33c6.4,0,12.54-5,14.61-12a15.69,15.69,0,0,0-1.18-12.25,11.77,11.77,0,0,0-7.46-5.69,12.15,12.15,0,0,0-2.82-.33C38.16,18.25,32,23.28,30,30.22Z" transform="translate(-0.8 -2.45)"/></g><g class="cls-38"><path class="cls-1" d="M39.15,47.1a10.77,10.77,0,0,1-6.82-5.19,14.28,14.28,0,0,1-1.07-11.16c1.87-6.3,7.46-10.88,13.29-10.88a11,11,0,0,1,2.57.3,10.78,10.78,0,0,1,6.82,5.2A14.3,14.3,0,0,1,55,36.52c-1.88,6.31-7.47,10.88-13.3,10.88A11,11,0,0,1,39.15,47.1Zm-7.7-16.29a14.1,14.1,0,0,0,1.05,11,10.56,10.56,0,0,0,6.69,5.1,10.74,10.74,0,0,0,2.53.3c5.74,0,11.25-4.52,13.11-10.75a14.08,14.08,0,0,0-1.06-11,10.56,10.56,0,0,0-6.69-5.1,10.8,10.8,0,0,0-2.53-.3C38.81,20.07,33.3,24.58,31.45,30.81Z" transform="translate(-0.8 -2.45)"/></g><g class="cls-38"><path class="cls-1" d="M39.75,45.82a9.55,9.55,0,0,1-6-4.6,12.64,12.64,0,0,1-.94-9.87c1.66-5.59,6.61-9.64,11.76-9.64a9.76,9.76,0,0,1,2.29.27,9.55,9.55,0,0,1,6,4.6,12.69,12.69,0,0,1,1,9.87C52.14,42,47.19,46.09,42,46.09A9.67,9.67,0,0,1,39.75,45.82ZM32.94,31.4a12.47,12.47,0,0,0,.93,9.73,9.34,9.34,0,0,0,5.93,4.52,9.72,9.72,0,0,0,2.23.26c5.08,0,10-4,11.61-9.51a12.51,12.51,0,0,0-.94-9.73,9.27,9.27,0,0,0-8.17-4.78C39.45,21.89,34.58,25.89,32.94,31.4Z" transform="translate(-0.8 -2.45)"/></g><g class="cls-38"><path class="cls-1" d="M40.36,44.54a8.32,8.32,0,0,1-5.26-4,11.06,11.06,0,0,1-.82-8.6c1.44-4.86,5.75-8.39,10.24-8.39a8.87,8.87,0,0,1,2,.23,8.33,8.33,0,0,1,5.26,4,11,11,0,0,1,.82,8.59c-1.44,4.87-5.76,8.4-10.25,8.4A8.19,8.19,0,0,1,40.36,44.54ZM34.43,32a10.84,10.84,0,0,0,.81,8.48,8.17,8.17,0,0,0,5.16,3.93,8.37,8.37,0,0,0,1.94.23c4.43,0,8.67-3.49,10.1-8.28a10.86,10.86,0,0,0-.81-8.47,8.14,8.14,0,0,0-5.16-3.93,7.94,7.94,0,0,0-1.95-.23C40.1,23.71,35.85,27.19,34.43,32Z" transform="translate(-0.8 -2.45)"/></g><g class="cls-38"><path class="cls-1" d="M41,43.26a7,7,0,0,1-4.48-3.41,9.36,9.36,0,0,1-.7-7.32c1.23-4.14,4.9-7.14,8.72-7.14a6.85,6.85,0,0,1,1.69.2A7.06,7.06,0,0,1,50.68,29a9.38,9.38,0,0,1,.7,7.31c-1.23,4.15-4.9,7.15-8.73,7.15A7.22,7.22,0,0,1,41,43.26Zm-5-10.69a9.22,9.22,0,0,0,.69,7.21A6.93,6.93,0,0,0,41,43.13a7,7,0,0,0,1.65.19c3.77,0,7.38-3,8.6-7a9.26,9.26,0,0,0-.69-7.21,7,7,0,0,0-4.39-3.35,7.1,7.1,0,0,0-1.66-.19C40.74,25.53,37.13,28.49,35.92,32.57Z" transform="translate(-0.8 -2.45)"/></g><path class="cls-1" d="M41.57,42a5.79,5.79,0,0,1-3.69-2.81,7.7,7.7,0,0,1-.58-6c1-3.42,4-5.9,7.2-5.9a5.77,5.77,0,0,1,5.09,3,7.75,7.75,0,0,1,.58,6c-1,3.42-4.05,5.9-7.21,5.9A5.94,5.94,0,0,1,41.57,42Zm-4.16-8.82a7.61,7.61,0,0,0,.57,6,5.73,5.73,0,0,0,3.62,2.76A6.17,6.17,0,0,0,43,42c3.11,0,6.09-2.45,7.1-5.82a7.63,7.63,0,0,0-.57-5.94,5.75,5.75,0,0,0-3.63-2.76,5.62,5.62,0,0,0-1.36-.16C41.39,27.35,38.41,29.79,37.41,33.16Z" transform="translate(-0.8 -2.45)"/><path class="cls-28" d="M45.5,45.89A.81.81,0,0,0,46,47a.94.94,0,0,0,1.05-.7.82.82,0,0,0-.52-1.07A.92.92,0,0,0,45.5,45.89Z" transform="translate(-0.8 -2.45)"/><path class="cls-28" d="M52.82,31.48a.82.82,0,0,0,.52,1.07.93.93,0,0,0,1-.69.82.82,0,0,0-.52-1.08A.93.93,0,0,0,52.82,31.48Z" transform="translate(-0.8 -2.45)"/><path class="cls-28" d="M33.1,38.76a.82.82,0,0,0,.52,1.07.92.92,0,0,0,1-.69.82.82,0,0,0-.51-1.08A.94.94,0,0,0,33.1,38.76Z" transform="translate(-0.8 -2.45)"/><path class="cls-28" d="M40.43,24.35A.8.8,0,0,0,41,25.42a.91.91,0,0,0,1-.69.82.82,0,0,0-.52-1.07A.91.91,0,0,0,40.43,24.35Z" transform="translate(-0.8 -2.45)"/><path class="cls-39" d="M46.28,46.35a.27.27,0,0,0,.17-.06.28.28,0,0,0,0-.38L31.78,27.38l21.77,4.55a.27.27,0,0,0,.32-.21.28.28,0,0,0-.21-.32l-22.5-4.7a.26.26,0,0,0-.29.12.27.27,0,0,0,0,.31L46.06,46.24A.29.29,0,0,0,46.28,46.35Z" transform="translate(-0.8 -2.45)"/><path class="cls-39" d="M33.9,39.13H34a.28.28,0,0,0,.2-.33L31.43,27.16l9.86-2.45a.26.26,0,0,0,.2-.33.27.27,0,0,0-.33-.19L31,26.7a.26.26,0,0,0-.2.32l2.8,11.9A.28.28,0,0,0,33.9,39.13Z" transform="translate(-0.8 -2.45)"/><polygon class="cls-40" points="34.54 25.32 33 28.09 30.42 26.6 29.83 24.29 31.56 23.84 34.54 25.32"/><polygon class="cls-14" points="34.54 25.32 29.83 24.29 31.56 23.84 34.54 25.32"/><polygon class="cls-41" points="30.42 26.6 33 28.09 29.83 24.29 30.42 26.6"/><path class="cls-42" d="M41.53,34.15a2.31,2.31,0,0,0,1.46,3,2.59,2.59,0,0,0,2.94-2,2.31,2.31,0,0,0-1.46-3A2.62,2.62,0,0,0,41.53,34.15Z" transform="translate(-0.8 -2.45)"/><circle class="cls-2" cx="81.92" cy="45.75" r="10.61" transform="translate(-9.15 68.87) rotate(-45)"/><circle class="cls-43" cx="81.92" cy="45.75" r="10.19" transform="translate(-11.6 57.65) rotate(-37.98)"/><circle class="cls-44" cx="81.92" cy="45.75" r="9.76" transform="translate(-12.62 47.45) rotate(-31.72)"/><circle class="cls-45" cx="81.92" cy="45.75" r="9.34" transform="translate(-12.61 39.01) rotate(-26.57)"/><circle class="cls-46" cx="81.92" cy="45.75" r="8.91" transform="matrix(0.92, -0.38, 0.38, 0.92, -12.07, 32.38)"/><circle class="cls-47" cx="81.92" cy="45.75" r="8.49" transform="translate(-11.32 27.24) rotate(-19.33)"/><circle class="cls-48" cx="81.92" cy="45.75" r="8.07" transform="translate(-10.54 23.25) rotate(-16.85)"/><path class="cls-49" d="M84.48,38.39a7.79,7.79,0,1,0,4.78,9.92A7.8,7.8,0,0,0,84.48,38.39Z" transform="translate(-0.8 -2.45)"/><path class="cls-50" d="M74.15,46.49A15.69,15.69,0,0,0,80,49.29c.5.08,2.62,1.05,2.14,1.05-1.67,0-7.37-2.53-7-1.9,1.71,2.62,7.91,4.11,10.83,4a8.15,8.15,0,0,0,2.68-2.78l-2-.28c-3.72-.57-7.91-2.3-8.68-3.8a12.34,12.34,0,0,0-3.21-3c-.1.22-.19.44-.27.67A7.78,7.78,0,0,0,74.15,46.49Z" transform="translate(-0.8 -2.45)"/><path class="cls-51" d="M79.69,38.28a13.08,13.08,0,0,0,8,2.39h.17a9,9,0,0,1,.69.93c-.67.06-1.39.06-2.2.06-.52,0-3.69-.7-1.66.13a11.5,11.5,0,0,0,4.16.36h0a8.19,8.19,0,0,1,.6,1.51c-3.68.74-9.26-1.17-11.53-2.9q-.58-.43-1.11-.87A7.87,7.87,0,0,1,79.69,38.28Z" transform="translate(-0.8 -2.45)"/><path class="cls-50" d="M77.06,39.71l.31.25c.36.28,2.13,1.26,1.26.62-.29-.21-.82-.51-.9-.76s3.64,2.18,4.88,2.37c2.07.32,3.73,1,6.09,1h.56a7.75,7.75,0,0,1,.27,4.33c-2.49,0-6.23-1.32-7.46-1.77a24.52,24.52,0,0,1-3.62-1.48c-2.56-1.5,1.61,1.21,2.82,1.61,1.71.58,2.62,1.75,0,.72a26.39,26.39,0,0,1-6.17-2.91,3.29,3.29,0,0,1-.48-.41v0A7.8,7.8,0,0,1,77.06,39.71Z" transform="translate(-0.8 -2.45)"/><path class="cls-51" d="M74.13,46a15.27,15.27,0,0,0,5.73,2.79c.47.07,2.46,1,2,1-1.57,0-7.15-2.29-6.76-1.7,1.16,1.72,6.68,3.67,9,3.93.64.08,1.4.17,2.16.21a7.67,7.67,0,0,0,2.61-3l-2.72-.39c-3.49-.53-7.42-2.16-8.14-3.56a11.73,11.73,0,0,0-3.13-2.89,5.48,5.48,0,0,0-.33.79A7.8,7.8,0,0,0,74.13,46Z" transform="translate(-0.8 -2.45)"/><path class="cls-51" d="M80.8,44.24c1.6.4.13-.88.67-.92,1.59-.12,4.2,1.91,6.15,2.24.47.08,1.32,0,2.08.13a7.47,7.47,0,0,1-.44,2.62h0c-1.87.1-4.38-.8-4.46-1.13-.49-2-.29-1.16-2.75-1.61-2.22-.41-3.84-2-5.74-2.57-1.53-.47,1.32,2.14.94,2.46s-2-.53-3-1.27a7.74,7.74,0,0,1,.28-1,7.62,7.62,0,0,1,1.07-2C76.94,42,79.42,43.89,80.8,44.24Z" transform="translate(-0.8 -2.45)"/><path class="cls-13" d="M72.89,35.18h0a1.28,1.28,0,0,0,1.28,1.28,1.27,1.27,0,0,0-1.28,1.27h0a1.27,1.27,0,0,0-1.27-1.27A1.28,1.28,0,0,0,72.89,35.18Z" transform="translate(-0.8 -2.45)"/><path class="cls-15" d="M87.07,56.66h0a1.25,1.25,0,0,0,1.24,1.25,1.24,1.24,0,0,0-1.24,1.24h0a1.24,1.24,0,0,0-1.24-1.24A1.25,1.25,0,0,0,87.07,56.66Z" transform="translate(-0.8 -2.45)"/><path class="cls-14" d="M71.27,37.11h0a.63.63,0,0,0,.62.63.62.62,0,0,0-.62.62h0a.63.63,0,0,0-.63-.62A.63.63,0,0,0,71.27,37.11Z" transform="translate(-0.8 -2.45)"/><path class="cls-13" d="M88.73,35.09h0a.79.79,0,0,0,.79.79.8.8,0,0,0-.79.79h0a.79.79,0,0,0-.79-.79A.79.79,0,0,0,88.73,35.09Z" transform="translate(-0.8 -2.45)"/><path class="cls-52" d="M86.85,33.31h0A1.19,1.19,0,0,0,88,34.51a1.19,1.19,0,0,0-1.19,1.19h0a1.19,1.19,0,0,0-1.2-1.19A1.2,1.2,0,0,0,86.85,33.31Z" transform="translate(-0.8 -2.45)"/><path class="cls-14" d="M71.94,51.74h0a1.2,1.2,0,0,0,1.2,1.2,1.2,1.2,0,0,0-1.2,1.2h0a1.19,1.19,0,0,0-1.19-1.2A1.19,1.19,0,0,0,71.94,51.74Z" transform="translate(-0.8 -2.45)"/></svg>