<svg width="128" height="96" viewBox="0 0 128 96" fill="none" xmlns="http://www.w3.org/2000/svg">
<path d="M105.125 94.4H22.874V87.5921C22.874 70.6417 35.9342 65.64 53.4403 57.0259L72.7526 58.6932C91.6481 68.8356 104.986 70.6417 104.986 87.5921V94.4H105.125Z" fill="#00F2FE"/>
<path fill-rule="evenodd" clip-rule="evenodd" d="M79.4256 33.8229V21.7354C79.4256 17.4283 77.6194 14.3716 74.8407 12.1487C72.062 10.2035 68.1717 9.23096 63.8647 9.23096C55.2504 9.23096 48.3037 16.1778 48.3037 24.792V33.8229C48.3037 38.9616 50.9415 43.6839 54.8293 46.4631V61.1963C54.8293 66.1981 58.8586 70.3661 63.9992 70.3661C69.001 70.3661 73.1691 66.1979 73.1691 61.0573V46.3304C73.1706 46.3295 73.172 46.3283 73.1735 46.3272C76.9247 43.4096 79.4256 38.9635 79.4256 33.8229Z" fill="#C3E5DB"/>
<path opacity="0.34" d="M73.168 46.3286V48.1347C73.168 48.1347 72.1955 52.9976 67.6106 54.1091C64.276 54.9427 57.3291 50.08 54.6895 48.2737V46.6065C57.1903 48.4126 60.3858 49.5241 63.7203 49.5241C67.3327 49.3851 70.5283 48.2737 73.168 46.3286Z" fill="#00376E"/>
<path d="M67.8919 42.7155C66.5026 42.7155 64.9743 41.7428 64.8353 41.6039C64.5575 41.326 64.4185 40.9094 64.6964 40.6315C64.9743 40.3535 65.3911 40.2145 65.6689 40.4924C66.0858 40.7703 67.3362 41.465 68.1698 41.3262C69.2814 41.0482 69.4202 38.9641 69.4202 38.9641C69.4202 38.5473 69.6982 38.2695 70.115 38.2695C70.5318 38.2695 70.8097 38.5473 70.8097 38.9641C70.8097 39.1031 70.8097 42.1598 68.5866 42.7155C68.3087 42.7155 68.031 42.7155 67.8919 42.7155Z" fill="#00A0A9"/>
<path d="M69.2791 35.7687C68.5844 35.7687 67.8896 35.6297 66.917 35.4908C66.5002 35.4908 66.2224 35.0738 66.3613 34.657C66.3613 34.2402 66.7781 34.1013 67.1949 34.1013C68.3064 34.2402 69.5568 34.3793 69.9736 34.2402C69.9736 33.2677 69.418 29.6553 68.7232 26.5986C68.5844 26.1818 68.8623 25.9041 69.2791 25.7652C69.6959 25.6261 69.9736 25.9041 70.1127 26.3209C71.9188 34.5181 71.3631 34.9349 71.0852 35.2129C70.6684 35.6297 70.1127 35.7687 69.2791 35.7687Z" fill="#00A0A9"/>
<path fill-rule="evenodd" clip-rule="evenodd" d="M60.9448 24.0983L55.943 24.7931C54.5537 24.5153 59.8332 61.0558 59.8332 61.0558L34.8246 64.1124C32.3236 56.8876 31.3512 15.9011 43.8555 7.56486C45.9396 1.59055 68.8643 -1.60501 78.5899 6.31443C82.619 9.64893 82.758 23.1259 82.758 23.1259L81.1456 23.1908L87.3411 56.7495C87.3411 56.7495 79.1739 56.9174 73.1686 55.8686V46.3305L73.1729 46.3273C76.9243 43.4097 79.4251 38.9636 79.4251 33.823V23.2603L65.5297 23.8206L62.8899 16.7348L60.9448 24.0983Z" fill="#0DBFC8"/>
<path d="M33.1512 67.3071L33.0121 67.0293C30.5113 59.8045 29.8166 26.4596 38.1529 12.7047C38.2918 12.5658 38.4307 12.4269 38.5697 12.5658C38.7086 12.7048 38.8475 12.8437 38.7086 12.9826C30.7892 26.1816 31.3449 58.9709 33.568 66.4735L58.0209 63.4168C56.7705 54.5248 53.0192 27.2932 54.2696 26.1816L54.4086 26.0428H54.5475L59.2713 25.348L61.3555 16.8728L64.2731 24.9312L84.419 24.2365C84.419 22.0135 84.0022 9.09237 80.3899 6.17468C78.7227 4.7853 76.4996 3.53487 73.8598 2.8402C73.7209 2.8402 73.5819 2.56229 73.5819 2.42335C73.5819 2.28442 73.8598 2.14551 73.9987 2.14551C76.7776 2.97912 79.0004 4.22956 80.8067 5.61893C84.9748 9.09237 85.1137 23.9586 85.1137 24.5144V24.7924L63.8563 25.626L61.6332 19.2348L59.966 25.9037L54.8254 26.5984C54.2696 28.5436 56.9094 50.218 58.8545 63.5559V63.9727L33.1512 67.3071Z" fill="#00A0A9"/>
<path d="M90.2582 58.6948H80.6715C80.5324 58.6948 80.3936 58.5558 80.3936 58.4169C80.3936 58.278 80.5324 58.139 80.6715 58.139H89.4244L87.4793 49.386C87.4793 49.247 87.6184 48.9692 87.7572 48.9692C87.8961 48.9692 88.174 49.1081 88.174 49.247L90.2582 58.6948Z" fill="#00A0A9"/>
</svg>
