<svg width="24" height="24" viewBox="0 0 24 24" fill="none" xmlns="http://www.w3.org/2000/svg">
<path d="M12.4161 0.125962C12.1642 -0.0419874 11.836 -0.0419874 11.584 0.125962L0.334033 7.62596C0.0590402 7.80929 -0.0635344 8.15102 0.0322393 8.46734C0.128013 8.78366 0.419558 9 0.750058 9H3.56256V19.5H2.25006C1.83584 19.5 1.50006 19.8358 1.50006 20.25C1.50006 20.6642 1.83584 21 2.25006 21H21.7501C22.1643 21 22.5001 20.6642 22.5001 20.25C22.5001 19.8358 22.1643 19.5 21.7501 19.5H20.4376V9H23.2501C23.5806 9 23.8721 8.78366 23.9679 8.46734C24.0637 8.15102 23.9411 7.80929 23.6661 7.62596L12.4161 0.125962ZM18.5626 9V19.5H16.6876V9H18.5626ZM14.8126 9V19.5H12.9376V9H14.8126ZM11.0626 9V19.5H9.18756V9H11.0626ZM7.31256 9V19.5H5.43756V9H7.31256ZM12 6C11.1716 6 10.5 5.32843 10.5 4.5C10.5 3.67157 11.1716 3 12 3C12.8284 3 13.5 3.67157 13.5 4.5C13.5 5.32843 12.8284 6 12 6Z" fill="black"/>
<path d="M0.750058 22.5C0.335845 22.5 5.83126e-05 22.8358 5.83126e-05 23.25C5.83126e-05 23.6642 0.335845 24 0.750058 24H23.2501C23.6643 24 24.0001 23.6642 24.0001 23.25C24.0001 22.8358 23.6643 22.5 23.2501 22.5H0.750058Z" fill="black"/>
</svg>
