<svg width="22" height="22" viewBox="0 0 22 22" fill="none" xmlns="http://www.w3.org/2000/svg">
<path d="M0.5 15.5C0.5 14.6716 1.17157 14 2 14H5C5.82843 14 6.5 14.6716 6.5 15.5V20C6.5 20.8284 5.82843 21.5 5 21.5H2C1.17157 21.5 0.5 20.8284 0.5 20V15.5Z" fill="black"/>
<path d="M8 9.5C8 8.67157 8.67157 8 9.5 8H12.5C13.3284 8 14 8.67157 14 9.5V20C14 20.8284 13.3284 21.5 12.5 21.5H9.5C8.67157 21.5 8 20.8284 8 20V9.5Z" fill="black"/>
<path d="M15.5 2C15.5 1.17157 16.1716 0.5 17 0.5H20C20.8284 0.5 21.5 1.17157 21.5 2V20C21.5 20.8284 20.8284 21.5 20 21.5H17C16.1716 21.5 15.5 20.8284 15.5 20V2Z" fill="black"/>
</svg>
