<svg width="1185" height="707" viewBox="0 0 1185 707" fill="none" xmlns="http://www.w3.org/2000/svg">
<rect width="1185" height="707" fill="black"/>
<mask id="mask0_3178_6392" style="mask-type:alpha" maskUnits="userSpaceOnUse" x="0" y="0" width="1185" height="707">
<rect width="1185" height="707" fill="black"/>
</mask>
<g mask="url(#mask0_3178_6392)">
<g opacity="0.25" filter="url(#filter0_f_3178_6392)">
<path d="M464.892 396.19C496.757 369.118 544.577 367.09 568.946 381.16C616.871 408.829 627.897 480.764 619.544 514.915C609.32 556.715 579.162 613.898 545.711 642.798C512.26 671.698 456.752 699.349 413.766 702.622C350.088 707.47 270.877 658.257 242.703 621.109C220.798 592.226 226.291 571.036 229.232 563.599C236.493 541.064 265.984 502.404 325.859 528.042C385.735 553.68 413.611 502.585 420.065 473.833C426.519 445.081 433.028 423.262 464.892 396.19Z" fill="url(#paint0_linear_3178_6392)"/>
</g>
<g opacity="0.25" filter="url(#filter1_f_3178_6392)">
<path d="M73.7857 533.008C106.433 559.131 117.534 605.689 108.366 632.292C90.3342 684.61 21.8179 709.141 -13.2991 707.448C-56.2809 705.375 -118.162 686.664 -152.906 659.332C-187.651 632.001 -225.371 582.777 -236.774 541.202C-253.665 479.615 -220.446 392.478 -189.346 357.742C-165.166 330.735 -143.317 332.091 -135.457 333.561C-111.951 336.395 -68.3807 357.98 -82.1409 421.644C-95.9011 485.307 -40.431 502.938 -10.976 503.795C18.4791 504.652 41.1381 506.885 73.7857 533.008Z" fill="url(#paint1_linear_3178_6392)"/>
</g>
<g opacity="0.25" filter="url(#filter2_f_3178_6392)">
<path d="M162.186 455.7C138.415 490.097 92.7482 504.432 65.568 497.149C12.1154 482.827 -17.1539 416.197 -17.9244 381.048C-18.8674 338.026 -4.53658 274.986 20.2944 238.413C45.1255 201.84 91.5863 160.765 132.26 146.478C192.513 125.314 281.763 152.348 318.592 180.939C347.226 203.168 347.404 225.058 346.488 233.002C345.307 256.648 326.827 301.624 262.356 292.357C197.885 283.089 184.183 339.658 185.391 369.101C186.599 398.543 185.958 421.303 162.186 455.7Z" fill="url(#paint2_linear_3178_6392)"/>
</g>
<g opacity="0.25" filter="url(#filter3_f_3178_6392)">
<path d="M917.028 132.622C886.142 104.438 878.082 57.2583 888.956 31.3052C910.341 -19.7341 980.303 -39.7719 1015.24 -35.8058C1057.99 -30.9516 1118.53 -8.26878 1151.43 21.2575C1184.33 50.7838 1218.78 102.349 1227.47 144.575C1240.33 207.128 1201.53 291.929 1168.25 324.576C1142.37 349.958 1120.65 347.189 1112.9 345.213C1089.63 340.861 1047.55 316.497 1065.41 253.859C1083.27 191.222 1029.06 170.033 999.718 167.268C970.38 164.503 947.914 160.806 917.028 132.622Z" fill="url(#paint3_linear_3178_6392)"/>
</g>
</g>
<defs>
<filter id="filter0_f_3178_6392" x="26.392" y="172.573" width="795.699" height="730.381" filterUnits="userSpaceOnUse" color-interpolation-filters="sRGB">
<feFlood flood-opacity="0" result="BackgroundImageFix"/>
<feBlend mode="normal" in="SourceGraphic" in2="BackgroundImageFix" result="shape"/>
<feGaussianBlur stdDeviation="100" result="effect1_foregroundBlur_3178_6392"/>
</filter>
<filter id="filter1_f_3178_6392" x="-441.334" y="132.908" width="752.796" height="774.621" filterUnits="userSpaceOnUse" color-interpolation-filters="sRGB">
<feFlood flood-opacity="0" result="BackgroundImageFix"/>
<feBlend mode="normal" in="SourceGraphic" in2="BackgroundImageFix" result="shape"/>
<feGaussianBlur stdDeviation="100" result="effect1_foregroundBlur_3178_6392"/>
</filter>
<filter id="filter2_f_3178_6392" x="-217.968" y="-61.0869" width="764.702" height="760.084" filterUnits="userSpaceOnUse" color-interpolation-filters="sRGB">
<feFlood flood-opacity="0" result="BackgroundImageFix"/>
<feBlend mode="normal" in="SourceGraphic" in2="BackgroundImageFix" result="shape"/>
<feGaussianBlur stdDeviation="100" result="effect1_foregroundBlur_3178_6392"/>
</filter>
<filter id="filter3_f_3178_6392" x="684.361" y="-236.293" width="745.63" height="782.719" filterUnits="userSpaceOnUse" color-interpolation-filters="sRGB">
<feFlood flood-opacity="0" result="BackgroundImageFix"/>
<feBlend mode="normal" in="SourceGraphic" in2="BackgroundImageFix" result="shape"/>
<feGaussianBlur stdDeviation="100" result="effect1_foregroundBlur_3178_6392"/>
</filter>
<linearGradient id="paint0_linear_3178_6392" x1="532.729" y1="360.25" x2="340.729" y2="692.804" gradientUnits="userSpaceOnUse">
<stop stop-color="#0082FA"/>
<stop offset="1" stop-color="#00F2FE"/>
</linearGradient>
<linearGradient id="paint1_linear_3178_6392" x1="121.992" y1="592.755" x2="-241.051" y2="467.633" gradientUnits="userSpaceOnUse">
<stop stop-color="#0082FA"/>
<stop offset="1" stop-color="#00F2FE"/>
</linearGradient>
<linearGradient id="paint2_linear_3178_6392" x1="105.963" y1="507.973" x2="205.349" y2="137.058" gradientUnits="userSpaceOnUse">
<stop stop-color="#0082FA"/>
<stop offset="1" stop-color="#00F2FE"/>
</linearGradient>
<linearGradient id="paint3_linear_3178_6392" x1="872.796" y1="69.8765" x2="1226.97" y2="218.268" gradientUnits="userSpaceOnUse">
<stop stop-color="#0082FA"/>
<stop offset="1" stop-color="#00F2FE"/>
</linearGradient>
</defs>
</svg>
