<svg width="244" height="183" viewBox="0 0 244 183" fill="none" xmlns="http://www.w3.org/2000/svg">
<path d="M237.512 63.6117C230.438 96.6252 227.37 141.506 164.559 162.297C145.069 168.748 115.845 161.768 86.455 162.297C65.9184 162.297 39.3258 159.725 29.4653 152.358C8.64655 136.803 2.5673 118.885 7.32185 92.9649C23.2859 5.93535 60.1918 50.7376 132.63 44.0429C196.528 44.0429 256.051 -13.8051 237.512 63.6117Z" fill="#B5CDFB" fill-opacity="0.2"/>
<path d="M132.638 36.1186C137.302 34.3164 144.242 31.7581 149.548 30.3295C161.035 27.2362 164.097 27.0043 175.92 28.3318C178.045 29.0001 181.362 30.0429 181.362 30.0429C181.362 30.0429 177.154 35.4595 174.031 38.5312C167.178 45.272 162.066 48.9973 153.993 53.2212C145.92 57.4449 138.714 59.4103 135.583 59.3099L133.761 59.2846L132.472 59.0022L130.202 56.9767L118.246 72.4197C118.803 72.2069 123.106 73.1539 123.372 73.8502L124.618 74.4742C124.618 74.4742 123.211 75.8303 121.858 76.1273C118.176 76.9359 113.686 77.4547 113.686 77.4547L112.04 76.2853L112.222 73.6245L114.879 73.0081L118.592 62.8854C118.206 63.5876 117.66 64.3263 116.891 64.957C115.42 66.1624 113.989 66.547 112.103 66.7867C110.319 67.013 110.068 66.1557 108.27 66.1563C106.999 66.1566 105.045 66.5909 105.045 66.5909C105.045 66.5909 106.134 65.5521 106.955 65.0628C107.986 64.4477 111.669 62.4408 111.669 62.4408C111.669 62.4408 108.283 61.365 107.036 61.48C104.627 61.7024 103.015 64.673 99.8634 64.7798C97.0269 64.8762 93.9678 62.1446 93.9678 62.1446C93.9678 62.1446 97.5979 63.5507 99.9793 60.6455C102.361 57.7401 103.422 54.6907 105.686 52.8348C106.824 51.9015 110.759 51.4443 110.759 51.4443C110.759 51.4443 106.757 50.4198 105.882 50.5085C104.47 50.6513 102.748 51.706 102.748 51.706C102.748 51.706 105.407 48.4175 108.504 47.7108C110.581 47.2368 114.507 48.6904 114.507 48.6904C114.507 48.6904 118.178 44.3527 120.263 42.7179C120.915 42.2074 121.679 41.6745 122.461 41.1606L121.844 33.2666L120.241 33.8632C119.573 33.42 119.04 32.99 118.88 32.5721L118.576 30.9925L126.823 25.9453L129.874 25.5771L131.231 26.7904L129.905 28.7754L126.929 30.4795L132.638 36.1186Z" fill="#2249B3"/>
<path d="M132.638 36.1186C137.302 34.3164 144.242 31.7581 149.548 30.3295C161.035 27.2362 164.097 27.0043 175.92 28.3318C178.045 29.0001 181.362 30.0429 181.362 30.0429C181.362 30.0429 177.154 35.4595 174.031 38.5312C167.178 45.272 162.066 48.9973 153.993 53.2212C145.92 57.4449 138.714 59.4103 135.583 59.3099L133.527 59.2596L132.472 59.0022L130.202 56.9767L118.246 72.4197C118.803 72.2069 123.106 73.1539 123.372 73.8502L124.618 74.4742C124.618 74.4742 123.211 75.8303 121.858 76.1273C118.176 76.9359 113.686 77.4547 113.686 77.4547L112.04 76.2853L112.222 73.6245L114.879 73.0081L118.592 62.8854C118.206 63.5876 117.66 64.3263 116.891 64.957C115.42 66.1624 113.989 66.547 112.103 66.7867C110.319 67.013 110.068 66.1557 108.27 66.1563C106.999 66.1566 105.045 66.5909 105.045 66.5909C105.045 66.5909 106.134 65.5521 106.955 65.0628C107.986 64.4477 111.669 62.4408 111.669 62.4408C111.669 62.4408 108.283 61.365 107.036 61.48C104.627 61.7024 103.015 64.673 99.8634 64.7798C97.0269 64.8762 93.9678 62.1446 93.9678 62.1446C93.9678 62.1446 97.5979 63.5507 99.9793 60.6455C102.361 57.7401 103.422 54.6907 105.686 52.8348C106.824 51.9015 110.759 51.4443 110.759 51.4443C110.759 51.4443 106.757 50.4198 105.882 50.5085C104.47 50.6513 102.748 51.706 102.748 51.706C102.748 51.706 105.407 48.4175 108.504 47.7108C110.581 47.2368 114.507 48.6904 114.507 48.6904C114.507 48.6904 118.178 44.3527 120.263 42.7179C120.915 42.2074 121.679 41.6745 122.461 41.1606L121.844 33.2666L120.241 33.8632C119.573 33.42 119.04 32.99 118.88 32.5721L118.576 30.9925L126.823 25.9453L129.874 25.5771L131.231 26.7904L129.905 28.7754L126.929 30.4795L132.638 36.1186Z" fill="black" fill-opacity="0.2"/>
<path d="M116.346 54.4135C114.388 50.074 114.507 48.6899 114.507 48.6899C114.507 48.6899 110.581 47.2363 108.504 47.7102C105.406 48.4172 102.748 51.7057 102.748 51.7057C102.748 51.7057 104.47 50.651 105.882 50.508C106.757 50.4196 110.759 51.4437 110.759 51.4437C110.759 51.4437 106.824 51.9012 105.686 52.8345C103.422 54.6905 102.36 57.7399 99.9793 60.645C97.5979 63.5504 93.9678 62.1444 93.9678 62.1444C93.9678 62.1444 97.0266 64.8759 99.8631 64.7796C103.015 64.6725 104.627 61.7021 107.036 61.4798C108.283 61.3648 111.669 62.4405 111.669 62.4405C111.669 62.4405 107.986 64.4474 106.955 65.0623C106.134 65.5515 105.044 66.5903 105.044 66.5903C105.044 66.5903 106.999 66.156 108.27 66.1557C110.068 66.1551 110.319 67.0128 112.103 66.7862C113.989 66.5464 115.42 66.1618 116.89 64.9565C117.66 64.3257 118.206 63.587 118.592 62.8852L120.532 59.0773C120.532 59.0773 118.304 58.7531 116.346 54.4135Z" fill="#75E0E6"/>
<path d="M116.346 54.4134C114.388 50.0739 114.507 48.6898 114.507 48.6898C114.507 48.6898 111.81 47.6391 109.734 48.113C106.637 48.82 106.153 49.4456 106.153 49.4456C106.153 49.4456 108.9 49.6454 110.319 49.685C111.726 49.7247 114.001 51.2979 114.001 51.2979C114.001 51.2979 108.74 53.7403 107.601 54.6736C105.338 56.5295 105.721 56.3477 103.34 59.2532C100.958 62.1583 97.917 62.8513 97.917 62.8513C97.917 62.8513 98.1131 62.8134 100.95 62.7171C104.101 62.61 105.267 58.5547 109.785 58.1366C113.341 57.8075 114.948 60.7892 114.948 60.7892C114.948 60.7892 114.792 62.4383 112.574 63.7608C110.702 64.8768 106.198 66.1334 106.198 66.1334C106.198 66.1334 108.686 65.6463 109.952 65.5319C112.068 65.341 113.079 65.7939 114.643 64.7804C116.086 63.8462 115.342 64.5205 117.026 62.8995C117.743 62.2095 118.098 61.5062 119.126 60.5272L120.532 59.0772C120.532 59.0772 118.303 58.753 116.346 54.4134Z" fill="black" fill-opacity="0.08"/>
<path d="M132.637 36.1186C129.578 37.3002 127.874 38.6135 127.874 38.6135C127.874 38.6135 124.887 39.5682 122.46 41.1606L121.842 33.2669L120.24 33.8631C119.572 33.42 119.038 32.9899 118.879 32.5721L118.574 30.9925L126.821 25.9453L129.873 25.5771L131.23 26.7905L129.904 28.7754L126.928 30.4795L132.637 36.1186Z" fill="#2249B3"/>
<path d="M120.531 59.0774L130.201 56.9766L118.246 72.4193C118.802 72.2064 123.105 73.1535 123.371 73.8498L124.617 74.4738C124.617 74.4738 123.211 75.8298 121.857 76.1272C118.176 76.9355 113.685 77.4543 113.685 77.4543L112.039 76.2849L112.221 73.6244L114.879 73.0077L118.591 62.885L120.531 59.0774Z" fill="#2249B3"/>
<path d="M119.993 75.7044C121.659 75.3667 123.372 73.8506 123.372 73.8506L124.617 74.4743C124.617 74.4743 123.211 75.8303 121.857 76.1277C118.176 76.936 113.685 77.4551 113.685 77.4551L112.039 76.2854C112.039 76.2854 118.326 76.042 119.993 75.7044Z" fill="black" fill-opacity="0.2"/>
<path d="M121.774 31.3038L125.477 29.23L128.445 27.3197L129.874 25.5771L131.231 26.7904L129.905 28.7754L126.929 30.4795L125.477 29.23L121.774 31.3038L121.843 33.2668L120.241 33.8631C119.573 33.4199 119.039 32.9898 118.88 32.572L121.774 31.3038Z" fill="black" fill-opacity="0.2"/>
<path d="M153.187 40.1082C164.978 34.6527 164.662 34.8162 175.92 28.3315C178.045 28.9998 179.395 29.7485 179.395 29.7485C179.395 29.7485 176.435 33.5285 173.313 36.5998C166.46 43.3409 161.347 47.0662 153.274 51.2901C145.201 55.5138 137.394 57.5963 134.864 57.3789C134.864 57.3789 134.844 57.3773 134.807 57.3737C133.657 57.2709 132.813 57.0699 132.082 56.6612C132 56.617 131.922 56.57 131.848 56.5203C131.2 56.104 130.629 55.5031 129.987 54.6339C129.544 54.0339 129.067 53.3059 128.507 52.4223C127.381 50.6438 125.772 46.3217 125.772 46.3217C125.772 46.3217 125 43.5053 125.393 41.4258C125.785 39.3466 127.875 38.6131 127.875 38.6131C127.875 38.6131 128.384 41.2575 129.364 42.5986C131.114 44.9913 134.239 45.7574 136.243 45.8059C141.26 45.9279 146.844 43.0429 153.187 40.1082Z" fill="#B5CDFB"/>
<path d="M153.187 40.1082C164.978 34.6527 164.662 34.8162 175.92 28.3315C178.045 28.9998 179.395 29.7485 179.395 29.7485C179.395 29.7485 176.435 33.5285 173.313 36.5998C166.46 43.3409 161.347 47.0662 153.274 51.2901C145.201 55.5138 137.394 57.5963 134.864 57.3789C134.864 57.3789 134.844 57.3773 134.807 57.3737C133.657 57.2709 132.813 57.0699 132.082 56.6612C132 56.617 131.922 56.57 131.848 56.5203C131.2 56.104 130.629 55.5031 129.987 54.6339C129.544 54.0339 129.067 53.3059 128.507 52.4223C127.381 50.6438 125.772 46.3217 125.772 46.3217C125.772 46.3217 125 43.5053 125.393 41.4258C125.785 39.3466 127.875 38.6131 127.875 38.6131C127.875 38.6131 128.384 41.2575 129.364 42.5986C131.114 44.9913 134.239 45.7574 136.243 45.8059C141.26 45.9279 146.844 43.0429 153.187 40.1082Z" fill="black" fill-opacity="0.2"/>
<path d="M181.362 30.0426L175.92 28.3315C171.771 30.7213 169.193 32.2082 167.003 33.4063L171.797 40.6781C172.524 39.9967 173.267 39.2824 174.031 38.5309C177.154 35.4592 181.362 30.0426 181.362 30.0426Z" fill="#75E0E6"/>
<path d="M181.362 30.0426L175.92 28.3315C171.771 30.7213 169.193 32.2082 167.003 33.4063L171.797 40.6781C172.524 39.9967 173.267 39.2824 174.031 38.5309C177.154 35.4592 181.362 30.0426 181.362 30.0426Z" fill="black" fill-opacity="0.2"/>
<path d="M174.03 38.5309C177.153 35.4595 181.361 30.0428 181.361 30.0428L179.654 29.5059C179.654 29.5059 176.82 32.9722 174.847 35.0835C173.334 36.7024 170.728 39.057 170.728 39.057L171.797 40.6784C172.524 39.9967 173.266 39.2827 174.03 38.5309Z" fill="black" fill-opacity="0.2"/>
<path d="M153.187 40.1082C164.978 34.6527 164.662 34.8162 175.92 28.3316C164.097 27.0041 161.035 27.236 149.548 30.3292C144.242 31.758 137.302 34.316 132.638 36.1182C129.579 37.3001 127.875 38.6134 127.875 38.6134C127.875 38.6134 128.383 41.2575 129.364 42.5986C131.113 44.9913 134.239 45.7575 136.243 45.8063C141.26 45.928 146.844 43.0433 153.187 40.1082Z" fill="#B5CDFB"/>
<path d="M175.92 28.3316C171.29 27.8118 168.004 27.531 165.029 27.5676L167.168 33.3159C169.323 32.1334 171.874 30.6618 175.92 28.3316Z" fill="#75E0E6"/>
<path d="M31.0752 175.116L64.2333 82.7387L65.9785 76.3892H69.5933L55.1336 175.116H31.0752Z" fill="#75E0E6"/>
<path d="M114.469 175.366L81.3106 82.9891L79.5654 76.6396H75.9502L90.4102 175.366H114.469Z" fill="#75E0E6"/>
<path d="M141.026 27.107C141.026 27.107 140.263 25.1789 139.9 24.0819C139.426 22.6473 139.748 21.472 139.344 20.016C138.782 17.9928 136.107 16.3735 136.107 16.3735C134.045 15.5463 132.69 16.2739 132.018 17.8952L132.069 19.6618C132.069 19.6618 132.55 21.1569 132.966 22.0706C133.524 23.2985 134.104 23.8488 134.686 25.0657C135.381 26.5186 135.754 27.3634 136.124 28.9309C136.529 30.6476 136.624 31.9017 137.385 33.9465C137.811 35.0914 139.264 35.5221 140.48 35.4095C143.902 35.093 146.114 32.8982 147.824 32.0073C149.965 30.891 150.032 30.2378 152.323 31.0026C153.632 31.4397 152.529 34.5074 152.615 35.8844C152.856 39.7686 152.739 44.2353 152.598 44.7069L152.555 44.7227C152.57 44.7615 152.584 44.7544 152.598 44.7069L154.041 44.1701C154.937 43.8364 155.324 38.2497 155.317 36.7348C155.299 32.5148 153.593 29.7353 153.421 27.6704C153.357 26.8989 153.295 26.6506 152.762 26.3506C152.18 26.0233 151.405 26.2329 148.616 27.0978C145.407 28.0931 143.493 29.2819 142.214 28.9288C141.512 28.7353 141.026 27.107 141.026 27.107Z" fill="#F7BBBE"/>
<path d="M148.149 27.0471C144.939 28.0424 143.493 29.2815 142.214 28.9285L136.124 28.9306C136.529 30.6472 136.624 31.9014 137.385 33.9461C137.811 35.0911 139.264 35.5218 140.48 35.4092C143.902 35.0926 146.115 32.8978 147.824 32.0069C149.965 30.8903 150.032 30.2375 152.323 31.0023C153.632 31.4393 152.529 34.507 152.615 35.8841C152.856 39.7683 152.739 44.2347 152.598 44.7065L152.555 44.7224C152.57 44.7611 152.584 44.7541 152.598 44.7065L154.041 44.1697C154.937 43.8361 155.324 38.2494 155.318 36.7344C155.299 32.5145 153.849 29.5404 153.677 27.4756C153.613 26.704 153.222 26.4533 152.688 26.1533C152.106 25.8259 150.938 26.1822 148.149 27.0471Z" fill="#2249B3"/>
<path d="M148.149 27.0471C144.939 28.0424 143.493 29.2815 142.214 28.9285L136.124 28.9306C136.529 30.6472 136.624 31.9014 137.385 33.9461C137.811 35.0911 139.264 35.5218 140.48 35.4092C143.902 35.0926 146.115 32.8978 147.824 32.0069C149.965 30.8903 150.032 30.2375 152.323 31.0023C153.632 31.4393 152.529 34.507 152.615 35.8841C152.856 39.7683 152.739 44.2347 152.598 44.7065L152.555 44.7224C152.57 44.7611 152.584 44.7541 152.598 44.7065L154.041 44.1697C154.937 43.8361 154.972 38.2829 154.966 36.7677C154.947 32.5477 153.849 29.5404 153.677 27.4756C153.613 26.704 153.222 26.4533 152.688 26.1533C152.106 25.8259 150.938 26.1822 148.149 27.0471Z" fill="black" fill-opacity="0.2"/>
<path d="M144.426 9.8904C144.46 10.0621 144.495 10.9204 144.495 10.9204H145.113C145.113 10.9204 145.01 10.5771 145.009 10.4054C145.009 10.2337 144.945 9.65433 144.838 9.54706C144.731 9.43976 144.518 9.17441 144.323 9.03204C144.152 8.90714 143.98 8.86035 143.808 8.86035C143.636 8.86035 143.842 9.20369 144.014 9.37537C144.185 9.54706 144.392 9.71871 144.426 9.8904Z" fill="#DDA8AA"/>
<path d="M144.221 10.062C144.255 10.2337 144.324 11.607 144.324 11.607L144.633 11.2637C144.633 11.2637 144.805 10.7487 144.804 10.577C144.804 10.4053 144.74 9.8259 144.633 9.71864C144.525 9.61134 144.176 9.51764 143.98 9.37527C143.809 9.2504 143.637 9.20361 143.465 9.20361C143.293 9.20361 143.499 9.54695 143.671 9.71864C143.843 9.89029 144.187 9.89029 144.221 10.062Z" fill="#EDB4B7"/>
<path d="M145.037 15.0164C145.714 19.921 145.351 18.0883 145.251 21.7609L142.78 21.118L143.386 15.1207C143.386 15.1207 143.386 13.8379 143.366 13.6829C143.347 13.5279 142.95 12.9048 142.95 12.9048C142.95 12.9048 142.73 12.5616 142.73 12.3898C142.73 12.218 142.841 12.0384 142.95 11.7781C143.082 11.4649 142.607 11.092 142.95 11.092C143.294 11.092 143.456 11.5588 143.366 11.8103C143.312 11.9619 143.195 12.2181 143.366 12.3898C143.574 12.5974 143.531 12.5366 143.637 12.5616C144.077 12.6654 144.495 10.9998 144.495 10.9998C144.495 10.9998 144.592 10.9522 144.077 10.6089C143.886 10.6089 143.782 10.7544 143.637 10.8448C143.43 10.9736 143.122 10.9436 143.122 10.8449C143.122 10.7616 143.277 10.7043 143.366 10.6089C143.461 10.5076 143.665 10.3697 143.809 10.3301C144.022 10.2713 143.98 10.1584 144.323 10.2334C144.667 10.5018 145.123 10.8361 145.161 10.9998C145.199 11.1636 144.772 13.3976 144.805 13.6178C144.839 13.8379 145.037 15.0164 145.037 15.0164Z" fill="#F7BBBE"/>
<path d="M136.132 14.2754C135.685 10.6472 133.962 9.47097 133.962 9.47097C128.109 8.89367 130.874 13.4577 132.911 15.4741C132.911 15.4741 136.212 14.9163 136.132 14.2754Z" fill="#F7BBBE"/>
<path d="M140.453 23.9399C140.816 25.037 141.412 26.5168 141.412 26.5168C141.412 26.5168 141.831 28.274 142.514 28.0202L143.323 29.1669C143.323 29.1669 147.386 29.0901 149.638 28.5075C152.268 27.827 153.86 27.831 154.578 28.9562C155.295 30.0814 155.528 33.9154 155.156 37.1924C154.881 39.6266 155.047 41.7076 155.098 43.1801C154.979 43.9399 152.412 43.9804 152.587 43.9155C152.587 43.9155 152.314 43.163 152.341 41.9189C152.375 40.4064 151.902 37.8207 151.953 35.7991C152.021 33.1307 152.124 33.0511 151.896 32.4395C151.585 31.602 150.796 32.2312 148.655 33.3475C146.945 34.2387 143.966 35.5518 140.544 35.8684C139.328 35.9809 137.81 35.0915 137.384 33.9466C137.055 33.0608 136.86 32.3209 136.708 31.6282C136.509 30.7221 136.383 29.8965 136.124 28.9309C135.505 26.6258 135.868 27.046 135.795 26.4277L135.395 26.7149L135.333 26.5469L135.774 26.2869C135.748 26.1403 135.716 25.992 135.675 25.8402L135.208 26.2107L135.124 25.9867L135.618 25.6433C135.562 25.4636 135.493 25.2782 135.406 25.0844L134.94 25.577L134.811 25.4017L135.344 24.9483C134.762 23.7315 134.108 23.2405 133.55 22.0126C133.134 21.0989 132.069 19.6618 132.069 19.6618L132.018 17.8953C132.69 16.2739 134.045 15.5463 136.107 16.3735C136.107 16.3735 139.474 18.3093 140.035 20.3326C140.44 21.7886 139.979 22.5053 140.453 23.9399Z" fill="#2249B3"/>
<path d="M141.411 26.5168C141.411 26.5168 140.815 25.0369 140.452 23.9399C139.978 22.5053 140.439 21.7886 140.035 20.3325C139.473 18.3093 136.106 16.3735 136.106 16.3735C134.045 15.5463 132.689 16.2739 132.017 17.8952C132.017 17.8952 131.979 18.9774 132.068 19.6618C132.269 21.2032 132.829 21.9699 133.456 23.3921C134.167 25.0032 134.948 25.7309 135.549 27.3863C136.112 28.9399 136.232 33.098 136.821 33.0776C136.821 33.0776 140.026 33.6748 141.275 31.4202C142.524 29.1656 143.605 28.863 143.605 28.863C143.344 28.1643 141.411 26.5168 141.411 26.5168Z" fill="#B5CDFB"/>
<path d="M142.849 20.7952C143.18 17.4897 142.834 20.7192 142.998 18.7833C143.922 18.67 144.447 18.5976 145.416 18.4256C145.72 22.8407 145.148 23.6327 144.181 24.3752C143.056 25.239 133.04 17.9594 134.465 16.6746C136.419 15.0034 140.809 18.4826 142.849 20.7952Z" fill="#B5CDFB"/>
<path d="M142.849 20.7952C143.18 17.4897 142.834 20.7192 142.998 18.7833C143.922 18.67 144.447 18.5976 145.416 18.4256C145.72 22.8407 145.148 23.6327 144.181 24.3752C143.056 25.239 133.04 17.9594 134.465 16.6746C136.419 15.0034 140.809 18.4826 142.849 20.7952Z" fill="black" fill-opacity="0.2"/>
<path d="M152.608 44.2393C153.42 44.2393 154.168 44.3847 154.622 43.291C154.622 43.291 155.426 43.7961 156.339 43.8059C157.366 43.8171 158.136 43.7049 158.227 43.9776C158.282 44.142 158.398 44.6989 157.368 45.0079C155.652 45.5227 155.339 44.8688 154.279 45.1912C153.764 45.351 153.764 45.6941 153.764 45.6941H153.249C153.249 45.6941 153.089 45.6362 152.905 45.351C152.832 45.2375 152.666 45.1482 152.562 44.8358C152.458 44.5238 152.608 44.2393 152.608 44.2393Z" fill="#2249B3"/>
<path d="M142.826 20.7758C143.157 17.4704 142.909 19.833 143.043 18.7902L143.336 18.7336L143.084 21.5697C142.992 21.9228 142.862 22.0801 142.229 21.2356C141.015 19.6159 137.056 15.6446 134.562 16.5722C136.517 14.901 140.786 18.4632 142.826 20.7758Z" fill="black" fill-opacity="0.04"/>
<path d="M134.217 12.1261C134.74 11.1912 134.648 10.1159 134.648 10.1159C133.846 7.95923 132.068 8.49338 131.605 8.79301C131.605 8.79301 129.513 9.48499 128.938 10.7101C128.348 11.9685 129.038 12.1188 128.893 13.5013C128.799 14.3932 127.214 14.8469 126.741 15.6092C125.996 16.8122 121.788 15.6572 121.01 17.0405C120.232 18.4237 115.864 17.9075 115.297 21.9962C115.127 23.2219 119.203 21.1118 120.271 21.7361C121.415 22.4043 124.013 21.4992 125.471 20.5968C126.929 19.6943 128.43 21.4841 129.078 19.7515C129.726 18.019 134.244 19.0682 133.981 17.4299C133.828 16.4734 135.05 15.198 134.382 14.4969C133.856 13.9462 133.225 13.9512 133.242 13.1905C133.253 12.6269 133.941 12.6181 134.217 12.1261Z" fill="#281C11"/>
<path d="M131.985 14.6145C131.232 14.0482 134.254 9.9044 133.622 9.35495C132.989 8.80546 133.058 10.5387 131.931 11.4416C130.804 12.3446 130.956 13.1685 130.78 13.9468C130.629 14.6197 130.349 14.3908 130.348 14.8412C130.344 16.5174 129.798 17.342 129.517 17.6099C128.358 18.714 122.137 20.1896 122.611 19.8433C122.771 19.7263 116.45 21.646 116.949 21.5017C120.999 20.3312 121.705 22.8304 123.862 20.7941C126.02 18.7578 126.072 20.7053 127.395 20.2127C129.431 19.4551 132.916 16.2951 131.711 15.6721C131.157 15.3854 132.484 14.9895 131.985 14.6145Z" fill="white" fill-opacity="0.06"/>
<path d="M130.91 22.3492C130.72 21.7357 131.033 20.709 131.033 20.709C131.033 20.709 131.097 21.5784 131.386 22.172C131.753 22.9243 132.865 23.9177 132.865 23.9177C132.865 23.9177 131.2 23.2839 130.91 22.3492Z" fill="white" fill-opacity="0.14"/>
<path d="M143.425 17.1895C143.773 15.7167 143.412 14.0693 143.412 14.0693C143.335 15.9125 143.235 16.7607 143.033 18.7066C143.033 18.7066 143.376 17.3992 143.425 17.1895Z" fill="black" fill-opacity="0.07"/>
<path d="M144.458 18.5914C145.429 17.688 145.015 16.9811 144.965 14.6401C145.182 16.0939 145.301 16.9116 145.417 18.426L144.458 18.5914Z" fill="black" fill-opacity="0.06"/>
<path d="M139.868 22.0029C141.413 22.64 140.786 22.8412 143.938 24.2834C143.464 24.8103 140.995 23.1461 140.192 22.6159C140.325 23.9822 140.844 25.0955 141.298 26.3178L140.781 26.5105C140.781 26.5105 138.959 21.9586 139.11 21.6792C139.196 21.5215 139.868 22.0029 139.868 22.0029Z" fill="black" fill-opacity="0.06"/>
<path d="M207.837 141.499H151.898V175.176H207.837V141.499Z" fill="#B5CDFB" fill-opacity="0.2"/>
<path d="M101.899 129.342H87.3682V174.923H101.899V129.342Z" fill="#B5CDFB"/>
<path d="M87.3676 112.182H77.3779V174.923H87.3676V112.182Z" fill="#B5CDFB"/>
<path d="M77.3793 143.285H67.3896V174.923H77.3793V143.285Z" fill="#B5CDFB"/>
<path d="M108.709 119.153H101.898V174.923H108.709V119.153Z" fill="#B5CDFB"/>
<path d="M127.781 151.328H108.71V174.923H127.781V151.328Z" fill="#B5CDFB"/>
<path d="M114.797 120.065H132.175V174.58H114.797V120.065Z" fill="#B5CDFB"/>
<path d="M132.176 99.542H144.124V174.581H132.176V99.542Z" fill="#B5CDFB"/>
<path d="M144.123 136.741H156.071V174.581H144.123V136.741Z" fill="#B5CDFB"/>
<path d="M106.651 107.879H114.798V174.58H106.651V107.879Z" fill="#B5CDFB"/>
<path d="M83.8418 146.361H106.651V174.581H83.8418V146.361Z" fill="#B5CDFB"/>
<path d="M114.739 97.6333H109.924V110.875H114.739V97.6333Z" fill="#B5CDFB"/>
<path d="M122.766 112.08H117.95V125.322H122.766V112.08Z" fill="#B5CDFB"/>
<path d="M149.055 118.313H170.234V174.57H149.055V118.313Z" fill="#2249B3"/>
<path d="M170.234 97.1343H184.795V174.571H170.234V97.1343Z" fill="#2249B3"/>
<path d="M184.794 135.521H199.355V174.571H184.794V135.521Z" fill="#2249B3"/>
<path d="M139.127 105.738H149.055V174.571H139.127V105.738Z" fill="#2249B3"/>
<path d="M111.328 145.449H139.126V174.571H111.328V145.449Z" fill="#2249B3"/>
<path d="M174.932 86.7988H170.116V100.041H174.932V86.7988Z" fill="#2249B3"/>
<path d="M144.137 97.8311L149.211 105.848H139.063L144.137 97.8311Z" fill="#2249B3"/>
<path d="M141.271 105.185L143.765 101.57L146.382 105.185H141.271Z" fill="black" fill-opacity="0.12"/>
<path d="M67.2278 163.793C61.5569 163.664 61.5569 172.299 67.2278 175.006H198.556C198.556 173.545 204.872 168.433 199.587 165.984C196.22 164.424 197.955 160.571 197.139 160.185C195.291 162.548 190.695 165.546 187.086 158.638C182.575 150.003 184.638 162.762 179.998 167.273C175.358 171.784 176.682 158.28 172.136 158.638C169.869 158.817 169.228 161.689 166.981 161.345C164.694 160.994 165.165 157.241 162.857 157.092C160.033 156.909 160.675 164.369 158.346 162.762C157.379 162.096 157.77 160.845 156.799 160.185C154.664 158.732 154.145 161.834 151.257 163.793C147.649 166.242 151.515 165.469 148.938 158.638C146.36 151.808 143.623 161.345 140.936 162.762C133.661 166.601 136.565 162.376 131.668 158.638C126.77 154.901 124.193 159.798 116.718 163.793C109.242 167.789 116.331 157.092 113.109 154.514C109.887 151.936 102.541 153.483 94.937 158.638C87.3331 163.793 93.1326 155.674 90.1683 153.483C87.2208 151.304 84.528 153.459 80.0625 157.031L79.9868 157.092C76.3781 159.979 78.342 153.824 76.3781 153.483C73.07 152.909 72.8983 156.499 72.8983 161.345C72.8983 167.402 72.8983 163.922 67.2278 163.793Z" fill="#2249B3"/>
<path d="M74.4536 165.034C69.4699 164.921 69.4699 172.509 74.4536 174.888H189.87C189.87 173.604 195.42 169.111 190.776 166.959C187.816 165.588 189.341 162.202 188.624 161.863C187 163.939 182.96 166.574 179.789 160.503C175.825 152.915 177.637 164.128 173.56 168.092C169.482 172.056 170.646 160.189 166.651 160.503C164.658 160.66 164.095 163.185 162.12 162.882C160.11 162.574 160.525 159.275 158.495 159.144C156.014 158.984 156.579 165.54 154.531 164.128C153.682 163.542 154.025 162.443 153.172 161.863C151.296 160.585 150.839 163.312 148.302 165.034C145.13 167.186 148.528 166.506 146.263 160.503C143.998 154.5 141.592 162.882 139.231 164.128C132.838 167.501 135.39 163.788 131.086 160.503C126.782 157.219 122.036 162.413 115.467 165.924C108.898 169.435 106.879 161.334 106.879 158.213C106.879 154.549 102.253 155.973 98.8054 160.503C93.9156 166.928 96.5066 160.139 93.9016 158.213C91.2966 156.288 89.8881 157.332 85.9237 160.503C82.7523 163.04 84.2212 156.272 82.4952 155.973C79.588 155.468 79.4373 158.623 79.4373 162.882C79.4373 168.205 79.4373 165.147 74.4536 165.034Z" fill="#2249B3"/>
<path d="M74.4536 165.034C69.4699 164.921 69.4699 172.509 74.4536 174.888H189.87C189.87 173.604 195.42 169.111 190.776 166.959C187.816 165.588 189.341 162.202 188.624 161.863C187 163.939 182.96 166.574 179.789 160.503C175.825 152.915 177.637 164.128 173.56 168.092C169.482 172.056 170.646 160.189 166.651 160.503C164.658 160.66 164.095 163.185 162.12 162.882C160.11 162.574 160.525 159.275 158.495 159.144C156.014 158.984 156.579 165.54 154.531 164.128C153.682 163.542 154.025 162.443 153.172 161.863C151.296 160.585 150.839 163.312 148.302 165.034C145.13 167.186 148.528 166.506 146.263 160.503C143.998 154.5 141.592 162.882 139.231 164.128C132.838 167.501 135.39 163.788 131.086 160.503C126.782 157.219 122.036 162.413 115.467 165.924C108.898 169.435 106.879 161.334 106.879 158.213C106.879 154.549 102.253 155.973 98.8054 160.503C93.9156 166.928 96.5066 160.139 93.9016 158.213C91.2966 156.288 89.8881 157.332 85.9237 160.503C82.7523 163.04 84.2212 156.272 82.4952 155.973C79.588 155.468 79.4373 158.623 79.4373 162.882C79.4373 168.205 79.4373 165.147 74.4536 165.034Z" fill="black" fill-opacity="0.2"/>
<path d="M151.242 122.761H148.998V125.255H151.242V122.761Z" fill="white" fill-opacity="0.78"/>
<path d="M154.234 122.761H151.99V125.255H154.234V122.761Z" fill="white" fill-opacity="0.78"/>
<path d="M157.225 122.761H154.981V125.255H157.225V122.761Z" fill="white" fill-opacity="0.78"/>
<path d="M160.218 122.761H157.974V125.255H160.218V122.761Z" fill="white" fill-opacity="0.78"/>
<path d="M151.242 126.501H148.998V128.994H151.242V126.501Z" fill="white" fill-opacity="0.78"/>
<path d="M154.234 126.501H151.99V128.994H154.234V126.501Z" fill="white" fill-opacity="0.78"/>
<path d="M157.225 126.501H154.981V128.994H157.225V126.501Z" fill="white" fill-opacity="0.78"/>
<path d="M160.218 126.501H157.974V128.994H160.218V126.501Z" fill="white" fill-opacity="0.78"/>
<path d="M151.242 130.241H148.998V132.734H151.242V130.241Z" fill="white" fill-opacity="0.78"/>
<path d="M154.234 130.241H151.99V132.734H154.234V130.241Z" fill="white" fill-opacity="0.78"/>
<path d="M157.225 130.241H154.981V132.734H157.225V130.241Z" fill="white" fill-opacity="0.78"/>
<path d="M160.218 130.241H157.974V132.734H160.218V130.241Z" fill="white" fill-opacity="0.78"/>
<path d="M151.242 133.98H148.998V136.473H151.242V133.98Z" fill="white" fill-opacity="0.78"/>
<path d="M154.234 133.98H151.99V136.473H154.234V133.98Z" fill="white" fill-opacity="0.78"/>
<path d="M157.225 133.98H154.981V136.473H157.225V133.98Z" fill="white" fill-opacity="0.78"/>
<path d="M160.218 133.98H157.974V136.473H160.218V133.98Z" fill="white" fill-opacity="0.78"/>
<path d="M175.476 101.072H173.681V103.066H175.476V101.072Z" fill="white" fill-opacity="0.78"/>
<path d="M177.869 101.072H176.074V103.066H177.869V101.072Z" fill="white" fill-opacity="0.78"/>
<path d="M180.263 101.072H178.468V103.066H180.263V101.072Z" fill="white" fill-opacity="0.78"/>
<path d="M182.657 101.072H180.861V103.066H182.657V101.072Z" fill="white" fill-opacity="0.78"/>
<path d="M175.476 104.063H173.681V106.058H175.476V104.063Z" fill="white" fill-opacity="0.78"/>
<path d="M177.868 104.063H176.073V106.058H177.868V104.063Z" fill="white" fill-opacity="0.78"/>
<path d="M180.262 104.063H178.467V106.058H180.262V104.063Z" fill="white" fill-opacity="0.78"/>
<path d="M182.656 104.063H180.86V106.058H182.656V104.063Z" fill="white" fill-opacity="0.78"/>
<path d="M175.476 107.056H173.681V109.05H175.476V107.056Z" fill="white" fill-opacity="0.78"/>
<path d="M177.868 107.056H176.073V109.05H177.868V107.056Z" fill="white" fill-opacity="0.78"/>
<path d="M180.262 107.056H178.467V109.05H180.262V107.056Z" fill="white" fill-opacity="0.78"/>
<path d="M182.656 107.056H180.86V109.05H182.656V107.056Z" fill="white" fill-opacity="0.78"/>
<path d="M175.476 110.047H173.681V112.042H175.476V110.047Z" fill="white" fill-opacity="0.78"/>
<path d="M177.868 110.047H176.073V112.042H177.868V110.047Z" fill="white" fill-opacity="0.78"/>
<path d="M180.262 110.047H178.467V112.042H180.262V110.047Z" fill="white" fill-opacity="0.78"/>
<path d="M182.656 110.047H180.86V112.042H182.656V110.047Z" fill="white" fill-opacity="0.78"/>
<path d="M187.891 138.967H185.647V141.461H187.891V138.967Z" fill="white" fill-opacity="0.78"/>
<path d="M190.883 138.967H188.639V141.46H190.883V138.967Z" fill="white" fill-opacity="0.78"/>
<path d="M193.875 138.967H191.631V141.46H193.875V138.967Z" fill="white" fill-opacity="0.78"/>
<path d="M196.866 138.967H194.622V141.46H196.866V138.967Z" fill="white" fill-opacity="0.78"/>
<path d="M187.891 142.707H185.647V145.2H187.891V142.707Z" fill="white" fill-opacity="0.78"/>
<path d="M190.883 142.707H188.639V145.2H190.883V142.707Z" fill="white" fill-opacity="0.78"/>
<path d="M193.875 142.707H191.631V145.2H193.875V142.707Z" fill="white" fill-opacity="0.78"/>
<path d="M196.866 142.707H194.622V145.2H196.866V142.707Z" fill="white" fill-opacity="0.78"/>
<path d="M187.891 146.446H185.647V148.94H187.891V146.446Z" fill="white" fill-opacity="0.78"/>
<path d="M190.883 146.446H188.639V148.94H190.883V146.446Z" fill="white" fill-opacity="0.78"/>
<path d="M193.875 146.446H191.631V148.94H193.875V146.446Z" fill="white" fill-opacity="0.78"/>
<path d="M196.866 146.446H194.622V148.94H196.866V146.446Z" fill="white" fill-opacity="0.78"/>
<path d="M187.891 150.186H185.647V152.679H187.891V150.186Z" fill="white" fill-opacity="0.78"/>
<path d="M190.883 150.186H188.639V152.679H190.883V150.186Z" fill="white" fill-opacity="0.78"/>
<path d="M193.875 150.186H191.631V152.679H193.875V150.186Z" fill="white" fill-opacity="0.78"/>
<path d="M196.866 150.186H194.622V152.679H196.866V150.186Z" fill="white" fill-opacity="0.78"/>
<path d="M151.242 138.967H148.998V141.461H151.242V138.967Z" fill="white" fill-opacity="0.78"/>
<path d="M154.234 138.967H151.99V141.46H154.234V138.967Z" fill="white" fill-opacity="0.78"/>
<path d="M157.225 138.967H154.981V141.46H157.225V138.967Z" fill="white" fill-opacity="0.78"/>
<path d="M160.218 138.967H157.974V141.46H160.218V138.967Z" fill="white" fill-opacity="0.78"/>
<path d="M151.242 142.707H148.998V145.2H151.242V142.707Z" fill="white" fill-opacity="0.78"/>
<path d="M154.234 142.707H151.99V145.2H154.234V142.707Z" fill="white" fill-opacity="0.78"/>
<path d="M157.225 142.707H154.981V145.2H157.225V142.707Z" fill="white" fill-opacity="0.78"/>
<path d="M160.218 142.707H157.974V145.2H160.218V142.707Z" fill="white" fill-opacity="0.78"/>
<path d="M151.242 146.446H148.998V148.94H151.242V146.446Z" fill="white" fill-opacity="0.78"/>
<path d="M154.234 146.446H151.99V148.94H154.234V146.446Z" fill="white" fill-opacity="0.78"/>
<path d="M157.225 146.446H154.981V148.94H157.225V146.446Z" fill="white" fill-opacity="0.78"/>
<path d="M160.218 146.446H157.974V148.94H160.218V146.446Z" fill="white" fill-opacity="0.78"/>
<path d="M151.242 150.186H148.998V152.679H151.242V150.186Z" fill="white" fill-opacity="0.78"/>
<path d="M154.234 150.186H151.99V152.679H154.234V150.186Z" fill="white" fill-opacity="0.78"/>
<path d="M157.225 150.186H154.981V152.679H157.225V150.186Z" fill="white" fill-opacity="0.78"/>
<path d="M160.218 150.186H157.974V152.679H160.218V150.186Z" fill="white" fill-opacity="0.78"/>
<path d="M115.84 122.512H114.594V123.897H115.84V122.512Z" fill="white" fill-opacity="0.35"/>
<path d="M117.503 122.512H116.256V123.897H117.503V122.512Z" fill="white" fill-opacity="0.35"/>
<path d="M119.165 122.512H117.918V123.897H119.165V122.512Z" fill="white" fill-opacity="0.35"/>
<path d="M120.827 122.512H119.58V123.897H120.827V122.512Z" fill="white" fill-opacity="0.35"/>
<path d="M115.84 124.589H114.594V125.975H115.84V124.589Z" fill="white" fill-opacity="0.35"/>
<path d="M117.503 124.59H116.256V125.976H117.503V124.59Z" fill="white" fill-opacity="0.35"/>
<path d="M119.165 124.589H117.918V125.975H119.165V124.589Z" fill="white" fill-opacity="0.35"/>
<path d="M120.827 124.589H119.58V125.975H120.827V124.589Z" fill="white" fill-opacity="0.35"/>
<path d="M115.84 126.667H114.594V128.053H115.84V126.667Z" fill="white" fill-opacity="0.35"/>
<path d="M117.503 126.667H116.256V128.053H117.503V126.667Z" fill="white" fill-opacity="0.35"/>
<path d="M119.165 126.667H117.918V128.053H119.165V126.667Z" fill="white" fill-opacity="0.35"/>
<path d="M120.827 126.667H119.58V128.053H120.827V126.667Z" fill="white" fill-opacity="0.35"/>
<path d="M115.84 128.745H114.594V130.13H115.84V128.745Z" fill="white" fill-opacity="0.35"/>
<path d="M117.503 128.745H116.256V130.13H117.503V128.745Z" fill="white" fill-opacity="0.35"/>
<path d="M119.165 128.745H117.918V130.13H119.165V128.745Z" fill="white" fill-opacity="0.35"/>
<path d="M120.827 128.745H119.58V130.13H120.827V128.745Z" fill="white" fill-opacity="0.35"/>
<path d="M115.84 133.731H114.594V135.116H115.84V133.731Z" fill="white" fill-opacity="0.35"/>
<path d="M117.503 133.731H116.256V135.116H117.503V133.731Z" fill="white" fill-opacity="0.35"/>
<path d="M119.165 133.731H117.918V135.116H119.165V133.731Z" fill="white" fill-opacity="0.35"/>
<path d="M120.827 133.731H119.58V135.116H120.827V133.731Z" fill="white" fill-opacity="0.35"/>
<path d="M115.84 135.809H114.594V137.194H115.84V135.809Z" fill="white" fill-opacity="0.35"/>
<path d="M117.503 135.809H116.256V137.194H117.503V135.809Z" fill="white" fill-opacity="0.35"/>
<path d="M119.165 135.808H117.918V137.193H119.165V135.808Z" fill="white" fill-opacity="0.35"/>
<path d="M120.827 135.808H119.58V137.193H120.827V135.808Z" fill="white" fill-opacity="0.35"/>
<path d="M115.84 137.887H114.594V139.272H115.84V137.887Z" fill="white" fill-opacity="0.35"/>
<path d="M117.503 137.886H116.256V139.271H117.503V137.886Z" fill="white" fill-opacity="0.35"/>
<path d="M119.165 137.886H117.918V139.271H119.165V137.886Z" fill="white" fill-opacity="0.35"/>
<path d="M120.827 137.886H119.58V139.271H120.827V137.886Z" fill="white" fill-opacity="0.35"/>
<path d="M115.84 139.963H114.594V141.349H115.84V139.963Z" fill="white" fill-opacity="0.35"/>
<path d="M117.503 139.963H116.256V141.349H117.503V139.963Z" fill="white" fill-opacity="0.35"/>
<path d="M119.165 139.963H117.918V141.349H119.165V139.963Z" fill="white" fill-opacity="0.35"/>
<path d="M120.827 139.963H119.58V141.349H120.827V139.963Z" fill="white" fill-opacity="0.35"/>
<path d="M127.308 131.986H126.062V133.372H127.308V131.986Z" fill="white" fill-opacity="0.35"/>
<path d="M128.97 131.986H127.724V133.372H128.97V131.986Z" fill="white" fill-opacity="0.35"/>
<path d="M130.632 131.986H129.386V133.372H130.632V131.986Z" fill="white" fill-opacity="0.35"/>
<path d="M132.295 131.986H131.048V133.372H132.295V131.986Z" fill="white" fill-opacity="0.35"/>
<path d="M127.308 134.063H126.062V135.449H127.308V134.063Z" fill="white" fill-opacity="0.35"/>
<path d="M128.97 134.063H127.724V135.449H128.97V134.063Z" fill="white" fill-opacity="0.35"/>
<path d="M130.632 134.063H129.386V135.449H130.632V134.063Z" fill="white" fill-opacity="0.35"/>
<path d="M132.295 134.063H131.048V135.449H132.295V134.063Z" fill="white" fill-opacity="0.35"/>
<path d="M127.308 136.142H126.062V137.527H127.308V136.142Z" fill="white" fill-opacity="0.35"/>
<path d="M128.97 136.142H127.724V137.527H128.97V136.142Z" fill="white" fill-opacity="0.35"/>
<path d="M130.632 136.142H129.386V137.527H130.632V136.142Z" fill="white" fill-opacity="0.35"/>
<path d="M132.295 136.142H131.048V137.527H132.295V136.142Z" fill="white" fill-opacity="0.35"/>
<path d="M127.308 138.219H126.062V139.604H127.308V138.219Z" fill="white" fill-opacity="0.35"/>
<path d="M128.97 138.219H127.724V139.604H128.97V138.219Z" fill="white" fill-opacity="0.35"/>
<path d="M130.632 138.219H129.386V139.604H130.632V138.219Z" fill="white" fill-opacity="0.35"/>
<path d="M132.295 138.219H131.048V139.604H132.295V138.219Z" fill="white" fill-opacity="0.35"/>
<path d="M80.4381 116.78H79.1914V118.165H80.4381V116.78Z" fill="white" fill-opacity="0.35"/>
<path d="M82.1002 116.779H80.8535V118.164H82.1002V116.779Z" fill="white" fill-opacity="0.35"/>
<path d="M83.7623 116.779H82.5156V118.164H83.7623V116.779Z" fill="white" fill-opacity="0.35"/>
<path d="M85.4244 116.779H84.1777V118.164H85.4244V116.779Z" fill="white" fill-opacity="0.35"/>
<path d="M80.4381 118.856H79.1914V120.242H80.4381V118.856Z" fill="white" fill-opacity="0.35"/>
<path d="M82.1002 118.856H80.8535V120.241H82.1002V118.856Z" fill="white" fill-opacity="0.35"/>
<path d="M83.7623 118.856H82.5156V120.241H83.7623V118.856Z" fill="white" fill-opacity="0.35"/>
<path d="M85.4244 118.856H84.1777V120.241H85.4244V118.856Z" fill="white" fill-opacity="0.35"/>
<path d="M80.4381 120.934H79.1914V122.319H80.4381V120.934Z" fill="white" fill-opacity="0.35"/>
<path d="M82.1002 120.934H80.8535V122.319H82.1002V120.934Z" fill="white" fill-opacity="0.35"/>
<path d="M83.7623 120.934H82.5156V122.319H83.7623V120.934Z" fill="white" fill-opacity="0.35"/>
<path d="M85.4244 120.934H84.1777V122.319H85.4244V120.934Z" fill="white" fill-opacity="0.35"/>
<path d="M80.4381 123.011H79.1914V124.396H80.4381V123.011Z" fill="white" fill-opacity="0.35"/>
<path d="M82.1002 123.011H80.8535V124.396H82.1002V123.011Z" fill="white" fill-opacity="0.35"/>
<path d="M83.7623 123.011H82.5156V124.396H83.7623V123.011Z" fill="white" fill-opacity="0.35"/>
<path d="M85.4244 123.011H84.1777V124.396H85.4244V123.011Z" fill="white" fill-opacity="0.35"/>
<path d="M80.4381 126.252H79.1914V127.637H80.4381V126.252Z" fill="white" fill-opacity="0.35"/>
<path d="M82.1002 126.252H80.8535V127.637H82.1002V126.252Z" fill="white" fill-opacity="0.35"/>
<path d="M83.7623 126.252H82.5156V127.637H83.7623V126.252Z" fill="white" fill-opacity="0.35"/>
<path d="M85.4244 126.252H84.1777V127.637H85.4244V126.252Z" fill="white" fill-opacity="0.35"/>
<path d="M80.4381 128.329H79.1914V129.714H80.4381V128.329Z" fill="white" fill-opacity="0.35"/>
<path d="M82.1002 128.329H80.8535V129.714H82.1002V128.329Z" fill="white" fill-opacity="0.35"/>
<path d="M83.7623 128.329H82.5156V129.714H83.7623V128.329Z" fill="white" fill-opacity="0.35"/>
<path d="M85.4244 128.329H84.1777V129.714H85.4244V128.329Z" fill="white" fill-opacity="0.35"/>
<path d="M80.4381 130.407H79.1914V131.792H80.4381V130.407Z" fill="white" fill-opacity="0.35"/>
<path d="M82.1002 130.407H80.8535V131.792H82.1002V130.407Z" fill="white" fill-opacity="0.35"/>
<path d="M83.7623 130.407H82.5156V131.792H83.7623V130.407Z" fill="white" fill-opacity="0.35"/>
<path d="M85.4244 130.407H84.1777V131.792H85.4244V130.407Z" fill="white" fill-opacity="0.35"/>
<path d="M80.4381 132.485H79.1914V133.87H80.4381V132.485Z" fill="white" fill-opacity="0.35"/>
<path d="M82.1002 132.484H80.8535V133.87H82.1002V132.484Z" fill="white" fill-opacity="0.35"/>
<path d="M83.7623 132.484H82.5156V133.87H83.7623V132.484Z" fill="white" fill-opacity="0.35"/>
<path d="M85.4244 132.484H84.1777V133.87H85.4244V132.484Z" fill="white" fill-opacity="0.35"/>
<path d="M80.4381 135.726H79.1914V137.111H80.4381V135.726Z" fill="white" fill-opacity="0.35"/>
<path d="M82.1002 135.726H80.8535V137.111H82.1002V135.726Z" fill="white" fill-opacity="0.35"/>
<path d="M83.7623 135.726H82.5156V137.111H83.7623V135.726Z" fill="white" fill-opacity="0.35"/>
<path d="M85.4244 135.726H84.1777V137.111H85.4244V135.726Z" fill="white" fill-opacity="0.35"/>
<path d="M80.4381 137.803H79.1914V139.188H80.4381V137.803Z" fill="white" fill-opacity="0.35"/>
<path d="M82.1002 137.803H80.8535V139.188H82.1002V137.803Z" fill="white" fill-opacity="0.35"/>
<path d="M83.7623 137.803H82.5156V139.188H83.7623V137.803Z" fill="white" fill-opacity="0.35"/>
<path d="M85.4244 137.803H84.1777V139.188H85.4244V137.803Z" fill="white" fill-opacity="0.35"/>
<path d="M80.4381 139.881H79.1914V141.267H80.4381V139.881Z" fill="white" fill-opacity="0.35"/>
<path d="M82.1002 139.881H80.8535V141.267H82.1002V139.881Z" fill="white" fill-opacity="0.35"/>
<path d="M83.7623 139.881H82.5156V141.267H83.7623V139.881Z" fill="white" fill-opacity="0.35"/>
<path d="M85.4244 139.881H84.1777V141.267H85.4244V139.881Z" fill="white" fill-opacity="0.35"/>
<path d="M80.4381 141.958H79.1914V143.344H80.4381V141.958Z" fill="white" fill-opacity="0.35"/>
<path d="M82.1002 141.958H80.8535V143.344H82.1002V141.958Z" fill="white" fill-opacity="0.35"/>
<path d="M83.7623 141.958H82.5156V143.344H83.7623V141.958Z" fill="white" fill-opacity="0.35"/>
<path d="M85.4244 141.958H84.1777V143.344H85.4244V141.958Z" fill="white" fill-opacity="0.35"/>
<path d="M98.1402 135.726H96.8936V137.111H98.1402V135.726Z" fill="white" fill-opacity="0.35"/>
<path d="M99.8023 135.726H98.5557V137.111H99.8023V135.726Z" fill="white" fill-opacity="0.35"/>
<path d="M101.464 135.726H100.218V137.111H101.464V135.726Z" fill="white" fill-opacity="0.35"/>
<path d="M103.127 135.726H101.88V137.111H103.127V135.726Z" fill="white" fill-opacity="0.35"/>
<path d="M98.1402 137.803H96.8936V139.188H98.1402V137.803Z" fill="white" fill-opacity="0.35"/>
<path d="M99.8023 137.803H98.5557V139.188H99.8023V137.803Z" fill="white" fill-opacity="0.35"/>
<path d="M101.464 137.803H100.218V139.188H101.464V137.803Z" fill="white" fill-opacity="0.35"/>
<path d="M103.127 137.803H101.88V139.188H103.127V137.803Z" fill="white" fill-opacity="0.35"/>
<path d="M98.1402 139.881H96.8936V141.267H98.1402V139.881Z" fill="white" fill-opacity="0.35"/>
<path d="M99.8023 139.881H98.5557V141.267H99.8023V139.881Z" fill="white" fill-opacity="0.35"/>
<path d="M101.464 139.881H100.218V141.267H101.464V139.881Z" fill="white" fill-opacity="0.35"/>
<path d="M103.127 139.881H101.88V141.267H103.127V139.881Z" fill="white" fill-opacity="0.35"/>
<path d="M98.1402 141.958H96.8936V143.344H98.1402V141.958Z" fill="white" fill-opacity="0.35"/>
<path d="M99.8023 141.958H98.5557V143.344H99.8023V141.958Z" fill="white" fill-opacity="0.35"/>
<path d="M101.464 141.958H100.218V143.344H101.464V141.958Z" fill="white" fill-opacity="0.35"/>
<path d="M103.127 141.958H101.88V143.344H103.127V141.958Z" fill="white" fill-opacity="0.35"/>
<path fill-rule="evenodd" clip-rule="evenodd" d="M65.2307 70.6558H63.2363V174.867H65.2307V76.9244H79.2449C79.8015 76.9244 80.2523 76.4733 80.2523 75.917C80.2523 75.3607 79.8015 74.9096 79.2449 74.9096H65.2307V70.6558Z" fill="#2249B3"/>
<path d="M64.3558 70.6558H63.2363V173.648H64.3558V70.6558Z" fill="#2249B3"/>
<path d="M78.0126 77.0356C78.0126 78.6088 77.4112 80.1177 76.3403 81.23C75.2698 82.3423 73.8174 82.9673 72.3034 82.9673C70.789 82.9673 69.3369 82.3423 68.2661 81.23C67.1955 80.1177 66.5938 78.6088 66.5938 77.0356H72.3034H78.0126Z" fill="#F7FAFE"/>
<path d="M69.7298 76.9253L72.6404 82.8585C67.804 82.5897 66.6697 78.791 66.7069 76.9253H69.7298Z" fill="#311F9E" fill-opacity="0.04"/>
<path d="M29.8281 175.116L62.9862 82.7387L64.7314 76.3892H77.4463L122.821 175.116H29.8281Z" fill="#75E0E6" fill-opacity="0.68"/>
<path d="M224.32 49.2908C229.115 49.2908 233.016 53.1915 233.016 57.9861C233.016 62.781 229.115 66.6816 224.32 66.6816C219.525 66.6816 215.625 62.781 215.625 57.9861C215.625 53.1915 219.525 49.2908 224.32 49.2908ZM224.32 45.9062C217.648 45.9062 212.24 51.3145 212.24 57.9861C212.24 64.6577 217.648 70.0662 224.32 70.0662C230.992 70.0662 236.4 64.6577 236.4 57.9861C236.4 51.3145 230.992 45.9062 224.32 45.9062Z" fill="#2249B3"/>
<path d="M226.219 44.1372H222.423V47.3778H226.219V44.1372Z" fill="#2249B3"/>
<path d="M226.217 68.4458H222.421V71.6864H226.217V68.4458Z" fill="#2249B3"/>
<path d="M232.716 46.8311L230.425 49.1225L233.109 51.8068L235.401 49.5154L232.716 46.8311Z" fill="#2249B3"/>
<path d="M215.528 64.0195L213.236 66.311L215.921 68.995L218.212 66.7038L215.528 64.0195Z" fill="#2249B3"/>
<path d="M238.095 56.0146H234.854V59.8107H238.095V56.0146Z" fill="#2249B3"/>
<path d="M213.785 56.0146H210.544V59.8107H213.785V56.0146Z" fill="#2249B3"/>
<path d="M233.111 64.0225L230.427 66.7068L232.718 68.9982L235.403 66.3139L233.111 64.0225Z" fill="#2249B3"/>
<path d="M215.921 46.8311L213.236 49.5154L215.528 51.8068L218.212 49.1225L215.921 46.8311Z" fill="#2249B3"/>
<path d="M204.273 38.0639C207.722 38.0639 210.528 40.8699 210.528 44.3188C210.528 47.7678 207.722 50.5738 204.273 50.5738C200.824 50.5738 198.018 47.7678 198.018 44.3188C198.018 40.8699 200.824 38.0639 204.273 38.0639ZM204.273 35.6294C199.474 35.6294 195.584 39.5197 195.584 44.3188C195.584 49.1177 199.474 53.0083 204.273 53.0083C209.073 53.0083 212.963 49.1177 212.963 44.3188C212.963 39.5197 209.073 35.6294 204.273 35.6294Z" fill="#2249B3"/>
<path d="M206.146 33.9219H202.4V37.1189H206.146V33.9219Z" fill="#2249B3"/>
<path d="M206.144 51.4058H202.399V54.6028H206.144V51.4058Z" fill="#2249B3"/>
<path d="M210.26 35.6279L208 37.8886L210.648 40.5366L212.909 38.2762L210.26 35.6279Z" fill="#2249B3"/>
<path d="M197.896 47.9927L195.636 50.2533L198.284 52.9017L200.544 50.641L197.896 47.9927Z" fill="#2249B3"/>
<path d="M214.614 42.3901H211.417V46.1352H214.614V42.3901Z" fill="#2249B3"/>
<path d="M197.129 42.3906H193.932V46.1357H197.129V42.3906Z" fill="#2249B3"/>
<path d="M210.65 47.9941L208.002 50.6425L210.263 52.9031L212.911 50.2548L210.65 47.9941Z" fill="#2249B3"/>
<path d="M198.284 35.6294L195.636 38.2774L197.896 40.5381L200.545 37.8901L198.284 35.6294Z" fill="#2249B3"/>
<path d="M224.319 62.6995C226.923 62.6995 229.033 60.5891 229.033 57.9857C229.033 55.3824 226.923 53.272 224.319 53.272C221.716 53.272 219.605 55.3824 219.605 57.9857C219.605 60.5891 221.716 62.6995 224.319 62.6995Z" fill="#B5CDFB"/>
<path d="M224.321 61.2226C226.149 61.2226 227.631 59.7406 227.631 57.9126C227.631 56.0845 226.149 54.6025 224.321 54.6025C222.493 54.6025 221.011 56.0845 221.011 57.9126C221.011 59.7406 222.493 61.2226 224.321 61.2226Z" fill="#75E0E6"/>
<path d="M3.13734 50.8166L7.16938 38.8341C7.45385 37.9889 8.3533 37.5171 9.21047 37.7635L31.0854 44.0563C31.9903 44.3167 32.5003 45.2744 32.2112 46.1705L28.1021 58.9086C27.8193 59.7851 26.879 60.2664 26.0025 59.9831L4.20457 52.9348C3.32107 52.649 2.84122 51.6965 3.13734 50.8166Z" fill="#2249B3"/>
<path d="M25.7994 45.9818L29.801 34.3601C30.0908 33.5186 30.9905 33.0529 31.8448 33.3027L53.2759 39.5637C54.183 39.8288 54.6887 40.7938 54.3901 41.6905L50.3876 53.7182C50.1009 54.5798 49.1774 55.0535 48.3102 54.7838L26.8805 48.1165C25.9825 47.8372 25.4932 46.8709 25.7994 45.9818Z" fill="#B5CDFB"/>
<path fill-rule="evenodd" clip-rule="evenodd" d="M138.132 9.83827C137.62 9.79176 137.098 9.77343 136.57 9.78798C136.44 9.79158 136.331 9.68886 136.328 9.55853C136.324 9.42823 136.427 9.31968 136.557 9.31608C137.104 9.30102 137.645 9.32005 138.175 9.36815C138.304 9.37995 138.4 9.49475 138.388 9.62456C138.377 9.7544 138.262 9.85008 138.132 9.83827ZM135.213 9.65912C135.233 9.78792 135.145 9.90864 135.016 9.92874C134.508 10.008 134 10.1214 133.497 10.2728C133.372 10.3104 133.241 10.2396 133.203 10.1148C133.166 9.98998 133.236 9.85831 133.361 9.82074C133.886 9.66278 134.415 9.54477 134.943 9.4623C135.072 9.4422 135.193 9.53032 135.213 9.65912ZM139.495 9.78883C139.522 9.66116 139.647 9.57899 139.775 9.60528C140.318 9.71728 140.841 9.85767 141.337 10.0202C141.461 10.0608 141.529 10.1941 141.488 10.318C141.447 10.4419 141.314 10.5094 141.19 10.4688C140.711 10.3118 140.205 10.176 139.679 10.0676C139.552 10.0413 139.469 9.91651 139.495 9.78883ZM132.157 10.5139C132.213 10.6319 132.162 10.7725 132.044 10.8278C131.583 11.0438 131.131 11.2972 130.69 11.5913C130.582 11.6637 130.435 11.6344 130.363 11.526C130.29 11.4176 130.32 11.271 130.428 11.1987C130.889 10.8911 131.362 10.6262 131.844 10.4004C131.962 10.3451 132.102 10.3959 132.157 10.5139ZM142.528 10.7296C142.584 10.6118 142.725 10.5615 142.843 10.6172C142.978 10.6813 142.98 10.7734 143.121 10.8516C143.274 10.9372 143.458 10.9313 143.564 10.9914C143.678 11.0558 143.717 11.1999 143.653 11.3132C143.589 11.4266 143.406 11.4997 143.292 11.4353C143.19 11.377 143.229 11.1828 143.121 11.1263C143 11.0632 142.769 11.1045 142.641 11.0439C142.523 10.9882 142.473 10.8474 142.528 10.7296ZM129.481 12.2139C129.569 12.3106 129.561 12.4598 129.465 12.5473C129.275 12.7191 129.088 12.9002 128.905 13.091C128.725 13.2784 128.551 13.4658 128.384 13.6529C128.296 13.7499 128.147 13.758 128.05 13.671C127.953 13.5839 127.945 13.4347 128.032 13.3377C128.203 13.1468 128.381 12.9555 128.565 12.7641C128.755 12.5653 128.95 12.3765 129.148 12.1972C129.245 12.1098 129.394 12.1172 129.481 12.2139ZM127.356 14.4954C127.459 14.5764 127.476 14.7249 127.395 14.827C127.066 15.2415 126.759 15.6515 126.467 16.0543C126.39 16.1598 126.243 16.1833 126.137 16.1068C126.032 16.0302 126.008 15.8826 126.085 15.7771C126.38 15.3705 126.691 14.9547 127.025 14.5335C127.106 14.4314 127.255 14.4143 127.356 14.4954ZM125.517 16.984C125.623 17.0588 125.649 17.206 125.574 17.3128C125.268 17.7497 124.97 18.174 124.671 18.5788C124.593 18.6836 124.445 18.7058 124.341 18.6283C124.236 18.5508 124.213 18.403 124.291 18.2982C124.586 17.8989 124.881 17.4792 125.188 17.0417C125.263 16.935 125.41 16.9092 125.517 16.984ZM123.672 19.4711C123.77 19.5571 123.78 19.7063 123.694 19.8042C123.341 20.2065 122.969 20.5794 122.566 20.9147C122.465 20.9979 122.317 20.9842 122.233 20.8839C122.15 20.7836 122.164 20.6348 122.264 20.5515C122.645 20.2354 122.998 19.8807 123.339 19.4927C123.425 19.3947 123.574 19.3851 123.672 19.4711ZM105.706 20.8615C105.707 20.9918 105.602 21.0982 105.472 21.0991C104.869 21.103 104.325 21.1464 103.837 21.2243C103.708 21.2448 103.587 21.157 103.566 21.0283C103.546 20.8996 103.634 20.7786 103.762 20.7581C104.278 20.676 104.845 20.6311 105.468 20.627C105.599 20.6261 105.705 20.7311 105.706 20.8615ZM106.904 20.9183C106.916 20.7885 107.031 20.693 107.161 20.7051C107.687 20.7539 108.245 20.8261 108.838 20.9232C108.967 20.9443 109.054 21.0657 109.033 21.1943C109.012 21.323 108.89 21.4102 108.762 21.3891C108.179 21.2936 107.632 21.2229 107.118 21.1751C106.988 21.1631 106.892 21.0481 106.904 20.9183ZM102.409 21.3438C102.46 21.4638 102.404 21.6024 102.285 21.6534C101.744 21.8834 101.311 22.1765 100.966 22.5172C100.873 22.6089 100.724 22.608 100.632 22.5153C100.541 22.4226 100.541 22.2732 100.634 22.1815C101.024 21.7956 101.509 21.4705 102.099 21.2191C102.22 21.168 102.358 21.2239 102.409 21.3438ZM110.216 21.4222C110.244 21.2949 110.37 21.2141 110.497 21.2419C110.767 21.3005 111.042 21.3636 111.323 21.4313C111.582 21.4936 111.835 21.5519 112.082 21.6065C112.21 21.6346 112.29 21.7606 112.262 21.8879C112.234 22.0152 112.108 22.0956 111.981 22.0675C111.73 22.0123 111.475 21.9532 111.213 21.8903C110.935 21.8234 110.663 21.761 110.397 21.7031C110.269 21.6754 110.189 21.5496 110.216 21.4222ZM121.34 21.4818C121.4 21.5975 121.355 21.74 121.239 21.8C120.786 22.035 120.294 22.2289 119.749 22.3762C119.624 22.4103 119.494 22.3358 119.46 22.21C119.426 22.0841 119.5 21.9546 119.626 21.9205C120.139 21.7819 120.6 21.6002 121.022 21.381C121.138 21.321 121.28 21.3661 121.34 21.4818ZM113.312 22.0963C113.334 21.9679 113.456 21.8818 113.585 21.9041C114.121 21.9972 114.628 22.0697 115.107 22.1228C115.236 22.1371 115.33 22.2538 115.315 22.3834C115.301 22.5129 115.184 22.6063 115.055 22.592C114.565 22.5377 114.049 22.4638 113.504 22.3692C113.375 22.3469 113.289 22.2247 113.312 22.0963ZM118.405 22.3948C118.417 22.5246 118.322 22.6399 118.192 22.6523C117.705 22.6989 117.182 22.7162 116.619 22.702C116.489 22.6987 116.386 22.5904 116.389 22.46C116.392 22.3297 116.501 22.2267 116.631 22.23C117.177 22.2438 117.681 22.227 118.148 22.1824C118.277 22.1699 118.393 22.2651 118.405 22.3948ZM99.9788 23.5231C100.1 23.5707 100.16 23.7077 100.112 23.8291C99.9245 24.3077 99.8177 24.8337 99.7762 25.3922C99.7665 25.5222 99.6533 25.6197 99.5234 25.6101C99.3935 25.6005 99.2959 25.4873 99.3053 25.3573C99.3495 24.7617 99.4645 24.1878 99.6729 23.6566C99.7204 23.5353 99.8574 23.4755 99.9788 23.5231ZM99.5573 26.8128C99.6869 26.7985 99.8034 26.892 99.8177 27.0216C99.8473 27.2909 99.887 27.5628 99.9348 27.8357C99.9574 27.964 99.8714 28.0864 99.7433 28.1089C99.6149 28.1314 99.4923 28.0456 99.47 27.9172C99.4203 27.6354 99.3794 27.3535 99.3486 27.0732C99.3343 26.9437 99.4276 26.8271 99.5573 26.8128Z" fill="#B5CDFB"/>
<path fill-rule="evenodd" clip-rule="evenodd" d="M95.8425 32.811C95.4545 33.148 95.0416 33.4685 94.6051 33.7656C94.4971 33.8388 94.4694 33.9855 94.5426 34.0935C94.6161 34.2011 94.7628 34.2292 94.8705 34.1557C95.3231 33.8479 95.751 33.5161 96.1521 33.1672C96.2506 33.0818 96.261 32.9326 96.1756 32.8341C96.0899 32.7359 95.9407 32.7252 95.8425 32.811ZM93.4342 34.6181C93.3754 34.5019 93.2332 34.4555 93.117 34.5147C92.6586 34.7477 92.1804 34.953 91.6838 35.1244C91.5606 35.1668 91.495 35.3013 91.5377 35.4245C91.5801 35.5477 91.7146 35.613 91.8378 35.5706C92.3557 35.3916 92.8541 35.1777 93.3308 34.9356C93.447 34.8764 93.4934 34.7343 93.4342 34.6181ZM97.1842 32.0835C97.2803 32.1717 97.4297 32.1653 97.5179 32.0695C97.893 31.6605 98.2352 31.2405 98.5427 30.8184C98.6192 30.7132 98.596 30.5655 98.4908 30.4888C98.3853 30.4121 98.2377 30.4353 98.1608 30.5405C97.864 30.9483 97.5331 31.3546 97.1698 31.7502C97.0817 31.8462 97.0881 31.9954 97.1842 32.0835ZM90.4562 35.7124C90.4321 35.5843 90.3086 35.5001 90.1805 35.5242C89.6806 35.6185 89.1654 35.6779 88.636 35.6972C88.5057 35.7017 88.4039 35.8112 88.4087 35.9415C88.4133 36.072 88.5228 36.1736 88.653 36.169C89.2066 36.1486 89.7455 36.0867 90.268 35.9881C90.3961 35.964 90.4806 35.8405 90.4562 35.7124ZM99.1999 29.7233C99.314 29.7862 99.4577 29.7447 99.5205 29.6305C99.5931 29.4993 99.5684 29.5141 99.6361 29.3686C99.7105 29.2096 99.8362 29.0155 99.8868 28.905C99.9411 28.7864 99.8889 28.6464 99.7706 28.5921C99.6519 28.5379 99.4607 28.5855 99.4067 28.7041C99.3576 28.8113 99.3479 28.916 99.293 29.0253C99.2317 29.1473 99.1755 29.2786 99.1072 29.4026C99.0444 29.5168 99.0859 29.6603 99.1999 29.7233ZM87.2915 35.8994C87.3058 35.7698 87.2125 35.6529 87.0829 35.6386C86.8282 35.6105 86.5711 35.5727 86.3109 35.5251C86.0553 35.4785 85.8049 35.4282 85.5594 35.3745C85.4319 35.3467 85.3063 35.4275 85.2785 35.5547C85.2508 35.6822 85.3313 35.8079 85.4588 35.8356C85.7092 35.8902 85.9648 35.9418 86.2258 35.9897C86.497 36.0391 86.7651 36.0784 87.0307 36.108C87.1604 36.1223 87.2772 36.029 87.2915 35.8994ZM84.2336 35.2921C84.269 35.1668 84.1958 35.0362 84.0704 35.0009C83.5611 34.8572 83.0721 34.7041 82.5997 34.5485C82.4759 34.5077 82.3426 34.5751 82.3017 34.6989C82.2608 34.8227 82.3283 34.956 82.4521 34.9969C82.9291 35.154 83.4247 35.3092 83.9423 35.4553C84.0677 35.4907 84.1979 35.4175 84.2336 35.2921ZM81.2855 34.3503C81.3282 34.2271 81.2629 34.0926 81.14 34.0499C80.6358 33.8748 80.1457 33.7049 79.6662 33.5518C79.5421 33.5121 79.4091 33.5805 79.3694 33.7049C79.3298 33.829 79.3984 33.9617 79.5226 34.0014C79.9956 34.1526 80.4802 34.3204 80.985 34.4958C81.1079 34.5385 81.2424 34.4735 81.2855 34.3503ZM78.3343 33.4124C78.3636 33.2852 78.2839 33.1587 78.1571 33.1294C77.6352 33.0098 77.1161 32.9244 76.5924 32.8887C76.4625 32.8799 76.3499 32.9781 76.3411 33.1083C76.3323 33.2383 76.4305 33.3508 76.5604 33.3599C77.0542 33.3935 77.5483 33.4743 78.0515 33.5896C78.1787 33.6189 78.3053 33.5393 78.3343 33.4124ZM62.9504 42.7954C62.8747 42.6893 62.7274 42.6643 62.6213 42.7399C62.1299 43.0894 61.6639 43.3722 61.2219 43.5948C61.1054 43.6537 61.0588 43.7955 61.1173 43.912C61.1762 44.0282 61.318 44.0752 61.4345 44.0163C61.9003 43.7815 62.3867 43.4859 62.8949 43.1245C63.001 43.0492 63.026 42.9016 62.9504 42.7954ZM63.8889 42.0485C63.9746 42.1467 64.1237 42.1568 64.2219 42.0711C64.6199 41.7237 65.0305 41.3384 65.4541 40.913C65.5462 40.8209 65.5459 40.6714 65.4535 40.5793C65.3611 40.4872 65.2116 40.4875 65.1195 40.5799C64.7032 40.9984 64.3006 41.376 63.9114 41.7154C63.8132 41.8011 63.8032 41.9503 63.8889 42.0485ZM59.9943 44.3329C59.9656 44.2061 59.8391 44.1261 59.7119 44.1548C59.1391 44.2844 58.6163 44.3006 58.1375 44.2259C58.0085 44.2058 57.888 44.2939 57.8679 44.4226C57.8477 44.5513 57.9359 44.6721 58.0646 44.6922C58.6069 44.7767 59.19 44.7572 59.8162 44.6154C59.9434 44.5867 60.023 44.4601 59.9943 44.3329ZM66.2804 39.7018C66.3774 39.789 66.5265 39.7808 66.6134 39.6838C66.7976 39.4789 66.984 39.2666 67.1725 39.047C67.346 38.8451 67.5168 38.6499 67.6855 38.4608C67.7724 38.3635 67.7639 38.2143 67.6666 38.1277C67.5693 38.0408 67.4202 38.0493 67.3335 38.1466C67.1627 38.3379 66.9898 38.5355 66.8144 38.7392C66.6281 38.9564 66.4438 39.1662 66.2621 39.3688C66.1751 39.4657 66.1831 39.6149 66.2804 39.7018ZM75.2666 33.1458C75.2477 33.0168 75.1278 32.9278 74.9988 32.9467C74.494 33.0211 73.981 33.1522 73.4534 33.3511C73.3314 33.3972 73.2697 33.5335 73.3158 33.6555C73.3619 33.7775 73.4979 33.8388 73.6199 33.793C74.1167 33.6055 74.5971 33.4832 75.0677 33.4139C75.1964 33.3947 75.2858 33.2749 75.2666 33.1458ZM68.3961 37.3445C68.4892 37.4357 68.6386 37.4338 68.7298 37.3408C69.1105 36.9513 69.4789 36.596 69.8364 36.2727C69.933 36.1855 69.9407 36.036 69.8531 35.9393C69.7656 35.8426 69.6165 35.8353 69.5198 35.9226C69.1544 36.2532 68.7792 36.6149 68.3922 37.0108C68.301 37.1038 68.3028 37.2533 68.3961 37.3445ZM72.352 34.1224C72.2864 34.0102 72.1419 33.9724 72.0293 34.0383C71.6063 34.2856 71.1723 34.5775 70.7239 34.9185C70.6202 34.9972 70.6001 35.1454 70.6791 35.2491C70.7578 35.3528 70.906 35.373 71.0097 35.2943C71.4446 34.9633 71.8628 34.6824 72.2675 34.4454C72.3801 34.3796 72.4179 34.235 72.352 34.1224ZM56.7482 43.9877C56.8187 43.8779 56.7872 43.7318 56.6774 43.6613C56.2453 43.3832 55.8509 43.019 55.4907 42.5902C55.4068 42.4904 55.2577 42.4776 55.1579 42.5615C55.0582 42.6454 55.0454 42.7942 55.1293 42.8939C55.5136 43.3511 55.9424 43.7495 56.4219 44.0581C56.5317 44.1289 56.6777 44.0972 56.7482 43.9877ZM54.4817 41.566C54.5952 41.5019 54.6352 41.358 54.5708 41.2445C54.4375 41.0087 54.3106 40.765 54.1896 40.5159C54.1328 40.3984 53.9916 40.3493 53.8742 40.4064C53.7571 40.4631 53.708 40.6043 53.765 40.7214C53.8897 40.9792 54.0212 41.2317 54.1603 41.4769C54.2243 41.5904 54.3686 41.6303 54.4817 41.566Z" fill="#B5CDFB"/>
</svg>
