  <svg
    width="41"
    height="40"
    viewBox="0 0 41 40"
    fill="none"
    xmlns="http://www.w3.org/2000/svg"
  >
    <path
      d="M20.5 37.5C10.835 37.5 3 29.665 3 20C3 10.335 10.835 2.5 20.5 2.5C30.165 2.5 38 10.335 38 20C38 29.665 30.165 37.5 20.5 37.5ZM20.5 40C31.5457 40 40.5 31.0457 40.5 20C40.5 8.95431 31.5457 0 20.5 0C9.45431 0 0.5 8.95431 0.5 20C0.5 31.0457 9.45431 40 20.5 40Z"
      fill="#3EE8AF"
    />
    <path
      d="M27.9242 12.4242C27.9065 12.4419 27.8899 12.4606 27.8744 12.4803L19.1935 23.5419L13.9597 18.3081C13.2275 17.5758 12.0403 17.5758 11.308 18.3081C10.5758 19.0403 10.5758 20.2275 11.308 20.9597L17.9242 27.5758C18.6564 28.3081 19.8436 28.3081 20.5758 27.5758C20.5921 27.5595 20.6075 27.5423 20.6219 27.5243L30.6024 15.0487C31.3079 14.3145 31.2991 13.1474 30.5758 12.4242C29.8436 11.6919 28.6564 11.6919 27.9242 12.4242Z"
      fill="#3EE8AF"
    />
  </svg>