<svg width="1440" height="790" viewBox="0 0 1440 790" fill="none" xmlns="http://www.w3.org/2000/svg">
  <g clip-path="url(#clip0_1_9)">
    <rect width="1440" height="790" fill="#14151A" />
    <path opacity="0.5" fill-rule="evenodd" clip-rule="evenodd"
      d="M1175.64 333.072C1175.64 348.981 1188.54 361.878 1204.45 361.878C1220.36 361.878 1233.26 348.981 1233.26 333.072V194.806C1233.26 178.897 1220.36 166 1204.45 166C1188.54 166 1175.64 178.897 1175.64 194.806V333.072ZM963.961 575.311C948.052 575.311 935.155 562.414 935.155 546.505V442.805C935.155 426.896 948.052 413.999 963.961 413.999C979.869 413.999 992.766 426.896 992.766 442.805V546.505C992.766 562.414 979.869 575.311 963.961 575.311ZM853.489 686.455C837.581 686.455 824.684 673.558 824.684 657.65V519.383C824.684 503.474 837.581 490.577 853.489 490.577C869.398 490.577 882.295 503.474 882.295 519.383V657.65C882.295 673.558 869.398 686.455 853.489 686.455ZM1077.7 458.312C1061.8 458.312 1048.9 445.415 1048.9 429.506V325.806C1048.9 309.897 1061.8 297 1077.7 297C1093.61 297 1106.51 309.897 1106.51 325.806V429.506C1106.51 445.415 1093.61 458.312 1077.7 458.312ZM1302.39 420.94C1302.39 436.848 1315.29 449.745 1331.19 449.745C1347.1 449.745 1360 436.848 1360 420.94V351.806C1360 335.897 1347.1 323.001 1331.19 323.001C1315.29 323.001 1302.39 335.897 1302.39 351.806V420.94Z"
      fill="url(#paint0_linear_1_9)" />
    <path opacity="0.5" fill-rule="evenodd" clip-rule="evenodd"
      d="M212.511 275.878C228.42 275.878 241.316 262.981 241.316 247.072V108.806C241.316 92.8967 228.42 80 212.511 80C196.602 80 183.705 92.8967 183.705 108.806V247.072C183.705 262.981 196.602 275.878 212.511 275.878ZM437.661 441.989C453.57 441.989 466.467 429.093 466.467 413.184V274.917C466.467 259.008 453.57 246.111 437.661 246.111C421.752 246.111 408.856 259.008 408.856 274.917V413.184C408.856 429.093 421.752 441.989 437.661 441.989ZM140.845 320.505C140.845 336.414 127.948 349.311 112.039 349.311C96.1306 349.311 83.2339 336.414 83.2339 320.505V216.805C83.2339 200.896 96.1306 187.999 112.039 187.999C127.948 187.999 140.845 200.896 140.845 216.805V320.505ZM714.195 499.6C730.104 499.6 743 486.703 743 470.794V390.139C743 374.23 730.104 361.333 714.195 361.333C698.286 361.333 685.389 374.23 685.389 390.139V470.794C685.389 486.703 698.286 499.6 714.195 499.6ZM599.211 526.505C599.211 542.414 586.314 555.311 570.406 555.311C554.497 555.311 541.6 542.414 541.6 526.505V422.805C541.6 406.896 554.497 393.999 570.406 393.999C586.314 393.999 599.211 406.896 599.211 422.805V526.505ZM315.917 338.288C331.826 338.288 344.723 325.391 344.723 309.483V228.827C344.723 212.918 331.826 200.021 315.917 200.021C300.008 200.021 287.112 212.918 287.112 228.827V309.483C287.112 325.391 300.008 338.288 315.917 338.288ZM47.1006 463.505C47.1006 479.414 34.2039 492.311 18.295 492.311C2.38611 492.311 -10.5106 479.414 -10.5106 463.505V359.805C-10.5106 343.896 2.38611 330.999 18.295 330.999C34.2039 330.999 47.1006 343.896 47.1006 359.805V463.505Z"
      fill="url(#paint1_linear_1_9)" />
  </g>
  <defs>
    <linearGradient id="paint0_linear_1_9" x1="768.193" y1="71.0521" x2="1354.83" y2="275.783"
      gradientUnits="userSpaceOnUse">
      <stop offset="0.015625" stop-color="#6EE5B3" />
      <stop offset="0.430034" stop-color="#68D8E2" />
      <stop offset="1" stop-color="#4475F6" />
    </linearGradient>
    <linearGradient id="paint1_linear_1_9" x1="822.516" y1="-6.71206" x2="104.072" y2="379.74"
      gradientUnits="userSpaceOnUse">
      <stop offset="0.015625" stop-color="#6EE5B3" />
      <stop offset="0.430034" stop-color="#68D8E2" />
      <stop offset="1" stop-color="#4475F6" />
    </linearGradient>
    <clipPath id="clip0_1_9">
      <rect width="1440" height="790" fill="white" />
    </clipPath>
  </defs>
</svg>
