<svg width="327" height="32" viewBox="0 0 327 32" fill="none" xmlns="http://www.w3.org/2000/svg">
<path d="M29.0503 25.0724H30.8157V18.0333H39.8436V25.0724H41.609V9.42993H39.8436V16.3797H30.8157V9.42993H29.0503V25.0724Z" fill="white"/>
<path d="M47.4249 25.0724H58.8439V23.4635H49.1903V17.9886H57.7266V16.3797H49.1903V11.0389H58.7322V9.42993H47.4249V25.0724Z" fill="white"/>
<path d="M63.7919 25.0724H74.3618V23.4411H65.5573V9.42993H63.7919V25.0724Z" fill="white"/>
<path d="M79.1805 25.0724H80.9459V9.42993H79.1805V25.0724Z" fill="white"/>
<path d="M97.6055 9.42993L92.8233 15.8657L88.0412 9.42993H85.963L91.7284 17.0947L85.7395 25.0724H87.7731L92.7787 18.3238L97.7842 25.0724H99.8848L93.896 17.0947L99.6613 9.42993H97.6055Z" fill="white"/>
<path fill-rule="evenodd" clip-rule="evenodd" d="M17.7653 12.5027C17.7653 12.8112 18.0154 13.0613 18.324 13.0613C18.6325 13.0613 18.8826 12.8112 18.8826 12.5027V9.82111C18.8826 9.51257 18.6325 9.26245 18.324 9.26245C18.0154 9.26245 17.7653 9.51257 17.7653 9.82111V12.5027ZM12.8491 15.4077C12.8491 15.7162 13.0992 15.9664 13.4078 15.9664C13.7163 15.9664 13.9664 15.7162 13.9664 15.4077V13.3965C13.9664 13.088 13.7163 12.8379 13.4078 12.8379C13.0992 12.8379 12.8491 13.088 12.8491 13.3965V15.4077ZM6.59213 23.6759C6.59213 23.9844 6.84225 24.2345 7.15079 24.2345C7.45933 24.2345 7.70945 23.9844 7.70945 23.6759V20.9943C7.70945 20.6858 7.45933 20.4356 7.15079 20.4356C6.84225 20.4356 6.59213 20.6858 6.59213 20.9943V23.6759ZM1.78766 25.3518C1.47912 25.3518 1.229 25.1017 1.229 24.7932V23.2289C1.229 22.9204 1.47912 22.6703 1.78766 22.6703C2.0962 22.6703 2.34632 22.9204 2.34632 23.2289V24.7932C2.34632 25.1017 2.0962 25.3518 1.78766 25.3518ZM4.69269 25.7988C4.38415 25.7988 4.13403 25.5486 4.13403 25.2401V23.2289C4.13403 22.9204 4.38415 22.6703 4.69269 22.6703C5.00123 22.6703 5.25135 22.9204 5.25135 23.2289V25.2401C5.25135 25.5486 5.00123 25.7988 4.69269 25.7988ZM9.05023 21.6647C9.05023 21.9732 9.30035 22.2233 9.60889 22.2233C9.91743 22.2233 10.1676 21.9732 10.1676 21.6647V20.1004C10.1676 19.7919 9.91743 19.5418 9.60889 19.5418C9.30035 19.5418 9.05023 19.7919 9.05023 20.1004V21.6647ZM15.8659 14.1787C15.5573 14.1787 15.3072 13.9285 15.3072 13.62V11.6088C15.3072 11.3003 15.5573 11.0502 15.8659 11.0502C16.1744 11.0502 16.4245 11.3003 16.4245 11.6088V13.62C16.4245 13.9285 16.1744 14.1787 15.8659 14.1787ZM20.2234 11.1619C20.2234 11.4704 20.4735 11.7206 20.7821 11.7206C21.0906 11.7206 21.3407 11.4704 21.3407 11.1619V9.82111C21.3407 9.51257 21.0906 9.26245 20.7821 9.26245C20.4735 9.26245 20.2234 9.51257 20.2234 9.82111V11.1619Z" fill="url(#paint0_linear_131_432)"/>
<path fill-rule="evenodd" clip-rule="evenodd" d="M0.00243572 11.0236C0.0428131 11.6393 0.574714 12.1058 1.19047 12.0654C3.12055 11.9388 7.83244 12.9215 10.2733 18.1286L10.2936 18.1719L10.3175 18.2133C11.4097 20.104 12.6405 21.8136 14.3515 23.09C16.0822 24.3811 18.2236 25.1703 21.0418 25.3614C21.6574 25.4031 22.1904 24.9378 22.2321 24.3222C22.2739 23.7065 21.8086 23.1736 21.1929 23.1318C18.7374 22.9654 17.0241 22.2958 15.6877 21.2989C14.3419 20.2949 13.2989 18.9007 12.2757 17.1357C9.34713 10.9398 3.65171 9.66457 1.04425 9.83556C0.428494 9.87593 -0.0379418 10.4078 0.00243572 11.0236Z" fill="#5BB1E9"/>
<path d="M114.544 25.5V8.7H116.44V25.5H114.544ZM122.36 25.5V8.7H124.136L134.72 22.164V8.7H136.568V25.5H135.056L124.208 11.724V25.5H122.36ZM148.081 25.74C145.417 25.74 143.233 24.852 141.217 23.052L142.393 21.66C144.145 23.244 145.825 24.036 148.153 24.036C150.409 24.036 151.897 22.836 151.897 21.18V21.132C151.897 19.572 151.057 18.684 147.529 17.94C143.665 17.1 141.889 15.852 141.889 13.092V13.044C141.889 10.404 144.217 8.46 147.409 8.46C149.857 8.46 151.609 9.156 153.313 10.524L152.209 11.988C150.649 10.716 149.089 10.164 147.361 10.164C145.177 10.164 143.785 11.364 143.785 12.876V12.924C143.785 14.508 144.649 15.396 148.345 16.188C152.089 17.004 153.817 18.372 153.817 20.94V20.988C153.817 23.868 151.417 25.74 148.081 25.74ZM162.761 25.5V10.452H157.121V8.7H170.321V10.452H164.681V25.5H162.761ZM175.052 25.5V8.7H176.948V25.5H175.052ZM187.308 25.5V10.452H181.668V8.7H194.868V10.452H189.228V25.5H187.308ZM206.151 25.764C201.999 25.764 199.167 23.22 199.167 18.468V8.7H201.063V18.348C201.063 21.972 203.007 24.012 206.199 24.012C209.295 24.012 211.263 22.14 211.263 18.468V8.7H213.159V18.324C213.159 23.22 210.351 25.764 206.151 25.764ZM223.082 25.5V10.452H217.442V8.7H230.642V10.452H225.002V25.5H223.082ZM235.372 25.5V8.7H237.268V25.5H235.372ZM250.989 25.788C245.877 25.788 242.445 21.78 242.445 17.148V17.1C242.445 12.468 245.925 8.412 251.037 8.412C256.149 8.412 259.581 12.42 259.581 17.052V17.1C259.581 21.732 256.101 25.788 250.989 25.788ZM251.037 24.036C254.877 24.036 257.613 20.964 257.613 17.148V17.1C257.613 13.284 254.829 10.164 250.989 10.164C247.148 10.164 244.413 13.236 244.413 17.052V17.1C244.413 20.916 247.197 24.036 251.037 24.036ZM264.579 25.5V8.7H266.355L276.939 22.164V8.7H278.787V25.5H277.275L266.427 11.724V25.5H264.579ZM283.1 25.5L290.756 8.58H292.532L300.188 25.5H298.148L296.18 21.06H287.036L285.044 25.5H283.1ZM287.78 19.332H295.436L291.62 10.788L287.78 19.332ZM304.501 25.5V8.7H306.397V23.748H315.853V25.5H304.501Z" fill="#A1A1A3"/>
<defs>
<linearGradient id="paint0_linear_131_432" x1="-0.893332" y1="6.24569" x2="20.233" y2="14.9639" gradientUnits="userSpaceOnUse">
<stop offset="0.015625" stop-color="#6EE5B3"/>
<stop offset="0.430034" stop-color="#68D8E2"/>
<stop offset="1" stop-color="#4475F6"/>
</linearGradient>
</defs>
</svg>
