<svg width="564" height="349" viewBox="0 0 564 349" fill="none" xmlns="http://www.w3.org/2000/svg">
<path d="M171.727 149L170 146.924L196.038 131.126L207.995 134.239H219.685L232.04 137.238L234.83 140.12L247.318 128.473L256.617 106.217L280.264 99.4131L314.539 82L316 84.191L281.327 101.719L258.875 108.293L249.709 130.088L234.697 143.926L230.313 139.544L219.154 136.776L207.463 136.661L196.57 133.893L171.727 149Z" fill="white"/>
<rect x="156" y="193" width="40" height="2" rx="1" fill="white"/>
<rect x="209" y="193" width="16" height="2" rx="1" fill="white"/>
<rect x="238" y="193" width="25" height="2" rx="1" fill="white"/>
<rect x="277" y="193" width="15" height="2" rx="1" fill="white"/>
<rect x="308" y="193" width="25" height="2" rx="1" fill="white"/>
<rect x="347" y="193" width="13" height="2" rx="1" fill="white"/>
<rect x="371" y="193" width="18" height="2" rx="1" fill="white"/>
<rect x="397" y="193" width="24" height="2" rx="1" fill="white"/>
<path fill-rule="evenodd" clip-rule="evenodd" d="M181.85 74.2499C181.85 74.6641 182.186 74.9999 182.6 74.9999C183.014 74.9999 183.35 74.6641 183.35 74.2499V70.6499C183.35 70.2357 183.014 69.8999 182.6 69.8999C182.186 69.8999 181.85 70.2357 181.85 70.6499V74.2499ZM175.25 78.1499C175.25 78.5641 175.586 78.8999 176 78.8999C176.414 78.8999 176.75 78.5641 176.75 78.1499V75.4499C176.75 75.0357 176.414 74.6999 176 74.6999C175.586 74.6999 175.25 75.0357 175.25 75.4499V78.1499ZM166.85 89.2499C166.85 89.6641 167.186 89.9999 167.6 89.9999C168.014 89.9999 168.35 89.6641 168.35 89.2499V85.6499C168.35 85.2357 168.014 84.8999 167.6 84.8999C167.186 84.8999 166.85 85.2357 166.85 85.6499V89.2499ZM160.4 91.4999C159.986 91.4999 159.65 91.1641 159.65 90.7499V88.6499C159.65 88.2357 159.986 87.8999 160.4 87.8999C160.814 87.8999 161.15 88.2357 161.15 88.6499V90.7499C161.15 91.1641 160.814 91.4999 160.4 91.4999ZM164.3 92.0999C163.886 92.0999 163.55 91.7641 163.55 91.3499V88.6499C163.55 88.2357 163.886 87.8999 164.3 87.8999C164.714 87.8999 165.05 88.2357 165.05 88.6499V91.3499C165.05 91.7641 164.714 92.0999 164.3 92.0999ZM170.15 86.5499C170.15 86.9641 170.486 87.2999 170.9 87.2999C171.314 87.2999 171.65 86.9641 171.65 86.5499L171.65 84.4499C171.65 84.0357 171.314 83.6999 170.9 83.6999C170.486 83.6999 170.15 84.0357 170.15 84.4499V86.5499ZM179.3 76.4999C178.886 76.4999 178.55 76.1641 178.55 75.7499V73.0499C178.55 72.6357 178.886 72.2999 179.3 72.2999C179.714 72.2999 180.05 72.6357 180.05 73.0499V75.7499C180.05 76.1641 179.714 76.4999 179.3 76.4999ZM185.15 72.4499C185.15 72.8641 185.486 73.1999 185.9 73.1999C186.314 73.1999 186.65 72.8641 186.65 72.4499V70.6499C186.65 70.2357 186.314 69.8999 185.9 69.8999C185.486 69.8999 185.15 70.2357 185.15 70.6499V72.4499Z" fill="url(#paint0_linear_161_320)"/>
<path fill-rule="evenodd" clip-rule="evenodd" d="M158.003 72.2643C158.057 73.091 158.772 73.7172 159.598 73.663C162.189 73.493 168.515 74.8123 171.792 81.8028L171.819 81.8609L171.851 81.9165C173.318 84.4548 174.97 86.7499 177.267 88.4635C179.59 90.1968 182.465 91.2563 186.249 91.5128C187.075 91.5688 187.791 90.9442 187.847 90.1177C187.903 89.2911 187.278 88.5757 186.452 88.5197C183.155 88.2962 180.855 87.3973 179.061 86.0589C177.254 84.7111 175.854 82.8394 174.48 80.4698C170.549 72.1519 162.902 70.4398 159.402 70.6694C158.575 70.7236 157.949 71.4377 158.003 72.2643Z" fill="#5BB1E9"/>
<rect x="143" y="33" width="289" height="190" rx="3" stroke="white" stroke-width="2"/>
<rect x="142" y="210" width="291" height="2" fill="white"/>
<rect x="381" y="75" width="40" height="2.59459" rx="1.2973" fill="white"/>
<rect x="381" y="126.892" width="40" height="2.59459" rx="1.2973" fill="white"/>
<rect x="381" y="85.3784" width="40" height="2.59459" rx="1.2973" fill="white"/>
<rect x="381" y="137.27" width="40" height="2.59459" rx="1.2973" fill="white"/>
<rect x="381" y="95.7568" width="40" height="2.59459" rx="1.2973" fill="white"/>
<rect x="381" y="147.649" width="40" height="2.59459" rx="1.2973" fill="white"/>
<rect x="381" y="106.135" width="40" height="2.59459" rx="1.2973" fill="white"/>
<rect x="381" y="158.027" width="40" height="2.59459" rx="1.2973" fill="white"/>
<rect x="381" y="116.513" width="40" height="2.59459" rx="1.2973" fill="white"/>
<rect x="381" y="168.406" width="40" height="2.59459" rx="1.2973" fill="white"/>
<rect x="333" y="75" width="40" height="2.59459" rx="1.2973" fill="white"/>
<rect x="333" y="126.892" width="40" height="2.59459" rx="1.2973" fill="white"/>
<rect x="333" y="85.3784" width="40" height="2.59459" rx="1.2973" fill="white"/>
<rect x="333" y="137.27" width="40" height="2.59459" rx="1.2973" fill="white"/>
<rect x="333" y="95.7568" width="40" height="2.59459" rx="1.2973" fill="white"/>
<rect x="333" y="147.649" width="40" height="2.59459" rx="1.2973" fill="white"/>
<rect x="333" y="106.135" width="40" height="2.59459" rx="1.2973" fill="white"/>
<rect x="333" y="158.027" width="40" height="2.59459" rx="1.2973" fill="white"/>
<rect x="333" y="116.513" width="40" height="2.59459" rx="1.2973" fill="white"/>
<rect x="333" y="168.406" width="40" height="2.59459" rx="1.2973" fill="white"/>
<circle cx="153" cy="43" r="3" fill="white"/>
<circle cx="163" cy="43" r="3" fill="white"/>
<circle cx="173" cy="43" r="3" fill="white"/>
<rect x="142" y="54" width="291" height="2" fill="white"/>
<path d="M27 231C32.3848 231 36.75 226.635 36.75 221.25C36.75 215.865 32.3848 211.5 27 211.5C21.6152 211.5 17.25 215.865 17.25 221.25C17.25 226.635 21.6152 231 27 231ZM33.5 221.25C33.5 224.84 30.5899 227.75 27 227.75C23.4101 227.75 20.5 224.84 20.5 221.25C20.5 217.66 23.4101 214.75 27 214.75C30.5899 214.75 33.5 217.66 33.5 221.25Z" fill="white"/>
<path d="M46.5 247.25C46.5 250.5 43.25 250.5 43.25 250.5H10.75C10.75 250.5 7.5 250.5 7.5 247.25C7.5 244 10.75 234.25 27 234.25C43.25 234.25 46.5 244 46.5 247.25ZM43.2499 247.239C43.2453 246.437 42.7502 244.034 40.5456 241.829C38.4258 239.71 34.4396 237.5 27 237.5C19.5604 237.5 15.5741 239.71 13.4543 241.829C11.2497 244.034 10.7546 246.437 10.75 247.239H43.2499Z" fill="white"/>
<path d="M11.4 205H1V215.4" stroke="white" stroke-width="2"/>
<path d="M42.6 205H53V215.4" stroke="white" stroke-width="2"/>
<path d="M11.4 257H1V246.6" stroke="white" stroke-width="2"/>
<path d="M42.6 257H53V246.6" stroke="white" stroke-width="2"/>
<path d="M73 7.82886L95.3082 18.1249H98.3125C99.2445 18.1249 100 18.8804 100 19.8124V26.5624C100 27.4944 99.2445 28.2499 98.3125 28.2499H96.625V51.8749C97.3994 51.8749 98.0743 52.4019 98.2621 53.1531L99.9496 59.9031C100.076 60.4073 99.9624 60.9413 99.6426 61.3509C99.3228 61.7605 98.8322 61.9999 98.3125 61.9999H47.6875C47.1679 61.9999 46.6772 61.7605 46.3574 61.3509C46.0376 60.9413 45.9244 60.4073 46.0504 59.9031L47.7379 53.1531C47.9257 52.4019 48.6007 51.8749 49.375 51.8749V28.2499H47.6875C46.7555 28.2499 46 27.4944 46 26.5624V19.8124C46 18.8804 46.7555 18.1249 47.6875 18.1249H50.6919L73 7.82886ZM58.7457 18.1249H87.2544L73 11.546L58.7457 18.1249ZM52.75 28.2499V51.8749H56.125V28.2499H52.75ZM59.5 28.2499V51.8749H67.9375V28.2499H59.5ZM71.3125 28.2499V51.8749H74.6875V28.2499H71.3125ZM78.0625 28.2499V51.8749H86.5V28.2499H78.0625ZM89.875 28.2499V51.8749H93.25V28.2499H89.875ZM96.625 24.8749V21.4999H49.375V24.8749H96.625ZM95.3075 55.2499H50.6926L49.8488 58.6249H96.1512L95.3075 55.2499Z" fill="white"/>
<path d="M27.0772 257V284.125C26.4858 290.619 29.0289 303.887 43.9324 305H112" stroke="white" stroke-width="2" stroke-linecap="round" stroke-linejoin="round" stroke-dasharray="6 6"/>
<path d="M480.955 40V60.3436C481.296 65.2145 479.83 75.165 471.239 76H432" stroke="white" stroke-width="2" stroke-linecap="round" stroke-linejoin="round" stroke-dasharray="6 6"/>
<path d="M473.345 3.9771C470.63 4.71305 467.88 5.58312 466.253 6.11412C465.805 6.26021 465.491 6.64792 465.432 7.09096C464.047 17.4822 467.247 25.0666 471.064 30.0607C472.981 32.5681 475.055 34.4226 476.783 35.6418C477.649 36.2519 478.413 36.693 479.014 36.9759C479.315 37.1175 479.561 37.213 479.748 37.2709C479.902 37.3186 479.981 37.3298 480 37.3325C480.019 37.3298 480.098 37.3186 480.252 37.2709C480.439 37.213 480.685 37.1175 480.986 36.9759C481.587 36.693 482.351 36.2519 483.217 35.6418C484.945 34.4226 487.019 32.5681 488.936 30.0607C492.753 25.0666 495.953 17.4822 494.568 7.09096C494.509 6.64792 494.195 6.26021 493.747 6.11412C492.12 5.58311 489.37 4.71305 486.655 3.9771C483.879 3.22463 481.327 2.66667 480 2.66667C478.673 2.66667 476.121 3.22463 473.345 3.9771ZM472.679 1.39913C475.393 0.663358 478.276 0 480 0C481.724 0 484.607 0.663358 487.321 1.39913C490.096 2.15142 492.892 3.03652 494.537 3.57321C495.909 4.02109 496.948 5.23398 497.147 6.73024C498.638 17.9235 495.18 26.2172 490.985 31.705C488.895 34.4385 486.624 36.4759 484.692 37.8384C483.727 38.5192 482.832 39.0414 482.072 39.399C481.37 39.7295 480.619 40 480 40C479.381 40 478.63 39.7295 477.928 39.399C477.168 39.0414 476.273 38.5192 475.308 37.8384C473.376 36.4759 471.105 34.4385 469.015 31.705C464.82 26.2172 461.362 17.9235 462.853 6.73023C463.052 5.23398 464.091 4.02109 465.463 3.57321C467.108 3.03652 469.904 2.15142 472.679 1.39913Z" fill="white"/>
<path d="M487.134 12.8661C487.622 13.3543 487.622 14.1457 487.134 14.6339L479.634 22.1339C479.399 22.3683 479.082 22.5 478.75 22.5C478.418 22.5 478.101 22.3683 477.866 22.1339L474.116 18.3839C473.628 17.8957 473.628 17.1043 474.116 16.6161C474.604 16.128 475.396 16.128 475.884 16.6161L478.75 19.4822L485.366 12.8661C485.854 12.378 486.646 12.378 487.134 12.8661Z" fill="white"/>
<path d="M73.0077 63V141.284C72.8059 147.133 76.5178 158.831 92.9791 158.831C97.8207 159.731 107.988 157.481 109.925 141.284V108.441C109.319 103.792 111.619 94.6736 125.66 95.3935H142" stroke="white" stroke-width="2" stroke-linecap="round" stroke-linejoin="round" stroke-dasharray="6 6"/>
<rect x="369" y="183" width="162" height="114" rx="3" fill="black" stroke="white" stroke-width="2"/>
<rect x="376" y="254" width="70" height="2" rx="1" fill="white"/>
<rect x="376" y="262" width="70" height="2" rx="1" fill="white"/>
<rect x="376" y="270" width="70" height="2" rx="1" fill="white"/>
<rect x="376" y="278" width="70" height="2" rx="1" fill="white"/>
<rect x="376" y="286" width="70" height="2" rx="1" fill="white"/>
<rect x="454" y="254" width="70" height="2" rx="1" fill="white"/>
<rect x="454" y="262" width="70" height="2" rx="1" fill="white"/>
<rect x="454" y="270" width="70" height="2" rx="1" fill="white"/>
<rect x="454" y="278" width="70" height="2" rx="1" fill="white"/>
<rect x="454" y="286" width="70" height="2" rx="1" fill="white"/>
<path d="M451 244.16V244.908C451 245.511 451.489 246 452.092 246H522C523.105 246 524 245.105 524 244V214.384C524 213.289 523.12 212.398 522.026 212.384L493.146 212.005C492.919 212.002 492.734 212.185 492.734 212.412C492.734 212.637 492.552 212.819 492.327 212.819H487.428C487.24 212.819 487.087 212.972 487.087 213.161C487.087 213.349 486.934 213.502 486.745 213.502H482.719C482.088 213.502 481.577 214.013 481.577 214.643C481.577 215.288 481.043 215.805 480.398 215.784L474.422 215.583C473.891 215.565 473.451 215.991 473.451 216.522V216.567C473.451 217.061 473.05 217.462 472.556 217.462H472.002C471.813 217.462 471.66 217.615 471.66 217.803C471.66 217.992 471.508 218.145 471.319 218.145H471.178C470.912 218.145 470.696 218.36 470.696 218.627V221.341C470.696 222.14 470.049 222.787 469.25 222.787H468.648C468.182 222.787 467.804 223.165 467.804 223.632C467.804 224.078 467.457 224.447 467.011 224.475L465.93 224.542C465.745 224.553 465.6 224.707 465.6 224.893V224.901C465.6 225.091 465.446 225.245 465.256 225.245C465.065 225.245 464.911 225.399 464.911 225.589V226.337C464.911 226.941 464.417 227.43 463.814 227.43C463.262 227.43 462.79 227.838 462.717 228.385L462.638 228.968C462.599 229.26 462.35 229.478 462.056 229.478H461.741C461.59 229.478 461.468 229.6 461.468 229.751C461.468 229.902 461.346 230.024 461.195 230.024H461.02C460.802 230.024 460.615 230.182 460.579 230.398L460.573 230.434C460.533 230.67 460.328 230.843 460.088 230.843H459.986C459.659 230.843 459.39 231.1 459.374 231.426L459.264 233.711C459.264 234.088 458.958 234.394 458.581 234.394H458.346C458.064 234.394 457.807 234.552 457.68 234.803L457.646 234.871C457.54 235.081 457.326 235.213 457.091 235.213C456.764 235.213 456.492 235.466 456.47 235.793L456.39 236.995C456.38 237.145 456.255 237.261 456.105 237.261C455.948 237.261 455.821 237.389 455.821 237.546V238.601C455.821 238.766 455.687 238.9 455.522 238.9C455.377 238.9 455.252 239.005 455.228 239.149L455.181 239.429C455.15 239.613 455.04 239.774 454.879 239.869L454.741 239.951C454.557 240.061 454.443 240.26 454.443 240.475V240.743C454.443 240.932 454.291 241.084 454.102 241.084C453.974 241.084 453.856 241.157 453.798 241.272L453.46 241.942C453.387 242.086 453.24 242.177 453.079 242.177C452.844 242.177 452.653 242.368 452.653 242.603V242.688C452.653 242.943 452.465 243.159 452.213 243.195L451.94 243.233C451.796 243.254 451.689 243.377 451.689 243.523C451.689 243.684 451.558 243.815 451.396 243.815H451.344C451.154 243.815 451 243.969 451 244.16Z" fill="#BE4355"/>
<path d="M400.225 192H377C375.895 192 375 192.895 375 194V244C375 245.105 375.895 246 377 246H447.506C448.331 246 449 245.331 449 244.506V244.211C449 243.799 448.757 243.426 448.38 243.259L448.099 243.135C447.893 243.044 447.76 242.839 447.76 242.613C447.76 242.418 447.66 242.236 447.495 242.132L446.532 241.522C446.353 241.409 446.244 241.212 446.244 240.999V240.821C446.244 240.578 446.047 240.381 445.804 240.381C445.649 240.381 445.506 240.3 445.427 240.168L444.797 239.124C444.751 239.048 444.696 238.979 444.634 238.916C444.429 238.713 444.315 238.437 444.315 238.149V237.491C444.315 237.144 444.191 236.806 443.968 236.541C443.748 236.278 443.626 235.944 443.626 235.602V235.339C443.626 235.061 443.499 234.798 443.281 234.624C443.064 234.451 442.937 234.188 442.937 233.91V232.639C442.937 232.449 442.782 232.294 442.592 232.294C442.402 232.294 442.248 232.14 442.248 231.95V231.382C442.248 231.094 442.112 230.822 441.881 230.65L441.696 230.513C441.35 230.254 441.145 229.847 441.145 229.414V223.392C441.145 222.783 440.652 222.289 440.043 222.289C439.434 222.289 438.94 221.796 438.94 221.187V220.713C438.94 220.171 438.623 219.679 438.129 219.455C437.691 219.258 437.388 218.847 437.328 218.37L436.968 215.504C436.91 215.04 436.603 214.644 436.168 214.471C435.75 214.305 435.45 213.932 435.376 213.489L435.28 212.92C435.166 212.237 434.574 211.736 433.882 211.736C433.099 211.736 432.464 211.101 432.464 210.318V209.876C432.464 209.162 431.885 208.584 431.171 208.584C430.624 208.584 430.137 208.239 429.954 207.724L429.845 207.419C429.598 206.72 428.937 206.254 428.196 206.254H426.819C426.387 206.254 425.985 206.032 425.755 205.666C425.553 205.344 425.217 205.131 424.84 205.086L422.416 204.797C422.151 204.765 421.918 204.602 421.798 204.363C421.663 204.094 421.387 203.924 421.086 203.924H420.269C419.564 203.924 418.932 203.487 418.683 202.827L418.548 202.469C418.381 202.025 417.956 201.731 417.481 201.731C416.851 201.731 416.341 201.22 416.341 200.591V199.546C416.341 198.709 415.662 198.03 414.825 198.03H414.543C413.861 198.03 413.309 197.478 413.309 196.797V196.39C413.309 195.934 412.939 195.563 412.482 195.563H412.067C411.84 195.563 411.655 195.379 411.655 195.152C411.655 194.925 411.471 194.741 411.244 194.741H402.966C402.21 194.741 401.596 194.127 401.596 193.371C401.596 192.614 400.982 192 400.225 192Z" fill="#73CA84"/>
<rect x="115" y="205" width="97.125" height="141" rx="3" fill="black" stroke="white" stroke-width="2"/>
<path d="M137.478 321.647C137.559 321.383 137.411 321.103 137.147 321.022C136.883 320.941 136.603 321.089 136.522 321.353L132.522 334.353C132.441 334.617 132.589 334.897 132.853 334.978C133.117 335.059 133.397 334.911 133.478 334.647L137.478 321.647Z" fill="white"/>
<path d="M131.854 324.147C132.049 324.342 132.049 324.658 131.854 324.854L128.707 328L131.854 331.147C132.049 331.342 132.049 331.658 131.854 331.854C131.658 332.049 131.342 332.049 131.146 331.854L127.646 328.354C127.451 328.158 127.451 327.842 127.646 327.647L131.146 324.147C131.342 323.951 131.658 323.951 131.854 324.147Z" fill="white"/>
<path d="M138.146 324.147C137.951 324.342 137.951 324.658 138.146 324.854L141.293 328L138.146 331.147C137.951 331.342 137.951 331.658 138.146 331.854C138.342 332.049 138.658 332.049 138.854 331.854L142.354 328.354C142.549 328.158 142.549 327.842 142.354 327.647L138.854 324.147C138.658 323.951 138.342 323.951 138.146 324.147Z" fill="white"/>
<rect x="123" y="214.75" width="30.5" height="6.125" rx="1" stroke="white" stroke-width="2"/>
<rect x="123" y="244" width="57" height="6" rx="1" stroke="white" stroke-width="2"/>
<rect x="123" y="288" width="70" height="6" rx="1" stroke="white" stroke-width="2"/>
<rect x="123" y="229.375" width="61.375" height="6.125" rx="1" stroke="white" stroke-width="2"/>
<rect x="123" y="258.625" width="23.1875" height="6.125" rx="1" stroke="white" stroke-width="2"/>
<rect x="123" y="302.5" width="63.8125" height="6.125" rx="1" stroke="white" stroke-width="2"/>
<rect x="123" y="273.25" width="43.5" height="6.125" rx="1" stroke="white" stroke-width="2"/>
<path d="M201.304 214L197 220H206L201.304 214Z" fill="#73CA84"/>
<path d="M201.304 243L197 249H206L201.304 243Z" fill="#73CA84"/>
<path d="M201.304 303L197 309H206L201.304 303Z" fill="#73CA84"/>
<path d="M201.304 258L197 264H206L201.304 258Z" fill="#73CA84"/>
<path d="M201.304 235L197 229H206L201.304 235Z" fill="#BE4355"/>
<path d="M201.304 279L197 273H206L201.304 279Z" fill="#BE4355"/>
<path d="M201.304 294L197 288H206L201.304 294Z" fill="#BE4355"/>
<rect x="529" y="103" width="24" height="6" rx="1" stroke="white" stroke-width="2"/>
<rect x="504" y="121" width="50" height="2" rx="1" fill="white"/>
<rect x="504" y="135" width="50" height="2" rx="1" fill="white"/>
<circle cx="540.633" cy="122" r="4" fill="black" stroke="white" stroke-width="2"/>
<path d="M522.184 135.9C522.184 138.035 520.412 139.8 518.184 139.8C515.955 139.8 514.184 138.035 514.184 135.9C514.184 133.765 515.955 132 518.184 132C520.412 132 522.184 133.765 522.184 135.9Z" fill="black" stroke="white" stroke-width="2"/>
<rect x="495" y="93" width="68" height="58" rx="3" stroke="white" stroke-width="2"/>
<path d="M514.478 100.647C514.559 100.383 514.411 100.103 514.147 100.022C513.883 99.941 513.603 100.089 513.522 100.353L509.522 113.353C509.441 113.617 509.589 113.897 509.853 113.978C510.117 114.059 510.397 113.911 510.478 113.647L514.478 100.647Z" fill="white"/>
<path d="M508.854 103.147C509.049 103.342 509.049 103.658 508.854 103.854L505.707 107L508.854 110.147C509.049 110.342 509.049 110.658 508.854 110.854C508.658 111.049 508.342 111.049 508.146 110.854L504.646 107.354C504.451 107.158 504.451 106.842 504.646 106.647L508.146 103.147C508.342 102.951 508.658 102.951 508.854 103.147Z" fill="white"/>
<path d="M515.146 103.147C514.951 103.342 514.951 103.658 515.146 103.854L518.293 107L515.146 110.147C514.951 110.342 514.951 110.658 515.146 110.854C515.342 111.049 515.658 111.049 515.854 110.854L519.354 107.354C519.549 107.158 519.549 106.842 519.354 106.647L515.854 103.147C515.658 102.951 515.342 102.951 515.146 103.147Z" fill="white"/>
<path d="M494 124.5H432" stroke="white" stroke-width="2"/>
<path d="M529 70.5V92.5" stroke="white" stroke-width="2"/>
<circle cx="529" cy="65" r="5" stroke="white" stroke-width="2"/>
<circle cx="432" cy="124" r="5" fill="white" stroke="white" stroke-width="2"/>
<circle cx="280" cy="288" r="19" stroke="white" stroke-width="2"/>
<path d="M279.8 277L271 288.116L279.8 298.769L289.064 288.116L279.8 277Z" stroke="white" stroke-width="2" stroke-linejoin="round"/>
<path d="M279.8 277V291.822M279.8 298.769V291.822M271 288.116L279.8 291.822M279.8 291.822L289.064 288.116" stroke="white" stroke-width="2" stroke-linejoin="round"/>
<circle cx="328" cy="329" r="19" stroke="white" stroke-width="2"/>
<path d="M324.875 335.25V336.812C324.875 336.985 325.015 337.125 325.187 337.125H326.437C326.61 337.125 326.75 336.985 326.75 336.812V335.25H327.375V336.812C327.375 336.985 327.515 337.125 327.687 337.125H328.937C329.11 337.125 329.25 336.985 329.25 336.812V335.25H329.355C331.845 335.25 333.625 333.959 333.625 331.724C333.625 329.847 332.367 328.821 330.892 328.675V328.565C332.106 328.263 332.996 327.347 332.996 325.827C332.996 323.913 331.558 322.75 329.364 322.75H329.25V321.188C329.25 321.015 329.11 320.875 328.937 320.875H327.687C327.515 320.875 327.375 321.015 327.375 321.188V322.75H326.659V321.188C326.659 321.015 326.519 320.875 326.346 320.875H325.187C325.015 320.875 324.875 321.015 324.875 321.188V322.75L322.377 322.764C322.204 322.764 322.065 322.904 322.065 323.077V324.313C322.065 324.484 322.203 324.624 322.375 324.625L323.318 324.619C323.834 324.622 324.25 325.041 324.25 325.557V332.438C324.25 332.955 323.83 333.375 323.312 333.375L322.377 333.389C322.204 333.389 322.065 333.529 322.065 333.702V334.952C322.065 335.124 322.204 335.264 322.377 335.264L324.875 335.25ZM326.659 324.609H328.807C329.94 324.609 330.605 325.232 330.605 326.248C330.605 327.338 329.886 327.951 328.259 327.951H326.659V324.609ZM326.659 329.673H328.96C330.38 329.673 331.153 330.397 331.153 331.578C331.153 332.768 330.371 333.391 328.457 333.391H326.659V329.673Z" fill="white"/>
<path fill-rule="evenodd" clip-rule="evenodd" d="M313.146 286.854C312.951 286.658 312.951 286.342 313.146 286.146L317.146 282.146C317.342 281.951 317.658 281.951 317.854 282.146C318.049 282.342 318.049 282.658 317.854 282.854L314.707 286H324.5C325.881 286 327 287.119 327 288.5V296.5C327 296.776 326.776 297 326.5 297C326.224 297 326 296.776 326 296.5V288.5C326 287.672 325.328 287 324.5 287H314.707L317.854 290.146C318.049 290.342 318.049 290.658 317.854 290.854C317.658 291.049 317.342 291.049 317.146 290.854L313.146 286.854Z" fill="white"/>
<path fill-rule="evenodd" clip-rule="evenodd" d="M290.854 332.146C291.049 332.342 291.049 332.658 290.854 332.854L286.854 336.854C286.658 337.049 286.342 337.049 286.146 336.854C285.951 336.658 285.951 336.342 286.146 336.146L289.293 333H279.5C278.119 333 277 331.881 277 330.5V322.5C277 322.224 277.224 322 277.5 322C277.776 322 278 322.224 278 322.5V330.5C278 331.328 278.672 332 279.5 332H289.293L286.146 328.854C285.951 328.658 285.951 328.342 286.146 328.146C286.342 327.951 286.658 327.951 286.854 328.146L290.854 332.146Z" fill="white"/>
<defs>
<linearGradient id="paint0_linear_161_320" x1="156.801" y1="65.8499" x2="185.163" y2="77.5541" gradientUnits="userSpaceOnUse">
<stop offset="0.015625" stop-color="#6EE5B3"/>
<stop offset="0.430034" stop-color="#68D8E2"/>
<stop offset="1" stop-color="#4475F6"/>
</linearGradient>
</defs>
</svg>
