<?xml version="1.0" encoding="utf-8"?>
<!-- Generator: Adobe Illustrator 25.0.0, SVG Export Plug-In . SVG Version: 6.00 Build 0)  -->
<svg version="1.1" id="图层_1" xmlns="http://www.w3.org/2000/svg" xmlns:xlink="http://www.w3.org/1999/xlink" x="0px" y="0px"
	 viewBox="0 0 800 628.1" style="enable-background:new 0 0 800 628.1;" xml:space="preserve">
<style type="text/css">
	.st0{fill-rule:evenodd;clip-rule:evenodd;fill:#FFFFFF;}
	.st1{fill:none;stroke:#FFFFFF;stroke-miterlimit:10;}
	.st2{fill:#FFFFFF;}
	.st3{fill:#90D5FC;}
	.st4{fill:#5AB0E9;}
	.st5{stroke:#FFFFFF;stroke-width:2;}
	.st6{fill:none;stroke:#FFFFFF;stroke-width:2;}
	.st7{fill:#C0ECFF;}
</style>
<g>
	<g>
		<g>
			<path class="st0" d="M384.1,293.6c0,0.7,0.6,1.3,1.3,1.3c0.7,0,1.3-0.6,1.3-1.3v-6.3c0-0.7-0.6-1.3-1.3-1.3
				c-0.7,0-1.3,0.6-1.3,1.3V293.6z M372.5,300.5c0,0.7,0.6,1.3,1.3,1.3s1.3-0.6,1.3-1.3v-4.8c0-0.7-0.6-1.3-1.3-1.3
				s-1.3,0.6-1.3,1.3V300.5z M357.7,320c0,0.7,0.6,1.3,1.3,1.3c0.7,0,1.3-0.6,1.3-1.3v-6.3c0-0.7-0.6-1.3-1.3-1.3
				c-0.7,0-1.3,0.6-1.3,1.3V320z M346.3,324c-0.7,0-1.3-0.6-1.3-1.3V319c0-0.7,0.6-1.3,1.3-1.3c0.7,0,1.3,0.6,1.3,1.3v3.7
				C347.6,323.4,347,324,346.3,324z M353.2,325.1c-0.7,0-1.3-0.6-1.3-1.3V319c0-0.7,0.6-1.3,1.3-1.3c0.7,0,1.3,0.6,1.3,1.3v4.8
				C354.5,324.5,353.9,325.1,353.2,325.1z M363.5,315.3c0,0.7,0.6,1.3,1.3,1.3s1.3-0.6,1.3-1.3v-3.7c0-0.7-0.6-1.3-1.3-1.3
				s-1.3,0.6-1.3,1.3V315.3z M379.6,297.6c-0.7,0-1.3-0.6-1.3-1.3v-4.8c0-0.7,0.6-1.3,1.3-1.3s1.3,0.6,1.3,1.3v4.8
				C380.9,297,380.3,297.6,379.6,297.6z M389.9,290.4c0,0.7,0.6,1.3,1.3,1.3s1.3-0.6,1.3-1.3v-3.2c0-0.7-0.6-1.3-1.3-1.3
				s-1.3,0.6-1.3,1.3V290.4z"/>
			<path class="st0" d="M342.1,290.1c0.1,1.5,1.4,2.6,2.8,2.5c4.6-0.3,15.7,2,21.5,14.3l0,0.1l0.1,0.1c2.6,4.5,5.5,8.5,9.5,11.5
				c4.1,3.1,9.2,4.9,15.8,5.4c1.5,0.1,2.7-1,2.8-2.5c0.1-1.5-1-2.7-2.5-2.8c-5.8-0.4-9.9-2-13-4.3c-3.2-2.4-5.7-5.7-8.1-9.9
				c-6.9-14.7-20.4-17.7-26.6-17.3C343.1,287.4,342,288.7,342.1,290.1z"/>
		</g>
		<g>
			<path class="st1" d="M530.6,419.9h263.2c2.8,0,5.1,1.3,5.1,2.8v102.2c0,1.6-2.3,2.8-5.1,2.8H530.6c-2.8,0-5.1-1.3-5.1-2.8V422.8
				C525.5,421.2,527.8,419.9,530.6,419.9z"/>
			<path class="st2" d="M539,487.1h114.7c0.9,0,1.7,0.4,1.7,0.9l0,0c0,0.5-0.8,0.9-1.7,0.9H539c-0.9,0-1.7-0.4-1.7-0.9l0,0
				C537.3,487.5,538.1,487.1,539,487.1z"/>
			<path class="st2" d="M539,494.7h114.7c0.9,0,1.7,0.4,1.7,0.9l0,0c0,0.5-0.8,0.9-1.7,0.9H539c-0.9,0-1.7-0.4-1.7-0.9l0,0
				C537.3,495.1,538.1,494.7,539,494.7z"/>
			<path class="st2" d="M539,502.2h114.7c0.9,0,1.7,0.4,1.7,0.9l0,0c0,0.5-0.8,0.9-1.7,0.9H539c-0.9,0-1.7-0.4-1.7-0.9l0,0
				C537.3,502.7,538.1,502.2,539,502.2z"/>
			<path class="st2" d="M539,509.8h114.7c0.9,0,1.7,0.4,1.7,0.9l0,0c0,0.5-0.8,0.9-1.7,0.9H539c-0.9,0-1.7-0.4-1.7-0.9l0,0
				C537.3,510.2,538.1,509.8,539,509.8z"/>
			<path class="st2" d="M539,517.4h114.7c0.9,0,1.7,0.4,1.7,0.9l0,0c0,0.5-0.8,0.9-1.7,0.9H539c-0.9,0-1.7-0.4-1.7-0.9l0,0
				C537.3,517.8,538.1,517.4,539,517.4z"/>
			<path class="st2" d="M670.6,487.1h114.7c0.9,0,1.7,0.4,1.7,0.9l0,0c0,0.5-0.8,0.9-1.7,0.9H670.6c-0.9,0-1.7-0.4-1.7-0.9l0,0
				C668.9,487.5,669.7,487.1,670.6,487.1z"/>
			<path class="st2" d="M670.6,494.7h114.7c0.9,0,1.7,0.4,1.7,0.9l0,0c0,0.5-0.8,0.9-1.7,0.9H670.6c-0.9,0-1.7-0.4-1.7-0.9l0,0
				C668.9,495.1,669.7,494.7,670.6,494.7z"/>
			<path class="st2" d="M670.6,502.2h114.7c0.9,0,1.7,0.4,1.7,0.9l0,0c0,0.5-0.8,0.9-1.7,0.9H670.6c-0.9,0-1.7-0.4-1.7-0.9l0,0
				C668.9,502.7,669.7,502.2,670.6,502.2z"/>
			<path class="st2" d="M670.6,509.8h114.7c0.9,0,1.7,0.4,1.7,0.9l0,0c0,0.5-0.8,0.9-1.7,0.9H670.6c-0.9,0-1.7-0.4-1.7-0.9l0,0
				C668.9,510.2,669.7,509.8,670.6,509.8z"/>
			<path class="st2" d="M670.6,517.4h114.7c0.9,0,1.7,0.4,1.7,0.9l0,0c0,0.5-0.8,0.9-1.7,0.9H670.6c-0.9,0-1.7-0.4-1.7-0.9l0,0
				C668.9,517.8,669.7,517.4,670.6,517.4z"/>
			<path class="st3" d="M663.9,478v0.6c0,0.5,0.8,0.9,1.8,0.9h118c1.9,0,3.4-0.8,3.4-1.7v-24.9c0-0.9-1.5-1.7-3.3-1.7l-48.7-0.3
				c-0.4,0-0.7,0.2-0.7,0.3c0,0.2-0.3,0.3-0.7,0.3h-8.3c-0.3,0-0.6,0.1-0.6,0.3c0,0.2-0.3,0.3-0.6,0.3h-6.8c-1.1,0-1.9,0.4-1.9,1
				c0,0.5-0.9,1-2,1l-10.1-0.2c-0.9,0-1.6,0.3-1.6,0.8v0c0,0.4-0.7,0.8-1.5,0.8h-0.9c-0.3,0-0.6,0.1-0.6,0.3c0,0.2-0.3,0.3-0.6,0.3
				h-0.2c-0.5,0-0.8,0.2-0.8,0.4v2.3c0,0.7-1.1,1.2-2.4,1.2h-1c-0.8,0-1.4,0.3-1.4,0.7c0,0.4-0.6,0.7-1.3,0.7l-1.8,0.1
				c-0.3,0-0.6,0.1-0.6,0.3v0c0,0.2-0.3,0.3-0.6,0.3c-0.3,0-0.6,0.1-0.6,0.3v0.6c0,0.5-0.8,0.9-1.9,0.9c-0.9,0-1.7,0.3-1.8,0.8
				l-0.1,0.5c-0.1,0.2-0.5,0.4-1,0.4H682c-0.3,0-0.5,0.1-0.5,0.2c0,0.1-0.2,0.2-0.5,0.2h-0.3c-0.4,0-0.7,0.1-0.7,0.3l0,0
				c-0.1,0.2-0.4,0.3-0.8,0.3H679c-0.6,0-1,0.2-1,0.5l-0.2,1.9c0,0.3-0.5,0.6-1.1,0.6h-0.4c-0.5,0-0.9,0.1-1.1,0.3l-0.1,0.1
				c-0.2,0.2-0.5,0.3-0.9,0.3c-0.6,0-1,0.2-1,0.5l-0.1,1c0,0.1-0.2,0.2-0.5,0.2c-0.3,0-0.5,0.1-0.5,0.2v0.9c0,0.1-0.2,0.3-0.5,0.3
				c-0.2,0-0.5,0.1-0.5,0.2l-0.1,0.2c-0.1,0.2-0.2,0.3-0.5,0.4l-0.2,0.1c-0.3,0.1-0.5,0.3-0.5,0.4v0.2c0,0.2-0.3,0.3-0.6,0.3
				c-0.2,0-0.4,0.1-0.5,0.2l-0.6,0.6c-0.1,0.1-0.4,0.2-0.6,0.2c-0.4,0-0.7,0.2-0.7,0.4v0.1c0,0.2-0.3,0.4-0.7,0.4l-0.5,0
				c-0.2,0-0.4,0.1-0.4,0.2c0,0.1-0.2,0.2-0.5,0.2h-0.1C664.1,477.7,663.9,477.8,663.9,478z"/>
			<path class="st4" d="M578.2,434.1H539c-1.9,0-3.4,0.8-3.4,1.7v42.1c0,0.9,1.5,1.7,3.4,1.7h119c1.4,0,2.5-0.6,2.5-1.3V478
				c0-0.3-0.4-0.7-1-0.8l-0.5-0.1c-0.4-0.1-0.6-0.2-0.6-0.4c0-0.2-0.2-0.3-0.5-0.4l-1.6-0.5c-0.3-0.1-0.5-0.3-0.5-0.4v-0.1
				c0-0.2-0.3-0.4-0.7-0.4c-0.3,0-0.5-0.1-0.6-0.2l-1.1-0.9c-0.1-0.1-0.2-0.1-0.3-0.2c-0.3-0.2-0.5-0.4-0.5-0.6v-0.6
				c0-0.3-0.2-0.6-0.6-0.8c-0.4-0.2-0.6-0.5-0.6-0.8v-0.2c0-0.2-0.2-0.5-0.6-0.6c-0.4-0.1-0.6-0.4-0.6-0.6v-1.1
				c0-0.2-0.3-0.3-0.6-0.3c-0.3,0-0.6-0.1-0.6-0.3v-0.5c0-0.2-0.2-0.5-0.6-0.6l-0.3-0.1c-0.6-0.2-0.9-0.6-0.9-0.9v-5.1
				c0-0.5-0.8-0.9-1.9-0.9s-1.9-0.4-1.9-0.9v-0.4c0-0.5-0.5-0.9-1.4-1.1c-0.7-0.2-1.2-0.5-1.4-0.9l-0.6-2.4
				c-0.1-0.4-0.6-0.7-1.3-0.9c-0.7-0.1-1.2-0.5-1.3-0.8l-0.2-0.5c-0.2-0.6-1.2-1-2.4-1c-1.3,0-2.4-0.5-2.4-1.2v-0.4
				c0-0.6-1-1.1-2.2-1.1c-0.9,0-1.7-0.3-2.1-0.7l-0.2-0.3c-0.4-0.6-1.5-1-2.8-1h-2.3c-0.7,0-1.4-0.2-1.8-0.5
				c-0.4-0.3-0.9-0.4-1.6-0.5l-4.1-0.2c-0.5,0-0.8-0.2-1-0.4c-0.2-0.2-0.7-0.4-1.2-0.4H612c-1.2,0-2.3-0.4-2.7-0.9l-0.2-0.3
				c-0.3-0.4-1-0.6-1.8-0.6c-1.1,0-1.9-0.4-1.9-1v-0.9c0-0.7-1.1-1.3-2.6-1.3h-0.5c-1.1,0-2.1-0.5-2.1-1v-0.3c0-0.4-0.6-0.7-1.4-0.7
				h-0.7c-0.4,0-0.7-0.2-0.7-0.3c0-0.2-0.3-0.3-0.7-0.3h-14c-1.3,0-2.3-0.5-2.3-1.2C580.5,434.6,579.5,434.1,578.2,434.1z"/>
		</g>
		<g>
			<path class="st2" d="M575.1,216.7v-20.2c0-1.7-1.5-3.2-3.3-3.2h-25.3c-1.8,0-3.3,1.5-3.3,3.2v8.9h-35.7V88.2
				c0-12-9.7-21.8-21.6-21.8H253.4c-11.9,0-21.6,9.8-21.6,21.8v314.3h-28.4v-8.9c0-1.7-1.5-3.2-3.3-3.2h-25.3
				c-1.8,0-3.3,1.5-3.3,3.2v20.1c0,1.8,1.5,3.3,3.3,3.3h25.3c1.8,0,3.3-1.5,3.3-3.3v-8.9h28.4v112.2c0,12,9.7,21.8,21.6,21.8h115.1
				v53.6H266.8v-23.9c0-2.5-2-4.4-4.4-4.4H143c-2.5,0-4.4,2-4.4,4.4V618c0,2.5,2,4.4,4.4,4.4h119.3c2.5,0,4.4-2,4.4-4.4v-23.1h102.9
				c0.7,0,1.2-0.5,1.2-1.2v-54.8h115c12,0,21.6-9.8,21.6-21.8V207.8h35.7v8.9c0,1.7,1.5,3.2,3.3,3.2h25.3
				C573.6,219.9,575.1,218.4,575.1,216.7z M161.2,609.7c0,0.8-0.6,1.4-1.4,1.4h-7.5c-0.7,0-1.3-0.6-1.3-1.4v-23.4
				c0-0.8,0.6-1.3,1.3-1.3h7.5c0.8,0,1.4,0.6,1.4,1.3V609.7z M179.8,609.7c0,0.8-0.6,1.4-1.3,1.4H171c-0.7,0-1.3-0.6-1.3-1.4v-32.8
				c0-0.8,0.6-1.4,1.3-1.4h7.5c0.7,0,1.3,0.6,1.3,1.4V609.7z M198.4,609.7c0,0.8-0.6,1.4-1.3,1.4h-7.5c-0.8,0-1.4-0.6-1.4-1.4v-14
				c0-0.8,0.6-1.3,1.4-1.3h7.5c0.8,0,1.3,0.6,1.3,1.3V609.7z M217.1,609.7c0,0.8-0.6,1.4-1.4,1.4h-7.5c-0.8,0-1.3-0.6-1.3-1.4v-28.5
				c0-0.8,0.6-1.3,1.3-1.3h7.5c0.8,0,1.4,0.6,1.4,1.3V609.7z M235.7,609.7c0,0.8-0.6,1.4-1.4,1.4h-7.5c-0.7,0-1.3-0.6-1.3-1.4v-6.9
				c0-0.7,0.6-1.3,1.3-1.3h7.5c0.8,0,1.4,0.6,1.4,1.3V609.7z M254.3,609.7c0,0.8-0.6,1.4-1.3,1.4h-7.5c-0.7,0-1.3-0.6-1.3-1.4v-25.5
				c0-0.8,0.6-1.4,1.3-1.4h7.5c0.7,0,1.3,0.6,1.3,1.4V609.7z M368.5,536.5H253.4c-10.6,0-19.3-8.7-19.3-19.4V404.9h13.4v112.1
				c0,3.4,2.6,6,5.9,6h115.1V536.5z M368.5,464.4v56.4H253.4c-1.9,0-3.5-1.6-3.5-3.7V404.9h39c0.3,0,0.6-0.1,0.9-0.3
				c1.3-1.3,31.5-31.5,29.6-29.6c0.2,0.1,0.3,0.2,0.5,0.3c14.3,9.7,31.5,15.3,49.8,15.3c48.9,0,87.9-39.9,87.9-87.9
				c-0.2-1.1,1.7-28.7-19.5-55l39.8-39.8h11.4v309.2c0,2-1.6,3.7-3.5,3.7h-115v-56.4H368.5z M290.8,335.9l22-6.5
				c10.3,21.5,32.1,35.3,56.1,35.3h0.9c33.8,0,61.5-27.2,62.1-61h23.4c-0.7,46.7-38.8,84.4-85.5,84.4c-1.1,0-2.2,0-3.2,0
				C333.2,386.9,303.8,366.8,290.8,335.9z M369.7,362.4c-24,0-45.2-14.4-54.4-35.1c0,0-0.1-0.1-0.1-0.2c0,0,0-0.1,0-0.1
				c-7-15.7-7-34.3,0.8-50.3c0,0,0,0,0,0c0.1-0.3,0.3-0.7,0.5-0.9c10.1-19.9,30.9-32.6,53.2-32.6c0.1,0,0.2,0,0.4-0.1c0,0,0,0,0.1,0
				c0,0,0.1,0,0.2-0.1c32.9,0.3,59.2,27.2,59.2,59.8c0,0,0,0.1,0,0.2C429.3,335.8,402.5,362.4,369.7,362.4z M288.6,275
				c11.7-34,43.1-56.9,79.1-57.6h0.7v23.4c-23,0.4-44.2,13.8-54.4,34.5h-25.4C288.5,275.2,288.5,275.1,288.6,275z M420.6,84.6h65.3
				c1.9,0,3.5,1.7,3.5,3.7v117.2h-11.9c-0.3,0-0.6,0.1-0.9,0.3l-40,40c-16.2-19-40.2-31.1-67-31.1c-0.1,0-0.2,0-0.3,0.1
				c0,0-0.1,0-0.1,0c-0.1,0-0.2,0.1-0.2,0.1c-38.1,0.3-71.4,24.7-83.1,60.9c0,0.1,0,0.1-0.1,0.2c0,0.1,0,0.2,0,0.3
				c-0.1,0.2-0.2,0.5-0.2,0.7c-5.5,18.2-5,38.6,2.1,57.1c0.1,0.2,0.5,1.4,0.7,1.6l0,0c6.3,15.4,16.4,28.3,29.2,37.7l-29,29h-38.6
				V88.3c0-2.1,1.6-3.7,3.5-3.7h65.4H420.6z M505.2,517.1c0,10.7-8.6,19.4-19.3,19.4h-115v-13.4h115c3.3,0,5.9-2.7,5.9-6V207.8h13.4
				V517.1z M318.8,82.2h-65.4c-3.3,0-5.9,2.6-5.9,6v314.3h-13.4V88.2c0-10.7,8.6-19.4,19.3-19.4h232.5c10.6,0,19.3,8.7,19.3,19.4
				v117.2h-13.4V88.3c0-3.4-2.6-6-5.9-6h-65.3 M559.2,211c-2.5,0-4.4-2.1-4.4-4.4c0-2.5,1.9-4.4,4.4-4.4c2.4,0,4.4,1.9,4.4,4.4
				C563.6,208.9,561.5,211,559.2,211z"/>
			<path class="st2" d="M151.8,484.3c0,0.7,0.5,1.2,1.2,1.2h67.3c0.7,0,1.2-0.5,1.2-1.2c0-0.6-0.5-1.2-1.2-1.2h-66.2V296.5
				c32.5-0.6,58.7-27.2,58.7-59.8c0-32.6-26.3-59.2-58.7-59.8V46.6c11.9-0.6,21.4-10.1,22.1-21.9h268.6V52c0,0.7,0.5,1.2,1.2,1.2
				c0.7,0,1.2-0.5,1.2-1.2V23.4c0-0.6-0.5-1.2-1.2-1.2H176.2C175.6,9.9,165.5,0,153,0c-12.9,0-23.3,10.4-23.3,23.3
				c0,12.5,9.8,22.6,22.1,23.2v130.4c-32.5,0.7-58.7,27.2-58.7,59.8c0,32.6,26.2,59.2,58.7,59.8V484.3z M132,23.3
				c0-11.5,9.4-20.9,21-20.9c11.5,0,20.9,9.4,20.9,20.9c0,11.6-9.4,21-20.9,21C141.4,44.3,132,34.9,132,23.3z M95.5,236.7
				c0-31.7,25.8-57.5,57.4-57.5c0,0,0,0,0,0c0,0,0,0,0,0c31.7,0,57.5,25.8,57.5,57.5c0,31.7-25.8,57.5-57.5,57.5h0
				C121.2,294.2,95.5,268.4,95.5,236.7z"/>
			<path class="st2" d="M771.4,76.8c0,0.7,0.5,1.2,1.2,1.2c0.7,0,1.2-0.5,1.2-1.2v-9.5c0-0.7-0.5-1.2-1.2-1.2
				c-0.7,0-1.2,0.5-1.2,1.2V76.8z"/>
			<path class="st2" d="M604.6,30.7h9.5c0.7,0,1.2-0.5,1.2-1.2c0-0.7-0.5-1.2-1.2-1.2h-9.5c-0.7,0-1.2,0.5-1.2,1.2
				C603.4,30.2,603.9,30.7,604.6,30.7z"/>
			<path class="st2" d="M585.7,30.7h9.5c0.7,0,1.2-0.5,1.2-1.2c0-0.7-0.5-1.2-1.2-1.2h-9.5c-0.7,0-1.2,0.5-1.2,1.2
				C584.5,30.2,585,30.7,585.7,30.7z"/>
			<path class="st2" d="M566.7,30.7h9.5c0.7,0,1.2-0.5,1.2-1.2c0-0.7-0.5-1.2-1.2-1.2h-9.5c-0.7,0-1.2,0.5-1.2,1.2
				C565.6,30.2,566.1,30.7,566.7,30.7z"/>
			<path class="st2" d="M772.6,59.1c0.7,0,1.2-0.5,1.2-1.2v-9.5c0-0.7-0.5-1.2-1.2-1.2c-0.7,0-1.2,0.5-1.2,1.2v9.5
				C771.4,58.5,772,59.1,772.6,59.1z"/>
			<path class="st2" d="M661.3,30.7h9.5c0.7,0,1.2-0.5,1.2-1.2c0-0.7-0.5-1.2-1.2-1.2h-9.5c-0.7,0-1.2,0.5-1.2,1.2
				C660.1,30.2,660.6,30.7,661.3,30.7z"/>
			<path class="st2" d="M650.5,161.5c-0.7,0-1.2,0.5-1.2,1.2s0.5,1.2,1.2,1.2h9.5c0.7,0,1.2-0.5,1.2-1.2s-0.5-1.2-1.2-1.2H650.5z"/>
			<path class="st2" d="M631.6,161.5c-0.7,0-1.2,0.5-1.2,1.2s0.5,1.2,1.2,1.2h9.5c0.7,0,1.2-0.5,1.2-1.2s-0.5-1.2-1.2-1.2H631.6z"/>
			<path class="st2" d="M726.2,161.5c-0.7,0-1.2,0.5-1.2,1.2s0.5,1.2,1.2,1.2h9.5c0.7,0,1.2-0.5,1.2-1.2s-0.5-1.2-1.2-1.2H726.2z"/>
			<path class="st2" d="M771.4,133.5c0,0.7,0.5,1.2,1.2,1.2c0.7,0,1.2-0.5,1.2-1.2v-9.5c0-0.7-0.5-1.2-1.2-1.2
				c-0.7,0-1.2,0.5-1.2,1.2V133.5z"/>
			<path class="st2" d="M771.4,114.6c0,0.7,0.5,1.2,1.2,1.2c0.7,0,1.2-0.5,1.2-1.2v-9.5c0-0.7-0.5-1.2-1.2-1.2
				c-0.7,0-1.2,0.5-1.2,1.2V114.6z"/>
			<path class="st2" d="M593.8,161.5c-0.7,0-1.2,0.5-1.2,1.2s0.5,1.2,1.2,1.2h9.5c0.7,0,1.2-0.5,1.2-1.2s-0.5-1.2-1.2-1.2H593.8z"/>
			<path class="st2" d="M642.4,30.7h9.5c0.7,0,1.2-0.5,1.2-1.2c0-0.7-0.5-1.2-1.2-1.2h-9.5c-0.7,0-1.2,0.5-1.2,1.2
				C641.2,30.2,641.7,30.7,642.4,30.7z"/>
			<path class="st2" d="M623.5,30.7h9.5c0.7,0,1.2-0.5,1.2-1.2c0-0.7-0.5-1.2-1.2-1.2h-9.5c-0.7,0-1.2,0.5-1.2,1.2
				C622.3,30.2,622.8,30.7,623.5,30.7z"/>
			<path class="st2" d="M771.4,95.7c0,0.7,0.5,1.2,1.2,1.2c0.7,0,1.2-0.5,1.2-1.2v-9.5c0-0.7-0.5-1.2-1.2-1.2
				c-0.7,0-1.2,0.5-1.2,1.2V95.7z"/>
			<path class="st2" d="M755.8,30.7h8.2v3.9c0,1.2,1,2.2,2.2,2.2h5.2V39c0,0.7,0.5,1.2,1.2,1.2c0.7,0,1.2-0.5,1.2-1.2v-2.2h5.2
				c1.2,0,2.2-1,2.2-2.2V24.5c0-1.2-1-2.2-2.2-2.2h-12.7c-1.2,0-2.2,1-2.2,2.2v3.9h-8.2c-0.7,0-1.2,0.5-1.2,1.2
				C754.6,30.2,755.1,30.7,755.8,30.7z"/>
			<path class="st2" d="M612.7,161.5c-0.7,0-1.2,0.5-1.2,1.2s0.5,1.2,1.2,1.2h9.5c0.7,0,1.2-0.5,1.2-1.2s-0.5-1.2-1.2-1.2H612.7z"/>
			<path class="st2" d="M707.3,161.5c-0.7,0-1.2,0.5-1.2,1.2s0.5,1.2,1.2,1.2h9.5c0.7,0,1.2-0.5,1.2-1.2s-0.5-1.2-1.2-1.2H707.3z"/>
			<path class="st2" d="M743.9,162.7c0,0.7,0.5,1.2,1.2,1.2h9.5c0.7,0,1.2-0.5,1.2-1.2s-0.5-1.2-1.2-1.2h-9.5
				C744.4,161.5,743.9,162,743.9,162.7z"/>
			<path class="st2" d="M718,30.7h9.5c0.7,0,1.2-0.5,1.2-1.2c0-0.7-0.5-1.2-1.2-1.2H718c-0.7,0-1.2,0.5-1.2,1.2
				C716.8,30.2,717.3,30.7,718,30.7z"/>
			<path class="st2" d="M771.4,152.4c0,0.7,0.5,1.2,1.2,1.2c0.7,0,1.2-0.5,1.2-1.2V143c0-0.7-0.5-1.2-1.2-1.2
				c-0.7,0-1.2,0.5-1.2,1.2V152.4z"/>
			<path class="st2" d="M548.8,57.7c0-0.7-0.5-1.2-1.2-1.2s-1.2,0.5-1.2,1.2v9.5c0,0.7,0.5,1.2,1.2,1.2s1.2-0.5,1.2-1.2V57.7z"/>
			<path class="st2" d="M699.1,30.7h9.5c0.7,0,1.2-0.5,1.2-1.2c0-0.7-0.5-1.2-1.2-1.2h-9.5c-0.7,0-1.2,0.5-1.2,1.2
				C697.9,30.2,698.4,30.7,699.1,30.7z"/>
			<path class="st2" d="M548.8,38.8c0-0.7-0.5-1.2-1.2-1.2s-1.2,0.5-1.2,1.2v9.5c0,0.7,0.5,1.2,1.2,1.2s1.2-0.5,1.2-1.2V38.8z"/>
			<path class="st2" d="M548.8,76.6c0-0.7-0.5-1.2-1.2-1.2s-1.2,0.5-1.2,1.2V86c0,0.7,0.5,1.2,1.2,1.2s1.2-0.5,1.2-1.2V76.6z"/>
			<path class="st2" d="M680.2,30.7h9.5c0.7,0,1.2-0.5,1.2-1.2c0-0.7-0.5-1.2-1.2-1.2h-9.5c-0.7,0-1.2,0.5-1.2,1.2
				C679,30.2,679.5,30.7,680.2,30.7z"/>
			<path class="st2" d="M548.8,114.4c0-0.7-0.5-1.2-1.2-1.2s-1.2,0.5-1.2,1.2v9.5c0,0.7,0.5,1.2,1.2,1.2s1.2-0.5,1.2-1.2V114.4z"/>
			<path class="st2" d="M547.6,132.1c-0.7,0-1.2,0.5-1.2,1.2v9.5c0,0.7,0.5,1.2,1.2,1.2s1.2-0.5,1.2-1.2v-9.5
				C548.8,132.6,548.3,132.1,547.6,132.1z"/>
			<path class="st2" d="M688.4,161.5c-0.7,0-1.2,0.5-1.2,1.2s0.5,1.2,1.2,1.2h9.5c0.7,0,1.2-0.5,1.2-1.2s-0.5-1.2-1.2-1.2H688.4z"/>
			<path class="st2" d="M736.9,30.7h9.5c0.7,0,1.2-0.5,1.2-1.2c0-0.7-0.5-1.2-1.2-1.2h-9.5c-0.7,0-1.2,0.5-1.2,1.2
				C735.7,30.2,736.2,30.7,736.9,30.7z"/>
			<path class="st2" d="M584.4,161.5h-9.5c-0.7,0-1.2,0.5-1.2,1.2s0.5,1.2,1.2,1.2h9.5c0.7,0,1.2-0.5,1.2-1.2S585,161.5,584.4,161.5
				z"/>
			<path class="st2" d="M548.8,95.5c0-0.7-0.5-1.2-1.2-1.2s-1.2,0.5-1.2,1.2v9.5c0,0.7,0.5,1.2,1.2,1.2s1.2-0.5,1.2-1.2V95.5z"/>
			<path class="st2" d="M669.4,161.5c-0.7,0-1.2,0.5-1.2,1.2s0.5,1.2,1.2,1.2h9.5c0.7,0,1.2-0.5,1.2-1.2s-0.5-1.2-1.2-1.2H669.4z"/>
			<path class="st2" d="M766.3,169.9H779c1.2,0,2.2-1,2.2-2.2v-10.1c0-1.2-1-2.2-2.2-2.2h-12.7c-1.2,0-2.2,1-2.2,2.2v3.9H764
				c-0.7,0-1.2,0.5-1.2,1.2s0.5,1.2,1.2,1.2h0.1v3.9C764,169,765,169.9,766.3,169.9z"/>
			<path class="st2" d="M541.2,169.9H554c1.2,0,2.2-1,2.2-2.2v-3.9h9.3c0.7,0,1.2-0.5,1.2-1.2s-0.5-1.2-1.2-1.2h-9.3v-3.9
				c0-1.2-1-2.2-2.2-2.2h-5.2v-3.2c0-0.7-0.5-1.2-1.2-1.2s-1.2,0.5-1.2,1.2v3.2h-5.2c-1.2,0-2.2,1-2.2,2.2v10.1
				C539,169,540,169.9,541.2,169.9z"/>
			<path class="st2" d="M541.2,36.8H554c1.2,0,2.2-1,2.2-2.2v-3.9h1.1c0.7,0,1.2-0.5,1.2-1.2c0-0.7-0.5-1.2-1.2-1.2h-1.1v-3.9
				c0-1.2-1-2.2-2.2-2.2h-12.7c-1.2,0-2.2,1-2.2,2.2v10.1C539,35.8,540,36.8,541.2,36.8z"/>
			<path class="st2" d="M585.4,131.4h31c0.2,0,0.5-0.1,0.7-0.2l7.5-5.1c0.9,1,1.7,2,2.6,2.9c15.7,15.8,41.3,15.9,56.9,0.3
				c10.9-10.9,14.3-26.6,10-40.5l10.3-3.6c0.6-0.2,0.9-0.9,0.8-1.5c-2-6-5.3-11.7-9.7-16.8l9.1-6.2h30.6c0.7,0,1.2-0.5,1.2-1.2
				c0-0.7-0.5-1.2-1.2-1.2h-31c-0.2,0-0.5,0.1-0.7,0.2l-9.7,6.6c-0.4-0.4-0.8-0.9-1.2-1.3c-5.5-5.5-12.8-9.9-20.4-12.5
				c-0.6-0.2-1.3,0.1-1.5,0.7l-3.3,10c-13.8-4.3-29.5-0.9-40.5,10c-14.1,14.1-15.3,36.3-3.7,52.1l-7.1,4.9h-30.6
				c-0.7,0-1.2,0.5-1.2,1.2C584.2,130.9,584.7,131.4,585.4,131.4z M628.5,73.8c10.1-10.1,24.8-13.5,38-9.5l-12,36.1
				c-0.3,0.9,0.6,1.8,1.5,1.5l35.8-12.4c4,13,0.9,27.8-9.5,38c-14.7,14.7-38.7,14.6-53.5-0.3c-0.8-0.9-1.6-1.7-2.3-2.6l7.1-4.9
				c0.5-0.4,0.7-1.1,0.3-1.7c-0.4-0.5-1.1-0.7-1.7-0.3l-7.2,4.9C614,108,615.2,87.1,628.5,73.8z"/>
			<path class="st2" d="M425.8,470.1c2.5,0,4.6-2.1,4.6-4.6c0-2.5-2.1-4.6-4.6-4.6c-2.6,0-4.6,2.1-4.6,4.6
				C421.2,468,423.3,470.1,425.8,470.1z"/>
			
				<ellipse transform="matrix(1 -3.937162e-03 3.937162e-03 1 -1.8291 1.7692)" class="st2" cx="448.5" cy="465.5" rx="4.6" ry="4.6"/>
			<path class="st2" d="M471.1,470.1c2.5,0,4.6-2.1,4.6-4.6c0-2.5-2.1-4.6-4.6-4.6c-2.6,0-4.6,2.1-4.6,4.6
				C466.5,468,468.5,470.1,471.1,470.1z"/>
			<path class="st2" d="M425.8,488.4c2.5,0,4.6-2.1,4.6-4.6c0-2.5-2.1-4.6-4.6-4.6c-2.6,0-4.6,2.1-4.6,4.6
				C421.2,486.3,423.3,488.4,425.8,488.4z"/>
			
				<ellipse transform="matrix(1 -3.937162e-03 3.937162e-03 1 -1.9011 1.7694)" class="st2" cx="448.5" cy="483.7" rx="4.6" ry="4.6"/>
			<path class="st2" d="M471.1,488.4c2.5,0,4.6-2.1,4.6-4.6c0-2.5-2.1-4.6-4.6-4.6c-2.6,0-4.6,2.1-4.6,4.6
				C466.5,486.3,468.5,488.4,471.1,488.4z"/>
			<path class="st2" d="M425.8,506.7c2.5,0,4.6-2.1,4.6-4.6s-2.1-4.6-4.6-4.6c-2.6,0-4.6,2.1-4.6,4.6S423.3,506.7,425.8,506.7z"/>
			
				<ellipse transform="matrix(1 -3.937162e-03 3.937162e-03 1 -1.9731 1.7695)" class="st2" cx="448.5" cy="502" rx="4.6" ry="4.6"/>
			<path class="st2" d="M471.1,506.7c2.5,0,4.6-2.1,4.6-4.6s-2.1-4.6-4.6-4.6c-2.6,0-4.6,2.1-4.6,4.6S468.5,506.7,471.1,506.7z"/>
			<path class="st2" d="M743.7,222.6h9.3c-0.3,1.3-0.4,2.7-0.4,4.1c0,11.2,9.1,20.4,20.3,20.4c11.2,0,20.4-9.1,20.4-20.4
				c0-11.2-9.1-20.3-20.4-20.3c-2,0-3.8,0.4-5.7,0.9v-8.2c0-0.6-0.5-1.2-1.2-1.2h-22.4c-0.6,0-1.2,0.6-1.2,1.2v22.4
				C742.5,222.1,743.1,222.6,743.7,222.6z M767.2,221.5v-11.7c1.8-0.6,3.7-1,5.7-1c9.9,0,18,8.1,18,18c0,9.9-8.1,18-18,18
				c-9.9,0-18-8.1-18-18c0-1.4,0.2-2.8,0.5-4.1h10.6C766.7,222.6,767.2,222.1,767.2,221.5z M756.2,220.3c1.7-4.2,4.8-7.5,8.7-9.5
				v9.5H756.2z M744.9,200.3h20v7.8c-5.2,2.3-9.3,6.8-11.2,12.2h-8.8V200.3z"/>
			<path class="st2" d="M577.8,367.3l0-50c0-2.2-1.4-4.1-3.8-5.5c-4.7-2.7-12.1-2.7-16.7,0c-2.4,1.4-3.8,3.4-3.8,5.5l-0.1,50
				c0,2.1,1.4,4.1,3.8,5.5c3.8,2.2,11.7,3,16.8,0C576.5,371.4,577.8,369.5,577.8,367.3z M562.2,372.1c-1.4-0.3-2.7-0.7-3.8-1.3
				c-1.7-1-2.6-2.2-2.6-3.5l0.1-45.5c1.8,1.5,4,2.2,6.3,2.6V372.1z M572.9,320.8c-4.1,2.4-10.9,2-14.4,0c-3.3-1.9-3.7-4.8,0-6.9
				c4-2.3,10.4-2.3,14.4,0C576.7,316,576.1,318.9,572.9,320.8z"/>
			<path class="st2" d="M475.3,135.2H264c-0.7,0-1.2,0.6-1.2,1.2v36.2c0,0.6,0.5,1.2,1.2,1.2h211.3c0.7,0,1.2-0.6,1.2-1.2v-36.2
				C476.5,135.8,476,135.2,475.3,135.2z M474.2,171.4H265.2v-33.8h208.9V171.4z"/>
			<path class="st2" d="M449.2,148h17.2c0.7,0,1.2-0.5,1.2-1.2c0-0.7-0.5-1.2-1.2-1.2h-17.2c-0.7,0-1.2,0.5-1.2,1.2
				C448,147.5,448.6,148,449.2,148z"/>
			<path class="st2" d="M449.2,155.7h17.2c0.7,0,1.2-0.5,1.2-1.2c0-0.7-0.5-1.2-1.2-1.2h-17.2c-0.7,0-1.2,0.5-1.2,1.2
				C448,155.2,448.6,155.7,449.2,155.7z"/>
			<path class="st2" d="M449.2,163.3h17.2c0.7,0,1.2-0.5,1.2-1.2c0-0.7-0.5-1.2-1.2-1.2h-17.2c-0.7,0-1.2,0.5-1.2,1.2
				C448,162.8,448.6,163.3,449.2,163.3z"/>
			<path class="st2" d="M285.5,162.5c0.5,0.4,1.3,0.3,1.7-0.2c0.4-0.5,0.3-1.3-0.2-1.7l-8.1-6.1l8.1-6.1c0.5-0.4,0.6-1.1,0.2-1.7
				c-0.4-0.5-1.1-0.6-1.7-0.2l-9.4,7.1c-0.6,0.5-0.6,1.4,0,1.9L285.5,162.5z"/>
			<path class="st2" d="M454.1,559.9h-52.6c-0.7,0-1.2,0.5-1.2,1.2c0,0.7,0.5,1.2,1.2,1.2h52.6c0.7,0,1.2-0.5,1.2-1.2
				C455.3,560.4,454.8,559.9,454.1,559.9z"/>
			<path class="st2" d="M796.4,112.2c0.7,0,1.2-0.5,1.2-1.2V65.2c0-0.7-0.5-1.2-1.2-1.2c-0.7,0-1.2,0.5-1.2,1.2V111
				C795.2,111.6,795.7,112.2,796.4,112.2z"/>
			<g>
				<path class="st1" d="M111.7,220.7h78.6L151,196.3L111.7,220.7z"/>
				<path class="st1" d="M123.8,220.7v30.4"/>
				<path class="st1" d="M141.9,220.7v30.4"/>
				<path class="st1" d="M160.1,220.7v30.4"/>
				<path class="st1" d="M178.2,220.7v30.4"/>
				<path class="st1" d="M114.7,251.1h72.6"/>
				<path class="st1" d="M108.7,263.3h84.6"/>
			</g>
		</g>
		<g>
			<g>
				<path class="st1" d="M706.1,353c-21.7,0-39.3-17.6-39.3-39.3s17.6-39.3,39.3-39.3s39.3,17.6,39.3,39.3S727.8,353,706.1,353z"/>
			</g>
			<g>
				<polyline class="st1" points="663.8,286.1 663.8,274.3 675.6,274.3 				"/>
				<polyline class="st1" points="736.6,274.3 748.4,274.3 748.4,286.1 				"/>
			</g>
			<g>
				<polyline class="st1" points="748.4,341.2 748.4,353 736.6,353 				"/>
				<polyline class="st1" points="675.6,353 663.8,353 663.8,341.2 				"/>
			</g>
			<g>
				<g>
					<path class="st1" d="M706.1,320c12,0,21.7,9.7,21.7,21.7v4.3"/>
				</g>
				<g>
					<path class="st1" d="M684.8,346.1v-4.3c0-12,9.7-21.7,21.7-21.7"/>
				</g>
				<g>
					<path class="st1" d="M706.1,320c-8,0-14.6-6.5-14.6-14.5c0-8,6.5-14.5,14.6-14.5s14.5,6.5,14.5,14.5
						C720.6,313.5,714.1,320,706.1,320z"/>
				</g>
			</g>
		</g>
		<polyline class="st1" points="520.2,246.3 706.5,246.3 706.1,263.3 		"/>
	</g>
	<g>
		<path class="st5" d="M6.1,312.4h150.2c2.7,0,4.9,2.2,4.9,4.9v222.5c0,2.7-2.2,4.9-4.9,4.9H6.1c-2.7,0-4.9-2.2-4.9-4.9V317.3
			C1.1,314.6,3.3,312.4,6.1,312.4z"/>
		<path class="st2" d="M38.2,504.6c0.1-0.4-0.1-0.9-0.5-1c-0.4-0.1-0.9,0.1-1,0.5L30,525.5c-0.1,0.4,0.1,0.9,0.5,1
			c0.4,0.1,0.9-0.1,1-0.5L38.2,504.6z"/>
		<path class="st2" d="M28.9,508.7c0.3,0.3,0.3,0.8,0,1.2l-5.2,5.2l5.2,5.2c0.3,0.3,0.3,0.8,0,1.2c-0.3,0.3-0.8,0.3-1.2,0l-5.8-5.8
			c-0.3-0.3-0.3-0.8,0-1.2l5.8-5.8C28.1,508.4,28.6,508.4,28.9,508.7z"/>
		<path class="st2" d="M39.3,508.7c-0.3,0.3-0.3,0.8,0,1.2l5.2,5.2l-5.2,5.2c-0.3,0.3-0.3,0.8,0,1.2c0.3,0.3,0.8,0.3,1.2,0l5.8-5.8
			c0.3-0.3,0.3-0.8,0-1.2l-5.8-5.8C40.1,508.4,39.6,508.4,39.3,508.7z"/>
		<path class="st6" d="M16,328.4h47c0.9,0,1.6,0.7,1.6,1.6v6.8c0,0.9-0.7,1.6-1.6,1.6H16c-0.9,0-1.6-0.7-1.6-1.6v-6.8
			C14.3,329.2,15,328.4,16,328.4z"/>
		<path class="st6" d="M16,376.6h90.6c0.9,0,1.6,0.7,1.6,1.6v6.6c0,0.9-0.7,1.6-1.6,1.6H16c-0.9,0-1.6-0.7-1.6-1.6v-6.6
			C14.3,377.4,15,376.6,16,376.6z"/>
		<path class="st6" d="M16,449.1H128c0.9,0,1.6,0.7,1.6,1.6v6.6c0,0.9-0.7,1.6-1.6,1.6H16c-0.9,0-1.6-0.7-1.6-1.6v-6.6
			C14.3,449.9,15,449.1,16,449.1z"/>
		<path class="st6" d="M16,352.5h97.8c0.9,0,1.6,0.7,1.6,1.6v6.8c0,0.9-0.7,1.6-1.6,1.6H16c-0.9,0-1.6-0.7-1.6-1.6v-6.8
			C14.3,353.3,15,352.5,16,352.5z"/>
		<path class="st6" d="M16,400.7h34.9c0.9,0,1.6,0.7,1.6,1.6v6.8c0,0.9-0.7,1.6-1.6,1.6H16c-0.9,0-1.6-0.7-1.6-1.6v-6.8
			C14.3,401.5,15,400.7,16,400.7z"/>
		<path class="st6" d="M16,473h101.9c0.9,0,1.6,0.7,1.6,1.6v6.8c0,0.9-0.7,1.6-1.6,1.6H16c-0.9,0-1.6-0.7-1.6-1.6v-6.8
			C14.3,473.8,15,473,16,473z"/>
		<path class="st6" d="M16,424.8h68.4c0.9,0,1.6,0.7,1.6,1.6v6.8c0,0.9-0.7,1.6-1.6,1.6H16c-0.9,0-1.6-0.7-1.6-1.6v-6.8
			C14.3,425.6,15,424.8,16,424.8z"/>
		<path class="st4" d="M143.3,327.2l-7.1,9.9h14.8L143.3,327.2z"/>
		<path class="st4" d="M143.3,375l-7.1,9.9h14.8L143.3,375z"/>
		<path class="st4" d="M143.3,473.9l-7.1,9.9h14.8L143.3,473.9z"/>
		<path class="st4" d="M143.3,399.7l-7.1,9.9h14.8L143.3,399.7z"/>
		<path class="st7" d="M143.3,361.8l-7.1-9.9h14.8L143.3,361.8z"/>
		<path class="st7" d="M143.3,434.3l-7.1-9.9h14.8L143.3,434.3z"/>
		<path class="st7" d="M143.3,459l-7.1-9.9h14.8L143.3,459z"/>
	</g>
	<g>
		<path class="st2" d="M313.9,146.7v14.8h-1.1v-7h-9.9v7h-1.1v-14.8h1.1v6.8h9.9v-6.8H313.9z"/>
		<path class="st2" d="M328,156.3h-9.5c0,0.9,0.2,1.6,0.7,2.3c0.4,0.7,1,1.2,1.7,1.6c0.7,0.4,1.5,0.6,2.4,0.6c0.7,0,1.4-0.1,2-0.4
			s1.1-0.6,1.5-1.2l0.6,0.7c-0.5,0.6-1.1,1-1.8,1.3c-0.7,0.3-1.5,0.5-2.4,0.5c-1.1,0-2.1-0.2-2.9-0.7s-1.5-1.1-2-2
			c-0.5-0.8-0.7-1.8-0.7-2.9c0-1.1,0.2-2,0.7-2.9c0.5-0.9,1.1-1.5,1.9-2c0.8-0.5,1.7-0.7,2.7-0.7c1,0,1.9,0.2,2.7,0.7
			c0.8,0.5,1.4,1.1,1.9,2c0.5,0.8,0.7,1.8,0.7,2.9L328,156.3z M320.7,151.8c-0.6,0.3-1.1,0.8-1.5,1.5c-0.4,0.6-0.6,1.3-0.6,2.1h8.5
			c0-0.8-0.3-1.5-0.6-2.1c-0.4-0.6-0.9-1.1-1.5-1.5c-0.6-0.4-1.3-0.5-2.1-0.5C322,151.3,321.3,151.5,320.7,151.8z"/>
		<path class="st2" d="M331.3,145.8h1.1v15.7h-1.1V145.8z"/>
		<path class="st2" d="M336.8,147.6c-0.2-0.2-0.3-0.4-0.3-0.6c0-0.2,0.1-0.4,0.3-0.6c0.2-0.2,0.4-0.3,0.6-0.3c0.2,0,0.4,0.1,0.6,0.2
			c0.2,0.2,0.3,0.4,0.3,0.6c0,0.2-0.1,0.4-0.3,0.6c-0.2,0.2-0.4,0.3-0.6,0.3C337.1,147.8,336.9,147.7,336.8,147.6z M336.8,150.5h1.1
			v11h-1.1V150.5z"/>
		<path class="st2" d="M349.4,161.5l-3.8-4.9l-3.8,4.9h-1.2l4.4-5.7l-4.1-5.4h1.2l3.6,4.6l3.6-4.6h1.2l-4.1,5.4l4.4,5.7H349.4z"/>
	</g>
	<g>
		<path class="st2" d="M357.7,430.3c0.2-0.2,0.4-0.5,0.6-0.7c0,0,0,0,0,0c0,0,0,0,0.1-0.1l0,0c0.1-0.1,0.3-0.3,0.5-0.4
			c0.6-0.5,1.3-0.8,2-1.1c2.2-0.8,4.7-0.3,6.6,1.5c2.7,2.5,2.5,6.6,0.3,9.3c-2.7,4-7.4,9.7-0.9,14.7c1.2,0.9,2,1.7,5.7,2.7
			c-2.4,0.4-4.6,0.3-7.1-0.3c-1.8-1-4.5-3.1-5.5-6c-1.4-4.3,2.5-10.8,4.4-13.3c2.6-3.5-1.6-7.2-4.7-3c-1.6,2.2-4.4,8.3-3.5,12.9
			c0.6,2.6,1.3,4.5,4.4,7.1c-0.6-0.3-1.1-0.7-1.6-1.1C351.9,445.9,352.7,435.8,357.7,430.3z"/>
		<path class="st2" d="M381.7,451.1c-0.2,0.2-0.4,0.5-0.6,0.7c0,0,0,0,0,0c0,0,0,0-0.1,0.1l0,0c-0.1,0.1-0.3,0.3-0.5,0.4
			c-0.6,0.5-1.3,0.8-2,1.1c-2.2,0.8-4.7,0.3-6.6-1.5c-2.7-2.5-2.5-6.6-0.3-9.3c2.7-4,7.4-9.7,0.9-14.7c-1.2-0.9-2-1.7-5.7-2.7
			c2.4-0.4,4.6-0.3,7.1,0.3c1.8,1,4.5,3.1,5.5,6c1.4,4.3-2.5,10.8-4.4,13.3c-2.6,3.5,1.6,7.2,4.7,3c1.6-2.2,4.4-8.3,3.5-12.9
			c-0.6-2.6-1.3-4.5-4.4-7.1c0.6,0.3,1.1,0.7,1.6,1.1C387.5,435.5,386.6,445.6,381.7,451.1z"/>
	</g>
</g>
</svg>
