<svg width="249" height="170" viewBox="0 0 249 170" fill="none" xmlns="http://www.w3.org/2000/svg">
<g opacity="0.2">
<rect x="24" y="24" width="225" height="146" rx="8" fill="#79C0FC"/>
</g>
<g clip-path="url(#clip0_8637_24684)">
<rect width="225" height="169" rx="8" fill="url(#paint0_linear_8637_24684)"/>
<path d="M89.5 0L194.722 182.25H-15.7221L89.5 0Z" fill="url(#paint1_linear_8637_24684)"/>
<path d="M159.502 44.8342C158.806 45.1922 158.019 44.5665 158.159 43.7672L159.652 35.2427L153.312 29.1926C152.72 28.6272 153.026 27.5934 153.82 27.4805L162.637 26.2262L166.569 18.428C166.923 17.7255 167.882 17.7255 168.237 18.428L172.168 26.2262L180.985 27.4805C181.779 27.5934 182.086 28.6272 181.493 29.1926L175.153 35.2427L176.646 43.7672C176.787 44.5665 175.999 45.1922 175.303 44.8342L167.403 40.768L159.502 44.8342Z" fill="#FFE080"/>
<path fill-rule="evenodd" clip-rule="evenodd" d="M135.285 66.9395C135.285 64.7303 137.076 62.9395 139.285 62.9395H174.714C176.923 62.9395 178.714 64.7303 178.714 66.9395V147.001C178.714 149.21 176.923 151.001 174.714 151.001H139.285C137.076 151.001 135.285 149.21 135.285 147.001V66.9395ZM81 94.1191C81 91.91 82.7909 90.1191 85 90.1191H120.429C122.638 90.1191 124.429 91.91 124.429 94.1191V147.001C124.429 149.21 122.638 151.001 120.429 151.001H85C82.7909 151.001 81 149.21 81 147.001V94.1191ZM194 111C191.791 111 190 112.791 190 115V147C190 149.209 191.791 151 194 151H229C231.209 151 233 149.209 233 147V115C233 112.791 231.209 111 229 111H194Z" fill="url(#paint2_linear_8637_24684)"/>
</g>
<defs>
<linearGradient id="paint0_linear_8637_24684" x1="45.5" y1="-32.5" x2="170.69" y2="117.66" gradientUnits="userSpaceOnUse">
<stop offset="0.015625" stop-color="#6EE5B3"/>
<stop offset="0.430034" stop-color="#68D8E2"/>
<stop offset="1" stop-color="#4475F6"/>
</linearGradient>
<linearGradient id="paint1_linear_8637_24684" x1="172.96" y1="181.114" x2="21.9369" y2="40.3107" gradientUnits="userSpaceOnUse">
<stop stop-color="#DCC0FF" stop-opacity="0"/>
<stop offset="1" stop-color="#D4B4FF" stop-opacity="0.9"/>
</linearGradient>
<linearGradient id="paint2_linear_8637_24684" x1="133.929" y1="53.7381" x2="210.833" y2="161.405" gradientUnits="userSpaceOnUse">
<stop stop-color="white"/>
<stop offset="1" stop-color="white" stop-opacity="0"/>
</linearGradient>
<clipPath id="clip0_8637_24684">
<rect width="225" height="146" rx="8" fill="white"/>
</clipPath>
</defs>
</svg>
