<svg viewBox="0 0 121 72" fill="none" xmlns="http://www.w3.org/2000/svg" class="advantages-name"><path data-v-f9cc6628="" d="M30.15 49.477v-5.442H18.498c7.412-5.486 11.44-9.797 11.44-14.76 0-5.792-4.842-9.275-10.926-9.275-3.984 0-8.226 1.48-11.011 4.746l3.47 4.093c1.928-2.046 4.413-3.353 7.67-3.353 2.356 0 4.627 1.263 4.627 3.788 0 3.57-3.428 6.575-15.124 15.37v4.834H30.15z" fill="url(#section2-icon-2_svg__paint0_linear)"></path><path data-v-f9cc6628="" d="M47.315 50c8.14 0 11.825-7.533 11.825-15.022S55.456 20 47.315 20c-8.183 0-11.825 7.49-11.825 14.978C35.49 42.468 39.132 50 47.315 50zm0-5.486c-4.113 0-5.656-4.18-5.656-9.536 0-5.355 1.543-9.492 5.656-9.492 4.07 0 5.613 4.137 5.613 9.492 0 5.356-1.543 9.536-5.613 9.536z" fill="url(#section2-icon-2_svg__paint1_linear)"></path><path data-v-f9cc6628="" d="M91.065 49.477L80.696 34.544l9.726-14.108h-7.326l-6.47 9.928-6.555-9.928H62.83l9.726 14.151-10.369 14.892h7.241l7.198-10.625 7.155 10.624h7.284z" fill="url(#section2-icon-2_svg__paint2_linear)"></path><path data-v-f9cc6628="" d="M113 36.502v-3.44h-7.669v-8.49h-3.728v8.49h-7.712v3.44h7.712v8.84h3.728v-8.84H113z" fill="url(#section2-icon-2_svg__paint3_linear)"></path><defs data-v-f9cc6628=""><linearGradient data-v-f9cc6628="" id="section2-icon-2_svg__paint0_linear" x1="8" y1="35" x2="113" y2="35" gradientUnits="userSpaceOnUse"><stop data-v-f9cc6628="" stop-color="#0082FA"></stop><stop data-v-f9cc6628="" offset="1" stop-color="#00F2FE"></stop></linearGradient><linearGradient data-v-f9cc6628="" id="section2-icon-2_svg__paint1_linear" x1="8" y1="35" x2="113" y2="35" gradientUnits="userSpaceOnUse"><stop data-v-f9cc6628="" stop-color="#0082FA"></stop><stop data-v-f9cc6628="" offset="1" stop-color="#00F2FE"></stop></linearGradient><linearGradient data-v-f9cc6628="" id="section2-icon-2_svg__paint2_linear" x1="8" y1="35" x2="113" y2="35" gradientUnits="userSpaceOnUse"><stop data-v-f9cc6628="" stop-color="#0082FA"></stop><stop data-v-f9cc6628="" offset="1" stop-color="#00F2FE"></stop></linearGradient><linearGradient data-v-f9cc6628="" id="section2-icon-2_svg__paint3_linear" x1="8" y1="35" x2="113" y2="35" gradientUnits="userSpaceOnUse"><stop data-v-f9cc6628="" stop-color="#0082FA"></stop><stop data-v-f9cc6628="" offset="1" stop-color="#00F2FE"></stop></linearGradient></defs></svg>
