<svg  viewBox="0 0 21 20" fill="none" xmlns="http://www.w3.org/2000/svg">
<path d="M10.5 0C9.94771 0 9.5 0.447715 9.5 1V4C9.5 4.55228 9.94771 5 10.5 5C11.0523 5 11.5 4.55228 11.5 4V1C11.5 0.447715 11.0523 0 10.5 0Z" fill="white"/>
<path d="M10.5 15C9.94771 15 9.5 15.4477 9.5 16V19C9.5 19.5523 9.94771 20 10.5 20C11.0523 20 11.5 19.5523 11.5 19V16C11.5 15.4477 11.0523 15 10.5 15Z" fill="white"/>
<path d="M19.5 9C20.0523 9 20.5 9.44771 20.5 10C20.5 10.5523 20.0523 11 19.5 11H16.5C15.9477 11 15.5 10.5523 15.5 10C15.5 9.44771 15.9477 9 16.5 9H19.5Z" fill="white"/>
<path d="M5.5 10C5.5 9.44771 5.05228 9 4.5 9H1.5C0.947715 9 0.5 9.44771 0.5 10C0.5 10.5523 0.947715 11 1.5 11H4.5C5.05228 11 5.5 10.5523 5.5 10Z" fill="white"/>
<path d="M16.1569 2.92903C16.5474 2.53851 17.1806 2.53851 17.5711 2.92903C17.9616 3.31955 17.9616 3.95272 17.5711 4.34324L15.4498 6.46456C15.0593 6.85509 14.4261 6.85509 14.0356 6.46456C13.6451 6.07404 13.6451 5.44088 14.0356 5.05035L16.1569 2.92903Z" fill="white"/>
<path d="M6.96443 13.5355C6.57391 13.145 5.94074 13.145 5.55022 13.5355L3.4289 15.6568C3.03837 16.0473 3.03837 16.6805 3.4289 17.071C3.81942 17.4615 4.45259 17.4615 4.84311 17.071L6.96443 14.9497C7.35496 14.5592 7.35496 13.926 6.96443 13.5355Z" fill="white"/>
<path d="M17.5711 15.6569C17.9616 16.0474 17.9616 16.6806 17.5711 17.0711C17.1806 17.4616 16.5474 17.4616 16.1569 17.0711L14.0356 14.9498C13.645 14.5593 13.645 13.9261 14.0356 13.5356C14.4261 13.1451 15.0592 13.1451 15.4498 13.5356L17.5711 15.6569Z" fill="white"/>
<path d="M6.96452 6.46443C7.35505 6.07391 7.35505 5.44074 6.96452 5.05022L4.8432 2.9289C4.45268 2.53837 3.81951 2.53837 3.42899 2.9289C3.03847 3.31942 3.03847 3.95259 3.42899 4.34311L5.55031 6.46443C5.94083 6.85495 6.574 6.85495 6.96452 6.46443Z" fill="white"/>
</svg>
