<svg viewBox="0 0 74 72" fill="none" xmlns="http://www.w3.org/2000/svg" class="advantages-name"><path data-v-f9cc6628="" d="M63.661 24.408a14.718 14.718 0 00-4.849-3.282A14.656 14.656 0 0053.075 20a14.656 14.656 0 00-5.7 1.14 14.717 14.717 0 00-4.818 3.268L37 30.085l-5.626-5.677a14.807 14.807 0 00-4.82-3.259 14.748 14.748 0 00-11.395 0 14.808 14.808 0 00-4.82 3.259A15.084 15.084 0 006 35c0 3.967 1.56 7.774 4.339 10.592a14.718 14.718 0 004.849 3.282c1.818.757 3.769 1.14 5.737 1.126a14.656 14.656 0 005.7-1.14 14.717 14.717 0 004.818-3.268L37 39.915l5.626 5.677a14.807 14.807 0 004.82 3.259 14.748 14.748 0 0011.395 0 14.808 14.808 0 004.82-3.259A15.084 15.084 0 0068 35c0-3.967-1.56-7.774-4.339-10.592zM26.483 40.723a7.797 7.797 0 01-5.557 2.354 7.844 7.844 0 01-5.627-2.308A8.127 8.127 0 0112.906 35a8.157 8.157 0 012.393-5.77 7.89 7.89 0 0111.252 0l5.58 5.77-5.648 5.723zm32.287 0a8.108 8.108 0 01-5.626 2.273 8.108 8.108 0 01-5.627-2.273L41.868 35l5.65-5.723a7.797 7.797 0 015.626-2.308 7.842 7.842 0 015.626 2.308A8.143 8.143 0 0161.117 35a8.143 8.143 0 01-2.347 5.723z" fill="url(#section2-icon-3_svg__paint0_linear)"></path><defs data-v-f9cc6628=""><linearGradient data-v-f9cc6628="" id="section2-icon-3_svg__paint0_linear" x1="6" y1="35" x2="68" y2="35" gradientUnits="userSpaceOnUse"><stop data-v-f9cc6628="" stop-color="#0082FA"></stop><stop data-v-f9cc6628="" offset="1" stop-color="#00F2FE"></stop></linearGradient></defs></svg>
