<svg width="64" height="64" viewBox="0 0 64 64" fill="none" xmlns="http://www.w3.org/2000/svg">
<path d="M6.14062 47.3274C2.407 41.0282 1.10102 33.5828 2.46786 26.3888C3.83472 19.195 7.7804 12.7474 13.5642 8.25654C19.348 3.76566 26.572 1.54034 33.8802 1.99835C41.1886 2.45636 48.0782 5.56618 53.256 10.744C58.434 15.9219 61.5438 22.8116 62.0018 30.1198C62.4598 37.428 60.2344 44.6522 55.7436 50.436C51.2528 56.2198 44.8052 60.1654 37.6112 61.5322C30.4174 62.8992 22.972 61.5932 16.6728 57.8594L6.26602 60.806C5.83964 60.9306 5.38758 60.9384 4.9572 60.8284C4.52682 60.7182 4.13398 60.4944 3.81986 60.1802C3.50574 59.8662 3.2819 59.4734 3.1718 59.043C3.06172 58.6126 3.06942 58.1604 3.19412 57.7342L6.14062 47.3274Z" stroke="white" stroke-width="1.7" stroke-linecap="round" stroke-linejoin="round"/>
<path d="M31.9998 35.7574C34.075 35.7574 35.7574 34.075 35.7574 31.9998C35.7574 29.9246 34.075 28.2422 31.9998 28.2422C29.9246 28.2422 28.2422 29.9246 28.2422 31.9998C28.2422 34.075 29.9246 35.7574 31.9998 35.7574Z" fill="white"/>
<path d="M16.9695 35.7574C19.0447 35.7574 20.727 34.075 20.727 31.9998C20.727 29.9246 19.0447 28.2422 16.9695 28.2422C14.8942 28.2422 13.2119 29.9246 13.2119 31.9998C13.2119 34.075 14.8942 35.7574 16.9695 35.7574Z" fill="white"/>
<path d="M47.03 35.7574C49.1052 35.7574 50.7876 34.075 50.7876 31.9998C50.7876 29.9246 49.1052 28.2422 47.03 28.2422C44.9548 28.2422 43.2724 29.9246 43.2724 31.9998C43.2724 34.075 44.9548 35.7574 47.03 35.7574Z" fill="white"/>
</svg>
