<svg width="72" height="72" viewBox="0 0 72 72" fill="none" xmlns="http://www.w3.org/2000/svg">
<path d="M36 71.9999C55.8823 71.9999 72 55.8822 72 35.9999C72 16.1177 55.8823 0 36 0C16.1178 0 0 16.1177 0 35.9999C0 55.8822 16.1178 71.9999 36 71.9999Z" fill="#77B900"/>
<path opacity="0.18" d="M35.9992 68.3972C53.8932 68.3972 68.3992 53.8912 68.3992 35.9972C68.3992 18.1031 53.8932 3.59717 35.9992 3.59717C18.1051 3.59717 3.59912 18.1031 3.59912 35.9972C3.59912 53.8912 18.1051 68.3972 35.9992 68.3972Z" fill="url(#paint0_radial_14125_17605)" fill-opacity="0.5"/>
<path d="M64.8002 35.8996C64.8002 37.08 64.7327 38.2603 64.5976 39.4069C64.4626 40.6884 64.1925 41.9699 63.8886 43.1839C63.7535 43.7235 63.6185 44.2293 63.4497 44.7689C63.1458 45.7132 62.8082 46.6574 62.403 47.568C61.5252 49.5576 60.4448 51.4124 59.1618 53.1323C58.0814 54.5824 56.8659 55.9314 55.5154 57.1791C50.4171 61.9004 43.597 64.7669 36.1016 64.8006C28.6062 64.8344 21.7523 62.0016 16.6203 57.314C15.3036 56.1 14.0881 54.7848 13.0077 53.3684C10.9819 50.7042 9.42882 47.6691 8.44969 44.4317C7.97701 42.9141 7.63938 41.3291 7.4368 39.7104C7.30175 38.5301 7.20046 37.3498 7.20046 36.1694C7.13293 20.1845 19.9629 7.26844 35.899 7.20099C51.8014 7.16727 64.7327 19.9822 64.8002 35.8996Z" fill="#FCFCFC"/>
<g clip-path="url(#clip0_14125_17605)">
<path d="M53.6754 44.2076L55.0686 47.9048H52.2392L53.6754 44.2076ZM52.1835 42.7681L48.973 50.6589H51.24L51.7478 49.2646H55.5472L56.0278 50.6589H58.4888L55.2544 42.767L52.1835 42.7681ZM45.738 50.6619H48.038V42.7656L45.7376 42.7651L45.738 50.6619ZM29.771 42.7651L27.852 49.0235L26.0138 42.7656L23.5321 42.7651L26.1575 50.6619H29.471L32.1175 42.7651H29.771ZM39.0679 44.4846H40.0564C41.4905 44.4846 42.4181 45.1092 42.4181 46.7301C42.4181 48.3513 41.4905 48.9761 40.0564 48.9761H39.0679V44.4846ZM36.7872 42.7651V50.6619H40.5159C42.5026 50.6619 43.1513 50.3415 43.8527 49.6228C44.3482 49.1182 44.6686 48.0109 44.6686 46.8003C44.6686 45.69 44.3975 44.7003 43.9246 44.0837C43.0727 42.9808 41.8454 42.7651 40.0139 42.7651H36.7872ZM15 42.7542V50.6619H17.3195V44.6575L19.1167 44.658C19.7118 44.658 20.1359 44.8019 20.4225 45.0988C20.786 45.4744 20.9344 46.0806 20.9344 47.1895V50.6619H23.1819V46.2928C23.1819 43.1746 21.1331 42.7542 19.1285 42.7542H15ZM33.0855 42.7651L33.0864 50.6619H35.3854V42.7651H33.0855Z" fill="black"/>
<path d="M21.1812 27.0431C21.1812 27.0431 24.1394 22.809 30.0459 22.371V20.8349C23.5037 21.3446 17.8384 26.7198 17.8384 26.7198C17.8384 26.7198 21.0471 35.7182 30.0459 36.5421V34.9093C23.4422 34.1034 21.1812 27.0431 21.1812 27.0431ZM30.0459 31.6622V33.1575C25.0549 32.2943 23.6696 27.2614 23.6696 27.2614C23.6696 27.2614 26.0659 24.6861 30.0459 24.2685V25.9093C30.0429 25.9093 30.0408 25.9084 30.0383 25.9084C27.9494 25.6652 26.3175 27.5582 26.3175 27.5582C26.3175 27.5582 27.2322 30.7451 30.0459 31.6622ZM30.0459 18.0017V20.8349C30.2379 20.8206 30.43 20.8085 30.6231 20.8022C38.0609 20.559 42.9071 26.7198 42.9071 26.7198C42.9071 26.7198 37.3411 33.2855 31.5422 33.2855C31.0108 33.2855 30.5132 33.2377 30.0459 33.1573V34.9093C30.4455 34.9585 30.8598 34.9875 31.2922 34.9875C36.6884 34.9875 40.5908 32.3141 44.3695 29.1499C44.996 29.6367 47.5609 30.8208 48.0882 31.3392C44.4953 34.2572 36.122 36.6094 31.3749 36.6094C30.9173 36.6094 30.4778 36.5825 30.0459 36.5421V39.004H50.5566V18.0017H30.0459ZM30.0459 24.2685V22.371C30.236 22.3581 30.4275 22.3483 30.6231 22.3423C35.9716 22.1794 39.4806 26.801 39.4806 26.801C39.4806 26.801 35.6906 31.9073 31.6269 31.9073C31.042 31.9073 30.5178 31.8161 30.0459 31.6622V25.9093C32.1281 26.1534 32.547 27.0456 33.7988 29.07L36.583 26.7926C36.583 26.7926 34.5506 24.2069 31.1246 24.2069C30.7522 24.2068 30.3958 24.2322 30.0459 24.2685Z" fill="#77B900"/>
</g>
<defs>
<radialGradient id="paint0_radial_14125_17605" cx="0" cy="0" r="1" gradientUnits="userSpaceOnUse" gradientTransform="translate(35.9829 35.9809) scale(32.3843 32.3842)">
<stop stop-color="white" stop-opacity="0"/>
<stop offset="1" stop-color="#571600"/>
</radialGradient>
<clipPath id="clip0_14125_17605">
<rect width="46.2" height="33" fill="white" transform="translate(15 18.0017)"/>
</clipPath>
</defs>
</svg>
