<svg width="124" height="124" viewBox="0 0 124 124" fill="none" xmlns="http://www.w3.org/2000/svg">
<rect width="124" height="124" rx="14" fill="#3FA9FF" fill-opacity="0.1"/>
<path opacity="0.4" d="M86.2135 52.8801V71.12C86.2135 74.1067 84.6134 76.8801 82.0268 78.4001L66.1868 87.5468C63.6001 89.0401 60.4 89.0401 57.7867 87.5468L41.9467 78.4001C39.36 76.9068 37.76 74.1333 37.76 71.12V52.8801C37.76 49.8934 39.36 47.12 41.9467 45.6L57.7867 36.4533C60.3734 34.96 63.5734 34.96 66.1868 36.4533L82.0268 45.6C84.6134 47.12 86.2135 49.8668 86.2135 52.8801Z" fill="#3FA9FF"/>
<path d="M62 66.6667C60.9067 66.6667 60 65.76 60 64.6667V50.6667C60 49.5733 60.9067 48.6667 62 48.6667C63.0933 48.6667 64 49.5733 64 50.6667V64.6667C64 65.76 63.0933 66.6667 62 66.6667Z" fill="#3FA9FF"/>
<path d="M61.9999 75.9999C61.6533 75.9999 61.3066 75.9199 60.9866 75.7866C60.6399 75.6532 60.3732 75.4667 60.1065 75.2267C59.8665 74.96 59.6799 74.6666 59.5199 74.3466C59.3866 74.0266 59.3333 73.6799 59.3333 73.3333C59.3333 72.6399 59.5999 71.9465 60.1065 71.4399C60.3732 71.1999 60.6399 71.0133 60.9866 70.88C61.9732 70.4533 63.1466 70.6932 63.8933 71.4399C64.1333 71.7065 64.3199 71.9733 64.4532 72.3199C64.5865 72.6399 64.6666 72.9866 64.6666 73.3333C64.6666 73.6799 64.5865 74.0266 64.4532 74.3466C64.3199 74.6666 64.1333 74.96 63.8933 75.2267C63.3866 75.7333 62.7199 75.9999 61.9999 75.9999Z" fill="#3FA9FF"/>
</svg>
