<svg width="64" height="64" viewBox="0 0 64 64" fill="none" xmlns="http://www.w3.org/2000/svg">
<rect width="64" height="64" rx="32" fill="#7A2BF9"/>
<g clip-path="url(#clip0_8857_17386)">
<path fill-rule="evenodd" clip-rule="evenodd" d="M82.9552 27.9863H90.3233C90.974 27.9863 91.4978 27.415 91.4178 26.7492C91.3508 26.1906 90.8568 25.7809 90.2941 25.7809H81.1343C80.5278 25.7809 80.0317 26.2771 80.0317 26.8837V37.9105C80.0317 38.5171 80.5278 39.0132 81.1343 39.0132H90.3233C90.974 39.0132 91.4978 38.4418 91.4178 37.7759C91.3508 37.2175 90.8568 36.8079 90.2941 36.8079H82.9552C82.5584 36.8079 82.2369 36.4863 82.2369 36.0895V34.2178C82.2369 33.8213 82.5584 33.4997 82.9552 33.4997H88.4855C89.1362 33.4997 89.66 32.9284 89.58 32.2627C89.5129 31.7039 89.0189 31.2943 88.4565 31.2943H82.9552C82.5584 31.2943 82.2369 30.9729 82.2369 30.5762V28.7045C82.2369 28.3079 82.5584 27.9863 82.9552 27.9863ZM70.2765 27.9863C71.5079 27.9863 72.5371 28.4275 73.3825 29.2911C73.5847 29.4934 73.8603 29.6037 74.1727 29.6037C74.7792 29.6037 75.2755 29.1074 75.2755 28.5009C75.2755 28.1885 75.1284 27.8944 74.8159 27.6188C73.5111 26.3874 71.9858 25.7809 70.2765 25.7809C68.4571 25.7809 66.8949 26.4243 65.5901 27.7291C64.3037 29.0155 63.6606 30.5777 63.6606 32.3971C63.6606 34.2165 64.3037 35.7787 65.5901 37.0835C66.8949 38.3699 68.4571 39.0132 70.2765 39.0132C72.0961 39.0132 73.6581 38.3699 74.9447 37.0835C75.3856 36.6424 75.3856 35.944 74.9447 35.5213C74.5218 35.0803 73.8236 35.0803 73.3825 35.5213C72.5188 36.3852 71.4896 36.8079 70.2765 36.8079C69.0636 36.8079 68.0162 36.3852 67.1523 35.5213C66.2884 34.6576 65.8659 33.61 65.8659 32.3971C65.8659 31.1842 66.2884 30.155 67.1523 29.2911C68.0162 28.4275 69.0636 27.9863 70.2765 27.9863ZM106.209 36.8079H98.8719C98.4746 36.8079 98.1524 36.4857 98.1524 36.0884V26.9126C98.1524 26.3499 97.7426 25.8559 97.184 25.789C96.5181 25.7092 95.947 26.2331 95.947 26.8837V37.9105C95.947 38.5171 96.4432 39.0132 97.0498 39.0132H106.239C106.89 39.0132 107.413 38.4418 107.333 37.7759C107.266 37.2175 106.772 36.8079 106.209 36.8079ZM152.609 25.7809H141.611C140.961 25.7809 140.437 26.3524 140.517 27.0181C140.584 27.5767 141.078 27.9863 141.641 27.9863H145.304C145.7 27.9863 146.022 28.3079 146.022 28.7047V37.9105C146.022 38.5613 146.594 39.0851 147.26 39.0052C147.818 38.9379 148.228 38.4439 148.228 37.8812V28.7047C148.228 28.3079 148.549 27.9863 148.946 27.9863H152.638C153.289 27.9863 153.813 27.415 153.733 26.7492C153.666 26.1906 153.172 25.7809 152.609 25.7809ZM158.436 25.7809C157.83 25.7809 157.333 26.2771 157.333 26.8837V37.9105C157.333 38.5171 157.83 39.0132 158.436 39.0132C159.043 39.0132 159.539 38.5171 159.539 37.9105V26.8837C159.539 26.2771 159.043 25.7809 158.436 25.7809ZM136.373 32.2685C135.362 31.6251 134.002 31.2943 132.293 31.2943C130.032 31.2943 128.893 30.743 128.893 29.6402C128.893 28.5376 130.032 27.9863 132.293 27.9863C133.542 27.9863 134.737 28.2253 135.876 28.6847C136.538 28.8869 136.998 28.648 137.255 28.0048C137.475 27.435 137.181 26.8837 136.575 26.6081C135.307 26.0566 133.892 25.7809 132.293 25.7809C130.62 25.7809 129.279 26.1302 128.231 26.8101C127.202 27.4902 126.687 28.4457 126.687 29.6402C126.687 30.9085 127.202 31.8825 128.213 32.5257C129.224 33.1689 130.584 33.4997 132.293 33.4997C134.553 33.4997 135.693 34.051 135.693 35.1538C135.693 36.2564 134.553 36.8079 132.293 36.8079H131.741C130.602 36.8079 129.407 36.5689 128.176 36.1093C127.606 35.9073 127.018 36.1645 126.779 36.7711C126.559 37.3409 126.889 38.0023 127.459 38.2046C128.728 38.7374 130.142 39.0132 131.741 39.0132H132.293C133.965 39.0132 135.307 38.664 136.336 37.9839C137.384 37.304 137.898 36.3483 137.898 35.1538C137.898 33.8857 137.384 32.9117 136.373 32.2685ZM113.846 27.9863H121.216C121.867 27.9863 122.391 27.415 122.311 26.7492C122.244 26.1906 121.75 25.7809 121.187 25.7809H112.027C111.421 25.7809 110.925 26.2771 110.925 26.8837V37.9105C110.925 38.5171 111.421 39.0132 112.027 39.0132H121.216C121.867 39.0132 122.391 38.4418 122.311 37.7759C122.244 37.2175 121.75 36.8079 121.187 36.8079H113.846C113.451 36.8079 113.13 36.487 113.13 36.0914V34.2163C113.13 33.8205 113.451 33.4997 113.846 33.4997H119.379C120.029 33.4997 120.553 32.9284 120.473 32.2627C120.406 31.7039 119.912 31.2943 119.349 31.2943H113.846C113.451 31.2943 113.13 30.9737 113.13 30.5779V28.7027C113.13 28.307 113.451 27.9863 113.846 27.9863ZM51.6362 32.6224C51.6322 32.7548 51.4519 32.7898 51.3998 32.6677C51.3775 32.6151 51.3546 32.5622 51.3313 32.5094C51.2888 32.4127 51.3008 32.3002 51.3642 32.2156C51.3773 32.1983 51.404 32.1634 51.4359 32.1216C51.5216 32.0096 51.6452 32.0263 51.6452 32.1507C51.6452 32.3139 51.6414 32.4551 51.6362 32.6224ZM50.6874 30.0312C50.5413 30.2944 50.1666 30.3065 50.0044 30.0527C49.9792 30.0135 49.9539 29.9743 49.9283 29.9349C49.3435 29.037 48.6706 28.1557 47.919 27.2991C47.7344 27.0888 47.8853 26.7588 48.1652 26.7586H48.1719C49.9283 26.7586 50.849 27.1924 51.1301 27.7222C51.3646 28.1653 51.2927 28.9401 50.6874 30.0312ZM50.2949 39.216C50.2007 39.4557 50.1021 39.6939 49.9985 39.9298C49.9823 39.9622 49.9671 39.9951 49.9504 40.0274C49.3039 41.2717 48.2192 42.2514 46.7697 42.9333C46.4444 43.0861 46.0886 42.7885 46.1855 42.4425C46.6668 40.7198 47.0311 38.8516 47.2671 36.893C47.3112 36.5278 47.4913 36.1926 47.7696 35.9519C48.3657 35.4362 48.9224 34.9212 49.4345 34.4099L49.44 34.4041C49.692 34.1527 50.1219 34.2609 50.2245 34.6019C50.7304 36.2837 50.7585 37.8501 50.2949 39.216ZM46.3547 45.4356C46.2072 45.5933 46.0567 45.749 45.9033 45.9023C45.6361 46.1692 45.3626 46.4273 45.0831 46.6766C44.9068 46.8337 44.6402 46.6372 44.74 46.4231C44.7684 46.362 44.7967 46.3004 44.8248 46.2384C44.9422 45.9794 45.0556 45.7138 45.166 45.4431C45.1921 45.3793 45.2471 45.3316 45.314 45.3145C45.5919 45.244 45.863 45.1661 46.1269 45.081C46.3408 45.0122 46.5084 45.2715 46.3547 45.4356ZM43.4611 43.8805C42.876 43.9653 42.2607 44.0201 41.6169 44.0428C40.0463 44.0978 38.3855 43.9622 36.6795 43.6481C36.4715 43.6099 36.4315 43.3287 36.6201 43.2333C36.9922 43.0449 37.3646 42.8523 37.7367 42.6551C40.3471 41.2715 42.7828 39.7591 44.9149 38.2084C45.0748 38.0921 45.2951 38.2294 45.2626 38.4245C44.967 40.2016 44.5576 41.8745 44.0434 43.3931C43.9557 43.6518 43.7316 43.8413 43.4611 43.8805ZM42.8577 46.2482C41.4581 49.0008 39.7345 50.5463 38.0637 50.5151C36.2477 50.4828 34.437 48.5917 33.096 45.3272L33.0945 45.3236C33.0093 45.1163 33.1072 44.8791 33.3125 44.79C33.3267 44.7836 33.3409 44.7775 33.3552 44.7711C33.4432 44.7329 33.542 44.7259 33.6346 44.7521C36.143 45.456 38.6144 45.8233 40.9299 45.8233C41.1815 45.8233 41.4314 45.8191 41.6792 45.8105C41.9693 45.8001 42.2547 45.7837 42.5352 45.7614C42.7953 45.7409 42.9761 46.0156 42.8577 46.2482ZM34.5698 51.4828C33.7377 51.5897 32.8932 51.6445 32.0405 51.6445C28.2299 51.6445 24.5851 50.5645 21.4559 48.5495C21.2406 48.4107 21.3321 48.0766 21.588 48.0649C21.641 48.0624 21.6906 48.0597 21.7343 48.057C22.5295 48.0053 23.4014 47.8888 24.3462 47.7067C26.3559 47.3202 28.5899 46.657 30.9291 45.7639C31.1388 45.684 31.3729 45.788 31.4583 45.9956C31.4589 45.9969 31.4592 45.9981 31.4598 45.9992C32.3664 48.2063 33.482 49.8741 34.7347 50.935C34.9418 51.1105 34.8389 51.4482 34.5698 51.4828ZM23.2327 37.7465C24.9602 36.3398 26.9843 34.9362 29.2047 33.6073C29.2523 36.4472 29.5637 39.1737 30.1148 41.6365C29.2914 41.2853 28.4704 40.8986 27.6565 40.4759C26.0801 39.6566 24.5969 38.7389 23.2327 37.7465ZM17.8602 45.3559C17.4481 44.5783 17.9807 42.7772 20.6867 40.0397L20.688 40.0384C20.9706 39.7529 20.9435 39.2845 20.628 39.0359C20.5196 38.9508 20.412 38.8647 20.3051 38.7785C20.0356 38.5607 19.6456 38.5807 19.4009 38.8258C19.3472 38.8795 19.3073 38.9198 19.2955 38.9319C17.9429 40.3204 16.9961 41.6056 16.4658 42.7616C16.3155 43.0892 15.8615 43.1245 15.6627 42.8239C13.5634 39.6505 12.4358 35.9319 12.4358 32.0396C12.4358 30.6481 12.5804 29.2787 12.8616 27.9485C12.9041 27.7472 13.188 27.7343 13.2476 27.9312C13.6543 29.274 14.3164 30.663 15.2312 32.0676C16.4625 33.9587 18.0864 35.7766 20.0108 37.4441C20.6676 38.0133 21.3614 38.5638 22.0849 39.0949C23.5516 40.1712 25.1453 41.1644 26.8409 42.0454C27.5925 42.436 28.3245 42.8087 29.0741 43.1462C29.4915 43.334 29.9664 43.3487 30.3924 43.1814C30.7459 43.043 31.1019 42.899 31.46 42.7493C31.8495 42.5869 32.0607 42.1623 31.9575 41.753C31.9446 41.7019 31.9344 41.6607 31.9287 41.6365C31.3383 39.1522 31.0102 36.3556 30.9716 33.4263L30.9704 33.4268C30.97 33.392 30.9702 33.3567 30.9698 33.3215C30.9681 33.1614 30.9691 33.0001 30.9662 32.8404C30.9652 32.7894 30.9668 32.7031 30.9674 32.652C30.9677 32.6316 30.9674 32.6114 30.9674 32.5912C30.9675 32.5912 30.9679 32.591 30.9681 32.591C30.9691 32.4077 30.9704 32.2245 30.9737 32.0405C30.9827 31.538 31.0008 31.0392 31.0267 30.5444C31.0264 30.5446 31.0262 30.5448 31.0258 30.545C31.2078 27.0102 31.8072 23.6888 32.7608 20.8948C32.849 20.6363 32.7112 20.3556 32.4527 20.2674C32.2007 20.1813 31.9488 20.099 31.6974 20.0202C31.4431 19.9404 31.1713 20.0777 31.0854 20.3301C30.0518 23.3643 29.414 26.9641 29.2439 30.7734C29.2222 31.2566 28.9592 31.6964 28.543 31.9431C26.2869 33.2802 24.2149 34.6976 22.4249 36.1264C22.052 36.4242 21.5194 36.4128 21.1588 36.1001C19.3647 34.5446 17.8548 32.8552 16.7134 31.1023C14.4703 27.658 13.9373 24.4133 15.2129 21.9674C15.2163 21.9617 15.2194 21.9557 15.2227 21.9501C15.3853 21.6802 15.5545 21.414 15.7305 21.1514C17.1963 19.2113 19.9243 18.087 23.5423 17.9599C23.7713 17.9519 24.0017 17.9478 24.2343 17.9478C26.4536 17.9478 28.8352 18.314 31.2574 19.0129L31.258 19.0124C31.311 19.0277 31.3641 19.0437 31.4172 19.0593C31.4581 19.0714 31.499 19.0827 31.54 19.095C31.5398 19.0952 31.54 19.0948 31.54 19.095C32.0997 19.2623 32.661 19.4478 33.2231 19.65C33.2231 19.6502 33.2233 19.6498 33.2231 19.65C33.2362 19.6546 33.2494 19.6594 33.2625 19.664C33.409 19.7169 33.5553 19.7711 33.7015 19.8262C33.7473 19.8435 33.7932 19.861 33.839 19.8787C33.883 19.8956 33.927 19.912 33.9712 19.9291L33.9707 19.9299C35.1536 20.3877 36.3356 20.9202 37.5028 21.5268C39.762 22.7006 41.8299 24.0765 43.6295 25.586C40.195 26.3728 36.2029 27.8906 32.1891 29.937C32.004 30.0316 31.8821 30.2177 31.8704 30.4253C31.8564 30.674 31.8379 31.1742 31.8247 31.5717C31.8164 31.8212 32.0803 31.9865 32.3014 31.8704L32.3037 31.8691C36.2777 29.7823 40.2439 28.2226 43.6499 27.3983C44.2865 27.2443 44.6987 26.6329 44.6093 25.9841C44.5466 25.5309 44.4761 25.0847 44.398 24.6464C44.3 24.0959 43.9986 23.6036 43.5538 23.2649C41.9585 22.0497 40.2004 20.935 38.3184 19.957C37.0501 19.298 35.7631 18.7206 34.4735 18.2281C34.1977 18.1228 34.0795 17.7967 34.2234 17.539C35.5521 15.1621 37.1323 13.831 38.6719 13.831C38.6878 13.831 38.7038 13.831 38.7197 13.8314C40.5357 13.8638 42.3464 15.7548 43.6874 19.0193C44.3661 20.6718 44.892 22.5775 45.2515 24.6486C45.2496 24.6468 45.2476 24.6453 45.2459 24.6436C45.3993 25.5274 45.5229 26.4409 45.6146 27.3779C45.6067 27.3829 45.5983 27.3874 45.5904 27.3924C45.6011 27.4033 45.6125 27.4143 45.6234 27.4254C45.7755 28.9978 45.8397 30.6352 45.8097 32.306C45.7909 33.3628 45.7345 34.4051 45.6434 35.4248C43.2139 37.3882 40.21 39.3421 36.9082 41.0919C35.8231 41.6671 34.7382 42.2024 33.6639 42.6953C33.6471 42.703 33.6306 42.7105 33.6139 42.7182C33.5318 42.7556 33.4495 42.7937 33.3675 42.8308C33.3667 42.8306 33.3661 42.8304 33.3655 42.8302C32.4753 43.2329 31.5936 43.6055 30.7265 43.9457C30.7267 43.9459 30.7267 43.9463 30.7269 43.9465C30.6779 43.9657 30.6292 43.9841 30.5804 44.0032C30.5195 44.027 30.4585 44.0505 30.3978 44.0739C30.2523 44.1297 30.1073 44.1846 29.9628 44.2387C29.923 44.2535 29.883 44.269 29.8432 44.2836C29.6677 44.3488 29.4932 44.412 29.3192 44.4743C29.2975 44.482 29.2758 44.4903 29.2543 44.498C29.2539 44.4978 29.2537 44.4978 29.2535 44.4976C27.3953 45.1594 25.6251 45.6594 24.0119 45.9698C20.1138 46.7203 18.2783 46.1446 17.8602 45.3559ZM20.6599 16.0723C23.9593 13.7097 27.9018 12.4349 32.0405 12.4349C33.1329 12.4349 34.2113 12.5242 35.268 12.6986C35.5509 12.7453 35.6459 13.1065 35.4202 13.2835C34.3962 14.0863 33.4449 15.274 32.603 16.8143C32.3975 17.1901 31.9617 17.3739 31.5496 17.2578C28.7602 16.4725 26.0159 16.1031 23.4802 16.1921C22.5449 16.2249 21.6591 16.3197 20.827 16.4731C20.5932 16.5162 20.4667 16.2105 20.6599 16.0723ZM47.5709 30.3603C47.5651 30.1356 47.8534 30.0397 47.9838 30.2227C48.1439 30.4474 48.2982 30.6732 48.4461 30.9002C48.6425 31.202 48.8253 31.5021 48.9952 31.8002C49.1012 31.9861 49.0758 32.2193 48.9316 32.3773C48.7027 32.6287 48.4543 32.8886 48.1846 33.1581C48.0862 33.2563 47.9859 33.3548 47.8836 33.4534C47.7567 33.576 47.5439 33.4826 47.5509 33.3061C47.5634 32.9845 47.5726 32.6618 47.5784 32.3375C47.5903 31.6732 47.5874 31.0137 47.5709 30.3603ZM45.5377 17.8208C45.6609 17.9376 45.7828 18.0564 45.9033 18.177C47.7925 20.0661 49.2476 22.2736 50.2207 24.6778C50.3189 24.9202 50.113 25.1739 49.8556 25.1276C49.2926 25.0265 48.659 24.9813 47.9576 24.993C47.4715 25.0011 47.049 24.6605 46.9636 24.1818C46.5824 22.0445 46.0313 20.0702 45.3236 18.3471C45.2832 18.2489 45.2425 18.1518 45.2011 18.0557C45.1112 17.846 45.3722 17.6635 45.5377 17.8208ZM52.9525 27.5942C52.1079 23.5811 50.1219 19.8939 47.1539 16.926C43.117 12.8891 37.7498 10.666 32.0405 10.666C26.3315 10.666 20.964 12.8891 16.9271 16.926C15.9453 17.9079 15.072 18.9687 14.3106 20.0936C14.0842 20.395 13.8814 20.7134 13.7011 21.0465C11.7233 24.3329 10.667 28.1051 10.667 32.0396C10.667 37.7488 12.8903 43.1161 16.9271 47.153C20.964 51.1898 26.3315 53.4133 32.0405 53.4133C37.7498 53.4133 43.117 51.1898 47.1539 47.153C49.0592 45.2478 50.5599 43.0461 51.6141 40.6521C51.7429 40.3869 51.8553 40.1153 51.952 39.8383C52.9116 37.3863 53.4143 34.7516 53.4143 32.0396C53.4143 30.5467 53.2609 29.078 52.9643 27.6496C52.9602 27.6311 52.9566 27.6126 52.9525 27.5942ZM172.676 34.051H168.633C168.253 34.051 168.016 33.6394 168.206 33.3104L170.234 29.81C170.425 29.4813 170.899 29.482 171.089 29.8111L173.104 33.3117C173.293 33.6406 173.056 34.051 172.676 34.051ZM177.995 37.3776L171.618 26.314C171.159 25.5972 170.167 25.5972 169.707 26.314L163.33 37.3776C163.253 37.5162 163.215 37.6548 163.204 37.8153C163.164 38.44 163.649 38.9984 164.275 39.0129C164.712 39.023 165.051 38.8029 165.315 38.3333L166.301 36.6191C166.43 36.3948 166.669 36.2564 166.928 36.2564H174.379C174.638 36.2564 174.877 36.3948 175.006 36.6191L175.992 38.3333C176.241 38.7782 176.577 38.9992 176.982 39.0125C177.601 39.033 178.124 38.5298 178.124 37.9105C178.124 37.7451 178.087 37.5796 177.995 37.3776Z" fill="white"/>
</g>
<defs>
<clipPath id="clip0_8857_17386">
<rect width="42.6667" height="42.6667" fill="white" transform="translate(10.667 10.666)"/>
</clipPath>
</defs>
</svg>
