<svg width="192" height="144" viewBox="0 0 192 144" fill="none" xmlns="http://www.w3.org/2000/svg">
<path d="M113.297 45.0428L118.115 57.2043C118.202 57.422 118.093 57.668 117.876 57.7556L113.084 59.6531C112.867 59.7407 112.621 59.6317 112.533 59.4143L107.716 47.2527C107.628 47.0351 107.737 46.7888 107.955 46.7014L112.746 44.8038C112.964 44.7162 113.212 44.8251 113.297 45.0428Z" fill="#98EED5"/>
<path d="M97.134 82.0499L103.567 89.4484C103.683 89.5809 103.669 89.782 103.536 89.8979L100.622 92.4321C100.489 92.548 100.288 92.5338 100.172 92.4014L93.7387 85.0026C93.6228 84.8702 93.6369 84.669 93.7694 84.5531L96.6845 82.019C96.817 81.903 97.0181 81.9172 97.134 82.0499Z" fill="#98EED5"/>
<path d="M102.487 77.6073L83.8922 56.7361C83.5586 56.3625 83.5918 55.7874 83.9654 55.4538L92.1876 48.1285C92.5613 47.7949 93.1363 47.8281 93.4699 48.202L112.065 69.0729C112.398 69.4465 112.365 70.0216 111.991 70.3552L103.769 77.6805C103.393 78.0141 102.821 77.9809 102.487 77.6073Z" fill="#98EED5"/>
<path fill-rule="evenodd" clip-rule="evenodd" d="M92.4558 49.3723C92.6022 49.2417 92.8264 49.2547 92.957 49.4011L110.813 69.4418C110.943 69.5882 110.93 69.8126 110.784 69.9429L103.501 76.432C103.354 76.5626 103.13 76.5496 103 76.4032L85.1438 56.3623C85.0132 56.2161 85.0262 55.9917 85.1726 55.8614L92.4558 49.3723ZM92.663 50.1381L85.9096 56.1552L103.293 75.6662L110.047 69.6492L92.663 50.1381Z" fill="#C3E5DB"/>
<path d="M91.3729 54.9606C91.2424 54.8142 91.0182 54.8014 90.8718 54.9317C90.7254 55.0621 90.7125 55.2865 90.8428 55.4329L95.3008 60.4359C94.7015 61.0849 94.3355 61.9522 94.3355 62.9053C94.3355 64.9165 95.9658 66.5465 97.9768 66.5465C98.7791 66.5465 99.5209 66.2871 100.123 65.8474L104.58 70.85C104.71 70.9964 104.935 71.0093 105.081 70.8788C105.228 70.7485 105.241 70.5241 105.11 70.3777L100.653 65.3751C101.252 64.7261 101.618 63.8583 101.618 62.9053C101.618 60.8943 99.9877 59.264 97.9768 59.264C97.1742 59.264 96.4324 59.5237 95.8305 59.9633L91.3729 54.9606Z" fill="#C3E5DB"/>
<path d="M95.9521 64.4284L96.4158 64.0142C96.184 63.7444 96.0208 63.3943 95.9922 63.1317L96.3993 62.9685C96.4372 63.2311 96.5625 63.5481 96.7919 63.8061C97.083 64.1325 97.4663 64.1846 97.7289 63.9504C97.9821 63.7257 97.9775 63.4063 97.8141 62.9448C97.5798 62.3131 97.535 61.8352 97.9324 61.4803C98.3135 61.1395 98.8434 61.1536 99.2905 61.5158L99.7542 61.1016L100.007 61.3857L99.5627 61.7832C99.7993 62.0671 99.8939 62.3203 99.9342 62.5236L99.5296 62.6798C99.4989 62.5332 99.4326 62.2562 99.1698 61.9629C98.8552 61.6104 98.524 61.6648 98.3418 61.828C98.1028 62.0409 98.1359 62.3179 98.3253 62.8644C98.5547 63.5102 98.5288 63.96 98.1193 64.3243C97.7574 64.6483 97.192 64.698 96.6926 64.2936L96.2147 64.7193L95.9521 64.4284Z" fill="#98EED5"/>
<path d="M87.9172 123.84L87.6875 95.887C87.683 95.3854 88.0876 94.9762 88.5868 94.9714L99.5983 94.8814C100.1 94.8768 100.509 95.2815 100.514 95.7807L100.744 123.733C100.748 124.235 100.344 124.644 99.8445 124.649L88.8328 124.739C88.3312 124.743 87.9218 124.341 87.9172 123.84Z" fill="#98EED5"/>
<path d="M90.2156 124.905L101.502 99.3308C101.705 98.8717 102.24 98.6636 102.699 98.8672L112.774 103.313C113.233 103.516 113.441 104.051 113.237 104.51L101.951 130.085C101.748 130.544 101.213 130.752 100.754 130.548L90.6796 126.103C90.2205 125.899 90.0124 125.364 90.2156 124.905Z" fill="#98EED5"/>
<path opacity="0.3" d="M112.775 103.315L102.7 98.8693C102.241 98.6658 101.706 98.8738 101.503 99.333L100.561 101.467L100.514 95.7838C100.509 95.2822 100.1 94.88 99.5983 94.8848L88.5868 94.9724C88.0852 94.977 87.683 95.3864 87.6875 95.888L87.9172 123.841C87.9218 124.342 88.3312 124.744 88.8328 124.74L90.2927 124.728L90.2145 124.903C90.0112 125.362 90.2193 125.897 90.6784 126.1L100.753 130.546C101.212 130.749 101.747 130.541 101.95 130.082L113.236 104.508C113.44 104.053 113.231 103.516 112.775 103.315Z" fill="black"/>
<path d="M96.7617 127.157L76.8326 107.555C76.4752 107.202 76.4704 106.63 76.823 106.272L84.5459 98.4217C84.8985 98.0646 85.4709 98.0598 85.8283 98.4124L105.757 118.015C106.115 118.368 106.12 118.94 105.767 119.297L98.0443 127.148C97.6941 127.503 97.1191 127.508 96.7617 127.157Z" fill="#98EED5"/>
<path fill-rule="evenodd" clip-rule="evenodd" d="M84.8845 99.6421C85.022 99.5025 85.2469 99.5005 85.3866 99.6381L104.523 118.463C104.662 118.6 104.664 118.825 104.527 118.965L97.6857 125.919C97.5481 126.059 97.3235 126.061 97.1836 125.923L78.0474 107.098C77.9077 106.961 77.9058 106.736 78.0433 106.597L84.8845 99.6421ZM85.1418 100.393L78.7981 106.841L97.4284 125.169L103.772 118.72L85.1418 100.393Z" fill="#C3E5DB"/>
<path d="M84.1809 105.291C84.0412 105.154 83.8166 105.156 83.6791 105.295C83.5416 105.435 83.5435 105.66 83.6832 105.797L88.4601 110.496C87.9542 111.121 87.6511 111.918 87.6511 112.785C87.6511 114.796 89.2814 116.426 91.2924 116.426C92.1811 116.426 92.9954 116.107 93.6276 115.579L98.4047 120.277C98.5444 120.415 98.7691 120.413 98.9066 120.273C99.0441 120.134 99.0422 119.909 98.9025 119.772L94.1253 115.073C94.631 114.447 94.9339 113.651 94.9339 112.785C94.9339 110.773 93.3036 109.143 91.2924 109.143C90.4041 109.143 89.59 109.461 88.9579 109.99L84.1809 105.291Z" fill="#C3E5DB"/>
<path d="M89.374 114.435L89.8093 113.993C89.5585 113.737 89.374 113.401 89.3291 113.141L89.7241 112.952C89.7786 113.212 89.9253 113.52 90.1691 113.761C90.4813 114.066 90.867 114.095 91.113 113.844C91.3497 113.602 91.3261 113.285 91.132 112.834C90.8577 112.218 90.7794 111.745 91.1557 111.364C91.5131 111 92.043 110.979 92.5115 111.31L92.9469 110.867L93.219 111.135L92.8002 111.561C93.0556 111.828 93.1645 112.074 93.219 112.275L92.8237 112.457C92.7837 112.313 92.6985 112.041 92.4169 111.764C92.0785 111.433 91.7543 111.508 91.5815 111.684C91.3569 111.911 91.4065 112.185 91.6336 112.718C91.9033 113.347 91.9081 113.799 91.5249 114.189C91.1841 114.535 90.6234 114.622 90.0981 114.253L89.6485 114.71L89.374 114.435Z" fill="#98EED5"/>
<path d="M113.199 112.753H79.1279V141.6H113.199V112.753Z" fill="#85D0CC"/>
<path d="M113.199 112.753H79.1279V121.972H113.199V112.753Z" fill="black" fill-opacity="0.24"/>
<path d="M118.191 119.51L113.201 112.753H79.1296L73.6807 119.051L118.191 119.51Z" fill="#85D0CC"/>
<path d="M101.13 9.74125L85.4638 22.8208C85.1823 23.055 84.7659 23.0172 84.5317 22.738L79.3784 16.565C79.1441 16.2834 79.1821 15.867 79.4612 15.6327L95.1269 2.5532C95.4084 2.31896 95.8249 2.35682 96.0591 2.636L101.212 8.80667C101.447 9.08824 101.409 9.50701 101.13 9.74125Z" fill="#98EED5"/>
<path fill-rule="evenodd" clip-rule="evenodd" d="M80.2926 16.4011C80.201 16.2912 80.2156 16.1278 80.3255 16.0361L95.3689 3.47574C95.4789 3.38404 95.6421 3.39873 95.734 3.50857L100.298 8.97527C100.39 9.08512 100.375 9.24851 100.265 9.34024L85.222 21.9006C85.1121 21.9923 84.9489 21.9776 84.857 21.8678L80.2926 16.4011ZM80.8566 16.2678L85.0888 21.3367L99.7343 9.10852L95.5022 4.0396L80.8566 16.2678Z" fill="#C3E5DB"/>
<path d="M96.2485 8.05517C96.3582 7.96344 96.3731 7.80005 96.2812 7.6902C96.1895 7.58038 96.0261 7.56567 95.9164 7.65739L92.1625 10.7918C91.6825 10.3197 91.0242 10.0285 90.298 10.0285C88.8292 10.0285 87.6385 11.2192 87.6385 12.688C87.6385 13.243 87.8085 13.7583 88.0993 14.1847L84.3441 17.3203C84.2341 17.4121 84.2195 17.5755 84.3112 17.6853C84.4029 17.7951 84.5663 17.8098 84.6762 17.7181L88.4315 14.5824C88.9115 15.0555 89.5705 15.3474 90.298 15.3474C91.7665 15.3474 92.9574 14.1567 92.9574 12.688C92.9574 12.132 92.7868 11.616 92.4952 11.1892L96.2485 8.05517Z" fill="#C3E5DB"/>
<path d="M91.3595 14.1994L91.0684 13.8516C90.8651 14.0149 90.6071 14.1261 90.4156 14.1403L90.3043 13.8398C90.4984 13.8185 90.7327 13.7357 90.9242 13.5724C91.168 13.369 91.2153 13.0898 91.0518 12.891C90.8934 12.7017 90.6616 12.697 90.3208 12.8059C89.8547 12.962 89.5046 12.9833 89.2538 12.6852C89.0147 12.3989 89.0361 12.0132 89.3107 11.6962L89.0195 11.3484L89.2324 11.1709L89.5118 11.5045C89.7247 11.3389 89.9116 11.275 90.0607 11.2513L90.1648 11.5518C90.0583 11.5708 89.8523 11.6134 89.6323 11.7979C89.3673 12.0203 89.4004 12.2617 89.5139 12.3989C89.663 12.5787 89.8665 12.5621 90.2687 12.4344C90.7444 12.2829 91.0732 12.3113 91.3288 12.6189C91.5559 12.891 91.5796 13.3051 91.2743 13.66L91.5748 14.0196L91.3595 14.1994Z" fill="#98EED5"/>
<path d="M105.883 19.7854L111.001 28.2984C111.093 28.4523 111.044 28.6486 110.89 28.741L107.537 30.7568C107.383 30.8489 107.187 30.7992 107.095 30.6456L101.977 22.1325C101.885 21.9787 101.934 21.7823 102.088 21.6901L105.441 19.6742C105.592 19.5843 105.791 19.634 105.883 19.7854Z" fill="#98EED5"/>
<path d="M95.3987 34.6391L87.3993 44.9881C87.2548 45.1727 86.9898 45.2082 86.8029 45.064L82.7262 41.9123C82.5417 41.768 82.5061 41.5028 82.6506 41.3161L90.6501 30.9668C90.7945 30.7823 91.0595 30.747 91.2465 30.8912L95.3231 34.0427C95.5077 34.1848 95.5432 34.4521 95.3987 34.6391Z" fill="#98EED5"/>
</svg>
