<svg width="200" height="150" viewBox="0 0 200 150" fill="none" xmlns="http://www.w3.org/2000/svg">
<path d="M2.5 17.006C2.5 15.2078 3.95777 13.75 5.75602 13.75H194.244C196.042 13.75 197.5 15.2078 197.5 17.006V132.776C197.5 134.574 196.042 136.032 194.244 136.032H5.75605C3.95778 136.032 2.5 134.574 2.5 132.776V17.006Z" fill="#01B8FC"/>
<path d="M2.5 13.75L10.3468 30.946L47.41 115.09L197.5 136.032H2.5V13.75Z" fill="black" fill-opacity="0.06"/>
<path d="M7.20312 23.1564C7.20312 20.9585 8.98485 19.1768 11.1827 19.1768H187.37C189.568 19.1768 191.35 20.9585 191.35 23.1564C191.35 25.3541 189.568 27.1359 187.37 27.1359H11.1827C8.98485 27.1359 7.20312 25.3541 7.20312 23.1564Z" fill="#4475F6"/>
<path d="M7.20312 35.0306C7.20312 33.8671 8.14627 32.9238 9.30972 32.9238H47.425C48.5882 32.9238 49.5315 33.8671 49.5315 35.0306V125.966C49.5315 127.129 48.5882 128.072 47.425 128.072H9.30972C8.1463 128.072 7.20312 127.129 7.20312 125.966V35.0306Z" fill="#4475F6"/>
<path d="M54.959 35.0331C54.959 33.8681 55.9032 32.9238 57.0682 32.9238H189.241C190.406 32.9238 191.35 33.8681 191.35 35.0331V126.078C191.35 127.243 190.406 128.187 189.241 128.187H57.0682C55.9032 128.187 54.959 127.243 54.959 126.078V35.0331Z" fill="#2249B3"/>
<path d="M54.958 35.0331C54.958 33.8681 55.9023 32.9238 57.0673 32.9238H189.24C190.405 32.9238 191.35 33.8681 191.35 35.0331V126.078C191.35 127.243 190.405 128.187 189.24 128.187H57.0673C55.9023 128.187 54.958 127.243 54.958 126.078V35.0331Z" fill="#4475F6"/>
<path d="M12.6306 23.1556C12.6306 23.9548 11.9827 24.6027 11.1835 24.6027C10.3842 24.6027 9.73633 23.9548 9.73633 23.1556C9.73633 22.3564 10.3842 21.7085 11.1835 21.7085C11.9827 21.7085 12.6306 22.3564 12.6306 23.1556Z" fill="#75E0E6"/>
<path d="M17.3327 23.1556C17.3327 23.9548 16.6848 24.6027 15.8856 24.6027C15.0864 24.6027 14.4385 23.9548 14.4385 23.1556C14.4385 22.3564 15.0864 21.7085 15.8856 21.7085C16.6848 21.7085 17.3327 22.3564 17.3327 23.1556Z" fill="#75E0E6"/>
<path d="M22.0359 23.1556C22.0359 23.9548 21.388 24.6027 20.5887 24.6027C19.7895 24.6027 19.1416 23.9548 19.1416 23.1556C19.1416 22.3564 19.7895 21.7085 20.5887 21.7085C21.388 21.7085 22.0359 22.3564 22.0359 23.1556Z" fill="#75E0E6"/>
<path d="M62.1934 46.3103C62.1934 44.1123 63.9751 42.3306 66.1731 42.3306H142.509C144.707 42.3306 146.488 44.1123 146.488 46.3103V84.2973C146.488 86.4951 144.707 88.2768 142.509 88.2768H66.1731C63.9751 88.2768 62.1934 86.4951 62.1934 84.2973V46.3103Z" fill="#5BB1E9"/>
<path fill-rule="evenodd" clip-rule="evenodd" d="M97.7551 58.5796L103.773 65.9346L118.279 59.7653L126.953 68.7736L136.16 64.4126L139.447 58.8246L140.023 59.1633L136.631 64.9281L126.805 69.5826L118.117 60.5598L103.573 66.7451L97.5704 59.4083L86.0211 64.9391L80.9299 71.2183L73.3886 69.5426L67.1734 75.4308L66.7139 74.9458L73.1871 68.8136L80.6714 70.4768L85.5971 64.4016L97.7551 58.5796Z" fill="#B5CDFB"/>
<path d="M62.1934 98.0452C62.1934 96.6464 63.3274 95.5127 64.7259 95.5127H106.331C107.729 95.5127 108.863 96.6464 108.863 98.0452C108.863 99.4437 107.729 100.578 106.331 100.578H64.7259C63.3274 100.578 62.1934 99.4437 62.1934 98.0452Z" fill="#5BB1E9"/>
<path d="M62.1934 105.28C62.1934 104.481 62.8414 103.833 63.6406 103.833H145.041C145.841 103.833 146.488 104.481 146.488 105.28C146.488 106.079 145.841 106.727 145.041 106.727H63.6406C62.8414 106.727 62.1934 106.079 62.1934 105.28Z" fill="#5BB1E9"/>
<path d="M62.1934 111.431C62.1934 110.631 62.8414 109.983 63.6406 109.983H145.041C145.841 109.983 146.488 110.631 146.488 111.431C146.488 112.23 145.841 112.878 145.041 112.878H63.6406C62.8414 112.878 62.1934 112.23 62.1934 111.431Z" fill="#5BB1E9"/>
<path d="M62.1934 117.581C62.1934 116.782 62.8414 116.134 63.6406 116.134H145.041C145.841 116.134 146.488 116.782 146.488 117.581C146.488 118.38 145.841 119.028 145.041 119.028H63.6406C62.8414 119.028 62.1934 118.38 62.1934 117.581Z" fill="#5BB1E9"/>
<path d="M10.8213 48.3001C10.8213 45.0033 13.4939 42.3306 16.7907 42.3306H39.9447C43.2415 42.3306 45.914 45.0033 45.914 48.3001C45.914 51.5968 43.2415 54.2693 39.9447 54.2693H16.7907C13.4939 54.2693 10.8213 51.5968 10.8213 48.3001Z" fill="#5BB1E9"/>
<path d="M74.6234 69.512C74.6234 70.2495 74.0254 70.8475 73.2877 70.8475C72.5499 70.8475 71.9521 70.2495 71.9521 69.512C71.9521 68.7743 72.5499 68.1763 73.2877 68.1763C74.0254 68.1763 74.6234 68.7743 74.6234 69.512Z" fill="#75E0E6"/>
<path d="M82.3031 70.8477C82.3031 71.5855 81.7051 72.1835 80.9676 72.1835C80.2298 72.1835 79.6318 71.5855 79.6318 70.8477C79.6318 70.1102 80.2298 69.5122 80.9676 69.5122C81.7051 69.5122 82.3031 70.1102 82.3031 70.8477Z" fill="#75E0E6"/>
<path d="M86.9776 64.8375C86.9776 65.5752 86.3799 66.1732 85.6421 66.1732C84.9044 66.1732 84.3066 65.5752 84.3066 64.8375C84.3066 64.1 84.9044 63.502 85.6421 63.502C86.3799 63.502 86.9776 64.1 86.9776 64.8375Z" fill="#75E0E6"/>
<path d="M98.6644 59.1607C98.6644 59.8984 98.0664 60.4964 97.3287 60.4964C96.5912 60.4964 95.9932 59.8984 95.9932 59.1607C95.9932 58.4232 96.5912 57.8252 97.3287 57.8252C98.0664 57.8252 98.6644 58.4232 98.6644 59.1607Z" fill="#75E0E6"/>
<path d="M105.009 66.1731C105.009 66.9106 104.411 67.5087 103.673 67.5087C102.936 67.5087 102.338 66.9106 102.338 66.1731C102.338 65.4354 102.936 64.8374 103.673 64.8374C104.411 64.8374 105.009 65.4354 105.009 66.1731Z" fill="#75E0E6"/>
<path d="M119.367 60.4964C119.367 61.2339 118.769 61.8319 118.031 61.8319C117.293 61.8319 116.695 61.2339 116.695 60.4964C116.695 59.7586 117.293 59.1606 118.031 59.1606C118.769 59.1606 119.367 59.7586 119.367 60.4964Z" fill="#75E0E6"/>
<path d="M128.048 68.8441C128.048 69.5816 127.45 70.1796 126.712 70.1796C125.975 70.1796 125.377 69.5816 125.377 68.8441C125.377 68.1063 125.975 67.5083 126.712 67.5083C127.45 67.5083 128.048 68.1063 128.048 68.8441Z" fill="#75E0E6"/>
<path d="M137.731 64.5032C137.731 65.2407 137.133 65.8387 136.395 65.8387C135.658 65.8387 135.06 65.2407 135.06 64.5032C135.06 63.7655 135.658 63.1675 136.395 63.1675C137.133 63.1675 137.731 63.7655 137.731 64.5032Z" fill="#75E0E6"/>
<path fill-rule="evenodd" clip-rule="evenodd" d="M156.253 111.553C178.771 105.519 192.134 82.373 186.1 59.8545C180.067 37.336 156.921 23.9726 134.402 30.0065C111.884 36.0402 98.5202 59.1862 104.554 81.7047C110.588 104.223 133.734 117.587 156.253 111.553ZM150.624 90.5494C139.706 93.4752 128.483 86.9955 125.557 76.077C122.632 65.1582 129.111 53.9352 140.03 51.0097C150.949 48.084 162.171 54.5637 165.097 65.4822C168.023 76.401 161.543 87.624 150.624 90.5494ZM31.159 73.0345C31.264 72.7297 31.321 72.4025 31.321 72.062C31.321 70.4157 29.9865 69.0812 28.3402 69.0812C26.694 69.0812 25.3595 70.4157 25.3595 72.062C25.3595 72.7665 25.6037 73.4137 26.0122 73.9237L16.6345 84.5315L9.80762 92.2237L10.5268 92.862L17.3537 85.1697L26.726 74.5682C27.1912 74.8685 27.7455 75.0429 28.3402 75.0429C29.294 75.0429 30.1432 74.595 30.6887 73.898L48.229 88.9322C48.1142 89.249 48.0517 89.5905 48.0517 89.9467C48.0517 91.593 49.3862 92.9275 51.0325 92.9275C52.6787 92.9275 54.0132 91.593 54.0132 89.9467C54.0132 89.18 53.7237 88.4807 53.248 87.9524L61.9535 74.5907C62.4112 74.8772 62.9527 75.0429 63.5327 75.0429C64.7442 75.0429 65.7872 74.32 66.2532 73.2817L84.4005 80.6425C84.4627 82.2337 85.7725 83.5045 87.3787 83.5045C89.025 83.5045 90.3595 82.17 90.3595 80.5237C90.3595 79.7592 90.0717 79.062 89.5987 78.5345L94.9965 70.0117L94.184 69.4972L88.8447 77.9277C88.412 77.6827 87.9117 77.5429 87.3787 77.5429C86.0345 77.5429 84.8977 78.4329 84.5262 79.6559L66.5002 72.3442C66.509 72.2515 66.5135 72.1572 66.5135 72.062C66.5135 70.4157 65.179 69.0812 63.5327 69.0812C61.8865 69.0812 60.552 70.4157 60.552 72.062C60.552 72.7777 60.804 73.4345 61.2245 73.9482L52.494 87.3482C52.0622 87.1047 51.5637 86.966 51.0325 86.966C50.0937 86.966 49.2565 87.4 48.71 88.0782L31.159 73.0345ZM62.8597 84.8505H71.8982V127.158H62.8597V84.8505ZM51.129 100.043H60.1672V127.158H51.129V100.043ZM48.4367 94.6582H39.3982V127.158H48.4367V94.6582ZM27.6672 89.2737H36.7057V127.158H27.6672V89.2737Z" fill="#68D8E2"/>
<path d="M187.337 69.3111C187.075 62.8638 185.338 56.5626 182.261 50.8914C179.183 45.2201 174.846 40.3299 169.583 36.5966C164.321 32.8631 158.272 30.3861 151.902 29.3553C145.533 28.3248 139.011 28.7681 132.84 30.6514L139.186 51.4489C142.179 50.5356 145.341 50.3206 148.429 50.8204C151.518 51.3201 154.45 52.5214 157.002 54.3316C159.554 56.1416 161.657 58.5128 163.149 61.2626C164.641 64.0126 165.483 67.0678 165.61 70.1938L187.337 69.3111Z" fill="white" fill-opacity="0.33"/>
<path d="M132.844 30.6499C124.666 33.1444 117.439 38.0629 112.119 44.7549C106.798 51.4467 103.635 59.5964 103.048 68.1256C102.461 76.6546 104.477 85.1609 108.831 92.5189C113.184 99.8769 119.669 105.739 127.427 109.331L136.562 89.5984C132.8 87.8569 129.656 85.0144 127.545 81.4466C125.434 77.8791 124.456 73.7544 124.741 69.6189C125.026 65.4834 126.559 61.5319 129.139 58.2872C131.719 55.0424 135.223 52.6574 139.188 51.4479L132.844 30.6499Z" fill="white" fill-opacity="0.58"/>
<path d="M127.439 109.337C136.661 113.602 147.112 114.398 156.873 111.578L150.839 90.6881C146.106 92.0551 141.039 91.6693 136.568 89.6011L127.439 109.337Z" fill="white" fill-opacity="0.44"/>
<path fill-rule="evenodd" clip-rule="evenodd" d="M94.8285 70.2572L87.306 82.1347L63.3588 72.4212L50.872 91.5872L28.6035 72.4999L17.1863 85.4144L10.3588 93.1074L9.63965 92.4692L16.4666 84.7769L28.5103 71.1537L50.665 90.1434L62.9858 71.2324L86.9233 80.9419L94.016 69.7427L94.8285 70.2572Z" fill="white" fill-opacity="0.19"/>
<path d="M31.7301 76.1534C31.7301 77.7994 30.3956 79.1341 28.7493 79.1341C27.1031 79.1341 25.7686 77.7994 25.7686 76.1534C25.7686 74.5071 27.1031 73.1724 28.7493 73.1724C30.3956 73.1724 31.7301 74.5071 31.7301 76.1534Z" fill="black" fill-opacity="0.01"/>
<path d="M54.4234 94.0381C54.4234 95.6844 53.0889 97.0189 51.4427 97.0189C49.7964 97.0189 48.4619 95.6844 48.4619 94.0381C48.4619 92.3919 49.7964 91.0571 51.4427 91.0571C53.0889 91.0571 54.4234 92.3919 54.4234 94.0381Z" fill="black" fill-opacity="0.01"/>
<path d="M66.9234 76.1534C66.9234 77.7994 65.5889 79.1341 63.9427 79.1341C62.2964 79.1341 60.9619 77.7994 60.9619 76.1534C60.9619 74.5071 62.2964 73.1724 63.9427 73.1724C65.5889 73.1724 66.9234 74.5071 66.9234 76.1534Z" fill="black" fill-opacity="0.01"/>
<path d="M90.7694 84.615C90.7694 86.2613 89.4346 87.5958 87.7886 87.5958C86.1424 87.5958 84.8076 86.2613 84.8076 84.615C84.8076 82.9688 86.1424 81.6343 87.7886 81.6343C89.4346 81.6343 90.7694 82.9688 90.7694 84.615Z" fill="black" fill-opacity="0.01"/>
</svg>
