<svg viewBox="0 0 106 72" fill="none" xmlns="http://www.w3.org/2000/svg" class="advantages-name"><path data-v-f9cc6628="" d="M29.938 49.151v-5.304H18.396c7.34-5.346 11.33-9.547 11.33-14.385 0-5.643-4.795-9.038-10.82-9.038-3.947 0-8.148 1.443-10.906 4.625l3.437 3.99c1.91-1.995 4.37-3.268 7.595-3.268 2.334 0 4.583 1.23 4.583 3.691 0 3.48-3.394 6.408-14.979 14.98v4.71h21.302z" fill="url(#section2-icon-1_svg__paint0_linear)"></path><path data-v-f9cc6628="" d="M54.405 49.151v-5.855h3.65v-5.304h-3.65V20.849h-8.317L34.843 38.543v4.753H48.38v5.855h6.026zm-6.026-11.16h-7.637l7.638-11.796v11.797z" fill="url(#section2-icon-1_svg__paint1_linear)"></path><path data-v-f9cc6628="" d="M64.703 50l10.056-30h-3.904L60.8 50h3.904z" fill="url(#section2-icon-1_svg__paint2_linear)"></path><path data-v-f9cc6628="" d="M88.215 49.151L98.738 25.05v-4.2H77.479v5.304h14.258L81.595 49.15h6.62z" fill="url(#section2-icon-1_svg__paint3_linear)"></path><defs data-v-f9cc6628=""><linearGradient data-v-f9cc6628="" id="section2-icon-1_svg__paint0_linear" x1="8" y1="35" x2="98.738" y2="35" gradientUnits="userSpaceOnUse"><stop data-v-f9cc6628="" stop-color="#0082FA"></stop><stop data-v-f9cc6628="" offset="1" stop-color="#00F2FE"></stop></linearGradient><linearGradient data-v-f9cc6628="" id="section2-icon-1_svg__paint1_linear" x1="8" y1="35" x2="98.738" y2="35" gradientUnits="userSpaceOnUse"><stop data-v-f9cc6628="" stop-color="#0082FA"></stop><stop data-v-f9cc6628="" offset="1" stop-color="#00F2FE"></stop></linearGradient><linearGradient data-v-f9cc6628="" id="section2-icon-1_svg__paint2_linear" x1="8" y1="35" x2="98.738" y2="35" gradientUnits="userSpaceOnUse"><stop data-v-f9cc6628="" stop-color="#0082FA"></stop><stop data-v-f9cc6628="" offset="1" stop-color="#00F2FE"></stop></linearGradient><linearGradient data-v-f9cc6628="" id="section2-icon-1_svg__paint3_linear" x1="8" y1="35" x2="98.738" y2="35" gradientUnits="userSpaceOnUse"><stop data-v-f9cc6628="" stop-color="#0082FA"></stop><stop data-v-f9cc6628="" offset="1" stop-color="#00F2FE"></stop></linearGradient></defs></svg>
