<svg width="1728" height="1117" viewBox="0 0 1728 1117" fill="none" xmlns="http://www.w3.org/2000/svg">
    <circle cx="548.625" cy="558.178" r="80.1784" transform="rotate(-180 548.625 558.178)" fill="#3B70DA" />
    <path
        d="M556.256 602.289H536.983V580.298C536.983 557.257 555.729 538.512 578.769 538.512H586.446V557.785H578.769C566.356 557.785 556.256 567.885 556.256 580.298V602.289Z"
        fill="white" />
    <path
        d="M518.123 557.786H510.446V538.513H518.123C530.537 538.513 540.636 528.413 540.636 516H559.909C559.909 539.042 541.163 557.786 518.123 557.786Z"
        fill="white" />
    <g clip-path="url(#clip0_12_5962)">
        <path
            d="M1019.27 609.026H1005.4C1005.01 605.538 1004.61 602.074 1004.2 598.47C1004 598.666 1003.86 598.756 1003.78 598.877C999.519 605.287 993.38 608.77 985.946 610.065C967.846 613.227 951.181 601.653 947.582 583.402C945.725 573.995 946.157 564.739 950.328 555.955C955.162 545.786 963.213 539.562 974.291 537.574C982.9 536.028 991.066 537.343 998.159 542.799C1000.12 544.305 1001.63 546.373 1003.34 548.195C1003.61 548.486 1003.82 548.832 1004.2 549.36C1004.67 545.946 1005.1 542.779 1005.53 539.612C1005.6 539.085 1005.56 538.517 1006.39 538.522C1010.65 538.543 1014.91 538.533 1019.27 538.533V609.026H1019.27ZM1004.21 573.508C1004.1 572.479 1004 571.059 1003.79 569.653C1001.98 557.17 990.875 550.052 980.711 551.543C973.357 552.622 967.987 556.362 964.714 562.987C962.199 568.082 961.973 573.488 962.862 579.03C965.266 594.038 982.593 601.462 995.047 592.738C1001.56 588.18 1004.03 581.575 1004.21 573.503V573.508Z"
            fill="black" />
        <path
            d="M1183.27 574.01C1183.17 595.057 1167.28 610.692 1146.1 610.577C1125.09 610.462 1109.34 594.565 1109.46 573.588C1109.57 552.637 1125.6 536.901 1146.71 537.032C1167.55 537.157 1183.38 553.169 1183.27 574.01ZM1167.55 572.881C1167.24 571.29 1167 568.328 1166.08 565.597C1163.42 557.697 1157.93 552.753 1149.6 551.518C1141.76 550.353 1134.99 552.682 1130.03 559.047C1125.06 565.437 1124.17 572.815 1126.1 580.45C1130.38 597.336 1148.84 600.217 1159.18 592.08C1164.94 587.543 1167.29 581.359 1167.55 572.881Z"
            fill="black" />
        <path
            d="M1210.37 609.021H1194.67V538.628H1208.58C1209.02 542.071 1209.46 545.565 1209.93 549.289C1210.73 548.22 1211.38 547.281 1212.1 546.403C1216.39 541.167 1222.01 538.301 1228.62 537.338C1234.93 536.419 1240.97 537.363 1246.52 540.61C1253.17 544.505 1256.89 550.549 1258.46 557.923C1259.12 560.964 1259.47 564.127 1259.49 567.234C1259.6 580.821 1259.54 594.414 1259.54 608.007C1259.54 608.298 1259.51 608.584 1259.49 608.971H1243.62V607.329C1243.62 595.242 1243.64 583.16 1243.61 571.074C1243.61 567.811 1243.32 564.593 1242.24 561.451C1238.74 551.272 1227.37 548.892 1219.6 553.786C1213.06 557.912 1210.41 564.147 1210.38 571.646C1210.33 583.562 1210.37 595.483 1210.37 607.4V609.021Z"
            fill="black" />
        <path
            d="M850.58 609.031H836.681C836.235 605.513 835.793 602.014 835.316 598.214C834.839 598.897 834.508 599.389 834.157 599.871C828.163 608.123 819.866 611.305 809.978 610.391C797.284 609.217 789.031 600.297 786.968 587.879C786.507 585.093 786.351 582.222 786.341 579.391C786.276 566.3 786.311 553.21 786.311 540.119C786.311 539.632 786.311 539.145 786.311 538.593H802.248C802.248 539.125 802.248 539.612 802.248 540.099C802.248 552.396 802.248 564.689 802.248 576.987C802.248 580.395 802.639 583.723 803.879 586.935C807.463 596.232 818.335 598.666 825.779 593.857C832.139 589.751 834.794 583.638 834.844 576.284C834.91 565.492 834.864 554.705 834.864 543.913C834.864 542.167 834.864 540.42 834.864 538.603H850.58V609.031Z"
            fill="black" />
        <path d="M714.649 609.001H698.511V521.757H666.803V506.754H746.216V521.667H714.654V609.001H714.649Z"
            fill="black" />
        <path
            d="M873.299 551.648H859.601V538.542H873.228C873.228 535.982 873.228 533.568 873.228 531.154C873.234 525.341 874.488 519.875 877.861 515.041C881.375 510.002 886.324 507.211 892.303 506.187C896.559 505.459 900.801 505.715 904.997 506.664C905.368 506.749 905.93 507.211 905.935 507.502C905.996 511.512 905.976 515.518 905.976 519.709C905.398 519.659 904.922 519.564 904.45 519.584C901.83 519.719 899.149 519.569 896.614 520.101C892.262 521.014 889.522 524.453 889.155 529.211C888.924 532.238 889.11 535.3 889.11 538.507H908.807V551.588H889.06V608.981H873.289V551.648H873.299Z"
            fill="black" />
        <path
            d="M1039.55 551.638H1026.9V538.587H1039.36V515.011H1055.31V538.517H1075.86V551.603H1055.51C1055.44 551.959 1055.34 552.195 1055.34 552.431C1055.36 563.052 1055.37 573.674 1055.42 584.295C1055.43 586.79 1055.89 589.214 1057.27 591.352C1059.03 594.078 1061.78 595.182 1064.82 595.463C1067.68 595.729 1070.57 595.664 1073.46 595.744C1073.78 595.754 1074.11 595.744 1074.5 595.744V608.72C1071.39 609.563 1068.21 610.045 1064.94 610.09C1059.52 610.165 1054.37 609.071 1049.81 606.039C1043.99 602.174 1040.89 596.563 1039.93 589.736C1039.65 587.758 1039.58 585.736 1039.57 583.738C1039.53 573.618 1039.55 563.499 1039.55 553.375V551.623L1039.55 551.638Z"
            fill="black" />
        <path d="M919.017 506.693H934.642V608.965H919.017V506.693Z" fill="black" />
        <path
            d="M776.132 552.562C773.472 552.562 770.922 552.426 768.387 552.587C761.244 553.043 756.953 557.345 756.325 564.558C756.175 566.305 756.089 568.062 756.089 569.814C756.069 582.357 756.079 594.901 756.079 607.445C756.079 607.937 756.079 608.428 756.079 608.996H740.263C740.263 608.559 740.263 608.122 740.263 607.681C740.263 593.255 740.163 578.829 740.293 564.408C740.358 557.099 742.451 550.388 747.596 544.927C751.908 540.344 757.349 538.05 763.518 537.287C767.373 536.81 771.188 537.041 774.988 537.779C775.846 537.945 776.253 538.226 776.238 539.22C776.172 543.276 776.213 547.331 776.207 551.387C776.207 551.713 776.167 552.045 776.132 552.567V552.562Z"
            fill="black" />
        <path d="M1084.63 538.577H1100.23V608.986H1084.63V538.577Z" fill="black" />
        <path
            d="M1082.28 515.904C1082.25 510.307 1086.72 505.915 1092.45 505.905C1098.12 505.895 1102.59 510.423 1102.56 516.14C1102.53 521.475 1098.03 525.883 1092.54 525.953C1086.83 526.028 1082.32 521.601 1082.28 515.904Z"
            fill="black" />
    </g>
    <defs>
        <clipPath id="clip0_12_5962">
            <rect width="592.751" height="104.817" fill="white" transform="translate(666.803 505.77)" />
        </clipPath>
    </defs>
</svg>