<svg width="24" height="24" viewBox="0 0 24 24" fill="none" xmlns="http://www.w3.org/2000/svg">
<path fill-rule="evenodd" clip-rule="evenodd" d="M12 0C12.4142 0 12.75 0.335786 12.75 0.75V1.52036C18.9375 1.85713 24 6.3313 24 12C24 12 24 12.75 23.25 12.75C23.0269 12.75 22.7217 12.5324 22.7217 12.5324L22.7154 12.5263C22.7084 12.5196 22.696 12.508 22.6784 12.4921C22.6432 12.4603 22.5872 12.4115 22.5119 12.3513C22.361 12.2305 22.1353 12.0661 21.8466 11.9012C21.2662 11.5695 20.4572 11.25 19.5 11.25C18.5428 11.25 17.7338 11.5695 17.1534 11.9012C16.8647 12.0661 16.639 12.2305 16.4881 12.3513C16.4128 12.4115 16.3568 12.4603 16.3216 12.4921C16.304 12.508 16.2916 12.5196 16.2846 12.5263L16.279 12.5316C16.279 12.5316 15.9735 12.75 15.75 12.75C15.5269 12.75 15.2217 12.5324 15.2217 12.5324L15.2154 12.5263C15.2084 12.5196 15.196 12.508 15.1784 12.4921C15.1432 12.4603 15.0872 12.4115 15.0119 12.3513C14.861 12.2305 14.6353 12.0661 14.3466 11.9012C13.9248 11.6602 13.3823 11.4256 12.75 11.3153V20.25H12C12.75 20.25 12.75 20.25 12.75 20.25L12.75 20.2516L12.75 20.2535L12.75 20.2581L12.7498 20.2707L12.7489 20.3087C12.7478 20.3395 12.7459 20.3812 12.7422 20.4323C12.735 20.5343 12.7207 20.6751 12.6929 20.842C12.6379 21.1724 12.5263 21.6244 12.2958 22.0854C12.0638 22.5494 11.7041 23.0362 11.1504 23.4053C10.592 23.7775 9.88124 24 9 24C8.11876 24 7.40797 23.7775 6.8496 23.4053C6.29592 23.0362 5.93617 22.5494 5.70418 22.0854C5.47366 21.6244 5.36214 21.1724 5.30708 20.842C5.27925 20.6751 5.26505 20.5343 5.25777 20.4323C5.25411 20.3812 5.25218 20.3395 5.25115 20.3087L5.25019 20.2707L5.25004 20.2581L5.25001 20.2535L5.25 20.2516C5.25 20.2516 5.25 20.25 6 20.25H5.25V19.5C5.25 19.0858 5.58579 18.75 6 18.75C6.41421 18.75 6.75 19.0858 6.75 19.5V20.2467L6.75032 20.2587C6.75075 20.2718 6.75175 20.2946 6.75395 20.3255C6.75839 20.3876 6.76762 20.4812 6.78667 20.5955C6.82536 20.8276 6.90134 21.1256 7.04582 21.4146C7.18883 21.7006 7.39158 21.9638 7.68165 22.1572C7.96703 22.3475 8.38124 22.5 9 22.5C9.61876 22.5 10.033 22.3475 10.3183 22.1572C10.6084 21.9638 10.8112 21.7006 10.9542 21.4146C11.0987 21.1256 11.1746 20.8276 11.2133 20.5955C11.2324 20.4812 11.2416 20.3876 11.246 20.3255C11.2483 20.2946 11.2492 20.2718 11.2497 20.2587L11.25 20.2467V11.3153C10.6177 11.4256 10.0752 11.6602 9.65335 11.9012C9.36469 12.0661 9.13901 12.2305 8.98805 12.3513C8.91281 12.4115 8.85682 12.4603 8.82156 12.4921C8.80396 12.508 8.79158 12.5196 8.78464 12.5263L8.77849 12.5322C8.77849 12.5322 8.47324 12.75 8.25 12.75C8.02687 12.75 7.72172 12.5324 7.72172 12.5324L7.71536 12.5263C7.70842 12.5196 7.69604 12.508 7.67844 12.4921C7.64318 12.4603 7.58719 12.4115 7.51195 12.3513C7.36099 12.2305 7.13531 12.0661 6.84665 11.9012C6.2662 11.5695 5.45717 11.25 4.5 11.25C3.54283 11.25 2.7338 11.5695 2.15335 11.9012C1.86469 12.0661 1.63901 12.2305 1.48805 12.3513C1.4128 12.4115 1.35682 12.4603 1.32156 12.4921C1.30396 12.508 1.29158 12.5196 1.28464 12.5263L1.2785 12.5322C1.2785 12.5322 0.973237 12.75 0.75 12.75C0 12.75 0 12 0 12C0 6.3313 5.06252 1.85713 11.25 1.52036V0.75C11.25 0.335786 11.5858 0 12 0Z" fill="black"/>
</svg>
