<svg width="128" height="96" viewBox="0 0 128 96" fill="none" xmlns="http://www.w3.org/2000/svg">
<path d="M103.084 94.3996H31.9986C27.7039 94.3996 24.2212 90.9169 24.2212 86.6222V15.5343C24.2212 11.2396 27.7039 7.75684 31.9986 7.75684H103.084C107.378 7.75684 110.861 11.2396 110.861 15.5343V86.6193C110.861 90.9169 107.378 94.3996 103.084 94.3996Z" fill="#85B3D0"/>
<path d="M97.1482 88.2423H23.7347C20.0808 88.2423 17.12 85.2815 17.12 81.6278V8.21425C17.12 4.56039 20.0808 1.59961 23.7347 1.59961H97.1482C100.802 1.59961 103.763 4.56039 103.763 8.21425V81.6278C103.76 85.2815 100.799 88.2423 97.1482 88.2423Z" stroke="#78C1EE" stroke-width="0.917496" stroke-miterlimit="10"/>
<path fill-rule="evenodd" clip-rule="evenodd" d="M55.5163 17.0449C55.0832 17.0351 54.6429 17.1772 54.1794 17.6115C53.7152 18.0462 53.5888 18.4332 53.5959 18.7844C53.604 19.1791 53.7853 19.6799 54.2223 20.2895C55.1039 21.5193 56.7706 22.8425 58.7087 24.087C60.6211 25.3151 62.6986 26.4049 64.3061 27.1905C64.3815 27.2273 64.4559 27.2635 64.529 27.299C64.5075 27.2595 64.4859 27.2196 64.464 27.1796C63.6386 25.6643 62.493 23.7063 61.2 21.9028C59.8917 20.0779 58.4957 18.5019 57.1874 17.6617C56.54 17.246 55.9827 17.0555 55.5163 17.0449ZM66.6459 29.3262C67.5133 28.9179 67.5133 28.9177 67.5131 28.9174L67.5114 28.9135L67.5064 28.9031L67.4877 28.8639C67.4715 28.83 67.4477 28.7804 67.4167 28.7164C67.3546 28.5884 67.2635 28.4027 67.1463 28.1687C66.9117 27.7011 66.5717 27.0399 66.1479 26.2622C65.3023 24.7103 64.1146 22.6774 62.7584 20.7857C61.4178 18.9155 59.849 17.0921 58.2234 16.0483C57.4037 15.5219 56.5018 15.1492 55.5599 15.1279C54.5848 15.1059 53.6679 15.4631 52.8683 16.2121C52.0696 16.9604 51.6591 17.8487 51.6789 18.8235C51.6978 19.7547 52.1074 20.6305 52.6639 21.4067C53.769 22.9483 55.6986 24.4329 57.6725 25.7004C59.6719 26.9843 61.8221 28.1108 63.4642 28.9134C64.2871 29.3155 64.9866 29.6383 65.4813 29.8611C65.7287 29.9724 65.925 30.0588 66.0604 30.1177C66.1279 30.1471 66.1802 30.1697 66.216 30.1851L66.2571 30.2027L66.2682 30.2075L66.2722 30.2091C66.2723 30.2092 66.2727 30.2092 66.6459 29.3262ZM66.6459 29.3262L66.2727 30.2092L68.5802 31.1847L67.5133 28.9179L66.6459 29.3262Z" fill="#77A0BA"/>
<path fill-rule="evenodd" clip-rule="evenodd" d="M69.0048 27.5884C69.0473 27.574 69.0904 27.5596 69.1336 27.5448C70.7683 26.9916 72.8944 26.1991 74.8932 25.2349C76.9161 24.2592 78.7088 23.1543 79.7612 22.0096C80.2819 21.4432 80.5652 20.9269 80.6558 20.4695C80.7398 20.0445 80.6753 19.5864 80.3272 19.0554C79.9784 18.5237 79.6188 18.3327 79.2713 18.2794C78.8809 18.2196 78.3563 18.3124 77.6806 18.6383C76.3174 19.2957 74.7276 20.7106 73.1686 22.4061C71.6302 24.0794 70.1998 25.9389 69.1496 27.3877C69.1004 27.4556 69.0521 27.5224 69.0048 27.5884ZM66.6438 29.326L66.8972 30.2506L64.4806 30.9127L65.838 28.8066L66.6438 29.326ZM79.5617 16.384C80.5254 16.5317 81.3302 17.0887 81.9305 18.0039C82.5313 18.92 82.7259 19.8845 82.5367 20.8413C82.354 21.7656 81.8321 22.5903 81.1728 23.3074C79.8651 24.7296 77.7993 25.9621 75.7264 26.962C73.6296 27.9733 71.4227 28.7944 69.7483 29.3612C68.9092 29.6452 68.1995 29.8668 67.6983 30.0175C67.4476 30.093 67.2491 30.1508 67.1123 30.19C67.044 30.2096 66.991 30.2245 66.9547 30.2346L66.9129 30.2463L66.9017 30.2493L66.8977 30.2504C66.8974 30.2506 66.8972 30.2506 66.6438 29.326C65.838 28.8066 65.8382 28.8064 65.8383 28.8061L65.8472 28.7925L65.8715 28.7551C65.8927 28.7224 65.9239 28.6746 65.9646 28.6132C66.0459 28.49 66.1647 28.3114 66.3169 28.0868C66.6212 27.6376 67.0595 27.004 67.5971 26.2624C68.6697 24.7826 70.1488 22.8576 71.7571 21.1084C73.3449 19.3813 75.139 17.7354 76.8476 16.9112C77.708 16.4962 78.6411 16.2429 79.5617 16.384Z" fill="#77A0BA"/>
<path d="M81.4073 63.0978H51.8807C50.4627 63.0978 49.3143 61.9495 49.3143 60.5314V31.0047C49.3143 29.5868 50.4627 28.4385 51.8807 28.4385H81.4073C82.8254 28.4385 83.9737 29.5868 83.9737 31.0047V60.5314C83.9766 61.9495 82.8254 63.0978 81.4073 63.0978Z" fill="#77A0BA"/>
<path d="M69.4107 26.8174H63.8806V64.1447H69.4107V26.8174Z" fill="#C3D8E5"/>
<path d="M85.3082 48.5743V42.9629H47.9808V48.5743H85.3082Z" fill="#C3D8E5"/>
<path d="M88.3275 80.2598H44.9596C43.4054 80.2598 42.1469 79.1405 42.1469 77.7579V73.2851C42.1469 71.9026 43.4054 70.7832 44.9596 70.7832H88.3275C89.8819 70.7832 91.1404 71.9026 91.1404 73.2851V77.7579C91.1404 79.1405 89.879 80.2598 88.3275 80.2598Z" fill="#98CDEE"/>
</svg>
