<?xml version="1.0" encoding="utf-8"?>
<!-- Generator: Adobe Illustrator 26.3.1, SVG Export Plug-In . SVG Version: 6.00 Build 0)  -->
<svg version="1.1" id="Слой_1" xmlns="http://www.w3.org/2000/svg" xmlns:xlink="http://www.w3.org/1999/xlink" x="0px" y="0px"
	 viewBox="0 0 3200 2000" style="enable-background:new 0 0 3200 2000;" xml:space="preserve">
<style type="text/css">
	.st0{fill:#FFFFFF;}
	.st1{fill:#E5D7F9;}
	.st2{fill:#A4C8FC;}
	.st3{fill:#BEE3F4;}
	.st4{fill:#99CCED;}
	.st5{fill:#9BB8EA;}
	.st6{fill:#B4C9F7;}
	.st7{fill:#2E3552;}
	.st8{fill:#EA8E50;}
	.st9{fill:#1E3D70;}
	.st10{fill:#233862;}
	.st11{fill:#618DD8;}
	.st12{opacity:0.95;fill:#FFFFFF;enable-background:new    ;}
	.st13{fill:#541675;}
	.st14{fill:#441463;}
	.st15{fill:#FFB07B;}
	.st16{fill:#FFB93E;}
	.st17{fill:#FFA412;}
	.st18{fill:#E2810E;}
	.st19{fill:#FFB27D;}
	.st20{fill:#2B478B;}
	.st21{fill:#ED975D;}
	.st22{fill:#EBF3FF;}
	.st23{fill:#FFE3B3;}
	.st24{fill:#ED7D2B;}
	.st25{fill:#D2A5F9;}
	.st26{fill:#CFB1FC;}
	.st27{fill:#E3D2F9;}
	.st28{fill:#9C89FF;}
	.st29{fill:#7E38B7;}
	.st30{fill:#D2E3FC;}
	.st31{fill:#F99746;}
	.st32{fill:#2C3A64;}
	.st33{fill:#ED985F;}
	.st34{fill:#E53F51;}
	.st35{fill:#B23B38;}
	.st36{fill:#CC3A4F;}
	.st37{fill:#AFCDFB;}
	.st38{fill:#9187F4;}
</style>
<rect x="0" y="0" class="st0" width="3200" height="2000"/>
<g>
	<path class="st1" d="M373.2,1712.2c0,0-348.4-349.6-58.9-728c256.8-335.8,556.3-312.8,776-176.6c93.6,58,363.3,7.2,593-334.5
		c313.1-465.9,1398.5-183.3,1200.6,533.5c-95.8,346.9,291.5,359.5,94.2,706.3L373.2,1712.2z"/>
	<g>
		<g>
			<g>
				<path class="st2" d="M1926.8,1565.6c0-0.2,1.1-22.8-9.8-28l0.8-0.7c5,1.7,10.5,7.1,12.7,14.8c1.6,5.7,0.4,6.9,0.4,7.1
					L1926.8,1565.6z"/>
			</g>
			<g>
				<path class="st2" d="M1854.5,1507.1c0,0,3.7,29.1,21.4,37.6s42.7-6.8,42.7-6.8s-3.7-29.1-21.4-37.6
					C1879.5,1491.8,1854.5,1507.1,1854.5,1507.1z"/>
				<g>
					<path class="st2" d="M1925,1607.9c-0.2-1.1-4.1-27.7,5.9-57.3c9.7-28.5,4.3-52.6,4.3-52.8h7.1c0.2,1,0.7,24.7-6.9,57.2
						c-6.8,29.2,5.9,53,3.2,53H1925z"/>
				</g>
				<g>
					<path class="st2" d="M1939.9,1529.4c0-0.2,3.4-19.6,12.6-21.8l0,0c-4.1,0.5-9.3,3.5-12.2,8.9c-2.2,4-1.4,5.2-1.4,5.4
						L1939.9,1529.4z"/>
				</g>
			</g>
			<path class="st2" d="M1969.2,1531.4c-13.7-2.8-21.3-22.1-21.3-22.1s14.5-14.8,28.2-12.1c13.7,2.8,21.3,22.1,21.3,22.1
				S1982.9,1534.2,1969.2,1531.4z"/>
			<g>
				<path class="st3" d="M1863.1,1468.5c-21.7-33-12.6-77.4,20.4-99.2c33-21.7,77.4-12.6,99.2,20.4c21.7,33,12.6,77.4-20.4,99.1
					C1929.3,1510.6,1884.9,1501.5,1863.1,1468.5z"/>
				<g>
					<path class="st2" d="M1959.3,1484.3c-14.5,9.6-32,12.9-49,9.4c-17.1-3.5-31.7-13.5-41.3-28c-9.6-14.5-12.9-32-9.4-49
						c3.5-17.1,13.5-31.7,28-41.3c14.5-9.6,32-12.9,49-9.4s31.7,13.5,41.3,28c9.6,14.5,12.9,32,9.4,49
						C1983.8,1460,1973.8,1474.7,1959.3,1484.3z M1889.7,1378.6c-28.2,18.6-36.1,56.7-17.5,84.9c18.6,28.2,56.7,36.1,84.9,17.5
						c28.2-18.6,36.1-56.7,17.5-84.9C1956,1367.9,1917.9,1360,1889.7,1378.6z"/>
				</g>
			</g>
		</g>
		<polygon class="st4" points="1996.5,1601 1996.5,1601 1995.1,1623 1989.8,1704.4 1890.7,1704.4 1884.9,1624.1 1883.3,1602 
			1883.2,1601 		"/>
		<path class="st5" d="M1996.5,1601l-1.4,21.9c-7.5-2.6-28.2-8.8-55.2-8.8c-34.1,0-55,10-55,10l-1.6-22.1L1996.5,1601z"/>
		<polygon class="st6" points="1999.9,1612.6 1879.6,1612.6 1878.2,1598.6 2001.5,1598.6 		"/>
		<polygon class="st6" points="1991.3,1708.7 1888.6,1708.7 1887.4,1703.8 1992.6,1703.8 		"/>
	</g>
	<path class="st7" d="M3065.7,1715.8H191.2c-1.8,0-3.3-1.5-3.3-3.3v-1.1c0-1.8,1.5-3.3,3.3-3.3h2874.5c1.8,0,3.3,1.5,3.3,3.3v1.1
		C3069,1714.3,3067.5,1715.8,3065.7,1715.8z"/>
	<g>
		<g>
			<path class="st8" d="M2611.6,1184.5l-9.6,7.8c0,0-26.3-9.4-32.2,21.8c0,0-1.6,13.3,6.9,13.4c8.4,0,5-1.5,16.9-1.1
				c12,0.4,21.9-6,23.6-15.7l5.7-8.2L2611.6,1184.5z"/>
			<path class="st9" d="M2612.7,1201.3c-7.7-8-7.1-13.9-7.1-13.9s88.9-72.8,97.9-78.7c6.1-4,71.6-62.1,102.2-97.4
				c15.2-17.5,34-10.7,55.5-4.6l17.7,5.1c21.4,6.1,26.9,36,9.4,50.6c-49.4,40.9-131.6,87-147,96.6c-38.2,24-112.9,52.6-112.9,52.6
				S2619.3,1208.2,2612.7,1201.3z"/>
		</g>
		<path class="st10" d="M2511.3,1648.3c0,0-21.6,16.2-54.6,7.6c0,0-26.6-6.1-32.5,7.2c0,0,40.9,20.8,51.2,26.4
			c7.8,4.3,15.9,11,21.7,16.3c4.6,4.1,11.6,3.6,15.5-1.2c1.8-2.2,3.9-4.8,6.1-7.9c6.3-8.5,21-36.1,21-36.1L2511.3,1648.3z"/>
		<g>
			
				<ellipse transform="matrix(0.1351 -0.9908 0.9908 0.1351 1206.2299 3497.7673)" class="st11" cx="2606.6" cy="1058" rx="150.8" ry="150.8"/>
			
				<ellipse transform="matrix(0.7071 -0.7071 0.7071 0.7071 19.1889 2162.291)" class="st3" cx="2619.7" cy="1058" rx="150.8" ry="150.8"/>
			<g>
				<path class="st2" d="M2522.6,1156.9c-25.9-25.9-40.2-60.4-40.2-97.1c0-36.7,14.3-71.2,40.2-97.1c25.9-25.9,60.4-40.2,97.1-40.2
					c36.7,0,71.2,14.3,97.1,40.2c25.9,25.9,40.2,60.4,40.2,97.1c0,36.7-14.3,71.2-40.2,97.1c-25.9,25.9-60.4,40.2-97.1,40.2
					C2583,1197.1,2548.5,1182.8,2522.6,1156.9z M2490.5,1059.8c0,71.2,57.9,129.2,129.2,129.2c71.2,0,129.2-57.9,129.2-129.2
					c0-71.2-57.9-129.2-129.2-129.2C2548.5,930.6,2490.5,988.5,2490.5,1059.8z"/>
			</g>
		</g>
		<path class="st12" d="M2647.1,1154.9c-0.4-0.5-0.9-0.8-1.5-0.9c-11.5-2.4-22.6-6.7-32.8-12.5c-21-12.2-34.4-30.7-34.9-51.8
			c-0.1-8,1.5-16,4.9-23.3c2.1-4.8,13.6-21.8,15.5-24.9c7.8-12.3,5.3-11.5-5.7-26.8l-15.8-23.5l-10.7-15.6l0,0l0,0l0,0
			c-6.1,4.2-11.9,8.8-17.4,13.9c-39.6,39.7-39.5,104,0.2,143.6c6.6,6.6,14.1,12.3,22.3,16.8c-35.3-25.9-51.4-64.6-37.9-103.7
			c3.7-10.5,9.1-20.3,16-29l11.6,17.1c1.4,2,1.3,4.7-0.3,6.6c-5.5,6.8-9.9,14.5-12.8,22.8c-14.8,43,25.2,87.6,67.6,94.9
			c8.1,1.4,22.9,2.9,30.5,1c1.4-0.4,2.3-1.9,1.9-3.3C2647.6,1155.6,2647.4,1155.2,2647.1,1154.9z"/>
		<path class="st12" d="M2593.7,967.6c0.4,0.5,0.9,0.8,1.5,0.9c11.5,2.4,22.6,6.7,32.8,12.5c21,12.2,34.5,30.7,34.9,51.8
			c0.1,8-1.5,16-4.9,23.3c-2.1,4.8-13.6,21.9-15.5,24.9c-7.8,12.3-5.3,11.5,5.7,26.8l16,23.5l10.6,15.6l0,0l0,0l0,0
			c6.1-4.2,11.9-8.8,17.4-13.9c39.6-39.7,39.5-103.9-0.2-143.5c-6.6-6.6-14.1-12.2-22.3-16.8c35.2,25.7,51.3,64.6,37.8,103.7
			c-3.7,10.5-9.1,20.3-16,29l-11.6-17c-1.4-2-1.3-4.7,0.3-6.6c5.6-6.8,9.9-14.5,12.8-22.8c14.8-43-25.3-87.6-67.6-94.8
			c-8.1-1.5-22.9-3-30.5-1c-1.4,0.4-2.3,1.8-1.9,3.3C2593.1,966.9,2593.4,967.3,2593.7,967.6z"/>
		<path class="st13" d="M2498.6,1640.1c0,0,13.1,30.3,43.4,24.7c0,0,61.9-51.1,104.3-104.1c13.8-17.2,25.5-34.7,32.4-50.6
			c28.1-65.1,104.1-162.3,152.4-211.5l-120.8-43.7c0,0-38.7,77.8-90.2,173.4C2583.1,1497.1,2539.3,1575.2,2498.6,1640.1z"/>
		<path class="st14" d="M2620.2,1428.2l26.2,132.4c13.8-17.2,25.5-34.7,32.4-50.6c28.1-65.1,104.1-162.3,152.4-211.5l-120.8-43.7
			C2710.3,1254.7,2671.6,1332.6,2620.2,1428.2z"/>
		<path class="st10" d="M2718.9,1665.8c0,0,1.3,24.2-28,27.4c0,0-16.7,0.1-16.8,15.5l85.1,0.3c0,0,2.5-6.2,3.1-19.5
			c0.5-10.2-9.9-36.9-9.9-36.9L2718.9,1665.8z"/>
		<path class="st13" d="M2749.9,1254.7c0,0-53.8,59.1-88,165.7c-18.6,58,34.1,203.7,44.3,254.3c0,0,35.3,3,59.5-6.3
			c0,0,1.8-104.6-12.3-185.2c-7.9-45.1,70.9-96.5,105.3-178c23.4-55.5-5.1-54.5-40.1-55.8L2749.9,1254.7z"/>
		<path class="st15" d="M2812.1,990.9c29.9,16.9,91.2,1.3,91.2,1.3s-24.9-28.5-13.6-74.3l-23.5,11.9l-25.2,12.8
			c0,0-1.6,8.1-2.8,22.6c-0.3,3.7-0.5,7.9-0.7,12.5C2822.1,982.5,2812.1,990.9,2812.1,990.9z"/>
		<path class="st4" d="M2702.3,1251.7c0,5.3,6.1,7.8,7.3,8c12.1,2.2,45.8,15.3,76.2,18.3c25.6,2.7,49.3,0.1,75.4-5.1
			c3.5-0.7,11.6-2.9,12.1-6.2c0.7-3.6,100.6-203.7,23-289.6c-1.8-2-17.2,1.6-31.2,4.9c-12.9,3.1-24.8,1.4-35.4-2.9l-13.1,6.9
			c-16.1,9-46.7,41-50.3,66c-1.8,12.8-9.1,22.2-11.2,33.4c-0.8,4.2-1.6,8.2-2.4,12.2c-1.6,7.8-3.2,15.1-4.9,22.1
			c-4.6,19-9.4,35.3-14.1,49.4c-5,15-10,27.4-14.4,37.9c-5.7,13.5-10.6,23.6-13.6,31.4C2703.5,1244,2702.3,1248.2,2702.3,1251.7z"/>
		<path class="st2" d="M2705.6,1238.5c141-66.4,189.9-194,189.9-194s-114.6,42.3-142.8,53.3c-1.6,7.8-3.2,15.1-4.9,22.1
			c-4.6,19-9.4,35.3-14.1,49.4c-5,15-10,27.4-14.4,37.9C2713.5,1220.7,2708.7,1230.8,2705.6,1238.5z"/>
		<g>
			<path class="st15" d="M2623.1,1200l-12.2,4.5c0,0-24.4-17.3-39.6,10.8c0,0-5.5,12.3,3.2,14.9c8.7,2.7,5.5,0.2,17.8,4.2
				c12.2,4.1,24.3,1.1,28.9-7.6l8.3-6.1L2623.1,1200z"/>
			<path class="st4" d="M2613.1,1217.2c-4.5-11.8-6.6-17.1-6.6-17.1s92.1-75.1,101.5-81.5c6.4-4.4,70-52,101.1-89
				c15.4-18.4,39.7-26.8,63.1-21.9l19.3,4.1c23.3,4.9,30.9,34.4,12.8,50c-51,43.7-137,94.4-153,105
				c-39.8,26.2-127.9,62.9-127.9,62.9S2616.6,1226.5,2613.1,1217.2z"/>
		</g>
		<path class="st8" d="M2838.2,965.4c29.4,1.7,48.6-22.7,48.6-22.7s-13.3-7.4-20.6-12.8l-25.2,12.8
			C2841,942.7,2839.3,950.8,2838.2,965.4z"/>
		<path class="st15" d="M2825.6,935.1c0,0,44.6,32,64.1,3.9c19.5-28.1,38.4-42.9,10.7-64.5c-27.7-21.6-40.7-14.8-49.5-7
			C2842.2,875.4,2814.5,926.1,2825.6,935.1z"/>
		<path class="st10" d="M2846.3,842.2c1.6-10.8,5.2-18.4,5.2-18.4s2.8,11.6,24,10c21.2-1.6,54.8,2.1,66,26.2
			c0.7,1.5,1.3,3.1,1.9,4.7c2-5.4,2.5-13.4,2.5-13.4c4,10.4,0,23.4,0,23.4h0c0.1,0.4,0.1,0.8,0.2,1.1c4.7,4,8.6,16.2,8.6,16.2
			c-1.4-3.4-4.9-5.7-7.9-7c0.1,18.8-7.5,37.2-20.9,42.6c-19.6,8-19.4,1.9-39.1,14.9c0,0-5.3-6.5-1.7-10.9
			c3.6-4.4,17.2-10.8,9.6-17.2c-7.6-6.4-10.4,0.8-13.2-3.6c-2.8-4.4,11.2-17.2-6.8-29.2S2844.7,853,2846.3,842.2z"/>
	</g>
	<g>
		<g>
			<g>
				<g>
					<path class="st16" d="M925.5,1684.1v17.4c0,1.4-0.5,2.7-1.4,3.7c-0.9,1.1-2.2,2-3.8,2.5c-0.5,0.2-1,0.3-1.5,0.3
						c-0.5,0.1-0.9,0.1-1.4,0.1H587c-4.3,0-7.8-2.8-8-6.4c0-0.1,0-0.2,0-0.3v-17.4c0-0.1,0-0.2,0-0.3c0.2-3.5,3.7-6.4,8-6.4h330.5
						c0.5,0,1,0,1.4,0.1c0.5,0.1,1,0.2,1.5,0.3c1.5,0.5,2.8,1.4,3.8,2.5C925,1681.4,925.5,1682.7,925.5,1684.1z"/>
					<path class="st17" d="M763.2,1708.2H586.2c-3.8,0-6.9-2.8-7.1-6.4c0-0.1,0-0.2,0-0.3v-17.4c0-0.1,0-0.2,0-0.3
						c0.2-3.5,3.3-6.4,7.1-6.4h155.3C744,1686.4,749.8,1699,763.2,1708.2z"/>
					<g>
						<rect x="881.6" y="1677.4" class="st17" width="3.8" height="30.9"/>
						<rect x="868.9" y="1677.4" class="st17" width="3.8" height="30.9"/>
						<rect x="853.6" y="1677.4" class="st17" width="3.8" height="30.9"/>
						<rect x="830.2" y="1677.4" class="st17" width="3.8" height="30.9"/>
						<rect x="805.5" y="1677.4" class="st17" width="3.8" height="30.9"/>
						<rect x="767.6" y="1677.4" class="st17" width="3.8" height="30.9"/>
						<rect x="732.1" y="1677.4" class="st17" width="3.8" height="30.9"/>
						<rect x="700.5" y="1677.4" class="st17" width="3.8" height="30.9"/>
						<rect x="893.7" y="1677.4" class="st17" width="3.8" height="30.9"/>
						<rect x="901.7" y="1677.4" class="st17" width="3.8" height="30.9"/>
						<rect x="909.4" y="1677.4" class="st17" width="3.8" height="30.9"/>
						<path class="st17" d="M919,1677.5v30.6c-0.5,0.1-0.9,0.1-1.4,0.1h-2.3v-30.9h2.3C918,1677.4,918.5,1677.4,919,1677.5z"/>
						<path class="st17" d="M924.2,1680.3v24.9c-0.9,1.1-2.2,2-3.8,2.5v-30C922,1678.3,923.3,1679.2,924.2,1680.3z"/>
					</g>
				</g>
				<g>
					<path class="st16" d="M890.2,1653.2v17.4c0,1.4-0.5,2.7-1.4,3.7c-0.9,1.1-2.2,2-3.8,2.5c-0.5,0.2-1,0.3-1.5,0.3
						c-0.5,0.1-0.9,0.1-1.4,0.1H551.7c-4.3,0-7.8-2.8-8-6.4c0-0.1,0-0.2,0-0.3v-17.4c0-0.1,0-0.2,0-0.3c0.2-3.5,3.7-6.4,8-6.4h330.5
						c0.2,0,0.4,0,0.6,0c0.1,0,0.2,0,0.3,0c0.1,0,0.2,0,0.3,0c0.1,0,0.1,0,0.2,0c0.5,0.1,1,0.2,1.5,0.3c0.1,0,0.1,0,0.2,0.1
						c0.1,0,0.1,0,0.2,0.1c0.1,0.1,0.3,0.1,0.4,0.2c0.1,0,0.2,0.1,0.2,0.1c0.1,0,0.1,0.1,0.2,0.1c0.1,0.1,0.3,0.1,0.4,0.2
						c0.1,0.1,0.3,0.2,0.4,0.3c0.1,0.1,0.2,0.1,0.3,0.2c0,0,0,0,0,0c0.1,0,0.1,0.1,0.2,0.2c0.2,0.2,0.4,0.3,0.6,0.5
						c0.1,0.1,0.1,0.1,0.2,0.2c0.1,0.1,0.1,0.1,0.2,0.2c0.1,0.1,0.2,0.2,0.3,0.3C889.7,1650.5,890.2,1651.8,890.2,1653.2z"/>
					<path class="st17" d="M727.9,1677.4H550.8c-3.8,0-6.9-2.8-7.1-6.4c0-0.1,0-0.2,0-0.3v-17.4c0-0.1,0-0.2,0-0.3
						c0.2-3.5,3.3-6.4,7.1-6.4h155.3c0.1,0.3,0.1,0.5,0.2,0.8C709,1656.3,714.8,1668.4,727.9,1677.4z"/>
					<g>
						<rect x="846.2" y="1646.5" class="st17" width="3.8" height="30.9"/>
						<rect x="833.5" y="1646.5" class="st17" width="3.8" height="30.9"/>
						<rect x="818.3" y="1646.5" class="st17" width="3.8" height="30.9"/>
						<rect x="794.9" y="1646.5" class="st17" width="3.8" height="30.9"/>
						<rect x="770.2" y="1646.5" class="st17" width="3.8" height="30.9"/>
						<rect x="732.3" y="1646.5" class="st17" width="3.8" height="30.9"/>
						<rect x="696.8" y="1646.5" class="st17" width="3.8" height="30.9"/>
						<rect x="665.1" y="1646.5" class="st17" width="3.8" height="30.9"/>
						<rect x="858.3" y="1646.5" class="st17" width="3.8" height="30.9"/>
						<rect x="866.3" y="1646.5" class="st17" width="3.8" height="30.9"/>
						<rect x="874.1" y="1646.5" class="st17" width="3.8" height="30.9"/>
						<path class="st17" d="M883.6,1646.6v30.6c-0.5,0.1-0.9,0.1-1.4,0.1h-2.3v-30.9h2.3C882.7,1646.5,883.2,1646.5,883.6,1646.6z"
							/>
						<path class="st17" d="M888.8,1649.5v24.9c-0.9,1.1-2.2,2-3.8,2.5v-30C886.6,1647.5,887.9,1648.3,888.8,1649.5z"/>
					</g>
				</g>
				<g>
					<path class="st16" d="M907.3,1623.1v17.4c0,1.4-0.5,2.7-1.4,3.7c-0.9,1.1-2.2,2-3.8,2.5c-0.5,0.2-1,0.3-1.5,0.3
						c-0.5,0.1-0.9,0.1-1.4,0.1H568.8c-1.3,0-2.6-0.3-3.7-0.8c-2.3-1-4-3-4.3-5.3c0-0.1,0-0.2,0-0.3c0-0.1,0-0.2,0-0.3v-17.4
						c0-0.1,0-0.2,0-0.3c0.2-3.5,3.7-6.4,8-6.4h330.5c0.5,0,1,0,1.4,0.1c0.5,0.1,1,0.2,1.5,0.3c1.5,0.5,2.8,1.4,3.8,2.5
						C906.8,1620.5,907.3,1621.7,907.3,1623.1z"/>
					<path class="st17" d="M745,1647.3H567.9c-1.2,0-2.3-0.3-3.3-0.8c-2.1-1-3.6-3-3.8-5.3c0-0.1,0-0.2,0-0.3c0-0.1,0-0.2,0-0.3
						v-17.4c0-0.1,0-0.2,0-0.3c0.2-3.5,3.3-6.4,7.1-6.4h155.3c2.4,8.8,7.9,21,20.7,30.1C744.3,1646.8,744.6,1647,745,1647.3z"/>
					<g>
						<rect x="863.3" y="1616.4" class="st17" width="3.8" height="30.9"/>
						<rect x="850.6" y="1616.4" class="st17" width="3.8" height="30.9"/>
						<rect x="835.3" y="1616.4" class="st17" width="3.8" height="30.9"/>
						<rect x="812" y="1616.4" class="st17" width="3.8" height="30.9"/>
						<rect x="787.3" y="1616.4" class="st17" width="3.8" height="30.9"/>
						<rect x="749.4" y="1616.4" class="st17" width="3.8" height="30.9"/>
						<rect x="713.9" y="1616.4" class="st17" width="3.8" height="30.9"/>
						<rect x="682.2" y="1616.4" class="st17" width="3.8" height="30.9"/>
						<rect x="875.4" y="1616.4" class="st17" width="3.8" height="30.9"/>
						<rect x="883.4" y="1616.4" class="st17" width="3.8" height="30.9"/>
						<rect x="891.1" y="1616.4" class="st17" width="3.8" height="30.9"/>
						<path class="st17" d="M900.7,1616.5v30.6c-0.5,0.1-0.9,0.1-1.4,0.1h-2.3v-30.9h2.3C899.8,1616.4,900.2,1616.5,900.7,1616.5z"
							/>
						<path class="st17" d="M905.9,1619.4v24.9c-0.9,1.1-2.2,2-3.8,2.5v-30C903.7,1617.4,905,1618.3,905.9,1619.4z"/>
					</g>
				</g>
				<g>
					<path class="st16" d="M915.2,1592.3v17.4c0,1.4-0.5,2.7-1.4,3.7c-0.9,1.1-2.2,2-3.8,2.5c-0.5,0.2-1,0.3-1.5,0.3
						c-0.5,0.1-0.9,0.1-1.4,0.1H576.7c-4.3,0-7.8-2.8-8-6.4c0-0.1,0-0.2,0-0.3v-17.4c0-0.1,0-0.2,0-0.3c0.2-3.3,3.2-5.9,7-6.3
						c0.3,0,0.6,0,0.9,0h330.5c0.5,0,1,0,1.4,0.1c0.5,0.1,1,0.2,1.5,0.3c1.5,0.5,2.8,1.4,3.8,2.5
						C914.7,1589.6,915.2,1590.9,915.2,1592.3z"/>
					<path class="st17" d="M752.9,1616.4H575.8c-3.8,0-6.9-2.8-7.1-6.4c0-0.1,0-0.2,0-0.3v-17.4c0-0.1,0-0.2,0-0.3
						c0.2-3.3,2.9-5.9,6.3-6.3c0.3,0,0.6,0,0.8,0h155.3c0,0,0,0,0,0C733.7,1594.7,739.4,1607.2,752.9,1616.4z"/>
					<g>
						<rect x="871.2" y="1585.6" class="st17" width="3.8" height="30.9"/>
						<rect x="858.5" y="1585.6" class="st17" width="3.8" height="30.9"/>
						<rect x="843.3" y="1585.6" class="st17" width="3.8" height="30.9"/>
						<rect x="819.9" y="1585.6" class="st17" width="3.8" height="30.9"/>
						<rect x="795.2" y="1585.6" class="st17" width="3.8" height="30.9"/>
						<rect x="757.3" y="1585.6" class="st17" width="3.8" height="30.9"/>
						<rect x="721.8" y="1585.6" class="st17" width="3.8" height="30.9"/>
						<rect x="690.1" y="1585.6" class="st17" width="3.8" height="30.9"/>
						<rect x="883.3" y="1585.6" class="st17" width="3.8" height="30.9"/>
						<rect x="891.3" y="1585.6" class="st17" width="3.8" height="30.9"/>
						<rect x="899" y="1585.6" class="st17" width="3.8" height="30.9"/>
						<path class="st17" d="M908.6,1585.7v30.6c-0.5,0.1-0.9,0.1-1.4,0.1h-2.3v-30.9h2.3C907.7,1585.6,908.2,1585.6,908.6,1585.7z"
							/>
						<path class="st17" d="M913.8,1588.5v24.9c-0.9,1.1-2.2,2-3.8,2.5v-30C911.6,1586.5,912.9,1587.4,913.8,1588.5z"/>
					</g>
				</g>
				<g>
					<path class="st16" d="M890.9,1561.5v17.4c0,1.4-0.5,2.7-1.4,3.7c-0.9,1.1-2.2,2-3.8,2.5c-0.5,0.2-1,0.3-1.5,0.3
						c-0.2,0-0.3,0-0.5,0.1c-0.1,0-0.2,0-0.3,0c-0.1,0-0.2,0-0.3,0c-0.1,0-0.3,0-0.4,0H552.4c-4.3,0-7.8-2.8-8-6.4
						c0-0.1,0-0.2,0-0.3v-17.4c0-0.1,0-0.2,0-0.3c0-0.1,0-0.2,0-0.3c0.3-2.8,2.8-5.2,6-5.9c0.1,0,0.2,0,0.2,0
						c0.6-0.1,1.1-0.2,1.7-0.2h330.5c0.2,0,0.5,0,0.7,0c0.1,0,0.2,0,0.3,0h0c0.1,0,0.2,0,0.4,0.1c0.5,0.1,1,0.2,1.5,0.3
						c1.5,0.5,2.8,1.4,3.8,2.5C890.4,1558.8,890.9,1560.1,890.9,1561.5z"/>
					<path class="st17" d="M728.6,1585.6H551.5c-3.8,0-6.9-2.8-7.1-6.4c0-0.1,0-0.2,0-0.3v-17.4c0-0.1,0-0.2,0-0.3
						c0-0.1,0-0.2,0-0.3c0.3-2.9,2.6-5.3,5.5-5.9c0.1,0,0.2,0,0.3-0.1c0.4-0.1,0.8-0.1,1.3-0.1h155.3c0,0.1,0,0.1,0.1,0.2
						C709.4,1564,715.2,1576.4,728.6,1585.6C728.5,1585.6,728.6,1585.6,728.6,1585.6z"/>
					<g>
						<rect x="846.9" y="1554.8" class="st17" width="3.8" height="30.9"/>
						<rect x="834.2" y="1554.8" class="st17" width="3.8" height="30.9"/>
						<rect x="819" y="1554.8" class="st17" width="3.8" height="30.9"/>
						<rect x="795.6" y="1554.8" class="st17" width="3.8" height="30.9"/>
						<rect x="770.9" y="1554.8" class="st17" width="3.8" height="30.9"/>
						<rect x="733" y="1554.8" class="st17" width="3.8" height="30.9"/>
						<rect x="697.5" y="1554.8" class="st17" width="3.8" height="30.9"/>
						<rect x="665.8" y="1554.8" class="st17" width="3.8" height="30.9"/>
						<rect x="859" y="1554.8" class="st17" width="3.8" height="30.9"/>
						<rect x="867" y="1554.8" class="st17" width="3.8" height="30.9"/>
						<rect x="874.7" y="1554.8" class="st17" width="3.8" height="30.9"/>
						<path class="st17" d="M884.3,1554.9v30.6c-0.5,0.1-0.9,0.1-1.4,0.1h-2.3v-30.9h2.3C883.4,1554.8,883.9,1554.8,884.3,1554.9z"
							/>
						<path class="st17" d="M889.5,1557.7v24.9c-0.9,1.1-2.2,2-3.8,2.5v-29.9C887.3,1555.7,888.6,1556.6,889.5,1557.7z"/>
					</g>
				</g>
				<g>
					<path class="st16" d="M890.2,1530.8v17.4c0,1.4-0.5,2.7-1.4,3.7c-0.9,1.1-2.2,2-3.8,2.5c-0.4,0.1-0.8,0.2-1.1,0.3h0
						c-0.1,0-0.2,0-0.3,0.1c-0.5,0.1-0.9,0.1-1.4,0.1H551.7c-0.3,0-0.7,0-1-0.1c-0.1,0-0.3,0-0.4-0.1c-3.6-0.5-6.4-3.1-6.6-6.3
						c0-0.1,0-0.2,0-0.3v-17.4c0-0.1,0-0.2,0-0.3c0.2-3.5,3.7-6.4,8-6.4h330.5c0.2,0,0.4,0,0.6,0c0.1,0,0.2,0,0.3,0
						c0.1,0,0.2,0,0.3,0c0.1,0,0.1,0,0.2,0c0.5,0.1,1,0.2,1.5,0.3c0.1,0,0.1,0,0.2,0.1c0.1,0,0.1,0,0.2,0.1c0.1,0.1,0.3,0.1,0.4,0.2
						c0.1,0.1,0.3,0.1,0.4,0.2c0.1,0.1,0.3,0.1,0.4,0.2c0.1,0.1,0.3,0.2,0.4,0.3c0.1,0.1,0.2,0.1,0.3,0.2c0,0,0,0,0,0
						c0.1,0,0.1,0.1,0.2,0.2c0.2,0.2,0.4,0.3,0.6,0.5c0.1,0.1,0.1,0.1,0.2,0.2c0.1,0.1,0.1,0.1,0.2,0.2c0.1,0.1,0.2,0.2,0.3,0.3
						C889.7,1528.2,890.2,1529.4,890.2,1530.8z"/>
					<path class="st17" d="M727.9,1555H550.8c-0.1,0-0.3,0-0.4,0c-0.2,0-0.3,0-0.5,0c-3.4-0.4-6.1-3.1-6.3-6.3c0-0.1,0-0.2,0-0.3
						v-17.4c0-0.1,0-0.2,0-0.3c0.2-3.5,3.3-6.4,7.1-6.4h155.3c0.1,0.3,0.1,0.5,0.2,0.8c2.6,8.9,8.3,20.9,21.2,29.9
						C727.7,1554.8,727.8,1554.9,727.9,1555z"/>
					<g>
						<rect x="846.2" y="1524.1" class="st17" width="3.8" height="30.9"/>
						<rect x="833.5" y="1524.1" class="st17" width="3.8" height="30.9"/>
						<rect x="818.3" y="1524.1" class="st17" width="3.8" height="30.9"/>
						<rect x="794.9" y="1524.1" class="st17" width="3.8" height="30.9"/>
						<rect x="770.2" y="1524.1" class="st17" width="3.8" height="30.9"/>
						<rect x="732.3" y="1524.1" class="st17" width="3.8" height="30.9"/>
						<rect x="696.8" y="1524.1" class="st17" width="3.8" height="30.9"/>
						<rect x="665.1" y="1524.1" class="st17" width="3.8" height="30.9"/>
						<rect x="858.3" y="1524.1" class="st17" width="3.8" height="30.9"/>
						<rect x="866.3" y="1524.1" class="st17" width="3.8" height="30.9"/>
						<rect x="874.1" y="1524.1" class="st17" width="3.8" height="30.9"/>
						<path class="st17" d="M883.6,1524.2v30.6c-0.5,0.1-0.9,0.1-1.4,0.1h-2.3v-30.9h2.3C882.7,1524.1,883.2,1524.2,883.6,1524.2z"
							/>
						<path class="st17" d="M888.8,1527.1v24.9c-0.9,1.1-2.2,2-3.8,2.5v-30C886.6,1525.1,887.9,1526,888.8,1527.1z"/>
					</g>
				</g>
				<g>
					<path class="st16" d="M907.3,1500.7v17.4c0,1.4-0.5,2.7-1.4,3.7c-0.9,1.1-2.2,2-3.8,2.5c-0.5,0.2-1,0.3-1.5,0.3
						c-0.5,0.1-0.9,0.1-1.4,0.1H568.8c-1.3,0-2.6-0.3-3.7-0.8c-2.3-1-4-3-4.3-5.3c0-0.1,0-0.2,0-0.3c0-0.1,0-0.2,0-0.3v-17.4
						c0-0.1,0-0.2,0-0.3c0.2-3.5,3.7-6.4,8-6.4h330.5c0.5,0,1,0,1.4,0.1c0.5,0.1,1,0.2,1.5,0.3c1.5,0.5,2.8,1.4,3.8,2.5
						C906.8,1498.1,907.3,1499.3,907.3,1500.7z"/>
					<path class="st17" d="M745,1524.9H567.9c-1.2,0-2.3-0.3-3.3-0.8c-2.1-1-3.6-3-3.8-5.3c0-0.1,0-0.2,0-0.3c0-0.1,0-0.2,0-0.3
						v-17.4c0-0.1,0-0.2,0-0.3c0.2-3.5,3.3-6.4,7.1-6.4h155.3c2.4,8.8,7.9,21,20.7,30.1C744.3,1524.4,744.6,1524.6,745,1524.9z"/>
					<g>
						<rect x="863.3" y="1494" class="st17" width="3.8" height="30.9"/>
						<rect x="850.6" y="1494" class="st17" width="3.8" height="30.9"/>
						<rect x="835.3" y="1494" class="st17" width="3.8" height="30.9"/>
						<rect x="812" y="1494" class="st17" width="3.8" height="30.9"/>
						<rect x="787.3" y="1494" class="st17" width="3.8" height="30.9"/>
						<rect x="749.4" y="1494" class="st17" width="3.8" height="30.9"/>
						<rect x="713.9" y="1494" class="st17" width="3.8" height="30.9"/>
						<rect x="682.2" y="1494" class="st17" width="3.8" height="30.9"/>
						<rect x="875.4" y="1494" class="st17" width="3.8" height="30.9"/>
						<rect x="883.4" y="1494" class="st17" width="3.8" height="30.9"/>
						<rect x="891.1" y="1494" class="st17" width="3.8" height="30.9"/>
						<path class="st17" d="M900.7,1494.1v30.6c-0.5,0.1-0.9,0.1-1.4,0.1h-2.3V1494h2.3C899.8,1494,900.2,1494.1,900.7,1494.1z"/>
						<path class="st17" d="M905.9,1497v24.9c-0.9,1.1-2.2,2-3.8,2.5v-30C903.7,1495,905,1495.9,905.9,1497z"/>
					</g>
				</g>
				<g>
					<path class="st16" d="M934.3,1469.9v17.4c0,1.4-0.5,2.7-1.4,3.7c-0.9,1.1-2.2,2-3.8,2.5c-0.5,0.2-1,0.3-1.5,0.3
						c-0.5,0.1-0.9,0.1-1.4,0.1H595.8c-4.3,0-7.8-2.8-8-6.4c0-0.1,0-0.2,0-0.3v-17.4c0-0.1,0-0.2,0-0.3c0.2-3.3,3.2-5.9,7-6.3
						c0.3,0,0.6,0,0.9,0h330.5c0.5,0,1,0,1.4,0.1c0.5,0.1,1,0.2,1.5,0.3c1.5,0.5,2.8,1.4,3.8,2.5
						C933.8,1467.2,934.3,1468.5,934.3,1469.9z"/>
					<path class="st17" d="M772,1494H594.9c-3.8,0-6.9-2.8-7.1-6.4c0-0.1,0-0.2,0-0.3v-17.4c0-0.1,0-0.2,0-0.3
						c0.2-3.3,2.9-5.9,6.3-6.3c0.3,0,0.6,0,0.8,0h155.3c0,0,0,0,0,0C752.7,1472.3,758.5,1484.8,772,1494z"/>
					<g>
						<rect x="890.3" y="1463.2" class="st17" width="3.8" height="30.9"/>
						<rect x="877.6" y="1463.2" class="st17" width="3.8" height="30.9"/>
						<rect x="862.4" y="1463.2" class="st17" width="3.8" height="30.9"/>
						<rect x="839" y="1463.2" class="st17" width="3.8" height="30.9"/>
						<rect x="814.3" y="1463.2" class="st17" width="3.8" height="30.9"/>
						<rect x="776.4" y="1463.2" class="st17" width="3.8" height="30.9"/>
						<rect x="740.9" y="1463.2" class="st17" width="3.8" height="30.9"/>
						<rect x="709.2" y="1463.2" class="st17" width="3.8" height="30.9"/>
						<rect x="902.4" y="1463.2" class="st17" width="3.8" height="30.9"/>
						<rect x="910.4" y="1463.2" class="st17" width="3.8" height="30.9"/>
						<rect x="918.1" y="1463.2" class="st17" width="3.8" height="30.9"/>
						<path class="st17" d="M927.7,1463.3v30.6c-0.5,0.1-0.9,0.1-1.4,0.1h-2.3v-30.9h2.3C926.8,1463.2,927.2,1463.2,927.7,1463.3z"
							/>
						<path class="st17" d="M932.9,1466.1v24.9c-0.9,1.1-2.2,2-3.8,2.5v-30C930.7,1464.1,932,1465,932.9,1466.1z"/>
					</g>
				</g>
				<g>
					<path class="st16" d="M890.9,1439.1v17.4c0,1.4-0.5,2.7-1.4,3.7c-0.9,1.1-2.2,2-3.8,2.5c-0.5,0.2-1,0.3-1.5,0.3
						c-0.2,0-0.3,0-0.5,0.1c-0.1,0-0.2,0-0.4,0c-0.1,0-0.1,0-0.2,0c-0.1,0-0.3,0-0.4,0H552.4c-4.3,0-7.8-2.8-8-6.4
						c0-0.1,0-0.2,0-0.3v-17.4c0-0.1,0-0.2,0-0.3c0.2-3.5,3.7-6.4,8-6.4h330.5c0.1,0,0.3,0,0.4,0c0.3,0,0.7,0,1,0.1
						c0.5,0.1,1,0.2,1.5,0.3c0.2,0.1,0.5,0.2,0.7,0.3c0.1,0.1,0.3,0.1,0.4,0.2c0,0,0,0,0,0c0.1,0.1,0.3,0.1,0.4,0.2c0,0,0,0,0.1,0
						c0.1,0.1,0.2,0.1,0.4,0.2c0.3,0.2,0.5,0.4,0.8,0.6c0.1,0.1,0.2,0.1,0.2,0.2c0,0,0,0,0,0c0,0,0.1,0.1,0.1,0.1c0,0,0,0,0,0
						c0.1,0.1,0.2,0.2,0.2,0.2c0.1,0.1,0.2,0.2,0.3,0.4C890.4,1436.4,890.9,1437.7,890.9,1439.1z"/>
					<path class="st17" d="M728.6,1463.2H551.5c-3.8,0-6.9-2.8-7.1-6.4c0-0.1,0-0.2,0-0.3v-17.4c0-0.1,0-0.2,0-0.3
						c0.2-3.5,3.3-6.4,7.1-6.4h155.3c0.1,0.2,0.1,0.5,0.2,0.7C709.6,1442.1,715.4,1454.2,728.6,1463.2
						C728.5,1463.2,728.6,1463.2,728.6,1463.2z"/>
					<g>
						<rect x="846.9" y="1432.4" class="st17" width="3.8" height="30.9"/>
						<rect x="834.2" y="1432.4" class="st17" width="3.8" height="30.9"/>
						<rect x="819" y="1432.4" class="st17" width="3.8" height="30.9"/>
						<rect x="795.6" y="1432.4" class="st17" width="3.8" height="30.9"/>
						<rect x="770.9" y="1432.4" class="st17" width="3.8" height="30.9"/>
						<rect x="733" y="1432.4" class="st17" width="3.8" height="30.9"/>
						<rect x="697.5" y="1432.4" class="st17" width="3.8" height="30.9"/>
						<rect x="665.8" y="1432.4" class="st17" width="3.8" height="30.9"/>
						<rect x="859" y="1432.4" class="st17" width="3.8" height="30.9"/>
						<rect x="867" y="1432.4" class="st17" width="3.8" height="30.9"/>
						<rect x="874.7" y="1432.4" class="st17" width="3.8" height="30.9"/>
						<path class="st17" d="M884.3,1432.5v30.6c-0.5,0.1-0.9,0.1-1.4,0.1h-2.3v-30.9h2.3C883.4,1432.4,883.9,1432.4,884.3,1432.5z"
							/>
						<path class="st17" d="M889.5,1435.3v24.9c-0.9,1.1-2.2,2-3.8,2.5v-30C887.3,1433.3,888.6,1434.2,889.5,1435.3z"/>
					</g>
				</g>
				<g>
					<path class="st16" d="M915.2,1408.9v17.4c0,1.4-0.5,2.7-1.4,3.7c-0.9,1.1-2.2,2-3.8,2.5c-0.5,0.2-1,0.3-1.5,0.3
						c-0.5,0.1-0.9,0.1-1.4,0.1H576.7c-1.3,0-2.5-0.3-3.6-0.7c-2.4-1-4.1-3-4.4-5.4c0-0.1,0-0.2,0-0.3c0-0.1,0-0.2,0-0.3v-17.4
						c0-0.1,0-0.2,0-0.3c0.2-3.3,3.2-5.9,7-6.3c0.3,0,0.6,0,0.9,0h330.5c0.5,0,1,0,1.4,0.1c0.5,0.1,1,0.2,1.5,0.3
						c1.5,0.5,2.8,1.4,3.8,2.5C914.7,1406.3,915.2,1407.5,915.2,1408.9z"/>
					<path class="st17" d="M752.9,1433.1H575.8c-1.1,0-2.2-0.3-3.2-0.7c-2.2-1-3.7-3-3.9-5.4c0-0.1,0-0.2,0-0.3c0-0.1,0-0.2,0-0.3
						v-17.4c0-0.1,0-0.2,0-0.3c0.2-3.3,2.9-5.9,6.3-6.3c0.3,0,0.6,0,0.8,0h155.3c0,0,0,0,0,0c2.4,8.8,8,21,20.7,30.1
						C752.2,1432.6,752.6,1432.8,752.9,1433.1z"/>
					<g>
						<rect x="871.2" y="1402.2" class="st17" width="3.8" height="30.9"/>
						<rect x="858.5" y="1402.2" class="st17" width="3.8" height="30.9"/>
						<rect x="843.3" y="1402.2" class="st17" width="3.8" height="30.9"/>
						<rect x="819.9" y="1402.2" class="st17" width="3.8" height="30.9"/>
						<rect x="795.2" y="1402.2" class="st17" width="3.8" height="30.9"/>
						<rect x="757.3" y="1402.2" class="st17" width="3.8" height="30.9"/>
						<rect x="721.8" y="1402.2" class="st17" width="3.8" height="30.9"/>
						<rect x="690.1" y="1402.2" class="st17" width="3.8" height="30.9"/>
						<rect x="883.3" y="1402.2" class="st17" width="3.8" height="30.9"/>
						<rect x="891.3" y="1402.2" class="st17" width="3.8" height="30.9"/>
						<rect x="899" y="1402.2" class="st17" width="3.8" height="30.9"/>
						<path class="st17" d="M908.6,1402.3v30.6c-0.5,0.1-0.9,0.1-1.4,0.1h-2.3v-30.9h2.3C907.7,1402.2,908.2,1402.2,908.6,1402.3z"
							/>
						<path class="st17" d="M913.8,1405.2v24.9c-0.9,1.1-2.2,2-3.8,2.5v-29.9C911.6,1403.2,912.9,1404,913.8,1405.2z"/>
					</g>
				</g>
				<g>
					<path class="st16" d="M925.5,1378.1v17.4c0,1.4-0.5,2.7-1.4,3.7c-0.9,1.1-2.2,2-3.8,2.5c-0.5,0.2-1,0.3-1.5,0.3
						c-0.2,0-0.3,0-0.5,0.1c-0.1,0-0.2,0-0.3,0c-0.1,0-0.2,0-0.3,0c-0.1,0-0.3,0-0.4,0H587c-4.3,0-7.8-2.8-8-6.4c0-0.1,0-0.2,0-0.3
						v-17.4c0-0.1,0-0.2,0-0.3c0.2-3.5,3.7-6.4,8-6.4h330.5c0.5,0,1,0,1.4,0.1c0.5,0.1,1,0.2,1.5,0.3c1.5,0.5,2.8,1.4,3.8,2.5
						C925,1375.4,925.5,1376.7,925.5,1378.1z"/>
					<path class="st17" d="M763.2,1402.3H586.2c-3.8,0-6.9-2.8-7.1-6.4c0-0.1,0-0.2,0-0.3v-17.4c0-0.1,0-0.2,0-0.3
						c0.2-3.5,3.3-6.4,7.1-6.4h155.3C744,1380.5,749.7,1393,763.2,1402.3C763.2,1402.2,763.2,1402.2,763.2,1402.3z"/>
					<g>
						<rect x="881.6" y="1371.4" class="st17" width="3.8" height="30.9"/>
						<rect x="868.9" y="1371.4" class="st17" width="3.8" height="30.9"/>
						<rect x="853.6" y="1371.4" class="st17" width="3.8" height="30.9"/>
						<rect x="830.2" y="1371.4" class="st17" width="3.8" height="30.9"/>
						<rect x="805.5" y="1371.4" class="st17" width="3.8" height="30.9"/>
						<rect x="767.6" y="1371.4" class="st17" width="3.8" height="30.9"/>
						<rect x="732.1" y="1371.4" class="st17" width="3.8" height="30.9"/>
						<rect x="700.5" y="1371.4" class="st17" width="3.8" height="30.9"/>
						<rect x="893.7" y="1371.4" class="st17" width="3.8" height="30.9"/>
						<rect x="901.7" y="1371.4" class="st17" width="3.8" height="30.9"/>
						<rect x="909.4" y="1371.4" class="st17" width="3.8" height="30.9"/>
						<path class="st17" d="M919,1371.5v30.6c-0.5,0.1-0.9,0.1-1.4,0.1h-2.3v-30.9h2.3C918,1371.4,918.5,1371.4,919,1371.5z"/>
						<path class="st17" d="M924.2,1374.4v24.9c-0.9,1.1-2.2,2-3.8,2.5v-30C922,1372.4,923.3,1373.2,924.2,1374.4z"/>
					</g>
				</g>
			</g>
			<g>
				
					<ellipse transform="matrix(0.7071 -0.7071 0.7071 0.7071 -932.8946 850.2263)" class="st18" cx="559.9" cy="1551.2" rx="157.1" ry="157.1"/>
				
					<ellipse transform="matrix(0.7071 -0.7071 0.7071 0.7071 -936.9083 840.5365)" class="st3" cx="546.2" cy="1551.2" rx="157.1" ry="157.1"/>
				<g>
					<path class="st2" d="M546.2,1696.2c-38.2,0-74.2-14.9-101.2-41.9c-27-27-41.9-63-41.9-101.2s14.9-74.2,41.9-101.2
						c27-27,63-41.9,101.2-41.9c38.2,0,74.2,14.9,101.2,41.9c27,27,41.9,63,41.9,101.2s-14.9,74.2-41.9,101.2
						C620.3,1681.3,584.4,1696.2,546.2,1696.2z M546.2,1418.5c-74.2,0-134.6,60.4-134.6,134.6c0,74.2,60.4,134.6,134.6,134.6
						s134.6-60.4,134.6-134.6C680.7,1478.9,620.4,1418.5,546.2,1418.5z"/>
				</g>
			</g>
		</g>
		<g>
			<path class="st10" d="M835,1335.5c-16.1,28-36.3,38.8-36.3,38.8h-84.2C714.5,1374.3,847.3,1314.2,835,1335.5z"/>
			<g>
				<path class="st19" d="M770.4,1552.1c-2.2,2.5-2.5,5.3-1.4,8.3c0,0,0,0,0,0c2,5.5,8.6,11.7,16.3,17.9c1,0.8,1.9,1.5,2.6,2.2
					c0.2,0.2,0.4,0.4,0.6,0.5c0.2,0.1,0.3,0.3,0.5,0.4c7.2,6.6,4.5,8.1,17.4,21.6c14.7,15.3,24.8,15.6,27.7,14.2
					c2.4-1.2-2.5-9.3-8-18.4c-0.3-0.4-0.5-0.9-0.8-1.3c-0.7-1.2-1.5-2.4-2.2-3.7c-6.4-11-4.8-16.1-3.3-32.5
					c1.2-13.3,20.7-74.2,20.7-74.2l-28.2-4.9c0,0-8.5,48.5-17.8,56c-5,4-10.6,4-15.4,7c-0.3,0.2-0.7,0.4-1,0.6
					C775.4,1547.7,772.6,1549.6,770.4,1552.1z"/>
				<path class="st10" d="M770.4,1552.1c-2.2,2.5-2.5,5.3-1.4,8.3c0,0,0,0,0,0c2.5,5.5,8.9,11.7,16.4,17.9c1,0.8,1.8,1.5,2.6,2.2
					c0.2,0.2,0.4,0.4,0.6,0.5c0.2,0.1,0.3,0.3,0.5,0.4c7.2,6.6,4.5,8.1,17.4,21.6c14.7,15.3,24.8,15.6,27.7,14.2
					c2.4-1.2-2.5-9.3-8-18.4c-2.9-1-16.2-6.5-26.2-19.3c-8.9-11.3-14.8-25.8-20.8-34.2c-0.3,0.2-0.7,0.4-1,0.6
					C775.4,1547.7,772.6,1549.6,770.4,1552.1z"/>
				<path class="st19" d="M997.8,1534.5c1.7,8.7,14.1,7.3,28,3.9c13.9-3.4,10.6,0.6,30.3-1.5s25.7-9.5,26.3-12.5
					c0.5-2.6-9.2-3.5-19.7-4.7c-1.3-0.1-2.6-0.3-4-0.5c-11.8-1.5-20.5-9.1-31.2-15.4c-10.2-5.9-25.3-30.1-25.3-30.1l-27.1,2.1
					c0,0,14.2,21.6,19.7,30.9c3.2,5.5,3.1,12.8,2.7,18.4C997.3,1528.3,997.1,1531.4,997.8,1534.5z"/>
				<path class="st10" d="M1025.8,1538.4c13.9-3.4,10.6,0.6,30.3-1.5s25.7-9.5,26.3-12.5c0.5-2.6-9.2-3.5-19.7-4.7l-0.1,0.2
					c0,0-11.8,8.4-28.3,8.8c-13.4,0.3-27.6-3.5-36.8-3.4c-0.2,3.1-0.4,6.2,0.2,9.3C999.5,1543.2,1011.9,1541.8,1025.8,1538.4z"/>
				<path class="st10" d="M894.1,1361.5l-25.3,68.1l-33,88.9c0,0-9,0.9-17.5-1.6c-7.9-2.3-17-8.3-17-8.3s9.2-95.4,26.3-150.2
					c4.4-14.1,9.3-25.4,14.7-31.8C868.8,1295.2,894.1,1361.5,894.1,1361.5z"/>
				<path class="st20" d="M868.4,1253.4c-16.6-5.3-63.8,1.5-111.3,10.8l-9.9-16.4l-102.5-8c0,0-33.8,75-15.3,122.9
					c2.7,7,9.5,10,18.7,10.1c0,0,0,0,0,0c0,0,61.2,1.5,81,1.5c51,0,107.9-35.1,115.3-36.5c12.1-2.4,16.9,21.7,28.9,47
					c12.1,25.3,113.3,112.1,113.3,112.1s15.6,0.2,22-2.3c6.9-2.6,9.4-6,9.4-6S905.7,1265.5,868.4,1253.4z"/>
				<path class="st10" d="M736.2,946.7c-7.7-4.6-15.2-5.2-19.7-5.1c-3.3,0.1-6.5-0.2-9.8-0.6c-38.9-5.2-62.2,51.2-63.6,68.4
					c-2.5,31.5-19.2,36.3-42.7,56.1c-47.1,39.6-33.3,85.6-7.5,102.7c15.4,10.3,42.7,0,42.7,0c0.4,0.3,74.5-41.4,111-61.5
					C801.2,1098.8,758.2,959.8,736.2,946.7z"/>
				<path class="st19" d="M715.9,1089.5c0.2,0.1-18,6.3-30.1,0.9c-11.4-5-20-23.8-19.9-23.8c5.2-0.2,10.9-4.8,15.3-34.5l2.2,0.8
					l37.1,13.4c0,0-2.7,11.9-4.4,23.3C714.7,1079,713.9,1088.2,715.9,1089.5z"/>
				<path class="st21" d="M720.6,1046.2c0,0-2.7,11.9-4.4,23.3c-21.3-3.8-29.7-25.1-32.7-36.6L720.6,1046.2z"/>
				<path class="st19" d="M726.1,1058.1c0,0-50.8-6.8-46.1-38.4c4.7-31.6,1.4-53.7,34-50.7c32.6,3,37.1,16,38.1,26.9
					S739.4,1059,726.1,1058.1z"/>
				<path class="st10" d="M750.3,978.6c0,0-32.5,28-54.7,30.3c-22.1,2.3-30.5-4.8-30.5-4.8s13-10.8,20.9-28.3
					c2.3-5.2,7.2-8.7,12.8-9.2C714.6,965.2,744.6,964.6,750.3,978.6z"/>
				<path class="st10" d="M729.9,976.1c0,0,10.9,10.5,14.3,18.3c3.3,7.5,4.3,25.5,1.7,32.7c0,0,17-33,7.4-49
					C743.1,961.1,729.9,976.1,729.9,976.1z"/>
				<path class="st0" d="M758.7,1164.4c-1.5,102.9-0.4,81.4-11.7,91.1c-2.7,2.3-10.3,3.8-20.4,4.4c-31.5,2.1-87-3.1-89.1-8.9
					c-7.3-20.2-2.1-26.4-8.2-57.3c-0.6-3.3-1.4-6.8-2.3-10.7c-5.1-21.2-10-28.4,8-62.5c16.3-30.9,33.2-55.9,34.7-55
					c43,25.5,46.4,4.1,46.4,4.1S759.4,1114.2,758.7,1164.4z"/>
				<path class="st20" d="M868.8,1429.6l-33,88.9c0,0-9,0.9-17.5-1.6c-7.9-2.3-17-8.3-17-8.3s9.2-95.4,26.3-150.2L868.8,1429.6z"/>
				<path class="st0" d="M716.1,1069.5c0,0,44.2,7.5,49.4,26.5c5.2,19,35.7,130.9,35.7,130.9s-22.5,4-32.9-6.3
					c-10.4-10.4-36.1-96.3-36.1-96.3L716.1,1069.5z"/>
				<path class="st22" d="M726.6,1259.9c-31.5,2.1-87-3.1-89.1-8.9c-7.3-20.2-2.1-26.4-8.2-57.3l15.2-42.8c0,0-2.5,47.7,11.6,60.2
					c14.1,12.5,57.6,24.2,64.4,34.7C723.8,1250.8,726,1255.8,726.6,1259.9z"/>
				<path class="st19" d="M690.5,1239.8c0,0,31.1-6.9,36.1-4.2c5,2.8,17.3,12.8,18.8,16.3c1.5,3.5-11.2-2.7-15.3-3.8
					c-2.7-0.7-9.7,1.7-13.2,2.9c-14.7,4.9-23.7,2.4-23.7,2.4L690.5,1239.8z"/>
				<path class="st0" d="M669.7,1065.4c0,0-41.8,2.6-56.2,22.7c-20.4,28.4-60.7,149.4-37.6,165.6c26.1,18.2,118.6,4.8,118.6,4.8
					s3.1-14.4-1.2-21.4c-4.3-7-73.9-18.2-77.2-21.4c-3.2-3.2,40.2-62.7,40.2-72.3S669.7,1065.4,669.7,1065.4z"/>
				<path class="st19" d="M728.2,1244.3c0,0,6.5,8.4,8.7,9.4s3.5,0.8,3.5,0.8l-4.4-7.9L728.2,1244.3z"/>
				<path class="st19" d="M726.6,1235.7l19,9.2c0,0-0.8,1.3-3.1,1.2c-2.3-0.1-8.2-2.3-8.2-2.3L726.6,1235.7z"/>
			</g>
			<g>
				<g>
					<polygon class="st23" points="736.8,1266.6 886.7,1266.6 931.9,1154.5 782.1,1154.5 					"/>
					<polygon class="st24" points="888.5,1262.2 690.5,1262.2 690.5,1266.6 886.7,1266.6 					"/>
				</g>
			</g>
		</g>
	</g>
	<g>
		<g>
			<g>
				<path class="st2" d="M1597.2,1277.4c0-0.6,3.3-68.6-29.5-84.3l2.3-2.2c15,5.3,31.7,21.5,38.4,44.4c5,17,1.2,20.8,1.2,21.4
					L1597.2,1277.4z"/>
			</g>
			<g>
				<path class="st25" d="M1511.4,1142.7c0,0-3.8,35,14.6,49.9c18.3,14.9,51.8,4,51.8,4s3.8-35-14.6-49.9
					C1544.9,1131.8,1511.4,1142.7,1511.4,1142.7z"/>
				<g>
					<path class="st25" d="M1591.6,1404.9c-0.6-3.4-12.5-83.5,17.8-172.8c29.1-85.8,13-158.5,12.9-159.2h21.4
						c0.6,3.1,2,74.5-20.8,172.3c-20.5,88,17.8,159.7,9.7,159.7H1591.6z"/>
				</g>
				<g>
					<path class="st25" d="M1636.6,1168.5c0.1-0.5,10.3-59.1,37.9-65.8l0,0c-12.3,1.6-27.9,10.4-36.7,26.8
						c-6.5,12.2-4.2,15.6-4.3,16.1L1636.6,1168.5z"/>
				</g>
			</g>
			<path class="st25" d="M1526.5,1012.8c0,0-29.7-41.9-63.4-54.2c0,0,12.6,98.3-5.8,99.5s-6.1-110.6-6.1-110.6
				s-87.8-48.8-123.5-47.4c0,0,50.5,98.2,32.3,94.9c-18.2-3.4-75.5-103.1-75.5-103.1s-91.7-22.6-109.7,31.5
				c-18.1,54,4.3,82.9,17.9,87.1c13.5,4.2,101.7,8.3,98.7,19.6s-63.5,26.1-96.1,13.9c0,0,31.3,92.5,79.6,90.8
				c48.3-1.8,64.9-30.6,94.8-31.2c29.9-0.5,51.1,8.7,35.8,15.9c-15.3,7.1-65.4-1.2-90.6,17.8c-25.2,19-45.4,30.5-1.3,42.2
				s110.6-1.5,142.2-22.6c0.1-0.1,25.8-2.1,46.1,117.1c7.8,46,1.8,114.2,1.8,114.2l16.4-2.5c9.1-133.7-39.2-244.8-39.2-244.8
				S1562.7,1080.4,1526.5,1012.8z"/>
			<path class="st26" d="M1794.1,1189.2c0,0-98.6-41.4-63.3-116.8c0,0,29.7-47.2,65.6-62.5c0,0-7.9,107.3,12.2,107.6
				s0.2-120.2,0.2-120.2s92.4-58,131.1-58.7c0,0-49,109.5-29.5,104.8c19.5-4.7,75.7-116.3,75.7-116.3s98-29.9,120.8,27.6
				c22.8,57.5,0.2,90.1-14.2,95.5c-14.4,5.4-109.8,14.9-105.9,27c3.9,12.1,70.4,24.6,105,9.4c0,0-28.5,102.2-81,103.1
				c-52.5,0.9-72.2-29.4-104.6-28.2s-54.9,12.5-37.9,19.3c17.1,6.8,70.8-5.1,99.3,14c28.5,19.1,51,30.4,3.9,45.7
				s-134.3,19-155.9-16.2C1794.1,1189.2,1794.1,1189.2,1794.1,1189.2z"/>
			<g>
				<path class="st25" d="M2063.3,978.4c0,0-250.1,113.5-269.2,210.8c0,0,6,41.9-14.5,93.1l2.1,18.5c0,0,20.1-66.1,33.9-76.5
					C1815.6,1224.4,1748.3,1149.3,2063.3,978.4z"/>
				<path class="st25" d="M1779.6,1282.3c0,0-33.2,65.3-2,136.8l10-3.9c0,0-19.2-80.4-2.9-123.8
					C1801,1248,1779.6,1282.3,1779.6,1282.3z"/>
			</g>
			<path class="st25" d="M1418.2,740.4c40.4,43,19.4,128.4,19.4,128.4s-86.6,15.7-127-27.3c-40.4-43-19.4-128.4-19.4-128.4
				S1377.7,697.4,1418.2,740.4z"/>
			<path class="st27" d="M1418.2,740.4c40.4,43,19.4,128.4,19.4,128.4l-146.4-155.7C1291.2,713.1,1377.7,697.4,1418.2,740.4z"/>
			<path class="st25" d="M1939.4,904.2c-21.1,24.4-68.7,17.9-68.7,17.9s-13.5-46.2,7.6-70.6c21.1-24.4,68.7-17.9,68.7-17.9
				S1960.5,879.8,1939.4,904.2z"/>
			<path class="st25" d="M1690.1,1119.2c-14.1,3.9-30.5-10.6-30.5-10.6s6.6-20.9,20.7-24.8c14.1-3.9,30.5,10.6,30.5,10.6
				S1704.3,1115.2,1690.1,1119.2z"/>
			<path class="st2" d="M1440.4,660.7c9.7,23-11.2,53.7-11.2,53.7s-36.6-6.5-46.3-29.5c-9.7-23,11.2-53.7,11.2-53.7
				S1430.8,637.7,1440.4,660.7z"/>
			<g>
				
					<ellipse transform="matrix(0.7071 -0.7071 0.7071 0.7071 -125.6271 1406.5673)" class="st11" cx="1635.1" cy="854.9" rx="215.7" ry="215.7"/>
				
					<ellipse transform="matrix(0.7071 -0.7071 0.7071 0.7071 -132.7563 1394.0564)" class="st3" cx="1616.4" cy="857.3" rx="215.7" ry="215.7"/>
				<g>
					<path class="st2" d="M1641.3,1054.8c-52.1,6.6-103.6-7.6-145-39.7c-41.5-32.2-67.9-78.6-74.5-130.7
						c-6.6-52.1,7.6-103.6,39.7-145c32.2-41.5,78.6-67.9,130.7-74.5c52.1-6.6,103.6,7.6,145,39.7c41.5,32.2,67.9,78.6,74.5,130.7
						c6.6,52.1-7.6,103.6-39.7,145C1739.7,1021.8,1693.3,1048.2,1641.3,1054.8z M1593.6,676.5c-101.1,12.7-173,105.3-160.2,206.4
						c12.7,101.1,105.3,173,206.4,160.2c101.1-12.7,173-105.3,160.2-206.4C1787.3,735.6,1694.7,663.8,1593.6,676.5z"/>
				</g>
			</g>
		</g>
		<g>
			<polygon class="st28" points="1807.1,1384.1 1807.1,1384.3 1802.8,1450.3 1786.8,1695.6 1488.4,1695.6 1470.8,1453.7 
				1465.9,1387 1465.7,1384.1 			"/>
			<path class="st11" d="M1807.1,1384.3l-4.3,66.1c-22.5-7.8-85-26.7-166.4-26.7c-102.8,0-165.6,30-165.6,30l-4.8-66.7
				L1807.1,1384.3z"/>
			<polygon class="st29" points="1817.5,1419 1454.9,1419 1450.7,1376.9 1822.1,1376.9 			"/>
			<polygon class="st11" points="1791.4,1708.7 1481.9,1708.7 1478.4,1694 1795.4,1694 			"/>
		</g>
	</g>
	<g>
		<g>
			<g>
				<g>
					<path class="st25" d="M1256.1,1572.1c-0.3-1.5-5.6-37.6,8-77.7c13.1-38.6,5.8-71.3,5.8-71.6h9.6c0.2,1.4,0.9,33.5-9.3,77.5
						c-9.2,39.6,8,71.8,4.3,71.8H1256.1z"/>
				</g>
				<g>
					<path class="st2" d="M1276.3,1465.7c0.1-0.2,4.7-26.6,17-29.6l0,0c-5.5,0.7-12.6,4.7-16.5,12.1c-2.9,5.5-1.9,7-2,7.3
						L1276.3,1465.7z"/>
				</g>
			</g>
			<path class="st25" d="M1253.4,1459.5c0,0-12.1-19.7-26.9-26.2c0,0,2.8,44.5-5.5,44.5c-8.3,0,0.4-49.8,0.4-49.8
				s-38-24.4-54.1-24.9c0,0,19.8,45.6,11.8,43.5c-8.1-2-30.9-48.5-30.9-48.5s-40.5-12.8-50.2,10.9s-0.5,37.3,5.5,39.6
				c5.9,2.3,45.4,6.6,43.7,11.6s-29.3,9.9-43.5,3.4c0,0,11.4,42.4,33.1,43s30-11.9,43.5-11.2c13.4,0.6,22.7,5.4,15.6,8.2
				c-7.1,2.8-29.3-2.4-41.2,5.4c-11.9,7.8-21.3,12.4-1.8,18.9c19.4,6.6,49.7,2.5,64.5-6c0,0,11.7-0.2,17.3,53.9
				c2.2,20.9-2.5,51.3-2.5,51.3l7.4-0.6c7.9-59.7-10.5-111-10.5-111S1267.7,1490.9,1253.4,1459.5z"/>
			<path class="st25" d="M1300.4,1443.5c-6.4,1.8-13.7-4.8-13.7-4.8s2.9-9.4,9.3-11.1s13.7,4.8,13.7,4.8
				S1306.7,1441.8,1300.4,1443.5z"/>
			<g>
				<path class="st25" d="M1373.5,1300.1c-22.2,14.5-22,54.1-22,54.1s36.2,16,58.4,1.4c22.2-14.5,22-54.1,22-54.1
					S1395.7,1285.6,1373.5,1300.1z"/>
				<path class="st30" d="M1373.5,1300.1c-22.2,14.5-22,54.1-22,54.1l80.4-52.7C1431.9,1301.6,1395.7,1285.6,1373.5,1300.1z"/>
				<path class="st25" d="M1372.2,1262.9c-6.7,9-0.8,24.7-0.8,24.7s16.7,1,23.4-8c6.7-9,0.8-24.7,0.8-24.7
					S1378.9,1253.9,1372.2,1262.9z"/>
			</g>
			<g>
				<path class="st11" d="M1179.4,1336.8c-6.7-53.2,31-101.7,84.1-108.4c53.2-6.7,101.7,31,108.4,84.1c6.7,53.2-31,101.7-84.1,108.4
					C1234.6,1427.6,1186.1,1390,1179.4,1336.8z"/>
				<path class="st3" d="M1171,1337.9c-6.7-53.2,31-101.7,84.1-108.4c53.2-6.7,101.7,31,108.4,84.1c6.7,53.2-31,101.7-84.1,108.4
					C1226.2,1428.7,1177.7,1391,1171,1337.9z"/>
				<g>
					<path class="st2" d="M1278.4,1414.6c-23.4,2.9-46.6-3.4-65.2-17.9c-18.6-14.5-30.5-35.3-33.5-58.8
						c-2.9-23.4,3.4-46.6,17.9-65.2c14.5-18.6,35.4-30.5,58.8-33.5c23.4-2.9,46.6,3.4,65.2,17.9c18.6,14.5,30.5,35.4,33.5,58.8
						s-3.4,46.6-17.9,65.2C1322.7,1399.7,1301.8,1411.6,1278.4,1414.6z M1257,1244.4c-45.5,5.7-77.8,47.4-72.1,92.8
						c5.7,45.5,47.4,77.8,92.8,72.1c45.5-5.7,77.8-47.4,72.1-92.8C1344.1,1271,1302.4,1238.7,1257,1244.4z"/>
				</g>
			</g>
		</g>
		<g>
			<polygon class="st4" points="1353,1562.7 1353,1562.8 1351.1,1592.5 1343.9,1702.8 1209.6,1702.8 1201.7,1594 1199.5,1564 
				1199.4,1562.7 			"/>
			<path class="st5" d="M1353,1562.8l-1.9,29.7c-10.1-3.5-38.2-12-74.8-12c-46.2,0-74.5,13.5-74.5,13.5l-2.2-30L1353,1562.8z"/>
			<polygon class="st6" points="1357.7,1578.4 1194.6,1578.4 1192.7,1559.5 1359.7,1559.5 			"/>
			<polygon class="st6" points="1345.9,1708.7 1206.7,1708.7 1205.1,1702.1 1347.7,1702.1 			"/>
		</g>
	</g>
	<g>
		<path class="st19" d="M1906.2,1141.6c0,0-15.3-3-18.8,0c-3.5,3-20.1,19.9-16.6,25.4c3.6,5.5,20.6-4.6,24.2-5.5s13.5-4.8,13.5-4.8
			L1906.2,1141.6z"/>
		<path class="st13" d="M2069.2,1683.7l16.4,6.1c0,0,71.4-99,80.2-186.1c1.6-15.6,1-30.6-2.3-44.5c0,0,0.7-4,1.9-11
			c0.6-3.3,1.3-7.2,2.1-11.8c2.3-13.3,5.5-31.5,9.2-52.2c8.4-47.7,19.3-108.6,27.7-153.4l-4.4-1.4l-47.9-15.5l-9.9-31.5l-35.7-9.4
			c0,0-8,15.6-15.1,89.2c-1.3,9.7-2.5,20.3-3.4,31.9c-2.8,35.3-3,79,3.4,129c1.6,12.8,3.7,26,6.3,39.6c1.9,10,2.2,23.5,1.4,39.1
			C2095.3,1573,2069.2,1683.7,2069.2,1683.7z"/>
		<path class="st14" d="M2087.9,1294.1l77.5,154c0.6-3.3,1.3-7.2,2.1-11.8c2.3-13.3,5.5-31.5,9.2-52.2
			c8.4-47.7,19.3-108.6,27.7-153.4l-4.4-1.4l-47.9-15.5l-9.9-31.5l-35.7-9.4c0,0-8,15.6-15.1,89.2
			C2090,1271.8,2088.8,1282.5,2087.9,1294.1z"/>
		<path class="st13" d="M2122,1192.7l1.8-15.4c30,8,110.3-22.3,110.3-22.3s29.1,25.6,25.3,86.9c-1.9,29.9-5.3,157.2-8.8,194.8
			c-1.3,13.6-2.4,23.4-2.9,27.2c0,0,0,0,0,0c-0.1,1.2,0.3,2.3,0.9,3.3c5.2,8.9,9.6,18.2,13.1,27.6c34.9,93.1-5.4,207.7-5.4,207.7
			l-10.5-4.2c0,0-22.9-127.6-41.6-183.9c-3.2-9.6-6.2-17.1-9-21.6c-8.1-13.1-15.6-34.5-22.5-59.9c-12.9-48.1-23.3-110.6-30.2-158.8
			C2141.7,1274.3,2122,1192.7,2122,1192.7z"/>
		<path class="st19" d="M1906.2,1141.6l2.2,15.1c0,0,1,0,2.7-0.1c5.5-0.4,18.8-1.1,33.8-2.7c22.6-2.2,49.5-6.2,60.2-12.8
			c16.3-10,43-40.4,60.5-70.9c0.5-0.7,0.9-1.5,1.2-2.2c9.1-16.2,15.4-32.2,15.9-45c0.4-7.8-0.5-14.6-2.1-20.4
			c-2.1-7.7-5.6-13.8-9.2-18.4c-0.5-0.7-1-1.5-1.7-2.1c-6-7.1-11.8-10.1-11.8-10.1c-3-1.2-6.2,0.2-9.6,3.9v0.1
			c-2.7,2.9-5.7,7.2-8.6,12.7c-0.1,0.1-0.2,0.2-0.2,0.4c-0.6,1.1-1.2,2.4-2,3.7c-0.2,0.2-0.4,0.6-0.5,0.9c-1.4,2.9-2.7,5.8-4.1,9
			c-15.3,33.3-31.6,83.8-45.2,98.9c-5.8,6.5-32.6,19.2-53.9,28.6C1918.7,1136.6,1906.2,1141.6,1906.2,1141.6z"/>
		<path class="st19" d="M2064.5,1006.1c9.4,4.4,20.8,7.4,34.6,8.1c51.7,2.8,63.4-42.5,65.5-72.5c-7.4-2.7-14-2.4-17.7-2.2
			c-3.7,0.2-7.5,0.6-10.6,1c-6.3-3.3-17.7-19.3-24.2-46.2l-2.2,1l-37.3,17.5c0,0,4,12.1,6.9,23.7c2.3,9.1,3.9,17.9,2.5,20.3
			c-2.9,1.2-4.7,1.9-4.7,1.9s0,0,0,0C2076.9,959.8,2068.8,980.5,2064.5,1006.1z"/>
		<path class="st31" d="M2051.6,1040c0.4,1,0.8,2,1.3,3.1c13.1,28.2,37.3,144.9,37.3,144.9c-3.4,21,157.7-4.1,158.1-23.2
			c5.7-20.3-20.1-52.8-34.7-69.1c-1.8-2.1-3.5-4.3-4.9-6.6c-3.6-5.8-5.9-12.4-6.6-19.3c-2.9-27.1-1.8-52.5-2-67.9c0,0,0,0,0,0
			c-2.8-2.1-5.6-4.1-8.2-5.9c-3.9-2.9-7.4-5.5-9.9-8.2c-2.8-3-4.6-6-4.8-9.4c-0.1-2.6-0.1-5.2,0.2-7.9c0.1-1.2,0.3-2.5,0.5-3.7
			c2-13.1,7.5-25,7.5-25c-13.9-5.6-38.5-2.3-38.5-2.3s0,1.4,0,3.6c0.1,9,0,32.1-2.9,36.5c-3.6,5.4-69.6,29.3-73.1,21.9
			c-3.4-7.3,6-41.3,6.3-42.6c0,0,0,0,0,0c-22.1,8.7-30,16-30,16C2060.6,983.5,2041.3,1012.7,2051.6,1040z"/>
		<path class="st32" d="M2096.1,796.5c0.1-2.2,1.8-26.4,38.6-27.6c0,0-18.1,2.2-21.2,10.1c0,0,12.3-9.8,22.3-6.7
			c10,3.2,15.9,20.7,16,26.5c0.1,5.8-5.5,24.4-11.9,26c-2.4,0.6-5.2,0.4-7.7,0c1.7,2.6,3.4,5.6,4.9,8.8
			c14.7,30.1-0.5,59.5-12.9,56.3c-8-2.1-10.2,11.5-10.2,11.5l-77.4-62.6C2036.7,838.8,2065.1,780,2096.1,796.5z"/>
		<path class="st33" d="M2072.6,912.9c0,0,4,12.1,6.9,23.7c21.8-6.1,28.4-29,30.4-41.3L2072.6,912.9z"/>
		<path class="st19" d="M2068,925.7c0,0,52.1-12.1,44.1-44.4c-8-32.3-6.7-55.7-40.3-49.4c-33.6,6.3-37,20.3-37,31.7
			C2034.9,875.1,2054.2,928,2068,925.7z"/>
		<path class="st32" d="M2031.9,845.3c5.6-11.7,12.2-11.1,16.3-9c24.5-22.7,48.5-4.1,48.5-4.1c9.2,22.3,29.3,31.5,29.3,31.5
			s-8,8.2-31.2,8c-7.1-0.1-14.2-3.3-20.7-7.8c12.5,12.6,27.2,20.3,27.2,20.3c-29.1-5.6-48.5-39.2-50.5-42.8
			c-2.5,3.6-7.2,11.4-7.6,17.9c-0.5,8.9,2.5,26.1-2.6,26.8C2040.6,886,2023.5,862.9,2031.9,845.3z"/>
		<path class="st31" d="M2047.3,974.8c0,0-12.6,21.9-14.4,27.5c0,0,16.3-0.6,22.9,11.9C2055.7,1014.2,2057.3,977.8,2047.3,974.8z"/>
		<path class="st24" d="M2133.6,1148.8c31.8-0.3,58.7-33.3,75.2-59.7c-3.6-5.8-5.9-12.4-6.6-19.3c-2.9-27.1-1.8-52.5-2-67.9
			c0,0,0,0,0,0c-2.8-2.1-5.6-4.1-8.2-5.9c-3.9-2.9-7.4-5.5-9.9-8.2C2156,1031.7,2090.5,1149.3,2133.6,1148.8z"/>
		<path class="st19" d="M2013.5,1166.1l4.4,15.9c0,0,5.5-1,14.2-2.6c2.6-0.5,4.1-0.9,4.1-0.9c7-1.4,15.3-3.2,24.4-5.2h0.1
			c15.5-3.7,33-8.2,47.6-13.2c10.3-3.6,19.3-7.5,25.4-11.3c0.6-0.4,1.1-0.7,1.7-1.2c14.6-10.6,31.8-41.7,45.3-75
			c1.9-4.6,3.6-9.2,5.3-13.7c6.2-16.7,11.2-33.1,14.2-47.3c1.9-8.5,3.1-16.2,3.4-22.5c0.1-2.2,0.2-4.4,0.1-6.3
			c-0.2-36.1-18.2-41-18.2-41c-0.4-0.1-0.7-0.2-1.2-0.4c-3.1-0.5-6.3,1.6-9.7,5.7c-4.2,5.1-8.7,13.4-13.3,23.5
			c-7.1,16-14.6,36.8-21.5,57.5c-3.9,11.3-7.6,22.6-11.3,33.1c-2.1,6.3-4.2,12.3-6.2,17.8c-3.9,10.4-7.3,18.9-10.4,24.3
			c-2,3.5-7.7,8.3-15.3,13.8c-13.2,9.6-32.5,21.1-49.3,30.6c-7,4-13.6,7.6-19,10.6C2019.3,1163,2013.5,1166.1,2013.5,1166.1z"/>
		<path class="st31" d="M2161.3,970.6c23.9-6.6,42.4,12.1,42.4,12.1c-0.3-36-18.2-40.9-18.2-40.9
			C2178.2,938.8,2169.9,951.3,2161.3,970.6z"/>
		<path class="st10" d="M2195.5,1711.3h82.8c0,0,2-12.6-2.3-22.2c-4.1-9.2-10.6-13.4-9.1-24.5c-5.3,5.4-13.8,11.5-25.8,9.9
			c-1.5,2.4-9.5,15.1-14.4,18.6C2221.3,1697,2197.1,1695.6,2195.5,1711.3z"/>
		<path class="st10" d="M2017.7,1711.3h82.8c0,0,3.1-13.2-2.3-22.2c-4.8-8-3-12.5,0.6-19.1c-3.8,1.5-8.6,2.9-13.9,2.6
			c-4.1-0.2-8.5-2.1-12.3-4.3c-3.6,4.1-18.8,21.4-23.6,24.8C2043.5,1697,2019.4,1695.6,2017.7,1711.3z"/>
		<path class="st34" d="M2008.5,1239.9l-19.7-48c-2.6-6.3-9.4-9.5-15.8-7.8c-6.5-12.3-15.5-22.2-25.7-29.2
			c-10.7-7.4-22.8-11.4-34.6-11.4c-6.3,0-12.5,1.2-18.5,3.7c-28,11.5-40.5,46.8-30.2,81.5l-1.5,0.6c0,0-4.8-0.3-12.8-0.3
			c-25.3,0-82.9,3.4-123.3,31.4c0,0-2.5,2.7-2.6,6.8c-0.1,1.4,0.2,2.9,0.9,4.5c0,0,64.9-42,124.8,1.2c3.7,2.6,7.3,5.1,10.7,7.4
			l5.4,13.1c8.9,21.8,34,32.3,55.8,23.4l54.9-22.5l11.4-4.7C2007.1,1281.6,2016.5,1259.2,2008.5,1239.9z M1902,1201l-22.4,9.2
			c-6.1,2.5-9.3,9.1-7.7,15.3l-2.4,1c-9.1-31.6,2-63.5,27-73.7c3.5-1.4,7.1-2.4,10.8-2.8c11.5-1.5,23.5,1.6,34.3,8.3
			c10.2,6.4,19.4,16,25.9,28.1l-3.3,1.4c-3.2-5.5-10.1-8-16.2-5.5l-22.4,9.2c-1.7-4.3-5.9-6.9-10.3-6.9c-1.4,0-2.8,0.3-4.1,0.8
			l-3.1,1.3C1902.4,1188.9,1899.7,1195.3,1902,1201z"/>
		<path class="st35" d="M1860.1,1280.3c-3.5-2.3-7-4.7-10.7-7.4c-60-43.2-124.8-1.2-124.8-1.2c-0.7-1.6-0.9-3.2-0.9-4.5
			c9.1-6,43.1-25.9,85.3-19.1C1858.4,1256.1,1867.3,1263,1860.1,1280.3z"/>
		<path class="st36" d="M1987.7,1289.6l-11.4,4.7c17.2-9.4-4.1-49-16.5-75.1c-12.4-26.1-31.2-14.2-31.2-14.2
			c-4.3-8.8-13.5-8.3-13.5-8.3c-0.5-8.4-6.9-10.1-6.9-10.1l3.1-1.3c1.4-0.5,2.8-0.8,4.1-0.8c4.4,0,8.5,2.6,10.3,6.9l22.4-9.2
			c6.1-2.5,13,0,16.2,5.5l3.3-1.4c-6.6-12.1-15.7-21.8-25.9-28.1c-10.8-6.7-22.8-9.8-34.3-8.3c1.8-1.5,3.7-3.5,5.5-6.3
			c11.9-0.1,23.9,4,34.6,11.4c10.2,7,19.2,16.9,25.7,29.2c6.4-1.8,13.2,1.5,15.8,7.8l19.7,48
			C2016.5,1259.2,2007.1,1281.6,1987.7,1289.6z"/>
		<path class="st19" d="M1962,1181.5c8,3.4,19.2,15,37.1,8c12.8-5,26.4-8.5,33-10.1c2.6-0.5,4.1-0.9,4.1-0.9l-7.1-20.6
			c0,0-0.2,0.1-0.9,0.2c-4.6,1-28,6-38.9,3.5c-12.3-2.9-33,11.9-33,11.9S1954,1178.3,1962,1181.5z"/>
		<path class="st37" d="M1737.2,1306.4c0-7.5-13.5-30.5-13.5-30.5s-13.5,23.1-13.5,30.5c0,7.5,6.1,13.5,13.5,13.5
			C1731.2,1320,1737.2,1313.9,1737.2,1306.4z"/>
	</g>
	<g>
		<path class="st28" d="M2104.6,410.6l-19.9,4.3l-0.5,0.1c-2.4,0.5-4,2.8-3.8,5.2l1.8,16.9c0,0.3,0,0.6,0,0.8
			c-0.1,1.9-1.4,3.6-3.2,4.2c-10.6,3.8-20.4,9.6-28.7,17.2c-0.3,0.3-0.7,0.6-1.1,0.8c-1.5,0.7-3.4,0.6-4.8-0.3l-11.7-7.9
			c-1.6-1-3.6-1.1-5.1-0.2c-0.5,0.3-0.9,0.6-1.3,1.1l-13.4,15.9c-1.6,1.9-1.5,4.9,0.3,6.7l13.3,13.3c1.3,1.3,1.7,3.3,1.1,5
			c-0.9,2.5-1.7,5.1-2.3,7.7c-1.2,4.9-2,9.9-2.3,14.8l0,0c-0.1,2-1.5,3.8-3.4,4.4l-18.3,5.7l-0.9,0.3c-2.4,0.7-3.8,3.1-3.3,5.6
			l4.4,20.3c0.6,2.5,2.9,4.2,5.4,3.9l18.8-2c2.1-0.2,4.1,0.9,4.9,2.8c3.7,8,8.6,15.3,14.6,21.8c1.5,1.7,1.7,4.1,0.4,6l-9.3,13.9
			c-1.4,2.1-1,4.9,0.9,6.5l15.9,13.4c1.9,1.6,4.7,1.5,6.4-0.3l15.7-15.6c1.3-1.3,3.3-1.8,5.1-1.2c2.2,0.7,4.4,1.4,6.7,2
			c4.3,1.1,8.6,1.8,12.9,2.2c1.9,0.2,3.6,1.5,4.2,3.3l6.8,22c0.8,2.4,3.2,3.8,5.7,3.3l20.4-4.4c2.2-0.5,3.7-2.4,3.8-4.5
			c0-0.2,0-0.5,0-0.7l-2.2-20.8c-0.2-1.9,0.7-3.8,2.4-4.8c0.1-0.1,0.3-0.2,0.5-0.2c0.5-0.2,0.9-0.4,1.4-0.7
			c5.5-2.5,10.7-5.6,15.5-9.3c1.6-1.2,3.8-1.3,5.5-0.1l14.7,9.9c2.1,1.4,4.9,1,6.5-0.9l3-3.5l10.4-12.3c1.6-1.9,1.5-4.8-0.3-6.6
			l-13.1-13.1c-1.4-1.4-1.8-3.5-0.9-5.3c2.2-4.7,3.9-9.8,5.2-15c1-3.9,1.6-7.8,2-11.7l3.8-1.2l15.7-4.9c2-0.6,3.3-2.4,3.3-4.3
			c0-0.4,0-0.8-0.1-1.2l-4.4-20.4c-0.5-2.4-2.8-4-5.3-3.8l-12.8,1.4c-2.2,0.2-4.3-1.1-5-3.1c-3.1-8.5-7.6-16.4-13.1-23.4
			c-1.3-1.7-1.4-3.9-0.2-5.6L2185,446c1.3-2,0.9-4.6-0.9-6.2l-16.1-13.6c-1.9-1.6-4.7-1.5-6.4,0.3l-16.3,16.3
			c-1.4,1.4-3.5,1.8-5.3,1c-3.9-1.7-8-3-12.3-4.1c-2.3-0.6-4.6-1-6.9-1.4c-1.8-0.3-3.3-1.6-3.9-3.3l-6.5-21.1
			C2109.5,411.5,2107.1,410.1,2104.6,410.6z M2064.6,505.7c1.9-5.3,4.9-10.4,9-15.3c0.9-1.1,1.9-2.1,3.1-3.2
			c5.2-4.5,12.7-8.6,18.6-9.9c44.8-9.5,74.6,38.8,46.7,74.4c-0.5,0.6-0.9,1.2-1.4,1.7c-4.5,5.4-13.9,11-20.8,12.5
			c-3.6,0.8-7.1,1.2-10.5,1.3C2075.6,568.2,2053.6,535.7,2064.6,505.7z"/>
	</g>
	<g>
		<path class="st29" d="M2407.7,479.4l-31.2,2.8l-0.7,0.1c-3.8,0.4-6.7,3.5-6.8,7.3l-0.5,26.2c0,0.4-0.1,0.9-0.1,1.3
			c-0.6,2.8-2.8,5.2-5.6,5.8c-17,3.8-33.1,10.8-47.3,20.9c-0.6,0.4-1.2,0.7-1.9,0.9c-2.5,0.8-5.3,0.3-7.3-1.4l-16.5-14.4
			c-2.2-1.9-5.2-2.3-7.8-1.2c-0.8,0.3-1.5,0.8-2.2,1.4l-23.5,21.7c-2.9,2.7-3.3,7.2-0.8,10.3l17.9,22.9c1.8,2.3,2,5.3,0.7,7.9
			c-1.8,3.7-3.5,7.5-5,11.4c-2.8,7.3-4.9,14.8-6.4,22.2l0,0c-0.6,3.1-3,5.5-6.1,6l-29.1,5.2l-1.5,0.3c-3.7,0.6-6.4,4.1-6.1,7.9
			l2.9,31.9c0.4,3.9,3.6,6.9,7.5,7l29.1,0.6c3.2,0.1,6.1,2.2,7,5.2c4.1,12.9,10.2,25.1,18.1,36.1c2,2.8,1.8,6.6-0.5,9.2l-17,19.6
			c-2.6,3-2.5,7.4,0.2,10.2l21.8,23.6c2.6,2.8,6.9,3.1,9.8,0.8l27-21c2.3-1.8,5.4-2.1,8-0.9c3.2,1.6,6.5,3,9.9,4.3
			c6.4,2.5,12.9,4.4,19.3,5.8c2.9,0.6,5.2,2.9,5.7,5.9l6.2,35c0.7,3.9,4.2,6.5,8.1,6.2l32.1-2.9c3.4-0.3,6.1-2.9,6.7-6.2
			c0.1-0.3,0.1-0.7,0.1-1.1l0.6-32.3c0-3,1.8-5.7,4.6-6.8c0.2-0.1,0.5-0.2,0.7-0.3c0.8-0.2,1.5-0.4,2.2-0.7
			c8.9-2.8,17.4-6.6,25.6-11.2c2.7-1.6,6.1-1.2,8.5,0.9l20.7,17.9c2.9,2.6,7.3,2.5,10.2-0.2l5.2-4.8l18.2-16.9
			c2.9-2.6,3.2-7,0.8-10.1l-17.6-22.6c-1.9-2.4-2-5.7-0.4-8.3c4.2-6.8,7.9-14.2,10.9-22c2.2-5.8,4-11.7,5.4-17.6l6.1-1.1l25-4.5
			c3.1-0.5,5.5-3,6-6c0.1-0.6,0.1-1.3,0.1-1.9l-2.8-32.2c-0.4-3.8-3.6-6.7-7.3-6.8l-19.9-0.3c-3.4-0.1-6.3-2.4-7.1-5.7
			c-3.2-13.6-8.4-26.6-15.6-38.4c-1.7-2.8-1.4-6.3,0.7-8.7l21.5-24.7c2.4-2.8,2.3-6.9-0.2-9.6l-22.1-23.9c-2.6-2.8-6.9-3.2-9.9-0.8
			l-28.1,21.8c-2.4,1.9-5.7,2.1-8.4,0.6c-5.7-3.3-11.8-6.2-18.1-8.6c-3.4-1.3-6.9-2.5-10.3-3.5c-2.7-0.8-4.8-3.1-5.3-5.8l-5.9-33.5
			C2415.1,481.8,2411.6,479.1,2407.7,479.4z M2328.3,617.5c4-7.7,9.5-15,16.7-21.8c1.5-1.4,3.4-2.9,5.4-4.3
			c8.8-6,21.1-10.8,30.3-11.6c70.5-5.9,106.8,73.8,57.3,122.9c-0.8,0.8-1.6,1.6-2.5,2.4c-8,7.4-23.4,14.2-34.2,15.2
			c-5.7,0.5-11.1,0.5-16.3,0C2333.2,715.3,2305.6,661.4,2328.3,617.5z"/>
	</g>
</g>
<path class="st12" d="M1654,988c-0.5-0.7-1.3-1.1-2.1-1.2c-15.7-3.3-30.8-9.1-44.8-17c-28.7-16.7-46.9-41.9-47.6-70.6
	c-0.2-11,2.1-21.8,6.6-31.8c2.9-6.5,18.6-29.7,21.2-33.9c10.7-16.7,7.2-15.6-7.8-36.5l-21.6-32l-14.6-21.3l0,0l0,0l0,0
	c-8.4,5.7-16.3,12-23.7,18.9c-53.9,54.1-53.8,141.7,0.3,195.6c9,9,19.3,16.7,30.4,22.9c-48.1-35.2-70-88.1-51.6-141.3
	c5-14.3,12.4-27.7,21.7-39.6l15.8,23.3c1.9,2.8,1.7,6.4-0.4,9c-7.5,9.3-13.4,19.8-17.4,31c-20.2,58.7,34.4,119.4,92.1,129.3
	c11.1,1.9,31.2,4,41.6,1.3c2-0.5,3.1-2.6,2.6-4.5C1654.7,989,1654.4,988.5,1654,988z"/>
<path class="st12" d="M1581.2,732.9c0.5,0.7,1.3,1.1,2.1,1.2c15.7,3.3,30.8,9.1,44.8,17c28.7,16.7,47,41.8,47.6,70.6
	c0.2,10.9-2.1,21.8-6.6,31.8c-2.9,6.5-18.5,29.8-21.2,33.9c-10.6,16.7-7.2,15.6,7.8,36.5l21.7,32l14.4,21.3l0,0l0,0l0,0
	c8.4-5.7,16.3-12,23.7-18.9c53.9-54.1,53.8-141.6-0.3-195.5c-9-9-19.2-16.7-30.3-22.9c48,35.1,69.9,88,51.5,141.3
	c-5,14.3-12.4,27.7-21.8,39.6l-15.8-23.2c-1.9-2.7-1.8-6.4,0.4-9c7.6-9.3,13.5-19.8,17.5-31.1c20.2-58.6-34.5-119.4-92.1-129.2
	c-11.1-2-31.2-4.1-41.6-1.4c-2,0.5-3.1,2.5-2.6,4.5C1580.5,731.9,1580.8,732.4,1581.2,732.9z"/>
<path class="st12" d="M575.4,1655c-0.4-0.5-1-0.9-1.7-1c-12.7-2.7-24.9-7.3-36.2-13.8c-23.1-13.5-37.9-33.8-38.5-57.1
	c-0.2-8.8,1.7-17.6,5.3-25.7c2.4-5.2,15-24,17.1-27.4c8.6-13.5,5.8-12.6-6.3-29.5l-17.4-25.8l-11.8-17.2l0,0l0,0l0,0
	c-6.8,4.6-13.1,9.7-19.1,15.3c-43.6,43.7-43.5,114.5,0.3,158c7.3,7.3,15.6,13.5,24.6,18.5c-38.8-28.5-56.6-71.1-41.7-114.2
	c4.1-11.6,10-22.4,17.6-32l12.8,18.8c1.5,2.2,1.4,5.2-0.3,7.3c-6.1,7.5-10.9,16-14.1,25.1c-16.3,47.4,27.8,96.5,74.4,104.5
	c8.9,1.5,25.2,3.2,33.6,1.1c1.6-0.4,2.5-2.1,2.1-3.7C576,1655.8,575.7,1655.4,575.4,1655z"/>
<path class="st12" d="M516.6,1448.9c0.4,0.5,1,0.9,1.7,1c12.7,2.7,24.9,7.3,36.2,13.8c23.1,13.5,37.9,33.8,38.5,57.1
	c0.2,8.8-1.7,17.6-5.4,25.7c-2.3,5.3-15,24.1-17.1,27.4c-8.6,13.5-5.8,12.6,6.3,29.5l17.6,25.9l11.7,17.2l0,0l0,0l0,0
	c6.8-4.6,13.1-9.7,19.1-15.3c43.6-43.7,43.5-114.4-0.2-158c-7.3-7.3-15.5-13.5-24.5-18.5c38.8,28.3,56.5,71.1,41.6,114.1
	c-4.1,11.5-10,22.3-17.6,32l-12.7-18.8c-1.5-2.2-1.4-5.2,0.3-7.3c6.1-7.5,10.9-16,14.1-25.1c16.3-47.4-27.8-96.4-74.4-104.4
	c-8.9-1.6-25.2-3.3-33.6-1.2c-1.6,0.4-2.5,2-2.1,3.6C516,1448.1,516.3,1448.5,516.6,1448.9z"/>
<path class="st12" d="M1283.9,1390.8c-0.3-0.3-0.6-0.6-1-0.6c-7.6-1.7-14.9-4.6-21.6-8.7c-13.9-8.5-22.7-21.4-23-36
	c-0.1-5.6,1-11.1,3.2-16.2c1.4-3.3,9-15.1,10.2-17.3c5.2-8.5,3.5-8-3.8-18.6l-10.4-16.3l-7.1-10.8l0,0l0,0l0,0
	c-4,2.9-7.9,6.1-11.5,9.6c-26.1,27.6-26,72.2,0.2,99.7c4.4,4.6,9.3,8.5,14.7,11.7c-23.2-18-33.8-44.9-25-72
	c2.4-7.3,6-14.1,10.5-20.2l7.6,11.9c0.9,1.4,0.8,3.3-0.2,4.6c-3.6,4.7-6.5,10.1-8.4,15.8c-9.8,29.9,16.6,60.9,44.5,65.9
	c5.3,1,15.1,2,20.1,0.7c1-0.3,1.5-1.3,1.3-2.3C1284.2,1391.3,1284.1,1391,1283.9,1390.8z"/>
<path class="st12" d="M1248.7,1260.8c0.3,0.3,0.6,0.6,1,0.6c7.6,1.7,14.9,4.6,21.6,8.7c13.9,8.5,22.7,21.3,23,36
	c0.1,5.6-1,11.1-3.2,16.2c-1.4,3.3-9,15.2-10.2,17.3c-5.1,8.5-3.5,8,3.8,18.6l10.5,16.3l7,10.8l0,0l0,0l0,0c4-2.9,7.9-6.1,11.4-9.6
	c26.1-27.6,26-72.2-0.1-99.7c-4.4-4.6-9.3-8.5-14.7-11.7c23.2,17.9,33.8,44.8,24.9,72c-2.4,7.3-6,14.1-10.5,20.2l-7.6-11.8
	c-0.9-1.4-0.8-3.3,0.2-4.6c3.7-4.7,6.5-10.1,8.4-15.8c9.8-29.9-16.7-60.8-44.5-65.8c-5.3-1-15.1-2.1-20.1-0.7
	c-0.9,0.3-1.5,1.3-1.3,2.3C1248.4,1260.2,1248.5,1260.5,1248.7,1260.8z"/>
<path class="st12" d="M1936.3,1475.1c-0.2-0.2-0.5-0.4-0.8-0.4c-5.6-1.2-11-3.2-16-6.1c-10.2-5.9-16.7-14.9-17-25.2
	c-0.1-3.9,0.7-7.8,2.4-11.3c1-2.3,6.6-10.6,7.5-12.1c3.8-6,2.6-5.6-2.8-13l-7.7-11.4l-5.2-7.6l0,0l0,0l0,0c-3,2-5.8,4.3-8.4,6.7
	c-19.2,19.3-19.2,50.5,0.1,69.8c3.2,3.2,6.9,6,10.8,8.2c-17.2-12.6-25-31.4-18.4-50.4c1.8-5.1,4.4-9.9,7.8-14.1l5.6,8.3
	c0.7,1,0.6,2.3-0.1,3.2c-2.7,3.3-4.8,7-6.2,11.1c-7.2,20.9,12.3,42.6,32.8,46.1c3.9,0.7,11.1,1.4,14.8,0.5c0.7-0.2,1.1-0.9,0.9-1.6
	C1936.6,1475.4,1936.5,1475.2,1936.3,1475.1z"/>
<path class="st12" d="M1910.4,1384c0.2,0.2,0.5,0.4,0.8,0.4c5.6,1.2,11,3.2,16,6.1c10.2,5.9,16.8,14.9,17,25.2
	c0.1,3.9-0.7,7.8-2.4,11.3c-1,2.3-6.6,10.6-7.5,12.1c-3.8,6-2.6,5.6,2.8,13l7.8,11.4l5.1,7.6l0,0l0,0l0,0c3-2,5.8-4.3,8.4-6.7
	c19.2-19.3,19.2-50.5-0.1-69.8c-3.2-3.2-6.9-6-10.8-8.2c17.1,12.5,24.9,31.4,18.4,50.4c-1.8,5.1-4.4,9.9-7.8,14.1l-5.6-8.3
	c-0.7-1-0.6-2.3,0.1-3.2c2.7-3.3,4.8-7.1,6.2-11.1c7.2-20.9-12.3-42.6-32.9-46.1c-3.9-0.7-11.1-1.5-14.8-0.5
	c-0.7,0.2-1.1,0.9-0.9,1.6C1910.1,1383.7,1910.2,1383.9,1910.4,1384z"/>
<path class="st38" d="M1615,1655.8v-184.6c0-11-17.1-11-17.1,0v184.6"/>
<path class="st38" d="M1677.9,1655.8v-184.6c0-11-17.1-11-17.1,0v184.6"/>
<path class="st0" d="M840.3,1221.7l9-23.5c0.5-1.4,3.1-1.4,2.5,0l-9,23.5"/>
<path class="st0" d="M831,1221.7l9-23.5c0.5-1.4,3.1-1.4,2.5,0l-9,23.5"/>
</svg>
