<?xml version="1.0" encoding="UTF-8"?>
<svg xmlns="http://www.w3.org/2000/svg" xmlns:xlink="http://www.w3.org/1999/xlink" width="1080pt" height="666.64pt" viewBox="0 0 1080 666.64" version="1.1">
<defs>
<clipPath id="clip1">
  <path d="M 569.59375 510.722656 L 740.679688 510.722656 L 740.679688 549.792969 L 569.59375 549.792969 Z M 569.59375 510.722656 "/>
</clipPath>
<filter id="alpha" filterUnits="objectBoundingBox" x="0%" y="0%" width="100%" height="100%">
  <feColorMatrix type="matrix" in="SourceGraphic" values="0 0 0 0 1 0 0 0 0 1 0 0 0 0 1 0 0 0 1 0"/>
</filter>
<mask id="mask0">
  <g filter="url(#alpha)">
<rect x="0" y="0" width="1080" height="666.64" style="fill:rgb(0%,0%,0%);fill-opacity:0.639999;stroke:none;"/>
  </g>
</mask>
<clipPath id="clip3">
  <path d="M 0.59375 0.722656 L 171.679688 0.722656 L 171.679688 39.792969 L 0.59375 39.792969 Z M 0.59375 0.722656 "/>
</clipPath>
<clipPath id="clip2">
  <rect width="172" height="40"/>
</clipPath>
<g id="surface4" clip-path="url(#clip2)">
<g clip-path="url(#clip3)" clip-rule="nonzero">
<path style=" stroke:none;fill-rule:nonzero;fill:rgb(35.693359%,68.943787%,91.40625%);fill-opacity:1;" d="M 0.59375 39.792969 L 171.679688 39.792969 C 171.679688 39.792969 150.421875 36.414063 131.351563 14.480469 C 127.574219 10.136719 119.84375 2.136719 107.261719 0.863281 C 96.210938 -0.253906 82.820313 5.054688 68.855469 23.210938 C 63.988281 29.535156 54.539063 41.015625 37.429688 28.796875 C 20.320313 16.574219 0.59375 39.792969 0.59375 39.792969 "/>
</g>
</g>
<clipPath id="clip4">
  <path d="M 930 585 L 963 585 L 963 666.640625 L 930 666.640625 Z M 930 585 "/>
</clipPath>
<clipPath id="clip5">
  <path d="M 122 571 L 137 571 L 137 666.640625 L 122 666.640625 Z M 122 571 "/>
</clipPath>
<clipPath id="clip6">
  <path d="M 0 661 L 1080 661 L 1080 666.640625 L 0 666.640625 Z M 0 661 "/>
</clipPath>
</defs>
<g id="surface1">
<path style=" stroke:none;fill-rule:nonzero;fill:rgb(0%,0%,0%);fill-opacity:1;" d="M 502.214844 63.324219 L 492.285156 63.324219 L 492.285156 58.359375 L 502.214844 58.359375 Z M 522.074219 63.324219 L 512.144531 63.324219 L 512.144531 58.359375 L 522.074219 58.359375 Z M 541.933594 63.324219 L 532.003906 63.324219 L 532.003906 58.359375 L 541.933594 58.359375 Z M 561.792969 63.324219 L 551.863281 63.324219 L 551.863281 58.359375 L 561.792969 58.359375 Z M 581.652344 63.324219 L 571.722656 63.324219 L 571.722656 58.359375 L 581.652344 58.359375 Z M 601.511719 63.324219 L 591.582031 63.324219 L 591.582031 58.359375 L 601.511719 58.359375 Z M 621.371094 63.324219 L 611.441406 63.324219 L 611.441406 58.359375 L 621.371094 58.359375 Z M 641.230469 63.324219 L 631.300781 63.324219 L 631.300781 58.359375 L 641.230469 58.359375 Z M 661.089844 63.324219 L 651.160156 63.324219 L 651.160156 58.359375 L 661.089844 58.359375 Z M 680.949219 63.324219 L 671.019531 63.324219 L 671.019531 58.359375 L 680.949219 58.359375 Z M 700.808594 63.324219 L 690.875 63.324219 L 690.875 58.359375 L 700.808594 58.359375 Z M 720.667969 63.324219 L 710.738281 63.324219 L 710.738281 58.359375 L 720.667969 58.359375 Z M 740.527344 63.324219 L 730.59375 63.324219 L 730.59375 58.359375 L 740.527344 58.359375 Z M 488.148438 74.082031 L 483.183594 74.082031 L 483.183594 64.152344 L 488.148438 64.152344 Z M 743.007813 80.699219 L 738.042969 80.699219 L 738.042969 70.769531 L 743.007813 70.769531 Z M 488.148438 93.941406 L 483.183594 93.941406 L 483.183594 84.011719 L 488.148438 84.011719 Z M 743.007813 100.558594 L 738.042969 100.558594 L 738.042969 90.628906 L 743.007813 90.628906 Z M 488.148438 113.800781 L 483.183594 113.800781 L 483.183594 103.871094 L 488.148438 103.871094 Z M 743.007813 120.417969 L 738.042969 120.417969 L 738.042969 110.488281 L 743.007813 110.488281 Z M 488.148438 133.65625 L 483.183594 133.65625 L 483.183594 123.726563 L 488.148438 123.726563 Z M 743.007813 140.277344 L 738.042969 140.277344 L 738.042969 130.347656 L 743.007813 130.347656 Z M 488.148438 153.519531 L 483.183594 153.519531 L 483.183594 143.589844 L 488.148438 143.589844 Z M 743.007813 160.136719 L 738.042969 160.136719 L 738.042969 150.207031 L 743.007813 150.207031 Z M 488.148438 173.378906 L 483.183594 173.378906 L 483.183594 163.445313 L 488.148438 163.445313 Z M 743.007813 179.996094 L 738.042969 179.996094 L 738.042969 170.066406 L 743.007813 170.066406 Z M 488.148438 193.234375 L 483.183594 193.234375 L 483.183594 183.308594 L 488.148438 183.308594 Z M 743.007813 199.855469 L 738.042969 199.855469 L 738.042969 189.925781 L 743.007813 189.925781 Z M 488.148438 213.09375 L 483.183594 213.09375 L 483.183594 203.164063 L 488.148438 203.164063 Z M 743.007813 219.714844 L 738.042969 219.714844 L 738.042969 209.785156 L 743.007813 209.785156 Z M 488.148438 232.953125 L 483.183594 232.953125 L 483.183594 223.023438 L 488.148438 223.023438 Z M 743.007813 239.574219 L 738.042969 239.574219 L 738.042969 229.644531 L 743.007813 229.644531 Z M 488.148438 252.8125 L 483.183594 252.8125 L 483.183594 242.882813 L 488.148438 242.882813 Z M 743.007813 259.433594 L 738.042969 259.433594 L 738.042969 249.503906 L 743.007813 249.503906 Z M 488.148438 272.671875 L 483.183594 272.671875 L 483.183594 262.742188 L 488.148438 262.742188 Z M 689.222656 280.121094 L 679.292969 280.121094 L 679.292969 275.15625 L 689.222656 275.15625 Z M 709.082031 280.121094 L 699.152344 280.121094 L 699.152344 275.15625 L 709.082031 275.15625 Z M 728.941406 280.121094 L 719.011719 280.121094 L 719.011719 275.15625 L 728.941406 275.15625 Z M 743.007813 280.121094 L 738.871094 280.121094 L 738.871094 277.636719 L 738.042969 277.636719 L 738.042969 269.363281 L 743.007813 269.363281 Z M 488.148438 292.53125 L 483.183594 292.53125 L 483.183594 282.601563 L 488.148438 282.601563 Z M 680.121094 295.84375 L 675.15625 295.84375 L 675.15625 285.914063 L 680.121094 285.914063 Z M 488.148438 312.390625 L 483.183594 312.390625 L 483.183594 302.460938 L 488.148438 302.460938 Z M 680.121094 315.703125 L 675.15625 315.703125 L 675.15625 305.773438 L 680.121094 305.773438 Z M 488.148438 332.25 L 483.183594 332.25 L 483.183594 322.320313 L 488.148438 322.320313 Z M 680.121094 335.5625 L 675.15625 335.5625 L 675.15625 325.632813 L 680.121094 325.632813 Z M 488.148438 352.109375 L 483.183594 352.109375 L 483.183594 342.179688 L 488.148438 342.179688 Z M 680.121094 355.421875 L 675.15625 355.421875 L 675.15625 345.488281 L 680.121094 345.488281 Z M 488.148438 371.96875 L 483.183594 371.96875 L 483.183594 362.039063 L 488.148438 362.039063 Z M 680.121094 375.28125 L 675.15625 375.28125 L 675.15625 365.351563 L 680.121094 365.351563 Z M 488.148438 391.828125 L 483.183594 391.828125 L 483.183594 381.898438 L 488.148438 381.898438 Z M 680.121094 395.140625 L 675.15625 395.140625 L 675.15625 385.210938 L 680.121094 385.210938 Z M 488.148438 411.6875 L 483.183594 411.6875 L 483.183594 401.757813 L 488.148438 401.757813 Z M 680.121094 414.996094 L 675.15625 414.996094 L 675.15625 405.066406 L 680.121094 405.066406 Z M 488.148438 431.546875 L 483.183594 431.546875 L 483.183594 421.617188 L 488.148438 421.617188 Z M 680.121094 434.855469 L 675.15625 434.855469 L 675.15625 424.925781 L 680.121094 424.925781 Z M 488.148438 451.40625 L 483.183594 451.40625 L 483.183594 441.476563 L 488.148438 441.476563 Z M 488.148438 471.265625 L 483.183594 471.265625 L 483.183594 461.335938 L 488.148438 461.335938 Z M 488.148438 491.125 L 483.183594 491.125 L 483.183594 481.195313 L 488.148438 481.195313 Z M 488.148438 510.984375 L 483.183594 510.984375 L 483.183594 501.054688 L 488.148438 501.054688 Z M 488.148438 510.984375 "/>
<path style=" stroke:none;fill-rule:nonzero;fill:rgb(100%,100%,100%);fill-opacity:1;" d="M 559.121094 563.941406 L 750.453125 563.941406 L 750.453125 420.789063 L 559.121094 420.789063 Z M 559.121094 563.941406 "/>
<path style=" stroke:none;fill-rule:nonzero;fill:rgb(0%,0%,0%);fill-opacity:1;" d="M 561.601563 561.460938 L 747.972656 561.460938 L 747.972656 423.273438 L 561.601563 423.273438 Z M 752.9375 566.425781 L 556.636719 566.425781 L 556.636719 418.308594 L 752.9375 418.308594 Z M 752.9375 566.425781 "/>
<path style=" stroke:none;fill-rule:nonzero;fill:rgb(35.693359%,68.943787%,91.40625%);fill-opacity:1;" d="M 606.429688 491.136719 C 602.628906 491.136719 599.03125 490.234375 595.847656 488.621094 C 590.996094 486.175781 587.105469 482.101563 584.886719 477.117188 C 584.738281 476.78125 584.597656 476.445313 584.464844 476.101563 C 583.429688 473.457031 582.863281 470.578125 582.863281 467.570313 C 582.863281 454.574219 593.433594 444 606.429688 444 C 606.78125 444 607.132813 444.007813 607.476563 444.027344 C 616.609375 444.429688 624.410156 450.046875 627.957031 457.972656 C 629.269531 460.902344 629.996094 464.152344 629.996094 467.570313 C 629.996094 480.5625 619.425781 491.136719 606.429688 491.136719 M 635.195313 452.890625 C 629.988281 442.734375 619.558594 435.679688 607.476563 435.289063 C 607.128906 435.28125 606.78125 435.273438 606.429688 435.273438 C 588.625 435.273438 574.132813 449.761719 574.132813 467.570313 C 574.132813 471.917969 575 476.066406 576.566406 479.855469 C 576.726563 480.25 576.898438 480.640625 577.078125 481.023438 C 580.21875 487.863281 585.6875 493.421875 592.457031 496.679688 C 596.691406 498.71875 601.429688 499.867188 606.429688 499.867188 C 624.238281 499.867188 638.726563 485.375 638.726563 467.570313 C 638.726563 462.285156 637.453125 457.296875 635.195313 452.890625 "/>
<path style=" stroke:none;fill-rule:nonzero;fill:rgb(53.318787%,93.359375%,83.984375%);fill-opacity:1;" d="M 607.476563 435.289063 L 607.476563 444.027344 C 607.132813 444.007813 606.78125 444 606.429688 444 C 593.433594 444 582.863281 454.574219 582.863281 467.570313 C 582.863281 470.964844 583.585938 474.199219 584.886719 477.117188 L 577.078125 481.023438 C 575.1875 476.925781 574.132813 472.371094 574.132813 467.570313 C 574.132813 449.761719 588.625 435.273438 606.429688 435.273438 C 606.78125 435.273438 607.128906 435.28125 607.476563 435.289063 "/>
<path style=" stroke:none;fill-rule:nonzero;fill:rgb(96.09375%,70.117188%,64.256287%);fill-opacity:1;" d="M 635.191406 452.890625 L 627.953125 457.972656 C 624.273438 449.746094 616.007813 444 606.429688 444 L 606.429688 435.273438 C 618.953125 435.273438 629.839844 442.441406 635.191406 452.890625 "/>
<path style=" stroke:none;fill-rule:nonzero;fill:rgb(53.318787%,93.359375%,83.984375%);fill-opacity:1;" d="M 677.308594 448.800781 C 677.308594 451.503906 675.121094 453.691406 672.421875 453.691406 C 669.71875 453.691406 667.53125 451.503906 667.53125 448.800781 C 667.53125 446.101563 669.71875 443.914063 672.421875 443.914063 C 675.121094 443.914063 677.308594 446.101563 677.308594 448.800781 "/>
<path style=" stroke:none;fill-rule:nonzero;fill:rgb(53.318787%,93.359375%,83.984375%);fill-opacity:1;" d="M 687.433594 451.070313 L 729.679688 451.070313 L 729.679688 446.53125 L 687.433594 446.53125 Z M 687.433594 451.070313 "/>
<path style=" stroke:none;fill-rule:nonzero;fill:rgb(96.09375%,70.117188%,64.256287%);fill-opacity:1;" d="M 677.308594 464.863281 C 677.308594 467.5625 675.121094 469.75 672.421875 469.75 C 669.71875 469.75 667.53125 467.5625 667.53125 464.863281 C 667.53125 462.164063 669.71875 459.976563 672.421875 459.976563 C 675.121094 459.976563 677.308594 462.164063 677.308594 464.863281 "/>
<path style=" stroke:none;fill-rule:nonzero;fill:rgb(96.09375%,70.117188%,64.256287%);fill-opacity:1;" d="M 687.433594 467.132813 L 729.679688 467.132813 L 729.679688 462.59375 L 687.433594 462.59375 Z M 687.433594 467.132813 "/>
<path style=" stroke:none;fill-rule:nonzero;fill:rgb(35.693359%,68.943787%,91.40625%);fill-opacity:1;" d="M 677.308594 480.925781 C 677.308594 483.625 675.121094 485.8125 672.421875 485.8125 C 669.71875 485.8125 667.53125 483.625 667.53125 480.925781 C 667.53125 478.222656 669.71875 476.035156 672.421875 476.035156 C 675.121094 476.035156 677.308594 478.222656 677.308594 480.925781 "/>
<path style=" stroke:none;fill-rule:nonzero;fill:rgb(35.693359%,68.943787%,91.40625%);fill-opacity:1;" d="M 687.433594 483.195313 L 729.679688 483.195313 L 729.679688 478.65625 L 687.433594 478.65625 Z M 687.433594 483.195313 "/>
<path style=" stroke:none;fill-rule:nonzero;fill:rgb(35.693359%,68.943787%,91.40625%);fill-opacity:1;" d="M 586.207031 549.792969 C 586.207031 549.792969 618.476563 515.226563 644.664063 540.367188 L 698.78125 526.050781 C 698.78125 526.050781 715.335938 521.8125 726.1875 538.246094 C 727.921875 540.871094 731.253906 546.300781 739.28125 549.792969 "/>
<g clip-path="url(#clip1)" clip-rule="nonzero">
<use xlink:href="#surface4" transform="matrix(1,0,0,1,569,510)" mask="url(#mask0)"/>
</g>
<path style=" stroke:none;fill-rule:nonzero;fill:rgb(100%,100%,100%);fill-opacity:1;" d="M 370.632813 349.242188 L 605.648438 349.242188 L 605.648438 2.484375 L 370.632813 2.484375 Z M 370.632813 349.242188 "/>
<path style=" stroke:none;fill-rule:nonzero;fill:rgb(0%,0%,0%);fill-opacity:1;" d="M 373.117188 346.757813 L 603.164063 346.757813 L 603.164063 4.96875 L 373.117188 4.96875 Z M 608.132813 351.722656 L 368.152344 351.722656 L 368.152344 0.00390625 L 608.132813 0.00390625 Z M 608.132813 351.722656 "/>
<path style=" stroke:none;fill-rule:nonzero;fill:rgb(100%,100%,100%);fill-opacity:1;" d="M 525.484375 117.207031 C 523.535156 131.457031 513.949219 142.828125 501.425781 147.757813 C 496.40625 149.734375 490.90625 150.675781 485.25 150.347656 C 484.78125 150.320313 484.308594 150.285156 483.839844 150.242188 C 483.300781 150.1875 482.765625 150.136719 482.21875 150.054688 C 470.441406 148.441406 460.621094 141.613281 454.796875 132.222656 C 453.199219 129.648438 451.894531 126.882813 450.9375 123.984375 C 449.164063 118.609375 448.550781 112.761719 449.367188 106.785156 C 450.316406 99.894531 453.050781 93.671875 457.039063 88.515625 C 465.179688 78.015625 478.554688 72.011719 492.636719 73.9375 C 513.621094 76.808594 528.359375 96.222656 525.484375 117.207031 M 498.027344 34.488281 C 471.050781 30.800781 445.351563 41.398438 428.597656 60.46875 C 418.816406 71.605469 412.078125 85.636719 409.921875 101.394531 C 407.855469 116.496094 410.269531 131.199219 416.148438 144.15625 C 417.335938 146.78125 418.664063 149.347656 420.136719 151.820313 C 431.890625 171.648438 452.25 186.140625 476.816406 189.503906 C 477.179688 189.554688 477.542969 189.597656 477.90625 189.644531 C 478.554688 189.722656 479.203125 189.796875 479.839844 189.855469 C 494.847656 191.328125 509.355469 188.410156 522.046875 182.113281 C 544.519531 170.976563 561.289063 149.265625 564.933594 122.609375 C 570.777344 79.871094 540.765625 40.335938 498.027344 34.488281 "/>
<path style=" stroke:none;fill-rule:nonzero;fill:rgb(0%,0%,0%);fill-opacity:1;" d="M 487.488281 75.65625 C 476.34375 75.65625 465.625 80.824219 458.675781 89.785156 C 454.796875 94.792969 452.285156 100.769531 451.417969 107.070313 C 450.664063 112.589844 451.164063 118.0625 452.902344 123.335938 C 453.796875 126.046875 455.027344 128.671875 456.554688 131.132813 C 462.292969 140.382813 471.75 146.53125 482.5 148.007813 C 483.03125 148.085938 483.535156 148.132813 484.042969 148.183594 C 484.480469 148.222656 484.921875 148.257813 485.367188 148.28125 C 490.625 148.585938 495.769531 147.765625 500.667969 145.835938 C 512.933594 141.003906 521.65625 129.925781 523.4375 116.925781 C 524.753906 107.324219 522.238281 97.773438 516.359375 90.03125 C 510.484375 82.289063 501.957031 77.300781 492.355469 75.988281 C 490.730469 75.765625 489.105469 75.65625 487.488281 75.65625 M 487.5 152.480469 C 486.714844 152.480469 485.921875 152.460938 485.132813 152.414063 C 484.640625 152.386719 484.144531 152.347656 483.644531 152.300781 C 483.066406 152.242188 482.503906 152.1875 481.921875 152.101563 C 469.960938 150.464844 459.429688 143.613281 453.039063 133.3125 C 451.339844 130.574219 449.972656 127.652344 448.972656 124.632813 C 447.035156 118.757813 446.480469 112.660156 447.320313 106.507813 C 448.285156 99.488281 451.082031 92.832031 455.402344 87.25 C 464.265625 75.824219 478.636719 69.933594 492.917969 71.886719 C 503.613281 73.351563 513.109375 78.90625 519.65625 87.53125 C 526.203125 96.152344 529 106.792969 527.535156 117.488281 C 525.554688 131.96875 515.839844 144.304688 502.183594 149.683594 C 497.464844 151.542969 492.53125 152.480469 487.5 152.480469 M 487.394531 35.835938 C 465.644531 35.835938 444.800781 45.160156 430.152344 61.832031 C 420.285156 73.066406 414 86.84375 411.972656 101.675781 C 410.027344 115.886719 412.121094 130.28125 418.03125 143.300781 C 419.199219 145.886719 420.507813 148.394531 421.917969 150.761719 C 433.859375 170.917969 453.972656 184.289063 477.097656 187.453125 C 477.464844 187.507813 477.808594 187.546875 478.15625 187.589844 C 478.789063 187.667969 479.421875 187.738281 480.039063 187.800781 C 494.1875 189.1875 508.394531 186.578125 521.125 180.261719 C 543.855469 168.996094 559.464844 147.339844 562.882813 122.328125 C 568.574219 80.714844 539.355469 42.230469 497.75 36.539063 C 494.289063 36.066406 490.832031 35.835938 487.394531 35.835938 M 487.457031 192.300781 C 484.855469 192.300781 482.246094 192.171875 479.640625 191.914063 C 478.984375 191.851563 478.320313 191.78125 477.65625 191.699219 C 477.277344 191.652344 476.898438 191.605469 476.519531 191.550781 C 452.152344 188.214844 430.945313 174.117188 418.359375 152.875 C 416.875 150.378906 415.496094 147.730469 414.261719 145.011719 C 408.03125 131.28125 405.820313 116.101563 407.871094 101.113281 C 410.011719 85.476563 416.640625 70.949219 427.046875 59.101563 C 444.925781 38.75 471.5625 28.785156 498.308594 32.441406 C 542.175781 38.441406 572.984375 79.015625 566.984375 122.886719 C 563.378906 149.261719 546.921875 172.09375 522.964844 183.96875 C 511.882813 189.464844 499.742188 192.300781 487.457031 192.300781 "/>
<path style=" stroke:none;fill-rule:nonzero;fill:rgb(96.09375%,70.117188%,64.256287%);fill-opacity:1;" d="M 522.046875 182.113281 C 509.355469 188.410156 494.847656 191.328125 479.839844 189.855469 C 479.203125 189.796875 478.554688 189.722656 477.90625 189.644531 L 483.839844 150.242188 C 484.3125 150.285156 484.78125 150.320313 485.25 150.347656 C 490.910156 150.675781 496.40625 149.738281 501.425781 147.757813 "/>
<path style=" stroke:none;fill-rule:nonzero;fill:rgb(0%,0%,0%);fill-opacity:1;" d="M 480.273438 187.820313 C 493.597656 189.085938 506.964844 186.8125 519.101563 181.230469 L 500.535156 150.292969 C 495.722656 151.953125 490.703125 152.679688 485.601563 152.4375 Z M 487.457031 192.300781 C 484.855469 192.300781 482.246094 192.171875 479.640625 191.914063 C 478.984375 191.851563 478.320313 191.777344 477.65625 191.695313 L 475.546875 191.4375 L 482.085938 147.996094 L 484.035156 148.183594 C 484.480469 148.222656 484.921875 148.257813 485.367188 148.28125 C 490.625 148.585938 495.769531 147.765625 500.667969 145.835938 L 502.300781 145.191406 L 524.972656 182.972656 L 522.964844 183.96875 C 511.882813 189.464844 499.742188 192.300781 487.457031 192.300781 "/>
<path style=" stroke:none;fill-rule:nonzero;fill:rgb(53.318787%,93.359375%,83.984375%);fill-opacity:1;" d="M 416.148438 144.160156 L 450.941406 123.976563 C 451.898438 126.878906 453.195313 129.648438 454.796875 132.222656 C 460.628906 141.613281 470.4375 148.441406 482.21875 150.054688 C 483.234375 150.195313 484.242188 150.289063 485.253906 150.347656 L 479.84375 189.859375 C 478.835938 189.761719 477.832031 189.640625 476.820313 189.503906 C 452.253906 186.140625 431.894531 171.648438 420.132813 151.816406 C 418.667969 149.34375 417.335938 146.785156 416.148438 144.160156 "/>
<path style=" stroke:none;fill-rule:nonzero;fill:rgb(0%,0%,0%);fill-opacity:1;" d="M 418.824219 145 C 419.765625 146.957031 420.804688 148.886719 421.914063 150.761719 C 433.863281 170.914063 453.980469 184.289063 477.101563 187.453125 C 477.421875 187.5 477.746094 187.539063 478.066406 187.582031 L 482.90625 152.222656 C 482.582031 152.1875 482.257813 152.148438 481.9375 152.105469 C 469.96875 150.464844 459.433594 143.617188 453.039063 133.3125 C 451.789063 131.304688 450.722656 129.191406 449.84375 127.007813 Z M 481.625 192.117188 L 479.640625 191.921875 C 478.613281 191.816406 477.570313 191.695313 476.539063 191.554688 C 452.160156 188.21875 430.953125 174.117188 418.355469 152.871094 C 416.847656 150.328125 415.46875 147.683594 414.261719 145.011719 L 413.492188 143.308594 L 452.109375 120.910156 L 452.90625 123.332031 C 453.804688 126.054688 455.03125 128.679688 456.554688 131.128906 C 462.296875 140.382813 471.753906 146.535156 482.5 148.003906 C 483.449219 148.136719 484.386719 148.226563 485.371094 148.28125 L 487.605469 148.410156 "/>
<path style=" stroke:none;fill-rule:nonzero;fill:rgb(35.693359%,68.943787%,91.40625%);fill-opacity:1;" d="M 409.921875 101.390625 C 412.078125 85.632813 418.8125 71.605469 428.597656 60.46875 L 457.039063 88.519531 C 453.046875 93.667969 450.3125 99.894531 449.371094 106.789063 C 448.109375 115.988281 450.238281 124.890625 454.796875 132.222656 L 420.132813 151.816406 C 411.429688 137.152344 407.433594 119.5625 409.921875 101.390625 "/>
<path style=" stroke:none;fill-rule:nonzero;fill:rgb(0%,0%,0%);fill-opacity:1;" d="M 411.96875 101.671875 C 409.710938 118.195313 412.796875 134.515625 420.902344 149.007813 L 451.953125 131.453125 C 447.785156 123.875 446.144531 115.097656 447.320313 106.507813 C 448.195313 100.101563 450.601563 93.996094 454.308594 88.734375 L 428.730469 63.503906 C 419.683594 74.414063 413.902344 87.566406 411.96875 101.671875 M 419.390625 154.613281 L 418.355469 152.875 C 409.015625 137.140625 405.390625 119.242188 407.871094 101.109375 C 410.011719 85.472656 416.640625 70.945313 427.046875 59.101563 L 428.492188 57.457031 L 459.796875 88.335938 L 458.671875 89.789063 C 454.789063 94.796875 452.28125 100.773438 451.417969 107.070313 C 450.277344 115.417969 452.101563 123.964844 456.554688 131.128906 L 457.691406 132.960938 "/>
<path style=" stroke:none;fill-rule:nonzero;fill:rgb(100%,100%,100%);fill-opacity:1;" d="M 397.359375 321.492188 L 579.160156 321.492188 L 579.160156 218.289063 L 397.359375 218.289063 Z M 397.359375 321.492188 "/>
<path style=" stroke:none;fill-rule:nonzero;fill:rgb(0%,0%,0%);fill-opacity:1;" d="M 399.839844 319.011719 L 576.679688 319.011719 L 576.679688 220.769531 L 399.839844 220.769531 Z M 581.644531 323.976563 L 394.878906 323.976563 L 394.878906 215.808594 L 581.644531 215.808594 Z M 581.644531 323.976563 "/>
<path style=" stroke:none;fill-rule:nonzero;fill:rgb(100%,100%,100%);fill-opacity:1;" d="M 414.503906 259.433594 L 436.015625 259.433594 L 436.015625 237.917969 L 414.503906 237.917969 Z M 414.503906 259.433594 "/>
<path style=" stroke:none;fill-rule:nonzero;fill:rgb(0%,0%,0%);fill-opacity:1;" d="M 416.570313 257.363281 L 433.949219 257.363281 L 433.949219 239.988281 L 416.570313 239.988281 Z M 438.085938 261.503906 L 412.433594 261.503906 L 412.433594 235.851563 L 438.085938 235.851563 Z M 438.085938 261.503906 "/>
<path style=" stroke:none;fill-rule:nonzero;fill:rgb(35.693359%,68.943787%,91.40625%);fill-opacity:1;" d="M 457.53125 259.433594 L 479.046875 259.433594 L 479.046875 237.917969 L 457.53125 237.917969 Z M 457.53125 259.433594 "/>
<path style=" stroke:none;fill-rule:nonzero;fill:rgb(0%,0%,0%);fill-opacity:1;" d="M 459.601563 257.363281 L 476.976563 257.363281 L 476.976563 239.988281 L 459.601563 239.988281 Z M 481.113281 261.503906 L 455.460938 261.503906 L 455.460938 235.851563 L 481.113281 235.851563 Z M 481.113281 261.503906 "/>
<path style=" stroke:none;fill-rule:nonzero;fill:rgb(53.318787%,93.359375%,83.984375%);fill-opacity:1;" d="M 503.042969 259.433594 L 524.554688 259.433594 L 524.554688 237.917969 L 503.042969 237.917969 Z M 503.042969 259.433594 "/>
<path style=" stroke:none;fill-rule:nonzero;fill:rgb(0%,0%,0%);fill-opacity:1;" d="M 505.109375 257.363281 L 522.488281 257.363281 L 522.488281 239.988281 L 505.109375 239.988281 Z M 526.625 261.503906 L 500.972656 261.503906 L 500.972656 235.851563 L 526.625 235.851563 Z M 526.625 261.503906 "/>
<path style=" stroke:none;fill-rule:nonzero;fill:rgb(96.09375%,70.117188%,64.256287%);fill-opacity:1;" d="M 542.761719 259.433594 L 564.273438 259.433594 L 564.273438 237.917969 L 542.761719 237.917969 Z M 542.761719 259.433594 "/>
<path style=" stroke:none;fill-rule:nonzero;fill:rgb(0%,0%,0%);fill-opacity:1;" d="M 544.828125 257.363281 L 562.207031 257.363281 L 562.207031 239.988281 L 544.828125 239.988281 Z M 566.34375 261.503906 L 540.691406 261.503906 L 540.691406 235.851563 L 566.34375 235.851563 Z M 566.34375 261.503906 "/>
<path style=" stroke:none;fill-rule:nonzero;fill:rgb(0%,0%,0%);fill-opacity:1;" d="M 414.503906 276.394531 L 492.285156 276.394531 L 492.285156 272.257813 L 414.503906 272.257813 Z M 414.503906 276.394531 "/>
<path style=" stroke:none;fill-rule:nonzero;fill:rgb(0%,0%,0%);fill-opacity:1;" d="M 414.503906 291.289063 L 564.273438 291.289063 L 564.273438 287.152344 L 414.503906 287.152344 Z M 414.503906 291.289063 "/>
<path style=" stroke:none;fill-rule:nonzero;fill:rgb(0%,0%,0%);fill-opacity:1;" d="M 414.503906 306.1875 L 564.273438 306.1875 L 564.273438 302.050781 L 414.503906 302.050781 Z M 414.503906 306.1875 "/>
<path style=" stroke:none;fill-rule:nonzero;fill:rgb(100%,100%,100%);fill-opacity:1;" d="M 210.738281 155.378906 L 327.410156 155.378906 L 327.410156 73.460938 L 210.738281 73.460938 Z M 210.738281 155.378906 "/>
<path style=" stroke:none;fill-rule:nonzero;fill:rgb(0%,0%,0%);fill-opacity:1;" d="M 213.222656 152.898438 L 324.929688 152.898438 L 324.929688 75.941406 L 213.222656 75.941406 Z M 329.894531 157.863281 L 208.257813 157.863281 L 208.257813 70.976563 L 329.894531 70.976563 Z M 329.894531 157.863281 "/>
<path style=" stroke:none;fill-rule:nonzero;fill:rgb(0%,0%,0%);fill-opacity:1;" d="M 227.699219 100.765625 L 267.417969 100.765625 L 267.417969 96.628906 L 227.699219 96.628906 Z M 227.699219 100.765625 "/>
<path style=" stroke:none;fill-rule:nonzero;fill:rgb(0%,0%,0%);fill-opacity:1;" d="M 227.703125 116.488281 L 310.449219 116.488281 L 310.449219 112.351563 L 227.703125 112.351563 Z M 227.703125 116.488281 "/>
<path style=" stroke:none;fill-rule:nonzero;fill:rgb(0%,0%,0%);fill-opacity:1;" d="M 227.703125 132.210938 L 310.449219 132.210938 L 310.449219 128.070313 L 227.703125 128.070313 Z M 227.703125 132.210938 "/>
<path style=" stroke:none;fill-rule:nonzero;fill:rgb(100%,100%,100%);fill-opacity:1;" d="M 636.886719 357.902344 L 831.339844 357.902344 L 831.339844 129.519531 L 636.886719 129.519531 Z M 636.886719 357.902344 "/>
<path style=" stroke:none;fill-rule:nonzero;fill:rgb(0%,0%,0%);fill-opacity:1;" d="M 639.367188 355.421875 L 828.859375 355.421875 L 828.859375 132.003906 L 639.367188 132.003906 Z M 833.824219 360.386719 L 634.402344 360.386719 L 634.402344 127.039063 L 833.824219 127.039063 Z M 833.824219 360.386719 "/>
<path style=" stroke:none;fill-rule:nonzero;fill:rgb(0%,0%,0%);fill-opacity:1;" d="M 669.570313 189.097656 L 798.65625 189.097656 L 798.65625 165.101563 L 669.570313 165.101563 Z M 802.792969 193.234375 L 665.433594 193.234375 L 665.433594 160.964844 L 802.792969 160.964844 Z M 802.792969 193.234375 "/>
<path style=" stroke:none;fill-rule:nonzero;fill:rgb(0%,0%,0%);fill-opacity:1;" d="M 669.984375 227.78125 L 798.242188 227.78125 L 798.242188 223.644531 L 669.984375 223.644531 Z M 669.984375 227.78125 "/>
<path style=" stroke:none;fill-rule:nonzero;fill:rgb(100%,100%,100%);fill-opacity:1;" d="M 736.386719 225.507813 C 736.386719 231.449219 731.570313 236.265625 725.632813 236.265625 C 719.691406 236.265625 714.875 231.449219 714.875 225.507813 C 714.875 219.566406 719.691406 214.75 725.632813 214.75 C 731.570313 214.75 736.386719 219.566406 736.386719 225.507813 "/>
<path style=" stroke:none;fill-rule:nonzero;fill:rgb(0%,0%,0%);fill-opacity:1;" d="M 725.632813 216.820313 C 720.839844 216.820313 716.941406 220.71875 716.941406 225.507813 C 716.941406 230.296875 720.839844 234.195313 725.632813 234.195313 C 730.421875 234.195313 734.320313 230.296875 734.320313 225.507813 C 734.320313 220.71875 730.421875 216.820313 725.632813 216.820313 M 725.632813 238.332031 C 718.558594 238.332031 712.804688 232.578125 712.804688 225.507813 C 712.804688 218.433594 718.558594 212.683594 725.632813 212.683594 C 732.703125 212.683594 738.457031 218.433594 738.457031 225.507813 C 738.457031 232.578125 732.703125 238.332031 725.632813 238.332031 "/>
<path style=" stroke:none;fill-rule:nonzero;fill:rgb(0%,0%,0%);fill-opacity:1;" d="M 669.984375 260.054688 L 798.242188 260.054688 L 798.242188 255.917969 L 669.984375 255.917969 Z M 669.984375 260.054688 "/>
<path style=" stroke:none;fill-rule:nonzero;fill:rgb(35.693359%,68.943787%,91.40625%);fill-opacity:1;" d="M 777.761719 257.777344 C 777.761719 263.71875 772.945313 268.535156 767.003906 268.535156 C 761.0625 268.535156 756.246094 263.71875 756.246094 257.777344 C 756.246094 251.839844 761.0625 247.023438 767.003906 247.023438 C 772.945313 247.023438 777.761719 251.839844 777.761719 257.777344 "/>
<path style=" stroke:none;fill-rule:nonzero;fill:rgb(0%,0%,0%);fill-opacity:1;" d="M 767.003906 249.089844 C 762.214844 249.089844 758.316406 252.988281 758.316406 257.777344 C 758.316406 262.570313 762.214844 266.46875 767.003906 266.46875 C 771.796875 266.46875 775.691406 262.570313 775.691406 257.777344 C 775.691406 252.988281 771.796875 249.089844 767.003906 249.089844 M 767.003906 270.605469 C 759.933594 270.605469 754.179688 264.851563 754.179688 257.777344 C 754.179688 250.707031 759.933594 244.953125 767.003906 244.953125 C 774.078125 244.953125 779.832031 250.707031 779.832031 257.777344 C 779.832031 264.851563 774.078125 270.605469 767.003906 270.605469 "/>
<path style=" stroke:none;fill-rule:nonzero;fill:rgb(0%,0%,0%);fill-opacity:1;" d="M 669.984375 292.324219 L 798.242188 292.324219 L 798.242188 288.1875 L 669.984375 288.1875 Z M 669.984375 292.324219 "/>
<path style=" stroke:none;fill-rule:nonzero;fill:rgb(53.318787%,93.359375%,83.984375%);fill-opacity:1;" d="M 717.355469 290.050781 C 717.355469 295.992188 712.539063 300.808594 706.597656 300.808594 C 700.65625 300.808594 695.84375 295.992188 695.84375 290.050781 C 695.84375 284.109375 700.65625 279.292969 706.597656 279.292969 C 712.539063 279.292969 717.355469 284.109375 717.355469 290.050781 "/>
<path style=" stroke:none;fill-rule:nonzero;fill:rgb(0%,0%,0%);fill-opacity:1;" d="M 706.601563 281.359375 C 701.808594 281.359375 697.910156 285.257813 697.910156 290.050781 C 697.910156 294.839844 701.808594 298.738281 706.601563 298.738281 C 711.390625 298.738281 715.289063 294.839844 715.289063 290.050781 C 715.289063 285.257813 711.390625 281.359375 706.601563 281.359375 M 706.601563 302.875 C 699.527344 302.875 693.773438 297.121094 693.773438 290.050781 C 693.773438 282.976563 699.527344 277.222656 706.601563 277.222656 C 713.671875 277.222656 719.425781 282.976563 719.425781 290.050781 C 719.425781 297.121094 713.671875 302.875 706.601563 302.875 "/>
<path style=" stroke:none;fill-rule:nonzero;fill:rgb(0%,0%,0%);fill-opacity:1;" d="M 669.984375 325.425781 L 798.242188 325.425781 L 798.242188 321.285156 L 669.984375 321.285156 Z M 669.984375 325.425781 "/>
<path style=" stroke:none;fill-rule:nonzero;fill:rgb(96.09375%,70.117188%,64.256287%);fill-opacity:1;" d="M 748.800781 323.148438 C 748.800781 329.089844 743.984375 333.90625 738.042969 333.90625 C 732.101563 333.90625 727.285156 329.089844 727.285156 323.148438 C 727.285156 317.207031 732.101563 312.390625 738.042969 312.390625 C 743.984375 312.390625 748.800781 317.207031 748.800781 323.148438 "/>
<path style=" stroke:none;fill-rule:nonzero;fill:rgb(0%,0%,0%);fill-opacity:1;" d="M 738.042969 314.460938 C 733.253906 314.460938 729.355469 318.359375 729.355469 323.148438 C 729.355469 327.9375 733.253906 331.835938 738.042969 331.835938 C 742.835938 331.835938 746.730469 327.9375 746.730469 323.148438 C 746.730469 318.359375 742.835938 314.460938 738.042969 314.460938 M 738.042969 335.972656 C 730.972656 335.972656 725.21875 330.222656 725.21875 323.148438 C 725.21875 316.074219 730.972656 310.320313 738.042969 310.320313 C 745.117188 310.320313 750.871094 316.074219 750.871094 323.148438 C 750.871094 330.222656 745.117188 335.972656 738.042969 335.972656 "/>
<path style=" stroke:none;fill-rule:nonzero;fill:rgb(0%,0%,0%);fill-opacity:1;" d="M 832.046875 359.78125 L 880.660156 412.597656 L 857.191406 441.09375 L 773.375 359.78125 Z M 832.046875 359.78125 "/>
<path style=" stroke:none;fill-rule:nonzero;fill:rgb(14.109802%,38.426208%,96.484375%);fill-opacity:1;" d="M 1052.480469 571.007813 C 1052.480469 571.007813 1046.050781 604.261719 946.871094 607.050781 C 927.203125 607.601563 894.90625 602.019531 876.46875 571.847656 L 884.851563 543.347656 L 1036.558594 515.691406 "/>
<path style=" stroke:none;fill-rule:nonzero;fill:rgb(0%,0%,0%);fill-opacity:1;" d="M 1025.691406 531.613281 C 1025.691406 531.613281 1031.488281 531.867188 1041.390625 585.285156 L 1052.058594 665.71875 L 960.609375 665.71875 L 915.941406 531.613281 "/>
<path style=" stroke:none;fill-rule:nonzero;fill:rgb(0%,0%,0%);fill-opacity:1;" d="M 893.230469 541.671875 C 893.230469 541.671875 878.144531 614.59375 872.203125 665.722656 L 993.378906 665.722656 L 981.183594 535.597656 "/>
<g clip-path="url(#clip4)" clip-rule="nonzero">
<path style=" stroke:none;fill-rule:nonzero;fill:rgb(100%,100%,100%);fill-opacity:1;" d="M 958.65625 666.40625 L 930.671875 586.78125 L 934.574219 585.410156 L 962.558594 665.035156 Z M 958.65625 666.40625 "/>
</g>
<path style=" stroke:none;fill-rule:nonzero;fill:rgb(100%,100%,100%);fill-opacity:1;" d="M 973.199219 364.921875 L 968.316406 308.628906 L 962.445313 260.503906 L 914.519531 262.410156 C 914.519531 262.410156 886.085938 332.199219 929.210938 327.03125 L 928.285156 367.691406 "/>
<path style=" stroke:none;fill-rule:nonzero;fill:rgb(17.651367%,17.651367%,46.263123%);fill-opacity:1;" d="M 929.210938 324.960938 C 929.722656 324.960938 930.21875 325.152344 930.601563 325.5 C 931.042969 325.902344 931.289063 326.476563 931.277344 327.078125 L 930.40625 365.488281 L 970.953125 362.984375 L 966.257813 308.808594 L 960.621094 262.648438 L 915.957031 264.421875 C 913.3125 271.378906 901.039063 305.847656 911.539063 319.613281 C 915.046875 324.207031 920.746094 325.964844 928.964844 324.976563 C 929.046875 324.96875 929.128906 324.960938 929.210938 324.960938 M 928.285156 369.761719 C 927.753906 369.761719 927.238281 369.554688 926.851563 369.179688 C 926.433594 368.78125 926.203125 368.222656 926.21875 367.644531 L 927.089844 329.300781 C 918.605469 329.828125 912.289063 327.417969 908.25 322.121094 C 895.171875 304.980469 911.886719 263.390625 912.605469 261.628906 C 912.910156 260.878906 913.628906 260.375 914.4375 260.34375 L 962.359375 258.4375 C 963.457031 258.390625 964.367188 259.1875 964.496094 260.253906 L 970.371094 308.378906 L 975.261719 364.742188 C 975.308594 365.296875 975.128906 365.847656 974.765625 366.269531 C 974.402344 366.691406 973.882813 366.949219 973.328125 366.984375 L 928.414063 369.753906 C 928.371094 369.757813 928.328125 369.761719 928.285156 369.761719 "/>
<path style=" stroke:none;fill-rule:nonzero;fill:rgb(0%,0%,0%);fill-opacity:1;" d="M 895.589844 260.035156 C 894.207031 250.652344 909.835938 250.300781 909.835938 250.300781 C 905.289063 248.949219 903.96875 246.300781 904.34375 244.304688 C 906.570313 232.484375 928.628906 241.921875 928.628906 241.921875 C 926.027344 236.542969 931.179688 236.277344 931.179688 236.277344 C 939.632813 235.945313 954.207031 242.757813 964.277344 248.109375 C 967.785156 248.445313 1011.769531 253.960938 971.402344 316.34375 C 971.402344 316.34375 957.632813 319.988281 957.550781 295.808594 C 957.550781 295.808594 965.195313 284.257813 954.53125 281.542969 C 952.5 281.027344 950.363281 281.796875 949.0625 283.441406 C 947.289063 285.683594 946.269531 287.652344 945.710938 288.964844 C 945.277344 289.980469 944.265625 290.613281 943.160156 290.566406 C 941.699219 290.503906 940.566406 289.265625 940.632813 287.800781 L 941.054688 278.273438 C 921.726563 276.304688 897.28125 271.511719 895.589844 260.035156 "/>
<path style=" stroke:none;fill-rule:nonzero;fill:rgb(17.651367%,17.651367%,46.263123%);fill-opacity:1;" d="M 764.152344 393.316406 C 764.152344 393.316406 760.511719 381.609375 777.421875 356.871094 C 777.421875 356.871094 789.300781 345.542969 796.003906 344.703125 L 807.738281 359.792969 L 780.917969 403.375 "/>
<path style=" stroke:none;fill-rule:nonzero;fill:rgb(100%,100%,100%);fill-opacity:1;" d="M 802.710938 363.261719 L 784.3125 401.019531 L 769.636719 369.222656 L 769.628906 369.203125 L 766.886719 363.261719 L 739.769531 348.738281 L 730.089844 334.210938 C 736.871094 331.3125 748.488281 340.019531 748.488281 340.019531 L 756.234375 338.085938 L 754.011719 331.296875 L 749.066406 316.207031 L 736.871094 311.046875 C 730.308594 310.609375 726.859375 308.199219 725.054688 305.6875 C 723.230469 303.152344 725.285156 299.644531 728.394531 299.929688 L 755.976563 302.433594 C 758.480469 302.660156 760.71875 304.078125 761.996094 306.246094 L 779.242188 335.484375 "/>
<path style=" stroke:none;fill-rule:nonzero;fill:rgb(17.651367%,17.651367%,46.263123%);fill-opacity:1;" d="M 741.203125 347.15625 L 767.863281 361.4375 C 768.261719 361.652344 768.574219 361.988281 768.765625 362.394531 L 784.363281 396.195313 L 800.261719 363.566406 L 777.660156 336.820313 C 777.585938 336.730469 777.519531 336.636719 777.460938 336.535156 L 760.214844 307.296875 C 759.277344 305.710938 757.621094 304.660156 755.789063 304.496094 L 728.207031 301.988281 C 727.246094 301.902344 726.777344 302.589844 726.65625 302.804688 C 726.503906 303.066406 726.214844 303.753906 726.730469 304.476563 C 728.648438 307.140625 732.105469 308.65625 737.007813 308.980469 C 737.238281 308.996094 737.464844 309.050781 737.679688 309.140625 L 749.871094 314.304688 C 750.421875 314.535156 750.847656 314.996094 751.035156 315.5625 L 758.199219 337.441406 C 758.378906 337.988281 758.320313 338.582031 758.042969 339.085938 C 757.765625 339.585938 757.292969 339.949219 756.734375 340.089844 L 748.992188 342.027344 C 748.386719 342.179688 747.746094 342.050781 747.246094 341.675781 C 744.78125 339.828125 738.332031 335.835938 733.558594 335.683594 Z M 784.3125 403.089844 L 784.289063 403.089844 C 783.492188 403.082031 782.769531 402.613281 782.433594 401.886719 L 765.296875 364.757813 L 738.796875 350.558594 C 738.496094 350.398438 738.238281 350.167969 738.050781 349.882813 L 728.371094 335.359375 C 728.027344 334.847656 727.933594 334.210938 728.105469 333.621094 C 728.285156 333.03125 728.714844 332.550781 729.277344 332.308594 C 736.070313 329.40625 745.886719 335.65625 748.921875 337.78125 L 753.578125 336.617188 L 747.394531 317.746094 L 736.382813 313.085938 C 730.367188 312.617188 725.992188 310.535156 723.375 306.894531 C 722.0625 305.066406 721.941406 302.714844 723.0625 300.75 C 724.195313 298.765625 726.304688 297.65625 728.582031 297.867188 L 756.164063 300.375 C 759.320313 300.660156 762.167969 302.464844 763.777344 305.195313 L 780.933594 334.285156 L 804.289063 361.929688 C 804.820313 362.554688 804.929688 363.433594 804.570313 364.167969 L 786.171875 401.929688 C 785.824219 402.640625 785.101563 403.089844 784.3125 403.089844 "/>
<path style=" stroke:none;fill-rule:nonzero;fill:rgb(35.693359%,68.943787%,91.40625%);fill-opacity:1;" d="M 796.003906 344.703125 C 796.003906 344.703125 799.355469 360.628906 788.460938 376.554688 C 779.269531 389.984375 764.152344 393.316406 764.152344 393.316406 L 843.835938 480.050781 C 852.359375 489.328125 866.535156 490.605469 876.582031 483.003906 L 889.878906 472.945313 L 876.46875 571.847656 C 876.46875 571.847656 903.160156 551.082031 952.738281 547.539063 C 1034.878906 541.671875 1052.480469 571.007813 1052.480469 571.007813 C 1052.480469 571.007813 1036.578125 458.148438 1008.898438 379.070313 C 1003.03125 362.304688 990.457031 347.21875 981.839844 340.035156 C 977.949219 336.796875 973.390625 334.492188 968.472656 335.691406 L 929.28125 345.230469 C 919.941406 347.632813 911.40625 352.460938 904.539063 359.230469 L 858.867188 408.40625 "/>
<path style=" stroke:none;fill-rule:nonzero;fill:rgb(17.651367%,17.651367%,46.263123%);fill-opacity:1;" d="M 768.5625 363.261719 L 739.769531 348.738281 L 730.089844 334.210938 C 736.871094 331.3125 748.488281 340.019531 748.488281 340.019531 L 757.070313 335.570313 "/>
<path style=" stroke:none;fill-rule:nonzero;fill:rgb(0%,0%,0%);fill-opacity:1;" d="M 891.480469 472.609375 L 888.820313 469.441406 L 930.457031 434.480469 L 933.117188 437.648438 Z M 891.480469 472.609375 "/>
<path style=" stroke:none;fill-rule:nonzero;fill:rgb(17.651367%,17.651367%,46.263123%);fill-opacity:1;" d="M 385.539063 418.308594 C 385.539063 418.308594 406.230469 438.996094 392.160156 468.785156 L 377.269531 468.785156 L 372.300781 420.789063 "/>
<path style=" stroke:none;fill-rule:nonzero;fill:rgb(17.651367%,17.651367%,46.263123%);fill-opacity:1;" d="M 263.074219 582.972656 C 263.074219 582.972656 297.003906 579.664063 296.175781 539.945313 L 277.972656 527.535156 L 250.664063 568.078125 "/>
<path style=" stroke:none;fill-rule:nonzero;fill:rgb(100%,100%,100%);fill-opacity:1;" d="M 264.8125 518.605469 L 293.242188 546.695313 L 308.574219 557.460938 L 348.054688 589.347656 C 350.902344 591.648438 349.105469 596.234375 345.453125 596.003906 C 338.109375 595.539063 326.746094 594 315.75 585.875 C 315.75 585.875 300.8125 606.019531 289.253906 596.351563 C 289.253906 596.351563 278.503906 586.414063 275.9375 574.996094 L 245.960938 542.515625 "/>
<path style=" stroke:none;fill-rule:nonzero;fill:rgb(0%,0%,0%);fill-opacity:1;" d="M 290.621094 594.796875 C 292.640625 596.46875 294.832031 597.132813 297.332031 596.839844 C 305.664063 595.855469 314.007813 584.753906 314.089844 584.640625 L 315.320313 582.988281 L 316.980469 584.210938 C 327.484375 591.972656 338.335938 593.480469 345.585938 593.941406 C 346.734375 594.007813 347.164063 593.140625 347.269531 592.871094 C 347.371094 592.601563 347.644531 591.675781 346.753906 590.957031 L 307.328125 559.113281 L 291.789063 548.164063 L 265.003906 521.703125 L 248.679688 542.410156 L 277.832031 574 L 277.953125 574.542969 C 280.28125 584.894531 289.964844 594.175781 290.621094 594.796875 M 296.199219 601.046875 C 293.171875 601.046875 290.398438 600.003906 287.925781 597.9375 L 287.851563 597.871094 C 287.398438 597.453125 276.925781 587.667969 274.046875 576 L 243.246094 542.621094 L 264.621094 515.507813 L 294.574219 545.101563 L 309.875 555.851563 L 349.355469 587.738281 C 351.367188 589.363281 352.058594 591.964844 351.121094 594.371094 C 350.1875 596.78125 347.902344 598.230469 345.324219 598.070313 C 337.921875 597.601563 327.003906 596.101563 316.144531 588.691406 C 313.257813 592.132813 305.859375 599.996094 297.824219 600.949219 C 297.273438 601.011719 296.730469 601.046875 296.199219 601.046875 "/>
<path style=" stroke:none;fill-rule:nonzero;fill:rgb(0%,0%,0%);fill-opacity:1;" d="M 171.683594 528.746094 L 192.265625 664.894531 L 123.089844 664.894531 L 83.886719 518.105469 Z M 171.683594 528.746094 "/>
<path style=" stroke:none;fill-rule:nonzero;fill:rgb(0%,0%,0%);fill-opacity:1;" d="M 44.867188 498.59375 C 44.867188 498.59375 30.433594 545.824219 44.625 643.378906 L 45.277344 664.894531 L 123.320313 664.894531 L 137.984375 520.765625 "/>
<path style=" stroke:none;fill-rule:nonzero;fill:rgb(100%,100%,100%);fill-opacity:1;" d="M 216.039063 395.339844 L 228.1875 349.039063 C 228.1875 349.039063 266.421875 363.160156 254.574219 288.558594 L 195.125 291.632813 L 192.433594 333.878906 L 173.183594 381.429688 "/>
<path style=" stroke:none;fill-rule:nonzero;fill:rgb(17.651367%,17.651367%,46.263123%);fill-opacity:1;" d="M 175.933594 380.148438 L 214.597656 392.695313 L 226.1875 348.515625 C 226.335938 347.949219 226.71875 347.472656 227.234375 347.203125 C 227.753906 346.933594 228.359375 346.898438 228.90625 347.097656 C 229.28125 347.234375 238.257813 350.390625 245.464844 344.441406 C 251.765625 339.242188 258.082031 325.691406 252.816406 290.71875 L 197.074219 293.605469 L 194.496094 334.011719 C 194.480469 334.230469 194.433594 334.449219 194.351563 334.652344 Z M 216.042969 397.40625 C 215.828125 397.40625 215.613281 397.375 215.402344 397.304688 L 172.542969 383.398438 C 171.996094 383.21875 171.550781 382.824219 171.308594 382.304688 C 171.0625 381.78125 171.046875 381.183594 171.265625 380.652344 L 190.390625 333.410156 L 193.0625 291.503906 C 193.128906 290.453125 193.96875 289.621094 195.019531 289.570313 L 254.46875 286.492188 C 255.480469 286.425781 256.449219 287.1875 256.617188 288.234375 C 261.503906 318.996094 258.621094 338.996094 248.054688 347.667969 C 241.285156 353.226563 233.40625 352.425781 229.660156 351.59375 L 218.042969 395.863281 C 217.898438 396.414063 217.535156 396.878906 217.035156 397.152344 C 216.726563 397.320313 216.386719 397.40625 216.042969 397.40625 "/>
<path style=" stroke:none;fill-rule:nonzero;fill:rgb(0%,0%,0%);fill-opacity:1;" d="M 220.070313 306.992188 C 220.070313 306.992188 217.480469 295.398438 209.265625 300.421875 C 205.773438 302.554688 203.488281 310.402344 212.617188 316.4375 C 212.617188 316.4375 209.5625 334.761719 191.0625 331.78125 C 191.0625 331.78125 174.355469 303.132813 188.859375 279.371094 C 188.859375 279.371094 155.765625 279.0625 158.082031 249.503906 C 158.777344 240.625 168.414063 225.953125 187.429688 229.320313 C 196.84375 230.988281 212.519531 239.925781 207.054688 262.136719 C 207.054688 262.136719 251.660156 250.34375 258.644531 295.359375 C 258.644531 295.359375 239.539063 311.3125 220.070313 306.992188 "/>
<path style=" stroke:none;fill-rule:nonzero;fill:rgb(100%,100%,100%);fill-opacity:1;" d="M 365.683594 426.582031 L 389.285156 420.855469 L 404.054688 409.847656 L 427.152344 402.847656 C 429.921875 402.007813 432.386719 404.761719 431.289063 407.4375 C 429.722656 411.269531 426.871094 415.71875 421.824219 417.417969 C 421.824219 417.417969 443.226563 414.519531 453.507813 417.1875 C 456.121094 417.867188 457.53125 420.71875 456.511719 423.21875 C 454.558594 428.015625 448.832031 435.539063 432.03125 438.449219 L 405.3125 443.828125 L 378.09375 452.234375 "/>
<path style=" stroke:none;fill-rule:nonzero;fill:rgb(0%,0%,0%);fill-opacity:1;" d="M 368.660156 427.988281 L 379.183594 449.734375 L 404.703125 441.851563 C 404.769531 441.828125 404.839844 441.8125 404.90625 441.800781 L 431.621094 436.425781 C 447.808594 433.617188 452.960938 426.457031 454.597656 422.441406 C 454.859375 421.792969 454.828125 421.0625 454.515625 420.433594 C 454.199219 419.804688 453.65625 419.363281 452.984375 419.191406 C 443.214844 416.652344 422.3125 419.4375 422.101563 419.46875 C 421.050781 419.609375 420.054688 418.925781 419.8125 417.886719 C 419.566406 416.851563 420.15625 415.796875 421.164063 415.457031 C 425.578125 413.972656 428.066406 409.847656 429.375 406.652344 C 429.675781 405.917969 429.300781 405.390625 429.125 405.199219 C 428.953125 405.015625 428.484375 404.601563 427.753906 404.824219 L 405 411.722656 L 390.519531 422.515625 C 390.296875 422.683594 390.042969 422.800781 389.769531 422.867188 Z M 378.09375 454.300781 C 377.320313 454.300781 376.585938 453.863281 376.234375 453.132813 L 363.820313 427.484375 C 363.546875 426.921875 363.546875 426.265625 363.8125 425.699219 C 364.078125 425.132813 364.589844 424.71875 365.195313 424.570313 L 388.386719 418.945313 L 402.816406 408.191406 C 403.011719 408.046875 403.226563 407.9375 403.453125 407.867188 L 426.554688 400.867188 C 428.597656 400.246094 430.753906 400.839844 432.183594 402.414063 C 433.628906 404.003906 434.019531 406.226563 433.203125 408.21875 C 432.199219 410.679688 430.9375 412.796875 429.460938 414.53125 C 436.769531 413.925781 447.4375 413.476563 454.027344 415.1875 C 455.84375 415.65625 457.367188 416.894531 458.214844 418.578125 C 459.0625 420.273438 459.140625 422.25 458.429688 424 C 456.46875 428.8125 450.480469 437.351563 432.386719 440.488281 L 405.824219 445.835938 L 378.703125 454.210938 C 378.503906 454.273438 378.296875 454.300781 378.09375 454.300781 "/>
<path style=" stroke:none;fill-rule:nonzero;fill:rgb(35.693359%,68.943787%,91.40625%);fill-opacity:1;" d="M 231.398438 455.550781 L 267.765625 476.03125 C 273.339844 479.171875 279.746094 480.511719 286.113281 479.871094 L 392.03125 469.195313 C 392.03125 469.195313 380.148438 460.382813 378.09375 443.960938 C 376.441406 430.71875 385.542969 418.308594 385.542969 418.308594 L 291.996094 419.664063 L 228.441406 358.472656 C 228.441406 358.472656 210.945313 389.347656 184.101563 342.507813 L 146.535156 352.023438 C 135.789063 354.742188 126.414063 361.3125 120.183594 370.480469 L 28.902344 504.800781 C 28.902344 504.800781 58.433594 539.777344 129.027344 560.632813 C 165.433594 571.390625 185.292969 571.390625 185.292969 571.390625 C 185.292969 571.390625 197.328125 525.894531 197.707031 525.878906 L 263.074219 582.972656 C 263.074219 582.972656 262.25 567.25 270.523438 555.667969 C 282.546875 538.835938 296.175781 539.945313 296.175781 539.945313 L 225.011719 468.78125 "/>
<g clip-path="url(#clip5)" clip-rule="nonzero">
<path style=" stroke:none;fill-rule:nonzero;fill:rgb(100%,100%,100%);fill-opacity:1;" d="M 126.261719 666.640625 L 122.144531 666.214844 L 131.933594 571.175781 L 136.050781 571.601563 Z M 126.261719 666.640625 "/>
</g>
<path style=" stroke:none;fill-rule:nonzero;fill:rgb(0%,0%,0%);fill-opacity:1;" d="M 198.035156 529.121094 L 164.789063 501.414063 C 160.296875 497.675781 156.75 492.839844 154.527344 487.433594 L 127.113281 420.75 L 130.9375 419.175781 L 158.355469 485.859375 C 160.320313 490.644531 163.464844 494.925781 167.4375 498.238281 L 200.6875 525.945313 "/>
<path style=" stroke:none;fill-rule:nonzero;fill:rgb(0%,0%,0%);fill-opacity:1;" d="M 224.347656 471.042969 L 207.824219 453.804688 C 205.960938 451.859375 204.554688 449.472656 203.753906 446.898438 L 193.25 413.128906 L 197.199219 411.902344 L 207.703125 445.671875 C 208.316406 447.632813 209.390625 449.457031 210.8125 450.941406 L 227.335938 468.179688 "/>
<path style=" stroke:none;fill-rule:nonzero;fill:rgb(35.693359%,68.943787%,91.40625%);fill-opacity:1;" d="M 270.683594 605.316406 L 378.878906 605.316406 L 378.878906 594.761719 L 270.683594 594.761719 Z M 270.683594 605.316406 "/>
<path style=" stroke:none;fill-rule:nonzero;fill:rgb(0%,0%,0%);fill-opacity:1;" d="M 272.75 603.246094 L 376.808594 603.246094 L 376.808594 596.828125 L 272.75 596.828125 Z M 380.945313 607.382813 L 268.613281 607.382813 L 268.613281 592.691406 L 380.945313 592.691406 Z M 380.945313 607.382813 "/>
<path style=" stroke:none;fill-rule:nonzero;fill:rgb(35.693359%,68.943787%,91.40625%);fill-opacity:1;" d="M 363.265625 604.960938 L 487.203125 604.960938 C 489.464844 604.960938 491.425781 603.402344 491.9375 601.199219 L 514.511719 504.050781 C 515.21875 501.007813 512.90625 498.09375 509.777344 498.09375 L 385.839844 498.09375 C 383.578125 498.09375 381.617188 499.652344 381.105469 501.851563 L 358.535156 599 C 357.824219 602.046875 360.140625 604.960938 363.265625 604.960938 "/>
<path style=" stroke:none;fill-rule:nonzero;fill:rgb(0%,0%,0%);fill-opacity:1;" d="M 385.839844 500.164063 C 384.535156 500.164063 383.417969 501.050781 383.121094 502.320313 L 360.550781 599.46875 C 360.355469 600.300781 360.550781 601.164063 361.082031 601.835938 C 361.613281 602.503906 362.410156 602.890625 363.265625 602.890625 L 487.203125 602.890625 C 488.507813 602.890625 489.625 602.003906 489.921875 600.730469 L 512.492188 503.585938 C 512.6875 502.75 512.492188 501.886719 511.960938 501.21875 C 511.429688 500.546875 510.632813 500.164063 509.777344 500.164063 Z M 487.203125 607.027344 L 363.265625 607.027344 C 361.140625 607.027344 359.164063 606.074219 357.84375 604.410156 C 356.519531 602.746094 356.039063 600.601563 356.519531 598.53125 L 379.09375 501.386719 C 379.824219 498.230469 382.601563 496.027344 385.839844 496.027344 L 509.777344 496.027344 C 511.902344 496.027344 513.878906 496.980469 515.199219 498.644531 C 516.523438 500.308594 517.007813 502.449219 516.523438 504.519531 L 493.949219 601.667969 C 493.21875 604.824219 490.445313 607.027344 487.203125 607.027344 "/>
<path style=" stroke:none;fill-rule:nonzero;fill:rgb(100%,100%,100%);fill-opacity:1;" d="M 372.136719 604.960938 L 496.074219 604.960938 C 498.332031 604.960938 500.292969 603.402344 500.804688 601.199219 L 523.378906 504.050781 C 524.085938 501.007813 521.773438 498.09375 518.644531 498.09375 L 394.710938 498.09375 C 392.449219 498.09375 390.488281 499.652344 389.976563 501.851563 L 367.402344 599 C 366.695313 602.046875 369.007813 604.960938 372.136719 604.960938 "/>
<path style=" stroke:none;fill-rule:nonzero;fill:rgb(0%,0%,0%);fill-opacity:1;" d="M 394.710938 500.164063 C 393.40625 500.164063 392.285156 501.050781 391.992188 502.320313 L 369.417969 599.46875 C 369.222656 600.300781 369.417969 601.164063 369.949219 601.835938 C 370.480469 602.503906 371.28125 602.890625 372.132813 602.890625 L 496.074219 602.890625 C 497.378906 602.890625 498.496094 602.003906 498.789063 600.730469 L 521.363281 503.585938 C 521.558594 502.75 521.363281 501.886719 520.828125 501.21875 C 520.296875 500.546875 519.503906 500.164063 518.644531 500.164063 Z M 496.074219 607.027344 L 372.132813 607.027344 C 370.007813 607.027344 368.035156 606.074219 366.710938 604.410156 C 365.390625 602.746094 364.90625 600.605469 365.386719 598.535156 L 387.960938 501.386719 C 388.695313 498.230469 391.46875 496.027344 394.710938 496.027344 L 518.644531 496.027344 C 520.769531 496.027344 522.746094 496.980469 524.070313 498.644531 C 525.394531 500.308594 525.875 502.449219 525.394531 504.519531 L 502.820313 601.667969 C 502.085938 604.824219 499.3125 607.027344 496.074219 607.027344 "/>
<path style=" stroke:none;fill-rule:nonzero;fill:rgb(100%,100%,100%);fill-opacity:1;" d="M 456.699219 553.941406 C 455.371094 559.160156 451.21875 562.613281 447.421875 561.648438 C 443.625 560.679688 441.621094 555.664063 442.949219 550.445313 C 444.277344 545.222656 448.429688 541.773438 452.226563 542.738281 C 456.027344 543.703125 458.027344 548.71875 456.699219 553.941406 "/>
<path style=" stroke:none;fill-rule:nonzero;fill:rgb(0%,0%,0%);fill-opacity:1;" d="M 450.929688 544.644531 C 449.664063 544.644531 448.574219 545.371094 447.984375 545.859375 C 446.585938 547.023438 445.480469 548.878906 444.953125 550.953125 C 443.925781 554.992188 445.289063 558.96875 447.929688 559.640625 C 450.574219 560.3125 453.667969 557.46875 454.695313 553.429688 C 455.222656 551.355469 455.140625 549.199219 454.464844 547.511719 C 454.121094 546.648438 453.308594 545.144531 451.71875 544.742188 C 451.449219 544.675781 451.183594 544.644531 450.929688 544.644531 M 448.757813 563.882813 C 448.144531 563.882813 447.527344 563.808594 446.910156 563.652344 C 442.015625 562.40625 439.339844 556.253906 440.945313 549.933594 C 441.691406 546.988281 443.253906 544.410156 445.339844 542.679688 C 447.582031 540.816406 450.277344 540.109375 452.738281 540.730469 C 455.195313 541.355469 457.226563 543.269531 458.308594 545.976563 C 459.3125 548.492188 459.453125 551.503906 458.707031 554.449219 C 457.273438 560.082031 453.117188 563.882813 448.757813 563.882813 "/>
<path style=" stroke:none;fill-rule:nonzero;fill:rgb(100%,100%,100%);fill-opacity:1;" d="M 157.554688 663.007813 L 183.273438 663.007813 L 183.273438 616.726563 L 157.554688 616.726563 Z M 157.554688 663.007813 "/>
<path style=" stroke:none;fill-rule:nonzero;fill:rgb(0%,0%,0%);fill-opacity:1;" d="M 159.621094 660.9375 L 181.203125 660.9375 L 181.203125 618.792969 L 159.621094 618.792969 Z M 185.339844 665.074219 L 155.484375 665.074219 L 155.484375 614.65625 L 185.339844 614.65625 Z M 185.339844 665.074219 "/>
<path style=" stroke:none;fill-rule:nonzero;fill:rgb(100%,100%,100%);fill-opacity:1;" d="M 321.175781 663.238281 L 346.894531 663.238281 L 346.894531 616.957031 L 321.175781 616.957031 Z M 321.175781 663.238281 "/>
<path style=" stroke:none;fill-rule:nonzero;fill:rgb(0%,0%,0%);fill-opacity:1;" d="M 323.246094 661.171875 L 344.828125 661.171875 L 344.828125 619.023438 L 323.246094 619.023438 Z M 348.964844 665.308594 L 319.109375 665.308594 L 319.109375 614.886719 L 348.964844 614.886719 Z M 348.964844 665.308594 "/>
<path style=" stroke:none;fill-rule:nonzero;fill:rgb(100%,100%,100%);fill-opacity:1;" d="M 630.636719 663.007813 L 656.355469 663.007813 L 656.355469 616.726563 L 630.636719 616.726563 Z M 630.636719 663.007813 "/>
<path style=" stroke:none;fill-rule:nonzero;fill:rgb(17.651367%,17.651367%,46.263123%);fill-opacity:1;" d="M 632.707031 660.9375 L 654.289063 660.9375 L 654.289063 618.792969 L 632.707031 618.792969 Z M 658.425781 665.074219 L 628.570313 665.074219 L 628.570313 614.65625 L 658.425781 614.65625 Z M 658.425781 665.074219 "/>
<path style=" stroke:none;fill-rule:nonzero;fill:rgb(100%,100%,100%);fill-opacity:1;" d="M 794.261719 663.238281 L 819.980469 663.238281 L 819.980469 616.957031 L 794.261719 616.957031 Z M 794.261719 663.238281 "/>
<path style=" stroke:none;fill-rule:nonzero;fill:rgb(0%,0%,0%);fill-opacity:1;" d="M 796.328125 661.171875 L 817.910156 661.171875 L 817.910156 619.023438 L 796.328125 619.023438 Z M 822.046875 665.308594 L 792.191406 665.308594 L 792.191406 614.886719 L 822.046875 614.886719 Z M 822.046875 665.308594 "/>
<path style=" stroke:none;fill-rule:nonzero;fill:rgb(100%,100%,100%);fill-opacity:1;" d="M 140.703125 629.023438 L 835.683594 629.023438 L 835.683594 607.738281 L 140.703125 607.738281 Z M 140.703125 629.023438 "/>
<path style=" stroke:none;fill-rule:nonzero;fill:rgb(0%,0%,0%);fill-opacity:1;" d="M 142.773438 626.953125 L 833.617188 626.953125 L 833.617188 609.808594 L 142.773438 609.808594 Z M 837.753906 631.089844 L 138.636719 631.089844 L 138.636719 605.667969 L 837.753906 605.667969 Z M 837.753906 631.089844 "/>
<g clip-path="url(#clip6)" clip-rule="nonzero">
<path style=" stroke:none;fill-rule:nonzero;fill:rgb(0%,0%,0%);fill-opacity:1;" d="M 0 666.136719 L 1080 666.136719 L 1080 661.996094 L 0 661.996094 Z M 0 666.136719 "/>
</g>
<path style=" stroke:none;fill-rule:nonzero;fill:rgb(35.693359%,68.943787%,91.40625%);fill-opacity:1;" d="M 487.65625 80.503906 C 478.003906 80.503906 468.710938 84.984375 462.691406 92.746094 C 459.328125 97.089844 457.15625 102.265625 456.402344 107.722656 C 455.75 112.507813 456.183594 117.25 457.691406 121.816406 C 458.464844 124.167969 459.53125 126.441406 460.855469 128.570313 C 465.828125 136.589844 474.019531 141.917969 483.335938 143.195313 C 483.796875 143.261719 484.230469 143.304688 484.671875 143.347656 C 485.050781 143.382813 485.433594 143.414063 485.820313 143.433594 C 490.375 143.695313 494.835938 142.984375 499.078125 141.3125 C 509.703125 137.128906 517.261719 127.53125 518.804688 116.265625 C 519.945313 107.945313 517.769531 99.671875 512.675781 92.960938 C 507.582031 86.253906 500.195313 81.929688 491.875 80.792969 C 490.46875 80.601563 489.058594 80.503906 487.65625 80.503906 "/>
<path style=" stroke:none;fill-rule:evenodd;fill:rgb(100%,100%,100%);fill-opacity:1;" d="M 505.480469 99.5 C 505.480469 100.117188 505.980469 100.589844 506.570313 100.589844 C 507.15625 100.589844 507.65625 100.089844 507.65625 99.5 L 507.65625 96.851563 C 507.65625 96.234375 507.15625 95.765625 506.570313 95.765625 C 505.980469 95.765625 505.480469 96.265625 505.480469 96.851563 Z M 496.925781 105.410156 C 496.308594 105.410156 495.835938 104.910156 495.835938 104.320313 L 495.835938 100.382813 C 495.835938 99.765625 496.335938 99.292969 496.925781 99.292969 C 497.511719 99.292969 498.011719 99.792969 498.011719 100.382813 L 498.011719 104.320313 C 498.042969 104.910156 497.542969 105.410156 496.925781 105.410156 M 483.546875 120.113281 C 483.546875 120.730469 484.046875 121.199219 484.632813 121.199219 C 485.253906 121.199219 485.722656 120.699219 485.722656 120.113281 L 485.722656 117.023438 C 485.722656 116.40625 485.222656 115.9375 484.632813 115.9375 C 484.015625 115.9375 483.546875 116.4375 483.546875 117.023438 Z M 474.988281 128.226563 C 474.371094 128.226563 473.902344 127.726563 473.902344 127.140625 L 473.902344 123.199219 C 473.902344 122.582031 474.402344 122.109375 474.988281 122.109375 C 475.605469 122.109375 476.078125 122.609375 476.078125 123.199219 L 476.078125 127.140625 C 476.078125 127.757813 475.578125 128.226563 474.988281 128.226563 M 469.285156 127.375 C 468.667969 127.375 468.195313 126.875 468.195313 126.289063 L 468.195313 123.199219 C 468.195313 122.582031 468.695313 122.109375 469.285156 122.109375 C 469.902344 122.109375 470.371094 122.609375 470.371094 123.199219 L 470.371094 126.289063 C 470.371094 126.875 469.871094 127.375 469.285156 127.375 M 478.722656 124.082031 C 478.722656 124.699219 479.222656 125.167969 479.8125 125.167969 C 480.429688 125.167969 480.898438 124.667969 480.898438 124.082031 L 480.898438 118.820313 C 480.898438 118.199219 480.398438 117.730469 479.8125 117.730469 C 479.195313 117.730469 478.722656 118.230469 478.722656 118.820313 Z M 491.015625 107.820313 C 491.015625 108.4375 491.515625 108.910156 492.101563 108.910156 C 492.71875 108.910156 493.191406 108.410156 493.191406 107.820313 L 493.191406 103.882813 C 493.191406 103.261719 492.691406 102.792969 492.101563 102.792969 C 491.484375 102.792969 491.015625 103.292969 491.015625 103.882813 Z M 500.660156 102.117188 C 500.660156 102.734375 501.160156 103.203125 501.746094 103.203125 C 502.335938 103.203125 502.835938 102.703125 502.835938 102.117188 L 502.835938 96.851563 C 502.835938 96.234375 502.335938 95.765625 501.746094 95.765625 C 501.160156 95.765625 500.660156 96.265625 500.660156 96.851563 "/>
<path style=" stroke:none;fill-rule:evenodd;fill:rgb(100%,100%,100%);fill-opacity:1;" d="M 465.757813 99.207031 C 465.84375 100.410156 466.871094 101.320313 468.078125 101.261719 C 471.871094 101.027344 481.132813 102.941406 485.925781 113.171875 L 485.957031 113.261719 L 486.015625 113.347656 C 488.160156 117.054688 490.574219 120.433594 493.953125 122.933594 C 497.367188 125.464844 501.570313 127.023438 507.097656 127.402344 C 508.304688 127.492188 509.363281 126.582031 509.449219 125.375 C 509.539063 124.167969 508.628906 123.109375 507.421875 123.023438 C 502.601563 122.699219 499.21875 121.375 496.601563 119.433594 C 493.953125 117.464844 491.898438 114.730469 489.898438 111.261719 C 484.132813 99.089844 472.960938 96.589844 467.84375 96.914063 C 466.609375 96.96875 465.695313 98 465.757813 99.207031 "/>
</g>
</svg>
