<?xml version="1.0" encoding="utf-8"?>
<!-- Generator: Adobe Illustrator 26.3.1, SVG Export Plug-In . SVG Version: 6.00 Build 0)  -->
<svg version="1.1" xmlns="http://www.w3.org/2000/svg" xmlns:xlink="http://www.w3.org/1999/xlink" x="0px" y="0px"
	 viewBox="0 0 2475 1650" style="enable-background:new 0 0 2475 1650;" xml:space="preserve">
<style type="text/css">
	.st0{fill:#FFFFFF;}
	.st1{fill:#9880FF;}
	.st2{opacity:0.81;}
	.st3{fill:#BDD0FB;}
	.st4{fill:#DCE5FE;}
	.st5{opacity:0.88;}
	.st6{fill:#80BC4D;}
	.st7{fill:#E20707;}
	.st8{opacity:0.8;}
	.st9{fill:#91B3FA;}
	.st10{fill:#B71591;}
	.st11{fill:#870E7F;}
	.st12{fill:#B2049A;}
	.st13{fill:url(#SVGID_1_);}
	.st14{fill:url(#SVGID_00000157991667882696485810000016845377711411058590_);}
	.st15{fill:url(#SVGID_00000116950990693465782420000005299501364857965500_);}
	.st16{fill:url(#SVGID_00000055675920605331474450000000492673843515244188_);}
	.st17{fill:url(#SVGID_00000088844111677542357160000009606928434216971151_);}
	.st18{fill:url(#SVGID_00000157284694707049817580000008734189982748530587_);}
	.st19{fill:url(#SVGID_00000161634141864958364880000004964834120804434097_);}
	.st20{fill:url(#SVGID_00000177444775731282020570000009921696808730384257_);}
	.st21{fill:url(#SVGID_00000129904302745005715250000014842285475757538438_);}
	.st22{fill:url(#SVGID_00000093866327169939246520000013187368171411041683_);}
	.st23{fill:url(#SVGID_00000085962058699681624970000010776801009274985373_);}
	.st24{fill:url(#SVGID_00000121982072022460098860000009506058540434125728_);}
	.st25{fill:url(#SVGID_00000018220877023217793580000012972376421769110430_);}
	.st26{fill:url(#SVGID_00000056401205344743106590000014509221992399786378_);}
	.st27{fill:url(#SVGID_00000074407331297084258360000014010713476614220417_);}
	.st28{fill:#7D97F4;}
	.st29{fill:url(#SVGID_00000111154888421761474350000003335559869255362176_);}
	.st30{fill:url(#SVGID_00000006694068077901228220000016309916295861197246_);}
	.st31{fill:url(#SVGID_00000127033701242598255230000004135701664367244969_);}
	.st32{fill:url(#SVGID_00000083781772066643356850000011546922541623199395_);}
	.st33{fill:url(#SVGID_00000179643737972851665070000002061018234236672135_);}
	.st34{fill:url(#SVGID_00000123422857803386058560000000673419490727491510_);}
	.st35{fill:url(#SVGID_00000082364158206514719060000017030485397308554653_);}
	.st36{fill:url(#SVGID_00000111180967179305249280000014941003538775440792_);}
	.st37{fill:url(#SVGID_00000087371634489473814990000012565069103789834881_);}
	.st38{fill:url(#SVGID_00000065754325676522062850000000572524112038907568_);}
	.st39{fill:url(#SVGID_00000018229271089262390680000014289277589531912335_);}
	.st40{fill:url(#SVGID_00000030462666509526513530000004844343059623639202_);}
	.st41{fill:url(#SVGID_00000109015877347633770300000007233407204026680493_);}
	.st42{fill:url(#SVGID_00000005964911451868744390000013230706421070122154_);}
	.st43{fill:url(#SVGID_00000059271905624661574310000010544401192608001443_);}
	.st44{fill:url(#SVGID_00000082338828819418850450000013097542442460796056_);}
	.st45{fill:url(#SVGID_00000103957944934116332530000013312957888107244672_);}
	.st46{fill:url(#SVGID_00000008866012903260281700000006047451421833038260_);}
	.st47{fill:url(#SVGID_00000117669958941074047630000007924128243925235076_);}
	.st48{fill:url(#SVGID_00000051345397012110450260000001470123566498232471_);}
	.st49{fill:url(#SVGID_00000165202504834640252600000003626817745458606252_);}
	.st50{fill:url(#SVGID_00000168813014096346546560000014783188503923177400_);}
	.st51{fill:url(#SVGID_00000070839309497112099540000012374132813993858975_);}
	.st52{fill:url(#SVGID_00000114038755011378752050000013675321470189654674_);}
	.st53{fill:url(#SVGID_00000005252562826891987500000007065105833294620040_);}
	.st54{fill:url(#SVGID_00000110442613700756322420000004144889489929362095_);}
	.st55{fill:url(#SVGID_00000028301926981156454880000002777176364690108078_);}
	.st56{fill:url(#SVGID_00000007404722251885797030000007845922371565638561_);}
	.st57{fill:url(#SVGID_00000176728725054730104570000002000966977544934324_);}
	.st58{fill:url(#SVGID_00000103980115660228422840000014405796313531484288_);}
	.st59{fill:url(#SVGID_00000138573163780524377480000014825795021777786029_);}
	.st60{fill:url(#SVGID_00000139270504872597084380000011076985503183605406_);}
	.st61{fill:url(#SVGID_00000134968380859634276020000014540476436562646412_);}
	.st62{fill:url(#SVGID_00000119111968299144116910000015112641067919822480_);}
	.st63{fill:url(#SVGID_00000065780564887533951470000016098744295901455505_);}
	.st64{fill:url(#SVGID_00000124148588095755675960000010963228976443626372_);}
	.st65{fill:url(#SVGID_00000041280426187783275710000003211079025633887378_);}
	.st66{fill:url(#SVGID_00000176764068100832436710000008610966505554496439_);}
	.st67{fill:url(#SVGID_00000128484772089299043140000013155296835727121845_);}
	.st68{fill:url(#SVGID_00000044158145649331183380000002264249226387990664_);}
	.st69{fill:url(#SVGID_00000183960302186616304610000017306503037497481363_);}
	.st70{fill:url(#SVGID_00000163772757978142726560000007398774599006122638_);}
	.st71{fill:url(#SVGID_00000116934314971078386890000003361784562108462751_);}
	.st72{fill:url(#SVGID_00000090264219807525562890000005101547600939476907_);}
	.st73{opacity:0.6;fill:#FFFFFF;}
	.st74{opacity:0.78;fill:#FFFFFF;}
	.st75{fill:url(#SVGID_00000013890028828890696990000014277662139731028649_);}
	.st76{fill:url(#SVGID_00000124858346322266658890000007257372095234068140_);}
	.st77{fill:url(#SVGID_00000053504129600473998840000003094726979675501997_);}
	.st78{fill:url(#SVGID_00000151502096842380058120000008169641087435300236_);}
	.st79{fill:url(#SVGID_00000161622869165077770180000015355137863784624271_);}
	.st80{fill:url(#SVGID_00000095339561180509077640000003885765096798993598_);}
	.st81{fill:url(#SVGID_00000140713508912026701550000001146635478514075542_);}
	.st82{fill:url(#SVGID_00000063606695679599202030000002512790908940463789_);}
	.st83{fill:url(#SVGID_00000183928696924589862860000003233751033685154221_);}
	.st84{fill:url(#SVGID_00000065772563468138916100000017927299515733711798_);}
	.st85{fill:url(#SVGID_00000140009918067495456980000012145156793547679883_);}
	.st86{fill:url(#SVGID_00000134938007193703210360000007287544050068905345_);}
	.st87{fill:url(#SVGID_00000081648012999601026950000010381824865137092017_);}
	.st88{fill:url(#SVGID_00000066474179308178142880000014623216317089377447_);}
	.st89{fill:url(#SVGID_00000147184504677475655590000014893231638407687082_);}
	.st90{fill:url(#SVGID_00000129172879790650149050000015944221122475680150_);}
	.st91{fill:url(#SVGID_00000167357738762667353190000010246710336421732262_);}
</style>
<g id="Background">
	<rect class="st0" width="2475" height="1650"/>
</g>
<g id="Illustration">
	<g>
		<path class="st1" d="M633.6,179.9C513,256.1,427.7,197.2,354.9,278c-227.4,251.9,60.8,347.3-73.1,386
			c-145.4,42-54.9,227.1,26.9,280.6c81.8,53.5,142.6,85.7,26.4,140.4c-116.2,54.7-136.5,115.2-87.8,213.6
			c48.7,98.4,141,129.4,524.7,135.3c383.6,5.8,1126.6-6.5,1329.3-62.5c202.7-56,54.9-200.1,140.1-307.7
			c85.2-107.6,102-170.8-28.5-275.3c-130.5-104.4-56.2-212.5-17-288.7c39.2-76.2,69.3-214.4-87.9-253.8
			c-157.3-39.4-340.1,117.9-419.2,38c-79.1-79.9-44.3-185.9-217-159.2c-172.7,26.7-230.8,233.2-381.5,221.8
			C939.6,335,889.2,18.3,633.6,179.9z"/>
		<g class="st2">
			<path class="st3" d="M769.7,1515.7c0,0-20-230.4-323.7-310.9c-202.6-53.7-259.8-114.8-275.3-140.1c-1.8-2.9-6.3-1.7-6.4,1.7
				c-0.5,42.8,13.1,177.5,187.6,283.6C562.3,1477.9,686.9,1425.1,769.7,1515.7z"/>
		</g>
		<g class="st2">
			<path class="st3" d="M1618.3,1471.1c0,0-506.6-524.3,272.3-1225.8c0,0,46.3,301.4-142.2,602.4
				C1559.9,1148.6,1539.2,1328.3,1618.3,1471.1z"/>
			<path class="st4" d="M1761.4,533c-26.1,29.2-49.4,61.1-70.5,94c-10.6,16.5-20.8,33.2-30.3,50.4c-9.6,17.1-18.6,34.5-27.1,52.1
				c-33.9,70.5-58.9,145.3-73,222.2c-3.6,19.2-6.5,38.5-8.6,58c-2.2,19.4-3.8,38.9-4.5,58.4c-0.6,9.8-0.6,19.5-0.8,29.3
				c0.1,9.8,0,19.6,0.4,29.3c0.5,19.5,1.8,39.1,3.6,58.6c7.5,77.9,25.7,154.8,51.9,228.9c0.2,0.6-0.1,1.3-0.7,1.5
				c-0.6,0.2-1.2-0.1-1.4-0.6c-14.9-36.5-27.2-74.1-37.3-112.2c-10.1-38.2-17.2-77.2-21.8-116.5c-9-78.6-6.4-158.7,8-236.6
				c3.5-19.5,7.8-38.9,12.8-58c5-19.2,10.7-38.2,17-56.9c6.3-18.8,13.4-37.3,21-55.5c7.7-18.3,15.8-36.3,24.8-53.9
				c8.9-17.7,18.4-35.1,28.4-52.1c10.1-17,20.7-33.7,31.9-50c11.2-16.3,23.1-32.1,35.4-47.5c12.4-15.4,25.3-30.3,39.4-44.2
				c0.5-0.4,1.2-0.4,1.6,0C1761.8,531.8,1761.9,532.5,1761.4,533L1761.4,533z"/>
		</g>
		<g class="st5">
			<path class="st3" d="M649.2,358.3c-9.7-15.5-33.7-6.7-31.3,11.4c12.5,93.3,27.4,256.2-1.9,362.6
				c-43.2,156.5-120.7,616.9,316.8,733.5C932.7,1465.8,891.1,742,649.2,358.3z"/>
			<path class="st4" d="M688,550.8c4.9,9.1,8.6,18.6,12,28.2c3.4,9.7,6.1,19.5,8.6,29.4c4.8,19.9,8.1,40.1,10.4,60.4l1.4,15.3
				c0.5,5.1,0.6,10.2,1,15.3c0.7,10.2,0.8,20.4,1,30.7c0,2.6,0.1,5.1,0.1,7.7l-0.2,7.7l-0.4,15.3c0,5.1-0.5,10.2-0.8,15.3l-0.9,15.3
				c-1.4,20.5-4.3,40.7-7.2,60.8l-8.8,60c-5.7,39.8-9.7,79.7-9.8,119.5c-0.2,39.8,4.5,79.4,13.9,118c2.7,9.5,5,19.2,8.3,28.6
				c1.6,4.7,3,9.5,4.7,14.1l5.4,13.9c0.9,2.3,1.8,4.6,2.7,6.9l3,6.8l6,13.6c2.2,4.5,4.5,8.9,6.7,13.3c2.3,4.4,4.4,9,7,13.2l7.5,13
				c1.3,2.2,2.5,4.3,3.8,6.5l4.1,6.3l8.1,12.6l2,3.2l2.2,3.1l4.4,6.1l8.7,12.2c2.9,4.1,6.2,7.9,9.2,11.9l9.3,11.8
				c3.2,3.9,6.5,7.7,9.7,11.5c26.1,30.6,54.8,59.1,84.8,86.3c0.5,0.4,0.5,1.1,0.1,1.6c-0.4,0.4-1.1,0.5-1.6,0.2
				c-32.3-24.6-62.9-51.5-91-81.1c-3.5-3.7-7.1-7.3-10.5-11.1l-10-11.6c-3.3-3.9-6.7-7.7-9.9-11.7l-9.4-12.1l-4.7-6.1l-2.4-3
				l-2.2-3.1l-8.8-12.6l-4.4-6.3c-1.4-2.1-2.7-4.4-4.1-6.5l-8.1-13.1c-21.3-35.2-37.3-73.7-48.4-113.5
				c-10.8-39.9-15.7-81.4-15.8-122.5c-0.4-41.2,4.4-82.1,10.4-122.4c6-40.3,14.2-79.9,18.4-119.6l1.5-15c0.4-5,1.1-10,1.3-15l0.9-15
				l0.5-7.5c0.1-2.5,0.1-5,0.2-7.5c0.2-10,0.7-20,0.5-30.1c-0.1-5,0-10-0.2-15l-0.7-15c-1.1-20-3-40-6.4-59.8
				c-1.7-9.9-3.6-19.8-6.2-29.5c-2.4-9.7-5.3-19.5-9.1-28.7l0-0.1c-0.2-0.6,0-1.3,0.6-1.5C687.1,550.1,687.7,550.3,688,550.8z"/>
		</g>
		<path class="st6" d="M817.8,900.6c0-9.7-7.9-17.6-17.6-17.6H661.1c-9.7,0-17.6,7.9-17.6,17.6v597.8c0,9.7,7.9,17.6,17.6,17.6
			h139.1c9.7,0,17.6-7.9,17.6-17.6V900.6z"/>
		<path class="st7" d="M1245,807.3h-138.8c-9.7,0-17.8,9.4-17.8,20.3v667.6c0,10.9,8.1,20.9,17.8,20.9H1245c9.7,0,20.1-10,20.1-20.9
			V827.6C1265,816.7,1254.7,807.3,1245,807.3z"/>
		<path class="st6" d="M1035.7,703.4c0-9.7-7.9-17.6-17.6-17.6H878.9c-9.7,0-17.6,7.9-17.6,17.6v795.1c0,9.7,7.9,17.6,17.6,17.6
			H1018c9.7,0,17.6-7.9,17.6-17.6V703.4z"/>
		<path class="st6" d="M1790.3,421.3c0-9.7-7.9-17.6-17.6-17.6h-139.1c-9.7,0-17.6,7.9-17.6,17.6v1077.2c0,9.7,7.9,17.6,17.6,17.6
			h139.1c9.7,0,17.6-7.9,17.6-17.6V421.3z"/>
		<path class="st6" d="M1531.1,574.9c0-9.7-7.9-17.6-17.6-17.6h-139.1c-9.7,0-17.6,7.9-17.6,17.6v923.5c0,9.7,7.9,17.6,17.6,17.6
			h139.1c9.7,0,17.6-7.9,17.6-17.6V574.9z"/>
		<g class="st8">
			<path class="st9" d="M800.2,1505.5c0,0-196.5,68-343.3-146.9c-137.9-201.9-55-454.4,5.8-598.6c3.2-7.5,14.2-6.1,15.4,1.9
				c18.3,121.4,103.1,596.3,332.5,743.2L800.2,1505.5z"/>
			<path class="st0" d="M779.3,1510.3c-25-3.5-49.1-11.3-72.5-20.7c-23.3-9.6-45.7-21.7-66.7-35.9c-21-14.2-40.5-30.6-58.2-48.8
				c-17.7-18.2-33.5-38.2-47.5-59.4c-13.6-21.5-25.2-44.1-35.3-67.4l-6.8-17.8l-3.3-8.9l-2.8-9.1l-5.6-18.1
				c-1.6-6.1-3.1-12.3-4.5-18.4c-11.6-49.2-15.9-100-13.5-150.1c0-0.6,0.6-1.1,1.2-1.1c0.6,0,1,0.5,1.1,1l0,0
				c1.3,12.5,2.5,24.9,3.5,37.3l2.4,18.5c0.8,6.2,1.4,12.4,2.4,18.5c1.1,6.1,2.1,12.2,3.1,18.4c1,6.1,1.9,12.3,3.4,18.3
				c2.8,12.1,4.8,24.3,8.4,36.2l4.8,17.9l5.7,17.6l2.8,8.8l3.3,8.6l6.6,17.3c9.6,22.7,20.8,44.7,33.9,65.6
				c13.3,20.7,28.3,40.4,45.2,58.3c16.8,18.1,35.4,34.4,55.4,48.9c20,14.5,41.5,27,63.8,37.7c22.5,10.4,46,19.1,70.3,24.3l0.1,0
				c0.6,0.1,1,0.7,0.9,1.4C780.5,1510,779.9,1510.4,779.3,1510.3z"/>
		</g>
		<g>
			<path class="st10" d="M1480.9,1395.4l320.8-614.5H1736c-12.1,0-18.8-14.1-11.1-23.5l341.9-416.7c14.8-18.1,44.1-6.6,42.7,16.7
				l-24,407.5c-1.4,23.3-22.1,40.7-45.3,38.1l-45.8-5.2L1676.1,1487c-8.3,17.9-26.2,29.4-46,29.4h-110.3L1480.9,1395.4z"/>
			<path class="st11" d="M1215.7,964.4l226.5,503.1c13.4,29.8,43.1,49,75.7,49h116.7c15.5,0,29.8-8.4,37.3-21.9l4.2-7.5l0,0
				c-12.5,0-24-7-29.7-18.2l-301.7-591.2L1215.7,964.4z"/>
			<path class="st12" d="M1375.1,937.3L1375.1,937.3c-22.7-17.9-55.9-12.7-71.9,11.4l-333,500.2c-26.7,40.1-71.6,64.1-119.7,64.1
				h-46.9l-38.1-109.8c0,0,309.5-474.6,389.3-546.4c0,0,79.5-71.6,157.8-17.5c20.7,14.3,36.4,34.7,46,58L1375.1,937.3z"/>
			<path class="st11" d="M403.3,1107.9c0,0,55.7-69.7,163.7-80.5c0,0,51.3,17.5,153.5,200.6c102.2,183.1,170,266.6,249.6,221
				l-6.6,10.9c-21.7,36.1-60.7,58.1-102.8,58.1h-44c-48.5,0-94-23.3-122.3-62.7C614.9,1344.8,452.2,1125.1,403.3,1107.9z"/>
			<path class="st9" d="M2070.9,486.6c-0.1,0-0.3,0-0.4,0c-1.9-0.2-3.2-1.9-3-3.8l2.3-19.9c0.2-1.9,1.9-3.3,3.8-3
				c1.9,0.2,3.2,1.9,3,3.8l-2.3,19.9C2074.1,485.3,2072.6,486.6,2070.9,486.6z"/>
			<path class="st9" d="M1785.5,737.7c-0.7,0-1.5-0.2-2.1-0.7c-1.5-1.2-1.8-3.3-0.6-4.8l282.3-366.8c3.4-4.4,9-5.9,14.1-3.8
				c5.1,2.1,8.1,7.1,7.5,12.6l-5,44c-0.2,1.9-1.9,3.2-3.8,3c-1.9-0.2-3.2-1.9-3-3.8l5-44c0.3-2.9-1.5-4.7-3.2-5.4
				c-1.8-0.7-4.3-0.7-6.1,1.7l-282.3,366.8C1787.5,737.3,1786.5,737.7,1785.5,737.7z"/>
			<path class="st9" d="M1145,1122.3c-0.7,0-1.3-0.2-1.9-0.6c-1.6-1.1-2-3.2-0.9-4.8l146-216.4c5.3-7.8,14.1-12.1,23.5-11.4
				c9.4,0.7,17.5,6.2,21.5,14.8c0.8,1.7,0.1,3.8-1.6,4.6c-1.7,0.8-3.8,0.1-4.6-1.6c-3-6.3-8.9-10.4-15.8-10.9
				c-6.9-0.5-13.4,2.6-17.3,8.4l-146,216.4C1147.2,1121.8,1146.1,1122.3,1145,1122.3z"/>
			<path class="st9" d="M1107.1,1178.5c-0.7,0-1.3-0.2-1.9-0.6c-1.6-1.1-2-3.2-0.9-4.8l9.4-13.9c1.1-1.6,3.2-2,4.8-0.9
				c1.6,1.1,2,3.2,0.9,4.8l-9.4,13.9C1109.3,1178,1108.2,1178.5,1107.1,1178.5z"/>
		</g>
		<g class="st2">
			<path class="st9" d="M2262.9,727.4c-127.4,56.5-465.9,252-612,778.9c0,0,197.1,3.3,345-312.8
				c126.5-270.3,199.2-379.6,276.7-451.5C2279.9,735.2,2272,723.3,2262.9,727.4z"/>
			<path class="st4" d="M1675.4,1476.8c5.6-15.8,11.7-31.4,18.1-46.9c6.4-15.5,13-30.8,20-46.1c6.9-15.3,14-30.4,21.4-45.4
				c3.7-7.5,7.4-15,11.2-22.5c3.8-7.5,7.6-14.9,11.6-22.3c15.5-29.7,32-58.9,49.2-87.7c17.3-28.7,35.5-56.9,54.2-84.7
				c37.8-55.4,78.9-108.6,124.1-158.2l17.2-18.4c5.8-6.1,11.8-12,17.6-17.9l8.8-8.9l9.1-8.7c6.1-5.7,12.2-11.5,18.4-17.1
				c24.9-22.4,50.9-43.6,78.1-63.2c0.5-0.4,1.2-0.3,1.6,0.3c0.4,0.5,0.3,1.2-0.2,1.6l0,0c-25.9,21-51.1,42.9-75,66.1
				c-23.6,23.5-46.8,47.4-68.6,72.7c-43.8,50.2-83.8,103.5-121,158.8c-18.6,27.6-36.4,55.8-53.7,84.3
				c-17.2,28.5-33.8,57.5-49.9,86.6c-32.1,58.4-62.4,117.9-90.1,178.7l0,0c-0.3,0.6-0.9,0.8-1.5,0.6
				C1675.4,1477.9,1675.2,1477.3,1675.4,1476.8z"/>
		</g>
		<g class="st2">
			<path class="st3" d="M1650.9,1511.1c0,0,56.3-220.6,364-250.3c205.4-19.8,270.6-70,289.8-92.1c2.2-2.6,6.4-0.7,5.9,2.7
				c-6.4,41.6-41,170.3-227.5,245.5C1858.4,1507.5,1745.8,1436.3,1650.9,1511.1z"/>
			<path class="st4" d="M1667.1,1468.5c19-18.7,40-35,61.9-50.1c11-7.5,22.2-14.8,33.7-21.4c11.5-6.7,23.2-13.2,35.2-19
				c12-5.9,24.3-11.2,36.6-16.4c12.5-4.9,25.1-9.4,38-13.2c3.2-0.9,6.4-2,9.7-2.9l9.7-2.6c6.5-1.8,13.1-3,19.7-4.5
				c6.6-1.3,13.2-2.4,19.9-3.5l10-1.3l5-0.7l5-0.5l10.1-0.9c3.4-0.3,6.7-0.3,10.1-0.5l10.1-0.4l10.1,0.1c6.7-0.1,13.5,0.5,20.2,0.9
				l9.9,0.7l9.7,0.7c6.5,0.3,13,0.6,19.4,0.8c6.5,0,13,0.2,19.4,0c13-0.2,25.9-1.2,38.7-2.9c25.6-3.2,50.9-9.9,74.2-20.9
				c5.8-2.9,11.5-5.8,16.9-9.3c5.5-3.4,10.8-7.1,15.8-11.2c5-4.1,9.8-8.5,14.2-13.2c4.4-4.7,8.5-9.9,11.6-15.5l0-0.1
				c0.3-0.6,1-0.7,1.6-0.4c0.5,0.3,0.7,0.9,0.5,1.5c-2.8,6.3-6.5,11.8-10.5,17.2c-4.1,5.4-8.7,10.3-13.5,14.9
				c-9.7,9.4-20.9,17.1-32.6,23.8c-11.8,6.6-24.3,11.9-37.1,16.1c-12.8,4.3-25.9,7.5-39.2,9.7c-13.3,2.2-26.6,3.8-40.1,4.5
				c-13.4,0.9-26.8,0.7-40.2,0.3l-10-0.5l-9.9-0.5c-6.4-0.2-12.9-0.7-19.3-0.5l-9.7,0l-9.7,0.5c-3.2,0.2-6.4,0.2-9.6,0.6l-9.6,0.9
				c-25.7,2.6-51,8.2-75.9,15.3c-24.9,7.3-49.3,16.4-73,27c-5.9,2.6-11.8,5.4-17.8,8.2c-5.9,2.9-11.7,5.7-17.5,8.7
				c-11.6,6-23.1,12.2-34.4,18.9c-11.3,6.7-22.5,13.4-33.5,20.6c-11,7.1-21.9,14.6-32.5,22.4l0,0c-0.5,0.4-1.2,0.3-1.6-0.2
				C1666.6,1469.5,1666.7,1468.9,1667.1,1468.5z"/>
		</g>
		<g>
			<g>
				<g>
					<linearGradient id="SVGID_1_" gradientUnits="userSpaceOnUse" x1="601.4009" y1="1631.4509" x2="602.4451" y2="1742.1333">
						<stop  offset="0" style="stop-color:#09005D"/>
						<stop  offset="1" style="stop-color:#1A0F91"/>
					</linearGradient>
					<path class="st13" d="M567.8,1500.9c0,0-1.3,7.2-1.8,15.8c-0.2,3.6,2.5,6.8,6.1,7.2c12.7,1.2,41.5,3.5,59.9,0.8
						c2.6-0.4,3.6-3.5,1.7-5.3c-7.6-7.1-25.9-20.8-56.1-23.8L567.8,1500.9z"/>
					
						<linearGradient id="SVGID_00000085230453310652640610000010055378525321991865_" gradientUnits="userSpaceOnUse" x1="574.7211" y1="1507.8467" x2="568.9781" y2="1462.9476">
						<stop  offset="0" style="stop-color:#FF928E"/>
						<stop  offset="1" style="stop-color:#FEB3B1"/>
					</linearGradient>
					<path style="fill:url(#SVGID_00000085230453310652640610000010055378525321991865_);" d="M561.5,1484.7l6.4,15.7
						c0.9,2.2,3.1,3.5,5.4,3.2c1.6-0.2,3.4-0.5,5.2-1c3.6-1.1,5.7-4.9,4.6-8.5l-4.8-16.2L561.5,1484.7z"/>
					
						<linearGradient id="SVGID_00000017497176044671236080000016558696930632775578_" gradientUnits="userSpaceOnUse" x1="451.8621" y1="1632.8616" x2="452.9062" y2="1743.5438">
						<stop  offset="0" style="stop-color:#09005D"/>
						<stop  offset="1" style="stop-color:#1A0F91"/>
					</linearGradient>
					<path style="fill:url(#SVGID_00000017497176044671236080000016558696930632775578_);" d="M452.1,1513.4
						c0,0,12.8,10.7,17.8,24.5c1.4,3.8-1.5,7.8-5.6,7.8H438c-3.9,0-6.8-3.5-6.1-7.3C433.5,1528.9,438.3,1513.5,452.1,1513.4z"/>
					
						<linearGradient id="SVGID_00000011726849006480494220000013490399948183171718_" gradientUnits="userSpaceOnUse" x1="449.2013" y1="1523.235" x2="443.6049" y2="1479.4821">
						<stop  offset="0" style="stop-color:#FF928E"/>
						<stop  offset="1" style="stop-color:#FEB3B1"/>
					</linearGradient>
					<path style="fill:url(#SVGID_00000011726849006480494220000013490399948183171718_);" d="M436.2,1499.5c0,0,2.6,11.5,4.6,19
						c0.4,1.4,1.8,2.1,3.2,1.7c4-1.4,7.2-2.1,9.6-1.7c1.1,0.1,2-0.8,2.1-1.9l0.2-19L436.2,1499.5z"/>
					
						<linearGradient id="SVGID_00000066499242482122898060000005904945479357248415_" gradientUnits="userSpaceOnUse" x1="410.0922" y1="1356.9806" x2="582.3471" y2="1356.9806">
						<stop  offset="0" style="stop-color:#4042E2"/>
						<stop  offset="1" style="stop-color:#4F52FF"/>
					</linearGradient>
					<path style="fill:url(#SVGID_00000066499242482122898060000005904945479357248415_);" d="M504.4,1241.6l78,237.9
						c0,0-15,9.8-22.1,9.4l-92.6-191.2c0,0-16.2,117.8-8.4,202.3l-26.5,2c0,0-43.1-216.1-10.5-290.1L504.4,1241.6z"/>
					
						<linearGradient id="SVGID_00000071522335206502024990000017618640983660479422_" gradientUnits="userSpaceOnUse" x1="445.8217" y1="1330.5525" x2="452.0867" y2="1318.0225">
						<stop  offset="0" style="stop-color:#4042E2"/>
						<stop  offset="1" style="stop-color:#4F52FF"/>
					</linearGradient>
					<path style="fill:url(#SVGID_00000071522335206502024990000017618640983660479422_);" d="M468.2,1295.6
						C468.1,1295.6,468.1,1295.6,468.2,1295.6c-0.5-0.1-0.8-0.4-0.7-0.8l3-24c0.1-0.4,0.4-0.7,0.8-0.7c0.4,0.1,0.7,0.4,0.7,0.8
						l-3,24C468.9,1295.3,468.5,1295.6,468.2,1295.6z"/>
				</g>
				
					<linearGradient id="SVGID_00000162331294224671603390000012403990704491485085_" gradientUnits="userSpaceOnUse" x1="548.9183" y1="1067.3575" x2="441.369" y2="1386.8727">
					<stop  offset="0" style="stop-color:#09005D"/>
					<stop  offset="1" style="stop-color:#1A0F91"/>
				</linearGradient>
				<path style="fill:url(#SVGID_00000162331294224671603390000012403990704491485085_);" d="M519,1032.3c0,0-63.2,5.6-54.2,50.6
					c0,0-34.9,65.7-51.2,143.1c-0.5,2.5,1.2,5,3.7,5.4l105.2,18c2.9,0.5,5.7-1.3,6.4-4.2l25.1-97.1l9.8,45.2l31.1-8.1l-26.2-132.7
					C568.7,1052.5,565,1033.1,519,1032.3z"/>
				
					<linearGradient id="SVGID_00000000219435433986542510000010703430365663319190_" gradientUnits="userSpaceOnUse" x1="553.7351" y1="1122.8712" x2="564.071" y2="1122.8712">
					<stop  offset="0" style="stop-color:#4042E2"/>
					<stop  offset="1" style="stop-color:#4F52FF"/>
				</linearGradient>
				<path style="fill:url(#SVGID_00000000219435433986542510000010703430365663319190_);" d="M554.5,1143.8c-0.1,0-0.1,0-0.2,0
					c-0.4-0.1-0.7-0.5-0.6-0.9l8.8-40.3c0.1-0.4,0.5-0.7,0.9-0.6c0.4,0.1,0.7,0.5,0.6,0.9l-8.8,40.3
					C555.2,1143.5,554.9,1143.8,554.5,1143.8z"/>
				
					<linearGradient id="SVGID_00000158720369484048842240000014290220176439416463_" gradientUnits="userSpaceOnUse" x1="491.4987" y1="1235.8704" x2="569.9342" y2="1235.8704">
					<stop  offset="0" style="stop-color:#FF928E"/>
					<stop  offset="1" style="stop-color:#FEB3B1"/>
				</linearGradient>
				<path style="fill:url(#SVGID_00000158720369484048842240000014290220176439416463_);" d="M548.2,1263.6
					c-3.3-1.8-7.2-2.3-10.9-1.4l-7.3,1.8c-1.6,0.4-3.1-0.7-3.3-2.3l-7.6-67.4c-9.5,4.5-23.1,4-27.6,3.6l17.4,79.5h61L548.2,1263.6z"
					/>
				
					<linearGradient id="SVGID_00000083063131857313141790000018154284143170577339_" gradientUnits="userSpaceOnUse" x1="563.7789" y1="1137.5469" x2="710.2539" y2="1137.5469">
					<stop  offset="0" style="stop-color:#FF928E"/>
					<stop  offset="1" style="stop-color:#FEB3B1"/>
				</linearGradient>
				<path style="fill:url(#SVGID_00000083063131857313141790000018154284143170577339_);" d="M710.3,1117.4l-1.8-6.1
					c-1.1-3.5-3.7-6.4-7.1-7.8l-33.3-13.4c0,0-0.5-4.3,7-7.2c7.5-2.9,5.8-11.4,5.8-11.4s-10.3,4.7-25.4,12.2
					c-8.6,4.3-13.5,11.8-16,17.5l-75.6,92.1l8.9,6.1c11.7,8,27.7,4.1,34.3-8.4l40.9-78.5C668.5,1118.6,689.3,1119.8,710.3,1117.4z"
					/>
				<g>
					
						<linearGradient id="SVGID_00000126297356597834495590000006558267274813207206_" gradientUnits="userSpaceOnUse" x1="546.4444" y1="1005.6461" x2="530.0535" y2="1072.0724">
						<stop  offset="0" style="stop-color:#FF928E"/>
						<stop  offset="1" style="stop-color:#FEB3B1"/>
					</linearGradient>
					<path style="fill:url(#SVGID_00000126297356597834495590000006558267274813207206_);" d="M539.5,989.3l-19.4,54.4
						c0,0,17.2,13.5,29.8,8.9l9.8-31.2C559.6,1021.4,552.1,983.3,539.5,989.3z"/>
					<g>
						
							<linearGradient id="SVGID_00000047777294713341773010000007199085499130923706_" gradientUnits="userSpaceOnUse" x1="607.895" y1="990.3757" x2="546.6451" y2="991.2383">
							<stop  offset="0" style="stop-color:#FF928E"/>
							<stop  offset="1" style="stop-color:#FEB3B1"/>
						</linearGradient>
						<path style="fill:url(#SVGID_00000047777294713341773010000007199085499130923706_);" d="M597.4,969.8c0,0.8-18.7,53-18.7,53
							l-29.5-11.3l10.4-52.1C559.6,959.4,597.4,955.7,597.4,969.8z"/>
						
							<linearGradient id="SVGID_00000142888710788324146270000008978754677538466974_" gradientUnits="userSpaceOnUse" x1="536.4365" y1="990.4229" x2="612.3542" y2="990.4229">
							<stop  offset="0" style="stop-color:#09005D"/>
							<stop  offset="1" style="stop-color:#1A0F91"/>
						</linearGradient>
						<path style="fill:url(#SVGID_00000142888710788324146270000008978754677538466974_);" d="M564.8,972.1l-7.6,27
							c-0.1,0.3-0.1,0.7-0.1,1.1c0,2.2,0.5,9.8,8.3,8.7c7-0.9,13.4-1.7,17.5,0.2c1.8,0.9,2.7,3,2,4.9c-1.7,4.7-5.7,15.3-10.6,24
							c-1,1.8-3.2,2.4-5,1.6c-5.5-2.5-17.1-8.2-25.3-14.9c-1.1-0.9-1.7-2.3-1.4-3.8c1.3-6.9,5.2-27.9,5.3-33.9
							c0.2-5.6-6.2-10-9-11.6c-0.9-0.5-1.6-1.4-1.8-2.4c-0.9-3.6-1.6-11.9,8.9-13.7c2.2-0.4,3.6-2.5,3.2-4.7
							c-0.9-4.3-0.6-10.7,7.6-13.1c8.4-2.4,13.7,2.7,16.4,6.5c1.1,1.6,3.1,2.1,4.9,1.3c1-0.4,2.2-0.5,3.5,0.6c1.7,1.5,4.4,1,5.6-0.9
							c2.4-3.6,6.9-7.2,14.4-4.8c13.3,4.3,12.7,19.7,7.8,28.1c-4.9,8.4-19.1,2.9-25.8-2.7c-5.1-4.2-12.9-1.7-16.3-0.2
							C565.9,970,565.1,970.9,564.8,972.1z"/>
						
							<linearGradient id="SVGID_00000088109516370023373040000002353130141941177276_" gradientUnits="userSpaceOnUse" x1="536.7252" y1="1003.2478" x2="520.3344" y2="1069.6738">
							<stop  offset="0" style="stop-color:#FF928E"/>
							<stop  offset="1" style="stop-color:#FEB3B1"/>
						</linearGradient>
						<path style="fill:url(#SVGID_00000088109516370023373040000002353130141941177276_);" d="M545,996.8c0,0,7.9-14.9,2.7-19.6
							c-5.2-4.7-14.1-3.9-13.8,7.8C534.1,999.5,545,996.8,545,996.8z"/>
					</g>
				</g>
				
					<linearGradient id="SVGID_00000038395508376568503850000017497259125804496027_" gradientUnits="userSpaceOnUse" x1="466.328" y1="1144.6508" x2="523.7343" y2="1144.6508">
					<stop  offset="0" style="stop-color:#4042E2"/>
					<stop  offset="1" style="stop-color:#4F52FF"/>
				</linearGradient>
				<path style="fill:url(#SVGID_00000038395508376568503850000017497259125804496027_);" d="M497.6,1199c-4.3,0-7.4-0.3-7.7-0.4
					l-0.6-0.1l-23-107.2c-0.1-0.4,0.2-0.8,0.6-0.9c0.4-0.1,0.8,0.2,0.9,0.6l22.8,106.1c3.4,0.3,21.7,1.5,31.4-5.3l-19.9-93.2
					l4.2-7.8c0.2-0.4,0.7-0.5,1.1-0.3c0.4,0.2,0.5,0.7,0.3,1.1l-3.9,7.3l20,93.6l-0.4,0.3C516.4,1198,505.1,1199,497.6,1199z"/>
			</g>
			<g>
				<path class="st28" d="M527.4,1554.8c-0.6,0-1.2-0.1-1.8-0.4c-2.3-1.1-3.4-4-2.4-6.5l95-241c1-2.5,3.7-3.7,6-2.6
					c2.3,1.1,3.4,4,2.4,6.5l-95,241C530.8,1553.7,529.1,1554.8,527.4,1554.8z"/>
				<path class="st28" d="M634.4,1554.8c-1.8,0-3.4-1.1-4.2-3l-95-241c-1-2.5,0.1-5.4,2.4-6.5c2.3-1.1,5,0.1,6,2.6l95,241
					c1,2.5-0.1,5.4-2.4,6.5C635.6,1554.7,635,1554.8,634.4,1554.8z"/>
				<path class="st28" d="M931.8,1554.8c-0.6,0-1.2-0.1-1.8-0.4c-2.3-1.1-3.4-4-2.4-6.5l95-241c1-2.5,3.7-3.7,6-2.6
					c2.3,1.1,3.4,4,2.4,6.5l-95,241C935.2,1553.7,933.5,1554.8,931.8,1554.8z"/>
				<path class="st28" d="M1038.8,1554.8c-1.8,0-3.4-1.1-4.2-3l-95-241c-1-2.5,0.1-5.4,2.4-6.5c2.3-1.1,5,0.1,6,2.6l95,241
					c1,2.5-0.1,5.4-2.4,6.5C1040,1554.7,1039.4,1554.8,1038.8,1554.8z"/>
			</g>
			<g>
				
					<linearGradient id="SVGID_00000025436088737815069000000004189758687175875977_" gradientUnits="userSpaceOnUse" x1="864.9111" y1="1508.3043" x2="889.1881" y2="1355.5947">
					<stop  offset="0" style="stop-color:#09005D"/>
					<stop  offset="1" style="stop-color:#1A0F91"/>
				</linearGradient>
				
					<rect x="868.1" y="1392.4" style="fill:url(#SVGID_00000025436088737815069000000004189758687175875977_);" width="11.2" height="121.5"/>
				
					<linearGradient id="SVGID_00000142887062899542815300000000164901100356583601_" gradientUnits="userSpaceOnUse" x1="874.6086" y1="1509.8458" x2="898.8857" y2="1357.1355">
					<stop  offset="0" style="stop-color:#09005D"/>
					<stop  offset="1" style="stop-color:#1A0F91"/>
				</linearGradient>
				<path style="fill:url(#SVGID_00000142887062899542815300000000164901100356583601_);" d="M922.9,1516.2h-98.4v-0.5
					c0-3.7,3-6.8,6.8-6.8h84.3C919.6,1508.9,922.9,1512.2,922.9,1516.2L922.9,1516.2z"/>
				
					<linearGradient id="SVGID_00000056386355855425397920000016753528533264008344_" gradientUnits="userSpaceOnUse" x1="855.889" y1="1506.8702" x2="880.166" y2="1354.1603">
					<stop  offset="0" style="stop-color:#09005D"/>
					<stop  offset="1" style="stop-color:#1A0F91"/>
				</linearGradient>
				<path style="fill:url(#SVGID_00000056386355855425397920000016753528533264008344_);" d="M937.5,1388.2
					c0,6.6-5.4,12.1-12.1,12.1h-99.5c-6.6,0-12.1-5.4-12.1-12.1v-10.9c0-6.6,5.4-12.1,12.1-12.1h99.5c6.6,0,12.1,5.4,12.1,12.1
					V1388.2z"/>
			</g>
			<g>
				
					<linearGradient id="SVGID_00000135649610043681858540000005367123043942212485_" gradientUnits="userSpaceOnUse" x1="785.7755" y1="1404.7979" x2="771.9727" y2="1544.5516">
					<stop  offset="0" style="stop-color:#FF928E"/>
					<stop  offset="0.4766" style="stop-color:#FFA29F"/>
					<stop  offset="1" style="stop-color:#FEB3B1"/>
				</linearGradient>
				<path style="fill:url(#SVGID_00000135649610043681858540000005367123043942212485_);" d="M790.8,1311.4c0,0-16.7,2.6-35.5,15.1
					c-3,2-4.6,5.4-4.1,8.9c2.2,17.8,11.5,75.4,42,131.7c1.6,3,2.1,6.4,1.4,9.7l-5.3,24.6l-9.8,9.2h25.3l16.8-45.6l-7.2-2.3
					c-5.6-1.8-9.4-6.9-9.5-12.8l-0.8-48.9c0.7-21.8-13.3-36.8-13.3-36.8l40.4-2L790.8,1311.4z"/>
				
					<linearGradient id="SVGID_00000114054184868743006620000011105199907369332377_" gradientUnits="userSpaceOnUse" x1="799.9664" y1="1463.114" x2="788.2195" y2="1643.2329">
					<stop  offset="0" style="stop-color:#09005D"/>
					<stop  offset="1" style="stop-color:#1A0F91"/>
				</linearGradient>
				<path style="fill:url(#SVGID_00000114054184868743006620000011105199907369332377_);" d="M769.5,1515.2c-2.3,3,24.8,7,38.5,0.4
					c0,0,19-33,19-50c0,0-1.5-3.5-12.6-2.7c0,0-6.4,39.1-13.1,43.5c-6.7,4.4-18.8,0.4-18.8,0.4S772.9,1510.7,769.5,1515.2z"/>
				
					<linearGradient id="SVGID_00000127733001857219894860000010947498808506676888_" gradientUnits="userSpaceOnUse" x1="657.3249" y1="1416.5293" x2="825.8566" y2="1416.5293">
					<stop  offset="0" style="stop-color:#FF928E"/>
					<stop  offset="1" style="stop-color:#FEB3B1"/>
				</linearGradient>
				<path style="fill:url(#SVGID_00000127733001857219894860000010947498808506676888_);" d="M825.9,1365.2
					c-0.2-0.4-43.5-5.2-43.5-5.2s1.4,13.2-3,31.3c-4.4,18.1-67.9,96.5-67.9,96.5l6.7,21.1c-20.6,7.2-40.8,8.3-60.8,3.7l41.3-24.8
					c0,0,38.6-131.6,62.3-155.1l43.4-15L825.9,1365.2z"/>
				
					<linearGradient id="SVGID_00000016753535996062135280000005642873817863519626_" gradientUnits="userSpaceOnUse" x1="761.3148" y1="1328.6123" x2="950.1185" y2="1328.6123">
					<stop  offset="0" style="stop-color:#E1473D"/>
					<stop  offset="1" style="stop-color:#E9605A"/>
				</linearGradient>
				<path style="fill:url(#SVGID_00000016753535996062135280000005642873817863519626_);" d="M922.9,1288.6c0,0,24.9,37.1,27,54
					c2,16.9-6.8,23.8-33,24.9c-26.2,1.1-96,1.1-96,1.1l-59.6-50.9c0,0,43.4-15.5,54.7-19.9C827.3,1293.4,922.9,1288.6,922.9,1288.6z
					"/>
				
					<linearGradient id="SVGID_00000149348463959674738300000014642445821680773274_" gradientUnits="userSpaceOnUse" x1="686.6102" y1="1455.7208" x2="674.8632" y2="1635.8412">
					<stop  offset="0" style="stop-color:#09005D"/>
					<stop  offset="1" style="stop-color:#1A0F91"/>
				</linearGradient>
				<path style="fill:url(#SVGID_00000149348463959674738300000014642445821680773274_);" d="M715.6,1501.8c0,0,7.2,6.9,2.3,14.7
					c0,0-56.8,10.1-72.2,5.5c0,0,3.2-7.3,20.6-15.6l-1.3,1c-1.6,1.2-0.7,3.8,1.4,3.7C677.8,1510.4,701.5,1508.3,715.6,1501.8z"/>
			</g>
			<g>
				
					<linearGradient id="SVGID_00000094581754670953133670000014610096719785841072_" gradientUnits="userSpaceOnUse" x1="952.2816" y1="1095.7833" x2="887.7438" y2="1158.9181">
					<stop  offset="0" style="stop-color:#09005D"/>
					<stop  offset="1" style="stop-color:#1A0F91"/>
				</linearGradient>
				<path style="fill:url(#SVGID_00000094581754670953133670000014610096719785841072_);" d="M872.5,1080.4
					c3.8,1.2,17.3,6,15.6,14.8c-0.2,1.2,0.9,2.1,2,1.8c5.8-1.6,18.8-3.6,26.8,6.5c7.1,8.9,1.8,17.2-2.5,21.8c-1,1.1-0.2,2.9,1.3,2.7
					c10.8-1.4,34.1-1.7,37.9,20.2c3.6,20.4-10.6,26.2-19.1,27.8c-1.4,0.3-1.8,2.1-0.5,2.9c4.2,2.7,9.1,8.2,7.1,19.1
					c-3.1,17-36.5,15.7-40.4,15.4c-0.2,0-0.5-0.1-0.7-0.2l-53.5-30.5c-0.4-0.2-0.7-0.7-0.8-1.1l-10.8-62.4c-0.1-0.5,0.1-1,0.4-1.4
					l35.5-36.9C871.3,1080.3,871.9,1080.2,872.5,1080.4z"/>
				<path class="st28" d="M855.5,1283.7c0,0-29-27.6-43.3-45.9c-7.7-9.9-10.1-22.9-6.6-35c6.5-22,18.1-44.7,19.2-48.3
					c1.6-5.4,34.2-5.2,34.2-5.2s64,41.6,89.2,112l-28.3,8.8c0,0-16.7-28.1-33.2-45.9c0,0,28.6,37.8,29.6,53.2L855.5,1283.7z"/>
				
					<linearGradient id="SVGID_00000008861823877958583490000000251720190428570798_" gradientUnits="userSpaceOnUse" x1="839.1077" y1="1148.0179" x2="839.1077" y2="1184.2504">
					<stop  offset="0" style="stop-color:#FF928E"/>
					<stop  offset="1" style="stop-color:#FEB3B1"/>
				</linearGradient>
				<path style="fill:url(#SVGID_00000008861823877958583490000000251720190428570798_);" d="M820.8,1124.2
					c0.3,1.1,8.8,29.3,9.5,29.9c0.7,0.6,18.6,1.6,27.1-4.2l-14.3-30L820.8,1124.2z"/>
				<g>
					
						<linearGradient id="SVGID_00000134941037369474871010000011705455428431198114_" gradientUnits="userSpaceOnUse" x1="866.4771" y1="1103.8488" x2="821.6179" y2="1094.3594">
						<stop  offset="0" style="stop-color:#FF928E"/>
						<stop  offset="1" style="stop-color:#FEB3B1"/>
					</linearGradient>
					<path style="fill:url(#SVGID_00000134941037369474871010000011705455428431198114_);" d="M834.8,1065c0,0-15.3,6.5-25.8,28.6
						c-10.4,22.2-2.6,32.4,7.1,33.8c9.8,1.4,24.4,1.2,39.9-13.1S854.7,1057.4,834.8,1065z"/>
					
						<linearGradient id="SVGID_00000178886148507776672980000000396307034373415068_" gradientUnits="userSpaceOnUse" x1="895.5131" y1="1037.6927" x2="830.8861" y2="1100.9148">
						<stop  offset="0" style="stop-color:#09005D"/>
						<stop  offset="1" style="stop-color:#1A0F91"/>
					</linearGradient>
					<path style="fill:url(#SVGID_00000178886148507776672980000000396307034373415068_);" d="M845.6,1102.5
						c0,0,11.6-32.4-17.2-32.8l-6.8,4.7c0,0-10.5-18,6.8-26.6c17.3-8.6,37.6-1.5,44.9,21.8c7.4,23.3,8.6,38.9-3.6,50.1
						c-12.3,11.2-17.3-1.5-17.3-1.5s6.7-10.4,4-16c-2.7-5.6-9,1.2-9,1.2L845.6,1102.5z"/>
					
						<linearGradient id="SVGID_00000070803079347836932730000012684082900083861390_" gradientUnits="userSpaceOnUse" x1="865.8647" y1="1106.7439" x2="821.0053" y2="1097.2544">
						<stop  offset="0" style="stop-color:#FF928E"/>
						<stop  offset="1" style="stop-color:#FEB3B1"/>
					</linearGradient>
					<path style="fill:url(#SVGID_00000070803079347836932730000012684082900083861390_);" d="M848.8,1106.1c0,0,5.8-16.7,13.7-10
						c7.8,6.7-6.3,15.4-11.9,18.3L848.8,1106.1z"/>
				</g>
				
					<linearGradient id="SVGID_00000145040934440453688450000002242805135622514306_" gradientUnits="userSpaceOnUse" x1="553.0159" y1="1278.8812" x2="711.3311" y2="1278.8812">
					<stop  offset="0" style="stop-color:#FF928E"/>
					<stop  offset="1" style="stop-color:#FEB3B1"/>
				</linearGradient>
				<path style="fill:url(#SVGID_00000145040934440453688450000002242805135622514306_);" d="M796.3,1285.8l21.3-20.6l29.5,12.5
					c0,0,29.4,4.5,46.2,0c16.8-4.5,16.8-4.5,16.8-4.5l38-11.8l6,16.9c1.5,4.3,0,9-3.7,11.7c-3.3,2.3-7.1,4.9-9.6,6
					c-5,2.2-123.3-1.5-123.3-1.5L796.3,1285.8z"/>
			</g>
			<g>
				
					<linearGradient id="SVGID_00000150073572009462969300000011140186865589787520_" gradientUnits="userSpaceOnUse" x1="821.5903" y1="1391.6321" x2="721.9297" y2="1418.9464" gradientTransform="matrix(0.9988 -4.940000e-02 4.940000e-02 0.9988 8.6714 -86.798)">
					<stop  offset="0" style="stop-color:#09005D"/>
					<stop  offset="1" style="stop-color:#1A0F91"/>
				</linearGradient>
				<path style="fill:url(#SVGID_00000150073572009462969300000011140186865589787520_);" d="M877,1295.4c-0.1,0-0.2,0-0.3,0
					l-123.7-0.1c-3.1,0-5.5-2.5-5.5-5.5c0-3.1,2.5-5.6,5.5-5.5l123.7,0.1c3.1,0,5.5,2.5,5.5,5.5C882.3,1292.9,880,1295.3,877,1295.4
					z"/>
				
					<linearGradient id="SVGID_00000085208911418456311470000007654603104413758096_" gradientUnits="userSpaceOnUse" x1="763.1366" y1="1198.1959" x2="692.4229" y2="1272.9359">
					<stop  offset="0" style="stop-color:#09005D"/>
					<stop  offset="1" style="stop-color:#1A0F91"/>
				</linearGradient>
				<path style="fill:url(#SVGID_00000085208911418456311470000007654603104413758096_);" d="M641.9,1183.1h103
					c7.6,0,14.5,4.4,17.8,11.3l47.6,101h-128c-4.9,0-9.3-3-11.1-7.5l-36.9-93.4C632.1,1189,636.1,1183.1,641.9,1183.1z"/>
				
					<linearGradient id="SVGID_00000164494529747633857950000001354770574891072701_" gradientUnits="userSpaceOnUse" x1="720.3869" y1="1216.8057" x2="688.3015" y2="1265.1227">
					<stop  offset="0" style="stop-color:#4042E2"/>
					<stop  offset="1" style="stop-color:#4F52FF"/>
				</linearGradient>
				<path style="fill:url(#SVGID_00000164494529747633857950000001354770574891072701_);" d="M714.4,1234.9c2.2,6.9,0.6,13.7-3.7,15
					c-4.3,1.4-9.5-3.1-11.8-10.1c-2.2-6.9-0.6-13.7,3.7-15C706.9,1223.5,712.2,1228,714.4,1234.9z"/>
			</g>
			<g>
				
					<linearGradient id="SVGID_00000010989412845064945300000002166436788820424113_" gradientUnits="userSpaceOnUse" x1="507.2158" y1="1285.2114" x2="628.9516" y2="1285.2114">
					<stop  offset="0" style="stop-color:#FE7062"/>
					<stop  offset="1" style="stop-color:#FF928E"/>
				</linearGradient>
				<path style="fill:url(#SVGID_00000010989412845064945300000002166436788820424113_);" d="M629,1291.5l-121.7,0v-12.6H629
					C626.3,1278.9,626.3,1291.5,629,1291.5z"/>
				
					<linearGradient id="SVGID_00000020377183106200409490000010639973127268733588_" gradientUnits="userSpaceOnUse" x1="565.0135" y1="1354.5081" x2="564.4918" y2="1323.2083">
					<stop  offset="0" style="stop-color:#A22B25"/>
					<stop  offset="1" style="stop-color:#C0423C"/>
				</linearGradient>
				<path style="fill:url(#SVGID_00000020377183106200409490000010639973127268733588_);" d="M508.2,1291.5c-0.5,0-1-0.4-1-1v-10.6
					c0-0.6,0.5-1,1-1h123.4c0.6,0,1-0.5,1-1v-0.8c0-0.6-0.4-1-1-1H500.2c-2.9,0-5.3,2.4-5.3,5.3v8c0,2.7,2.2,5,5,5h131.7
					c0.6,0,1-0.4,1-1v-0.8c0-0.6-0.4-1-1-1H508.2z"/>
			</g>
			<path class="st9" d="M1049.9,1300c0.3-1.4-0.1-2.9-1.2-4c-1-1.1-2.6-1.7-4.2-1.7H487.4c-2.2,0-4.2,1-5.3,2.5
				c-1.2,1.6-1.3,3.6-0.4,5.3l6,11.3c1.4,2.6,4.4,4.3,7.7,4.3h545.3c3.1,0,5.7-1.9,6.3-4.5L1049.9,1300z"/>
		</g>
		<g>
			
				<linearGradient id="SVGID_00000027584545593365466330000010851397748353652877_" gradientUnits="userSpaceOnUse" x1="1451.7882" y1="198.5331" x2="844.7518" y2="792.3731">
				<stop  offset="0" style="stop-color:#09005D"/>
				<stop  offset="1" style="stop-color:#1A0F91"/>
			</linearGradient>
			<polygon style="fill:url(#SVGID_00000027584545593365466330000010851397748353652877_);" points="724.6,669.5 721.3,663.5 
				953.3,536.7 1168.9,631.5 1354.1,449.9 1354.5,449.7 1571.9,321.3 1575.4,327.3 1358.3,455.4 1170.4,639.7 953.6,544.4 			"/>
			
				<linearGradient id="SVGID_00000036212919297015613920000006045248258735516064_" gradientUnits="userSpaceOnUse" x1="762.7219" y1="627.5715" x2="703.4725" y2="685.5328">
				<stop  offset="0" style="stop-color:#09005D"/>
				<stop  offset="1" style="stop-color:#1A0F91"/>
			</linearGradient>
			<path style="fill:url(#SVGID_00000036212919297015613920000006045248258735516064_);" d="M747.9,666.5c0,13.8-11.2,25-25,25
				c-13.8,0-25-11.2-25-25c0-13.8,11.2-25,25-25C736.7,641.6,747.9,652.7,747.9,666.5z"/>
			
				<linearGradient id="SVGID_00000039093737434470080220000008066626634419057030_" gradientUnits="userSpaceOnUse" x1="993.2326" y1="501.6224" x2="933.9831" y2="559.5839">
				<stop  offset="0" style="stop-color:#09005D"/>
				<stop  offset="1" style="stop-color:#1A0F91"/>
			</linearGradient>
			<circle style="fill:url(#SVGID_00000039093737434470080220000008066626634419057030_);" cx="953.4" cy="540.6" r="25"/>
			
				<linearGradient id="SVGID_00000041288150066082206730000006749492746902899347_" gradientUnits="userSpaceOnUse" x1="1209.4849" y1="591.9255" x2="1150.2352" y2="649.887">
				<stop  offset="0" style="stop-color:#09005D"/>
				<stop  offset="1" style="stop-color:#1A0F91"/>
			</linearGradient>
			<circle style="fill:url(#SVGID_00000041288150066082206730000006749492746902899347_);" cx="1169.7" cy="630.9" r="25"/>
			
				<linearGradient id="SVGID_00000073679283310507705530000012079785762070465972_" gradientUnits="userSpaceOnUse" x1="1390.0909" y1="413.6957" x2="1330.8416" y2="471.6571">
				<stop  offset="0" style="stop-color:#09005D"/>
				<stop  offset="1" style="stop-color:#1A0F91"/>
			</linearGradient>
			<circle style="fill:url(#SVGID_00000073679283310507705530000012079785762070465972_);" cx="1350.3" cy="452.6" r="25"/>
			
				<linearGradient id="SVGID_00000128463474054830718110000013326353013118746270_" gradientUnits="userSpaceOnUse" x1="1613.4724" y1="285.3702" x2="1554.2229" y2="343.3316">
				<stop  offset="0" style="stop-color:#09005D"/>
				<stop  offset="1" style="stop-color:#1A0F91"/>
			</linearGradient>
			<circle style="fill:url(#SVGID_00000128463474054830718110000013326353013118746270_);" cx="1573.7" cy="324.3" r="25"/>
		</g>
		<g>
			<g>
				<g>
					<path class="st28" d="M1359.6,1391.9c-3.3,4.9-16.3,114.7-18.3,155.3c-0.1,2.7,2.1,5,4.8,5l0,0c2.4,0,4.4-1.7,4.8-4.1
						l23.8-152.7L1359.6,1391.9z"/>
					<path class="st28" d="M1464.4,1391.9c3.3,4.9,16.3,114.7,18.3,155.3c0.1,2.7-2.1,5-4.8,5l0,0c-2.4,0-4.4-1.7-4.8-4.1
						l-23.8-152.7L1464.4,1391.9z"/>
					
						<linearGradient id="SVGID_00000036969180564661613890000014036835612069923716_" gradientUnits="userSpaceOnUse" x1="1049.7061" y1="1521.2046" x2="1069.5487" y2="1425.9597" gradientTransform="matrix(1 0 0 1 333.8425 0)">
						<stop  offset="0" style="stop-color:#E1473D"/>
						<stop  offset="1" style="stop-color:#E9605A"/>
					</linearGradient>
					<path style="fill:url(#SVGID_00000036969180564661613890000014036835612069923716_);" d="M1339.9,1383.3l0,1.2
						c-0.1,8.6,7.3,15.7,16.6,15.8l110.2,1.9c9.2,0.2,16.8-6.5,17.2-14.9l0.1-1.1c0.5-8.8-7.1-16.3-16.6-16.5l-110.2-2
						C1347.7,1367.6,1340,1374.6,1339.9,1383.3z"/>
				</g>
				<g>
					<g>
						
							<linearGradient id="SVGID_00000096758583181627414920000014563835896000002473_" gradientUnits="userSpaceOnUse" x1="1188.2579" y1="1542.8188" x2="1268.1437" y2="1542.8188" gradientTransform="matrix(1 0 0 1 333.8425 0)">
							<stop  offset="0" style="stop-color:#4042E2"/>
							<stop  offset="1" style="stop-color:#4F52FF"/>
						</linearGradient>
						<path style="fill:url(#SVGID_00000096758583181627414920000014563835896000002473_);" d="M1554.2,1543.2
							c-19.6,0-28.2-1.7-32.1-3.2c0.8,3.2,3.6,5.8,7.2,5.8h69.3c2.3,0,3.8-2.2,3.2-4.3C1594,1542.1,1577.2,1543.2,1554.2,1543.2z"/>
						
							<linearGradient id="SVGID_00000060720618742070161730000015125655029421934250_" gradientUnits="userSpaceOnUse" x1="1249.8066" y1="1389.2075" x2="1227.9796" y2="1540.0125" gradientTransform="matrix(1 0 0 1 333.8425 0)">
							<stop  offset="0" style="stop-color:#09005D"/>
							<stop  offset="1" style="stop-color:#1A0F91"/>
						</linearGradient>
						<path style="fill:url(#SVGID_00000060720618742070161730000015125655029421934250_);" d="M1601.9,1541.4
							c-0.1-0.4-0.3-0.8-0.6-1.2c-5.3-6.7-15.9-17.3-30.3-17.1c-21.1,0.3-28.5,2.6-44.9,0.1l-3.9,12.8c-0.4,1.3-0.4,2.6-0.1,3.8
							c3.9,1.5,12.5,3.2,32.1,3.2C1577.2,1543.2,1594,1542.1,1601.9,1541.4z"/>
					</g>
					
						<linearGradient id="SVGID_00000005249184719102245030000001814403539334114458_" gradientUnits="userSpaceOnUse" x1="1192.2485" y1="1518.7451" x2="1213.8628" y2="1518.7451" gradientTransform="matrix(1 0 0 1 333.8425 0)">
						<stop  offset="0" style="stop-color:#FF928E"/>
						<stop  offset="1" style="stop-color:#FEB3B1"/>
					</linearGradient>
					<path style="fill:url(#SVGID_00000005249184719102245030000001814403539334114458_);" d="M1530.8,1509.4l-4.8,16.2
						c0,0,10.5,4.8,19.8,0.9l1.8-14L1530.8,1509.4z"/>
					<g>
						
							<linearGradient id="SVGID_00000135680231700406636360000008772982576291082625_" gradientUnits="userSpaceOnUse" x1="1313.5546" y1="1526.9875" x2="1378.0531" y2="1526.9875" gradientTransform="matrix(1 0 0 1 333.8425 0)">
							<stop  offset="0" style="stop-color:#4042E2"/>
							<stop  offset="1" style="stop-color:#4F52FF"/>
						</linearGradient>
						<path style="fill:url(#SVGID_00000135680231700406636360000008772982576291082625_);" d="M1674.4,1533
							c-15.3,12.3-23.1,16.4-27,17.6c2.6,2,6.4,2.2,9.2-0.1l54-43.4c1.8-1.5,1.6-4.1-0.1-5.3
							C1704.8,1507.2,1692.3,1518.6,1674.4,1533z"/>
						
							<linearGradient id="SVGID_00000181785755911392849590000003132831525194985862_" gradientUnits="userSpaceOnUse" x1="1357.9194" y1="1404.856" x2="1336.0927" y2="1555.66" gradientTransform="matrix(1 0 0 1 333.8425 0)">
							<stop  offset="0" style="stop-color:#09005D"/>
							<stop  offset="1" style="stop-color:#1A0F91"/>
						</linearGradient>
						<path style="fill:url(#SVGID_00000181785755911392849590000003132831525194985862_);" d="M1710.5,1501.8
							c-0.3-0.2-0.7-0.5-1.2-0.6c-8.3-1.9-23.2-3.5-34.3,5.7c-16.3,13.5-20.6,19.9-34.9,28.2l5,12.4c0.5,1.3,1.3,2.3,2.3,3
							c4-1.2,11.8-5.4,27-17.6C1692.3,1518.6,1704.8,1507.2,1710.5,1501.8z"/>
					</g>
					
						<linearGradient id="SVGID_00000101092600057915444980000003860805486476700302_" gradientUnits="userSpaceOnUse" x1="1491.1742" y1="1379.5406" x2="1474.999" y2="1455.2406">
						<stop  offset="0" style="stop-color:#09005D"/>
						<stop  offset="1" style="stop-color:#1A0F91"/>
					</linearGradient>
					<path style="fill:url(#SVGID_00000101092600057915444980000003860805486476700302_);" d="M1429.1,1325.2
						c0,0,117.2,9.6,141.3,20.9c24.1,11.3-19.6,170-19.6,170s-6.5,3.2-21.1-1.4c0,0,14.9-117.1,3.8-142.5l-127-20.8L1429.1,1325.2z"
						/>
					
						<linearGradient id="SVGID_00000034774529694551372080000004731587076988550309_" gradientUnits="userSpaceOnUse" x1="1294.6254" y1="1520.5642" x2="1320.4303" y2="1520.5642" gradientTransform="matrix(1 0 0 1 333.8425 0)">
						<stop  offset="0" style="stop-color:#FF928E"/>
						<stop  offset="1" style="stop-color:#FEB3B1"/>
					</linearGradient>
					<path style="fill:url(#SVGID_00000034774529694551372080000004731587076988550309_);" d="M1628.5,1512.9
						c1.1,1,11.6,22.3,11.6,22.3s11.8-2.5,14.2-10l-10.6-19.2L1628.5,1512.9z"/>
					
						<linearGradient id="SVGID_00000113338184441415266300000013218624268523568571_" gradientUnits="userSpaceOnUse" x1="1526.7213" y1="1261.801" x2="1511.8401" y2="1356.264">
						<stop  offset="0" style="stop-color:#09005D"/>
						<stop  offset="1" style="stop-color:#1A0F91"/>
					</linearGradient>
					<path style="fill:url(#SVGID_00000113338184441415266300000013218624268523568571_);" d="M1358.5,1324.2c0,0-3.8,9.2-3.7,21.4
						c0.2,16.9,13.8,30.6,30.7,31.5l138.6,6.3c2.9,0.1,5.4,2.2,6.1,5c3.3,12.6,19.2,51.3,97,128.5c2.1,2.1,5.3,2.4,7.8,0.8l11.1-7
						c1.2-0.7,1.5-2.3,0.8-3.4l-80.7-137.8c-4.2-7-11.1-12-19-14.1l-118.1-30.2L1358.5,1324.2z"/>
					
						<linearGradient id="SVGID_00000114781361422239496290000009321796604639796901_" gradientUnits="userSpaceOnUse" x1="1506.8588" y1="1139.3268" x2="1546.3262" y2="1115.3876">
						<stop  offset="0" style="stop-color:#FF928E"/>
						<stop  offset="1" style="stop-color:#FEB3B1"/>
					</linearGradient>
					<path style="fill:url(#SVGID_00000114781361422239496290000009321796604639796901_);" d="M1519.3,1112.1
						c0,0-39.1,23.2-54.2,35.9l31.3,17.5c0,0,16.9-19.5,33-27.7L1519.3,1112.1z"/>
					
						<linearGradient id="SVGID_00000069356073918296102910000015929740282325694140_" gradientUnits="userSpaceOnUse" x1="1493.6975" y1="1258.9504" x2="1411.2019" y2="1464.4393">
						<stop  offset="0" style="stop-color:#09005D"/>
						<stop  offset="1" style="stop-color:#1A0F91"/>
					</linearGradient>
					<path style="fill:url(#SVGID_00000069356073918296102910000015929740282325694140_);" d="M1356,1325.2c0,0,37.4,9.1,73.1,0
						c0,0,50-67.2,69.3-85.5c0,0,30.8,48.7,99.5,55.6l3.8-8.6c0,0-54.7-25.2-71.5-63.9c-16.8-38.7-23.6-55.2-38.9-65.3
						c-9.5-6.3-15.2-10.6-18.2-12.9c-1.6-1.3-3.8-1.4-5.6-0.4C1451.4,1154.1,1374.9,1206.5,1356,1325.2z"/>
					<g>
						
							<linearGradient id="SVGID_00000026157227864664266500000011717053334552290994_" gradientUnits="userSpaceOnUse" x1="1505.8055" y1="1199.7405" x2="1408.3231" y2="1305.8495">
							<stop  offset="0" style="stop-color:#4042E2"/>
							<stop  offset="1" style="stop-color:#4F52FF"/>
						</linearGradient>
						<path style="fill:url(#SVGID_00000026157227864664266500000011717053334552290994_);" d="M1496.4,1237.2
							c0.2,0,0.3-0.1,0.5-0.2c0.4-0.3,0.4-0.8,0.2-1.1c-11.6-15.2-18.3-32.4-18.4-32.6c-0.2-0.4-0.6-0.6-1.1-0.5
							c-0.4,0.2-0.6,0.6-0.5,1.1c0.1,0.2,6.8,17.6,18.6,33C1495.9,1237.1,1496.2,1237.2,1496.4,1237.2z"/>
					</g>
					
						<linearGradient id="SVGID_00000112632807951431668260000002890422044232439181_" gradientUnits="userSpaceOnUse" x1="1259.9781" y1="1281.701" x2="1319.5844" y2="1281.701" gradientTransform="matrix(1 0 0 1 333.8425 0)">
						<stop  offset="0" style="stop-color:#F9B776"/>
						<stop  offset="1" style="stop-color:#F47960"/>
					</linearGradient>
					<path style="fill:url(#SVGID_00000112632807951431668260000002890422044232439181_);" d="M1593.8,1282.3l7.7-2.1l23.5-5.4
						c2.8-0.7,5.8-0.2,8.2,1.4l20.2,12.7l-55.7-0.1L1593.8,1282.3z"/>
				</g>
				<g>
					<g>
						<path class="st3" d="M1572.3,1299.8c0.1,0,0.2,0,0.3,0l119-0.1c2.9,0,5.3-2.4,5.3-5.3c0-2.9-2.4-5.4-5.3-5.3l-119,0.1
							c-2.9,0-5.3,2.4-5.3,5.3C1567.2,1297.3,1569.5,1299.7,1572.3,1299.8z"/>
					</g>
					<g>
						<path class="st3" d="M1737.7,1183.3c0,0.1-0.1,0.2-0.1,0.2l-50.1,108c-1.2,2.7-0.1,5.8,2.6,7.1c2.7,1.2,5.9,0.1,7.1-2.6
							l50.1-108c1.2-2.7,0.1-5.8-2.6-7.1C1742,1179.7,1739,1180.8,1737.7,1183.3z"/>
					</g>
				</g>
				<g>
					<path class="st9" d="M1625.3,1305.8c-0.5,2.2-50.2,188.4-62.8,235.6c-1.5,5.4,2.6,10.8,8.2,10.8l0,0c3.9,0,7.3-2.7,8.2-6.5
						l55.1-223.5L1625.3,1305.8z"/>
					<path class="st9" d="M1652.5,1305.8c0.5,2.2,50.2,188.4,62.8,235.6c1.5,5.4-2.6,10.8-8.2,10.8l0,0c-3.9,0-7.3-2.7-8.2-6.5
						l-55.1-223.5L1652.5,1305.8z"/>
					<path class="st9" d="M1654.6,1299.7h-30.9v24.8c0,3.6,2.9,6.5,6.4,6.5h4.2v55.8c0,2.7,2.2,4.9,4.8,4.9l0,0
						c2.7,0,4.8-2.2,4.8-4.9V1331h2.2c4.7,0,8.5-3.8,8.5-8.6V1299.7z"/>
					
						<linearGradient id="SVGID_00000030456589476165213170000003241494196759156135_" gradientUnits="userSpaceOnUse" x1="1644.4885" y1="1049.9373" x2="1638.0183" y2="1210.396">
						<stop  offset="0" style="stop-color:#09005D"/>
						<stop  offset="1" style="stop-color:#1A0F91"/>
					</linearGradient>
					<path style="fill:url(#SVGID_00000030456589476165213170000003241494196759156135_);" d="M1547.6,1293.7h172.7
						c2.4,0,4.5,1.7,5.1,4l2.4,9.5c0.9,3.4-1.7,6.7-5.2,6.7l-177.2-1c-3.4,0-5.9-3.3-5.1-6.7l2.1-8.4
						C1543,1295.4,1545.2,1293.7,1547.6,1293.7z"/>
				</g>
			</g>
			<g>
				
					<linearGradient id="SVGID_00000085218592822451957960000003835205124425712309_" gradientUnits="userSpaceOnUse" x1="1547.3302" y1="1109.943" x2="1500.7456" y2="1140.9995">
					<stop  offset="0" style="stop-color:#FF928E"/>
					<stop  offset="1" style="stop-color:#FEB3B1"/>
				</linearGradient>
				<path style="fill:url(#SVGID_00000085218592822451957960000003835205124425712309_);" d="M1546,1102.9c0,0,0.4,27.7-4.1,40.3
					c-4.5,12.6-5.2,21.7-20.4,18.2c-15.3-3.5-24.3-15.6-25.6-30.6c0,0-2.2-23.1,3.3-29.9C1504.7,1094.1,1546,1102.9,1546,1102.9z"/>
				
					<linearGradient id="SVGID_00000004514233814308910200000018131490539428667280_" gradientUnits="userSpaceOnUse" x1="1735.3618" y1="-591.564" x2="1792.6393" y2="-517.8193" gradientTransform="matrix(0.922 0.3871 -0.3871 0.922 -315.6554 945.6825)">
					<stop  offset="0" style="stop-color:#09005D"/>
					<stop  offset="1" style="stop-color:#1A0F91"/>
				</linearGradient>
				<path style="fill:url(#SVGID_00000004514233814308910200000018131490539428667280_);" d="M1504.4,1124.1l1.8,0.8
					c0,0-1-18.3,6.6-18.2c7.6,0.1,35.6,5.6,45-1.2c9.1-6.6,9.1-20,3.2-26.2c-0.4-0.4-1-0.4-1.4-0.1l-1.1,0.9c-0.7,0.6-1.8,0-1.7-0.9
					l0,0c0.1-0.9-0.9-1.5-1.6-1c-2.9,2-9.3,4.5-22.7,1.6c-18.9-4.1-33.5-1.9-38.9,10.1c-0.3,0.8-1.3,0.8-1.8,0.2
					c-1-1.3-2.9-2.6-6.6-1.4c-6.5,2-9,13.4-2,26.4c0.3,0.6,0,1.4-0.7,1.5c-2.4,0.4-6.5,2.2-0.8,9.3c5.9,7.2,10.5,8.7,12.4,8.9
					c0.5,0.1,1-0.2,1.2-0.7l3.8-11c0.2-0.6,0.8-0.9,1.4-0.6L1504.4,1124.1z"/>
				
					<linearGradient id="SVGID_00000131346188315361443660000015169653037753471375_" gradientUnits="userSpaceOnUse" x1="1537.6876" y1="1095.4794" x2="1491.103" y2="1126.5358">
					<stop  offset="0" style="stop-color:#FF928E"/>
					<stop  offset="1" style="stop-color:#FEB3B1"/>
				</linearGradient>
				<path style="fill:url(#SVGID_00000131346188315361443660000015169653037753471375_);" d="M1503.9,1126.5c0,0,2.4-16.6-6.1-15.2
					c-8.5,1.4-3.6,18.2,1.6,21.1L1503.9,1126.5z"/>
			</g>
		</g>
		<g>
			<g>
				
					<linearGradient id="SVGID_00000181073480132075261780000014994829772727109545_" gradientUnits="userSpaceOnUse" x1="1645.8112" y1="995.6827" x2="1740.9716" y2="885.2288">
					<stop  offset="0" style="stop-color:#E1473D"/>
					<stop  offset="1" style="stop-color:#E9605A"/>
				</linearGradient>
				<circle style="fill:url(#SVGID_00000181073480132075261780000014994829772727109545_);" cx="1742.9" cy="883" r="70.9"/>
				
					<linearGradient id="SVGID_00000128453614033874406530000011635492984722652053_" gradientUnits="userSpaceOnUse" x1="1794.7434" y1="804.6677" x2="1513.3516" y2="1229.7705">
					<stop  offset="0" style="stop-color:#FF928E"/>
					<stop  offset="1" style="stop-color:#FEB3B1"/>
				</linearGradient>
				<circle style="fill:url(#SVGID_00000128453614033874406530000011635492984722652053_);" cx="1742.9" cy="883" r="68.6"/>
				<path class="st73" d="M1686.3,856.8c-0.3,0-0.7-0.1-1-0.2c-1.1-0.6-1.6-2-1-3.1c11.2-22.3,33.7-36.1,58.6-36.1
					c4,0,8,0.4,11.8,1.1c1.2,0.2,2.1,1.4,1.8,2.7c-0.2,1.2-1.4,2.1-2.7,1.8c-3.6-0.7-7.3-1-11-1c-23.2,0-44.1,12.9-54.5,33.6
					C1688,856.3,1687.2,856.8,1686.3,856.8z"/>
				<circle class="st74" cx="1744.4" cy="884.5" r="58.1"/>
				<g>
					
						<linearGradient id="SVGID_00000045607351649503114830000013531875973395301771_" gradientUnits="userSpaceOnUse" x1="1786.3491" y1="816.8484" x2="1636.5143" y2="1068.3964">
						<stop  offset="0" style="stop-color:#E1473D"/>
						<stop  offset="1" style="stop-color:#E9605A"/>
					</linearGradient>
					<path style="fill:url(#SVGID_00000045607351649503114830000013531875973395301771_);" d="M1738.7,927.6v-6.3
						c-6.6-0.3-13.1-1.8-17.7-3.8c-1.7-0.7-2.5-2.6-2-4.3l1.6-5.9c0.6-2.2,2.9-3.3,5-2.4c4.6,1.9,10.3,3.4,16.4,3.4
						c6.3,0,11.1-2.1,11.1-6.6c0-4-3.7-6.3-12.5-8.7c-12.6-3.4-21.6-8.9-21.6-20c0-10,7.3-17.6,20-19.7v-6.3c0-2,1.6-3.7,3.7-3.7
						h3.7c2,0,3.7,1.6,3.7,3.7v5.7c6.1,0.2,10.5,1.3,14,2.5c1.8,0.6,2.8,2.6,2.3,4.4l-1.5,5.4c-0.6,2.1-2.8,3.2-4.8,2.5
						c-3.2-1.2-7.8-2.5-13.8-2.5c-7.5,0-9.7,3.1-9.7,5.9c0,3.4,4.5,5.8,14.3,8.8c14,4.2,19.8,10,19.8,20.4c0,9.6-7.1,18.2-20.9,20.3
						v7.1c0,2-1.6,3.7-3.7,3.7h-3.7C1740.3,931.3,1738.7,929.7,1738.7,927.6z"/>
				</g>
			</g>
			<g>
				
					<linearGradient id="SVGID_00000121244813482969459030000006518689620120141990_" gradientUnits="userSpaceOnUse" x1="1775.8379" y1="995.0296" x2="1941.4956" y2="802.7485">
					<stop  offset="0" style="stop-color:#E1473D"/>
					<stop  offset="1" style="stop-color:#E9605A"/>
				</linearGradient>
				<circle style="fill:url(#SVGID_00000121244813482969459030000006518689620120141990_);" cx="1944.8" cy="798.9" r="123.5"/>
				
					<linearGradient id="SVGID_00000065776263673373739330000012971568913590980282_" gradientUnits="userSpaceOnUse" x1="2035.1031" y1="662.5056" x2="1545.2484" y2="1402.5364">
					<stop  offset="0" style="stop-color:#FF928E"/>
					<stop  offset="1" style="stop-color:#FEB3B1"/>
				</linearGradient>
				<circle style="fill:url(#SVGID_00000065776263673373739330000012971568913590980282_);" cx="1944.8" cy="798.9" r="119.4"/>
				<path class="st73" d="M1846.4,751.6c-0.3,0-0.7-0.1-1-0.2c-1.1-0.6-1.6-2-1-3.1c19.3-38.2,57.8-61.9,100.5-61.9
					c6.8,0,13.6,0.6,20.3,1.8c1.2,0.2,2.1,1.4,1.8,2.7c-0.2,1.2-1.4,2.1-2.7,1.8c-6.4-1.2-12.9-1.8-19.5-1.8
					c-41,0-77.9,22.7-96.4,59.4C1848,751.1,1847.2,751.6,1846.4,751.6z"/>
				<circle class="st74" cx="1947.4" cy="801.5" r="101.1"/>
				<g>
					
						<linearGradient id="SVGID_00000054265227750435742130000002834398233468344738_" gradientUnits="userSpaceOnUse" x1="2020.4904" y1="683.7097" x2="1759.6527" y2="1121.6128">
						<stop  offset="0" style="stop-color:#E1473D"/>
						<stop  offset="1" style="stop-color:#E9605A"/>
					</linearGradient>
					<path style="fill:url(#SVGID_00000054265227750435742130000002834398233468344738_);" d="M1937.5,876.6v-11
						c-11.5-0.5-22.8-3.2-30.8-6.7c-2.9-1.3-4.3-4.5-3.5-7.5l2.8-10.2c1-3.8,5.1-5.7,8.7-4.2c8,3.3,17.8,6,28.5,6
						c11,0,19.3-3.7,19.3-11.4c0-6.9-6.4-11-21.7-15.2c-21.9-6-37.6-15.5-37.6-34.8c0-17.4,12.7-30.7,34.8-34.2v-11
						c0-3.5,2.9-6.4,6.4-6.4h6.5c3.5,0,6.4,2.9,6.4,6.4v9.9c10.6,0.4,18.3,2.2,24.5,4.4c3.1,1.1,4.9,4.5,4,7.7l-2.6,9.5
						c-1,3.7-4.9,5.7-8.4,4.3c-5.6-2.1-13.6-4.4-24-4.4c-13.1,0-16.8,5.4-16.8,10.3c0,6,7.9,10.1,24.9,15.3
						c24.3,7.3,34.4,17.4,34.4,35.5c0,16.7-12.3,31.6-36.3,35.4v12.3c0,3.5-2.9,6.4-6.4,6.4h-6.5
						C1940.4,883,1937.5,880.1,1937.5,876.6z"/>
				</g>
			</g>
			<g>
				
					<linearGradient id="SVGID_00000132082206383499729040000007704639396475295923_" gradientUnits="userSpaceOnUse" x1="1856.115" y1="1276.569" x2="2026.5748" y2="1078.714">
					<stop  offset="0" style="stop-color:#E1473D"/>
					<stop  offset="1" style="stop-color:#E9605A"/>
				</linearGradient>
				<circle style="fill:url(#SVGID_00000132082206383499729040000007704639396475295923_);" cx="2030" cy="1074.7" r="127.1"/>
				
					<linearGradient id="SVGID_00000055703106626608043790000010379922251272693417_" gradientUnits="userSpaceOnUse" x1="2122.8958" y1="934.4056" x2="1618.8414" y2="1695.8879">
					<stop  offset="0" style="stop-color:#FF928E"/>
					<stop  offset="1" style="stop-color:#FEB3B1"/>
				</linearGradient>
				<circle style="fill:url(#SVGID_00000055703106626608043790000010379922251272693417_);" cx="2030" cy="1074.7" r="122.9"/>
				<path class="st73" d="M1928.7,1026c-0.3,0-0.7-0.1-1-0.2c-1.1-0.6-1.6-2-1-3.1c19.8-39.3,59.4-63.6,103.4-63.6
					c7,0,14,0.6,20.9,1.9c1.2,0.2,2.1,1.4,1.8,2.7c-0.2,1.2-1.4,2.1-2.7,1.8c-6.6-1.2-13.3-1.8-20-1.8c-42.2,0-80.2,23.4-99.3,61.1
					C1930.4,1025.5,1929.5,1026,1928.7,1026z"/>
				
					<ellipse transform="matrix(0.2323 -0.9726 0.9726 0.2323 512.514 2804.1479)" class="st74" cx="2032.7" cy="1077.4" rx="104" ry="104"/>
				<g>
					
						<linearGradient id="SVGID_00000062902395096773675120000011749299171070648730_" gradientUnits="userSpaceOnUse" x1="2107.8591" y1="956.2245" x2="1839.4606" y2="1406.8213">
						<stop  offset="0" style="stop-color:#E1473D"/>
						<stop  offset="1" style="stop-color:#E9605A"/>
					</linearGradient>
					<path style="fill:url(#SVGID_00000062902395096773675120000011749299171070648730_);" d="M2022.5,1154.7v-11.3
						c-11.8-0.5-23.5-3.3-31.7-6.9c-3-1.3-4.5-4.6-3.6-7.7l2.9-10.5c1.1-3.9,5.3-5.9,9-4.3c8.2,3.4,18.4,6.2,29.3,6.2
						c11.4,0,19.8-3.9,19.8-11.7c0-7.1-6.5-11.4-22.3-15.6c-22.5-6.2-38.7-16-38.7-35.8c0-17.9,13.1-31.6,35.8-35.2v-11.3
						c0-3.6,3-6.6,6.6-6.6h6.6c3.6,0,6.6,3,6.6,6.6v10.2c10.9,0.4,18.9,2.3,25.2,4.5c3.2,1.1,5,4.6,4.1,7.9l-2.6,9.7
						c-1,3.8-5,5.8-8.7,4.4c-5.8-2.2-14-4.5-24.7-4.5c-13.5,0-17.3,5.6-17.3,10.6c0,6.2,8.1,10.4,25.6,15.8
						c25,7.5,35.4,17.9,35.4,36.6c0,17.1-12.7,32.5-37.3,36.4v12.7c0,3.6-3,6.6-6.6,6.6h-6.6
						C2025.4,1161.3,2022.5,1158.3,2022.5,1154.7z"/>
				</g>
			</g>
			<g>
				
					<linearGradient id="SVGID_00000076577162343643364910000006064650579247940237_" gradientUnits="userSpaceOnUse" x1="2065.6323" y1="1049.499" x2="2190.5271" y2="904.5321">
					<stop  offset="0" style="stop-color:#E1473D"/>
					<stop  offset="1" style="stop-color:#E9605A"/>
				</linearGradient>
				<circle style="fill:url(#SVGID_00000076577162343643364910000006064650579247940237_);" cx="2193" cy="901.6" r="93.1"/>
				
					<linearGradient id="SVGID_00000116213987596040303870000011990905424119588997_" gradientUnits="userSpaceOnUse" x1="2261.1006" y1="798.7986" x2="1891.7839" y2="1356.7308">
					<stop  offset="0" style="stop-color:#FF928E"/>
					<stop  offset="1" style="stop-color:#FEB3B1"/>
				</linearGradient>
				<circle style="fill:url(#SVGID_00000116213987596040303870000011990905424119588997_);" cx="2193" cy="901.6" r="90"/>
				<path class="st73" d="M2118.8,866.5c-0.3,0-0.7-0.1-1-0.2c-1.1-0.6-1.6-2-1-3.1c14.6-29,43.8-47,76.3-47
					c5.2,0,10.3,0.5,15.4,1.4c1.2,0.2,2.1,1.4,1.8,2.7c-0.2,1.2-1.4,2.1-2.7,1.8c-4.8-0.9-9.7-1.3-14.6-1.3
					c-30.7,0-58.3,17-72.2,44.4C2120.5,866,2119.7,866.5,2118.8,866.5z"/>
				
					<ellipse transform="matrix(0.8858 -0.4641 0.4641 0.8858 -168.6364 1121.9105)" class="st74" cx="2195" cy="903.6" rx="76.2" ry="76.2"/>
				<g>
					
						<linearGradient id="SVGID_00000109017396190540775630000012858240680798036902_" gradientUnits="userSpaceOnUse" x1="2250.0837" y1="814.785" x2="2053.4302" y2="1144.934">
						<stop  offset="0" style="stop-color:#E1473D"/>
						<stop  offset="1" style="stop-color:#E9605A"/>
					</linearGradient>
					<path style="fill:url(#SVGID_00000109017396190540775630000012858240680798036902_);" d="M2187.5,960.2v-8.3
						c-8.6-0.3-17.2-2.4-23.3-5c-2.2-0.9-3.3-3.4-2.6-5.7l2.1-7.7c0.8-2.8,3.9-4.3,6.6-3.2c6,2.5,13.5,4.5,21.5,4.5
						c8.3,0,14.5-2.8,14.5-8.6c0-5.2-4.8-8.3-16.4-11.4c-16.5-4.5-28.4-11.7-28.4-26.2c0-13.1,9.6-23.1,26.2-25.8v-8.3
						c0-2.7,2.2-4.8,4.8-4.8h4.9c2.7,0,4.8,2.2,4.8,4.8v7.4c8,0.3,13.8,1.7,18.4,3.3c2.4,0.8,3.7,3.4,3,5.8l-1.9,7.1
						c-0.7,2.8-3.7,4.3-6.4,3.3c-4.3-1.6-10.3-3.3-18.1-3.3c-9.9,0-12.7,4.1-12.7,7.8c0,4.5,5.9,7.6,18.8,11.6
						c18.3,5.5,26,13.1,26,26.8c0,12.6-9.3,23.8-27.4,26.7v9.3c0,2.7-2.2,4.8-4.8,4.8h-4.9C2189.7,965,2187.5,962.9,2187.5,960.2z"
						/>
				</g>
			</g>
		</g>
		<g>
			<g>
				<path class="st28" d="M1236.2,243.8c0,0,0.5-0.8,1.4-2.2c0.5-0.8,1.6-1,2.4-0.5c0.4,0.2,0.6,0.6,0.7,0.9
					c0.7-0.2,1.6-0.4,2.5-0.6c0.9-0.2,1.8,0.3,2.1,1.3c0.2,0.9-0.3,1.9-1.3,2.1c-2.6,0.6-4.4,1.2-5.3,1.5c-0.3,0.1-0.4,0.1-0.5,0.2
					l-4.1,1.1L1236.2,243.8z M1242.5,234.4c1.6-2.3,3.4-4.7,5.1-7c0.6-0.8,1.7-0.9,2.4-0.3c0.7,0.6,0.9,1.7,0.3,2.4
					c-1.7,2.3-3.4,4.6-5.1,6.9c-0.5,0.8-1.6,1-2.4,0.4c-0.1-0.1-0.3-0.2-0.3-0.3C1242.1,235.9,1242,235.1,1242.5,234.4z
					 M1250.3,241.7c-0.1-0.9,0.5-1.8,1.5-1.9c3-0.4,5.9-0.7,8.7-0.8c0.9,0,1.8,0.7,1.8,1.6c0,0.9-0.7,1.8-1.6,1.8
					c-2.7,0.1-5.5,0.4-8.4,0.8c-0.6,0.1-1.2-0.2-1.6-0.6C1250.5,242.3,1250.4,242,1250.3,241.7z M1267.5,240.6
					c0.1-0.9,0.9-1.7,1.9-1.6c3,0.2,6,0.7,8.7,1.4c0.9,0.2,1.5,1.1,1.3,2.1c-0.2,0.9-1.2,1.5-2.1,1.3c-2.6-0.6-5.4-1.1-8.2-1.3
					c-0.5,0-0.9-0.3-1.2-0.6C1267.6,241.5,1267.4,241.1,1267.5,240.6z M1253,220.7c1.8-2.2,3.7-4.5,5.6-6.6c0.6-0.7,1.7-0.8,2.4-0.1
					c0.7,0.6,0.8,1.7,0.1,2.4c-1.9,2.1-3.7,4.3-5.5,6.5c-0.6,0.7-1.7,0.8-2.4,0.2c-0.1-0.1-0.2-0.2-0.3-0.3
					C1252.5,222.2,1252.5,221.3,1253,220.7z M1284.2,244.1c0.4-0.9,1.4-1.2,2.3-0.9c2,0.9,3.8,1.9,5.6,3.1c0.7,0.5,1.4,0.9,2,1.3
					c0.8,0.5,1.1,1.5,0.6,2.4c-0.5,0.8-1.5,1.1-2.4,0.6c-0.7-0.4-1.4-0.9-2.1-1.4c-1.6-1.1-3.3-2-5.1-2.8c-0.3-0.1-0.5-0.3-0.6-0.5
					C1284,245.4,1283.9,244.7,1284.2,244.1z M1307.6,268.5c0.5-0.5,1.2-0.6,1.8-0.4c1.5-0.5,3.2-0.6,5.2-0.3c0.9,0.1,1.6,1,1.5,1.9
					c-0.1,0.9-1,1.6-1.9,1.5c-2.4-0.3-4.1,0.1-5.5,1.1l-2.2-2.6L1307.6,268.5z M1299.3,252.4c0.4-0.9,1.4-1.3,2.2-1
					c2.7,1.1,5.4,1.8,7.8,2.1c0.9,0.1,1.6,1,1.5,1.9c-0.1,0.9-1,1.6-1.9,1.5c-2.8-0.3-5.7-1.1-8.7-2.3c-0.3-0.1-0.5-0.3-0.7-0.5
					C1299.2,253.6,1299,252.9,1299.3,252.4z M1264.5,207.7c2-2.1,4.1-4.2,6.1-6.1c0.7-0.7,1.8-0.6,2.4,0.1c0.7,0.7,0.6,1.8-0.1,2.4
					c-2,1.9-4.1,4-6,6c-0.7,0.7-1.7,0.7-2.4,0.1c-0.1-0.1-0.1-0.1-0.2-0.2C1263.9,209.3,1263.9,208.4,1264.5,207.7z M1313.6,262.3
					c2.3-2.4,4.3-4.5,5.9-6.2c0.6-0.7,1.7-0.7,2.4-0.1c0.7,0.6,0.7,1.7,0.1,2.4c-1.6,1.8-3.6,3.9-5.9,6.3c-0.7,0.7-1.7,0.7-2.4,0
					c-0.1-0.1-0.1-0.1-0.1-0.2C1313,263.9,1313,263,1313.6,262.3z M1321.1,270.8c0.2-0.9,1.2-1.5,2.1-1.3c2.4,0.6,5.1,1.2,8.3,1.7
					c0.9,0.1,1.6,1,1.4,2c-0.1,0.9-1,1.6-2,1.4c-3.3-0.5-6-1.1-8.6-1.7c-0.4-0.1-0.7-0.3-0.9-0.6
					C1321.1,271.9,1321,271.4,1321.1,270.8z M1316,255.1c-0.3-0.9,0.3-1.9,1.2-2.1c2.7-0.8,4.6-1.9,5.8-2.7c0.5-0.3,1-0.6,1.3-0.8
					c0.2-0.1,0.3-0.2,0.5-0.2c0.9-0.3,1.8,0.2,2.1,1.1c0.3,0.9-0.2,1.9-1.1,2.2c-0.3,0.1-0.6,0.3-1,0.6c-1.3,0.8-3.6,2.3-6.7,3.1
					c-0.7,0.2-1.4-0.1-1.8-0.6C1316.2,255.5,1316.1,255.3,1316,255.1z M1277,195.7c1.9-1.7,3.9-3.4,5.9-4.9l0.8-0.6
					c0.7-0.6,1.8-0.5,2.4,0.3l0,0c0.6,0.7,0.5,1.8-0.3,2.4l-0.8,0.6c-1.9,1.5-3.9,3.2-5.8,4.8c-0.7,0.6-1.8,0.6-2.4-0.2
					c0,0,0,0,0-0.1C1276.2,197.4,1276.3,196.3,1277,195.7z M1338,273.7c0-0.9,0.8-1.7,1.8-1.6c2.7,0.1,5.6,0.1,8.4-0.1
					c0.9-0.1,1.8,0.7,1.8,1.6c0.1,0.9-0.7,1.8-1.6,1.8c-3,0.2-5.9,0.2-8.8,0.1c-0.5,0-1-0.3-1.3-0.6
					C1338.2,274.5,1338,274.1,1338,273.7z M1355.2,273.1c-0.1-0.9,0.5-1.8,1.4-2c0.6-0.1,1.2-0.2,1.8-0.3c2.2-0.4,4.3-0.8,6.4-1.4
					c0.9-0.3,1.9,0.3,2.1,1.2c0.3,0.9-0.3,1.9-1.2,2.1c-2.2,0.6-4.5,1.1-6.8,1.5c-0.6,0.1-1.2,0.2-1.9,0.3c-0.6,0.1-1.2-0.2-1.6-0.6
					C1355.3,273.7,1355.2,273.4,1355.2,273.1z M1290.2,187.4c-0.5-0.8-0.4-1.8,0.4-2.4c2.4-1.7,4.8-3.3,7.3-4.8
					c0.8-0.5,1.9-0.2,2.4,0.6c0.5,0.8,0.2,1.9-0.6,2.4c-2.4,1.4-4.7,3-7.1,4.7C1291.9,188.3,1290.9,188.2,1290.2,187.4
					C1290.3,187.4,1290.2,187.4,1290.2,187.4z M1371.8,268.8c-0.4-0.9,0-1.9,0.8-2.3c2.5-1.1,5-2.5,7.3-4c0.8-0.5,1.9-0.3,2.4,0.5
					c0.5,0.8,0.3,1.9-0.5,2.4c-2.5,1.6-5.1,3.1-7.7,4.3c-0.7,0.3-1.6,0.1-2.1-0.5C1371.9,269,1371.8,268.9,1371.8,268.8z
					 M1304.7,178.2c-0.4-0.8-0.1-1.9,0.7-2.3c2.6-1.4,5.3-2.6,7.9-3.7c0.9-0.4,1.9,0,2.3,0.9c0.4,0.9,0,1.9-0.9,2.3
					c-2.5,1.1-5.1,2.3-7.6,3.6c-0.7,0.4-1.6,0.2-2.1-0.4C1304.9,178.4,1304.8,178.3,1304.7,178.2z M1386.5,257.4
					c2.1-1.8,4-3.8,5.8-6c0.6-0.7,1.7-0.8,2.4-0.2c0.7,0.6,0.8,1.7,0.2,2.4c-1.9,2.3-4,4.4-6.2,6.3c-0.7,0.6-1.8,0.6-2.4-0.1
					c0,0,0,0-0.1-0.1C1385.7,259.1,1385.8,258,1386.5,257.4z M1320.4,171.2c-0.3-0.9,0.2-1.9,1.1-2.2c2.8-0.9,5.6-1.7,8.4-2.3
					c0.9-0.2,1.8,0.4,2.1,1.3c0.2,0.9-0.4,1.8-1.3,2.1c-2.7,0.6-5.4,1.4-8.1,2.3c-0.7,0.2-1.4,0-1.9-0.6
					C1320.6,171.6,1320.5,171.4,1320.4,171.2z M1397.3,244.7c2.3-3.5,3.4-6.2,3.6-6.9l0.5-3.8c0.1-0.9,1-1.6,1.9-1.5
					c0.9,0.1,1.6,1,1.5,1.9l-0.5,3.7l0,0c-0.4,2.5-4,8.3-4.1,8.3c-0.5,0.8-1.6,1-2.4,0.5c-0.2-0.1-0.3-0.2-0.4-0.4
					C1397,246.2,1396.9,245.4,1397.3,244.7z M1337.1,167.1c-0.1-0.9,0.6-1.8,1.5-1.9c2.9-0.3,5.9-0.5,8.7-0.6c0.9,0,1.7,0.8,1.7,1.7
					c0,0.9-0.8,1.7-1.7,1.7c-2.8,0-5.6,0.2-8.4,0.6c-0.6,0.1-1.2-0.2-1.5-0.6C1337.3,167.8,1337.1,167.5,1337.1,167.1z
					 M1354.2,166.6c0.1-0.9,0.9-1.6,1.9-1.5c2.9,0.3,5.8,0.7,8.7,1.3c0.9,0.2,1.5,1.1,1.3,2c-0.2,0.9-1.1,1.5-2,1.3
					c-2.7-0.6-5.5-1-8.3-1.3c-0.5,0-0.9-0.3-1.2-0.6C1354.3,167.5,1354.2,167,1354.2,166.6z M1402.7,225.6l1.2-8.5
					c0.1-0.9,1-1.6,1.9-1.5c0.9,0.1,1.6,1,1.5,1.9l-1.2,8.5c-0.1,0.9-1,1.6-1.9,1.5c-0.4-0.1-0.8-0.3-1.1-0.6
					C1402.8,226.6,1402.6,226.1,1402.7,225.6z M1371.1,169.7c0.3-0.9,1.3-1.4,2.2-1.1c2.7,0.9,5.5,1.9,8.2,3.1
					c0.9,0.4,1.3,1.4,0.9,2.3c-0.4,0.9-1.4,1.3-2.3,0.9c-2.6-1.1-5.3-2.1-7.9-3c-0.3-0.1-0.6-0.3-0.8-0.6
					C1371,170.9,1370.9,170.3,1371.1,169.7z M1405.2,208.6l1.2-8.5c0.1-0.9,1-1.6,1.9-1.5c0.9,0.1,1.6,1,1.5,1.9l-1.2,8.5
					c-0.1,0.9-1,1.6-1.9,1.5c-0.4-0.1-0.8-0.3-1.1-0.6C1405.2,209.5,1405.1,209.1,1405.2,208.6z M1386.9,176.2
					c0.5-0.8,1.5-1.1,2.3-0.7c2.5,1.4,5,2.8,7.5,4.5c0.8,0.5,1,1.6,0.5,2.4c-0.5,0.8-1.6,1-2.4,0.5c-2.4-1.6-4.8-3-7.3-4.3
					c-0.2-0.1-0.4-0.3-0.5-0.4C1386.7,177.6,1386.6,176.9,1386.9,176.2z M1401.5,185.3c0.6-0.8,1.6-0.9,2.4-0.3
					c2.2,1.7,4.4,3.4,6.6,5.3l0.7,0.6l-0.2,1.1c-0.1,0.9-1,1.6-1.9,1.5c-0.6-0.1-1.1-0.5-1.3-1c-2-1.7-4-3.3-6-4.8
					c-0.1-0.1-0.2-0.2-0.3-0.3C1401,186.8,1401,186,1401.5,185.3z"/>
			</g>
			
				<linearGradient id="SVGID_00000038402334352651775040000007020876777001689753_" gradientUnits="userSpaceOnUse" x1="-3003.8164" y1="2964.6816" x2="-3072.4646" y2="3056.8958" gradientTransform="matrix(0.7384 -0.6743 -0.6743 -0.7384 5647.8579 393.1943)">
				<stop  offset="0" style="stop-color:#E1473D"/>
				<stop  offset="1" style="stop-color:#E9605A"/>
			</linearGradient>
			<path style="fill:url(#SVGID_00000038402334352651775040000007020876777001689753_);" d="M1403.3,219c0,0-17.6,33.8-43.8,23.6
				c-26.2-10.2-50.1-27-62.2-21.8c0,0,46.3-58.3,106.4-15.2L1403.3,219z"/>
			
				<linearGradient id="SVGID_00000098190756114459806790000000076021616404838820_" gradientUnits="userSpaceOnUse" x1="-1762.7338" y1="2620.6528" x2="-1721.3942" y2="2536.4141" gradientTransform="matrix(1.300000e-02 -0.9999 -0.9999 -1.300000e-02 3992.9146 -1411.0511)">
				<stop  offset="0" style="stop-color:#4042E2"/>
				<stop  offset="1" style="stop-color:#4F52FF"/>
			</linearGradient>
			<path style="fill:url(#SVGID_00000098190756114459806790000000076021616404838820_);" d="M1472.3,259.8c0,0-4.5,37.1-16.4,41.7
				c-11.2,4.4-95.5-3.2-103.7-3.9c-0.4,0-0.6-0.3-0.6-0.7l0,0c0-3.1,1.5-5.9,4-7.7c12.1-8.6,48.3-33.9,61.7-38
				C1433.5,246.1,1472.3,259.8,1472.3,259.8z"/>
			<path class="st3" d="M1382.5,295.2c0.1,0.2,0.4,0.3,0.6,0.3c0.5,0,46.7,3.4,66.7,4.1c3.6,0.1,6.8-1.9,8.4-5.1
				c2.4-5,6.9-15,9.4-25.5c0.1-0.5-0.2-0.9-0.6-1c-0.5-0.1-0.9,0.2-1,0.6c-2.5,10.3-6.8,20.2-9.2,25.1c-1.2,2.6-3.9,4.2-6.8,4.1
				c-19.9-0.7-66.1-4-66.6-4.1c-0.5,0-0.9,0.3-0.9,0.8C1382.3,294.8,1382.4,295,1382.5,295.2z"/>
			
				<linearGradient id="SVGID_00000075858013966469942060000015918096844106734983_" gradientUnits="userSpaceOnUse" x1="-1546.7719" y1="2624.5933" x2="-1611.1195" y2="2515.7874" gradientTransform="matrix(1.300000e-02 -0.9999 -0.9999 -1.300000e-02 3992.9146 -1411.0511)">
				<stop  offset="0" style="stop-color:#4042E2"/>
				<stop  offset="1" style="stop-color:#4F52FF"/>
			</linearGradient>
			<path style="fill:url(#SVGID_00000075858013966469942060000015918096844106734983_);" d="M1473.4,172.9c0,0-3.6-37.2-15.3-42.1
				c-11.1-4.7-95.6,0.7-103.8,1.3c-0.4,0-0.6,0.3-0.7,0.7l0,0c0,3.1,1.4,6,3.8,7.8c11.8,8.9,47.4,35.1,60.7,39.6
				C1434.3,185.5,1473.4,172.9,1473.4,172.9z"/>
			<path class="st3" d="M1384.6,136.3c0.2,0.2,0.4,0.3,0.7,0.3c0.5,0,46.7-2.2,66.7-2.3c2.9,0,5.5,1.7,6.7,4.3
				c2.3,5,6.4,15,8.6,25.4c0.1,0.5,0.6,0.8,1,0.7c0.5-0.1,0.8-0.6,0.7-1c-2.1-10-5.9-19.5-8.7-25.7c-1.5-3.2-4.7-5.3-8.3-5.3
				c-20,0.2-66.3,2.3-66.7,2.3c-0.5,0-0.8,0.4-0.8,0.9C1384.4,136,1384.5,136.2,1384.6,136.3z"/>
			
				<linearGradient id="SVGID_00000181767213197623269010000018244372131344836529_" gradientUnits="userSpaceOnUse" x1="1466.5867" y1="230.6948" x2="1586.5865" y2="192.6947">
				<stop  offset="0" style="stop-color:#4042E2"/>
				<stop  offset="1" style="stop-color:#4F52FF"/>
			</linearGradient>
			<path style="fill:url(#SVGID_00000181767213197623269010000018244372131344836529_);" d="M1597.9,260.9
				c-17.4,5.4-37.4,9-59.6,8.8c-69.1-0.7-119.8-13.2-134.2-17.1c-2.6-0.7-4.6-2.8-5.2-5.4c-4.9-20.6-4.8-41.2,0.3-61.7
				c1-3.9,4-6.9,7.9-7.8c16.8-4,66.3-14.2,132.5-13.1c22.1,0.4,41.9,4.4,59,10.2C1607.7,209.3,1602.1,242.4,1597.9,260.9z"/>
			
				<linearGradient id="SVGID_00000088815301194189538160000002642606957308617397_" gradientUnits="userSpaceOnUse" x1="-1627.7706" y1="2319.3267" x2="-1715.1294" y2="2445.6846" gradientTransform="matrix(1.300000e-02 -0.9999 -0.9999 -1.300000e-02 3992.9146 -1411.0511)">
				<stop  offset="0" style="stop-color:#09005D"/>
				<stop  offset="1" style="stop-color:#1A0F91"/>
			</linearGradient>
			<path style="fill:url(#SVGID_00000088815301194189538160000002642606957308617397_);" d="M1598.6,174.9
				c37.8,12.8,62.6,33.9,70.5,41.3c1.6,1.5,1.5,3.9-0.1,5.3c-8.1,7.2-33.3,27.5-71.2,39.4C1602.1,242.4,1607.7,209.3,1598.6,174.9z"
				/>
			<g>
				<path class="st9" d="M1543.9,182.5c-17.9-0.2-32.6,15.2-32.9,34.4c-0.2,19.2,14.1,35,32,35.2c17.9,0.2,32.6-15.2,32.9-34.4
					C1576.1,198.5,1561.8,182.8,1543.9,182.5z"/>
				
					<linearGradient id="SVGID_00000138560619010848346450000003828019133292205495_" gradientUnits="userSpaceOnUse" x1="-1686.8655" y1="2427.2178" x2="-1631.3973" y2="2427.2178" gradientTransform="matrix(1.300000e-02 -0.9999 -0.9999 -1.300000e-02 3992.9146 -1411.0511)">
					<stop  offset="0" style="stop-color:#09005D"/>
					<stop  offset="1" style="stop-color:#1A0F91"/>
				</linearGradient>
				<path style="fill:url(#SVGID_00000138560619010848346450000003828019133292205495_);" d="M1544.7,188.6
					c-14.3-0.2-26,12.1-26.2,27.4c-0.2,15.3,11.2,27.9,25.5,28.1c14.3,0.2,26-12.1,26.2-27.4C1570.4,201.4,1559,188.8,1544.7,188.6z
					"/>
				<path class="st3" d="M1548.9,235.8c0.2,0.3,0.6,0.4,0.9,0.3c8.8-2.6,15.1-11.1,15.2-20.6c0-2.4-0.3-4.8-1-7.1
					c-0.1-0.5-0.6-0.7-1.1-0.6c-0.5,0.1-0.7,0.6-0.6,1.1c0.7,2.1,1,4.3,0.9,6.5c-0.1,8.8-5.8,16.6-13.9,19c-0.5,0.1-0.7,0.6-0.6,1.1
					C1548.8,235.7,1548.9,235.8,1548.9,235.8z"/>
			</g>
			<g>
				<path class="st9" d="M1478.6,193.5c-11.8-0.2-21.6,10-21.7,22.7c-0.2,12.7,9.3,23.1,21.1,23.3c11.8,0.2,21.6-10,21.7-22.7
					C1499.9,204.1,1490.4,193.6,1478.6,193.5z"/>
				
					<linearGradient id="SVGID_00000173151989045466903870000013467552522382285452_" gradientUnits="userSpaceOnUse" x1="-1677.7877" y1="2492.7002" x2="-1641.1437" y2="2492.7002" gradientTransform="matrix(1.300000e-02 -0.9999 -0.9999 -1.300000e-02 3992.9146 -1411.0511)">
					<stop  offset="0" style="stop-color:#09005D"/>
					<stop  offset="1" style="stop-color:#1A0F91"/>
				</linearGradient>
				<path style="fill:url(#SVGID_00000173151989045466903870000013467552522382285452_);" d="M1479.1,197.5
					c-9.4-0.1-17.2,8-17.3,18.1c-0.1,10.1,7.4,18.4,16.8,18.5c9.4,0.1,17.2-8,17.3-18.1C1496.1,205.9,1488.6,197.6,1479.1,197.5z"/>
				<path class="st3" d="M1481.7,228.9c0.2,0.3,0.6,0.4,0.9,0.3c5.9-1.7,10.2-7.4,10.2-13.9c0-1.6-0.2-3.2-0.7-4.8
					c-0.1-0.5-0.6-0.7-1.1-0.6c-0.5,0.1-0.7,0.6-0.6,1.1c0.4,1.4,0.6,2.8,0.6,4.2c-0.1,5.7-3.8,10.7-9,12.3
					c-0.5,0.1-0.7,0.6-0.6,1.1C1481.5,228.7,1481.6,228.8,1481.7,228.9z"/>
			</g>
		</g>
		<g>
			<path class="st28" d="M1213.1,242.5l-11.3,2.8c-1.1,0.3-2.1-0.4-2.4-1.4c-0.3-1.1,0.4-2.1,1.4-2.4l0.1,0l11-2.7l0.1,0
				c1.1-0.3,2.1,0.4,2.4,1.4C1214.8,241.2,1214.2,242.2,1213.1,242.5L1213.1,242.5z"/>
			<path class="st28" d="M1190.4,247.3l-11.5,1.2c-1.1,0.1-2-0.6-2.1-1.7c-0.1-1.1,0.6-2,1.7-2.1l0.1,0l11.3-1.3l0.1,0
				c1.1-0.1,2,0.6,2.1,1.7C1192.3,246.2,1191.5,247.1,1190.4,247.3L1190.4,247.3z"/>
			<path class="st28" d="M1167.3,249.1l-11.6-0.1c-1,0-1.9-0.9-1.9-1.9c0-1,0.9-1.9,1.9-1.9l0.1,0l11.4,0l0.1,0
				c1.1,0,1.9,0.9,1.9,1.9C1169.3,248.2,1168.4,249.1,1167.3,249.1L1167.3,249.1z"/>
			<path class="st28" d="M1144.3,248.3l-11.5-1.2c-1-0.1-1.7-1-1.6-2c0.1-1,1-1.7,2-1.6l0.1,0l11.3,1.2l0.1,0c1,0.1,1.8,1,1.7,2
				C1146.2,247.7,1145.3,248.4,1144.3,248.3L1144.3,248.3z"/>
			<path class="st28" d="M1121.3,245.4l-11.3-2.2c-1-0.2-1.6-1.1-1.4-2.1c0.2-1,1.1-1.6,2.1-1.4l0.1,0l11.2,2.1l0.1,0
				c1,0.2,1.6,1.1,1.5,2.1C1123.3,244.9,1122.3,245.6,1121.3,245.4L1121.3,245.4z"/>
			<path class="st28" d="M1098.8,240.7l-11.1-2.9c-0.9-0.2-1.5-1.2-1.3-2.1c0.2-0.9,1.2-1.5,2.1-1.3l0,0l11,2.9l0.1,0
				c1,0.2,1.5,1.2,1.3,2.2S1099.7,240.9,1098.8,240.7L1098.8,240.7z"/>
			<path class="st28" d="M1076.6,234.5l-10.9-3.6c-0.9-0.3-1.4-1.3-1.1-2.2c0.3-0.9,1.3-1.4,2.2-1.1l0,0l10.9,3.5l0,0
				c0.9,0.3,1.4,1.3,1.1,2.2C1078.5,234.3,1077.5,234.8,1076.6,234.5L1076.6,234.5z"/>
			<path class="st28" d="M1054.8,227l-10.7-4.1c-0.9-0.3-1.3-1.3-1-2.2c0.3-0.9,1.3-1.3,2.2-1l0,0l10.7,4.1l0,0
				c0.9,0.3,1.3,1.3,1,2.2C1056.7,226.9,1055.7,227.4,1054.8,227L1054.8,227z"/>
			<path class="st28" d="M1033.4,218.5l-10.5-4.6c-0.8-0.4-1.2-1.3-0.8-2.1c0.4-0.8,1.3-1.2,2.1-0.8l0,0l10.5,4.5l0,0
				c0.8,0.4,1.2,1.3,0.9,2.2C1035.2,218.5,1034.3,218.9,1033.4,218.5L1033.4,218.5z"/>
			<path class="st28" d="M1012.4,209.1l-10.4-5c-0.8-0.4-1.1-1.3-0.7-2.1c0.4-0.8,1.3-1.1,2.1-0.7l0,0l10.3,4.9l0,0
				c0.8,0.4,1.1,1.3,0.8,2.1C1014.2,209.1,1013.2,209.5,1012.4,209.1L1012.4,209.1z"/>
			<path class="st28" d="M991.8,198.9l-10.2-5.4c-0.8-0.4-1-1.3-0.6-2.1c0.4-0.8,1.3-1,2.1-0.6l0,0l10.1,5.3l0,0
				c0.8,0.4,1.1,1.3,0.7,2.1C993.5,199,992.6,199.3,991.8,198.9L991.8,198.9z"/>
			<path class="st28" d="M971.6,188l-10-5.7c-0.7-0.4-1-1.3-0.6-2.1c0.4-0.7,1.3-1,2.1-0.6l0,0l10,5.6l0,0c0.7,0.4,1,1.3,0.6,2.1
				C973.2,188.2,972.3,188.4,971.6,188L971.6,188z"/>
			<path class="st28" d="M951.6,176.5l-9.8-5.9c-0.7-0.4-0.9-1.3-0.5-2c0.4-0.7,1.3-0.9,2-0.5l0,0l9.8,5.9l0,0
				c0.7,0.4,0.9,1.3,0.5,2C953.3,176.7,952.4,177,951.6,176.5L951.6,176.5z"/>
			<path class="st28" d="M932,164.5l-9.7-6.2c-0.7-0.4-0.9-1.3-0.4-2c0.4-0.7,1.3-0.9,2-0.4l0,0l9.7,6.2l0,0c0.7,0.4,0.9,1.4,0.5,2
				C933.6,164.8,932.7,165,932,164.5L932,164.5z"/>
			<path class="st28" d="M912.8,152l-9.5-6.4c-0.7-0.5-0.8-1.4-0.4-2c0.5-0.7,1.4-0.8,2-0.4l0,0l9.5,6.4l0,0c0.7,0.5,0.8,1.4,0.4,2
				C914.3,152.3,913.4,152.5,912.8,152L912.8,152z"/>
			<path class="st28" d="M893.8,139l-9.4-6.6c-0.7-0.5-0.8-1.4-0.3-2c0.5-0.7,1.4-0.8,2-0.3l0,0l9.3,6.6l0,0c0.7,0.5,0.8,1.4,0.3,2
				S894.4,139.5,893.8,139L893.8,139z"/>
			<path class="st28" d="M875,126l-9.8-5.8l-0.1,0c-0.7-0.4-0.9-1.3-0.5-2c0.4-0.7,1.3-0.9,2-0.5l9.9,5.9c0.7,0.4,0.9,1.3,0.5,2
				C876.6,126.2,875.8,126.4,875,126L875,126L875,126z"/>
			<path class="st28" d="M855.1,115l-10.4-4.5l-0.1,0c-0.7-0.3-1.1-1.2-0.7-1.9c0.3-0.7,1.2-1.1,1.9-0.7l10.6,4.6
				c0.7,0.3,1.1,1.2,0.7,1.9C856.7,115,855.9,115.4,855.1,115L855.1,115L855.1,115z"/>
			<path class="st28" d="M833.9,106.6l-10.9-3.2l-0.1,0c-0.8-0.2-1.2-1-1-1.8c0.2-0.8,1-1.2,1.7-1l11.1,3.2c0.8,0.2,1.2,1,1,1.8
				C835.6,106.5,834.8,106.9,833.9,106.6L833.9,106.6L833.9,106.6z"/>
			<path class="st28" d="M811.9,101l-11.2-1.7l-0.1,0c-0.8-0.1-1.3-0.8-1.2-1.6c0.1-0.8,0.8-1.3,1.6-1.2l11.4,1.8
				c0.8,0.1,1.3,0.8,1.2,1.6C813.5,100.6,812.7,101.2,811.9,101L811.9,101L811.9,101z"/>
			<path class="st28" d="M789.3,98.2l-11.4-0.3l-0.1,0c-0.8,0-1.4-0.7-1.4-1.4c0-0.8,0.7-1.4,1.4-1.4l11.6,0.3
				c0.8,0,1.4,0.7,1.4,1.4C790.8,97.7,790.2,98.3,789.3,98.2L789.3,98.2L789.3,98.2z"/>
			<path class="st28" d="M766.6,98.3l-11.3,1.1l-0.1,0c-0.8,0.1-1.4-0.5-1.5-1.2c-0.1-0.8,0.5-1.4,1.2-1.5l11.5-1.2
				c0.8-0.1,1.4,0.5,1.5,1.2C768,97.6,767.4,98.3,766.6,98.3L766.6,98.3L766.6,98.3z"/>
			<path class="st28" d="M744,101.3l-11.1,2.6l-0.1,0c-0.7,0.2-1.5-0.3-1.6-1c-0.2-0.7,0.3-1.5,1-1.6l11.3-2.6
				c0.7-0.2,1.5,0.3,1.6,1C745.3,100.4,744.8,101.1,744,101.3L744,101.3L744,101.3z"/>
			<path class="st28" d="M722,107.1l-10.7,3.9l-0.1,0c-0.7,0.3-1.5-0.1-1.7-0.8c-0.3-0.7,0.1-1.5,0.8-1.7l10.8-4
				c0.7-0.3,1.5,0.1,1.8,0.8C723.2,106.1,722.8,106.9,722,107.1L722,107.1L722,107.1z"/>
			<path class="st28" d="M701,115.7l-10,5.4l-0.1,0c-0.7,0.4-1.5,0.1-1.8-0.6c-0.4-0.7-0.1-1.5,0.5-1.8l10.2-5.5
				c0.7-0.4,1.5-0.1,1.8,0.6C702,114.5,701.7,115.3,701,115.7L701,115.7L701,115.7z"/>
			<path class="st28" d="M681.3,127.2l-9.2,6.7l-0.1,0c-0.6,0.4-1.4,0.3-1.9-0.3s-0.3-1.4,0.3-1.9l9.3-6.8c0.6-0.4,1.4-0.3,1.9,0.3
				C682.1,125.8,682,126.7,681.3,127.2L681.3,127.2L681.3,127.2z"/>
			<path class="st28" d="M663.3,141.1l-8.3,7.8l-0.1,0.1c-0.5,0.5-1.4,0.5-1.9-0.1c-0.5-0.5-0.5-1.4,0.1-1.9l8.4-7.9
				c0.5-0.5,1.4-0.5,1.9,0.1C664,139.7,663.9,140.5,663.3,141.1L663.3,141.1L663.3,141.1z"/>
			<path class="st28" d="M647.1,157.1l-7.4,8.7l0,0.1c-0.5,0.6-1.3,0.6-1.8,0.1c-0.6-0.5-0.6-1.3-0.1-1.8l7.5-8.8
				c0.5-0.6,1.3-0.6,1.9-0.1C647.6,155.6,647.6,156.5,647.1,157.1L647.1,157.1L647.1,157.1z"/>
			<path class="st28" d="M632.8,174.8l-6.3,9.5l0,0.1c-0.4,0.6-1.2,0.8-1.8,0.4c-0.6-0.4-0.8-1.2-0.4-1.8l6.4-9.6
				c0.4-0.6,1.2-0.8,1.8-0.4C633.1,173.3,633.3,174.1,632.8,174.8L632.8,174.8L632.8,174.8z"/>
			<path class="st28" d="M620.7,194.1l-5.1,10.2l0,0.1c-0.3,0.6-1.1,0.9-1.7,0.6c-0.6-0.3-0.9-1.1-0.6-1.7l5.2-10.3
				c0.3-0.6,1.1-0.9,1.7-0.6C620.8,192.6,621.1,193.4,620.7,194.1L620.7,194.1L620.7,194.1z"/>
			<path class="st28" d="M611.1,214.7l-3.7,10.7l0,0.1c-0.2,0.7-1,1-1.6,0.8c-0.7-0.2-1-1-0.8-1.6l3.8-10.9c0.2-0.7,1-1,1.6-0.8
				C611,213.2,611.4,214,611.1,214.7L611.1,214.7L611.1,214.7z"/>
			<path class="st28" d="M604.4,236.5l-2,11.2l0,0.1c-0.1,0.7-0.8,1.1-1.5,1c-0.7-0.1-1.1-0.8-1-1.5l2.1-11.4c0.1-0.7,0.8-1.1,1.5-1
				c0.7,0.1,1.1,0.8,1,1.5l0,0L604.4,236.5z"/>
			<path class="st28" d="M601.3,258.9l-0.1,11.3l0,0.1c0,0.7-0.6,1.2-1.3,1.2c-0.7,0-1.3-0.6-1.2-1.3l0.1-11.6
				c0-0.7,0.6-1.3,1.3-1.3c0.7,0,1.3,0.6,1.3,1.3l0,0L601.3,258.9z"/>
			<path class="st28" d="M602.2,281.6l2.1,11.1l0,0.1c0.1,0.7-0.3,1.3-1,1.5c-0.7,0.1-1.3-0.3-1.5-1l-2.2-11.4
				c-0.1-0.7,0.3-1.3,1-1.5c0.7-0.1,1.3,0.3,1.5,1l0,0L602.2,281.6z"/>
			<path class="st28" d="M607.6,303.6l4.3,10.5l0,0.1c0.3,0.6,0,1.3-0.7,1.6c-0.6,0.3-1.3,0-1.6-0.7l-4.4-10.7
				c-0.3-0.6,0-1.4,0.7-1.6c0.6-0.3,1.4,0,1.6,0.7l0,0L607.6,303.6z"/>
			<path class="st28" d="M617.5,323.9c2.1,3.1,4.5,6,7.1,8.7c0.5,0.5,0.5,1.2,0,1.7c-0.5,0.5-1.2,0.5-1.7,0c-2.8-2.8-5.3-5.8-7.5-9
				c-0.4-0.6-0.2-1.3,0.3-1.7C616.3,323.2,617.1,323.3,617.5,323.9L617.5,323.9z"/>
			<path class="st28" d="M633.4,339.5c3.2,2,6.6,3.6,10.1,4.8c0.6,0.2,1,0.9,0.8,1.5c-0.2,0.6-0.9,1-1.5,0.8c-3.7-1.3-7.3-3-10.6-5
				c-0.6-0.4-0.7-1.1-0.4-1.7C632,339.3,632.8,339.1,633.4,339.5L633.4,339.5z"/>
			<path class="st28" d="M654.4,346.7c3.7,0.4,7.5,0.4,11.2-0.1c0.7-0.1,1.2,0.4,1.3,1.1c0.1,0.7-0.4,1.2-1.1,1.3
				c-3.9,0.4-7.8,0.5-11.7,0.1c-0.7-0.1-1.1-0.7-1.1-1.3C653.1,347.1,653.7,346.6,654.4,346.7L654.4,346.7z"/>
			<path class="st28" d="M676.5,344.3c3.6-1.1,7.1-2.6,10.4-4.3c0.6-0.3,1.3-0.1,1.6,0.5c0.3,0.6,0.1,1.3-0.5,1.6
				c-3.4,1.8-7,3.3-10.8,4.5c-0.6,0.2-1.3-0.2-1.5-0.8C675.6,345.2,675.9,344.5,676.5,344.3L676.5,344.3z"/>
			<path class="st28" d="M696.4,333.9c3-2.3,5.8-4.8,8.3-7.6c0.4-0.5,1.2-0.5,1.7-0.1c0.5,0.4,0.5,1.2,0.1,1.7
				c-2.6,2.9-5.5,5.5-8.6,7.9c-0.5,0.4-1.3,0.3-1.7-0.2C695.8,335.1,695.9,334.3,696.4,333.9L696.4,333.9z"/>
			<path class="st28" d="M711.7,317.5l2.9-4.9c1-1.6,1.8-3.3,2.6-5l0-0.1c0.3-0.6,1-0.8,1.6-0.5c0.6,0.3,0.8,1,0.5,1.6
				c-0.9,1.7-1.6,3.5-2.7,5.2l-3,5c-0.3,0.6-1,0.7-1.6,0.4c-0.6-0.3-0.7-1-0.4-1.6l0,0L711.7,317.5z"/>
			<path class="st28" d="M721.1,297c1-3.6,1.8-7.3,2.1-11.1c0.1-0.6,0.6-1.1,1.3-1c0.6,0.1,1.1,0.6,1,1.3c-0.4,3.9-1.1,7.7-2.2,11.5
				c-0.2,0.6-0.8,1-1.4,0.8C721.2,298.3,720.9,297.6,721.1,297L721.1,297z"/>
			<path class="st28" d="M723.3,274.7c-0.3-3.7-1-7.4-2.1-11c-0.2-0.6,0.2-1.2,0.8-1.4c0.6-0.2,1.2,0.2,1.4,0.8
				c1.1,3.7,1.8,7.6,2.2,11.5c0.1,0.6-0.4,1.2-1,1.2S723.3,275.4,723.3,274.7L723.3,274.7z"/>
			<path class="st28" d="M717,253.3c-1.7-3.3-3.7-6.5-6-9.6c-0.4-0.5-0.3-1.2,0.2-1.6c0.5-0.4,1.2-0.3,1.6,0.2
				c2.3,3.1,4.4,6.4,6.2,9.9c0.3,0.6,0.1,1.2-0.5,1.5C718,254,717.3,253.8,717,253.3L717,253.3z"/>
			<path class="st28" d="M703.6,235.2c-2.7-2.6-5.6-5.1-8.6-7.3c-0.5-0.4-0.6-1.1-0.2-1.6c0.4-0.5,1.1-0.6,1.6-0.2
				c3.1,2.3,6.1,4.8,8.9,7.5c0.4,0.4,0.5,1.1,0,1.6C704.8,235.6,704.1,235.7,703.6,235.2L703.6,235.2z"/>
			<path class="st28" d="M685.5,221.8c-3.3-1.8-6.7-3.5-10.2-4.9c-0.6-0.2-0.8-0.9-0.6-1.4c0.2-0.6,0.9-0.8,1.4-0.6
				c3.6,1.5,7.1,3.1,10.4,5c0.5,0.3,0.7,1,0.4,1.5S686,222.1,685.5,221.8L685.5,221.8z"/>
			<path class="st28" d="M664.6,213.2c-3.6-1.1-7.4-1.7-11.1-2.6l-0.1,0c-0.6-0.1-1-0.8-0.8-1.4c0.1-0.6,0.8-1,1.4-0.8l0,0
				c3.7,0.9,7.5,1.7,11.2,2.7c0.6,0.2,0.9,0.8,0.8,1.4S665.2,213.3,664.6,213.2L664.6,213.2z"/>
			<path class="st28" d="M642.3,208.7l-11.3-1.1l-0.1,0c-0.7-0.1-1.1-0.6-1.1-1.3c0.1-0.7,0.6-1.1,1.3-1.1l0,0l11.5,1.2
				c0.6,0.1,1.1,0.6,1,1.3C643.5,208.3,643,208.8,642.3,208.7L642.3,208.7z"/>
			<path class="st28" d="M619.5,207.2l-11.4,0.3l-0.1,0c-0.7,0-1.3-0.5-1.3-1.2c0-0.7,0.5-1.3,1.2-1.3h0l11.5-0.2
				c0.7,0,1.2,0.5,1.2,1.2C620.8,206.6,620.3,207.2,619.5,207.2L619.5,207.2z"/>
			<path class="st28" d="M596.8,208.4l-11.3,1.5l-0.1,0c-0.7,0.1-1.4-0.4-1.5-1.1c-0.1-0.7,0.4-1.4,1.1-1.5l0,0l11.4-1.5
				c0.7-0.1,1.3,0.4,1.4,1.1C598,207.7,597.6,208.3,596.8,208.4L596.8,208.4z"/>
			<path class="st28" d="M574.3,212.1l-11.1,2.7l-0.1,0c-0.7,0.2-1.5-0.3-1.7-1c-0.2-0.7,0.3-1.5,1-1.7l0,0l11.2-2.7
				c0.7-0.2,1.4,0.3,1.6,1C575.5,211.2,575.1,211.9,574.3,212.1L574.3,212.1z"/>
			<path class="st28" d="M552.3,218.1l-10.7,3.9l-0.1,0c-0.7,0.3-1.6-0.1-1.8-0.9c-0.3-0.7,0.1-1.6,0.9-1.8l0,0l10.9-3.9
				c0.7-0.3,1.5,0.1,1.8,0.9C553.5,217,553.1,217.8,552.3,218.1L552.3,218.1z"/>
			<path class="st28" d="M531.2,226.5l-10.2,5.1l-0.1,0c-0.7,0.4-1.6,0.1-2-0.7c-0.4-0.7-0.1-1.6,0.7-2l0,0l10.4-5.1
				c0.7-0.4,1.6-0.1,2,0.7C532.3,225.2,532,226.1,531.2,226.5L531.2,226.5z"/>
			<path class="st28" d="M511.1,237.2l-9.5,6.3l-0.1,0.1c-0.7,0.5-1.7,0.3-2.2-0.4s-0.3-1.7,0.4-2.2l0,0l9.7-6.3
				c0.7-0.5,1.7-0.3,2.1,0.4C512.1,235.8,511.9,236.7,511.1,237.2L511.1,237.2z"/>
			<path class="st28" d="M492.5,250.3l-8.8,7.3l-0.1,0c-0.7,0.6-1.7,0.5-2.3-0.2c-0.6-0.7-0.5-1.7,0.2-2.3l0,0l8.9-7.3
				c0.7-0.6,1.7-0.5,2.3,0.2C493.3,248.7,493.2,249.7,492.5,250.3L492.5,250.3z"/>
			<path class="st28" d="M475.3,265.2l-8.1,8l0,0c-0.7,0.7-1.7,0.6-2.4,0c-0.7-0.7-0.6-1.7,0-2.4l0,0l8.3-8c0.7-0.6,1.7-0.6,2.4,0
				C476,263.5,476,264.5,475.3,265.2L475.3,265.2z"/>
			<path class="st28" d="M459.3,281.5l-7.6,8.5l0,0c-0.6,0.7-1.8,0.8-2.5,0.2c-0.7-0.6-0.8-1.8-0.2-2.5l0,0l7.7-8.6
				c0.6-0.7,1.7-0.8,2.4-0.1C459.9,279.6,460,280.7,459.3,281.5L459.3,281.5z"/>
			<path class="st28" d="M444.4,298.8l-7,9l0,0c-0.6,0.8-1.8,0.9-2.5,0.3c-0.8-0.6-0.9-1.8-0.3-2.5l0,0l7.1-9
				c0.6-0.8,1.7-0.9,2.5-0.3C444.9,296.9,445.1,298,444.4,298.8L444.4,298.8z"/>
			<path class="st28" d="M430.7,317l-6.5,9.4l0,0c-0.6,0.9-1.8,1.1-2.6,0.5c-0.9-0.6-1.1-1.8-0.5-2.6l0,0l6.6-9.4
				c0.6-0.8,1.7-1,2.6-0.4C431.1,315,431.3,316.1,430.7,317L430.7,317z"/>
			<path class="st28" d="M417.9,335.9l-6,9.7l0,0c-0.6,0.9-1.8,1.2-2.7,0.6c-0.9-0.6-1.2-1.8-0.6-2.7l0,0l6.1-9.8
				c0.6-0.9,1.7-1.2,2.6-0.6C418.2,333.8,418.5,335,417.9,335.9L417.9,335.9z"/>
			<path class="st28" d="M406.1,355.5l-5.5,10l0,0c-0.5,1-1.7,1.3-2.7,0.8c-1-0.5-1.3-1.7-0.8-2.7l0,0l5.6-10
				c0.5-0.9,1.7-1.3,2.7-0.8C406.3,353.3,406.6,354.5,406.1,355.5L406.1,355.5z"/>
			<path class="st28" d="M395.3,375.6l-5,10.3l0,0c-0.5,1-1.7,1.4-2.8,0.9c-1-0.5-1.4-1.7-0.9-2.8l0,0l5.1-10.3
				c0.5-1,1.7-1.4,2.7-0.9C395.4,373.3,395.8,374.6,395.3,375.6L395.3,375.6z"/>
			<path class="st28" d="M385.5,396.2l-4.5,10.5l0,0.1c-0.5,1.1-1.7,1.6-2.8,1.1c-1.1-0.5-1.6-1.7-1.1-2.8l0,0l4.6-10.6
				c0.5-1.1,1.7-1.5,2.7-1.1C385.5,393.9,385.9,395.1,385.5,396.2L385.5,396.2z"/>
			<path class="st28" d="M376.8,417.3l-3.9,10.7l0,0.1c-0.4,1.1-1.7,1.7-2.8,1.3c-1.1-0.4-1.7-1.7-1.3-2.8l0,0l4-10.8
				c0.4-1.1,1.6-1.7,2.8-1.3C376.6,415,377.2,416.2,376.8,417.3L376.8,417.3z"/>
			<path class="st28" d="M369.3,438.9l-3.2,10.9l0,0.1c-0.3,1.2-1.6,1.9-2.8,1.5c-1.2-0.3-1.9-1.6-1.5-2.8l0,0l3.3-11.1
				c0.3-1.2,1.6-1.8,2.7-1.5C369,436.5,369.7,437.7,369.3,438.9L369.3,438.9z"/>
			<path class="st28" d="M363.4,460.9L361,472l0,0.1c-0.3,1.2-1.5,2-2.7,1.8c-1.2-0.3-2-1.5-1.8-2.7c0.8-3.8,1.6-7.5,2.4-11.3
				c0.3-1.2,1.5-2,2.7-1.7C362.9,458.4,363.6,459.6,363.4,460.9L363.4,460.9z"/>
			<path class="st28" d="M359.2,483.2l-1.3,11.3l0,0.1c-0.1,1.2-1.3,2.1-2.5,2c-1.2-0.1-2.1-1.3-2-2.5l1.3-11.5
				c0.1-1.3,1.3-2.1,2.5-2c1.3,0.1,2.1,1.3,2,2.5l0,0L359.2,483.2z"/>
			<path class="st28" d="M357.1,505.8l-0.2,11.4l0,0.1c0,1.2-1,2.2-2.3,2.2c-1.2,0-2.2-1-2.2-2.3l0.2-11.6c0-1.2,1-2.2,2.3-2.2
				c1.2,0,2.2,1,2.2,2.3l0,0L357.1,505.8z"/>
			<path class="st28" d="M357.3,528.5l1,11.3l0,0.1c0.1,1.2-0.8,2.3-2,2.4c-1.2,0.1-2.3-0.8-2.4-2l-1.1-11.5c-0.1-1.2,0.8-2.3,2-2.4
				s2.3,0.8,2.4,2l0,0L357.3,528.5z"/>
			<path class="st28" d="M360,551.1l2.3,11.1l0,0.1c0.2,1.2-0.5,2.4-1.7,2.6c-1.2,0.2-2.4-0.5-2.6-1.7l-2.4-11.3
				c-0.3-1.2,0.5-2.4,1.7-2.6c1.2-0.3,2.4,0.5,2.6,1.7l0,0L360,551.1z"/>
			<path class="st28" d="M365.3,573.1l3.6,10.8l0,0.1c0.4,1.1-0.2,2.4-1.4,2.8c-1.1,0.4-2.4-0.2-2.8-1.4l-3.7-11
				c-0.4-1.1,0.2-2.4,1.4-2.8c1.1-0.4,2.4,0.2,2.8,1.4l0,0L365.3,573.1z"/>
			<path class="st28" d="M373.1,594.4l4.8,10.3l0,0.1c0.5,1.1,0,2.4-1.1,2.9c-1.1,0.5-2.4,0-2.9-1.1l-4.9-10.5
				c-0.5-1.1,0-2.4,1.1-2.9c1.1-0.5,2.4,0,2.9,1.1l0,0L373.1,594.4z"/>
			<path class="st28" d="M383.1,614.8l5.8,9.8l0.1,0.1c0.6,1,0.3,2.3-0.7,2.9s-2.3,0.3-2.9-0.7l-5.9-9.9c-0.6-1-0.3-2.3,0.7-2.9
				C381.1,613.3,382.4,613.6,383.1,614.8L383.1,614.8L383.1,614.8z"/>
			<path class="st28" d="M395.2,634l6.7,9.2l0.1,0.1c0.7,0.9,0.5,2.3-0.5,2.9c-0.9,0.7-2.3,0.5-2.9-0.5l-6.8-9.3
				c-0.7-0.9-0.5-2.3,0.5-3C393.1,632.8,394.4,633,395.2,634L395.2,634L395.2,634z"/>
			<path class="st28" d="M409,652.1l7.5,8.6l0.1,0.1c0.8,0.9,0.7,2.2-0.2,2.9c-0.9,0.8-2.2,0.7-2.9-0.2l-7.6-8.7
				c-0.8-0.9-0.7-2.2,0.2-3C406.8,651,408.2,651.1,409,652.1L409,652.1L409,652.1z"/>
			<path class="st28" d="M424.2,669l8.1,8l0.1,0c0.8,0.8,0.8,2.1,0,2.9c-0.8,0.8-2.1,0.8-2.9,0l-8.2-8.1c-0.8-0.8-0.8-2.1,0-2.9
				C422,668.1,423.4,668.1,424.2,669L424.2,669L424.2,669z"/>
			<path class="st28" d="M440.7,684.8l8.6,7.5l0,0c0.9,0.7,0.9,2,0.2,2.9c-0.7,0.9-2,0.9-2.9,0.2l-8.7-7.6c-0.9-0.7-0.9-2-0.2-2.9
				C438.5,684.1,439.8,684,440.7,684.8L440.7,684.8L440.7,684.8z"/>
			<path class="st28" d="M458.1,699.5l9,7l0,0c0.9,0.7,1,2,0.4,2.8c-0.7,0.9-2,1-2.8,0.4l-9.1-7c-0.9-0.7-1.1-2-0.4-2.9
				C455.9,698.9,457.1,698.8,458.1,699.5L458.1,699.5L458.1,699.5z"/>
			<path class="st28" d="M476.3,713.3l9.4,6.5l0,0c0.9,0.6,1.1,1.9,0.5,2.8c-0.6,0.9-1.9,1.1-2.8,0.5l-9.5-6.6
				c-0.9-0.6-1.1-1.9-0.5-2.8C474.1,712.8,475.3,712.6,476.3,713.3L476.3,713.3L476.3,713.3z"/>
			<path class="st28" d="M495.2,726.2l9.6,6.3c0.9,0.6,1.2,1.8,0.6,2.7c-0.6,0.9-1.8,1.2-2.7,0.6l-9.6-6.3c-0.9-0.6-1.2-1.8-0.6-2.8
				C493,725.8,494.2,725.6,495.2,726.2L495.2,726.2z"/>
			<path class="st28" d="M514.3,738.8l9.6,6.3c0.9,0.6,1.2,1.8,0.6,2.7c-0.6,0.9-1.8,1.2-2.7,0.6l-9.6-6.3c-0.9-0.6-1.2-1.8-0.6-2.7
				C512.2,738.5,513.4,738.2,514.3,738.8L514.3,738.8z"/>
			<path class="st28" d="M533.5,751.3l9.6,6.3c0.9,0.6,1.1,1.8,0.6,2.7c-0.6,0.9-1.8,1.1-2.7,0.6l-9.6-6.3c-0.9-0.6-1.2-1.8-0.6-2.7
				S532.6,750.8,533.5,751.3L533.5,751.3z"/>
			<path class="st28" d="M552.7,763.9l9.6,6.3c0.9,0.6,1.1,1.8,0.5,2.6c-0.6,0.9-1.8,1.1-2.6,0.5l-9.6-6.3c-0.9-0.6-1.1-1.8-0.6-2.7
				C550.6,763.6,551.8,763.3,552.7,763.9L552.7,763.9z"/>
			<path class="st28" d="M571.8,776.6l9.5,6.4c0.9,0.6,1.1,1.8,0.5,2.6c-0.6,0.9-1.8,1.1-2.6,0.5l0,0l-9.5-6.4l0,0
				c-0.9-0.6-1.1-1.8-0.5-2.6C569.8,776.3,570.9,776,571.8,776.6L571.8,776.6z"/>
			<path class="st28" d="M590.7,789.6l9.4,6.6c0.8,0.6,1,1.8,0.4,2.6c-0.6,0.8-1.8,1-2.6,0.5l0,0l-9.4-6.6l0,0
				c-0.8-0.6-1.1-1.8-0.5-2.6C588.7,789.2,589.9,789,590.7,789.6L590.7,789.6z"/>
			<path class="st28" d="M609.4,802.9l9.2,6.8c0.8,0.6,1,1.8,0.4,2.6c-0.6,0.8-1.8,1-2.6,0.4l0,0l-9.2-6.8l0,0
				c-0.8-0.6-1-1.8-0.4-2.6C607.5,802.5,608.6,802.3,609.4,802.9L609.4,802.9z"/>
			<path class="st28" d="M627.8,816.7l9.1,7.1c0.8,0.6,0.9,1.8,0.3,2.6c-0.6,0.8-1.8,0.9-2.5,0.3l0,0l-9-7l0,0
				c-0.8-0.6-0.9-1.8-0.3-2.6C625.9,816.2,627,816.1,627.8,816.7L627.8,816.7z"/>
			<path class="st28" d="M645.8,831l8.9,7.3c0.8,0.6,0.9,1.8,0.2,2.5c-0.6,0.8-1.8,0.9-2.5,0.2l0,0l-8.8-7.2l0,0
				c-0.8-0.6-0.9-1.8-0.3-2.5C643.9,830.5,645.1,830.4,645.8,831L645.8,831z"/>
			<path class="st28" d="M663.5,845.7l8.7,7.6c0.7,0.6,0.8,1.8,0.2,2.5c-0.6,0.7-1.8,0.8-2.5,0.2l0,0l-8.6-7.5l0,0
				c-0.7-0.6-0.8-1.8-0.2-2.5C661.6,845.1,662.7,845.1,663.5,845.7L663.5,845.7z"/>
			<path class="st28" d="M680.7,861l8.4,7.9c0.7,0.7,0.7,1.8,0.1,2.5c-0.7,0.7-1.8,0.7-2.5,0.1l0,0l-8.3-7.8l0,0
				c-0.7-0.7-0.7-1.8-0.1-2.5C678.9,860.3,680,860.3,680.7,861L680.7,861z"/>
			<path class="st28" d="M697.2,877l8,8.3c0.7,0.7,0.6,1.8,0,2.4c-0.7,0.7-1.8,0.6-2.4,0l0,0l-7.9-8.2l0,0c-0.7-0.7-0.6-1.8,0-2.5
				C695.5,876.2,696.6,876.3,697.2,877L697.2,877z"/>
			<path class="st28" d="M713,893.8l7.5,8.8c0.6,0.7,0.5,1.8-0.2,2.4c-0.7,0.6-1.8,0.5-2.4-0.2l0,0l-7.4-8.7l0,0
				c-0.6-0.7-0.5-1.8,0.2-2.4C711.3,893,712.3,893.1,713,893.8L713,893.8z"/>
			<path class="st28" d="M727.6,911.6l6.8,9.3c0.5,0.8,0.4,1.8-0.4,2.3c-0.8,0.5-1.8,0.4-2.3-0.4l0-0.1l-6.7-9.2l0-0.1
				c-0.6-0.8-0.4-1.8,0.4-2.4C725.9,910.7,727,910.9,727.6,911.6L727.6,911.6z"/>
			<path class="st28" d="M740.7,930.6l5.9,9.9c0.5,0.8,0.2,1.8-0.6,2.3c-0.8,0.5-1.8,0.2-2.3-0.6l0-0.1l-5.9-9.8l0-0.1
				c-0.5-0.8-0.2-1.8,0.6-2.3C739.2,929.5,740.2,929.8,740.7,930.6L740.7,930.6z"/>
			<path class="st28" d="M752.1,950.7l4.8,10.5c0.4,0.8,0,1.8-0.8,2.1c-0.8,0.4-1.8,0-2.1-0.8l0-0.1l-4.8-10.3l0-0.1
				c-0.4-0.8,0-1.8,0.8-2.2C750.7,949.5,751.7,949.9,752.1,950.7L752.1,950.7z"/>
			<path class="st28" d="M761.1,971.9l3.6,11c0.3,0.8-0.2,1.7-1,2c-0.8,0.3-1.7-0.2-2-1l0-0.1l-3.6-10.8l0-0.1c-0.3-0.8,0.2-1.7,1-2
				C760,970.6,760.9,971.1,761.1,971.9L761.1,971.9z"/>
			<path class="st28" d="M767.6,994.1l2.2,11.4c0.2,0.8-0.4,1.6-1.2,1.7c-0.8,0.2-1.6-0.4-1.7-1.2l0-0.1l-2.2-11.2l0-0.1
				c-0.2-0.8,0.4-1.6,1.2-1.8C766.7,992.7,767.5,993.3,767.6,994.1L767.6,994.1z"/>
			<path class="st28" d="M771.3,1016.9l0.7,11.5c0,0.8-0.5,1.5-1.3,1.5c-0.8,0-1.5-0.5-1.5-1.3l0-0.1l-0.8-11.4l0-0.1
				c-0.1-0.8,0.6-1.5,1.4-1.6C770.5,1015.5,771.2,1016.1,771.3,1016.9L771.3,1016.9z"/>
			<path class="st28" d="M771.9,1040l-0.8,11.5c-0.1,0.8-0.7,1.3-1.5,1.3c-0.7-0.1-1.3-0.7-1.3-1.4l0-0.1l0.8-11.4l0-0.1
				c0.1-0.8,0.7-1.3,1.5-1.3C771.4,1038.6,771.9,1039.3,771.9,1040L771.9,1040z"/>
			<path class="st28" d="M769.7,1063l-1.9,11.4c-0.1,0.7-0.8,1.2-1.5,1.1c-0.7-0.1-1.2-0.8-1.1-1.5l0-0.1l1.8-11.3l0-0.1
				c0.1-0.7,0.8-1.2,1.5-1.1C769.3,1061.6,769.8,1062.2,769.7,1063L769.7,1063z"/>
			<path class="st28" d="M765.4,1085.6l-2.9,11.2c-0.2,0.7-0.8,1.1-1.5,0.9c-0.7-0.2-1.1-0.8-0.9-1.5l0-0.1l2.8-11l0-0.1
				c0.2-0.7,0.9-1.1,1.5-0.9C765.2,1084.3,765.6,1084.9,765.4,1085.6L765.4,1085.6z"/>
			<path class="st28" d="M758.9,1107.8l-4.3,10.7c-0.2,0.6-0.9,0.9-1.5,0.6c-0.6-0.2-0.9-0.9-0.6-1.5l0-0.1l4.2-10.6l0-0.1
				c0.2-0.6,0.9-0.9,1.6-0.7C758.9,1106.4,759.2,1107.1,758.9,1107.8L758.9,1107.8z"/>
			<path class="st28" d="M749.3,1128.8c-2,3.3-4.2,6.6-6.6,9.6c-0.4,0.5-1.1,0.5-1.6,0.2c-0.5-0.4-0.5-1.1-0.2-1.6
				c2.4-2.9,4.5-6.1,6.4-9.3c0.3-0.5,1-0.7,1.6-0.4C749.4,1127.5,749.6,1128.2,749.3,1128.8L749.3,1128.8z"/>
			<path class="st28" d="M734.3,1146.6c-3.1,2.4-6.5,4.4-10.2,5.8c-0.5,0.2-1.1-0.1-1.3-0.6c-0.2-0.5,0.1-1.1,0.6-1.3
				c3.5-1.3,6.7-3.2,9.6-5.5c0.5-0.4,1.1-0.3,1.5,0.2C734.9,1145.5,734.8,1146.2,734.3,1146.6L734.3,1146.6z"/>
		</g>
	</g>
</g>
</svg>
