<?xml version="1.0" encoding="utf-8"?>
<!-- Generator: Adobe Illustrator 24.2.0, SVG Export Plug-In . SVG Version: 6.00 Build 0)  -->
<svg version="1.1" id="图层_1" xmlns="http://www.w3.org/2000/svg" xmlns:xlink="http://www.w3.org/1999/xlink" x="0px" y="0px"
	 viewBox="0 0 96 84" style="enable-background:new 0 0 96 84;" xml:space="preserve">
<g>
	<defs>
		<rect id="SVGID_1_" x="0.4" y="0" width="95.6" height="84"/>
	</defs>
	<clipPath id="SVGID_2_">
		<use xlink:href="#SVGID_1_"  style="overflow:visible;"/>
	</clipPath>
	<g style="clip-path:url(#SVGID_2_);">
		<g>
			<g>
				<path style="fill:#22BBFF;" d="M1.9,9.5C1.9,9.6,1.8,9.6,1.7,9.6C1.6,9.5,1.6,9.4,1.6,9.3c0.1-0.1,0.2-0.1,0.2-0.1
					C2,9.3,2,9.4,1.9,9.5z"/>
				<path style="fill:#22BBFF;" d="M23.3,17.3c-0.1,0.1-0.2,0.1-0.2,0.1C23,17.3,23,17.1,23,17.1c0.1-0.1,0.2-0.1,0.2-0.1
					C23.4,17.1,23.4,17.2,23.3,17.3z"/>
				<path style="fill:#22BBFF;" d="M12.9,12.2c-0.1,0.1-0.2,0.1-0.2,0.1c-0.1-0.1-0.1-0.2-0.1-0.2c0.1-0.1,0.2-0.1,0.2-0.1
					C12.9,12,12.9,12.1,12.9,12.2z"/>
				<path style="fill:#22BBFF;" d="M9.4,3C9.4,3.1,9.3,3.1,9.2,3.1C9.1,3,9.1,2.9,9.1,2.8c0.1-0.1,0.2-0.1,0.2-0.1
					C9.5,2.8,9.5,2.9,9.4,3z"/>
				<path style="fill:#22BBFF;" d="M21,2.9C21,3,20.9,3,20.8,3c-0.1-0.1-0.1-0.2-0.1-0.2c0.1-0.1,0.2-0.1,0.2-0.1
					C21.1,2.7,21.1,2.8,21,2.9z"/>
			</g>
			<g>
				<path style="fill:#22BBFF;" d="M39.1,48.1c0.1-0.1,0.2-0.1,0.2-0.1c0.1,0.1,0.1,0.2,0.1,0.2c-0.1,0.1-0.2,0.1-0.2,0.1
					C39,48.3,39,48.2,39.1,48.1z"/>
				<path style="fill:#22BBFF;" d="M49.1,69.6c0.1-0.1,0.2-0.1,0.2-0.1c0.1,0.1,0.1,0.2,0.1,0.2c-0.1,0.1-0.2,0.1-0.2,0.1
					C49,69.8,49,69.7,49.1,69.6z"/>
				<path style="fill:#22BBFF;" d="M29.3,64.2c0.1-0.1,0.2-0.1,0.2-0.1c0.1,0.1,0.1,0.2,0.1,0.2c-0.1,0.1-0.2,0.1-0.2,0.1
					C29.2,64.4,29.2,64.2,29.3,64.2z"/>
				<path style="fill:#22BBFF;" d="M26.2,56c0.1-0.1,0.2-0.1,0.2-0.1c0.1,0.1,0.1,0.2,0.1,0.2c-0.1,0.1-0.2,0.1-0.2,0.1
					C26.2,56.2,26.1,56.1,26.2,56z"/>
				<path style="fill:#22BBFF;" d="M12.1,69.7c0.1-0.1,0.2-0.1,0.2-0.1c0.1,0.1,0.1,0.2,0.1,0.2C12.4,70,12.3,70,12.2,70
					C12.1,69.9,12.1,69.8,12.1,69.7z"/>
				<path style="fill:#22BBFF;" d="M18.7,60.3c0.1-0.1,0.2-0.1,0.2-0.1c0.1,0.1,0.1,0.2,0.1,0.2c-0.1,0.1-0.2,0.1-0.2,0.1
					C18.7,60.5,18.7,60.4,18.7,60.3z"/>
				<path style="fill:#22BBFF;" d="M1.6,66c0.1-0.1,0.2-0.1,0.2-0.1c0.1,0.1,0.1,0.2,0.1,0.2c-0.1,0.1-0.2,0.1-0.2,0.1
					C1.6,66.2,1.5,66.1,1.6,66z"/>
				<path style="fill:#22BBFF;" d="M14,42.2c0.1-0.1,0.2-0.1,0.2-0.1c0.1,0.1,0.1,0.2,0.1,0.2c-0.1,0.1-0.2,0.1-0.2,0.1
					C14,42.4,14,42.2,14,42.2z"/>
				<circle style="fill:#22BBFF;" cx="39.5" cy="14.5" r="0.2"/>
				<path style="fill:#22BBFF;" d="M14.1,31.1c0.1-0.1,0.2-0.1,0.2-0.1c0.1,0.1,0.1,0.2,0.1,0.2c-0.1,0.1-0.2,0.1-0.2,0.1
					C14,31.3,14,31.2,14.1,31.1z"/>
				<path style="fill:#22BBFF;" d="M8.6,26.7c0.1-0.1,0.2-0.1,0.2-0.1C9,26.7,9,26.8,8.9,26.9C8.9,27,8.8,27,8.7,26.9
					C8.6,26.9,8.6,26.8,8.6,26.7z"/>
				<path style="fill:#22BBFF;" d="M5.7,18.7c0.1-0.1,0.2-0.1,0.2-0.1C6,18.7,6,18.8,6,18.9C5.9,19,5.8,19,5.7,19
					C5.6,18.9,5.6,18.8,5.7,18.7z"/>
				<path style="fill:#22BBFF;" d="M25.4,7.6c0.1-0.1,0.2-0.1,0.2-0.1c0.1,0.1,0.1,0.2,0.1,0.2c-0.1,0.1-0.2,0.1-0.2,0.1
					C25.4,7.8,25.4,7.7,25.4,7.6z"/>
				<path style="fill:#22BBFF;" d="M25,47.1c0.1-0.1,0.2-0.1,0.2-0.1c0.1,0.1,0.1,0.2,0.1,0.2c-0.1,0.1-0.2,0.1-0.2,0.1
					C25,47.3,25,47.2,25,47.1z"/>
				<path style="fill:#22BBFF;" d="M16.5,53.4c0.1-0.1,0.2-0.1,0.2-0.1c0.1,0.1,0.1,0.2,0.1,0.2c-0.1,0.1-0.2,0.1-0.2,0.1
					C16.5,53.6,16.5,53.5,16.5,53.4z"/>
				<path style="fill:#22BBFF;" d="M8.5,62.2c0.1-0.1,0.2-0.1,0.2-0.1c0.1,0.1,0.1,0.2,0.1,0.2c-0.1,0.1-0.2,0.1-0.2,0.1
					S8.5,62.3,8.5,62.2z"/>
				<path style="fill:#22BBFF;" d="M3.1,32.5c0.1-0.1,0.2-0.1,0.2-0.1c0.1,0.1,0.1,0.2,0.1,0.2c-0.1,0.1-0.2,0.1-0.2,0.1
					S3.1,32.5,3.1,32.5z"/>
				<path style="fill:#22BBFF;" d="M37.1,26.6c0.1-0.1,0.2-0.1,0.2-0.1c0.1,0.1,0.1,0.2,0.1,0.2c-0.1,0.1-0.2,0.1-0.2,0.1
					C37.1,26.8,37.1,26.7,37.1,26.6z"/>
				<path style="fill:#22BBFF;" d="M21.9,26.4c0.1-0.1,0.2-0.1,0.2-0.1c0.1,0.1,0.1,0.2,0.1,0.2c-0.1,0.1-0.2,0.1-0.2,0.1
					C21.9,26.6,21.9,26.4,21.9,26.4z"/>
				<path style="fill:#22BBFF;" d="M26,40c0.1-0.1,0.2-0.1,0.2-0.1c0.1,0.1,0.1,0.2,0.1,0.2c-0.1,0.1-0.2,0.1-0.2,0.1
					C26,40.2,26,40.1,26,40z"/>
				<path style="fill:#22BBFF;" d="M20.2,70.6c0.1-0.1,0.2-0.1,0.2-0.1c0.1,0.1,0.1,0.2,0.1,0.2c-0.1,0.1-0.2,0.1-0.2,0.1
					C20.2,70.7,20.2,70.6,20.2,70.6z"/>
				<path style="fill:#22BBFF;" d="M1.1,56.6c0.1-0.1,0.2-0.1,0.2-0.1c0.1,0.1,0.1,0.2,0.1,0.2c-0.1,0.1-0.2,0.1-0.2,0.1
					C1.1,56.8,1.1,56.7,1.1,56.6z"/>
				<path style="fill:#22BBFF;" d="M8.2,49.1C8.3,49,8.4,49,8.5,49.1c0.1,0.1,0.1,0.2,0.1,0.2c-0.1,0.1-0.2,0.1-0.2,0.1
					C8.2,49.3,8.2,49.2,8.2,49.1z"/>
				<path style="fill:#22BBFF;" d="M6.9,40.9c0.1-0.1,0.2-0.1,0.2-0.1c0.1,0.1,0.1,0.2,0.1,0.2c-0.1,0.1-0.2,0.1-0.2,0.1
					C6.8,41.1,6.8,41,6.9,40.9z"/>
				<path style="fill:#22BBFF;" d="M8.3,74.9c0.1-0.1,0.2-0.1,0.2-0.1c0.1,0.1,0.1,0.2,0.1,0.2c-0.1,0.1-0.2,0.1-0.2,0.1
					C8.3,75.1,8.3,75,8.3,74.9z"/>
			</g>
			<g>
				<path style="fill:#22BBFF;" d="M16.4,81.6c0.1-0.1,0.2-0.1,0.3,0c0.1,0.1,0.1,0.2,0,0.3s-0.2,0.1-0.3,0
					C16.3,81.8,16.3,81.7,16.4,81.6z"/>
				<path style="fill:#22BBFF;" d="M44.9,82.7c0.1-0.1,0.2-0.1,0.3,0c0.1,0.1,0.1,0.2,0,0.3c-0.1,0.1-0.2,0.1-0.3,0
					C44.8,82.9,44.8,82.7,44.9,82.7z"/>
				<path style="fill:#22BBFF;" d="M3.6,81.6c0.1-0.1,0.2-0.1,0.3,0c0.1,0.1,0.1,0.2,0,0.3c-0.1,0.1-0.2,0.1-0.3,0
					C3.6,81.8,3.6,81.7,3.6,81.6z"/>
				<path style="fill:#22BBFF;" d="M26.5,77.4c0.1-0.1,0.2-0.1,0.3,0c0.1,0.1,0.1,0.2,0,0.3c-0.1,0.1-0.2,0.1-0.3,0
					C26.5,77.6,26.4,77.5,26.5,77.4z"/>
			</g>
		</g>
		<g>
			<g>
				<path style="fill:#22BBFF;" d="M35,82.3c0.1-0.1,0.2-0.1,0.2-0.1c0.1,0.1,0.1,0.2,0.1,0.2c-0.1,0.1-0.2,0.1-0.2,0.1
					S35,82.4,35,82.3z"/>
				<path style="fill:#22BBFF;" d="M59.9,69.4c0.1-0.1,0.2-0.1,0.2-0.1c0.1,0.1,0.1,0.2,0.1,0.2c-0.1,0.1-0.2,0.1-0.2,0.1
					C59.8,69.6,59.8,69.5,59.9,69.4z"/>
				<path style="fill:#22BBFF;" d="M60.3,80.6c0.1-0.1,0.2-0.1,0.2-0.1c0.1,0.1,0.1,0.2,0.1,0.2s-0.2,0.1-0.2,0.1
					C60.3,80.8,60.3,80.7,60.3,80.6z"/>
				<path style="fill:#22BBFF;" d="M51.3,80.3c0.1-0.1,0.2-0.1,0.2-0.1s0.1,0.2,0.1,0.2c-0.1,0.1-0.2,0.1-0.2,0.1
					C51.3,80.5,51.2,80.3,51.3,80.3z"/>
			</g>
			<g>
				<path style="fill:#22BBFF;" d="M32.3,34.5c-0.1,0.1-0.2,0.1-0.2,0.1C32,34.5,32,34.4,32,34.3c0.1-0.1,0.2-0.1,0.2-0.1
					C32.4,34.3,32.4,34.4,32.3,34.5z"/>
				<path style="fill:#22BBFF;" d="M34,4.1c-0.1,0.1-0.2,0.1-0.2,0.1c-0.1-0.1-0.1-0.2-0.1-0.2c0.1-0.1,0.2-0.1,0.2-0.1
					C34,3.9,34,4,34,4.1z"/>
				<path style="fill:#22BBFF;" d="M33.8,20.7c-0.1,0.1-0.2,0.1-0.2,0.1c-0.1-0.1-0.1-0.2-0.1-0.2c0.1-0.1,0.2-0.1,0.2-0.1
					C33.8,20.5,33.9,20.6,33.8,20.7z"/>
				<path style="fill:#22BBFF;" d="M53.8,2.1c-0.1,0.1-0.2,0.1-0.2,0.1c-0.1-0.1-0.1-0.2-0.1-0.2c0.1-0.1,0.2-0.1,0.2-0.1
					C53.9,1.9,53.9,2,53.8,2.1z"/>
				<path style="fill:#22BBFF;" d="M41,22.9C41,23,40.9,23,40.8,23c-0.1-0.1-0.1-0.2-0.1-0.2c0.1-0.1,0.2-0.1,0.2-0.1
					C41.1,22.7,41.1,22.8,41,22.9z"/>
				<path style="fill:#22BBFF;" d="M57,10c-0.1,0.1-0.2,0.1-0.2,0.1c-0.1-0.1-0.1-0.2-0.1-0.2c0.1-0.1,0.2-0.1,0.2-0.1
					C57,9.8,57,9.9,57,10z"/>
				<path style="fill:#22BBFF;" d="M50.4,19.4c-0.1,0.1-0.2,0.1-0.2,0.1c-0.1-0.1-0.1-0.2-0.1-0.2c0.1-0.1,0.2-0.1,0.2-0.1
					C50.4,19.2,50.4,19.3,50.4,19.4z"/>
				<path style="fill:#22BBFF;" d="M55,37.6c-0.1,0.1-0.2,0.1-0.2,0.1c-0.1-0.1-0.1-0.2-0.1-0.2c0.1-0.1,0.2-0.1,0.2-0.1
					C55.1,37.4,55.1,37.5,55,37.6z"/>
				<path style="fill:#22BBFF;" d="M39.3,65.6c-0.1,0.1-0.2,0.1-0.2,0.1c-0.1-0.1-0.1-0.2-0.1-0.2c0.1-0.1,0.2-0.1,0.2-0.1
					S39.3,65.5,39.3,65.6z"/>
				<path style="fill:#22BBFF;" d="M55,48.6c-0.1,0.1-0.2,0.1-0.2,0.1c-0.1-0.1-0.1-0.2-0.1-0.2c0.1-0.1,0.2-0.1,0.2-0.1
					C55,48.4,55.1,48.5,55,48.6z"/>
				<path style="fill:#22BBFF;" d="M59.8,54.3c-0.1,0.1-0.2,0.1-0.2,0.1c-0.1-0.1-0.1-0.2-0.1-0.2s0.2-0.1,0.2-0.1
					C59.8,54.1,59.8,54.2,59.8,54.3z"/>
				<path style="fill:#22BBFF;" d="M54.3,61.6c-0.1,0.1-0.2,0.1-0.2,0.1C54,61.6,54,61.5,54,61.4c0.1-0.1,0.2-0.1,0.2-0.1
					C54.4,61.4,54.4,61.5,54.3,61.6z"/>
				<path style="fill:#22BBFF;" d="M37.9,74.3c-0.1,0.1-0.2,0.1-0.2,0.1c-0.1-0.1-0.1-0.2-0.1-0.2c0.1-0.1,0.2-0.1,0.2-0.1
					C37.9,74.1,37.9,74.2,37.9,74.3z"/>
				<path style="fill:#22BBFF;" d="M44,32.6c-0.1,0.1-0.2,0.1-0.2,0.1c-0.1-0.1-0.1-0.2-0.1-0.2c0.1-0.1,0.2-0.1,0.2-0.1
					C44.1,32.4,44.1,32.5,44,32.6z"/>
				<path style="fill:#22BBFF;" d="M52.5,26.3c-0.1,0.1-0.2,0.1-0.2,0.1c-0.1-0.1-0.1-0.2-0.1-0.2c0.1-0.1,0.2-0.1,0.2-0.1
					C52.6,26.1,52.6,26.2,52.5,26.3z"/>
				<path style="fill:#22BBFF;" d="M60.6,17.5c-0.1,0.1-0.2,0.1-0.2,0.1c-0.1-0.1-0.1-0.2-0.1-0.2s0.2-0.1,0.2-0.1
					C60.6,17.3,60.6,17.4,60.6,17.5z"/>
				<path style="fill:#22BBFF;" d="M39.8,57.6c-0.1,0.1-0.2,0.1-0.2,0.1c-0.1-0.1-0.1-0.2-0.1-0.2c0.1-0.1,0.2-0.1,0.2-0.1
					C39.9,57.4,39.9,57.5,39.8,57.6z"/>
				<path style="fill:#22BBFF;" d="M32,53.1c-0.1,0.1-0.2,0.1-0.2,0.1c-0.1-0.1-0.1-0.2-0.1-0.2c0.1-0.1,0.2-0.1,0.2-0.1
					C32,52.9,32,53,32,53.1z"/>
				<path style="fill:#22BBFF;" d="M47.2,53.4c-0.1,0.1-0.2,0.1-0.2,0.1c-0.1-0.1-0.1-0.2-0.1-0.2c0.1-0.1,0.2-0.1,0.2-0.1
					C47.2,53.2,47.2,53.3,47.2,53.4z"/>
				<path style="fill:#22BBFF;" d="M43.8,41.4c-0.1,0.1-0.2,0.1-0.2,0.1c-0.1-0.1-0.1-0.2-0.1-0.2c0.1-0.1,0.2-0.1,0.2-0.1
					C43.9,41.2,43.9,41.3,43.8,41.4z"/>
				<path style="fill:#22BBFF;" d="M48.9,9.2c-0.1,0.1-0.2,0.1-0.2,0.1C48.5,9.2,48.5,9,48.6,9c0.1-0.1,0.2-0.1,0.2-0.1
					C48.9,9,48.9,9.1,48.9,9.2z"/>
				<path style="fill:#22BBFF;" d="M60.9,30.6c-0.1,0.1-0.2,0.1-0.2,0.1c-0.1-0.1-0.1-0.2-0.1-0.2c0.1-0.1,0.2-0.1,0.2-0.1
					C60.9,30.4,60.9,30.5,60.9,30.6z"/>
				<path style="fill:#22BBFF;" d="M61.5,42.7c-0.1,0.1-0.2,0.1-0.2,0.1c-0.1-0.1-0.1-0.2-0.1-0.2c0.1-0.1,0.2-0.1,0.2-0.1
					C61.5,42.5,61.6,42.6,61.5,42.7z"/>
			</g>
			<g>
				<path style="fill:#22BBFF;" d="M63.1,3.8c-0.1,0.1-0.2,0.1-0.3,0c-0.1-0.1-0.1-0.2,0-0.3c0.1-0.1,0.2-0.1,0.3,0
					C63.2,3.6,63.2,3.7,63.1,3.8z"/>
				<path style="fill:#22BBFF;" d="M42,7.1c-0.1,0.1-0.2,0.1-0.3,0c-0.1-0.1-0.1-0.2,0-0.3c0.1-0.1,0.2-0.1,0.3,0
					C42,6.9,42,7,42,7.1z"/>
			</g>
		</g>
	</g>
	<g style="clip-path:url(#SVGID_2_);">
		<g>
			<path style="fill:#4A007A;" d="M82.1,31.2c-1.6-3.8-3.9-7.1-6.8-10.1s-6.3-5.2-10.1-6.8c-3.9-1.6-8-2.5-12.3-2.5
				s-8.4,0.8-12.3,2.5c-3.8,1.6-7.1,3.9-10.1,6.8s-5.2,6.3-6.8,10.1c-1.6,3.9-2.5,8-2.5,12.3s0.8,8.4,2.5,12.3
				c1.6,3.8,3.9,7.1,6.8,10.1c2.9,2.9,6.3,5.2,10.1,6.8c3.9,1.6,8,2.5,12.3,2.5s8.4-0.8,12.3-2.5c3.8-1.6,7.1-3.9,10.1-6.8
				c2.9-2.9,5.2-6.3,6.8-10.1c1.6-3.9,2.5-8,2.5-12.3S83.8,35.1,82.1,31.2z M53,75c-17.3,0-31.4-14.1-31.4-31.4
				c0-17.3,14.1-31.4,31.4-31.4c17.3,0,31.4,14.1,31.4,31.4C84.4,60.9,70.3,75,53,75z"/>
		</g>
		<g>
			<path style="fill:#4A007A;" d="M91.3,27.3c-2.1-5-5.1-9.4-8.9-13.2c-3.8-3.8-8.3-6.8-13.2-8.9C64,3,58.6,1.9,53,1.9
				S41.9,3,36.8,5.2c-5,2.1-9.4,5.1-13.2,8.9c-3.8,3.8-6.8,8.3-8.9,13.2c-2.2,5.1-3.3,10.6-3.3,16.2s1.1,11.1,3.3,16.2
				c2.1,5,5.1,9.4,8.9,13.2c3.8,3.8,8.3,6.8,13.2,8.9c2.1,0.9,4.3,1.6,6.5,2.1h1.4c-18.8-3.9-33-20.5-33-40.5
				C11.7,20.8,30.2,2.2,53,2.2c22.8,0,41.3,18.5,41.3,41.3c0,19.9-14.2,36.6-33,40.5h1.4c2.2-0.5,4.4-1.2,6.5-2.1
				c5-2.1,9.4-5.1,13.2-8.9c3.8-3.8,6.8-8.3,8.9-13.2c2.2-5.1,3.3-10.6,3.3-16.2S93.5,32.5,91.3,27.3z"/>
		</g>
		<g>
			<path style="fill:#4A007A;" d="M101.1,23.2C98.4,17,94.7,11.4,89.9,6.6c-2.6-2.6-5.4-4.9-8.4-6.8h-0.7
				c14.5,9.2,24.1,25.4,24.1,43.7c0,16.4-7.6,31-19.5,40.5h0.6c1.4-1.1,2.7-2.3,4-3.6c4.8-4.8,8.6-10.4,11.2-16.6
				c2.7-6.4,4.1-13.3,4.1-20.3C105.2,36.5,103.8,29.7,101.1,23.2z M25.2-0.2h-0.7c-3,2-5.8,4.3-8.4,6.8C11.3,11.4,7.5,17,4.9,23.2
				c-2.7,6.4-4.1,13.3-4.1,20.3c0,7,1.4,13.9,4.1,20.3c2.6,6.2,6.4,11.8,11.2,16.6c1.3,1.3,2.6,2.5,4,3.6h0.6
				C8.8,74.5,1.1,59.9,1.1,43.5C1.1,25.2,10.7,9,25.2-0.2z"/>
		</g>
	</g>
	<g style="clip-path:url(#SVGID_2_);">
		<g>
			<circle style="fill:#3677E0;" cx="53.1" cy="43.8" r="18.9"/>
			<g>
				<path style="fill:#5FF9F9;" d="M48,40.5c-2,3-8.8,6.3-12.3,3.9c-0.5-0.4-1-0.7-1.5-0.9c0,0.1,0,0.2,0,0.3c0,2.3,0.4,4.6,1.2,6.6
					c7.8,1.7,13.2-3.5,15.5-9.2c2.7-6.7,3.4-10.4,8.6-12.6C53.2,30,50,37.5,48,40.5z"/>
				<path style="fill:#5FF9F9;" d="M68.6,33c-0.5-0.8-1.1-1.5-1.8-2.2c-5.9,1.3-7.1,5.3-9.1,9.3c-3.2,6.3-6.2,7.4-6.2,7.4
					C58.7,44.7,66.3,35.9,68.6,33z"/>
				<path style="fill:#5FF9F9;" d="M55.1,53.2c-6.1,0.8-7,5.7-11.9,6.6c1.5,1,3.2,1.7,5,2.2c1.5-2.2,3.8-5.1,6.6-5.6
					c4.1-0.7,9.9-5.9,11.8-10.3C65.8,47.5,61.5,52.4,55.1,53.2z"/>
				<path style="fill:#5FF9F9;" d="M70.5,51.1c0.8-1.8,1.3-3.8,1.4-5.9c-1.5,2.8-3.3,6.9-9.3,10.9C65.7,55.1,68.9,52.7,70.5,51.1z"
					/>
				<path style="fill:#5FF9F9;" d="M44,27.2c-0.9,1.7-1,2.8-3,4.2c3.1-1.4,4.1-2.4,4.8-3.7c0.3-0.6,0.5-1.2,0.5-1.6
					C45.5,26.5,44.8,26.8,44,27.2z"/>
			</g>
			<g>
				<path style="fill:#22BBFF;" d="M48.3,36.7c-3.3,4.8-10.2,6.1-13.4,2c-0.4,1.6-0.7,3.3-0.7,5.1c0,0.7,0,1.4,0.1,2
					c4.6,2.6,11.6,0.1,14.6-5.7c3.4-6.6,6.5-11.3,13.3-12C56.4,27.7,52.4,30.8,48.3,36.7z"/>
				<path style="fill:#22BBFF;" d="M67.9,32.1c-3.2,1.1-5.4,3.3-7.9,7.6c-2.4,4.2-5.8,7.1-10.3,8.5c13.9-2,11.6-10.1,19.8-13.6
					C69.1,33.7,68.5,32.9,67.9,32.1z"/>
				<path style="fill:#22BBFF;" d="M55.9,54.9c-4.3,1.5-6.1,2.6-8.7,6.8c1.3,0.4,2.6,0.7,4,0.9c1-1.9,2.4-4.1,4.5-4.9
					c4-1.6,8.6-4,11.1-11.5C64.6,50.4,61.2,53,55.9,54.9z"/>
				<path style="fill:#22BBFF;" d="M69.7,52.7c0.6-1.1,1.1-2.3,1.4-3.5c-1.6,1.7-5,4.8-8.5,6.9C65.9,55.1,68,54.1,69.7,52.7z"/>
				<path style="fill:#22BBFF;" d="M45.6,26.5c-1,1.4-1.1,3.4-4.6,5c5.6-2.1,5.3-4.1,8.4-6.2C48.1,25.5,46.8,25.9,45.6,26.5z"/>
				<path style="fill:#22BBFF;" d="M40.2,36.1c-1.9-0.2-2.5-2.4-1.8-4.1c-0.7,0.9-1.3,1.8-1.8,2.7c-0.2,1.3,0.8,2.9,1.9,3.4
					c3,1.4,5.6-0.5,7.2-3.1c2-3.2,3.3-6.1,6.6-7.3C46.3,28.4,44.3,36.6,40.2,36.1z"/>
			</g>
			<path style="fill:#5FF9F9;" d="M71.1,38c-0.2-0.6-0.4-1.3-0.7-1.9c-1.9,0.3-4,1.9-5.4,4.4c-1.2,2.3-2.9,3.6-2.9,3.6
				C66.1,42.6,66.6,38.5,71.1,38z"/>
			<path style="fill:#5FF9F9;" d="M40.8,58.1c3-0.4,5.3-2.2,6.3-3.4c-1.9,1.3-5.2,2-8.1,1.6C39.6,57,40.2,57.6,40.8,58.1z"/>
		</g>
	</g>
	<g style="clip-path:url(#SVGID_2_);">
		<circle style="fill:#DB4112;" cx="22.9" cy="34.6" r="4"/>
		<g>
			<path style="fill:#FF6C1A;" d="M23.7,30.7c-0.1,0-0.2,0-0.3,0c-0.9,0.2-1.8,0.4-2.5,0.7c0,0-0.1,0-0.1,0c0.7-0.3,1.4-0.6,2.1-0.8
				c-0.1,0-0.2,0-0.4,0c0,0-0.1,0-0.1,0c-0.6,0.2-1.2,0.4-1.7,0.7c-0.2,0.1-0.3,0.3-0.5,0.4c0.2-0.1,0.5-0.2,0.8-0.3
				C21.7,31.1,22.6,30.8,23.7,30.7z"/>
			<path style="fill:#FF6C1A;" d="M23,38.6c0.1,0,0.2,0,0.3,0c0.4-0.2,0.8-0.3,1.2-0.3c0.1,0,0.1-0.1,0.2-0.1
				C24.1,38.2,23.5,38.3,23,38.6z"/>
			<path style="fill:#FF6C1A;" d="M26.7,33.4c0,0,0-0.1,0-0.1c-1-0.2-1.9-0.2-2.9,0c-0.4,0-0.8,0.1-1.2,0.2
				c-0.3,0.1-0.6,0.2-0.9,0.2c0.8-0.4,1.6-0.6,2.6-0.7c0.9,0,1.7,0.1,2.5,0.3c0,0,0-0.1,0-0.1c-0.4-0.1-0.9-0.2-1.4-0.3
				c0.4,0,0.9,0,1.3,0.1c0,0,0-0.1,0-0.1c-0.8-0.1-1.6-0.1-2.3-0.1c-0.3,0-0.5,0-0.8,0c0.7-0.1,1.4-0.2,2.2-0.2
				c0.3,0,0.6,0.1,0.9,0.2c0,0,0-0.1-0.1-0.1c0,0,0,0-0.1,0c0,0,0,0,0.1,0c0,0,0-0.1-0.1-0.1c-0.3,0-0.5,0-0.8-0.1
				c-0.5-0.1-1.1-0.1-1.7-0.1c0.4,0,0.8-0.1,1.2-0.1c0.4,0,0.8,0.1,1.2,0.2c0-0.1-0.1-0.1-0.1-0.2c-0.4,0-0.7-0.1-1.1-0.1
				c-1-0.1-2,0-3,0.2c-0.3,0.1-0.6,0.1-0.8,0.2c1.2-0.5,2.8-0.8,4.6-0.6c0.1,0,0.1,0,0.1,0.1c0,0-0.1-0.1-0.1-0.1c0,0,0,0,0,0
				c-0.7-0.2-1.6-0.3-2.7-0.1c-1.6,0.2-3,0.9-4,1.8c0,0-0.1,0.1-0.1,0.1c0.2-0.2,0.4-0.4,0.6-0.5c1.2-0.9,3.4-1.7,5.9-1.5
				c0,0,0.1,0,0.1,0.1c-0.1-0.1-0.1-0.1-0.2-0.2c-0.2,0-0.3-0.1-0.5-0.1c0.1,0,0.2,0,0.4,0c0,0-0.1-0.1-0.1-0.1c-0.3,0-0.5,0-0.8,0
				c0.2,0,0.5-0.1,0.7-0.1c-0.1-0.1-0.2-0.1-0.3-0.2c-0.3-0.1-0.7-0.1-1-0.1c0.1,0,0.2,0,0.3,0c0.2,0,0.3,0,0.5,0c0,0,0,0,0,0
				c-0.1,0-0.2-0.1-0.2-0.1c-0.5,0-1.1,0-1.6,0.1c-0.6,0.1-1.2,0.3-1.8,0.5c0.1,0,0.1-0.1,0.2-0.1c0.8-0.3,1.8-0.5,2.8-0.7
				c-0.1,0-0.3-0.1-0.4-0.1c-0.4,0.1-0.8,0.1-1.2,0.3c-0.4,0.1-0.7,0.2-1.1,0.4c-0.2,0.1-0.3,0.1-0.4,0.2c-0.4,0.2-0.8,0.3-1.1,0.5
				c-0.1,0.1-0.2,0.2-0.3,0.4c0.9-0.6,2.1-1,3.4-1.2c0.3-0.1,0.7-0.1,1-0.1c-0.1,0-0.2,0-0.3,0c-0.3,0-0.6,0.1-0.9,0.2
				c-1.3,0.2-2.5,0.7-3.4,1.4c0,0.1-0.1,0.1-0.1,0.2c0.5-0.3,1-0.7,1.7-0.9c0.3-0.1,0.6-0.2,0.9-0.3c-0.9,0.3-1.7,0.8-2.5,1.3l0,0
				c-0.1,0.1-0.2,0.2-0.3,0.2c0,0.1,0,0.1-0.1,0.2c0.4-0.3,0.8-0.6,1.2-0.8c-0.4,0.2-0.7,0.4-0.9,0.6c-0.1,0.1-0.2,0.1-0.3,0.2
				c0,0.1,0,0.1-0.1,0.2c0.1-0.1,0.3-0.2,0.4-0.3c0,0,0,0,0,0c-0.2,0.1-0.3,0.3-0.4,0.4c0,0.1,0,0.1,0,0.2c0.5-0.6,1.3-1.1,2.3-1.5
				c0.6-0.2,1.2-0.4,1.9-0.6c0.3-0.1,0.7-0.1,1.1-0.1c0.3,0,0.6,0,0.8,0.1c-0.9,0-1.8,0-2.6,0.2c-1.1,0.3-2.1,0.7-2.9,1.3
				c-0.3,0.2-0.5,0.4-0.7,0.6c0,0.1,0,0.2-0.1,0.3c0.1-0.1,0.2-0.2,0.4-0.4c0.1-0.1,0.3-0.2,0.4-0.3c0,0,0,0,0,0
				c-0.3,0.2-0.6,0.5-0.8,0.7c0,0.1,0,0.1,0,0.2c0.7-0.7,1.8-1.3,3.1-1.6c-0.7,0.2-1.3,0.5-1.8,0.9c-0.1,0.1-0.3,0.2-0.4,0.2
				c-0.3,0.2-0.6,0.5-0.9,0.7c0,0,0,0.1,0,0.1c0.2-0.2,0.4-0.4,0.7-0.6c-0.3,0.2-0.5,0.5-0.7,0.8c0,0,0,0.1,0,0.1
				c0.2-0.4,0.6-0.8,1.1-1.2c0.1,0,0.1-0.1,0.2-0.1c0.5-0.2,1-0.5,1.6-0.6c-0.9,0.4-1.7,0.9-2.3,1.5c-0.2,0.2-0.4,0.4-0.6,0.6
				c0,0,0,0.1,0,0.1c0,0,0,0,0,0c0,0,0,0,0,0c0,0,0,0.1,0,0.1c0.2-0.3,0.4-0.5,0.6-0.8c0.2-0.2,0.5-0.4,0.8-0.5
				c-0.4,0.3-0.7,0.6-1,1c-0.1,0.1-0.3,0.2-0.4,0.4c0,0,0,0.1,0,0.1c0-0.1,0.1-0.1,0.1-0.2c0,0.1-0.1,0.2-0.1,0.2
				c0,0.1,0,0.1,0.1,0.2c0,0,0.1-0.1,0.1-0.1c0,0,0,0.1-0.1,0.1c0,0,0,0.1,0,0.1c0.1-0.2,0.3-0.5,0.4-0.7c0.5-0.5,1.2-0.8,2-1.1
				c-0.4,0.2-0.8,0.5-1.1,0.7c-0.5,0.3-1,0.7-1.3,1.1c0,0,0,0.1,0,0.1c0.2-0.2,0.4-0.5,0.7-0.7c-0.3,0.2-0.5,0.5-0.7,0.7
				c0,0,0,0.1,0,0.1c0.1-0.2,0.3-0.4,0.5-0.6c-0.2,0.2-0.3,0.4-0.4,0.6c0,0,0,0-0.1,0.1c0,0.1,0.1,0.1,0.1,0.2
				c0.2-0.3,0.6-0.6,0.9-0.9c0.1,0,0.1-0.1,0.2-0.1c-0.3,0.2-0.6,0.5-0.8,0.7c-0.1,0.1-0.2,0.2-0.3,0.3c0,0,0.1,0.1,0.1,0.1
				c0.1-0.1,0.2-0.2,0.3-0.3c0.8-0.7,1.8-1.2,2.9-1.5c0.2,0,0.3-0.1,0.5-0.1c-0.3,0.1-0.6,0.2-0.9,0.3c-0.4,0.2-0.8,0.4-1.1,0.6
				c-0.6,0.3-1.1,0.7-1.6,1.1c0,0,0,0.1,0.1,0.1c0.3-0.2,0.6-0.5,0.9-0.7c-0.3,0.3-0.6,0.5-0.8,0.8c0,0,0,0,0.1,0.1
				c0.3-0.5,0.8-0.9,1.4-1.3c0.4-0.2,0.9-0.4,1.4-0.5c-0.2,0.1-0.4,0.1-0.5,0.2c-0.7,0.3-1.2,0.7-1.5,1.1c-0.3,0.2-0.5,0.4-0.7,0.6
				c0,0,0,0,0.1,0.1c0.1-0.1,0.3-0.3,0.5-0.4c-0.1,0.2-0.2,0.4-0.3,0.5c0,0,0.1,0.1,0.1,0.1c0.1-0.1,0.1-0.2,0.2-0.3
				c-0.1,0.1-0.1,0.2-0.2,0.3c0,0,0.1,0.1,0.1,0.1c0-0.1,0.1-0.1,0.2-0.2c0,0.1-0.1,0.2-0.1,0.2c0,0,0.1,0,0.1,0.1
				c0.2-0.4,0.5-0.8,1-1.2c0.8-0.5,1.8-0.7,2.6-0.7c-0.4,0.1-0.7,0.1-1.1,0.2c-0.3,0.1-0.5,0.2-0.8,0.3c-0.6,0.2-1.2,0.7-1.8,1.3
				c0,0,0.1,0,0.1,0.1c0.2-0.3,0.5-0.5,0.7-0.7c-0.3,0.2-0.5,0.5-0.7,0.8c0,0,0.1,0,0.1,0.1c0,0,0,0,0,0c0,0,0,0,0,0
				c0,0,0.1,0,0.1,0c0-0.1,0.1-0.2,0.1-0.2c0.1-0.1,0.2-0.1,0.3-0.2c-0.1,0.1-0.3,0.3-0.4,0.4c0,0,0.1,0,0.1,0
				c0-0.1,0.1-0.1,0.1-0.2c0,0.1-0.1,0.1-0.1,0.2c0,0,0.1,0,0.1,0c0.2-0.2,0.5-0.4,0.8-0.6c-0.2,0.2-0.5,0.4-0.6,0.6
				c0,0,0.1,0,0.1,0.1c0.2-0.2,0.4-0.3,0.7-0.4c-0.3,0.2-0.5,0.3-0.6,0.4c0.1,0,0.2,0.1,0.3,0.1c0,0,0-0.1,0.1-0.1
				c0.1,0,0.1-0.1,0.2-0.1c0,0.1-0.1,0.1-0.1,0.2c0,0,0,0,0,0c0,0,0.1,0,0.1,0c0.1-0.1,0.2-0.1,0.3-0.2c0,0,0,0-0.1,0.1
				c-0.1,0-0.2,0.1-0.2,0.1c0.1,0,0.1,0,0.2,0c0,0,0,0,0.1-0.1c1.2-0.5,2.2-0.6,2.8-0.6c0,0,0.1-0.1,0.1-0.1c-0.5-0.1-1.5,0-2.7,0.5
				c0,0,0.1-0.1,0.1-0.1c0.4-0.2,0.9-0.3,1.4-0.4c0.4-0.1,0.9-0.1,1.2,0c0,0,0.1-0.1,0.1-0.1c-0.4-0.1-1-0.1-1.8,0
				c0.5-0.1,1.1-0.2,1.9-0.1c0,0,0.1-0.1,0.1-0.1c-1-0.1-1.8-0.1-2.5,0.2c-0.1,0-0.1,0.1-0.2,0.1c-0.1,0-0.3,0.1-0.5,0.1
				c0.2-0.1,0.3-0.2,0.6-0.3c0.2-0.1,0.5-0.2,0.8-0.2c0.7-0.1,1.3-0.1,1.8,0.1c0,0,0.1-0.1,0.1-0.1c-0.2-0.1-0.4-0.1-0.7-0.1
				c0.2,0,0.5,0,0.8,0c0.1-0.1,0.1-0.1,0.1-0.2c0,0-0.1,0-0.1,0c0,0,0.1,0,0.1,0c0-0.1,0.1-0.1,0.1-0.2c-0.1-0.1-0.3-0.1-0.5-0.1
				c0.2,0,0.4,0,0.6,0c0,0,0-0.1,0.1-0.1c-0.5-0.1-1.1-0.1-1.6,0c-0.4,0-0.9,0.1-1.4,0.2c0.4-0.2,0.7-0.3,1.1-0.4
				c0.7,0,1.3,0.1,1.8,0.2c0,0,0-0.1,0.1-0.1c-0.3-0.1-0.7-0.2-1.2-0.2c0.4,0,0.8,0,1.2,0.1c0,0,0-0.1,0.1-0.1
				c-0.3-0.1-0.8-0.2-1.3-0.3c0.4,0,0.9,0,1.3,0.1c0,0,0-0.1,0.1-0.1c-0.1,0-0.2-0.1-0.3-0.1c0.1,0,0.2,0,0.4,0c0-0.1,0-0.1,0.1-0.2
				c-0.3-0.1-0.6-0.2-0.9-0.2c0.2,0,0.4,0,0.6,0c0.1,0,0.2,0.1,0.4,0.1c0-0.1,0-0.1,0.1-0.2c-0.1,0-0.3,0-0.4,0
				c-0.9-0.3-2.1-0.3-3.2,0c-0.4,0.1-0.7,0.2-1.1,0.4c0.1,0,0.2-0.1,0.3-0.1c1-0.5,2.2-0.6,3.7-0.5c0.3,0.1,0.5,0.2,0.7,0.3
				c0,0,0-0.1,0-0.1c-0.1-0.1-0.2-0.1-0.3-0.1c0.1,0,0.2,0,0.4,0c0-0.1,0-0.1,0-0.2c0,0-0.1,0-0.1,0c0,0,0.1,0,0.1,0
				c0,0,0-0.1,0-0.1c-0.1,0-0.3,0-0.4,0c-0.5-0.2-1.1-0.3-1.8-0.4c0.2,0,0.4,0,0.7-0.1c0.6,0.1,1.1,0.2,1.5,0.4c0,0,0-0.1,0-0.1
				c-0.3-0.1-0.6-0.2-0.9-0.3c0.3,0,0.6,0.1,0.9,0.2c0,0,0-0.1,0-0.1c-1.1-0.3-2.4-0.4-3.8-0.1c0,0,0,0,0,0c1.4-0.4,2.7-0.4,3.8,0
				c0,0,0-0.1,0-0.1c-0.9-0.3-2-0.4-3.2-0.3c1.2-0.2,2.3-0.2,3.1,0.1c0,0,0-0.1,0-0.1c-0.5-0.2-1-0.3-1.6-0.4c0.6,0,1.1,0.1,1.6,0.2
				c0,0,0-0.1,0-0.1c-0.7-0.2-1.4-0.3-2.3-0.3c0.7-0.1,1.4-0.1,2.2,0.1c0,0,0-0.1,0-0.1c-1-0.1-2.1-0.1-3.1,0.1
				c-0.3,0-0.6,0.1-0.9,0.1c-0.6,0.1-1.2,0.3-1.7,0.5c0.8-0.5,1.7-0.8,2.7-1c1-0.1,2.1,0,3,0.2C26.7,33.5,26.7,33.5,26.7,33.4
				c-0.4,0-1-0.1-1.5-0.1C25.7,33.2,26.2,33.3,26.7,33.4z M23.8,31.5c-0.3,0-0.5,0-0.8,0.1c-0.9,0.1-1.7,0.4-2.5,0.8
				c0.8-0.4,1.7-0.8,2.6-1c0.8-0.1,1.4-0.1,2,0C24.6,31.4,24.2,31.4,23.8,31.5z M25.6,34.6c-0.1,0-0.2,0-0.3,0c-0.1,0-0.3,0-0.4,0
				C25.1,34.6,25.4,34.6,25.6,34.6z M23.3,32c0.8-0.1,1.5-0.1,2.1,0c-1-0.1-1.9,0-2.8,0.2c-0.8,0.2-1.5,0.5-2.2,0.8
				c-0.1,0.1-0.3,0.1-0.4,0.2C20.9,32.7,22,32.2,23.3,32z M19.7,33.6c-0.1,0.1-0.2,0.1-0.3,0.2C19.5,33.8,19.6,33.7,19.7,33.6
				c0.2-0.2,0.4-0.3,0.7-0.5c0.5-0.2,1.1-0.4,1.7-0.5c0.6-0.1,1.1-0.2,1.7-0.2c-0.3,0-0.6,0.1-1,0.2c-0.2,0-0.5,0.1-0.7,0.1
				C21.2,32.9,20.4,33.2,19.7,33.6z M20.9,33.4c0.6-0.3,1.3-0.6,2.1-0.7c0.6-0.1,1.2-0.1,1.8-0.1c-0.7,0-1.5,0.2-2.2,0.4
				c-0.1,0-0.2,0-0.4,0.1C21.8,33.1,21.3,33.3,20.9,33.4z M20.2,34.3c0.6-0.5,1.5-0.9,2.4-1.2c0.2,0,0.4-0.1,0.7-0.1
				c-0.4,0.1-0.9,0.2-1.3,0.4c-0.4,0.2-0.7,0.3-1.1,0.5C20.7,34,20.4,34.1,20.2,34.3z M19.6,35.5c-0.2,0.1-0.3,0.3-0.4,0.4
				c0.1-0.2,0.2-0.4,0.4-0.6c0.2-0.2,0.4-0.3,0.6-0.4C19.9,35.1,19.7,35.3,19.6,35.5z M22.3,34.2c0.2,0,0.3-0.1,0.5-0.1
				c0.2,0,0.4-0.1,0.7-0.1c-0.5,0.1-1.1,0.3-1.6,0.5c-0.3,0.1-0.5,0.2-0.7,0.4c0,0,0,0-0.1,0C21.4,34.6,21.8,34.4,22.3,34.2z
				 M20.4,35.4c0.2-0.2,0.5-0.3,0.8-0.5c0.3-0.1,0.6-0.2,0.9-0.3c0,0,0,0,0,0c-1,0.4-1.8,1-2.3,1.6C19.9,35.9,20.1,35.7,20.4,35.4z
				 M20.4,37.4c0.1-0.2,0.2-0.4,0.4-0.5c0.1-0.1,0.2-0.1,0.3-0.2c-0.1,0.1-0.2,0.2-0.2,0.3C20.7,37,20.5,37.2,20.4,37.4z M24.9,36
				c0.1,0,0.1,0,0.2,0c-0.6,0-1.1,0.1-1.6,0.2c-0.1,0-0.1,0-0.2,0C23.8,36.1,24.3,36,24.9,36z M21,37.8c0,0-0.1,0.1-0.1,0.1
				c0.4-0.5,0.9-1,1.5-1.3c0,0,0.1,0,0.1-0.1C21.8,36.9,21.3,37.3,21,37.8z M21.2,37.7c0.3-0.4,0.7-0.7,1.4-1
				c0.3-0.1,0.6-0.2,0.9-0.3c0,0,0.1,0,0.1,0c-0.1,0-0.2,0.1-0.3,0.1c-0.7,0.2-1.3,0.6-1.7,1.1C21.4,37.5,21.3,37.6,21.2,37.7z
				 M21.3,37.9c0.1-0.1,0.2-0.2,0.3-0.3c0,0,0,0,0.1-0.1c0.3-0.1,0.5-0.2,0.9-0.3c-0.1,0-0.1,0.1-0.2,0.1
				C21.9,37.5,21.6,37.7,21.3,37.9z M21.6,38.1c0.2-0.2,0.5-0.5,0.8-0.6c0.3-0.1,0.6-0.2,0.9-0.3c-0.3,0.1-0.6,0.3-0.8,0.5
				C22.1,37.8,21.8,37.9,21.6,38.1z M21.8,38.3c0,0-0.1,0-0.1,0.1c0.1-0.1,0.1-0.1,0.2-0.2C21.9,38.2,21.9,38.2,21.8,38.3z M23,37.9
				c0.7-0.2,1.4-0.3,1.8-0.3c-0.3,0-0.5,0-0.8,0.1C23.6,37.8,23.2,37.9,23,37.9C22.9,38,23,37.9,23,37.9z M22.6,38
				C22.6,38.1,22.6,38.1,22.6,38c-0.2,0.1-0.4,0.2-0.5,0.3c0,0,0.1-0.1,0.1-0.1C22.4,38.1,22.5,38.1,22.6,38z M23,37.6
				c-0.3,0.2-0.6,0.3-0.8,0.5c-0.1,0-0.1,0-0.2,0.1c0.1-0.1,0.2-0.2,0.3-0.3c0.2-0.1,0.3-0.2,0.5-0.3c0,0,0,0,0.1,0
				C23,37.6,23,37.6,23,37.6C23,37.6,23,37.6,23,37.6z M25.8,37.2c-0.8-0.1-1.5,0-2,0.1c0,0,0,0-0.1,0c0,0-0.1,0-0.1,0
				c0.5-0.1,1.1-0.2,1.8-0.2C25.6,37.2,25.7,37.2,25.8,37.2z M24.6,36.9c0.6,0,1.1,0,1.4,0.1c-0.2,0-0.3,0-0.5,0
				c-0.3-0.1-0.7-0.1-1.2-0.1C24.4,36.9,24.5,36.9,24.6,36.9z M24.8,37.1c-0.8,0.1-1.5,0.3-1.9,0.5c0,0-0.1,0-0.1,0
				c0.3-0.2,0.6-0.3,1-0.4C24.1,37.1,24.5,37,24.8,37.1z M23.6,37c0.1,0,0.2,0,0.3,0c-0.1,0-0.1,0-0.2,0C23.7,37,23.7,37,23.6,37
				c-0.3,0.1-0.6,0.1-0.9,0.2c0,0,0.1-0.1,0.1-0.1C23.1,37.1,23.3,37,23.6,37z M22.8,37.1c-0.3,0.1-0.6,0.2-0.8,0.3
				c0.6-0.4,1.2-0.5,1.7-0.6C23.4,36.8,23.1,36.9,22.8,37.1z M25.9,36.5c-0.6-0.1-1.1,0-1.6,0.1c-0.2,0-0.3,0-0.5,0
				c-0.5,0.1-1.2,0.2-1.8,0.6c0.6-0.5,1.4-0.8,2.3-0.9C24.9,36.3,25.5,36.3,25.9,36.5z M24.4,36.1C24.3,36.1,24.3,36.1,24.4,36.1
				c0.4-0.1,0.8-0.1,1.3-0.1c0.1,0,0.2,0,0.3,0.1C25.4,36.1,24.9,36.1,24.4,36.1z M25.7,36C25.7,36,25.7,36,25.7,36c0,0,0.2,0,0.3,0
				C25.9,36,25.8,36,25.7,36z M26,35.9c-0.4,0-0.7-0.1-1.1,0c-0.4,0-0.9,0-1.4,0c-0.1,0-0.3,0-0.4,0.1c0.5-0.1,1-0.2,1.5-0.2
				C25.2,35.8,25.6,35.8,26,35.9z M25.6,35.6c-0.3,0-0.6,0-0.8,0c-0.3,0-0.6,0-0.9,0C24.5,35.6,25.1,35.6,25.6,35.6z M23.3,35.8
				c-0.4,0.1-0.8,0.2-1.1,0.4c-0.3,0.1-0.6,0.3-0.8,0.5c-0.3,0.2-0.6,0.5-0.9,0.9c0.1-0.2,0.2-0.4,0.4-0.6
				C21.6,36.3,22.5,35.9,23.3,35.8z M22.2,35.8c-0.3,0.1-0.6,0.3-0.8,0.5c-0.1,0.1-0.3,0.2-0.4,0.2C21.3,36.3,21.7,36,22.2,35.8
				c0.6-0.4,1.4-0.6,2.3-0.6c0.3,0,0.6,0,0.9,0.1C24.2,35.3,23.1,35.4,22.2,35.8z M26.7,35.4c-0.3,0-0.5-0.1-0.7-0.1
				c-0.2-0.1-0.4-0.1-0.6-0.1c0.3,0,0.7,0,1,0.1C26.5,35.3,26.6,35.4,26.7,35.4z M26.1,35.1c-0.6,0-1.1,0-1.6,0
				c-0.6,0-1.1,0.1-1.7,0.2c-0.2,0.1-0.5,0.1-0.7,0.2c0.1-0.1,0.2-0.1,0.3-0.1c0.5-0.2,1.1-0.4,1.6-0.5
				C24.7,34.8,25.5,34.9,26.1,35.1z M24.7,34.7c-0.2,0-0.4,0.1-0.7,0.1c-0.4,0-0.8,0.1-1.3,0.2c-0.8,0.2-1.6,0.5-2.2,0.9
				c0.3-0.2,0.6-0.4,1-0.6c0.4-0.2,0.8-0.3,1.2-0.4C23.4,34.8,24.1,34.7,24.7,34.7z M25.3,34.3c-0.2,0-0.4,0-0.6,0
				c-0.9,0.1-1.8,0.3-2.7,0.6c0,0,0,0-0.1,0c-0.6,0.2-1.2,0.5-1.6,0.8c-0.1,0.1-0.2,0.2-0.4,0.2c0.5-0.5,1.2-1,2.1-1.3
				c0.3-0.1,0.5-0.2,0.8-0.3C23.7,34.2,24.5,34.2,25.3,34.3z M25.3,34c-0.2,0-0.4,0-0.6,0c-0.6,0-1.2,0.2-1.8,0.3c0,0,0,0-0.1,0
				c-0.2,0-0.5,0.1-0.7,0.2c0.7-0.3,1.5-0.5,2.2-0.6C24.7,33.9,25,33.9,25.3,34z M23.7,33.8c0.6-0.1,1.2-0.1,1.8,0
				c-0.4,0-0.7,0-1.1,0.1c-0.4,0-0.9,0-1.4,0.1C23.2,33.9,23.4,33.8,23.7,33.8z M22.8,33.9c0,0,0.1,0,0.1,0
				c-0.2,0.1-0.4,0.1-0.6,0.2c0,0,0,0,0,0c-0.9,0.2-1.6,0.6-2.2,1c0.2-0.2,0.4-0.3,0.5-0.5C21.2,34.3,22,34.1,22.8,33.9z M22,33.7
				c-0.6,0.2-1.1,0.5-1.5,0.8c-0.3,0.1-0.5,0.3-0.8,0.4c0.3-0.4,0.8-0.7,1.2-1c0.5-0.2,1-0.4,1.5-0.5c0.1,0,0.1,0,0.2,0
				C22.5,33.5,22.2,33.6,22,33.7z"/>
			<path style="fill:#FF6C1A;" d="M25.1,37.9c-0.4,0-0.7,0.1-1,0.1c-0.5,0-1.1,0.2-1.8,0.5c0.1,0,0.1,0,0.2,0
				c0.3-0.2,0.6-0.3,0.9-0.3c-0.3,0.1-0.5,0.2-0.7,0.3c0.1,0,0.1,0,0.2,0c0.3-0.2,0.7-0.3,1.2-0.5c0.2,0,0.4,0,0.6,0
				c0,0,0.1-0.1,0.1-0.1c-0.1,0-0.1,0-0.2,0c0.1,0,0.2,0,0.3,0C25,38,25,37.9,25.1,37.9z"/>
		</g>
	</g>
	<g style="clip-path:url(#SVGID_2_);">
		<circle style="fill:#6E0089;" cx="17.3" cy="65.1" r="8.3"/>
		<path style="fill:#2D104F;" d="M25.6,64.3c-0.3-0.7-0.6-1.1-0.9-1.2c-0.3-0.2-2.3-0.6-3.3-0.5c-1,0-2.4-0.9-2.7-0.7
			c-1.1,1.1-1.8,1.3-2.8,2.2c-0.9,0.9-3.2,2.7-4.2,2.9c-1,0.2-1,1.5-0.8,3.3l0,0c1.5,1.8,3.8,3,6.4,3c1.9,0,3.6-0.6,5-1.6
			c0.4-0.5,0.5-1,0.5-1.7c0-1,0.3-1.5,0.1-1.5c-0.2,0-1.1-0.7-1.8-0.9c-0.7-0.2-1.6-1.2-2-1.4c-0.4-0.1-0.5,0.2-0.9,0.9
			c-0.4,0.7-2.4,1.9-2.8,1.9c-0.4,0,0,0.6,0.7,1.3c0.7,0.7,0.7,1.2,1.7,1.2c0.2,0,0.9-0.7,1-1.1c-0.1-0.1-0.7,0-0.9,0
			c-0.1,0,0.1,0.2,0.2,0.3c0.1,0.1-0.1,0.3-0.2,0.4c-0.1,0.1-0.4-0.3-0.8-0.8c-0.4-0.5-1-1.3-0.4-1.5s1.5-0.4,2.1-1.1
			c0.5-0.6,1-0.3,1.4,0.2c0.9,1,1.9,1.8,2,2.1c0.1,0.3,0,0.8-1.2,1.4c-1.1,0.6-2,1.5-2.7,1.6c-0.7,0.1-2.9-0.7-4.5-1.5
			c-1.6-0.8-1.7-1.7-1.7-2s0.2-0.7,1.2-1.7c0.9-1,2.9-2.2,3.9-2.9c1-0.7,1.2-1.8,1.6-1.6c0.4,0.2,1.4,0.3,2.7,0.3
			c1.3,0,2.5-0.1,3.1,0.3c0.5,0.3,0.8,0.8,1,2.7c0.1-0.5,0.1-1,0.1-1.5C25.6,64.8,25.6,64.6,25.6,64.3z"/>
		<path style="fill:#2D104F;" d="M21.4,57.9c-0.6,0-1.3,0.3-3,0.4c-2.3,0.1-3.8,0.5-4.7,0.3c-0.6-0.2-3.3,1.7-4.7,5.6
			c0,0.3,0,0.6,0,0.9c0,0.3,0,0.6,0.1,1c1-2.9,2.5-4.7,2.8-4.7c0.4,0.1,1.1-0.2,2.6-1.2c1.5-1.1,2.7-0.9,4.2-0.7
			c1.6,0.2,3-0.4,3.4-0.3c0.2,0.1,1.2,0.7,2,1.3C23.5,59.4,22.5,58.5,21.4,57.9z"/>
	</g>
	<g style="clip-path:url(#SVGID_2_);">
		<radialGradient id="SVGID_3_" cx="7.8404" cy="52.659" r="2.3762" gradientUnits="userSpaceOnUse">
			<stop  offset="3.631285e-02" style="stop-color:#E64F15"/>
			<stop  offset="1" style="stop-color:#F39800"/>
		</radialGradient>
		<circle style="fill:url(#SVGID_3_);" cx="7.8" cy="52.7" r="2.4"/>
	</g>
	<g style="clip-path:url(#SVGID_2_);">
		<g>
			<g>
				<radialGradient id="SVGID_4_" cx="16.5532" cy="40.4287" r="1.5827" gradientUnits="userSpaceOnUse">
					<stop  offset="3.631285e-02" style="stop-color:#A588D1"/>
					<stop  offset="0.9944" style="stop-color:#6D5AD1"/>
				</radialGradient>
				<circle style="fill:url(#SVGID_4_);" cx="16.6" cy="40.4" r="1.6"/>
			</g>
		</g>
	</g>
	<g style="clip-path:url(#SVGID_2_);">
		<circle style="fill:#22BBFF;" cx="12.3" cy="11.4" r="4.9"/>
	</g>
	<g style="clip-path:url(#SVGID_2_);">
		<g>
			<defs>
				<filter id="Adobe_OpacityMaskFilter" filterUnits="userSpaceOnUse" x="6" y="34.7" width="1.5" height="12.8">
					<feFlood  style="flood-color:white;flood-opacity:1" result="back"/>
					<feBlend  in="SourceGraphic" in2="back" mode="normal"/>
				</filter>
			</defs>
			<mask maskUnits="userSpaceOnUse" x="6" y="34.7" width="1.5" height="12.8" id="SVGID_5_">
				<g style="filter:url(#Adobe_OpacityMaskFilter);">
					<defs>
						<filter id="Adobe_OpacityMaskFilter_1_" filterUnits="userSpaceOnUse" x="6" y="34.7" width="1.5" height="12.8">
							<feFlood  style="flood-color:white;flood-opacity:1" result="back"/>
							<feBlend  in="SourceGraphic" in2="back" mode="normal"/>
						</filter>
					</defs>
					<mask maskUnits="userSpaceOnUse" x="6" y="34.7" width="1.5" height="12.8" id="SVGID_5_">
						<g style="filter:url(#Adobe_OpacityMaskFilter_1_);">
						</g>
					</mask>
					
						<linearGradient id="SVGID_6_" gradientUnits="userSpaceOnUse" x1="-38.5858" y1="-664.7347" x2="-38.5858" y2="-679.1262" gradientTransform="matrix(0.9998 2.150000e-02 -1.920000e-02 0.8921 32.4183 641.4155)">
						<stop  offset="0" style="stop-color:#FFFFFF"/>
						<stop  offset="0.2118" style="stop-color:#B7B7B7"/>
						<stop  offset="0.4236" style="stop-color:#767676"/>
						<stop  offset="0.6148" style="stop-color:#434343"/>
						<stop  offset="0.7806" style="stop-color:#1F1F1F"/>
						<stop  offset="0.9146" style="stop-color:#080808"/>
						<stop  offset="1" style="stop-color:#000000"/>
					</linearGradient>
					<path style="mask:url(#SVGID_5_);fill:url(#SVGID_6_);" d="M7.1,47.6L7.1,47.6c-0.4,0.1-0.6-0.5-0.7-0.7c-0.8-4-0.6-8.1,0.8-12
						c0-0.1,0.1-0.2,0.2-0.1l0,0c0.1,0,0.1,0.1,0.1,0.2c-1.1,3.9-1.1,7.9-0.1,11.8C7.4,47,7.4,47.5,7.1,47.6z"/>
				</g>
			</mask>
			
				<linearGradient id="SVGID_7_" gradientUnits="userSpaceOnUse" x1="-38.5858" y1="-664.7347" x2="-38.5858" y2="-679.1262" gradientTransform="matrix(0.9998 2.150000e-02 -1.920000e-02 0.8921 32.4183 641.4155)">
				<stop  offset="0" style="stop-color:#5FF9F9"/>
				<stop  offset="1" style="stop-color:#5FF9F9"/>
			</linearGradient>
			<path style="opacity:0.5;fill:url(#SVGID_7_);" d="M7.1,47.6L7.1,47.6c-0.4,0.1-0.6-0.5-0.7-0.7c-0.8-4-0.6-8.1,0.8-12
				c0-0.1,0.1-0.2,0.2-0.1l0,0c0.1,0,0.1,0.1,0.1,0.2c-1.1,3.9-1.1,7.9-0.1,11.8C7.4,47,7.4,47.5,7.1,47.6z"/>
			<path style="fill:#5FF9F9;" d="M7.4,47.1c0.1,0.2-0.1,0.5-0.3,0.5c-0.3,0.1-0.5-0.1-0.6-0.3c-0.1-0.2,0.1-0.5,0.4-0.5
				C7.1,46.7,7.4,46.9,7.4,47.1z"/>
		</g>
	</g>
	<g style="clip-path:url(#SVGID_2_);">
		<g>
			<defs>
				<filter id="Adobe_OpacityMaskFilter_2_" filterUnits="userSpaceOnUse" x="31.4" y="72.7" width="11.4" height="6.2">
					<feFlood  style="flood-color:white;flood-opacity:1" result="back"/>
					<feBlend  in="SourceGraphic" in2="back" mode="normal"/>
				</filter>
			</defs>
			<mask maskUnits="userSpaceOnUse" x="31.4" y="72.7" width="11.4" height="6.2" id="SVGID_8_">
				<g style="filter:url(#Adobe_OpacityMaskFilter_2_);">
					<defs>
						<filter id="Adobe_OpacityMaskFilter_3_" filterUnits="userSpaceOnUse" x="31.4" y="72.7" width="11.4" height="6.2">
							<feFlood  style="flood-color:white;flood-opacity:1" result="back"/>
							<feBlend  in="SourceGraphic" in2="back" mode="normal"/>
						</filter>
					</defs>
					<mask maskUnits="userSpaceOnUse" x="31.4" y="72.7" width="11.4" height="6.2" id="SVGID_8_">
						<g style="filter:url(#Adobe_OpacityMaskFilter_3_);">
						</g>
					</mask>
					
						<linearGradient id="SVGID_9_" gradientUnits="userSpaceOnUse" x1="346.0093" y1="153.2948" x2="346.0093" y2="138.903" gradientTransform="matrix(0.4567 -0.8896 0.7938 0.4075 -237.1071 324.3456)">
						<stop  offset="0" style="stop-color:#FFFFFF"/>
						<stop  offset="0.2118" style="stop-color:#B7B7B7"/>
						<stop  offset="0.4236" style="stop-color:#767676"/>
						<stop  offset="0.6148" style="stop-color:#434343"/>
						<stop  offset="0.7806" style="stop-color:#1F1F1F"/>
						<stop  offset="0.9146" style="stop-color:#080808"/>
						<stop  offset="1" style="stop-color:#000000"/>
					</linearGradient>
					<path style="mask:url(#SVGID_8_);fill:url(#SVGID_9_);" d="M42.8,78.6L42.8,78.6c-0.1,0.4-0.7,0.3-0.9,0.3c-4-1-7.5-3-10.4-5.9
						c-0.1-0.1-0.1-0.2-0.1-0.2l0,0c0,0,0.1,0,0.2,0c3,2.7,6.6,4.4,10.5,5.2C42.4,78,42.9,78.2,42.8,78.6z"/>
				</g>
			</mask>
			
				<linearGradient id="SVGID_10_" gradientUnits="userSpaceOnUse" x1="346.0093" y1="153.2948" x2="346.0093" y2="138.903" gradientTransform="matrix(0.4567 -0.8896 0.7938 0.4075 -237.1071 324.3456)">
				<stop  offset="0" style="stop-color:#5FF9F9"/>
				<stop  offset="1" style="stop-color:#5FF9F9"/>
			</linearGradient>
			<path style="opacity:0.5;fill:url(#SVGID_10_);" d="M42.8,78.6L42.8,78.6c-0.1,0.4-0.7,0.3-0.9,0.3c-4-1-7.5-3-10.4-5.9
				c-0.1-0.1-0.1-0.2-0.1-0.2l0,0c0,0,0.1,0,0.2,0c3,2.7,6.6,4.4,10.5,5.2C42.4,78,42.9,78.2,42.8,78.6z"/>
			<path style="fill:#5FF9F9;" d="M42.5,78c0.2,0,0.4,0.3,0.3,0.5c-0.1,0.3-0.3,0.4-0.5,0.4c-0.2,0-0.4-0.3-0.3-0.5
				C42.1,78.2,42.3,78,42.5,78z"/>
		</g>
	</g>
	<g style="clip-path:url(#SVGID_2_);">
		<g>
			<defs>
				<filter id="Adobe_OpacityMaskFilter_4_" filterUnits="userSpaceOnUse" x="31.6" y="8.4" width="11.4" height="6.3">
					<feFlood  style="flood-color:white;flood-opacity:1" result="back"/>
					<feBlend  in="SourceGraphic" in2="back" mode="normal"/>
				</filter>
			</defs>
			<mask maskUnits="userSpaceOnUse" x="31.6" y="8.4" width="11.4" height="6.3" id="SVGID_11_">
				<g style="filter:url(#Adobe_OpacityMaskFilter_4_);">
					<defs>
						<filter id="Adobe_OpacityMaskFilter_5_" filterUnits="userSpaceOnUse" x="31.6" y="8.4" width="11.4" height="6.3">
							<feFlood  style="flood-color:white;flood-opacity:1" result="back"/>
							<feBlend  in="SourceGraphic" in2="back" mode="normal"/>
						</filter>
					</defs>
					<mask maskUnits="userSpaceOnUse" x="31.6" y="8.4" width="11.4" height="6.3" id="SVGID_11_">
						<g style="filter:url(#Adobe_OpacityMaskFilter_5_);">
						</g>
					</mask>
					
						<linearGradient id="SVGID_12_" gradientUnits="userSpaceOnUse" x1="1453.8961" y1="-681.0078" x2="1453.8961" y2="-695.3988" gradientTransform="matrix(0.4782 0.8782 -0.7837 0.4267 -1197.5358 -972.0591)">
						<stop  offset="0" style="stop-color:#FFFFFF"/>
						<stop  offset="0.2118" style="stop-color:#B7B7B7"/>
						<stop  offset="0.4236" style="stop-color:#767676"/>
						<stop  offset="0.6148" style="stop-color:#434343"/>
						<stop  offset="0.7806" style="stop-color:#1F1F1F"/>
						<stop  offset="0.9146" style="stop-color:#080808"/>
						<stop  offset="1" style="stop-color:#000000"/>
					</linearGradient>
					<path style="mask:url(#SVGID_11_);fill:url(#SVGID_12_);" d="M31.7,14.6L31.7,14.6c-0.3-0.3,0.1-0.7,0.3-0.9
						C35,11,38.7,9.1,42.7,8.4c0.1,0,0.2,0,0.2,0.1l0,0c0,0.1,0,0.1-0.1,0.1c-3.9,1-7.4,2.9-10.2,5.8C32.4,14.6,31.9,14.8,31.7,14.6
						z"/>
				</g>
			</mask>
			
				<linearGradient id="SVGID_13_" gradientUnits="userSpaceOnUse" x1="1453.8961" y1="-681.0078" x2="1453.8961" y2="-695.3988" gradientTransform="matrix(0.4782 0.8782 -0.7837 0.4267 -1197.5358 -972.0591)">
				<stop  offset="0" style="stop-color:#5FF9F9"/>
				<stop  offset="1" style="stop-color:#5FF9F9"/>
			</linearGradient>
			<path style="opacity:0.5;fill:url(#SVGID_13_);" d="M31.7,14.6L31.7,14.6c-0.3-0.3,0.1-0.7,0.3-0.9C35,11,38.7,9.1,42.7,8.4
				c0.1,0,0.2,0,0.2,0.1l0,0c0,0.1,0,0.1-0.1,0.1c-3.9,1-7.4,2.9-10.2,5.8C32.4,14.6,31.9,14.8,31.7,14.6z"/>
			<path style="fill:#5FF9F9;" d="M32.3,14.7c-0.2,0.2-0.4,0.1-0.6,0c-0.2-0.2-0.2-0.5,0-0.7c0.2-0.2,0.5-0.2,0.6,0
				C32.4,14.2,32.4,14.5,32.3,14.7z"/>
		</g>
	</g>
	<g style="clip-path:url(#SVGID_2_);">
		
			<image style="overflow:visible;" width="52" height="52" xlink:href="7E217230.png"  transform="matrix(0.24 0 0 0.24 -17.04 17.9284)">
		</image>
		<g>
			<path style="fill:#6E0089;" d="M10.7,14.5c0.6-0.3,1.2-1.4,0-1.7c-1.2-0.3,0-0.9-0.5-1.6c-0.5-0.7-0.7,0.6-1.4,0
				c-0.6-0.6-0.8-0.2-1.2,0.4c0.1,2.1,1.6,3.8,3.6,4.3C11.6,14.7,10.2,14.7,10.7,14.5z"/>
			<path style="fill:#6E0089;" d="M8.7,9C8.4,9.5,8.8,9.1,9.3,9C9.7,8.8,10.2,9,10,8.5C9.7,8,9.1,8.3,8.7,9z"/>
			<path style="fill:#6E0089;" d="M10.9,10.5c-0.3,0.3,0.4,0.3,0.4,0.7c0,0.4,1-0.1,0.4-0.4C11.2,10.4,11.3,10,10.9,10.5z"/>
			<path style="fill:#6E0089;" d="M13.5,11.3c-0.1,0.4,0.3,0.2,0.4,0.1C14,11.2,13.6,10.9,13.5,11.3z"/>
			<path style="fill:#6E0089;" d="M12.5,13.4c0.6,0.2,0.1,1.2-0.1,0.9c-0.2-0.3,0-0.6-0.5-0.5C11.5,13.9,12,13.3,12.5,13.4z"/>
			<path style="fill:#6E0089;" d="M15.1,15c-0.2-0.2-0.2-0.5-0.4-0.5c-0.2,0-0.6,0.5-0.7,1.1C14.4,15.5,14.8,15.2,15.1,15z"/>
			<path style="fill:#6E0089;" d="M16.7,12.6c0-0.2-0.2-0.4-0.3-0.7c-0.3-0.4-1-1-1.7-0.8c-0.6,0.1-0.6,1,0,1.5
				c0.7,0.5-0.2,1.1,0,1.3c0.2,0.2,1.1,0.1,1.6-0.4C16.5,13.2,16.6,12.9,16.7,12.6z"/>
			<path style="fill:#6E0089;" d="M14.8,7.3c-0.7-0.4-1.6-0.6-2.5-0.6c-0.1,0-0.2,0-0.3,0c-0.9,0.5-0.8,1.6,0,1.6
				c0.8,0,1.1-0.3,1.6,0.7C14,9.9,14.7,9,15,9.3c0.3,0.2,1,0.4,1.1-0.1C16.1,8.9,15.8,8,14.8,7.3z"/>
			<path style="fill:#6E0089;" d="M15.7,9.8c-0.3,0-0.5,0-0.7-0.2c-0.2-0.1-0.1,0.5,0.4,0.6C16,10.4,16,9.8,15.7,9.8z"/>
			<path style="fill:#6E0089;" d="M11.3,10.1c0.2,0.2,0.4,0.1,0.2-0.1C11.4,9.9,11.2,10,11.3,10.1z"/>
		</g>
	</g>
</g>
</svg>
