<svg width="1440" height="525" viewBox="0 0 1440 525" fill="none" xmlns="http://www.w3.org/2000/svg">
<g clip-path="url(#clip0_1_9)">
<rect width="1440" height="525" fill="#14151A"/>
<path opacity="0.5" fill-rule="evenodd" clip-rule="evenodd" d="M1175.64 183.072C1175.64 198.981 1188.54 211.878 1204.45 211.878C1220.36 211.878 1233.26 198.981 1233.26 183.072V44.8055C1233.26 28.8967 1220.36 16 1204.45 16C1188.54 16 1175.64 28.8967 1175.64 44.8055V183.072ZM963.961 425.311C948.052 425.311 935.155 412.414 935.155 396.505V292.805C935.155 276.896 948.052 263.999 963.961 263.999C979.869 263.999 992.766 276.896 992.766 292.805V396.505C992.766 412.414 979.869 425.311 963.961 425.311ZM853.489 536.455C837.581 536.455 824.684 523.558 824.684 507.65V369.383C824.684 353.474 837.581 340.577 853.489 340.577C869.398 340.577 882.295 353.474 882.295 369.383V507.65C882.295 523.558 869.398 536.455 853.489 536.455ZM1077.7 308.312C1061.8 308.312 1048.9 295.415 1048.9 279.506V175.806C1048.9 159.897 1061.8 147 1077.7 147C1093.61 147 1106.51 159.897 1106.51 175.806V279.506C1106.51 295.415 1093.61 308.312 1077.7 308.312ZM1302.39 270.94C1302.39 286.848 1315.29 299.745 1331.19 299.745C1347.1 299.745 1360 286.848 1360 270.94V201.806C1360 185.897 1347.1 173.001 1331.19 173.001C1315.29 173.001 1302.39 185.897 1302.39 201.806V270.94Z" fill="url(#paint0_linear_1_9)"/>
<path opacity="0.5" fill-rule="evenodd" clip-rule="evenodd" d="M212.511 125.878C228.42 125.878 241.316 112.981 241.316 97.0722V-41.1945C241.316 -57.1033 228.42 -70 212.511 -70C196.602 -70 183.705 -57.1033 183.705 -41.1945V97.0722C183.705 112.981 196.602 125.878 212.511 125.878ZM437.661 291.989C453.57 291.989 466.467 279.093 466.467 263.184V124.917C466.467 109.008 453.57 96.1115 437.661 96.1115C421.752 96.1115 408.856 109.008 408.856 124.917V263.184C408.856 279.093 421.752 291.989 437.661 291.989ZM140.845 170.505C140.845 186.414 127.948 199.311 112.039 199.311C96.1306 199.311 83.2339 186.414 83.2339 170.505V66.805C83.2339 50.8961 96.1306 37.9994 112.039 37.9994C127.948 37.9994 140.845 50.8961 140.845 66.805V170.505ZM714.195 349.6C730.104 349.6 743 336.703 743 320.794V240.139C743 224.23 730.104 211.333 714.195 211.333C698.286 211.333 685.389 224.23 685.389 240.139V320.794C685.389 336.703 698.286 349.6 714.195 349.6ZM599.211 376.505C599.211 392.414 586.314 405.311 570.406 405.311C554.497 405.311 541.6 392.414 541.6 376.505V272.805C541.6 256.896 554.497 243.999 570.406 243.999C586.314 243.999 599.211 256.896 599.211 272.805V376.505ZM315.917 188.288C331.826 188.288 344.723 175.391 344.723 159.483V78.827C344.723 62.9181 331.826 50.0214 315.917 50.0214C300.008 50.0214 287.112 62.9181 287.112 78.827V159.483C287.112 175.391 300.008 188.288 315.917 188.288ZM47.1006 313.505C47.1006 329.414 34.2039 342.311 18.295 342.311C2.38611 342.311 -10.5106 329.414 -10.5106 313.505V209.805C-10.5106 193.896 2.38611 180.999 18.295 180.999C34.2039 180.999 47.1006 193.896 47.1006 209.805V313.505Z" fill="url(#paint1_linear_1_9)"/>
</g>
<defs>
<linearGradient id="paint0_linear_1_9" x1="768.193" y1="-78.9479" x2="1354.83" y2="125.783" gradientUnits="userSpaceOnUse">
<stop offset="0.015625" stop-color="#6EE5B3"/>
<stop offset="0.430034" stop-color="#68D8E2"/>
<stop offset="1" stop-color="#4475F6"/>
</linearGradient>
<linearGradient id="paint1_linear_1_9" x1="822.516" y1="-156.712" x2="104.072" y2="229.74" gradientUnits="userSpaceOnUse">
<stop offset="0.015625" stop-color="#6EE5B3"/>
<stop offset="0.430034" stop-color="#68D8E2"/>
<stop offset="1" stop-color="#4475F6"/>
</linearGradient>
<clipPath id="clip0_1_9">
<rect width="1440" height="525" fill="white"/>
</clipPath>
</defs>
</svg>
