<?xml version="1.0" encoding="utf-8"?>
<!-- Generator: Adobe Illustrator 24.2.0, SVG Export Plug-In . SVG Version: 6.00 Build 0)  -->
<svg version="1.0" id="图层_1" xmlns="http://www.w3.org/2000/svg" xmlns:xlink="http://www.w3.org/1999/xlink" x="0px" y="0px"
	 viewBox="0 0 140.6 110.7" enable-background="new 0 0 140.6 110.7" xml:space="preserve">
<g>
	<g id="图层_1_2_">
		<g opacity="0.3">
			
				<linearGradient id="SVGID_1_" gradientUnits="userSpaceOnUse" x1="8.09" y1="83.9827" x2="111.09" y2="83.9827" gradientTransform="matrix(1 0 0 -1 0 127.6913)">
				<stop  offset="0" style="stop-color:#2A023F"/>
				<stop  offset="0.1" style="stop-color:#2C0845"/>
				<stop  offset="0.24" style="stop-color:#321A54"/>
				<stop  offset="0.41" style="stop-color:#3D366E"/>
				<stop  offset="0.59" style="stop-color:#4B5E91"/>
				<stop  offset="0.78" style="stop-color:#5D91BF"/>
				<stop  offset="0.98" style="stop-color:#73CFF6"/>
				<stop  offset="1" style="stop-color:#76D6FD"/>
			</linearGradient>
			<path fill="url(#SVGID_1_)" d="M111.1,29.4C70.2,8.5,9.5,23.4,8.1,54.8v12.9c2.1-31.5,62.8-46.4,103-25.3L111.1,29.4L111.1,29.4z
				"/>
		</g>
		<path opacity="0.4" fill="#4B95FA" enable-background="new    " d="M38.4,47.3L37.1,48c-5.2,3-8.6,6.6-10.2,10.4v-8.3
			c1.7-3.8,5.1-7.4,10.2-10.4c0.4-0.2,0.8-0.5,1.2-0.7C38.4,39,38.4,47.3,38.4,47.3z"/>
		<path opacity="0.4" fill="#4B95FA" enable-background="new    " d="M65.2,41.3c-7.1-0.1-14.2,1.1-21,3.4v-8.3
			c6.8-2.3,13.9-3.5,21-3.4V41.3z"/>
		<path opacity="0.4" fill="#4B95FA" enable-background="new    " d="M92.1,47.5c-6.2-3.2-12.9-5.2-19.8-5.9v-8.3
			c6.9,0.6,13.6,2.6,19.8,5.8C92.1,39.2,92.1,47.5,92.1,47.5z"/>
		<path fill="#76D6FD" d="M69.1,73.4h-0.8v-0.8h0.8L69.1,73.4z M70.7,73.4v-0.8h0.8v0.8H70.7z M66.7,73.3l-0.8-0.1l0.1-0.8l0.8,0.1
			L66.7,73.3z M73.1,73.3L73,72.5l0.8-0.1l0.1,0.8L73.1,73.3z M64.3,73l-0.8-0.2l0.2-0.8l0.8,0.1L64.3,73z M75.5,73l-0.1-0.8
			l0.8-0.2l0.2,0.8L75.5,73z M62,72.5l-0.8-0.2l0.2-0.8l0.8,0.2L62,72.5z M77.8,72.3l-0.2-0.8l0.8-0.2l0.2,0.8L77.8,72.3z
			 M59.6,71.7l-0.8-0.3l0.3-0.7l0.7,0.3L59.6,71.7z M80.1,71.6l-0.3-0.8l0.7-0.3l0.3,0.7L80.1,71.6z M57.4,70.7l-0.7-0.4l0.4-0.7
			c0.2,0.1,0.4,0.3,0.7,0.4L57.4,70.7z M82.3,70.6l-0.4-0.7c0.2-0.1,0.5-0.2,0.7-0.4l0.5-0.3l0.4,0.7L83,70.2L82.3,70.6z M55.3,69.4
			L54.7,69l0.5-0.6l0.6,0.5L55.3,69.4z M84.8,68.9l-0.5-0.6c0.2-0.2,0.4-0.3,0.6-0.5l0.5,0.6C85.3,68.6,85.1,68.8,84.8,68.9
			L84.8,68.9z M53.5,67.9c-0.2-0.2-0.4-0.4-0.6-0.6l0.6-0.5c0.2,0.2,0.3,0.4,0.5,0.6L53.5,67.9z M86.6,67.2L86,66.7
			c0.2-0.2,0.3-0.4,0.5-0.6l0.6,0.5C87,66.8,86.8,67,86.6,67.2L86.6,67.2z M51.9,65.9c-0.1-0.3-0.3-0.5-0.4-0.8l0.7-0.3
			c0.1,0.2,0.2,0.4,0.3,0.7L51.9,65.9z M87.9,65.1l-0.7-0.3c0.1-0.2,0.2-0.5,0.3-0.7l0.8,0.3C88.2,64.6,88.1,64.9,87.9,65.1
			L87.9,65.1z M51.1,63.6C51,63.3,51,63,50.9,62.7l0.8-0.1c0,0.3,0.1,0.5,0.1,0.7L51.1,63.6z M88.6,62.7l-0.8-0.1c0-0.1,0-0.3,0-0.4
			s0-0.2,0-0.3h0.8c0,0.1,0,0.3,0,0.4S88.6,62.5,88.6,62.7L88.6,62.7z M51.8,61.2L51,61c0.1-0.3,0.1-0.6,0.2-0.8l0.8,0.2
			C51.9,60.7,51.9,60.9,51.8,61.2z M87.5,60.4c-0.1-0.2-0.2-0.5-0.3-0.7l0.7-0.3c0.1,0.3,0.2,0.5,0.3,0.8L87.5,60.4z M52.5,59
			l-0.7-0.4c0.1-0.2,0.3-0.5,0.4-0.7l0.6,0.5C52.8,58.6,52.7,58.8,52.5,59L52.5,59z M86.5,58.4c-0.1-0.2-0.3-0.4-0.5-0.6l0.6-0.5
			c0.2,0.2,0.4,0.4,0.5,0.7L86.5,58.4z M53.9,57.2l-0.6-0.6l0.6-0.6l0.5,0.6C54.3,56.9,54.1,57.1,53.9,57.2L53.9,57.2z M85,56.7
			c-0.2-0.2-0.4-0.3-0.6-0.5l0.5-0.6c0.2,0.2,0.4,0.3,0.6,0.5L85,56.7z M55.7,55.7L55.2,55c0.2-0.2,0.4-0.3,0.7-0.4l0.4,0.7
			L55.7,55.7z M83.2,55.3l-0.6-0.3l-0.1-0.1l0.4-0.7l0.1,0.1l0.6,0.4L83.2,55.3z M57.7,54.5l-0.4-0.7c0.2-0.1,0.5-0.3,0.7-0.4
			l0.3,0.7L57.7,54.5z M81.1,54.2l-0.7-0.3l0.3-0.7c0.3,0.1,0.5,0.2,0.7,0.3L81.1,54.2z M59.8,53.6l-0.3-0.8
			c0.3-0.1,0.5-0.2,0.8-0.3l0.3,0.8L59.8,53.6z M79,53.3L78.2,53l0.2-0.8c0.3,0.1,0.5,0.2,0.8,0.2L79,53.3z M62.1,52.8l-0.2-0.8
			l0.8-0.2l0.2,0.8L62.1,52.8z M76.7,52.6L76,52.5l0.2-0.8l0.8,0.2L76.7,52.6z M64.3,52.3l-0.1-0.8l0.8-0.1l0.1,0.8L64.3,52.3z
			 M74.4,52.2l-0.8-0.1l0.1-0.8l0.8,0.1L74.4,52.2z M66.7,52l-0.1-0.8l0.8-0.1l0.1,0.8L66.7,52z M72.1,51.9l-0.8-0.1v-0.8h0.8
			L72.1,51.9z M69,51.8V51h0.8v0.8H69z"/>
		<ellipse opacity="0.1" fill="#53A5F8" enable-background="new    " cx="69.8" cy="62.2" rx="18.4" ry="10.8"/>
		<path fill="#53A5F8" d="M69.8,57.3c-4.6,0.1-9.1-1-13.1-3.1c-3.6-2.1-5.5-4.8-5.5-7.8s2-5.7,5.5-7.8c7.3-4.2,19.1-4.2,26.3,0
			c3.6,2.1,5.5,4.8,5.5,7.8s-2,5.7-5.5,7.8C78.9,56.3,74.4,57.4,69.8,57.3z M69.8,35.8c-4.5-0.1-9,1-12.9,3.1
			c-3.4,2-5.3,4.6-5.3,7.4s1.9,5.4,5.3,7.4c7.1,4.2,18.7,4.2,25.9,0l0,0c3.4-2,5.3-4.6,5.3-7.4s-1.9-5.4-5.3-7.4
			C78.7,36.8,74.3,35.7,69.8,35.8z"/>
		<path opacity="0.5" fill="#53A5F8" enable-background="new    " d="M69.8,46.5c-4.6,0.1-9.1-1-13.1-3.2c-3.6-2.1-5.5-4.8-5.5-7.8
			s2-5.7,5.5-7.8c7.3-4.2,19.1-4.2,26.3,0c3.6,2.1,5.5,4.8,5.5,7.8s-2,5.7-5.5,7.8l0,0C78.9,45.5,74.4,46.6,69.8,46.5z M69.8,25
			c-4.5-0.1-9,1-12.9,3.2c-3.4,2-5.3,4.6-5.3,7.4s1.9,5.4,5.3,7.4c7.1,4.2,18.7,4.2,25.9,0l0,0c3.4-2,5.3-4.6,5.3-7.4
			s-1.9-5.4-5.3-7.4C78.7,26,74.3,24.9,69.8,25z"/>
		<path opacity="0.3" fill="#53A5F8" enable-background="new    " d="M69.8,35.8c-4.6,0.1-9.1-1-13.1-3.2c-3.6-2.1-5.5-4.8-5.5-7.8
			s2-5.7,5.5-7.8c7.3-4.2,19.1-4.2,26.3,0c3.6,2.1,5.5,4.8,5.5,7.8s-2,5.7-5.5,7.8l0,0C78.9,34.7,74.4,35.8,69.8,35.8z M69.8,14.2
			c-4.5-0.1-9,1-12.9,3.1c-3.4,2-5.3,4.6-5.3,7.4s1.9,5.4,5.3,7.4c7.1,4.2,18.7,4.2,25.9,0l0,0c3.4-2,5.3-4.6,5.3-7.4
			s-1.9-5.4-5.3-7.4C78.7,15.2,74.3,14.1,69.8,14.2z"/>
		<path opacity="0.1" fill="#53A5F8" enable-background="new    " d="M69.8,25c-4.6,0.1-9.1-1-13.1-3.2c-3.6-2.1-5.5-4.8-5.5-7.8
			s2-5.7,5.5-7.8C63.9,2,75.7,2,82.9,6.2c3.6,2.1,5.5,4.8,5.5,7.8s-2,5.7-5.5,7.8C78.9,24,74.4,25.1,69.8,25z M69.8,3.5
			c-4.5-0.1-9,1-12.9,3.1c-3.4,2-5.3,4.6-5.3,7.4s1.9,5.4,5.3,7.4c7.1,4.2,18.7,4.2,25.9,0l0,0c3.4-2,5.3-4.6,5.3-7.4
			s-1.9-5.4-5.3-7.4C78.7,4.5,74.3,3.4,69.8,3.5z"/>
		<path fill="#6BD2FE" d="M53,43.3c0,0.5-0.4,0.9-0.9,0.9s-0.9-0.4-0.9-0.9s0.4-0.9,0.9-0.9l0,0C52.6,42.3,53,42.7,53,43.3z"/>
		<path fill="#6BD2FE" d="M81.5,37.6c0,0.5-0.4,0.9-0.9,0.9c-0.5,0-0.9-0.4-0.9-0.9c0-0.5,0.4-0.9,0.9-0.9
			C81.1,36.7,81.5,37.1,81.5,37.6C81.5,37.6,81.5,37.6,81.5,37.6z"/>
		<path fill="#6BD2FE" d="M72.1,24.8c0,0.5-0.4,0.9-0.9,0.9s-0.9-0.4-0.9-0.9c0-0.5,0.4-0.9,0.9-0.9C71.7,23.9,72.1,24.3,72.1,24.8
			C72.1,24.8,72.1,24.8,72.1,24.8z"/>
		<path fill="#6BD2FE" d="M57.8,17.2c0,0.5-0.4,0.9-0.9,0.9s-0.9-0.4-0.9-0.9c0-0.5,0.4-0.9,0.9-0.9c0,0,0,0,0,0
			C57.4,16.2,57.8,16.7,57.8,17.2z"/>
		<path fill="#6BD2FE" d="M79.5,15.4c0,0.5-0.4,0.9-0.9,0.9c-0.5,0-0.9-0.4-0.9-0.9c0-0.5,0.4-0.9,0.9-0.9
			C79.1,14.5,79.5,14.9,79.5,15.4z"/>
		<ellipse fill="#6BD2FE" cx="86.3" cy="9.2" rx="0.9" ry="0.9"/>
		<path fill="#6BD2FE" d="M68.9,3.3c0,0.5-0.4,0.9-0.9,0.9c-0.5,0-0.9-0.4-0.9-0.9c0-0.5,0.4-0.9,0.9-0.9
			C68.5,2.3,68.9,2.7,68.9,3.3C68.9,3.2,68.9,3.3,68.9,3.3z"/>
		<g opacity="0.15">
			
				<linearGradient id="SVGID_2_" gradientUnits="userSpaceOnUse" x1="7.98" y1="50.3163" x2="92.95" y2="50.3163" gradientTransform="matrix(1 0 0 -1 0 127.6913)">
				<stop  offset="0" style="stop-color:#2A023F"/>
				<stop  offset="0.1" style="stop-color:#2C0845"/>
				<stop  offset="0.24" style="stop-color:#321A54"/>
				<stop  offset="0.41" style="stop-color:#3D366E"/>
				<stop  offset="0.59" style="stop-color:#4B5E91"/>
				<stop  offset="0.78" style="stop-color:#5D91BF"/>
				<stop  offset="0.98" style="stop-color:#73CFF6"/>
				<stop  offset="1" style="stop-color:#76D6FD"/>
			</linearGradient>
			<path fill="url(#SVGID_2_)" d="M8,53.2C9.8,81.4,56.2,94.7,93,86v12.9c-45.4,9.9-84.7-9.7-85-32.7L8,53.2L8,53.2z"/>
		</g>
		<g opacity="0.15">
			
				<linearGradient id="SVGID_3_" gradientUnits="userSpaceOnUse" x1="121.95" y1="50.3155" x2="206.89" y2="50.3155" gradientTransform="matrix(-1 0 0 -1 251.3799 127.6913)">
				<stop  offset="0" style="stop-color:#2A023F"/>
				<stop  offset="0.13" style="stop-color:#2B0745"/>
				<stop  offset="0.3" style="stop-color:#2C1357"/>
				<stop  offset="0.5" style="stop-color:#2F2873"/>
				<stop  offset="0.72" style="stop-color:#32469B"/>
				<stop  offset="0.95" style="stop-color:#376BCD"/>
				<stop  offset="1" style="stop-color:#3874DA"/>
			</linearGradient>
			<path fill="url(#SVGID_3_)" d="M129.4,53.2C127.7,81.4,81.2,94.7,44.5,86v12.9c45.4,9.9,84.6-9.7,84.9-32.7V53.2z"/>
		</g>
		<g opacity="0.2">
			<path fill="#81DAFE" d="M34.4,78.3c1,0.7,2,1.3,3,1.9c4.8,2.7,10.1,4.6,15.6,5.5v-8.3c-5.5-1-10.7-2.8-15.6-5.5
				c-1-0.6-2-1.2-3-1.9V78.3z"/>
			<path fill="#81DAFE" d="M25.8,55.7c0.1,4.1,1.8,7.9,4.6,10.8v8.3c-2.9-2.9-4.5-6.7-4.6-10.8L25.8,55.7L25.8,55.7z"/>
		</g>
		<g opacity="0.2">
			<path fill="#A7F1FE" d="M71.9,110.7v-0.8h0.9v0.8H71.9z M69.7,110.7h-0.9v-0.8h0.9L69.7,110.7z M74.9,110.7v-0.8h0.9v0.8H74.9z
				 M66.7,110.7h-0.9v-0.8h0.9V110.7z M77.9,110.6l-0.1-0.8l0.9-0.1l0.1,0.8L77.9,110.6z M63.7,110.6l-0.9-0.1l0.1-0.8h0.9
				L63.7,110.6z M80.9,110.5l-0.1-0.8l0.9-0.1l0.1,0.8L80.9,110.5z M60.8,110.4l-0.9-0.1l0.1-0.8l0.8,0.1L60.8,110.4z M83.8,110.2
				l-0.1-0.8l0.8-0.1l0.1,0.8L83.8,110.2z M57.8,110l-0.9-0.1L57,109l0.8,0.1L57.8,110z M86.8,109.7l-0.1-0.8l0.8-0.1l0.1,0.8
				L86.8,109.7z M54.8,109.6l-0.9-0.1l0.1-0.8l0.8,0.1L54.8,109.6z M89.8,109.3l-0.1-0.8l0.8-0.1l0.1,0.8L89.8,109.3z M51.8,109.2
				L51,109l0.1-0.8l0.8,0.1L51.8,109.2z M92.7,108.8l-0.2-0.8l0.8-0.2l0.2,0.8L92.7,108.8z M48.9,108.6l-0.8-0.2l0.2-0.8l0.8,0.2
				L48.9,108.6z M95.7,108.2l-0.2-0.8l0.8-0.2l0.2,0.8L95.7,108.2z M45.9,108l-0.8-0.2l0.2-0.8l0.8,0.2L45.9,108z M98.6,107.5
				l-0.2-0.8l0.8-0.2l0.2,0.8L98.6,107.5z M43,107.3l-0.8-0.2l0.2-0.8l0.8,0.2L43,107.3z M101.5,106.7l-0.2-0.8l0.8-0.2l0.2,0.8
				L101.5,106.7z M40.1,106.6l-0.8-0.2l0.2-0.8l0.8,0.2L40.1,106.6z M104.4,105.9l-0.3-0.8l0.8-0.3l0.3,0.8L104.4,105.9z
				 M37.3,105.7l-0.8-0.3l0.3-0.8l0.8,0.3L37.3,105.7z M107.3,104.9l-0.3-0.8l0.8-0.3l0.3,0.8L107.3,104.9z M34.4,104.7l-0.8-0.3
				l0.3-0.8l0.8,0.3L34.4,104.7z M110.1,103.9l-0.3-0.8l0.8-0.3l0.3,0.8L110.1,103.9z M31.6,103.7l-0.8-0.3l0.3-0.8l0.8,0.3
				L31.6,103.7z M112.9,102.8l-0.3-0.8l0.8-0.3l0.3,0.8L112.9,102.8z M28.9,102.6l-0.8-0.3l0.3-0.8l0.8,0.3L28.9,102.6z
				 M115.6,101.6l-0.4-0.8l0.8-0.4l0.4,0.8L115.6,101.6z M26.1,101.4l-0.8-0.4l0.4-0.8l0.8,0.4L26.1,101.4z M118.2,100.2l-0.4-0.8
				l0.8-0.4l0.4,0.8L118.2,100.2z M23.4,100l-0.8-0.4l0.4-0.8l0.8,0.4L23.4,100z M120.9,98.7l-0.4-0.7l0.7-0.4l0.4,0.7L120.9,98.7z
				 M20.8,98.5L20,98.1l0.4-0.7l0.7,0.4L20.8,98.5z M123.4,97.2l-0.5-0.7l0.7-0.5l0.5,0.7L123.4,97.2z M18.2,97l-0.7-0.5l0.5-0.7
				l0.7,0.5L18.2,97z M125.9,95.4l-0.5-0.7l0.7-0.5l0.5,0.7C126.3,95,126.1,95.2,125.9,95.4L125.9,95.4z M15.8,95.3l-0.7-0.5
				l0.5-0.7l0.7,0.5L15.8,95.3z M128.3,93.5l-0.6-0.7l0.6-0.6l0.6,0.6L128.3,93.5z M13.4,93.4l-0.7-0.5l0.6-0.7l0.7,0.5L13.4,93.4z
				 M130.5,91.4l-0.6-0.6l0.6-0.6l0.6,0.6L130.5,91.4z M11.1,91.4c-0.2-0.2-0.4-0.4-0.6-0.6l0.6-0.6l0.6,0.6L11.1,91.4z M8.9,89.3
				l-0.6-0.6L9,88.1c0.2,0.2,0.4,0.4,0.6,0.6L8.9,89.3z M132.6,89.3l-0.6-0.6h0.1l0.6-0.6l0.6,0.6C133.1,88.9,132.9,89.1,132.6,89.3
				L132.6,89.3z M6.9,87.2l-0.5-0.7L7,86l0.5,0.7L6.9,87.2z M134.6,87l-0.7-0.5l0.5-0.7l0.7,0.5L134.6,87z M5.1,84.7L4.6,84l0.7-0.5
				c0.2,0.2,0.3,0.5,0.5,0.7L5.1,84.7z M136.3,84.5l-0.7-0.4c0.1-0.2,0.3-0.5,0.4-0.7l0.7,0.4C136.6,84,136.4,84.2,136.3,84.5
				L136.3,84.5z M3.5,82.2L3,81.4L3.8,81l0.4,0.7L3.5,82.2z M137.8,81.9l-0.8-0.4c0.1-0.3,0.3-0.5,0.4-0.8l0.8,0.4
				C138.1,81.3,137.9,81.6,137.8,81.9z M2.1,79.4c-0.1-0.3-0.2-0.5-0.3-0.8l0.8-0.3c0.1,0.3,0.2,0.5,0.3,0.8L2.1,79.4z M139,79.1
				l-0.8-0.3c0.1-0.3,0.2-0.5,0.3-0.8l0.8,0.3C139.2,78.5,139.1,78.8,139,79.1z M1.1,76.6c-0.1-0.3-0.2-0.6-0.2-0.8l0.8-0.2
				c0.1,0.3,0.2,0.5,0.2,0.8L1.1,76.6z M139.9,76.2l-0.8-0.2l0.2-0.8l0.8,0.2C140,75.6,139.9,75.9,139.9,76.2z M0.3,73.7
				c0-0.3-0.1-0.6-0.1-0.9L1,72.7c0,0.3,0.1,0.6,0.1,0.8L0.3,73.7z M140.4,73.2l-0.9-0.1c0-0.3,0.1-0.6,0.1-0.8l0.9,0.1
				C140.5,72.6,140.4,72.9,140.4,73.2z M0,70.6c0-0.3,0-0.6,0-0.9h0.8v0.8L0,70.6z M139.7,70.2c0-0.3,0-0.6,0-0.8h0.9
				c0,0.3,0,0.6,0,0.9L139.7,70.2z M0.9,67.7L0,67.6c0-0.3,0-0.6,0.1-0.9L1,66.8C0.9,67.2,0.9,67.4,0.9,67.7z M139.5,67.2
				c0-0.3-0.1-0.6-0.1-0.8l0.8-0.2c0.1,0.3,0.1,0.6,0.1,0.9L139.5,67.2z M1.3,64.8l-0.8-0.2c0.1-0.3,0.1-0.6,0.2-0.8l0.8,0.2
				L1.3,64.8z M138.9,64.4c-0.1-0.3-0.1-0.5-0.2-0.8l0.8-0.3c0.1,0.3,0.2,0.6,0.3,0.8L138.9,64.4z M2.1,61.9l-0.8-0.3
				c0.1-0.3,0.2-0.6,0.3-0.8l0.8,0.3C2.3,61.4,2.2,61.7,2.1,61.9z M137.9,61.6c-0.1-0.3-0.2-0.5-0.3-0.8l0.8-0.3l0.3,0.8L137.9,61.6
				z M3.2,59.2l-0.8-0.4c0.1-0.3,0.3-0.5,0.4-0.8l0.8,0.4C3.4,58.7,3.3,58.9,3.2,59.2z M136.7,58.9l-0.4-0.7l0.7-0.4
				c0.1,0.3,0.3,0.5,0.4,0.8L136.7,58.9z M4.5,56.6l-0.8-0.4l0.5-0.7L5,55.9C4.8,56.2,4.7,56.4,4.5,56.6z M135.2,56.4l-0.5-0.7
				l0.7-0.5l0.5,0.7L135.2,56.4z M6.2,54.2l-0.7-0.5L6,53l0.7,0.5L6.2,54.2z M133.5,54c-0.2-0.2-0.4-0.4-0.5-0.7l0.6-0.6l0.6,0.7
				L133.5,54z M8,51.8l-0.6-0.6c0.2-0.2,0.4-0.4,0.6-0.7l0.6,0.6L8,51.8z M131.5,51.7l-0.2-0.2l-0.4-0.4l0.6-0.6L132,51l0.2,0.2
				L131.5,51.7z M10,49.7l-0.6-0.6l0.6-0.6l0.6,0.6L10,49.7z M129.5,49.7l-0.6-0.6l0.6-0.6l0.6,0.6L129.5,49.7z M127.3,47.7
				l-0.6-0.5l0.5-0.7l0.7,0.5L127.3,47.7z M12.2,47.7L11.6,47l0.7-0.6l0.5,0.7L12.2,47.7z M124.9,45.9l-0.7-0.5l0.5-0.7l0.7,0.5
				L124.9,45.9z M14.4,45.8l-0.5-0.7l0.7-0.5l0.5,0.7L14.4,45.8z M122.5,44.2l-0.7-0.5l0.5-0.7l0.7,0.5L122.5,44.2z M16.8,44.1
				l-0.5-0.7l0.7-0.5l0.5,0.7L16.8,44.1z M120,42.6l-0.7-0.4l0.4-0.7l0.7,0.4L120,42.6z M19.3,42.4l-0.4-0.7l0.7-0.5l0.4,0.7
				L19.3,42.4z M117.4,41.1l-0.8-0.4l0.4-0.8l0.8,0.4L117.4,41.1z M21.9,40.9l-0.4-0.8l0.8-0.4l0.4,0.8L21.9,40.9z M114.8,39.7
				l-0.8-0.4l0.4-0.8l0.8,0.4L114.8,39.7z M24.5,39.6l-0.4-0.8l0.8-0.4l0.4,0.8L24.5,39.6z M112.1,38.5l-0.8-0.3l0.3-0.8l0.8,0.3
				L112.1,38.5z M27.2,38.3l-0.3-0.8l0.8-0.3L28,38L27.2,38.3z M109.3,37.3l-0.8-0.3l0.3-0.8l0.8,0.3L109.3,37.3z M30,37.2l-0.3-0.8
				l0.8-0.3l0.3,0.8L30,37.2z M106.6,36.3l-0.8-0.3l0.3-0.8l0.8,0.3L106.6,36.3z M32.8,36.1l-0.3-0.8l0.8-0.3l0.3,0.8L32.8,36.1z
				 M103.8,35.3L103,35l0.3-0.8l0.8,0.3L103.8,35.3z M35.5,35.2l-0.3-0.8l0.8-0.3l0.3,0.8L35.5,35.2z M100.9,34.4l-0.8-0.2l0.2-0.8
				l0.8,0.2L100.9,34.4z M38.4,34.3l-0.2-0.8l0.8-0.2l0.2,0.8L38.4,34.3z M98.1,33.7l-0.8-0.2l0.2-0.8l0.8,0.2L98.1,33.7z
				 M41.3,33.5L41,32.7l0.8-0.2l0.2,0.8L41.3,33.5z M95.2,33l-0.8-0.2l0.2-0.8l0.8,0.2L95.2,33z M44.2,32.8L44,32l0.8-0.2l0.2,0.8
				L44.2,32.8z M92.3,32.3l-0.8-0.2l0.2-0.8l0.8,0.2L92.3,32.3z M47.1,32.2l-0.2-0.8l0.9-0.2l0.2,0.8L47.1,32.2z M89.3,31.7
				l-0.8-0.1l0.1-0.8l0.8,0.1L89.3,31.7z M50,31.6l-0.1-0.8l0.8-0.1l0.1,0.8L50,31.6z M86.4,31.3l-0.8-0.1l0.1-0.8l0.9,0.1
				L86.4,31.3z M52.9,31.2l-0.1-0.8l0.9-0.1l0.1,0.8L52.9,31.2z M83.4,30.9l-0.8-0.1l0.1-0.8l0.9,0.1L83.4,30.9z M55.9,30.8
				l-0.1-0.8l0.9-0.1l0.1,0.8L55.9,30.8z M80.5,30.6l-0.9-0.1l0.1-0.8l0.9,0.1L80.5,30.6z M58.8,30.5l-0.1-0.8l0.9-0.1l0.1,0.8
				L58.8,30.5z M77.5,30.3h-0.9v-0.8l0.9,0V30.3z M61.8,30.3l-0.1-0.8l0.9,0v0.8L61.8,30.3z M74.6,30.2h-0.9v-0.8h0.9V30.2z
				 M64.8,30.2v-0.8h0.9v0.8H64.8z M71.6,30.1h-0.8v-0.9h0.9L71.6,30.1z M67.8,30.1v-0.8h0.9v0.8H67.8z"/>
			<path fill="#66C6FE" d="M71.8,104.1v-0.4h0.4v0.4L71.8,104.1z M65.3,103.9h-0.4v-0.4h0.4V103.9z M78.7,103.8v-0.4h0.4v0.4H78.7z
				 M58.4,103.3l-0.4-0.1l0.1-0.4l0.4,0.1L58.4,103.3z M85.5,103l-0.1-0.4l0.4-0.1L86,103L85.5,103z M51.6,102.2l-0.4-0.1l0.1-0.4
				l0.4,0.1L51.6,102.2z M92.3,101.8l-0.1-0.4l0.4-0.1l0.1,0.4L92.3,101.8z M44.9,100.6l-0.4-0.1l0.1-0.4l0.4,0.1L44.9,100.6z
				 M99,100l-0.1-0.4l0.4-0.1l0.1,0.4L99,100z M38.4,98.4L38,98.2l0.2-0.4l0.4,0.2L38.4,98.4z M105.5,97.6l-0.2-0.4l0.4-0.2l0.2,0.4
				L105.5,97.6z M32.1,95.6l-0.4-0.2l0.2-0.4l0.4,0.2L32.1,95.6z M111.7,94.6l-0.2-0.4l0.4-0.2l0.2,0.4L111.7,94.6z M26,92.2
				l-0.4-0.2l0.2-0.4l0.3,0.2L26,92.2z M117.4,90.8l-0.3-0.3l0.3-0.3l0.3,0.3L117.4,90.8z M20.6,87.9l-0.3-0.3l0.3-0.3l0.3,0.3
				L20.6,87.9z M122.5,86.2l-0.3-0.3l0,0l0.3-0.3l0.3,0.3L122.5,86.2L122.5,86.2z M15.9,82.8l-0.3-0.3l0.3-0.3l0.3,0.3L15.9,82.8z
				 M126.6,80.5l-0.4-0.2c0.1-0.1,0.1-0.3,0.2-0.4l0.4,0.2C126.7,80.2,126.6,80.3,126.6,80.5L126.6,80.5z M12.7,76.7l-0.2-0.4
				l0.4-0.1l0.2,0.4L12.7,76.7z M128.9,73.9l-0.4-0.1c0-0.1,0.1-0.3,0.1-0.4l0.4,0.1C128.9,73.6,128.9,73.8,128.9,73.9z M11.3,69.9
				v-0.5h0.4v0.1c0,0.1,0,0.2,0,0.4L11.3,69.9z M128.4,67.1c0-0.1,0-0.3-0.1-0.4l0.4-0.1c0,0.1,0.1,0.3,0.1,0.4L128.4,67.1z
				 M12.8,63.2L12.4,63c0-0.1,0.1-0.3,0.1-0.4l0.4,0.1C12.9,62.9,12.9,63,12.8,63.2z M126.2,60.6l-0.2-0.4l0.4-0.2
				c0.1,0.1,0.1,0.3,0.2,0.4L126.2,60.6z M15.9,57.2l-0.3-0.2l0.3-0.4l0.3,0.3L15.9,57.2z M122.3,55.2c-0.1-0.1-0.2-0.2-0.3-0.3
				l0.3-0.3c0.1,0.1,0.2,0.2,0.3,0.3L122.3,55.2z M20.4,52.1l-0.3-0.3l0.3-0.3l0.3,0.3L20.4,52.1z M117.4,50.5l-0.3-0.3l0.3-0.3
				l0.4,0.3L117.4,50.5z M25.8,47.7l-0.2-0.3l0.4-0.2l0.2,0.3L25.8,47.7z M111.7,46.5l-0.4-0.2l0.2-0.4l0.4,0.2L111.7,46.5z
				 M31.7,44.3l-0.2-0.4l0.4-0.2l0.2,0.4L31.7,44.3z M105.6,43.4l-0.4-0.2l0.2-0.4l0.4,0.2L105.6,43.4z M38,41.6l-0.2-0.4l0.4-0.2
				l0.2,0.4L38,41.6z M99.2,40.9l-0.4-0.1l0.1-0.4l0.4,0.1L99.2,40.9z M44.6,39.5l-0.1-0.4l0.4-0.1l0.1,0.4L44.6,39.5z M92.6,39
				l-0.4-0.1l0.1-0.4l0.4,0.1L92.6,39z M51.2,38l-0.1-0.4l0.4-0.1l0.1,0.4L51.2,38z M85.8,37.6l-0.4-0.1l0.1-0.4l0.4,0.1L85.8,37.6z
				 M58,36.9v-0.4h0.4l0.1,0.4L58,36.9z M79,36.8h-0.4v-0.4H79V36.8z M64.9,36.4V36h0.4v0.4L64.9,36.4z M72.2,36.3h-0.4v-0.4h0.4
				L72.2,36.3z"/>
		</g>
		<path fill="#A7F1FE" d="M71.9,102.4v-0.9h0.9v0.8L71.9,102.4z M69.7,102.4h-0.9v-0.8h0.9L69.7,102.4z M74.9,102.4v-0.8h0.9v0.8
			H74.9z M66.7,102.4h-0.9v-0.8h0.9V102.4z M77.9,102.3l-0.1-0.8h0.9l0.1,0.8H77.9z M63.8,102.2l-0.9-0.1l0.1-0.8l0.9,0.1
			L63.8,102.2z M80.9,102l-0.1-0.8l0.9-0.1l0.1,0.8L80.9,102z M60.8,101.9l-0.9-0.1L60,101l0.8,0.1L60.8,101.9z M83.9,101.7
			l-0.1-0.8l0.8-0.1l0.1,0.8L83.9,101.7z M57.8,101.6l-0.9-0.1l0.1-0.8l0.8,0.1L57.8,101.6z M86.8,101.3l-0.1-0.8l0.8-0.1l0.1,0.8
			L86.8,101.3z M54.8,101.2l-0.9-0.1l0.1-0.8l0.8,0.1L54.8,101.2z M89.8,100.9l-0.1-0.8l0.8-0.1l0.1,0.8L89.8,100.9z M51.8,100.8
			l-0.8-0.1l0.1-0.8L52,100L51.8,100.8z M92.7,100.4l-0.2-0.8l0.8-0.2l0.2,0.8L92.7,100.4z M48.9,100.3l-0.8-0.2l0.2-0.8l0.8,0.2
			L48.9,100.3z M95.7,99.8L95.5,99l0.8-0.2l0.2,0.8L95.7,99.8z M45.9,99.7l-0.8-0.2l0.2-0.8l0.8,0.2L45.9,99.7z M98.6,99.1l-0.2-0.8
			l0.8-0.2l0.2,0.8L98.6,99.1z M43,99l-0.8-0.2l0.2-0.8l0.8,0.2L43,99z M101.5,98.4l-0.2-0.8l0.8-0.2l0.2,0.8L101.5,98.4z
			 M40.1,98.2l-0.8-0.2l0.2-0.8l0.8,0.2L40.1,98.2z M104.4,97.5l-0.3-0.8l0.8-0.3l0.3,0.8L104.4,97.5z M37.3,97.3L36.5,97l0.3-0.8
			l0.8,0.3L37.3,97.3z M107.3,96.5l-0.3-0.8l0.8-0.3l0.3,0.8L107.3,96.5z M34.5,96.3l-0.8-0.3l0.3-0.8l0.8,0.3L34.5,96.3z
			 M110.1,95.5l-0.3-0.8l0.8-0.3l0.3,0.8L110.1,95.5z M31.6,95.3L30.8,95l0.3-0.8l0.8,0.3L31.6,95.3z M112.9,94.4l-0.3-0.8l0.8-0.3
			l0.3,0.8L112.9,94.4z M28.9,94.2l-0.8-0.3l0.3-0.8l0.8,0.3L28.9,94.2z M115.6,93.2l-0.4-0.8L116,92l0.4,0.8L115.6,93.2z M26.1,93
			l-0.8-0.4l0.4-0.8l0.8,0.4L26.1,93z M118.3,91.8l-0.4-0.8l0.8-0.4l0.4,0.8L118.3,91.8z M23.5,91.6l-0.8-0.4l0.4-0.8l0.8,0.4
			L23.5,91.6z M120.9,90.3l-0.4-0.7l0.7-0.4l0.4,0.7L120.9,90.3z M20.8,90.2L20,89.7l0.4-0.7l0.7,0.4L20.8,90.2z M123.4,88.7
			l-0.5-0.7l0.7-0.5l0.5,0.7L123.4,88.7z M18.2,88.6l-0.7-0.5l0.5-0.7l0.7,0.5L18.2,88.6z M125.9,87l-0.5-0.7l0.7-0.5l0.5,0.7
			C126.3,86.7,126.1,86.8,125.9,87L125.9,87z M15.8,86.9l-0.7-0.5l0.5-0.7l0.7,0.5L15.8,86.9z M128.2,85.2l-0.6-0.7l0.6-0.6l0.6,0.6
			L128.2,85.2z M13.4,85.1l-0.7-0.5l0.6-0.7l0.7,0.5L13.4,85.1z M130.5,83.2l-0.6-0.6l0.6-0.6l0.6,0.6L130.5,83.2z M11.1,83.2
			c-0.2-0.2-0.4-0.4-0.6-0.6L11,82l0.6,0.6L11.1,83.2z M8.9,81.1l-0.6-0.6l0.6-0.6c0.2,0.2,0.4,0.4,0.6,0.6L8.9,81.1z M132.6,81.1
			l-0.6-0.6h0.1l0.6-0.6l0.6,0.6C133,80.6,132.8,80.8,132.6,81.1L132.6,81.1z M6.9,78.9l-0.5-0.7L7,77.7l0.5,0.7L6.9,78.9z
			 M134.6,78.7l-0.7-0.5l0.5-0.7l0.7,0.5L134.6,78.7z M5.1,76.4l-0.5-0.7l0.7-0.5c0.2,0.2,0.3,0.5,0.5,0.7L5.1,76.4z M136.3,76.2
			l-0.7-0.4c0.1-0.2,0.3-0.5,0.4-0.7l0.7,0.4C136.6,75.6,136.4,75.9,136.3,76.2z M3.5,73.8L3,73l0.8-0.4l0.4,0.7L3.5,73.8z
			 M137.8,73.5l-0.8-0.4l0.4-0.8l0.8,0.4C138.1,73,137.9,73.2,137.8,73.5z M2.1,71.1c-0.1-0.3-0.2-0.5-0.3-0.8L2.6,70
			c0.1,0.3,0.2,0.5,0.3,0.8L2.1,71.1z M139,70.7l-0.8-0.3c0.1-0.3,0.2-0.5,0.3-0.8l0.8,0.3C139.2,70.2,139.1,70.4,139,70.7z
			 M1.1,68.2C1,68,0.9,67.7,0.8,67.4l0.8-0.2c0.1,0.3,0.2,0.5,0.2,0.8L1.1,68.2z M139.9,67.8l-0.8-0.2l0.2-0.8l0.8,0.2
			C140,67.2,139.9,67.5,139.9,67.8z M0.3,65.3c0-0.3-0.1-0.6-0.1-0.9L1,64.3c0,0.3,0.1,0.6,0.1,0.8L0.3,65.3z M140.4,64.8l-0.9-0.1
			c0-0.3,0.1-0.6,0.1-0.8l0.9,0.1C140.5,64.2,140.4,64.5,140.4,64.8z M0,62.3c0-0.3,0-0.6,0-0.9h0.8v0.8L0,62.3z M139.7,61.8
			c0-0.3,0-0.6,0-0.8h0.9c0,0.3,0,0.6,0,0.9L139.7,61.8z M0.9,59.3L0,59.2c0-0.3,0-0.6,0.1-0.9L1,58.5C0.9,58.7,0.9,59,0.9,59.3z
			 M139.5,58.9c-0.1-0.3-0.1-0.6-0.1-0.8l0.8-0.2c0.1,0.3,0.1,0.6,0.1,0.9L139.5,58.9z M1.3,56.4l-0.8-0.2c0.1-0.3,0.1-0.6,0.2-0.8
			l0.8,0.2L1.3,56.4z M138.9,56c-0.1-0.3-0.1-0.5-0.2-0.8l0.8-0.3c0.1,0.3,0.2,0.6,0.3,0.8L138.9,56z M2.1,53.6l-0.8-0.3
			c0.1-0.3,0.2-0.6,0.3-0.8l0.8,0.3C2.3,53,2.2,53.3,2.1,53.6z M137.9,53.2c-0.1-0.3-0.2-0.5-0.3-0.8l0.8-0.3l0.3,0.8L137.9,53.2z
			 M3.2,50.8l-0.8-0.4c0.1-0.3,0.3-0.5,0.4-0.8l0.8,0.4C3.4,50.3,3.3,50.6,3.2,50.8z M136.7,50.5l-0.4-0.7l0.7-0.4
			c0.1,0.3,0.3,0.5,0.4,0.8L136.7,50.5z M4.5,48.2l-0.8-0.4l0.5-0.7L5,47.5C4.8,47.7,4.7,48,4.5,48.2z M135.2,48l-0.5-0.7l0.7-0.5
			l0.5,0.7L135.2,48z M6.2,45.8l-0.7-0.5L6,44.6l0.7,0.5L6.2,45.8z M133.5,45.6c-0.2-0.2-0.4-0.4-0.5-0.7l0.6-0.5l0.6,0.7
			L133.5,45.6z M8,43.5l-0.6-0.5c0.2-0.2,0.4-0.4,0.6-0.7l0.6,0.6L8,43.5z M131.5,43.4l-0.2-0.2l-0.4-0.4l0.6-0.6l0.4,0.4l0.2,0.2
			L131.5,43.4z M10,41.3l-0.6-0.6l0.6-0.6l0.6,0.6L10,41.3z M129.5,41.3l-0.6-0.6l0.6-0.6l0.6,0.6L129.5,41.3z M127.3,39.3l-0.6-0.5
			l0.5-0.7l0.7,0.5L127.3,39.3z M12.2,39.3l-0.6-0.6l0.7-0.6l0.6,0.7L12.2,39.3z M124.9,37.5l-0.7-0.5l0.5-0.7l0.7,0.5L124.9,37.5z
			 M14.4,37.4l-0.5-0.7l0.7-0.5l0.5,0.7L14.4,37.4z M122.5,35.8l-0.7-0.5l0.5-0.7l0.7,0.5L122.5,35.8z M16.8,35.7L16.4,35l0.7-0.5
			l0.5,0.7L16.8,35.7z M120,34.2l-0.7-0.4l0.4-0.7l0.7,0.4L120,34.2z M19.3,34.1l-0.4-0.7l0.7-0.5l0.4,0.7L19.3,34.1z M117.4,32.7
			l-0.8-0.4l0.4-0.8l0.8,0.4L117.4,32.7z M21.9,32.6l-0.4-0.7l0.8-0.4l0.4,0.8L21.9,32.6z M114.8,31.4L114,31l0.4-0.8l0.8,0.4
			L114.8,31.4z M24.5,31.2l-0.4-0.8l0.8-0.4l0.4,0.8L24.5,31.2z M112.1,30.2l-0.8-0.3l0.3-0.8l0.8,0.3L112.1,30.2z M27.2,30
			l-0.3-0.8l0.8-0.3l0.3,0.8L27.2,30z M109.3,29l-0.8-0.3l0.3-0.8l0.8,0.3L109.3,29z M30,28.8L29.6,28l0.8-0.3l0.3,0.8L30,28.8z
			 M106.6,27.9l-0.8-0.3l0.3-0.8l0.8,0.3L106.6,27.9z M32.8,27.7l-0.3-0.8l0.8-0.3l0.3,0.8L32.8,27.7z M103.8,26.9l-0.8-0.3l0.3-0.8
			l0.8,0.3L103.8,26.9z M35.6,26.8L35.3,26l0.8-0.3l0.3,0.8L35.6,26.8z M100.9,26.1l-0.8-0.2l0.2-0.8l0.8,0.2L100.9,26.1z
			 M38.4,25.9l-0.2-0.8l0.8-0.2l0.2,0.8L38.4,25.9z M98.1,25.3l-0.8-0.2l0.2-0.8c0.3,0.1,0.6,0.1,0.8,0.2L98.1,25.3z M41.3,25.2
			L41,24.3l0.8-0.2l0.2,0.8L41.3,25.2z M95.2,24.6l-0.8-0.2l0.2-0.8l0.8,0.2L95.2,24.6z M44.2,24.5L44,23.6l0.8-0.2l0.2,0.8
			L44.2,24.5z M92.3,24l-0.8-0.2l0.2-0.8l0.8,0.2L92.3,24z M47.1,23.8L46.9,23l0.8-0.2l0.2,0.8L47.1,23.8z M89.4,23.4l-0.8-0.1
			l0.1-0.8l0.8,0.1L89.4,23.4z M50,23.3l-0.1-0.8l0.8-0.1l0.1,0.8L50,23.3z M86.4,23l-0.8-0.1l0.1-0.8l0.9,0.1L86.4,23z M53,22.9
			L52.8,22l0.9-0.1l0.1,0.8L53,22.9z M83.5,22.6l-0.8-0.1l0.1-0.8l0.9,0.1L83.5,22.6z M55.9,22.5l-0.1-0.8l0.9-0.1l0.1,0.8
			L55.9,22.5z M80.5,22.3l-0.9-0.1l0.1-0.8l0.9,0.1L80.5,22.3z M58.8,22.2l-0.1-0.8l0.9-0.1l0.1,0.8L58.8,22.2z M77.5,22h-0.9v-0.8
			h0.9V22z M61.8,21.9l-0.1-0.8h0.9v0.8H61.8z M74.5,21.8h-0.9V21h0.9V21.8z M64.8,21.8V21c0.3,0,0.6,0,0.9,0v0.8H64.8z M71.6,21.7
			h-0.9v-0.8h0.9L71.6,21.7z M67.7,21.7v-0.8h0.9v0.9L67.7,21.7z"/>
		<path fill="#66C6FE" d="M71.8,95.7v-0.4h0.4v0.4L71.8,95.7z M65.3,95.5h-0.4v-0.4h0.4V95.5z M78.7,95.4V95h0.4v0.4L78.7,95.4z
			 M58.4,94.9L58,94.9l0.1-0.4l0.4,0.1L58.4,94.9z M85.5,94.7l-0.1-0.4l0.4-0.1l0.1,0.4L85.5,94.7z M51.6,93.8l-0.4-0.1l0.1-0.4
			l0.4,0.1L51.6,93.8z M92.3,93.4L92.2,93l0.4-0.1l0.1,0.4L92.3,93.4z M44.9,92.2L44.5,92l0.1-0.4l0.4,0.1L44.9,92.2z M98.9,91.6
			l-0.1-0.4l0.4-0.1l0.1,0.4L98.9,91.6z M38.3,90l-0.4-0.2l0.2-0.4l0.4,0.2L38.3,90z M105.4,89.2l-0.2-0.4l0.4-0.2l0.2,0.4
			L105.4,89.2z M32,87.2L31.6,87l0.2-0.4l0.4,0.2L32,87.2z M111.6,86.2l-0.2-0.4l0.4-0.2L112,86L111.6,86.2z M26.1,83.8l-0.4-0.2
			l0.2-0.4l0.3,0.2L26.1,83.8z M117.4,82.4l-0.3-0.3l0.3-0.3l0.3,0.3L117.4,82.4z M20.6,79.5l-0.3-0.3l0.3-0.3l0.3,0.3L20.6,79.5z
			 M122.5,77.8l-0.3-0.3l0,0l0.3-0.3l0.3,0.3L122.5,77.8L122.5,77.8z M15.9,74.4l-0.3-0.3l0.3-0.3l0.3,0.3L15.9,74.4z M126.6,72.1
			l-0.4-0.2c0.1-0.1,0.1-0.3,0.2-0.4l0.4,0.2C126.7,71.8,126.6,72,126.6,72.1L126.6,72.1z M12.7,68.3l-0.2-0.4l0.4-0.1l0.2,0.4
			L12.7,68.3z M128.9,65.6l-0.4-0.1c0-0.1,0.1-0.3,0.1-0.4l0.4,0.1C128.9,65.3,128.9,65.4,128.9,65.6z M11.3,61.6v-0.4h0.4v0
			c0,0.1,0,0.2,0,0.3L11.3,61.6z M128.4,58.8c0-0.1,0-0.3-0.1-0.4l0.4-0.1c0,0.1,0.1,0.3,0.1,0.4L128.4,58.8z M12.8,54.9l-0.4-0.1
			l0.1-0.4l0.4,0.1C12.9,54.5,12.9,54.7,12.8,54.9L12.8,54.9z M126.2,52.3c-0.1-0.1-0.1-0.3-0.2-0.4l0.4-0.2
			c0.1,0.1,0.1,0.3,0.2,0.4L126.2,52.3z M15.9,48.7l-0.3-0.2l0.2-0.3l0.3,0.3L15.9,48.7z M122.3,46.7c-0.1-0.1-0.2-0.2-0.3-0.3
			l0.3-0.3c0.1,0.1,0.2,0.2,0.3,0.3L122.3,46.7z M20.4,43.6l-0.3-0.3l0.3-0.3l0.3,0.3L20.4,43.6z M117.4,42.1l-0.3-0.3l0.3-0.3
			l0.4,0.3L117.4,42.1z M25.8,39.4L25.5,39l0.4-0.2l0.2,0.3L25.8,39.4z M111.7,38.2l-0.4-0.2l0.2-0.4l0.4,0.2L111.7,38.2z M31.7,36
			l-0.2-0.4l0.4-0.2l0.2,0.4L31.7,36z M105.6,35.1l-0.4-0.2l0.2-0.4l0.4,0.2L105.6,35.1z M38,33.2l-0.2-0.4c0.1-0.1,0.3-0.1,0.4-0.2
			l0.2,0.4L38,33.2z M99.2,32.6l-0.4-0.1l0.1-0.4l0.4,0.1L99.2,32.6z M44.6,31.2l-0.1-0.4l0.4-0.1L45,31L44.6,31.2z M92.6,30.7
			l-0.4-0.1l0.1-0.4l0.4,0.1L92.6,30.7z M51.2,29.6l-0.1-0.4l0.4-0.1l0.1,0.4L51.2,29.6z M85.8,29.3l-0.4-0.1l0.1-0.4l0.4,0.1
			L85.8,29.3z M58,28.6v-0.4l0.4,0l0.1,0.4L58,28.6z M79,28.4h-0.4V28H79V28.4z M64.9,28v-0.4h0.4V28H64.9z M72.2,28h-0.4v-0.4h0.4
			L72.2,28z"/>
		<g>
			<path fill="#53A5F8" d="M108.4,34.6C108.4,34.6,108.4,34.6,108.4,34.6c0,0.1,0,0.2,0,0.2v0.1v0.1c0,0,0,0.1-0.1,0.1
				c0,0,0,0,0,0.1c0,0,0,0.1-0.1,0.1c0,0,0,0,0,0.1l-0.1,0.2l0,0l-0.1,0.1l-0.1,0.1l-0.1,0.1l-0.1,0.1l-5.8,3.5
				c-0.1,0.1-0.2,0.1-0.3,0.2h-0.1l-0.3,0.1H101l-0.2,0h-0.1h-0.2h-0.1l-0.4,0l0,0h-0.3h-0.7h-0.2h-0.1h-0.2h-0.1l-0.3-0.1h-0.1
				l-0.3-0.1l-0.1,0l-3.9-1.7l-0.4-0.2c-0.5-0.2-0.9-0.7-0.9-1.3v4.5c0.1,0.6,0.4,1.1,0.9,1.3c0.1,0.1,0.2,0.1,0.4,0.2l3.9,1.7h0.1
				h0.1l0.3,0.1l0,0l0.3,0.1h0.1h0.2h0.1H99h0.7h0.3l0,0h0.4l0,0h0.1h0.2h0.1l0.2,0h0.1l0,0l0.3-0.1h0.1l0.3-0.2l5.8-3.5l0,0h0.1
				l0.1-0.1l0.1-0.1L108,40l0,0l0,0l0.1-0.2l0,0l0,0c0,0,0.1-0.1,0.1-0.1c0,0,0,0,0,0l0,0v-0.1v-0.1l0,0c0,0,0-0.1,0-0.1
				c0,0,0,0,0-0.1l0,0c0,0,0-0.1,0-0.1c0,0,0,0,0-0.1v-4.7H108.4z"/>
			<path fill="#A7EAFD" d="M107.4,33.2c1.2,0.7,1.3,1.9,0,2.6l-5.8,3.5c-1.3,0.7-2.8,0.7-4.1,0.2l-3.9-1.7l-0.4-0.2
				c-1-0.6-1.2-1.4-0.6-2.2l3.9-4.3c0.9-1,3.1-1.3,4.7-0.6L107,33C107.2,33,107.3,33.1,107.4,33.2z"/>
			<path fill="#FFFFFF" d="M107.5,35.7l-5.8,3.5c-1.3,0.7-2.8,0.7-4.1,0.2l-3.9-1.7l-0.4-0.2c-0.4-0.2-0.7-0.6-0.9-1
				c-0.2,0.6,0.1,1.2,0.9,1.6l0.4,0.2l3.9,1.7c1.3,0.5,2.9,0.5,4.1-0.2l5.8-3.5c0.8-0.4,1-1,0.9-1.6
				C108.2,35.2,107.9,35.5,107.5,35.7z"/>
			<path fill="#53A5F8" d="M99.6,38.6c-0.5,0-1-0.1-1.4-0.3l-2.8-1.2L95.1,37c-0.4-0.2-0.7-0.5-0.8-0.9c-0.1-0.3,0.1-0.7,0.3-0.9
				l2.8-3.1c1-0.8,2.4-1,3.6-0.5l4.2,1.8l0.3,0.2l0,0c0.6,0.2,0.9,0.9,0.7,1.5c-0.1,0.3-0.4,0.5-0.7,0.7l-4.1,2.5
				C100.8,38.4,100.2,38.6,99.6,38.6z M99.6,31.7c-0.7,0-1.4,0.2-1.9,0.6l-2.8,3.1c-0.2,0.1-0.2,0.4-0.2,0.6
				c0.1,0.3,0.3,0.6,0.6,0.7c0.1,0.1,0.2,0.1,0.3,0.1l2.8,1.2c0.9,0.4,1.9,0.3,2.8-0.1l4.1-2.5c0.4-0.1,0.7-0.6,0.5-1
				c-0.1-0.2-0.3-0.4-0.5-0.5c-0.1-0.1-0.2-0.1-0.3-0.1l-4.2-1.8C100.4,31.8,100,31.7,99.6,31.7z"/>
		</g>
		<g>
			<path fill="#53A5F8" d="M122.8,45L122.8,45c0,0.1,0,0.1,0,0.2l0,0c0,0,0,0.1,0,0.1l0,0c0,0.1,0,0.1-0.1,0.2l0,0
				c0,0.1-0.1,0.1-0.1,0.2l0,0l-0.2,0.2l0,0c0,0.1-0.1,0.1-0.2,0.1l0,0l-0.2,0.1H122c-0.1,0.1-0.2,0.1-0.3,0.2h-0.1l-0.3,0.1l0,0
				l-0.4,0.1l-7.8,1.8l-0.4,0.1h-0.2h-0.3h-0.6c-0.1,0-0.2,0-0.3,0h-0.1c-0.1,0-0.3,0-0.4-0.1h-0.1l-0.3-0.1l-0.2-0.1l-0.2-0.1h-0.1
				c-0.1,0-0.2-0.1-0.3-0.2c-0.2-0.1-0.4-0.2-0.5-0.4l-2.4-2.4c-0.2-0.2-0.3-0.4-0.4-0.7c0-0.1,0-0.2,0-0.2v4.5
				c0,0.4,0.2,0.7,0.4,0.9l2.4,2.4c0.2,0.1,0.3,0.3,0.5,0.4l0.3,0.2h0.1h0.1h0.1c0.1,0,0.1,0,0.2,0.1l0,0c0.1,0,0.2,0,0.3,0.1h0.1
				l0,0l0.3,0.1h1.3h0.1h0.2h0.1l0.2-0.1l7.8-1.8l0.4-0.1h0.1l0.3-0.1l0,0c0.1,0,0.2-0.1,0.3-0.2l0,0l0,0l0.2-0.1l0,0l0.2-0.1l0,0
				l0,0c0.1-0.1,0.1-0.1,0.2-0.2l0,0l0,0l0.1-0.2l0,0l0,0l0.1-0.2l0,0l0,0c0,0,0-0.1,0-0.1l0,0c0,0,0-0.1,0-0.1l0,0l0,0l0,0
				L122.8,45z"/>
			<path fill="#8CE2FE" d="M118.1,40c0.2,0.1,0.4,0.2,0.5,0.4l3.7,3.7c1,1,0.2,2.2-1.6,2.6l-7.8,1.8c-1.2,0.3-2.4,0.1-3.4-0.4
				c-0.2-0.1-0.4-0.2-0.5-0.4l-2.4-2.4c-0.8-0.8-0.5-1.8,0.8-2.4l6.6-3C115.3,39.3,116.8,39.3,118.1,40z"/>
			<path fill="#FFFFFF" d="M120.8,46.7l-7.8,1.8c-1.2,0.3-2.4,0.1-3.4-0.4c-0.2-0.1-0.4-0.2-0.5-0.4l-2.4-2.4
				c-0.2-0.2-0.3-0.4-0.4-0.6c-0.1,0.5,0,0.9,0.4,1.3l2.4,2.4c0.2,0.1,0.3,0.3,0.5,0.4c1.1,0.5,2.3,0.7,3.4,0.4l7.8-1.8
				c1.4-0.3,2.2-1.2,2-2C122.4,46.1,121.6,46.6,120.8,46.7z"/>
		</g>
		<g>
			<path fill="#53A5F8" d="M125.3,64.5h-0.1l-8.4-0.2h-0.3h-0.1h-0.2h-0.1h-0.3h-0.1l-0.3-0.1h-0.1l-0.3-0.1l0,0l-0.1-0.1h-0.1
				l-0.2-0.1c-0.5-0.3-0.9-0.7-1-1.3l-0.5-2.8c0-0.1,0-0.2,0-0.3v-4.5h0.4c0,0,0,0.1,0,0.2l0.5,2.8c0.1,0.4,0.4,0.8,0.8,1l0.2,0.1
				h0.1l0.1,0.1l0,0l0.3,0.1h0.1h0.2h0.1h0.2h0.1h0.1h0.1h0.2h0l8.4,0.2h0.3h0.3l0.1,0.2v-0.2h0.3h0.1h0.2h0.1h0.2h0.1l0.3-0.1
				l0.1,0.2l-0.1-0.2l0.3-0.2h0.1l0.1-0.1l0.1-0.1l0.1-0.1h0.1l0.1-0.1l0.2,0.1l-0.2-0.1c0,0,0.1-0.1,0.1-0.1l0,0v-0.1v-0.1l0,0l0,0
				c0,0,0-0.1,0-0.1V58h0.4v4.5c0,0.1,0,0.1,0,0.1h-0.2h0.2v0.1v0.1h-0.2l0.2,0.1c0,0,0,0,0,0.1c0,0,0,0.1,0,0.1l0,0
				c0,0,0,0.1,0,0.1l0,0l-0.1,0.2c0,0,0,0,0,0.1c0,0.1-0.1,0.1-0.2,0.2l0,0l0,0l-0.1,0.1l-0.1,0.1l-0.1,0.1l-0.1,0.1
				c-0.1,0.1-0.2,0.1-0.3,0.2l0,0l-0.3,0.1h-0.1h-0.2h-0.1h-0.2h-0.1h-0.4H126c-0.1,0-0.2,0-0.3,0L125.3,64.5z M125.8,64.1l0.1,0.2
				L125.8,64.1l0.4,0h0.1h0.1h0.1h0.2h0.1l0.3-0.1l0.1,0.2l-0.1-0.2c0.1,0,0.2-0.1,0.3-0.2h0.1l0.1-0.1l0.1-0.1l0.1-0.1l0.1-0.1
				l0.1-0.1l0,0l0.1-0.1l0,0c0,0,0,0,0-0.1l0.1-0.2c0,0,0-0.1,0-0.1v-0.1l0,0V59l-0.1,0.1l-0.1,0.1l-0.1,0.1l-0.1,0.1l-0.1,0.1
				l-0.1,0.1l-0.3,0.2l0,0c-0.1,0.1-0.2,0.1-0.3,0.1h-0.1l-0.2,0.1h-0.1h-0.2h-0.1h-0.4l0,0h-0.4h-0.3l-8.4-0.2h-0.3h-0.1h-0.2h-0.1
				h-0.3h0l-0.3-0.1h-0.1c-0.1,0-0.2-0.1-0.4-0.1l0,0l-0.1-0.1l-0.1-0.1l-0.2-0.1c-0.5-0.3-0.9-0.7-1-1.3l-0.1-0.6v2
				c0,0.1,0,0.1,0,0.2l0.5,2.8c0.1,0.4,0.4,0.8,0.8,1l0.2,0.1h0.1l0.1,0.1l0.3,0.1h0.1l0.2,0.1h0.1h0.2h0.1h0.2h0.1h0.2l8.4,0.2h0.3
				L125.8,64.1z M128.5,58.1h0.2H128.5z"/>
			<path fill="#81DAFE" d="M125.3,60h-0.1l-8.4-0.2c-0.8,0-1.6-0.2-2.2-0.6c-0.5-0.3-0.9-0.7-1-1.3l-0.5-2.8c0-0.4,0-0.7,0.3-1
				c0.6-0.7,1.4-1.1,2.3-1.2l8.1-1.2c1.1-0.2,2.2,0,3.2,0.5l0,0c0.5,0.3,0.9,0.7,1,1.3l0.8,4.2c0.1,0.4-0.1,0.9-0.4,1.2
				C127.5,59.7,126.4,60.1,125.3,60z M124.5,52.2c-0.2,0-0.5,0-0.8,0l-8.1,1.2c-0.8,0.1-1.5,0.4-2,1c-0.2,0.2-0.2,0.5-0.2,0.7
				l0.5,2.8c0.1,0.4,0.4,0.8,0.8,1c0.6,0.3,1.3,0.5,2,0.5l8.4,0.2c1,0.1,2.1-0.3,2.8-1c0.2-0.2,0.3-0.5,0.3-0.8l-0.8-4.2
				c-0.1-0.4-0.4-0.8-0.8-1l0,0C126,52.3,125.2,52.1,124.5,52.2z"/>
		</g>
		<g>
			<path fill="#53A5F8" d="M104.3,91.1h-0.2h-0.2h-0.1h-0.2h-0.1h-0.2h-0.1l-0.2-0.1h-0.1l-0.4-0.1l-0.1-0.1v-0.2l-0.1,0.2h-0.1
				l-0.2-0.1c-0.2-0.1-0.3-0.2-0.4-0.3l-4.7-4c-0.4-0.3-0.6-0.7-0.6-1.2v-4.8h0.4c0,0.3,0.2,0.7,0.5,0.9l4.7,4
				c0.1,0.1,0.2,0.2,0.4,0.3c0.1,0,0.1,0.1,0.2,0.1h0.1l0.1,0.1l0.3,0.1h0.1h0.2h0.1c0.1,0,0.1,0,0.2,0h0.1h0.2h0.7h0.3h0.1h0.3h0.1
				h0.1h0.1h0.1h0.1l0.2-0.1h0.1l0.3-0.1l5.4-2.8l0.2-0.1l0.1-0.1l0.1-0.1l0.1-0.1l0.1-0.1l0.1-0.1l0,0c0,0,0-0.1,0.1-0.1l0,0
				c0,0,0,0,0-0.1v-0.1l0,0V82c0,0,0-0.1,0-0.1v-0.1l0,0h0.4v4.6v0.1h-0.2h0.2c0,0,0,0.1,0,0.1v0.1h-0.2l0.2,0.1c0,0,0,0.1,0,0.1
				c0,0,0,0.1,0,0.1h-0.2l0.2,0.1v0.1c0,0,0,0,0,0.1l-0.1,0.2c0,0,0,0,0,0.1l-0.1,0.2l0,0h-0.1l-0.1,0.1l-0.1,0.1l-0.1,0.1l0,0
				l-0.2,0.1l-5.4,2.8l-0.3,0.1h-0.1l-0.2,0.1l-0.1-0.2l0.1,0.2H106l-0.2,0.1h-0.1h-0.2h-0.1L105,91H105h-0.4L104.3,91.1z
				 M104.8,90.6l0.1,0.2L104.8,90.6l0.4,0h0.1h0.1h0.1h0.1h0.1l0.1,0.2l-0.1-0.2l0.2-0.1h0.1c0.1,0,0.2-0.1,0.3-0.1l5.4-2.8l0.1-0.1
				l0,0l0.1-0.1l0.1-0.1l0.1-0.1l0,0h0.1l0.1-0.1l0,0c0,0,0.1-0.1,0.1-0.1l0,0c0,0,0,0,0-0.1l0.1-0.2l0,0v-0.1h0.2h-0.2v-4l-0.1,0.1
				l-0.1,0.1l-0.1,0.1l-0.1,0.1l-0.1,0.1l-0.2,0.1l-5.4,2.8l-0.3,0.1H106l-0.2,0.1h-0.1h-0.2h-0.1h-0.2h-0.1h-0.3h-0.1h-0.3h-0.6
				h-0.2h-0.1h-0.2h-0.1h-0.2h-0.1l-0.4-0.1l-0.1-0.1h-0.1l-0.2-0.1c-0.2-0.1-0.3-0.2-0.4-0.3l-4.7-4l-0.2-0.2V85
				c0,0.3,0.2,0.7,0.5,0.9l4.7,4c0.1,0.1,0.2,0.2,0.4,0.3l0.2,0.1h0.1l0.1,0.1l0.3,0.1h0.1h0.2l0,0v0.2l0.1-0.2h0.2h0.1v0.2v-0.2
				h0.2h0.7L104.8,90.6z"/>
			<path fill="#6BD2FE" d="M104.3,86.6c-0.8,0-1.6-0.2-2.4-0.6c-0.2-0.1-0.3-0.2-0.4-0.3l-4.7-4c-0.4-0.3-0.6-0.8-0.6-1.3
				c0.1-0.6,0.6-1.2,1.2-1.4L101,77c1.4-0.6,3-0.6,4.4,0l6.5,3.1l0.2,0.1l0,0c0.6,0.3,1,0.9,1,1.5c-0.1,0.7-0.5,1.3-1.2,1.5
				l-5.4,2.8C105.8,86.4,105.1,86.6,104.3,86.6z M103.2,76.9c-0.7,0-1.4,0.1-2,0.4l-3.6,1.9c-0.5,0.2-0.8,0.6-0.9,1.1
				c0,0.4,0.1,0.8,0.4,1l4.7,4c0.1,0.1,0.2,0.2,0.4,0.3c1.3,0.7,2.8,0.7,4.2,0.1l5.4-2.8c0.5-0.2,0.8-0.6,0.9-1.2
				c-0.1-0.5-0.4-0.9-0.8-1.1l0,0c-0.1,0-0.1-0.1-0.2-0.1l-6.5-3.1C104.6,77.1,103.9,76.9,103.2,76.9z"/>
		</g>
		<g>
			<path fill="#53A5F8" d="M93.8,89.2L93.8,89.2c0,0,0,0.1,0,0.1c0,0,0,0,0,0.1v0.1l0,0c0,0.1,0,0.1-0.1,0.2l0,0l-0.1,0.2l0,0
				c-0.1,0.1-0.1,0.1-0.2,0.2l0,0c0,0-0.1,0.1-0.1,0.1h-0.1l-0.2,0.1l0,0c-0.1,0.1-0.2,0.1-0.3,0.2l0,0l-0.3,0.1h-0.1l-0.2,0.1h-0.1
				l-0.3,0.1l-6.9,1.3c-0.1,0-0.3,0.1-0.4,0.1l0,0h-0.4h-0.5h-0.4h-0.4l-0.3-0.1h-0.1l-0.2-0.1l-0.2-0.1l-0.2-0.1h-0.1l-0.3-0.2
				c-0.4-0.2-0.7-0.6-0.9-1L79,85.8c0-0.1,0-0.2-0.1-0.3v4.7c0,0.1,0,0.2,0,0.3l1.4,4.8c0.2,0.4,0.5,0.8,0.9,1
				c0.1,0.1,0.2,0.1,0.3,0.2c0,0,0.1,0,0.1,0h0.1h0.1l0.2,0.1h0.1h0.1h0.1h0.1h0.3h0.1h0.3h0.7h0.4l0,0c0.1,0,0.2,0,0.4,0l0,0
				l6.9-1.3c0.1,0,0.2,0,0.3-0.1h0.1l0.2-0.1H92l0.3-0.1l0,0l0.3-0.2l0,0c0.1,0,0.1-0.1,0.2-0.1l0,0l0.1-0.1l0,0l0,0
				c0.1-0.1,0.1-0.1,0.2-0.2l0,0l0,0c0,0,0.1-0.1,0.1-0.2l0,0l0,0l0.1-0.2l0,0l0,0v-0.1l0,0l0,0c0,0,0-0.1,0-0.1v-0.1l0,0L93.8,89.2
				z"/>
			<path fill="#73CFFE" d="M89.1,83.4c0.2,0.1,0.4,0.3,0.6,0.5l3.7,4.3c0.9,1,0,2.2-1.9,2.6l-6.9,1.3c-1.1,0.2-2.2,0.1-3.3-0.4
				c-0.4-0.2-0.7-0.6-0.9-1l-1.4-4.8c-0.3-0.9,0.6-1.8,2.1-2.1l4.6-0.9C86.9,82.8,88.1,82.9,89.1,83.4z"/>
			<path fill="#FFFFFF" d="M91.5,90.9l-6.9,1.3c-1.1,0.2-2.2,0.1-3.3-0.4c-0.4-0.2-0.7-0.6-0.9-1l-1.4-4.8c-0.1,0.2-0.1,0.4,0,0.6
				l1.4,4.8c0.2,0.4,0.5,0.8,0.9,1c1,0.5,2.1,0.7,3.3,0.4l6.9-1.3c1.5-0.3,2.4-1.2,2.1-2.1C93.3,90.3,92.5,90.8,91.5,90.9z"/>
		</g>
		<g>
			<path fill="#53A5F8" d="M53.6,34.2L53.6,34.2c0,0.1,0,0.1,0,0.2l0,0c0,0.1,0,0.1-0.1,0.2l0,0l-0.1,0.1l0,0c0,0.1-0.1,0.1-0.1,0.2
				l0,0c-0.1,0.1-0.1,0.1-0.2,0.2l0,0L53,35.2l0,0l-0.2,0.1l0,0c-0.1,0.1-0.2,0.1-0.3,0.2l0,0l-0.4,0.1H52l-4.5,1.5L47,37.3
				l-0.4,0.1h-0.1h-0.4H46h-0.4h-0.1h-0.4h-0.1l-0.4-0.1h-0.1l-0.3-0.1h-0.1L43.8,37c-0.1-0.1-0.2-0.1-0.4-0.2l-4.9-4
				c-0.3-0.2-0.5-0.5-0.6-0.8c0-0.1,0-0.2,0-0.3v4.5c0,0.4,0.2,0.8,0.6,1.1l4.9,4c0.1,0.1,0.2,0.2,0.4,0.2c0.1,0.1,0.2,0.1,0.4,0.2
				h0.1h0.1l0.3,0.1h0.1l0,0l0.3,0.1l0,0h0.1h0.2h0.2h0.1h0.3h0.3h0.2h0.1l0.4-0.1l0,0c0.2,0,0.3-0.1,0.5-0.1l4.3-1.3h0.1l0,0
				c0.1,0,0.2-0.1,0.3-0.1l0,0c0.1,0,0.2-0.1,0.3-0.2l0,0l0.2-0.1l0,0l0.1-0.1l0,0l0,0c0.1-0.1,0.1-0.1,0.2-0.2l0,0
				c0-0.1,0.1-0.1,0.1-0.2l0,0l0,0c0,0,0.1-0.1,0.1-0.1l0,0l0,0c0,0,0-0.1,0-0.2l0,0c0,0,0-0.1,0-0.1l0,0l0,0L53.6,34.2z"/>
			<path fill="#A7EAFD" d="M49.9,28.3c0.3,0.2,0.6,0.4,0.8,0.7l2.7,4.6c0.5,0.9-0.1,1.8-1.6,2.2l-4.3,1.3c-1.2,0.4-2.6,0.2-3.7-0.3
				c-0.1-0.1-0.2-0.1-0.4-0.2l-4.9-4c-1.1-0.9-0.6-2.2,1.1-2.7l6.5-1.9C47.5,27.6,48.8,27.7,49.9,28.3z"/>
			<path fill="#FFFFFF" d="M51.8,35.9l-4.3,1.3c-1.2,0.4-2.6,0.2-3.7-0.3c-0.1-0.1-0.2-0.1-0.4-0.2l-4.9-4c-0.3-0.2-0.4-0.4-0.5-0.7
				c-0.1,0.5,0.1,1.1,0.5,1.4l4.9,4c0.1,0.1,0.2,0.2,0.4,0.2c1.1,0.6,2.5,0.7,3.7,0.3l4.3-1.3c1.3-0.4,1.9-1.2,1.7-2
				C53.2,35.2,52.6,35.7,51.8,35.9z"/>
		</g>
		<g>
			<path fill="#53A5F8" d="M31.5,49.7H31h-0.2h-0.1h-0.3h-0.1L30,49.6l-0.3-0.1l-7.2-2.5L22.4,47h-0.1l-0.1,0
				c-0.1,0-0.2-0.1-0.3-0.2c-0.6-0.3-1-0.9-1-1.5v-4.7h0.4c0.1,0.5,0.4,0.9,0.8,1.1c0.1,0.1,0.2,0.1,0.3,0.1l0,0l0.3,0.1l7.2,2.5
				l0.2,0.1l0.3,0.1h0.1h0.2h0.1H31h0.8H32l0.1,0.2v-0.2h0.3h0.1h0.2h0.1H33h0.1l0.3-0.1l0,0l0.3-0.2l0.2-0.1l3.1-2.2l0.2-0.1l0,0
				c0.1,0,0.1-0.1,0.2-0.2c0-0.1,0.1-0.1,0.1-0.2l0,0c0,0,0-0.1,0-0.1v0c0,0,0-0.1,0-0.1v-0.1c0,0,0-0.1,0-0.1l0,0l0,0h0.4v4.3
				c0,0,0,0.1,0,0.1c0,0,0,0.1,0,0.1c0,0,0,0,0,0.1c0,0,0,0.1,0,0.1l0,0l0,0c0,0,0,0.1-0.1,0.1l0,0c0,0.1-0.1,0.1-0.1,0.2l0,0
				l-0.2,0.2l0,0l0,0l-0.2,0.2l-3.1,2.2L34,48.9c-0.1,0.1-0.2,0.1-0.3,0.2h-0.1l-0.3,0.1h-0.1l-0.2,0.1h-0.1h-0.2h-0.1h-0.4h-0.6
				L31.5,49.7z M31.1,49.2h0.2v0.2v-0.2h0.3v0.2v-0.2h0.3l0.1,0.2v-0.2h0.4h0.1h0.2h0.1l0.2-0.1h0.1c0.1,0,0.2-0.1,0.3-0.1h0.1
				c0.1,0,0.2-0.1,0.3-0.2l0.2-0.1l3-2.2l0.2-0.1l0,0c0.1,0,0.1-0.1,0.1-0.2l0,0c0,0,0.1-0.1,0.1-0.1l0,0l0.1-0.1l0,0V46l0,0
				c0,0,0-0.1,0-0.1V42L37.1,42h-0.1l-0.2,0.2l-3,2.2l-0.2,0.1c-0.1,0.1-0.2,0.1-0.3,0.2h-0.1l-0.4,0.1h-0.1l-0.2,0.1h-0.1h-0.2
				h-0.1l-0.4,0l0,0l-0.1,0.2H31h-0.3h-0.1h-0.2h-0.1L30,45.1L29.8,45l-7.2-2.5c-0.1,0-0.2-0.1-0.3-0.1h-0.1l-0.3-0.2
				c-0.2-0.1-0.4-0.3-0.6-0.5v3.4c0.1,0.5,0.4,0.9,0.8,1.1l0.3,0.1l0.2,0.1l0.2,0.1l7.2,2.5l0.2,0.1l0.3,0.1h0.1h0.2h0.1L31.1,49.2
				L31,49.4L31.1,49.2z"/>
			<path fill="#93EDFE" d="M31.5,45.2c-0.6,0-1.2-0.1-1.7-0.3l-7.2-2.5c-0.2-0.1-0.5-0.2-0.7-0.3c-0.6-0.3-0.9-0.8-1-1.4
				c0-0.6,0.3-1.1,0.8-1.4l4.6-3.3c1.5-0.9,3.4-1,5-0.2l0.1,0.1l5.7,3.6c0.6,0.3,0.9,0.8,1,1.4c0,0.6-0.3,1.1-0.8,1.4l-3,2.2
				C33.5,45,32.5,45.2,31.5,45.2z M28.8,35.7c-0.8,0-1.6,0.2-2.3,0.7l-4.6,3.3c-0.4,0.2-0.6,0.6-0.6,1c0.1,0.5,0.4,0.9,0.8,1.1
				c0.2,0.1,0.4,0.2,0.6,0.3l7.2,2.5c1.3,0.4,2.7,0.3,3.9-0.4l3.1-2.2c0.4-0.2,0.6-0.6,0.6-1c-0.1-0.4-0.4-0.8-0.8-1l-5.7-3.6
				l-0.1,0l0,0C30.3,35.9,29.6,35.7,28.8,35.7L28.8,35.7z"/>
		</g>
		<g>
			<g opacity="0.2">
				<path fill="#53A5F8" d="M27,63c0.8,0.5,1.1,1.1,0.8,1.8l-1.2,2.7c-0.4,0.9-1.9,1.5-3.4,1.4l-8.3-0.6c-0.7,0-1.3-0.2-1.9-0.5
					c-0.8-0.4-1.1-1.1-0.8-1.8l1.9-4.1c0.5-1.1,2.6-1.7,4.3-1.2l7.7,1.9C26.4,62.7,26.7,62.9,27,63z"/>
			</g>
			<g opacity="0.7">
				<path fill="#53A5F8" d="M27,58.2c0.8,0.4,1.1,1.1,0.8,1.8l-1.2,2.7c-0.4,0.9-1.9,1.5-3.4,1.4l-8.3-0.6c-0.7,0-1.3-0.2-1.9-0.5
					c-0.8-0.4-1.1-1.1-0.8-1.8l1.9-4.1c0.5-1.1,2.6-1.7,4.3-1.2l7.7,1.9C26.4,57.8,26.7,58,27,58.2z"/>
			</g>
			<path fill="#53A5F8" d="M28,50.8c0,0.1,0,0.1,0,0.2c0,0,0,0,0,0.1s0,0.1-0.1,0.2L26.7,54c0,0,0,0.1-0.1,0.1l-0.1,0.1l0,0
				c-0.1,0.1-0.1,0.1-0.2,0.2l-0.1,0.1l-0.1,0.1l-0.1,0.1L26,54.7h-0.1l-0.3,0.2h-0.1c-0.1,0.1-0.2,0.1-0.4,0.1l0,0l-0.3,0.1h-0.1
				h-0.2h-0.1l-0.3,0.1h-0.1h-0.3h-0.6L15,54.6h-0.2h-0.2h-0.1h-0.2h-0.1l-0.3-0.1l0,0l-0.3-0.1h-0.1l-0.2-0.1h-0.1l-0.2-0.1
				c-0.5-0.2-0.9-0.7-0.9-1.3v4.5c0.1,0.6,0.5,1.1,1,1.3c0.1,0,0.1,0.1,0.2,0.1h0.1l0.2,0.1h0.1c0,0.1,0.1,0.2,0.1,0.3l0,0l0.3,0.1
				h0.1h0.2h0.1h0.2h0.2l8.3,0.6h0.6h0.3h0.1h0.3h0.1h0.2h0.1l0.3-0.1l0,0c0.1,0,0.2-0.1,0.4-0.1h0.1c0.1,0,0.2-0.1,0.3-0.2l0,0h0.1
				l0.1-0.1h0.1l0.1-0.1l0,0l0,0l0.2-0.2l0,0l0,0l0.1-0.1l0,0c0,0,0-0.1,0-0.1l1.3-2.7V56v-0.1v-0.1l0,0c0-0.1,0-0.1,0-0.2l0,0l0,0
				L28,50.8z"/>
			<path fill="#93EDFE" d="M27,49.5c0.8,0.5,1.1,1.1,0.8,1.8L26.6,54c-0.4,0.9-1.9,1.5-3.4,1.4l-8.3-0.6c-0.7,0-1.3-0.2-1.9-0.5
				c-0.8-0.4-1.1-1.1-0.8-1.8l1.9-4.1c0.5-1.1,2.6-1.7,4.3-1.2l7.7,1.9C26.4,49.2,26.7,49.3,27,49.5z"/>
			<path fill="#FFFFFF" d="M27.9,51.3L26.6,54c-0.4,0.9-1.9,1.5-3.4,1.4l-8.3-0.6c-0.7,0-1.3-0.2-1.9-0.5c-0.4-0.2-0.7-0.6-0.9-1
				c-0.1,0.7,0.2,1.4,0.9,1.6c0.6,0.3,1.2,0.5,1.9,0.5l8.3,0.6c1.6,0.1,3-0.5,3.4-1.4l1.2-2.7c0.1-0.3,0.1-0.5,0.1-0.8
				C27.9,51.1,27.9,51.2,27.9,51.3z"/>
		</g>
		<path opacity="0.4" fill="#73CFFE" enable-background="new    " d="M29.4,73.3c-0.2,0-0.4,0-0.7-0.1l0.1-0.3c0.3,0,0.5,0,0.8,0
			h0.1v0.4L29.4,73.3L29.4,73.3z M27.5,72.8c-0.3-0.2-0.6-0.3-0.8-0.5l0.2-0.3c0.3,0.2,0.5,0.4,0.8,0.5L27.5,72.8z M31.1,72.8
			l-0.2-0.3c0.3-0.2,0.5-0.4,0.7-0.7l0.3,0.2C31.6,72.3,31.3,72.5,31.1,72.8L31.1,72.8z M93.8,71.6l-0.1-0.4
			c0.3-0.1,0.6-0.2,0.9-0.3l0.1,0.3C94.5,71.3,94.2,71.5,93.8,71.6L93.8,71.6z M25.6,71.4c-0.2-0.2-0.4-0.5-0.7-0.7l0.3-0.2
			c0.2,0.3,0.4,0.5,0.7,0.7L25.6,71.4z M92.5,71.4c-0.3-0.1-0.6-0.3-0.9-0.5l0.2-0.3c0.2,0.2,0.5,0.4,0.8,0.5L92.5,71.4z M32.6,71
			l-0.3-0.2c0.2-0.3,0.3-0.5,0.5-0.8l0.3,0.2C32.9,70.4,32.8,70.7,32.6,71L32.6,71z M95.9,70.4l-0.3-0.3c0.2-0.2,0.4-0.5,0.6-0.7
			l0.3,0.2C96.3,69.9,96.1,70.1,95.9,70.4L95.9,70.4z M77.1,70l-0.1-0.3c0.3-0.1,0.5-0.3,0.7-0.5l0.3,0.3
			C77.7,69.7,77.4,69.9,77.1,70L77.1,70z M75.7,70c-0.3-0.1-0.6-0.3-0.9-0.4l0.2-0.3c0.3,0.2,0.5,0.3,0.8,0.4L75.7,70z M90.6,70
			c-0.2-0.2-0.4-0.5-0.7-0.8l0.3-0.2c0.2,0.3,0.4,0.5,0.6,0.7L90.6,70z M24.1,69.7l-0.6-0.8l0.3-0.2c0.2,0.3,0.4,0.5,0.6,0.8
			L24.1,69.7z M33.7,69l-0.3-0.2c0.1-0.3,0.3-0.6,0.4-0.9l0.3,0.2L33.7,69z M73.8,68.7c-0.2-0.2-0.4-0.5-0.6-0.8l0.3-0.2
			c0.2,0.3,0.4,0.5,0.6,0.8L73.8,68.7z M97.3,68.6L97,68.4c0.2-0.3,0.3-0.6,0.5-0.8l0.3,0.2C97.6,67.9,97.5,68.2,97.3,68.6
			L97.3,68.6z M78.7,68.4l-0.3-0.2c0.1-0.2,0.3-0.5,0.5-0.8l0.3,0.2C79,67.8,78.9,68,78.7,68.4L78.7,68.4z M89.1,68.2
			c-0.2-0.3-0.4-0.5-0.6-0.8l0.3-0.2l0.6,0.8L89.1,68.2z M22.8,67.7l-0.5-0.8l0.3-0.2l0.5,0.8L22.8,67.7z M34.6,66.8l-0.3-0.2
			l0.4-0.9l0.3,0.2L34.6,66.8z M1.1,66.8l-0.3-0.2c0,0,0.2-0.3,0.4-0.9l0.3,0.2C1.2,66.5,1.1,66.8,1.1,66.8L1.1,66.8z M72.4,66.7
			c-0.1-0.3-0.3-0.6-0.4-0.9l0.3-0.2c0.1,0.3,0.3,0.6,0.4,0.9L72.4,66.7z M98.4,66.5l-0.3-0.2l0.4-0.9l0.3,0.2
			C98.7,65.9,98.6,66.2,98.4,66.5L98.4,66.5z M87.8,66.3l-0.6-0.8l0.3-0.2l0.6,0.8L87.8,66.3z M79.8,66.3l-0.3-0.2l0.1-0.3l0.3-0.6
			l0.3,0.2c-0.1,0.2-0.2,0.4-0.3,0.6L79.8,66.3z M21.6,65.8L21,65l0.3-0.2c0.2,0.3,0.3,0.6,0.5,0.8L21.6,65.8z M2.2,64.8l-0.3-0.2
			c0.1-0.3,0.3-0.6,0.5-0.9L2.6,64L2.2,64.8z M35.6,64.8l-0.3-0.2c0.1-0.3,0.3-0.6,0.4-0.9l0.3,0.2c-0.2,0.2-0.3,0.5-0.4,0.8
			L35.6,64.8z M71.5,64.7c-0.1-0.3-0.3-0.6-0.4-0.9l0.3-0.1c0.1,0.3,0.2,0.6,0.4,0.9L71.5,64.7z M86.4,64.6
			c-0.2-0.3-0.4-0.5-0.6-0.7l0.3-0.2c0.2,0.2,0.4,0.5,0.6,0.7L86.4,64.6z M99.4,64.5L99,64.4l0.4-0.9l0.3,0.2L99.4,64.5z M80.8,64.2
			L80.5,64c0.2-0.3,0.4-0.6,0.5-0.8l0.3,0.2C81.1,63.6,80.9,63.9,80.8,64.2z M20.3,63.8l-0.5-0.8l0.3-0.2l0.5,0.8L20.3,63.8z
			 M46.6,63.6c-0.3-0.1-0.6-0.2-0.9-0.4l0.1-0.3c0.3,0.1,0.6,0.3,0.9,0.3L46.6,63.6z M47.9,63.5l-0.1-0.3c0.3-0.1,0.6-0.3,0.8-0.4
			l0.2,0.3C48.6,63.3,48.3,63.4,47.9,63.5L47.9,63.5z M84.8,62.8c-0.2-0.2-0.5-0.4-0.8-0.5l0.2-0.3c0.3,0.2,0.6,0.3,0.9,0.6
			L84.8,62.8z M3.3,62.8l-0.3-0.2l0.5-0.8l0.3,0.2L3.3,62.8z M36.6,62.7l-0.3-0.2c0.2-0.3,0.3-0.6,0.5-0.8l0.3,0.2
			C36.9,62.2,36.8,62.4,36.6,62.7L36.6,62.7z M44.4,62.7c-0.3-0.2-0.5-0.4-0.8-0.6l0.2-0.3l0.8,0.5L44.4,62.7z M70.6,62.5
			c-0.1-0.3-0.2-0.6-0.3-0.9l0.3-0.1c0.1,0.3,0.2,0.6,0.3,0.9L70.6,62.5z M82.1,62.5l-0.2-0.3c0.3-0.2,0.6-0.4,1-0.4v0.4
			C82.6,62.1,82.3,62.2,82.1,62.5L82.1,62.5z M100.4,62.4l-0.3-0.2c0.1-0.3,0.3-0.6,0.4-0.9l0.3,0.2L100.4,62.4z M49.9,62.3L49.6,62
			c0.2-0.2,0.4-0.5,0.6-0.7l0.3,0.2C50.3,61.8,50.1,62,49.9,62.3L49.9,62.3z M19.1,61.9c-0.2-0.3-0.3-0.6-0.5-0.8l0.3-0.2
			c0.2,0.3,0.3,0.6,0.5,0.8L19.1,61.9z M137.3,61.5l-0.2-0.1l-0.2-0.3l0.3-0.2l0.2,0.3l-0.1,0.1l0,0L137.3,61.5z M42.6,61.4
			l-0.8-0.5l0.2-0.3l0.8,0.5L42.6,61.4z M37.9,60.9l-0.3-0.3c0.2-0.3,0.5-0.5,0.8-0.7l0.2,0.3C38.3,60.5,38.1,60.6,37.9,60.9
			L37.9,60.9z M4.4,60.9l-0.3-0.2c0.2-0.3,0.3-0.6,0.5-0.8L5,60.1c-0.2,0.2-0.3,0.4-0.5,0.7L4.4,60.9z M112.6,60.9
			c-0.3-0.1-0.6-0.3-0.9-0.4l0.2-0.3c0.3,0.2,0.6,0.3,0.9,0.4L112.6,60.9z M113.9,60.9l-0.1-0.3c0.3-0.1,0.5-0.3,0.8-0.5l0.3,0.3
			c-0.3,0.2-0.5,0.3-0.8,0.4L113.9,60.9z M51.3,60.6L51,60.4c0.2-0.3,0.4-0.5,0.5-0.8l0.3,0.2c-0.2,0.1-0.3,0.4-0.5,0.7L51.3,60.6z
			 M101.4,60.4l-0.3-0.3l0.5-0.9l0.3,0.2c-0.2,0.2-0.3,0.5-0.5,0.8L101.4,60.4z M69.9,60.4l-0.3-0.9l0.3-0.1
			c0.1,0.3,0.2,0.6,0.3,0.9L69.9,60.4z M40.6,60.4c-0.3-0.1-0.6-0.2-0.9-0.3v-0.4c0.3,0,0.7,0.1,1,0.3L40.6,60.4z M135.9,60.3
			c-0.2-0.2-0.4-0.5-0.6-0.7l0.3-0.2l0.6,0.7L135.9,60.3z M17.9,60.2c-0.2-0.3-0.4-0.5-0.5-0.8l0.3-0.2c0.2,0.3,0.4,0.6,0.6,0.8
			L17.9,60.2z M110.6,59.8c-0.3-0.2-0.5-0.4-0.8-0.6l0.2-0.3c0.3,0.2,0.5,0.4,0.8,0.6L110.6,59.8z M115.7,59.3l-0.3-0.2
			c0.2-0.2,0.3-0.5,0.5-0.8l0.3,0.2c-0.2,0.1-0.4,0.4-0.5,0.7L115.7,59.3z M5.8,58.9l-0.3-0.2c0.2-0.3,0.4-0.5,0.6-0.8l0.3,0.2
			C6.1,58.4,5.9,58.6,5.8,58.9z M52.5,58.4l-0.3-0.2c0.2-0.3,0.3-0.6,0.5-0.9l0.3,0.2C52.8,57.8,52.6,58.2,52.5,58.4L52.5,58.4z
			 M134.5,58.4l-0.7-0.7l0.3-0.3l0.7,0.7L134.5,58.4z M102.6,58.3l-0.3-0.2c0.2-0.3,0.4-0.6,0.6-0.8l0.3,0.2
			C103,57.8,102.8,58.1,102.6,58.3L102.6,58.3z M108.8,58.2l-0.8-0.6l0.2-0.3c0.3,0.2,0.5,0.4,0.8,0.6L108.8,58.2z M16.6,58.1
			c-0.2-0.3-0.4-0.5-0.6-0.8l0.3-0.2c0.2,0.3,0.4,0.5,0.6,0.8L16.6,58.1z M69.3,58.1l-0.3-1l0.4-0.1l0.3,1L69.3,58.1z M7.1,57.1
			l-0.3-0.2c0.2-0.3,0.4-0.5,0.7-0.7l0.3,0.2C7.5,56.6,7.3,56.8,7.1,57.1L7.1,57.1z M116.7,57l-0.3-0.1c0.1-0.3,0.3-0.6,0.4-0.9
			l0.3,0.1C117,56.4,116.9,56.7,116.7,57L116.7,57z M107,56.8c-0.3-0.2-0.6-0.3-0.9-0.4l0.1-0.3c0.3,0.1,0.6,0.3,0.9,0.4L107,56.8z
			 M132.9,56.8c-0.2-0.2-0.4-0.5-0.7-0.7l0.3-0.3l0.7,0.7L132.9,56.8z M104.1,56.8l-0.2-0.3c0.3-0.2,0.6-0.4,0.9-0.5l0.1,0.3
			C104.7,56.4,104.4,56.6,104.1,56.8L104.1,56.8z M53.6,56.4l-0.3-0.2l0.4-0.9l0.3,0.2C53.9,55.8,53.7,56.1,53.6,56.4L53.6,56.4z
			 M15.2,56.3c-0.2-0.2-0.5-0.5-0.7-0.7l0.2-0.3c0.2,0.2,0.5,0.4,0.7,0.7L15.2,56.3z M68.7,55.9c-0.1-0.3-0.2-0.6-0.3-0.9l0.4-0.1
			c0.1,0.3,0.2,0.6,0.3,0.9L68.7,55.9z M8.7,55.5l-0.2-0.3c0.2-0.2,0.5-0.4,0.8-0.6l0.2,0.3C9.2,55,8.9,55.2,8.7,55.5L8.7,55.5z
			 M131.2,55.2l-0.7-0.7l0.3-0.3l0.7,0.7L131.2,55.2z M117.6,54.9l-0.3-0.1v-0.1c0.1-0.3,0.2-0.6,0.3-0.9l0.3,0.1
			C117.8,54.3,117.7,54.6,117.6,54.9L117.6,54.9z M13.5,54.9c-0.3-0.2-0.5-0.3-0.8-0.4l0.1-0.3c0.3,0.1,0.6,0.3,0.9,0.5L13.5,54.9z
			 M54.6,54.3l-0.3-0.2l0.4-0.9l0.3,0.2L54.6,54.3z M10.6,54.3l-0.1-0.3c0.2-0.1,0.5-0.1,0.7-0.1c0.1,0,0.2,0,0.3,0v0.3h-0.3
			C11,54.2,10.7,54.2,10.6,54.3L10.6,54.3z M68,53.7l-0.3-0.9l0.3-0.1c0.1,0.3,0.2,0.6,0.3,0.9L68,53.7z M129.6,53.6
			c-0.2-0.2-0.5-0.4-0.7-0.6l0.2-0.3l0.7,0.6L129.6,53.6z M118.5,52.8l-0.3-0.1c0.1-0.3,0.3-0.6,0.4-0.9l0.3,0.2
			C118.7,52.2,118.6,52.5,118.5,52.8L118.5,52.8z M55.6,52.3l-0.3-0.2c0.1-0.3,0.3-0.6,0.4-0.9l0.3,0.2
			C55.9,51.7,55.7,51.9,55.6,52.3L55.6,52.3z M127.8,52.2l-0.8-0.6l0.2-0.3c0.3,0.2,0.5,0.4,0.8,0.6L127.8,52.2z M67.2,51.5
			c-0.1-0.3-0.2-0.6-0.4-0.9l0.3-0.1l0.4,0.9L67.2,51.5z M125.9,50.8c-0.3-0.2-0.6-0.4-0.8-0.5l0.2-0.3c0.3,0.2,0.6,0.3,0.8,0.5
			L125.9,50.8z M119.4,50.8l-0.3-0.2c0.2-0.3,0.4-0.6,0.6-0.8L120,50C119.8,50.3,119.6,50.5,119.4,50.8L119.4,50.8z M56.6,50.3
			l-0.3-0.2c0.2-0.3,0.3-0.6,0.5-0.9l0.3,0.2L56.6,50.3z M124,49.7c-0.3-0.1-0.6-0.2-0.9-0.3l0.1-0.3c0.3,0.1,0.6,0.2,0.9,0.4
			L124,49.7z M66.4,49.4c-0.1-0.3-0.3-0.6-0.4-0.9l0.3-0.2c0.1,0.3,0.3,0.6,0.4,0.9L66.4,49.4z M120.9,49.3l-0.1-0.3
			c0.1-0.1,0.3-0.1,0.5-0.1c0.2,0,0.3,0,0.5,0h0.1v0.4l0,0c-0.1,0-0.3,0-0.4,0C121.3,49.2,121.1,49.2,120.9,49.3L120.9,49.3z
			 M57.8,48.3l-0.3-0.2c0.2-0.3,0.4-0.6,0.6-0.8l0.3,0.2C58.2,47.7,58,48,57.8,48.3z M65.3,47.4c-0.2-0.3-0.4-0.5-0.6-0.8l0.3-0.2
			c0.2,0.3,0.4,0.5,0.6,0.8L65.3,47.4z M59.2,46.5l-0.3-0.3c0.2-0.2,0.5-0.5,0.8-0.7l0.2,0.3C59.6,46,59.4,46.2,59.2,46.5L59.2,46.5
			z M63.8,45.7c-0.2-0.2-0.5-0.3-0.8-0.5l0.1-0.3c0.3,0.1,0.6,0.3,0.9,0.5L63.8,45.7z M60.9,45.2l-0.1-0.3c0.3-0.1,0.7-0.2,1-0.2V45
			C61.5,45.1,61.2,45.1,60.9,45.2L60.9,45.2z"/>
	</g>
</g>
</svg>
