<svg xmlns="http://www.w3.org/2000/svg" xmlns:xlink="http://www.w3.org/1999/xlink" viewBox="0 0 241.1 133.95"><defs><linearGradient id="铃琨眄_沭噤桢眚_114" x1="95.22" y1="58.55" x2="198.31" y2="58.55" gradientUnits="userSpaceOnUse"><stop offset="0" stop-color="#2a023f"/><stop offset="0.1" stop-color="#2c0845"/><stop offset="0.24" stop-color="#321a54"/><stop offset="0.41" stop-color="#3d366e"/><stop offset="0.59" stop-color="#4b5e91"/><stop offset="0.78" stop-color="#5d91bf"/><stop offset="0.98" stop-color="#73cff6"/><stop offset="1" stop-color="#76d6fd"/></linearGradient><linearGradient id="铃琨眄_沭噤桢眚_114-2" x1="95.2" y1="92.22" x2="180.17" y2="92.22" xlink:href="#铃琨眄_沭噤桢眚_114"/><linearGradient id="铃琨眄_沭噤桢眚_10" x1="1695.13" y1="92.22" x2="1780.11" y2="92.22" gradientTransform="matrix(-1, 0, 0, 1, 1911.82, 0)" gradientUnits="userSpaceOnUse"><stop offset="0" stop-color="#2a023f"/><stop offset="0.13" stop-color="#2b0745"/><stop offset="0.3" stop-color="#2c1357"/><stop offset="0.5" stop-color="#2f2873"/><stop offset="0.72" stop-color="#32469b"/><stop offset="0.95" stop-color="#376bcd"/><stop offset="1" stop-color="#3874da"/></linearGradient></defs><g style="isolation:isolate"><g id="图层_1" data-name="图层 1"><g opacity="0.3" style="mix-blend-mode:lighten"><path d="M198.31,44.29c-40.88-20.9-101.56-6-103,25.32l0,12.91C97.39,51,158.06,36.1,198.27,57.19l0-12.9Z" fill="url(#铃琨眄_沭噤桢眚_114)"/></g><path d="M125.59,62.13l-1.22.68c-5.15,3-8.56,6.62-10.24,10.44l0-8.33c1.67-3.82,5.08-7.44,10.23-10.44.4-.23.81-.46,1.23-.68l0,8.33Z" fill="#4b95fa" opacity="0.4"/><path d="M152.46,56.13a62,62,0,0,0-21,3.42l0-8.33a62,62,0,0,1,21-3.41l0,8.32Z" fill="#4b95fa" opacity="0.4"/><path d="M179.27,62.38a53.94,53.94,0,0,0-19.81-5.86l0-8.32a53.69,53.69,0,0,1,19.81,5.85l0,8.33Z" fill="#4b95fa" opacity="0.4"/><path d="M156.32,88.23l-.8,0,0-.8.79,0Zm1.6,0,0-.8.78,0,0,.8Zm-4-.13-.8-.09.1-.79.78.08Zm6.4,0-.09-.79.78-.09.1.79Zm-8.78-.3-.79-.15.16-.78.77.14Zm11.15,0-.14-.79.77-.15.16.78Zm-13.5-.48-.77-.22.22-.77.75.22ZM165,87.18l-.21-.77.75-.22.23.76Zm-18.15-.68-.75-.29.3-.74.73.29Zm20.44-.08-.28-.75.72-.29.31.74Zm-22.65-.89-.72-.38.39-.7c.22.13.45.25.68.37Zm24.85-.11-.36-.71c.23-.12.46-.24.68-.37l.47-.29.42.68-.5.3Zm-26.94-1.14-.65-.48.48-.63.62.46Zm29.48-.49-.48-.63c.2-.16.4-.32.59-.49l.52.6C172.5,83.45,172.29,83.62,172.07,83.79Zm-31.36-1.08c-.19-.2-.38-.4-.55-.61l.6-.52c.16.19.33.38.51.56Zm33.14-.62-.6-.52c.17-.19.32-.4.47-.6l.64.47C174.2,81.66,174,81.88,173.85,82.09Zm-34.66-1.34c-.14-.25-.27-.5-.38-.75l.72-.33c.1.22.22.45.34.67Zm36-.76-.72-.33c.1-.23.19-.47.27-.7l.75.25C175.41,79.47,175.31,79.74,175.2,80ZM138.29,78.4a6.07,6.07,0,0,1-.12-.84l.79-.06c0,.25.06.5.1.74Zm37.54-.85-.79-.06c0-.14,0-.28,0-.42s0-.22,0-.32l.79,0c0,.12,0,.25,0,.37S175.84,77.39,175.83,77.55ZM139,76l-.78-.14a7.54,7.54,0,0,1,.2-.82l.76.23C139.15,75.52,139.09,75.77,139,76Zm35.74-.74c-.08-.23-.16-.47-.26-.7l.72-.32a7.47,7.47,0,0,1,.29.79Zm-35-1.37-.69-.39a7.56,7.56,0,0,1,.44-.71l.65.46A6.18,6.18,0,0,0,139.82,73.9Zm34-.65c-.14-.2-.29-.4-.46-.61l.61-.51c.18.22.35.44.5.66Zm-32.58-1.17-.57-.56.59-.57.53.6C141.55,71.72,141.36,71.9,141.19,72.08Zm31.06-.54c-.19-.17-.38-.34-.59-.5l.49-.62c.22.17.43.34.63.52Zm-29.31-1-.45-.65c.22-.15.44-.31.67-.45l.42.67Zm27.47-.43-.56-.34-.11-.06.4-.7.1.06.59.36Zm-25.48-.77-.36-.71c.23-.13.48-.25.72-.36l.33.72ZM168.37,69l-.71-.32L168,68c.25.1.5.21.74.33Zm-21.31-.6-.28-.75c.25-.09.5-.19.75-.27l.26.75Zm19.14-.27-.74-.24.23-.76c.26.07.51.16.77.24Zm-16.92-.45-.21-.78.78-.2.18.78Zm14.68-.2-.76-.17.16-.78.78.17Zm-12.4-.32-.14-.79.79-.13.12.79Zm10.1-.13-.77-.11.1-.79.79.11Zm-7.79-.2-.07-.79.79-.07.06.79Zm5.46-.07-.77-.05,0-.79.8,0Zm-3.12-.07,0-.8h.8v.8Z" fill="#76d6fd"/><ellipse cx="157" cy="77.07" rx="18.45" ry="10.76" fill="#53a5f8" opacity="0.1"/><path d="M157,72.12A26.6,26.6,0,0,1,143.85,69c-3.55-2.07-5.51-4.84-5.51-7.8s2-5.72,5.51-7.79c7.25-4.23,19.05-4.23,26.3,0,3.55,2.07,5.51,4.84,5.51,7.79s-2,5.73-5.51,7.8A26.6,26.6,0,0,1,157,72.12Zm0-21.51a26.25,26.25,0,0,0-12.94,3.12c-3.41,2-5.3,4.63-5.3,7.42s1.89,5.44,5.3,7.43c7.14,4.16,18.74,4.16,25.88,0h0c3.41-2,5.3-4.63,5.3-7.43s-1.89-5.43-5.3-7.42A26.28,26.28,0,0,0,157,50.61Z" fill="#53a5f8"/><path d="M157,61.36a26.74,26.74,0,0,1-13.15-3.17c-3.55-2.08-5.51-4.85-5.51-7.8s2-5.72,5.51-7.8c7.25-4.23,19.05-4.23,26.3,0,3.55,2.08,5.51,4.85,5.51,7.8s-2,5.72-5.51,7.8h0A26.71,26.71,0,0,1,157,61.36Zm0-21.52A26.25,26.25,0,0,0,144.06,43c-3.41,2-5.3,4.63-5.3,7.43s1.89,5.43,5.3,7.43c7.14,4.16,18.74,4.16,25.88,0h0c3.41-2,5.3-4.63,5.3-7.43S173.35,45,169.94,43A26.28,26.28,0,0,0,157,39.84Z" fill="#53a5f8" opacity="0.5"/><path d="M157,50.6a26.64,26.64,0,0,1-13.15-3.18c-3.55-2.07-5.51-4.84-5.51-7.79s2-5.73,5.51-7.8c7.25-4.23,19.05-4.23,26.3,0,3.55,2.07,5.51,4.84,5.51,7.8s-2,5.72-5.51,7.79h0A26.61,26.61,0,0,1,157,50.6Zm0-21.52a26.25,26.25,0,0,0-12.94,3.12c-3.41,2-5.3,4.63-5.3,7.43s1.89,5.43,5.3,7.42c7.14,4.16,18.74,4.16,25.88,0h0c3.41-2,5.3-4.63,5.3-7.42s-1.89-5.44-5.3-7.43A26.25,26.25,0,0,0,157,29.08Z" fill="#53a5f8" opacity="0.3"/><path d="M157,39.83a26.63,26.63,0,0,1-13.15-3.17c-3.55-2.07-5.51-4.84-5.51-7.8s2-5.72,5.51-7.79c7.25-4.24,19.05-4.24,26.3,0,3.55,2.07,5.51,4.84,5.51,7.79s-2,5.73-5.51,7.8A26.71,26.71,0,0,1,157,39.83Zm0-21.52a26.26,26.26,0,0,0-12.94,3.13c-3.41,2-5.3,4.63-5.3,7.42s1.89,5.43,5.3,7.43c7.14,4.16,18.74,4.16,25.88,0h0c3.41-2,5.3-4.63,5.3-7.43s-1.89-5.43-5.3-7.42A26.28,26.28,0,0,0,157,18.31Z" fill="#53a5f8" opacity="0.1"/><path d="M140.22,58.1a.92.92,0,1,1-.92-.92A.92.92,0,0,1,140.22,58.1Z" fill="#6bd2fe"/><path d="M168.75,52.49a.91.91,0,1,1-.91-.93A.92.92,0,0,1,168.75,52.49Z" fill="#6bd2fe"/><path d="M159.32,39.63a.92.92,0,1,1-.92-.93A.92.92,0,0,1,159.32,39.63Z" fill="#6bd2fe"/><path d="M145,32a.92.92,0,1,1-.91-.92A.92.92,0,0,1,145,32Z" fill="#6bd2fe"/><path d="M166.68,30.29a.91.91,0,1,1-.91-.92A.92.92,0,0,1,166.68,30.29Z" fill="#6bd2fe"/><ellipse cx="173.49" cy="24.06" rx="0.91" ry="0.92" fill="#6bd2fe"/><path d="M156.09,18.1a.91.91,0,1,1-.91-.92A.91.91,0,0,1,156.09,18.1Z" fill="#6bd2fe"/><g opacity="0.15" style="mix-blend-mode:lighten"><path d="M95.23,68.09c1.77,28.11,48.19,41.49,84.94,32.72l0,12.9C134.77,123.64,95.51,104,95.2,81l0-12.91Z" fill="url(#铃琨眄_沭噤桢眚_114-2)"/></g><g opacity="0.15" style="mix-blend-mode:lighten"><path d="M216.65,68.09c-1.77,28.11-48.19,41.49-84.94,32.72l0,12.9c45.37,9.93,84.63-9.69,84.94-32.71l0-12.91Z" fill="url(#铃琨眄_沭噤桢眚_10)"/></g><g opacity="0.2"><path d="M121.58,93.14a33,33,0,0,0,3,1.92,50,50,0,0,0,15.56,5.54l0-8.33a49.83,49.83,0,0,1-15.56-5.54,33.55,33.55,0,0,1-3-1.91l0,8.32Z" fill="#81dafe"/><path d="M113,70.5a15.88,15.88,0,0,0,4.64,10.79l0,8.32a15.85,15.85,0,0,1-4.63-10.79l0-8.32Z" fill="#81dafe"/></g><g opacity="0.2"><path d="M159.09,125.58v-.85h.86v.85Zm-2.14,0h-.86l0-.85H157Zm5.14,0,0-.85.85,0,0,.85Zm-8.14,0-.85,0,0-.85.85,0Zm11.13-.11-.05-.85.85-.05.06.85Zm-14.12,0-.86-.06.06-.84.85,0Zm17.11-.16-.07-.85.85-.07.08.85Zm-20.1-.06-.85-.08.08-.85.84.08Zm23.09-.22-.09-.84.84-.1.1.85ZM145,124.83l-.85-.1.1-.84.84.1Zm29-.27-.11-.85.84-.11.12.84Zm-32-.1-.85-.12.13-.84.84.12Zm35-.33-.13-.84.84-.14.14.84ZM139.05,124l-.84-.14.14-.84.84.14Zm40.91-.39-.16-.84.84-.16.16.83Zm-43.86-.14-.84-.16.17-.84.83.17Zm46.8-.46-.18-.83.83-.18.19.83Zm-49.74-.14-.83-.19.19-.83.83.19Zm52.67-.53-.21-.83.83-.21.21.83Zm-55.58-.16-.83-.22.21-.82.83.21Zm58.48-.6-.23-.82.82-.23.23.81Zm-61.38-.18-.82-.23.24-.82.81.23Zm64.26-.67-.26-.81.81-.26.26.81Zm-67.13-.19-.81-.26.26-.81.81.26Zm70-.75-.28-.81.8-.28.29.8Zm-72.81-.2-.81-.29.29-.8.8.29Zm75.63-.84L197,118l.79-.31.32.79Zm-78.44-.2-.8-.32.32-.79.79.31Zm81.22-.94-.34-.78.78-.34.34.77Zm-84-.21-.78-.34.34-.78.78.34Zm86.73-1-.37-.76.77-.38.37.77Zm-89.46-.2-.77-.37.38-.76.76.36ZM205.46,115l-.4-.75.75-.41.41.75Zm-94.82-.19-.76-.41.41-.75.75.4Zm97.44-1.28-.43-.74.72-.43.45.72ZM108,113.37l-.74-.44.44-.73.73.44ZM210.63,112l-.47-.71.7-.47.48.7Zm-105.18-.15-.72-.47.47-.71.71.47Zm107.64-1.58-.5-.68.67-.51.52.67C213.55,109.88,213.33,110.05,213.09,110.22ZM103,110.11l-.69-.51.51-.68.68.5Zm112.5-1.76-.55-.65.64-.55.56.64Zm-114.89-.06-.67-.54.55-.66.65.54Zm117.13-2-.59-.61.61-.59.6.6Zm-119.42,0c-.22-.19-.43-.39-.63-.58l.58-.62.62.57Zm-2.16-2.1-.59-.63.62-.57c.19.2.38.41.58.61Zm123.69,0-.64-.57.05,0,.56-.63.64.55c-.18.22-.37.44-.57.65ZM94.11,102l-.54-.67.67-.53.53.66Zm127.68-.17-.68-.52.5-.67.69.5ZM92.29,99.57l-.49-.72.72-.46c.15.23.3.46.47.7Zm131.23-.24-.72-.45c.15-.24.3-.48.44-.72l.73.44C223.83,98.84,223.67,99.09,223.52,99.33ZM90.68,97l-.41-.76.75-.4.4.74ZM225,96.7l-.76-.38c.13-.25.25-.51.36-.76l.78.36C225.27,96.18,225.14,96.44,225,96.7ZM89.33,94.29c-.11-.26-.23-.53-.33-.79l.79-.32c.1.26.21.52.32.78Zm136.89-.37-.8-.3c.1-.26.19-.52.28-.79l.81.27C226.42,93.37,226.32,93.65,226.22,93.92ZM88.28,91.45c-.09-.28-.17-.55-.24-.83l.82-.22c.07.27.15.53.23.8ZM227.11,91l-.83-.2.18-.82.83.17C227.24,90.45,227.17,90.73,227.11,91ZM87.56,88.5c0-.28-.09-.57-.13-.86l.84-.12c0,.28.08.56.13.83ZM227.63,88l-.85-.09c0-.28.06-.56.08-.83l.85.06C227.69,87.45,227.66,87.73,227.63,88ZM87.22,85.48c0-.29,0-.58,0-.86l.85,0,0,.84ZM226.92,85c0-.28,0-.56,0-.83l.85,0c0,.29,0,.58,0,.87ZM88.11,82.51l-.85-.06c0-.29,0-.58.08-.87l.85.1C88.16,82,88.13,82.23,88.11,82.51Zm138.57-.43c0-.27-.09-.55-.14-.83l.84-.15c.05.29.1.57.14.86ZM88.52,79.61l-.83-.17c.06-.28.12-.57.19-.85l.82.2Zm137.55-.4c-.07-.27-.15-.54-.23-.8l.81-.26c.09.28.17.56.25.84ZM89.29,76.78l-.81-.27c.09-.28.19-.55.29-.82l.8.29C89.47,76.25,89.37,76.51,89.29,76.78Zm135.85-.35c-.1-.26-.21-.52-.32-.78l.78-.34.33.8ZM90.37,74.05l-.77-.36c.12-.26.25-.52.38-.78l.76.38C90.61,73.54,90.49,73.79,90.37,74.05Zm133.53-.29-.4-.74.74-.42c.15.26.28.51.42.76ZM91.75,71.44,91,71l.46-.74.72.46C92,71,91.89,71.2,91.75,71.44Zm130.66-.21-.47-.7.7-.49.48.72ZM93.37,69l-.69-.5.52-.69.67.52Zm127.32-.15c-.18-.22-.35-.44-.53-.65l.65-.55.55.68ZM95.2,66.67l-.64-.55c.18-.22.37-.44.57-.65l.63.57Zm123.57-.09-.16-.17-.42-.44.62-.59.42.45.17.18ZM97.21,64.51l-.6-.6.62-.6.59.61Zm119.49,0-.62-.58.57-.62.63.58Zm-2.22-2-.65-.54.53-.66.67.54Zm-115.1,0-.56-.65.65-.56L100,62Zm112.77-1.81-.68-.5.5-.69.69.5Zm-110.48-.07-.52-.67.69-.52.5.68ZM209.73,59l-.71-.46.46-.72.72.47Zm-105.66-.1-.48-.7.71-.48.47.71ZM207.22,57.4l-.73-.43.42-.73.74.43Zm-100.66-.13-.45-.72.74-.45.43.74Zm98.08-1.34-.75-.39.4-.76.75.41Zm-95.52-.14-.41-.75.76-.41.4.75ZM202,54.58l-.77-.37.37-.77.77.37Zm-90.24-.17-.38-.76.77-.37.37.76Zm87.55-1.09-.78-.34.34-.78.78.34Zm-84.87-.17-.34-.77.78-.35.34.78Zm82.13-1-.79-.31.31-.8.8.32ZM117.18,52l-.32-.79.8-.32.31.8Zm76.61-.89-.8-.29.29-.8.8.29ZM120,50.94l-.29-.8.81-.29.28.81Zm71-.8-.81-.25.26-.82.82.26ZM122.77,50l-.26-.81.82-.26.25.81Zm65.37-.71-.81-.23.23-.82.82.23Zm-62.53-.16-.23-.82.82-.23.23.82Zm59.67-.63-.83-.21.21-.82.83.21Zm-56.8-.15-.21-.83.83-.21.21.83Zm53.91-.55-.83-.19.18-.83.84.19Zm-51-.15-.18-.83.83-.19.18.84Zm48.11-.48-.83-.16.16-.84.84.17ZM134.28,47l-.16-.84L135,46l.16.83Zm42.28-.41-.84-.14.14-.84.84.14Zm-39.35-.13-.14-.84.84-.14.14.84Zm36.41-.34-.84-.12.11-.84.85.12ZM140.15,46l-.12-.84.85-.12.11.84Zm30.52-.28-.84-.1.09-.84.85.09Zm-27.57-.1-.1-.84.86-.1.09.85Zm24.61-.22-.85-.07.08-.85.85.08Zm-21.65-.07-.07-.85.85-.07.07.84Zm18.69-.17-.85,0,0-.85.85.05ZM149,45.13l-.06-.85.86-.05,0,.85ZM161.77,45l-.85,0,0-.85.85,0ZM152,45l0-.85.85,0,0,.85Zm6.8-.06H158v-.86l.86,0Zm-3.83,0v-.85h.86v.85Z" fill="#a7f1fe"/><path d="M159,118.92v-.43h.43v.42Zm-6.46-.16-.43,0,0-.42.43,0Zm13.36-.13,0-.42.43,0,0,.42Zm-20.23-.5-.43-.06.05-.42.43.06Zm27.09-.25-.07-.43.43-.06.06.42Zm-33.9-.86-.43-.09.09-.42.42.09Zm40.68-.4-.09-.41.42-.1.1.42Zm-47.39-1.22-.41-.12.12-.41.41.12Zm54.06-.56-.13-.41.41-.13.13.41Zm-60.61-1.62-.4-.15.15-.4.4.16Zm67.1-.75-.17-.39.39-.17.17.39Zm-73.41-2-.39-.19.2-.38.38.19Zm79.61-1-.21-.37.38-.21.21.37ZM113.27,107l-.36-.24.24-.36.35.24Zm91.37-1.34-.26-.34.34-.26.26.34Zm-96.84-2.89-.31-.3.29-.31.31.29ZM209.74,101l-.31-.28,0,0,.28-.32.32.28-.28.33ZM103.17,97.62l-.25-.35.35-.25.25.35Zm110.62-2.31-.37-.2c.06-.13.13-.25.19-.38l.38.19C213.93,95.05,213.86,95.18,213.79,95.31ZM99.88,91.53l-.15-.41.4-.14.15.4Zm116.21-2.75-.42-.08c0-.14.05-.28.07-.42l.42.07C216.14,88.49,216.11,88.64,216.09,88.78Zm-117.52-4V84.3H99v.07c0,.12,0,.24,0,.36Zm117.1-2.8c0-.14,0-.28-.08-.42l.42-.08c0,.14.05.28.08.42ZM100.05,78l-.41-.14c0-.13.09-.27.14-.41l.4.14C100.14,77.76,100.09,77.89,100.05,78Zm113.39-2.52-.2-.37.38-.21c.06.13.13.26.2.38ZM103.12,72l-.35-.24.25-.36.35.25Zm106.43-2c-.1-.11-.19-.22-.29-.32l.32-.29c.1.11.19.22.29.32Zm-101.94-3.1-.29-.31.32-.3.29.32Zm97-1.58-.34-.27.26-.33.35.26ZM113,62.59l-.23-.35.36-.24.23.35Zm85.9-1.2-.37-.21.21-.37.38.21Zm-79.95-2.21-.19-.39.38-.19.19.39Zm73.85-.91-.4-.17.17-.39.4.17Zm-67.55-1.81-.15-.39.4-.15.15.4Zm61.15-.68-.41-.13.14-.41.4.14Zm-54.62-1.41-.11-.41.42-.12.11.41Zm48-.49-.41-.1.1-.42.41.1Zm-41.33-1.06-.08-.42.43-.08.08.42Zm34.61-.33-.43-.07.07-.42.43.07Zm-27.82-.71,0-.42.42,0,.05.43Zm21-.18-.43,0,0-.42.43,0Zm-14.16-.36,0-.43h.43l0,.42Zm7.3-.06H159v-.43h.43Z" fill="#66c6fe"/></g><path d="M159.09,117.21v-.86h.86v.85Zm-2.14,0h-.86l0-.85H157Zm5.14,0,0-.85.85,0,0,.85Zm-8.14,0-.85,0,0-.85.85,0Zm11.13-.11-.05-.85.85,0,.06.85ZM151,117l-.86-.06.06-.85.85.06Zm17.11-.16L168,116l.85-.07.07.85Zm-20.1-.06-.85-.08.08-.85.84.08Zm23.09-.22-.09-.84.84-.1.1.85ZM145,116.46l-.85-.1.1-.84.84.1Zm29-.27-.11-.85.84-.11.12.84Zm-32-.1-.85-.12.13-.84.84.12Zm35-.33-.13-.84.84-.14.14.84Zm-37.95-.12-.84-.14.14-.84.84.14Zm40.91-.39-.16-.84.84-.16.16.83Zm-43.86-.14-.84-.16.17-.84.83.17Zm46.8-.46-.18-.83.83-.18.19.83Zm-49.74-.14-.83-.19.19-.83.83.18Zm52.67-.53-.21-.83.83-.21.21.83Zm-55.58-.16-.83-.22.21-.82.82.21Zm58.48-.6-.23-.82.82-.23.23.81ZM127.35,113l-.82-.23.24-.82.81.23Zm64.26-.67-.26-.82.81-.25.26.81Zm-67.13-.19-.81-.26.26-.81.81.26Zm70-.75-.28-.81.8-.28.29.8Zm-72.81-.2-.81-.29.29-.8.8.29Zm75.63-.84-.31-.8.79-.31.32.79Zm-78.44-.2-.8-.32.32-.79.79.31Zm81.22-.94-.34-.78.78-.34.34.77Zm-84-.21-.78-.34.34-.78.78.34Zm86.73-1-.37-.76.77-.38.37.77Zm-89.46-.2-.77-.37.38-.77.76.37Zm92.14-1.15-.4-.75.75-.41.41.75Zm-94.82-.19-.76-.41.41-.75.75.4Zm97.44-1.28-.43-.74.72-.43.45.72ZM108,105l-.74-.44.44-.73.73.44Zm102.62-1.42-.47-.71.7-.48.48.71Zm-105.18-.15-.72-.47.47-.71.71.47Zm107.64-1.58-.5-.68.67-.51.52.67C213.55,101.5,213.33,101.68,213.09,101.85ZM103,101.74l-.69-.51.51-.68.68.5ZM215.46,100l-.55-.65.64-.55.56.64Zm-114.89-.06-.67-.54.55-.66.65.54ZM217.7,98l-.59-.61.61-.59.6.6ZM98.28,98c-.22-.19-.43-.39-.63-.58l.58-.62.62.57Zm-2.16-2.1-.59-.63.62-.57c.19.2.38.41.58.61Zm123.69,0-.64-.57.05,0,.56-.63.64.55c-.18.22-.37.43-.57.65Zm-125.7-2.2-.54-.67.67-.53.53.66Zm127.68-.17-.68-.52.5-.67.69.5ZM92.29,91.2l-.49-.72.72-.46c.15.23.3.46.47.69ZM223.52,91l-.72-.45c.15-.24.3-.48.44-.72l.73.44C223.83,90.47,223.67,90.72,223.52,91ZM90.68,88.64l-.41-.76.75-.4.4.74ZM225,88.33l-.76-.38.37-.76.77.36C225.27,87.81,225.14,88.07,225,88.33ZM89.33,85.92c-.11-.26-.23-.53-.33-.8l.79-.31c.1.26.21.52.32.78Zm136.89-.37-.8-.3c.1-.26.19-.52.28-.79l.81.27C226.42,85,226.32,85.28,226.22,85.55ZM88.28,83.08c-.09-.28-.17-.55-.24-.83l.82-.22c.07.26.15.53.23.8Zm138.83-.43-.83-.2.18-.82.83.17C227.24,82.08,227.17,82.36,227.11,82.65ZM87.56,80.13c0-.28-.09-.57-.13-.86l.84-.12c0,.28.08.56.13.83Zm140.07-.48-.85-.09c0-.28.06-.56.08-.84l.85.07C227.69,79.08,227.66,79.36,227.63,79.65ZM87.22,77.11c0-.29,0-.58,0-.86l.85,0,0,.84Zm139.7-.48c0-.28,0-.56,0-.84l.85,0c0,.29,0,.58,0,.87ZM88.11,74.14l-.85-.06c0-.29,0-.58.08-.87l.85.1C88.16,73.58,88.13,73.86,88.11,74.14Zm138.57-.43c-.05-.27-.09-.55-.14-.83l.84-.15c.05.29.1.57.14.86ZM88.52,71.24l-.83-.17c.06-.29.12-.57.19-.85l.82.2Zm137.55-.4c-.07-.27-.15-.54-.23-.8l.81-.26c.09.28.17.56.25.84ZM89.29,68.41l-.81-.27c.09-.28.19-.55.29-.82l.8.29C89.47,67.88,89.37,68.14,89.29,68.41Zm135.85-.35c-.1-.26-.21-.52-.32-.78l.78-.34.33.8ZM90.37,65.68l-.77-.36c.12-.26.25-.52.38-.78l.76.38C90.61,65.17,90.49,65.42,90.37,65.68Zm133.53-.29-.4-.74.74-.42c.15.26.28.51.42.76ZM91.75,63.07,91,62.64l.46-.74.72.45C92,62.59,91.89,62.83,91.75,63.07Zm130.66-.21-.47-.7.7-.49.48.72Zm-129-2.25-.69-.5.52-.69.67.52Zm127.32-.15c-.18-.22-.35-.44-.53-.65l.65-.55.55.68ZM95.2,58.3l-.64-.55c.18-.22.37-.44.57-.65l.63.57Zm123.57-.09-.16-.17-.42-.44.62-.59.42.44.17.19ZM97.21,56.14l-.6-.6.62-.61.59.62Zm119.49,0-.62-.58.57-.63.63.59Zm-2.22-2-.65-.54.53-.66.67.54Zm-115.1,0-.56-.64.65-.56.55.65Zm112.77-1.8-.68-.5.5-.7.69.51Zm-110.48-.07-.52-.67.69-.52.5.68Zm108.06-1.64-.71-.46.46-.72.72.47Zm-105.66-.1-.48-.7.71-.48.47.71ZM207.22,49l-.73-.43.42-.74.74.44ZM106.56,48.9l-.45-.72.74-.45.43.73Zm98.08-1.34-.75-.39.4-.76.75.4Zm-95.52-.15-.41-.74.76-.41.4.75ZM202,46.2l-.77-.36.37-.77.77.37ZM111.76,46l-.38-.76.77-.38.37.77ZM199.31,45l-.78-.34.34-.78.78.34Zm-84.87-.17L114.1,44l.78-.35.34.78Zm82.13-1-.79-.31.31-.8.8.32Zm-79.39-.17-.32-.79.8-.32.31.8Zm76.61-.89-.8-.29.29-.8.8.29ZM120,42.57l-.29-.8.81-.29.28.81Zm71-.8-.81-.25.26-.82.82.26Zm-68.21-.16-.26-.81.82-.26.25.81Zm65.37-.71-.81-.23.23-.82.82.23Zm-62.53-.16-.23-.82.82-.23.23.82Zm59.67-.63-.83-.21.21-.82c.28.06.55.14.83.21ZM128.48,40l-.21-.83.83-.21.21.83Zm53.91-.55-.83-.19.18-.83.84.19Zm-51-.15-.18-.83.83-.19.18.83Zm48.11-.48-.83-.16.16-.84.84.17Zm-45.2-.14-.16-.83.84-.16.16.83Zm42.28-.4-.84-.14.14-.84.84.14Zm-39.35-.13-.14-.84.84-.14.14.84Zm36.41-.34-.84-.12.11-.84.85.12Zm-33.47-.11-.12-.85.85-.11.11.84Zm30.52-.28-.84-.1.09-.84.85.09Zm-27.57-.1-.1-.84.86-.1.09.85Zm24.61-.22-.85-.07.08-.85.85.08ZM146.06,37l-.07-.84.85-.07.07.84Zm18.69-.16-.85,0,0-.85.85,0ZM149,36.76l-.06-.85.86,0,0,.85Zm12.74-.11-.85,0,0-.85.85,0Zm-9.77,0,0-.85c.28,0,.57,0,.85,0l0,.85Zm6.8-.06-.85,0v-.85l.86,0Zm-3.83,0v-.85h.86v.86Z" fill="#a7f1fe"/><path d="M159,110.55v-.43h.43v.42Zm-6.46-.16-.43,0,0-.42.43,0Zm13.36-.13,0-.42.43,0,0,.43Zm-20.23-.5-.43-.06.05-.42.43.06Zm27.09-.26-.07-.42.43-.06.06.42Zm-33.9-.85-.43-.09.09-.42.42.09Zm40.68-.4-.09-.41.42-.1.1.42ZM132.11,107l-.41-.12.12-.41.41.12Zm54.06-.56-.13-.41.41-.13.13.41Zm-60.61-1.62-.4-.15.15-.4.4.16Zm67.1-.75-.17-.39.39-.17.17.39Zm-73.41-2-.39-.19.2-.38.38.19Zm79.61-1-.21-.37.38-.21.21.37Zm-85.59-2.45-.36-.24.24-.36.35.24Zm91.37-1.34-.26-.34.34-.26L205,97ZM107.8,94.39l-.31-.3.29-.31.31.29Zm101.94-1.78-.31-.28,0,0,.28-.32.32.28-.28.33ZM103.17,89.25l-.25-.35.35-.25.25.35Zm110.62-2.31-.37-.2c.06-.13.13-.25.19-.38l.38.19C213.93,86.68,213.86,86.81,213.79,86.94ZM99.88,83.16l-.15-.41.4-.14.15.4Zm116.21-2.75-.42-.08c0-.14.05-.28.07-.42l.42.07C216.14,80.12,216.11,80.26,216.09,80.41Zm-117.52-4v-.43H99V76c0,.12,0,.24,0,.35Zm117.1-2.8c0-.14,0-.28-.08-.42l.42-.08c0,.14.05.28.08.42Zm-115.62-3.9-.41-.14.14-.41.4.14C100.14,69.39,100.09,69.52,100.05,69.66Zm113.39-2.52c-.06-.13-.13-.25-.2-.38l.38-.2c.06.13.13.25.2.38ZM103.12,63.59l-.35-.24L103,63l.35.25Zm106.43-2c-.1-.11-.19-.22-.29-.32l.32-.29c.1.11.19.22.29.32Zm-101.94-3.1-.29-.31.32-.3.29.32Zm97-1.58-.34-.27.26-.33.35.26ZM113,54.22l-.23-.35.36-.24.23.35Zm85.9-1.2-.37-.21.21-.37.38.21ZM118.94,50.8l-.19-.38.38-.19.19.39Zm73.85-.9-.4-.18.17-.39.4.18Zm-67.55-1.81-.15-.39a3.25,3.25,0,0,1,.4-.15l.15.4Zm61.15-.68-.41-.13.14-.41.4.14ZM131.77,46l-.11-.41.42-.11.11.41Zm48-.48-.41-.1.1-.42.41.1Zm-41.33-1.06-.08-.42.43-.08.08.42Zm34.61-.33-.43-.07.07-.42.43.07Zm-27.82-.71,0-.42.42-.05.05.43Zm21-.18-.43,0,0-.42.43,0Zm-14.16-.36,0-.43.43,0,0,.43Zm7.3-.06H159v-.43h.43Z" fill="#66c6fe"/><g style="isolation:isolate"><path d="M195.58,49.4a.34.34,0,0,0,0,.1.24.24,0,0,0,0,.08l0,.1,0,.07a.93.93,0,0,1-.05.1.43.43,0,0,1,0,.07.44.44,0,0,1-.08.11.18.18,0,0,1,0,.07l-.14.15s0,0,0,0l-.1.09-.08.06-.13.09-.1.06-5.83,3.47a2.25,2.25,0,0,1-.31.16l-.07,0-.33.13-.1,0-.17.05-.11,0-.18,0-.1,0-.36.05h0l-.3,0h-.73l-.17,0h-.12l-.2,0-.09,0-.31-.07-.05,0-.31-.1-.12-.05-3.94-1.65-.38-.19a1.61,1.61,0,0,1-.94-1.31v4.53a1.59,1.59,0,0,0,.94,1.31,1.93,1.93,0,0,0,.38.19l3.94,1.66.07,0h.05l.31.11h0l.3.08h.09l.21,0h.12l.17,0h.73l.3,0h0l.36,0h0l.06,0,.17,0,.12,0,.17-.05.07,0h0l.34-.13.07,0,.31-.16,5.83-3.47h0l.08,0,.12-.08.08-.07.11-.08h0l0,0,.14-.16,0,0,0,0a1,1,0,0,1,.08-.11s0,0,0-.05l0,0,0-.1,0-.06v0a.3.3,0,0,0,0-.1.14.14,0,0,0,0-.06h0a.41.41,0,0,0,0-.11.13.13,0,0,0,0-.06V49.4Z" fill="#53a5f8"/><path d="M194.65,48c1.21.7,1.27,1.86,0,2.59l-5.83,3.47a5,5,0,0,1-4.15.2l-3.94-1.65-.38-.19c-1-.56-1.23-1.44-.58-2.16l3.86-4.3c.9-1,3.12-1.29,4.7-.63l5.9,2.48A2.35,2.35,0,0,1,194.65,48Z" fill="#a7eafd"/><path d="M194.68,50.59l-5.83,3.47a5,5,0,0,1-4.15.2l-3.94-1.65-.38-.19a1.87,1.87,0,0,1-.89-1c-.18.59.14,1.2.89,1.63l.38.19,3.94,1.65a5,5,0,0,0,4.15-.2l5.83-3.47c.75-.44,1-1,.85-1.6A1.76,1.76,0,0,1,194.68,50.59Z" fill="#fff"/><path d="M186.85,53.41a3.88,3.88,0,0,1-1.41-.26L182.63,52l-.29-.15a1.38,1.38,0,0,1-.75-.94,1,1,0,0,1,.29-.88l2.75-3.06a3.48,3.48,0,0,1,3.56-.5l4.2,1.77.3.15h0a1.16,1.16,0,0,1,0,2.16L188.56,53A3.41,3.41,0,0,1,186.85,53.41Zm-.07-6.87a2.65,2.65,0,0,0-1.88.64l-2.75,3.07a.68.68,0,0,0-.21.57,1.05,1.05,0,0,0,.58.69,1.46,1.46,0,0,0,.25.13l2.81,1.17a3.37,3.37,0,0,0,2.8-.13l4.15-2.47a.81.81,0,0,0,0-1.54,1.58,1.58,0,0,0-.26-.13l-4.2-1.76A3.19,3.19,0,0,0,186.78,46.54Z" fill="#53a5f8"/></g><g style="isolation:isolate"><path d="M210,59.82v.06s0,.08,0,.12a.07.07,0,0,1,0,0,.74.74,0,0,1,0,.14v0a1.22,1.22,0,0,1-.07.17l0,0a.91.91,0,0,1-.11.16v0l-.18.19,0,0a1.07,1.07,0,0,1-.16.14l0,0-.17.11-.05,0a2.8,2.8,0,0,1-.3.15l-.05,0-.34.14h0l-.35.1-7.77,1.79-.36.06-.18,0-.31,0h-.59a1.87,1.87,0,0,1-.34,0h-.1a2.63,2.63,0,0,1-.39-.06l-.07,0-.3-.08-.19-.06-.22-.08-.07,0a3.18,3.18,0,0,1-.32-.16,2.82,2.82,0,0,1-.51-.38l-2.44-2.44a1.37,1.37,0,0,1-.4-.69,1,1,0,0,1,0-.24v4.53a1.31,1.31,0,0,0,.43.93l2.44,2.44a2.51,2.51,0,0,0,.51.38l.31.16.08,0,.07,0,.15,0a1.27,1.27,0,0,0,.18.06l0,0a1.22,1.22,0,0,0,.26.06l.07,0h0l.32.06h1.3l.09,0,.18,0,.13,0,.24-.05,7.76-1.79.36-.1h.05l.34-.13,0,0a2.69,2.69,0,0,0,.29-.16h0l0,0,.17-.11,0,0,.17-.13,0,0h0a1.62,1.62,0,0,0,.18-.2h0v0l.1-.15,0,0h0l.07-.16h0v0a.57.57,0,0,0,0-.14v0a.62.62,0,0,0,0-.13s0,0,0,0v0h0Z" fill="#53a5f8"/><path d="M205.34,54.85a2.28,2.28,0,0,1,.52.39l3.66,3.65c1,1,.23,2.22-1.57,2.64l-7.77,1.79a5,5,0,0,1-3.44-.41,2.82,2.82,0,0,1-.51-.38l-2.44-2.44c-.79-.79-.47-1.8.77-2.37l6.55-3A5.06,5.06,0,0,1,205.34,54.85Z" fill="#8ce2fe"/><path d="M208,61.53l-7.77,1.79a5,5,0,0,1-3.44-.41,2.82,2.82,0,0,1-.51-.38l-2.44-2.44a1.52,1.52,0,0,1-.38-.6,1.21,1.21,0,0,0,.38,1.25l2.44,2.44a2.82,2.82,0,0,0,.51.38,5,5,0,0,0,3.44.41L208,62.18c1.45-.33,2.21-1.21,2-2A2.5,2.5,0,0,1,208,61.53Z" fill="#fff"/></g><g style="isolation:isolate"><path d="M212.52,79.39h-.14l-8.42-.2h-.27l-.15,0-.17,0h-.06l-.25,0-.08,0-.25-.06-.09,0-.34-.11,0,0-.14-.06-.1,0-.24-.13a2,2,0,0,1-1-1.26l-.52-2.8a1,1,0,0,1,0-.25l0-4.53h.45a.76.76,0,0,0,0,.15l.53,2.8a1.5,1.5,0,0,0,.81,1l.2.11.08,0,.14.06,0,0,.29.1.09,0,.21,0,.09,0,.2,0h.09l.15,0h.14l.22,0H204l8.36.2h.32l.33,0,.06.22,0-.22.32,0,.13,0,.16,0,.1,0,.17,0,.1,0,.28-.11.14.18-.09-.2.28-.15.09,0,.1-.07.08-.06.09-.08.07,0,.12-.14.21.1-.18-.14a.44.44,0,0,0,.08-.11l0,0,0-.06,0-.06s0,0,0,0v0a.46.46,0,0,1,0-.09V72.8h.45v4.53c0,.07,0,.1,0,.13l-.23,0,.22,0v.07l0,.12-.23,0,.21.06s0,0,0,.06a.59.59,0,0,0,0,.08l0,0a.59.59,0,0,0,0,.08l0,0-.11.16a.12.12,0,0,1,0,.05.85.85,0,0,1-.16.17l0,0,0,0-.12.1-.1.07-.12.08-.1.06a2.55,2.55,0,0,1-.33.17l0,0-.34.13-.09,0-.18,0-.15,0-.16,0-.14,0-.35,0h-.06a3.31,3.31,0,0,1-.34,0Zm.51-.47.06.21,0-.22.32,0,.13,0,.15,0,.11,0,.17,0,.1,0,.28-.11.14.19-.09-.21a1.51,1.51,0,0,0,.28-.15l.09,0,.1-.07.08-.06.09-.07.06-.06.13-.13,0,0,.08-.13,0,0a.17.17,0,0,0,0-.05l.07-.16s0-.07,0-.08v-.11s0,0,0,0V73.83l-.07.07-.08.07-.11.09-.1.08-.12.08-.1.06-.32.17h0a1.81,1.81,0,0,1-.34.13l-.11,0-.16.05-.14,0-.17,0-.14,0-.35,0h0l-.36,0h-.34l-8.42-.2-.27,0h-.11l-.2,0h-.07l-.25,0H203l-.27-.06-.08,0a2.86,2.86,0,0,1-.35-.12h0l-.13-.06-.11-.05-.24-.12a2,2,0,0,1-1-1.27l-.1-.55v2a1,1,0,0,0,0,.16l.52,2.79a1.52,1.52,0,0,0,.82,1l.2.11.07,0,.15.07.33.11.09,0,.21.06.09,0,.19,0,.09,0h.16l.13,0H204l8.4.2h.31Zm2.67-6,.22,0Z" fill="#53a5f8"/><path d="M212.53,74.86h-.14l-8.36-.2a4.76,4.76,0,0,1-2.24-.57,2,2,0,0,1-1-1.27L200.24,70A1.39,1.39,0,0,1,200.5,69a3.39,3.39,0,0,1,2.3-1.17l8.1-1.2a5.13,5.13,0,0,1,3.2.51h0a2,2,0,0,1,1,1.27l.78,4.19a1.41,1.41,0,0,1-.36,1.2A4,4,0,0,1,212.53,74.86ZM211.72,67a6.16,6.16,0,0,0-.75,0l-8.11,1.21a3,3,0,0,0-2,1,1,1,0,0,0-.18.73l.53,2.8a1.5,1.5,0,0,0,.81,1,4.34,4.34,0,0,0,2,.51l8.36.2a3.75,3.75,0,0,0,2.81-1,1,1,0,0,0,.26-.82l-.79-4.2a1.52,1.52,0,0,0-.81-1h0A4.41,4.41,0,0,0,211.72,67Z" fill="#81dafe"/></g><g style="isolation:isolate"><path d="M191.53,105.93h-.24l-.2,0H191l-.18,0-.13,0-.19,0-.1,0-.24-.06-.1,0-.36-.12-.14-.06,0-.23-.08.21-.06,0-.24-.13a2.32,2.32,0,0,1-.44-.31l-4.66-4a1.59,1.59,0,0,1-.62-1.2V95.28h.45a1.18,1.18,0,0,0,.46.87l4.67,4a2.19,2.19,0,0,0,.37.26,1,1,0,0,0,.21.11l.07,0,.15.07.32.11.1,0,.19,0,.11,0a1.13,1.13,0,0,0,.18,0l.11,0,.17,0h.69l.34,0h.08l.27,0,.11,0,.15,0,.13,0,.15,0,.12,0,.18-.07.08,0,.25-.12,5.4-2.82.19-.11.09-.06.1-.08.08-.06.08-.07.12-.13,0,0a.35.35,0,0,0,.06-.09l0,0s0,0,0-.07l0-.06s0,0,0,0l0-.07a.45.45,0,0,0,0-.08v-.1s0,0,0,0h.45l0,4.56v.08l-.23,0,.22,0s0,.05,0,.08l0,.1h-.23l.22.05a.24.24,0,0,1,0,.08.59.59,0,0,1,0,.08l-.22,0,.2.09,0,.08a.15.15,0,0,1,0,.06l-.1.15s0,0,0,.06l-.15.17,0,0-.05,0-.11.09-.12.09-.12.07,0,0-.17.1-5.4,2.82-.29.14-.09,0-.21.08-.1-.2.07.21-.07,0-.19.05-.14,0-.16,0-.1,0-.33.05h-.06l-.36,0Zm.5-.47.08.22,0-.23.31,0,.11,0,.15,0,.13,0,.14,0,.09,0,.1.2-.07-.21.18-.07.09,0a1.92,1.92,0,0,0,.25-.12l5.4-2.82.15-.08,0,0,.09-.06.1-.07.08-.07,0,0,.05,0,.11-.12,0,0a.46.46,0,0,0,.07-.1l0,0a.36.36,0,0,0,0-.07l.08-.2a0,0,0,0,1,0,0v-.12l.23,0-.23,0V97.55l-.07.07-.09.09-.1.08-.12.09-.11.07-.22.13-5.4,2.82-.28.13-.07,0-.23.08-.13,0-.17,0-.14,0-.16,0-.12,0-.31,0h-.08l-.34,0H191l-.19,0-.09,0-.23,0-.09,0-.24,0-.11,0-.36-.12-.15-.07-.1,0-.24-.13a2.88,2.88,0,0,1-.44-.31l-4.66-4-.17-.17v3.5a1.17,1.17,0,0,0,.46.86l4.66,4a1.9,1.9,0,0,0,.37.26l.21.11.08,0,.14.06.33.11.09,0,.2,0h0l0,.23.06-.22.2,0h.05v.22l0-.22.19,0h.68Z" fill="#53a5f8"/><path d="M191.55,101.4a4.8,4.8,0,0,1-2.37-.57,2.88,2.88,0,0,1-.44-.31l-4.66-4a1.55,1.55,0,0,1-.61-1.35,2,2,0,0,1,1.16-1.42l3.6-1.88a5.25,5.25,0,0,1,4.37,0l6.46,3.09.24.13h0a1.79,1.79,0,0,1,1,1.53,1.9,1.9,0,0,1-1.17,1.54l-5.4,2.82A4.91,4.91,0,0,1,191.55,101.4Zm-1.09-9.61a4.46,4.46,0,0,0-2,.45l-3.59,1.88a1.48,1.48,0,0,0-.92,1.07,1.13,1.13,0,0,0,.45,1l4.67,4a2.19,2.19,0,0,0,.37.26,4.71,4.71,0,0,0,4.16.06l5.4-2.82a1.47,1.47,0,0,0,.93-1.15,1.39,1.39,0,0,0-.83-1.13h0a1,1,0,0,0-.21-.11l-6.46-3.1A4.55,4.55,0,0,0,190.46,91.79Z" fill="#6bd2fe"/></g><g style="isolation:isolate"><path d="M181,104V104a.5.5,0,0,1,0,.12.13.13,0,0,1,0,.06l0,.11s0,0,0,0a1.22,1.22,0,0,1-.07.17h0l-.11.16,0,0a1.54,1.54,0,0,1-.17.19l0,0a.69.69,0,0,1-.13.11l-.05,0-.18.12h0a2.25,2.25,0,0,1-.31.16l0,0-.34.13-.07,0-.18.05-.08,0-.27.06-6.92,1.3a2.7,2.7,0,0,1-.41.06h0l-.41,0h-.51l-.38,0H170l-.31-.06-.14,0-.21-.06-.21-.07-.19-.08-.09,0-.29-.15a1.83,1.83,0,0,1-.89-1l-1.43-4.78a1.25,1.25,0,0,1-.05-.32V105a1.19,1.19,0,0,0,0,.32l1.43,4.78a1.83,1.83,0,0,0,.89,1,2.64,2.64,0,0,0,.29.15.2.2,0,0,1,.08,0l.09,0,.11,0,.21.07.08,0,.13,0,.14,0,.06,0,.25,0h.07l.31,0H171l.35,0h0a2.52,2.52,0,0,0,.37,0h0l6.91-1.31a2.3,2.3,0,0,0,.28-.06l.08,0,.18-.05h.07l.34-.13,0,0,.31-.16h0a.94.94,0,0,0,.18-.12l0,0,.13-.1,0,0h0a1.62,1.62,0,0,0,.18-.19h0l0,0a1.3,1.3,0,0,0,.1-.15v0h0l.08-.16v0a0,0,0,0,1,0,0l0-.12s0,0,0,0v0s0-.09,0-.13v-.06h0Z" fill="#53a5f8"/><path d="M176.27,98.29a2.16,2.16,0,0,1,.61.49l3.74,4.34c.86,1,0,2.23-1.86,2.58l-6.92,1.3a4.94,4.94,0,0,1-3.25-.45,1.83,1.83,0,0,1-.89-1l-1.43-4.78c-.27-.91.64-1.79,2.15-2.07l4.61-.87A4.94,4.94,0,0,1,176.27,98.29Z" fill="#73cffe"/><path d="M178.76,105.7l-6.92,1.3a4.94,4.94,0,0,1-3.25-.45,1.83,1.83,0,0,1-.89-1l-1.43-4.77a1.16,1.16,0,0,0,0,.64l1.43,4.78a1.83,1.83,0,0,0,.89,1,4.94,4.94,0,0,0,3.25.45l6.92-1.3c1.54-.29,2.41-1.19,2.14-2.07A2.6,2.6,0,0,1,178.76,105.7Z" fill="#fff"/></g><g style="isolation:isolate"><path d="M140.79,49.07v.06s0,.08,0,.13v0a1.42,1.42,0,0,1-.05.16v0l-.06.14,0,0a1.67,1.67,0,0,1-.12.16l0,0a1.07,1.07,0,0,1-.18.19l0,0-.14.12,0,0-.19.13,0,0a2.11,2.11,0,0,1-.3.16l0,0-.35.13-.13,0L134.74,52l-.49.11-.45.06h-.09l-.37,0h-.1l-.43,0h-.07l-.37,0-.09,0-.41-.1-.12,0-.3-.1-.06,0-.35-.17a2.16,2.16,0,0,1-.35-.24l-4.86-4a1.5,1.5,0,0,1-.56-.79,1,1,0,0,1,0-.28v4.53a1.42,1.42,0,0,0,.59,1.08l4.87,3.95a1.8,1.8,0,0,0,.35.24,2.85,2.85,0,0,0,.35.17l.06,0,.05,0,.25.09.11,0h0l.34.08h0l.1,0,.16,0,.2,0h.11l.32,0h.32l.23,0h.12l.41-.06h0a3.89,3.89,0,0,0,.49-.12l4.32-1.28.11,0h0a2.68,2.68,0,0,0,.34-.13l0,0a2.25,2.25,0,0,0,.31-.16h0l.18-.12,0,0,.14-.12,0,0h0a1.07,1.07,0,0,0,.18-.19h0a1.63,1.63,0,0,0,.11-.17h0v0a.61.61,0,0,0,.07-.14v0h0c0-.05,0-.11,0-.16v0a.59.59,0,0,0,0-.13v0h0Z" fill="#53a5f8"/><path d="M137.15,43.16a2.24,2.24,0,0,1,.77.72l2.7,4.59c.51.87-.15,1.82-1.56,2.24L134.74,52a5,5,0,0,1-3.7-.34,2.16,2.16,0,0,1-.35-.24l-4.86-4c-1.13-.92-.59-2.2,1.14-2.71l6.47-1.91A5.06,5.06,0,0,1,137.15,43.16Z" fill="#a7eafd"/><path d="M139.06,50.71,134.74,52a5,5,0,0,1-3.7-.34,2.16,2.16,0,0,1-.35-.24l-4.86-4a1.52,1.52,0,0,1-.54-.74,1.26,1.26,0,0,0,.54,1.39l4.86,4a2.16,2.16,0,0,0,.35.24,5,5,0,0,0,3.7.34l4.32-1.28c1.26-.37,1.93-1.18,1.68-2A2.32,2.32,0,0,1,139.06,50.71Z" fill="#fff"/></g><g style="isolation:isolate"><path d="M118.71,64.55h-.51l-.18,0h-.09l-.25,0h-.08l-.33-.08-.25-.08-7.22-2.47-.18-.07-.08,0-.13-.05a2.49,2.49,0,0,1-.28-.15,1.81,1.81,0,0,1-1-1.51V55.46h.45a1.39,1.39,0,0,0,.83,1.12,1.46,1.46,0,0,0,.25.13l0,0,.29.12,7.22,2.47.22.07.29.07.09,0,.2,0h.08l.2,0H119l.25,0,.08.22,0-.22.34,0,.1,0,.17,0,.11,0,.17,0,.08,0,.32-.12,0,0,.31-.16.17-.11,3.05-2.19.18-.14,0,0a.83.83,0,0,0,.16-.17,1.16,1.16,0,0,0,.11-.16l0,0a.93.93,0,0,0,0-.1l0-.05a.31.31,0,0,0,0-.08v-.06a.28.28,0,0,0,0-.09h0v0h.45V60.3a.39.39,0,0,0,0,.09.78.78,0,0,1,0,.14.35.35,0,0,1,0,.07.65.65,0,0,1,0,.13s0,0,0,0l0,0a1.39,1.39,0,0,1-.06.13s0,0,0,0a2.11,2.11,0,0,1-.14.22l0,0-.17.18,0,0,0,0-.21.17-3.05,2.18-.19.13a2.79,2.79,0,0,1-.34.18l-.08,0-.35.14-.07,0-.22.06-.08,0-.22,0-.1,0-.38,0h-.58Zm-.42-.47h.24l0,.22V64.1h.29l0,.22V64.1l.28,0,.07.22,0-.22.36,0,.1,0,.17,0,.1,0,.17-.05.08,0a3.21,3.21,0,0,0,.33-.12l.06,0a2.64,2.64,0,0,0,.29-.15l.17-.11,3-2.19.17-.14,0,0a1,1,0,0,0,.14-.15l0,0a.8.8,0,0,0,.09-.14l0,0,.05-.09v0l0-.1v0a.41.41,0,0,0,0-.11V56.8l-.08.08-.05,0-.22.18-3,2.18-.21.13a2.57,2.57,0,0,1-.33.18l-.07,0-.36.14-.07,0-.21.06-.12,0-.19,0-.1,0-.38.05h0L119,60h-.75L118,60h-.12l-.22,0-.09,0-.32-.08-.25-.07-7.21-2.48a2.09,2.09,0,0,1-.3-.11l-.09,0-.29-.15a2.66,2.66,0,0,1-.6-.47V60a1.4,1.4,0,0,0,.82,1.12l.25.13.18.08.17.06,7.21,2.47.21.07.31.07.08,0,.2,0,.12,0,.16,0,0,.23Z" fill="#53a5f8"/><path d="M118.73,60a5.4,5.4,0,0,1-1.7-.27l-7.21-2.48a3.25,3.25,0,0,1-.68-.3,1.83,1.83,0,0,1-1-1.44,1.66,1.66,0,0,1,.8-1.4l4.56-3.28a5.1,5.1,0,0,1,5-.16l.1.06,5.69,3.57a1.78,1.78,0,0,1,1,1.4,1.71,1.71,0,0,1-.8,1.39l-3,2.18A4.58,4.58,0,0,1,118.73,60Zm-2.67-9.45a4.08,4.08,0,0,0-2.34.65l-4.57,3.27a1.25,1.25,0,0,0-.61,1,1.43,1.43,0,0,0,.83,1.07,3.6,3.6,0,0,0,.59.27l7.22,2.47a4.71,4.71,0,0,0,3.89-.39l3.05-2.19a1.26,1.26,0,0,0,.61-1,1.35,1.35,0,0,0-.75-1l-5.69-3.57-.08-.05h0A4.46,4.46,0,0,0,116.06,50.57Z" fill="#93edfe"/></g><g style="isolation:isolate"><g opacity="0.2"><path d="M114.26,77.88c.79.46,1.14,1.13.84,1.79l-1.24,2.71c-.41.89-1.87,1.47-3.45,1.36l-8.31-.56a4.44,4.44,0,0,1-1.89-.53c-.77-.45-1.14-1.12-.84-1.79l1.86-4.07c.5-1.09,2.55-1.66,4.34-1.22l7.7,1.92A4.09,4.09,0,0,1,114.26,77.88Z" fill="#53a5f8"/></g><g opacity="0.7"><path d="M114.26,73c.79.45,1.14,1.13.84,1.78l-1.24,2.72c-.41.89-1.87,1.46-3.45,1.36l-8.31-.57a4.44,4.44,0,0,1-1.89-.52c-.77-.45-1.14-1.12-.84-1.79l1.86-4.07c.5-1.09,2.55-1.67,4.34-1.22l7.7,1.92A3.72,3.72,0,0,1,114.26,73Z" fill="#53a5f8"/></g><path d="M115.2,65.63a.82.82,0,0,1,0,.22s0,0,0,.05,0,.13-.07.2l-1.24,2.71s0,.09-.07.13l-.09.13,0,0a1.07,1.07,0,0,1-.18.19l-.06.06-.1.08-.08.06-.12.08-.07,0-.31.16-.06,0a3,3,0,0,1-.36.14h0l-.26.08-.09,0-.2,0h-.09l-.31.05h-.07l-.32,0h-.57l-8.31-.56-.16,0-.18,0-.12,0-.19,0-.1,0-.29-.07h0l-.34-.12-.07,0-.15-.07-.07,0-.21-.11a1.6,1.6,0,0,1-.94-1.32l0,4.54a1.62,1.62,0,0,0,1,1.31,1,1,0,0,0,.21.11l.07,0,.15.07h.07A2,2,0,0,0,101,74h0l.3.07h.1l.19,0h.11l.19,0h.15l8.32.56H111l.32,0h.07l.31,0h.09l.19,0,.1,0,.25-.07h0a3,3,0,0,0,.36-.14l.06,0a2.11,2.11,0,0,0,.3-.16l0,0,.05,0,.12-.08.07,0,.11-.09,0,0v0l.18-.18h0l0,0,.09-.13s0,0,0,0a.54.54,0,0,0,0-.11l1.25-2.71,0-.08,0-.12,0-.05h0a1.1,1.1,0,0,0,0-.18v0h0Z" fill="#53a5f8"/><path d="M114.26,64.31c.79.46,1.14,1.13.84,1.79l-1.24,2.71c-.41.89-1.87,1.46-3.45,1.36l-8.31-.56a4.58,4.58,0,0,1-1.89-.53c-.77-.45-1.14-1.12-.84-1.79l1.86-4.07c.5-1.09,2.55-1.66,4.34-1.22l7.7,1.92A4.09,4.09,0,0,1,114.26,64.31Z" fill="#93edfe"/><path d="M115.1,66.1l-1.24,2.71c-.41.89-1.87,1.46-3.45,1.36l-8.31-.56a4.58,4.58,0,0,1-1.89-.53,1.86,1.86,0,0,1-.89-1,1.45,1.45,0,0,0,.89,1.64,4.44,4.44,0,0,0,1.89.53l8.31.56c1.58.11,3-.47,3.45-1.36l1.24-2.71a1.11,1.11,0,0,0,.05-.8S115.12,66.05,115.1,66.1Z" fill="#fff"/></g><path d="M116.64,88.14a2.88,2.88,0,0,1-.65-.07l.06-.35a3.26,3.26,0,0,0,.82,0h.1l0,.36h-.38Zm-1.92-.53a6.68,6.68,0,0,1-.85-.54l.22-.29a6,6,0,0,0,.8.52Zm3.56,0-.21-.29a4.1,4.1,0,0,0,.68-.65l.27.24A5.33,5.33,0,0,1,118.28,87.58Zm62.78-1.21L181,86a2.66,2.66,0,0,0,.85-.31L182,86A3.1,3.1,0,0,1,181.06,86.37Zm-68.19-.18c-.22-.22-.45-.47-.68-.73l.27-.23c.22.25.44.49.66.7Zm66.82,0a4.14,4.14,0,0,1-.87-.53l.22-.28a3.61,3.61,0,0,0,.8.48Zm-59.88-.38-.3-.2c.15-.25.32-.53.48-.84l.32.18C120.14,85.25,120,85.54,119.81,85.8Zm63.29-.61-.25-.25a8.1,8.1,0,0,0,.62-.73l.29.22A7.36,7.36,0,0,1,183.1,85.19Zm-18.8-.34-.13-.33a2,2,0,0,0,.71-.53l.27.25A2.38,2.38,0,0,1,164.3,84.85Zm-1.4-.06a3.81,3.81,0,0,1-.91-.44l.2-.3a3.11,3.11,0,0,0,.82.4Zm14.93,0c-.21-.23-.43-.47-.66-.75l.28-.23c.22.27.44.51.64.73Zm-66.48-.31-.59-.79.29-.21c.19.27.39.53.58.78Zm9.56-.68-.33-.16c.14-.29.28-.59.41-.89l.33.15Zm40.07-.3a7.33,7.33,0,0,1-.62-.78l.29-.21a8.18,8.18,0,0,0,.59.75Zm23.53-.12-.31-.19c.17-.27.33-.55.5-.84l.31.17C184.84,82.78,184.68,83.06,184.51,83.34Zm-18.58-.2-.3-.18c.14-.24.29-.52.46-.85l.32.16C166.24,82.61,166.08,82.89,165.93,83.14ZM176.35,83c-.2-.26-.4-.52-.59-.79l.29-.21.58.78ZM110,82.56l-.54-.82.3-.2.54.82Zm11.84-.9-.33-.15.4-.9.33.15Zm-33.55,0L88,81.48s.16-.33.45-.88l.32.16C88.46,81.31,88.3,81.64,88.3,81.64Zm71.36-.1c-.15-.27-.3-.57-.45-.88l.33-.16c.14.31.29.6.44.87Zm26-.23-.33-.16.44-.88.32.16C185.92,80.73,185.77,81,185.63,81.31ZM175,81.13l-.59-.79.29-.22.59.79Zm-8,0-.33-.16.13-.27.3-.62.32.16c-.1.2-.19.41-.29.61Zm-58.23-.46-.51-.84.3-.19c.18.28.35.56.52.84Zm-19.4-1-.31-.17c.14-.27.3-.56.47-.87l.32.18Zm33.42,0-.33-.15c.14-.3.28-.6.43-.89l.32.16C123.06,79,122.92,79.26,122.78,79.56Zm35.91-.11c-.13-.3-.25-.61-.36-.92l.33-.13c.12.31.24.62.36.91Zm14.89-.14c-.22-.27-.43-.51-.63-.73l.26-.24c.21.22.42.47.65.75Zm13-.07-.32-.15.41-.89.33.15ZM168,79l-.32-.18c.18-.33.35-.61.51-.85l.3.19A8.56,8.56,0,0,0,168,79Zm-60.43-.37-.51-.85.3-.18.51.84Zm26.22-.15a4.21,4.21,0,0,1-.95-.36l.15-.32a4.25,4.25,0,0,0,.88.33Zm1.38-.1-.12-.34a3.65,3.65,0,0,0,.82-.44l.2.3A4.62,4.62,0,0,1,135.17,78.42ZM172,77.69a4.4,4.4,0,0,0-.78-.52l.16-.32a5.15,5.15,0,0,1,.85.56Zm-81.53-.08-.31-.18.5-.85.31.19Zm33.31-.09-.31-.17c.18-.32.35-.6.52-.85l.3.2C124.14,77,124,77.22,123.8,77.52Zm7.88,0c-.27-.17-.54-.36-.82-.55l.21-.29.81.54Zm26.21-.21c-.11-.3-.21-.62-.31-.93l.34-.11c.1.31.2.62.31.93Zm11.41,0-.23-.28a1.86,1.86,0,0,1,1-.43l0,.36A1.4,1.4,0,0,0,169.3,77.25Zm18.29-.09-.32-.15c.14-.3.29-.6.43-.89l.32.16Zm-50.5-.09-.26-.25a9.53,9.53,0,0,0,.64-.73l.28.23Q137.42,76.73,137.09,77.07Zm-30.72-.36c-.17-.28-.34-.56-.52-.84l.31-.19c.17.28.34.56.52.84Zm118.12-.43-.21-.07-.22-.26.27-.23.22.26-.12.13h0Zm-94.7-.08-.82-.54.19-.3.83.54Zm-4.69-.5-.26-.25a3.87,3.87,0,0,1,.8-.65l.18.31A3.4,3.4,0,0,0,125.1,75.7Zm-33.42,0-.3-.2c.17-.27.35-.55.54-.83l.3.2C92,75.11,91.86,75.38,91.68,75.66Zm108.11,0a4.37,4.37,0,0,1-.92-.43l.18-.31a4.24,4.24,0,0,0,.85.4Zm1.4,0-.14-.33a2.5,2.5,0,0,0,.75-.51l.25.26A3,3,0,0,1,201.19,75.59Zm-62.66-.35-.3-.2c.17-.26.35-.54.52-.82l.31.18C138.88,74.69,138.71,75,138.53,75.24Zm50.09-.12L188.3,75l.49-.87.31.19C188.94,74.54,188.78,74.82,188.62,75.12Zm-31.44,0-.28-.94.34-.1c.1.31.19.62.29.94Zm-29.34,0a2.87,2.87,0,0,0-.89-.25l0-.36a3.33,3.33,0,0,1,1,.28Zm95.35-.1c-.19-.23-.41-.47-.65-.74l.27-.24.65.74Zm-118-.19q-.27-.42-.54-.81l.29-.21c.19.27.37.55.55.82Zm92.63-.35c-.25-.2-.51-.4-.77-.62l.23-.28c.25.22.51.42.76.62Zm5.12-.47-.31-.19q.24-.37.48-.84l.32.16C203.22,73.4,203.05,73.69,202.89,74ZM93,73.76l-.3-.21c.2-.27.39-.54.59-.8l.29.22C93.34,73.22,93.15,73.49,93,73.76Zm46.76-.5-.32-.17c.16-.28.31-.57.46-.87l.32.17C140,72.69,139.87,73,139.72,73.26Zm81.94,0-.68-.72.26-.25.68.72Zm-31.86-.08-.29-.21c.21-.29.42-.55.62-.78l.27.24Q190.12,72.76,189.8,73.18ZM196,73l-.76-.61.22-.28c.25.19.51.4.77.62Zm-92.15-.06q-.3-.41-.6-.78l.28-.22c.2.25.41.51.61.78Zm52.69,0-.28-1,.35-.1.27,1Zm-62.19-1-.27-.23c.22-.26.43-.51.65-.74l.27.24C94.77,71.44,94.56,71.69,94.34,71.94Zm109.6-.06-.33-.14c.13-.29.25-.6.37-.9l.34.13C204.19,71.28,204.07,71.59,203.94,71.88Zm-9.77-.27a4.33,4.33,0,0,0-.85-.41l.12-.34a4.71,4.71,0,0,1,.92.44Zm25.9,0c-.22-.23-.45-.47-.69-.7l.26-.26.69.71Zm-28.73,0-.21-.3a3.45,3.45,0,0,1,.92-.46l.11.34A3,3,0,0,0,191.34,71.58Zm-50.56-.36-.32-.16.43-.88.32.15C141.07,70.63,140.92,70.93,140.78,71.22Zm-38.39-.08c-.23-.24-.46-.47-.69-.68l.24-.26c.23.21.47.44.71.7Zm53.49-.46c-.09-.31-.18-.63-.28-.94l.35-.1c.09.31.18.63.28.94Zm-60-.38L95.67,70a8.29,8.29,0,0,1,.78-.63l.2.3A7.28,7.28,0,0,0,95.9,70.3ZM218.45,70l-.72-.67.25-.26.71.67Zm-13.65-.23-.34-.13,0-.05c.12-.29.23-.58.34-.87l.34.13c-.12.29-.23.58-.34.87Zm-104.11-.07a4.84,4.84,0,0,0-.84-.44l.14-.33a5.91,5.91,0,0,1,.89.47Zm41.1-.53-.33-.15.43-.89.33.16Zm-44-.05-.12-.34a2.92,2.92,0,0,1,.74-.14,1.41,1.41,0,0,1,.29,0l0,.35H98.4A2.51,2.51,0,0,0,97.76,69.1Zm57.45-.61-.3-.93.34-.12c.1.31.2.63.31.94Zm61.55-.06c-.24-.22-.49-.43-.74-.64l.24-.27.74.64Zm-11.11-.81-.33-.14c.13-.31.27-.61.41-.9l.32.15C205.92,67,205.78,67.32,205.65,67.62Zm-62.86-.53-.32-.16c.15-.3.29-.59.44-.88l.32.16C143.09,66.5,142.94,66.79,142.79,67.09ZM215,67l-.78-.6.21-.28c.26.19.53.39.79.6Zm-60.54-.64c-.11-.31-.23-.61-.35-.91l.33-.13.36.92Zm58.69-.7c-.28-.19-.56-.36-.82-.52l.18-.31c.27.16.55.34.84.53Zm-6.5,0-.31-.19a6.47,6.47,0,0,1,.6-.82l.27.24A5.7,5.7,0,0,0,206.67,65.6Zm-62.83-.54-.31-.17q.24-.45.48-.87l.31.18Zm67.36-.56a6.67,6.67,0,0,0-.89-.34l.1-.35c.3.1.62.22.94.36Zm-57.58-.29c-.14-.31-.28-.61-.43-.88l.32-.16c.15.27.29.57.44.89Zm54.57-.12-.14-.33a1.59,1.59,0,0,1,.47-.14,2.74,2.74,0,0,1,.5,0h.06v.36h0a3.15,3.15,0,0,0-.44,0A1.46,1.46,0,0,0,208.19,64.09ZM145,63.1l-.3-.2q.28-.43.57-.81l.29.21C145.38,62.55,145.19,62.81,145,63.1Zm7.53-.88a6.68,6.68,0,0,0-.57-.77l.28-.24c.2.25.4.52.59.81Zm-6.15-.9-.26-.25a6.59,6.59,0,0,1,.75-.68l.22.28A7,7,0,0,0,146.39,61.32Zm4.68-.75a3.65,3.65,0,0,0-.81-.46l.14-.33a3.89,3.89,0,0,1,.88.5Zm-2.89-.51-.12-.34a3.22,3.22,0,0,1,1-.19v.36A2.75,2.75,0,0,0,148.18,60.06Z" fill="#73cffe" opacity="0.4"/></g></g></svg>