<svg width="65" height="63" viewBox="0 0 65 63" fill="none" xmlns="http://www.w3.org/2000/svg">
<path d="M1 28.6144L6.60465 23.0098L4.5666 27.0859L1 28.6144Z" fill="#F2F2F2"/>
<path fill-rule="evenodd" clip-rule="evenodd" d="M6.89701 22.6042C7.09595 22.7475 7.16154 23.014 7.05187 23.2334L5.01382 27.3095C4.96093 27.4153 4.87226 27.4989 4.76356 27.5455L1.19697 29.074C0.976663 29.1684 0.720348 29.0932 0.585974 28.8947C0.451601 28.6963 0.476973 28.4304 0.646455 28.2609L6.25111 22.6562C6.42451 22.4828 6.69808 22.4608 6.89701 22.6042ZM3.18942 27.1321L4.2013 26.6985L4.77952 25.542L3.18942 27.1321Z" fill="#8E919A"/>
<path d="M56.3672 29.1261L50.7625 23.3516L52.8006 27.5512L56.3672 29.1261Z" fill="#F2F2F2"/>
<path fill-rule="evenodd" clip-rule="evenodd" d="M50.4756 22.9421C50.2745 23.083 50.2055 23.349 50.3127 23.5699L52.3508 27.7695C52.4025 27.876 52.4903 27.9608 52.5986 28.0086L56.1652 29.5835C56.3841 29.6801 56.6408 29.6081 56.7776 29.4117C56.9143 29.2153 56.8926 28.9495 56.726 28.7778L51.1213 23.0033C50.9503 22.8272 50.6767 22.8012 50.4756 22.9421ZM54.2194 27.6311L53.1703 27.1679L52.5709 25.9326L54.2194 27.6311Z" fill="#8E919A"/>
<path d="M6.60461 49.5046V23.1797L28.8534 36.427V62.2424L6.60461 49.5046Z" fill="#F2F2F2"/>
<path fill-rule="evenodd" clip-rule="evenodd" d="M6.35753 22.745C6.51387 22.6561 6.7059 22.6581 6.86041 22.7501L29.1092 35.9974C29.2606 36.0876 29.3534 36.2508 29.3534 36.427V62.2424C29.3534 62.4207 29.2584 62.5855 29.1042 62.675C28.9499 62.7644 28.7597 62.7649 28.605 62.6763L6.35619 49.9385C6.2006 49.8494 6.10461 49.6838 6.10461 49.5046V23.1797C6.10461 22.9999 6.20119 22.8339 6.35753 22.745ZM7.10461 24.0593V49.2147L28.3534 61.38V36.7113L7.10461 24.0593Z" fill="#8E919A"/>
<path d="M50.7625 49.6764V23.3516L28.6835 36.5989V62.4143L50.7625 49.6764Z" fill="#F2F2F2"/>
<path fill-rule="evenodd" clip-rule="evenodd" d="M51.0088 22.9165C50.852 22.8277 50.6597 22.8301 50.5052 22.9228L28.4263 36.1702C28.2757 36.2605 28.1835 36.4233 28.1835 36.5989V62.4143C28.1835 62.5929 28.2788 62.7579 28.4335 62.8473C28.5881 62.9366 28.7787 62.9366 28.9334 62.8474L51.0123 50.1095C51.1671 50.0202 51.2625 49.8551 51.2625 49.6764V23.3516C51.2625 23.1714 51.1656 23.0052 51.0088 22.9165ZM50.2625 24.2347V49.3877L29.1835 61.5486V36.882L50.2625 24.2347Z" fill="#8E919A"/>
<path d="M6.49329 22.9824L28.6379 10.6154L50.7539 23.2791L28.6379 36.0911L6.49329 22.9824Z" fill="#ECEAEC"/>
<path fill-rule="evenodd" clip-rule="evenodd" d="M5.99342 22.9761C5.99567 22.7972 6.09336 22.6331 6.24959 22.5459L28.3942 10.1788C28.5474 10.0933 28.7342 10.0943 28.8864 10.1815L51.0024 22.8452C51.1576 22.934 51.2535 23.099 51.254 23.2778C51.2544 23.4566 51.1594 23.6221 51.0046 23.7117L28.8886 36.5237C28.7321 36.6144 28.5389 36.6134 28.3833 36.5213L6.23868 23.4127C6.0847 23.3215 5.99117 23.1551 5.99342 22.9761ZM7.49625 22.995L28.6407 35.5116L49.7522 23.2816L28.6349 11.1898L7.49625 22.995Z" fill="#8E919A"/>
<path fill-rule="evenodd" clip-rule="evenodd" d="M28.1835 35.8079V10.6719H29.1835V35.8079H28.1835Z" fill="#8E919A"/>
<path d="M28.6836 36.0874L6.60466 23.1797L1.50952 33.37L23.7583 46.4475L28.6836 36.0874Z" fill="#F2F2F2"/>
<path fill-rule="evenodd" clip-rule="evenodd" d="M6.46209 22.7004C6.59463 22.661 6.73759 22.6783 6.85696 22.748L28.9359 35.6557C29.16 35.7868 29.2466 36.0676 29.1351 36.3021L24.2098 46.6622C24.1496 46.7888 24.039 46.8843 23.905 46.9255C23.7709 46.9666 23.6258 46.9496 23.5049 46.8785L1.25611 33.801C1.02937 33.6677 0.944643 33.3816 1.06226 33.1464L6.1574 22.9561C6.21924 22.8324 6.32954 22.7398 6.46209 22.7004ZM6.8131 23.8807L2.16564 33.1757L23.541 45.7398L28.0349 36.2873L6.8131 23.8807Z" fill="#8E919A"/>
<path d="M28.6837 36.165L50.7627 23.3516L55.8578 33.4675L33.609 46.4495L28.6837 36.165Z" fill="#F2F2F2"/>
<path fill-rule="evenodd" clip-rule="evenodd" d="M50.9052 22.8723C50.7731 22.833 50.6307 22.85 50.5116 22.9191L28.4327 35.7326C28.2071 35.8635 28.12 36.1458 28.2327 36.381L33.158 46.6655C33.2183 46.7915 33.3286 46.8865 33.4621 46.9275C33.5957 46.9685 33.7403 46.9518 33.8609 46.8814L56.1097 33.8993C56.3379 33.7662 56.4231 33.4785 56.3043 33.2425L51.2091 23.1266C51.1472 23.0036 51.0372 22.9116 50.9052 22.8723ZM50.5547 24.0503L55.1997 33.2725L33.8256 45.7442L29.3341 36.3656L50.5547 24.0503Z" fill="#8E919A"/>
<path d="M33.4012 20.9608C30.701 20.6866 28.0567 21.4381 25.9472 23.0736C24.3567 24.3093 23.2069 25.9543 22.612 27.8322C21.8872 30.1451 22.091 32.6135 23.1246 34.755C23.1272 34.766 23.9218 36.1721 24.4502 36.7937C26.1609 38.8133 28.5855 40.0796 31.2821 40.3516C31.9297 40.419 32.5926 40.425 33.2363 40.3773C33.2478 40.3747 33.2721 40.3751 33.287 40.3747C35.2739 40.1988 37.1641 39.4762 38.7374 38.2443C40.3349 37.0128 41.4848 35.3678 42.0726 33.4856C43.0395 30.3911 42.3621 27.0424 40.2414 24.5284C38.533 22.5053 36.0978 21.2328 33.4012 20.9608ZM40.4242 33.1773C40.2019 33.8908 39.8802 34.5684 39.4737 35.1954C37.3887 38.4114 33.2965 39.8913 29.5152 38.7968C26.452 37.9106 24.1314 35.4933 23.4632 32.4934C23.4329 32.3436 23.4625 32.192 23.546 32.0632C23.6339 31.9276 23.7717 31.8361 23.9321 31.8003C24.0996 31.7688 24.2704 31.8003 24.4038 31.8895C24.5358 31.9732 24.6222 32.1047 24.6547 32.2511C25.2341 34.8359 27.2298 36.9226 29.8654 37.6895C33.1233 38.6309 36.6519 37.3549 38.4491 34.5828C38.7985 34.0439 39.0758 33.4573 39.268 32.8434L39.2785 32.812L39.336 32.7006C39.4788 32.4804 39.7581 32.3746 40.0203 32.4467C40.3455 32.5424 40.5236 32.8652 40.4242 33.1773Z" fill="#F2F2F2" fill-opacity="0.9"/>
<path d="M42.6993 30.9814C42.6993 36.7389 38.032 41.4062 32.2745 41.4062C26.5171 41.4062 21.8497 36.7389 21.8497 30.9814C21.8497 25.224 26.5171 20.5566 32.2745 20.5566C38.032 20.5566 42.6993 25.224 42.6993 30.9814Z" fill="#F8F8F8"/>
<path fill-rule="evenodd" clip-rule="evenodd" d="M35.675 34.8639L28.153 27.3419L29.5673 25.9277L37.0892 33.4497L35.675 34.8639Z" fill="#8E919A"/>
<path fill-rule="evenodd" clip-rule="evenodd" d="M28.9442 34.8639L36.4661 27.3419L35.0519 25.9277L27.53 33.4497L28.9442 34.8639Z" fill="#8E919A"/>
<path d="M1 28.6144L6.60465 23.0098L4.5666 27.0859L1 28.6144Z" fill="#14151A"/>
<path fill-rule="evenodd" clip-rule="evenodd" d="M6.89701 22.6042C7.09595 22.7475 7.16154 23.014 7.05187 23.2334L5.01382 27.3095C4.96093 27.4153 4.87226 27.4989 4.76356 27.5455L1.19697 29.074C0.976663 29.1684 0.720348 29.0932 0.585974 28.8947C0.451601 28.6963 0.476973 28.4304 0.646455 28.2609L6.25111 22.6562C6.42451 22.4828 6.69808 22.4608 6.89701 22.6042ZM3.18942 27.1321L4.2013 26.6985L4.77952 25.542L3.18942 27.1321Z" fill="#434858"/>
<path d="M56.3672 29.1261L50.7625 23.3516L52.8006 27.5512L56.3672 29.1261Z" fill="#14151A"/>
<path fill-rule="evenodd" clip-rule="evenodd" d="M50.4756 22.9421C50.2745 23.083 50.2055 23.349 50.3127 23.5699L52.3508 27.7695C52.4025 27.876 52.4903 27.9608 52.5986 28.0086L56.1652 29.5835C56.3841 29.6801 56.6408 29.6081 56.7776 29.4117C56.9143 29.2153 56.8926 28.9495 56.726 28.7778L51.1213 23.0033C50.9503 22.8272 50.6767 22.8012 50.4756 22.9421ZM54.2194 27.6311L53.1703 27.1679L52.5709 25.9326L54.2194 27.6311Z" fill="#434858"/>
<path d="M6.60461 49.5046V23.1797L28.8534 36.427V62.2424L6.60461 49.5046Z" fill="#14151A"/>
<path fill-rule="evenodd" clip-rule="evenodd" d="M6.35753 22.745C6.51387 22.6561 6.7059 22.6581 6.86041 22.7501L29.1092 35.9974C29.2606 36.0876 29.3534 36.2508 29.3534 36.427V62.2424C29.3534 62.4207 29.2584 62.5855 29.1042 62.675C28.9499 62.7644 28.7597 62.7649 28.605 62.6763L6.35619 49.9385C6.2006 49.8494 6.10461 49.6838 6.10461 49.5046V23.1797C6.10461 22.9999 6.20119 22.8339 6.35753 22.745ZM7.10461 24.0593V49.2147L28.3534 61.38V36.7113L7.10461 24.0593Z" fill="#434858"/>
<path d="M50.7625 49.6764V23.3516L28.6835 36.5989V62.4143L50.7625 49.6764Z" fill="#14151A"/>
<path fill-rule="evenodd" clip-rule="evenodd" d="M51.0088 22.9165C50.852 22.8277 50.6597 22.8301 50.5052 22.9228L28.4263 36.1702C28.2757 36.2605 28.1835 36.4233 28.1835 36.5989V62.4143C28.1835 62.5929 28.2788 62.7579 28.4335 62.8473C28.5881 62.9366 28.7787 62.9366 28.9334 62.8474L51.0123 50.1095C51.1671 50.0202 51.2625 49.8551 51.2625 49.6764V23.3516C51.2625 23.1714 51.1656 23.0052 51.0088 22.9165ZM50.2625 24.2347V49.3877L29.1835 61.5486V36.882L50.2625 24.2347Z" fill="#434858"/>
<path d="M6.49329 22.9824L28.6379 10.6154L50.7539 23.2791L28.6379 36.0911L6.49329 22.9824Z" fill="#30323E"/>
<path fill-rule="evenodd" clip-rule="evenodd" d="M5.99342 22.9761C5.99567 22.7972 6.09336 22.6331 6.24959 22.5459L28.3942 10.1788C28.5474 10.0933 28.7342 10.0943 28.8864 10.1815L51.0024 22.8452C51.1576 22.934 51.2535 23.099 51.254 23.2778C51.2544 23.4566 51.1594 23.6221 51.0046 23.7117L28.8886 36.5237C28.7321 36.6144 28.5389 36.6134 28.3833 36.5213L6.23868 23.4127C6.0847 23.3215 5.99117 23.1551 5.99342 22.9761ZM7.49625 22.995L28.6407 35.5116L49.7522 23.2816L28.6349 11.1898L7.49625 22.995Z" fill="#434858"/>
<path fill-rule="evenodd" clip-rule="evenodd" d="M28.1835 35.8079V10.6719H29.1835V35.8079H28.1835Z" fill="#434858"/>
<path d="M28.6836 36.0874L6.60466 23.1797L1.50952 33.37L23.7583 46.4475L28.6836 36.0874Z" fill="#14151A"/>
<path fill-rule="evenodd" clip-rule="evenodd" d="M6.46209 22.7004C6.59463 22.661 6.73759 22.6783 6.85696 22.748L28.9359 35.6557C29.16 35.7868 29.2466 36.0676 29.1351 36.3021L24.2098 46.6622C24.1496 46.7888 24.039 46.8843 23.905 46.9255C23.7709 46.9666 23.6258 46.9496 23.5049 46.8785L1.25611 33.801C1.02937 33.6677 0.944643 33.3816 1.06226 33.1464L6.1574 22.9561C6.21924 22.8324 6.32954 22.7398 6.46209 22.7004ZM6.8131 23.8807L2.16564 33.1757L23.541 45.7398L28.0349 36.2873L6.8131 23.8807Z" fill="#434858"/>
<path d="M28.6837 36.165L50.7627 23.3516L55.8578 33.4675L33.609 46.4495L28.6837 36.165Z" fill="#14151A"/>
<path fill-rule="evenodd" clip-rule="evenodd" d="M50.9052 22.8723C50.7731 22.833 50.6307 22.85 50.5116 22.9191L28.4327 35.7326C28.2071 35.8635 28.12 36.1458 28.2327 36.381L33.158 46.6655C33.2183 46.7915 33.3286 46.8865 33.4621 46.9275C33.5957 46.9685 33.7403 46.9518 33.8609 46.8814L56.1097 33.8993C56.3379 33.7662 56.4231 33.4785 56.3043 33.2425L51.2091 23.1266C51.1472 23.0036 51.0372 22.9116 50.9052 22.8723ZM50.5547 24.0503L55.1997 33.2725L33.8256 45.7442L29.3341 36.3656L50.5547 24.0503Z" fill="#434858"/>
<path d="M33.6467 18.6005C30.3233 18.2458 27.0624 19.206 24.459 21.3129C22.4292 22.9404 21.0554 25.0881 20.3542 27.3996C19.2048 31.2315 19.9039 35.5426 22.6075 38.8801C26.5652 43.7597 33.449 44.8753 38.7042 41.7865L41.8708 45.7101C41.8441 45.7765 41.8138 45.8408 41.7941 45.9117C41.7354 46.1001 41.6922 46.303 41.6755 46.5028C41.5914 47.3451 41.8288 48.1673 42.3684 48.835L47.2823 54.8858C48.3796 56.2473 50.3928 56.4622 51.75 55.3552C53.1177 54.2548 53.3266 52.2533 52.2223 50.8874L47.3084 44.8366C46.7794 44.1755 46.0217 43.7632 45.1703 43.674C44.839 43.6392 44.5123 43.6757 44.1923 43.7407L41.1278 39.9443C43.2004 37.9181 44.4901 35.2684 44.7957 32.3492C45.152 29.0265 44.1756 25.7653 42.0718 23.172C39.9666 20.573 36.9794 18.956 33.6467 18.6005Z" fill="#8E919A"/>
<path d="M33.4012 20.9459C30.701 20.6609 28.0567 21.4421 25.9472 23.1423C24.3567 24.4269 23.2069 26.137 22.612 28.0892C21.8872 30.4936 22.091 33.0596 23.1246 35.2858C23.1272 35.2973 23.9217 36.759 24.4502 37.4052C26.1609 39.5048 28.5855 40.8211 31.2821 41.1039C31.9297 41.1739 32.5925 41.1802 33.2363 41.1306C33.2478 41.1279 33.272 41.1283 33.287 41.1279C35.2739 40.9451 37.1641 40.1938 38.7374 38.9132C40.3349 37.633 41.4847 35.923 42.0726 33.9663C43.0395 30.7494 42.3621 27.2681 40.2414 24.6547C38.533 22.5516 36.0977 21.2287 33.4012 20.9459ZM40.4242 33.6457C40.2018 34.3874 39.8802 35.0919 39.4737 35.7436C37.3887 39.0869 33.2965 40.6253 29.5152 39.4875C26.452 38.5663 24.1314 36.0534 23.4632 32.9348C23.4328 32.779 23.4625 32.6214 23.546 32.4876C23.6339 32.3467 23.7717 32.2515 23.9321 32.2143C24.0996 32.1815 24.2704 32.2143 24.4038 32.307C24.5358 32.394 24.6222 32.5307 24.6547 32.6829C25.2341 35.37 27.2298 37.5392 29.8654 38.3364C33.1233 39.3151 36.6519 37.9886 38.4491 35.1068C38.7984 34.5467 39.0758 33.9369 39.2679 33.2986L39.2784 33.266L39.336 33.1502C39.4788 32.9212 39.7581 32.8113 40.0203 32.8863C40.3455 32.9858 40.5236 33.3213 40.4242 33.6457Z" fill="#F2F2F2" fill-opacity="0.9"/>
<path d="M42.6993 30.9814C42.6993 36.7389 38.032 41.4062 32.2745 41.4062C26.5171 41.4062 21.8497 36.7389 21.8497 30.9814C21.8497 25.224 26.5171 20.5566 32.2745 20.5566C38.032 20.5566 42.6993 25.224 42.6993 30.9814Z" fill="#14151A"/>
<path fill-rule="evenodd" clip-rule="evenodd" d="M35.6749 34.8649L28.1529 27.343L29.1815 26.3145L36.7034 33.8364L35.6749 34.8649Z" fill="#8E919A"/>
<path fill-rule="evenodd" clip-rule="evenodd" d="M28.9442 34.8649L36.4661 27.343L35.4375 26.3145L27.9156 33.8364L28.9442 34.8649Z" fill="#8E919A"/>
</svg>
