<svg viewBox="0 0 82 72" fill="none" xmlns="http://www.w3.org/2000/svg" class="advantages-name"><path data-v-f9cc6628="" d="M48.892 49.483C46.786 51.161 44.236 52 41.242 52c-2.993 0-5.559-.839-7.697-2.517-2.106-1.71-3.62-3.816-4.54-6.316-.921-2.5-1.382-5.23-1.382-8.192 0-2.96.46-5.691 1.382-8.191.92-2.5 2.434-4.59 4.54-6.267C35.683 18.839 38.249 18 41.243 18c2.993 0 5.543.839 7.649 2.517 2.105 1.678 3.618 3.767 4.54 6.267.953 2.5 1.43 5.23 1.43 8.191 0 2.961-.477 5.692-1.43 8.192-.922 2.5-2.435 4.606-4.54 6.316zm-12.584-6.661c1.053 1.973 2.698 2.96 4.935 2.96 2.237 0 3.865-.987 4.885-2.96 1.053-1.974 1.58-4.59 1.58-7.847 0-3.257-.527-5.856-1.58-7.797-1.02-1.973-2.648-2.96-4.885-2.96-2.237 0-3.882.987-4.935 2.96-1.053 1.941-1.579 4.54-1.579 7.797 0 3.257.526 5.873 1.58 7.846z" fill="url(#section2-icon-4_svg__paint0_linear)"></path><defs data-v-f9cc6628=""><linearGradient data-v-f9cc6628="" id="section2-icon-4_svg__paint0_linear" x1="27.623" y1="35" x2="54.862" y2="35" gradientUnits="userSpaceOnUse"><stop data-v-f9cc6628="" stop-color="#0082FA"></stop><stop data-v-f9cc6628="" offset="1" stop-color="#00F2FE"></stop></linearGradient></defs></svg>
