<svg xmlns="http://www.w3.org/2000/svg" xmlns:xlink="http://www.w3.org/1999/xlink" viewBox="0 0 241.1 133.95"><defs><radialGradient id="铃琨眄_沭噤桢眚_26" cx="140.09" cy="61.66" r="4.23" gradientTransform="translate(84.63 -81) rotate(45)" gradientUnits="userSpaceOnUse"><stop offset="0" stop-color="#42e8e0"/><stop offset="0.02" stop-color="#3fd8d7"/><stop offset="0.1" stop-color="#36a9ba"/><stop offset="0.18" stop-color="#2e7fa0"/><stop offset="0.26" stop-color="#275c8b"/><stop offset="0.35" stop-color="#223f79"/><stop offset="0.44" stop-color="#1d296c"/><stop offset="0.54" stop-color="#1a1962"/><stop offset="0.66" stop-color="#19105d"/><stop offset="0.82" stop-color="#180d5b"/></radialGradient><radialGradient id="铃琨眄_沭噤桢眚_26-2" cx="97.39" cy="86.36" r="4.23" gradientTransform="translate(159.18 -28.21) rotate(76.78)" xlink:href="#铃琨眄_沭噤桢眚_26"/><radialGradient id="铃琨眄_沭噤桢眚_26-3" cx="190.06" cy="109.33" r="4.23" gradientTransform="translate(132.98 -102.37) rotate(45)" xlink:href="#铃琨眄_沭噤桢眚_26"/><radialGradient id="铃琨眄_沭噤桢眚_26-4" cx="197.91" cy="104.7" r="4.23" gradientTransform="translate(254.34 -111.97) rotate(76.72)" xlink:href="#铃琨眄_沭噤桢眚_26"/><radialGradient id="铃琨眄_沭噤桢眚_26-5" cx="205.76" cy="100.15" r="4.23" gradientTransform="translate(255.96 -123.12) rotate(76.72)" xlink:href="#铃琨眄_沭噤桢眚_26"/><linearGradient id="铃琨眄_沭噤桢眚_107" x1="120.16" y1="64.51" x2="166.57" y2="64.51" gradientUnits="userSpaceOnUse"><stop offset="0" stop-color="#42e8e0"/><stop offset="0.1" stop-color="#3ccace"/><stop offset="0.34" stop-color="#2f87a5"/><stop offset="0.56" stop-color="#255385"/><stop offset="0.75" stop-color="#1e2d6e"/><stop offset="0.91" stop-color="#1a1660"/><stop offset="1" stop-color="#180d5b"/></linearGradient><linearGradient id="铃琨眄_沭噤桢眚_59" x1="153.62" y1="64.51" x2="176.83" y2="64.51" gradientUnits="userSpaceOnUse"><stop offset="0" stop-color="#2b237c"/><stop offset="1" stop-color="#180d5b"/></linearGradient><linearGradient id="铃琨眄_沭噤桢眚_107-2" x1="130.42" y1="59.38" x2="176.83" y2="59.38" xlink:href="#铃琨眄_沭噤桢眚_107"/><linearGradient id="铃琨眄_沭噤桢眚_107-3" x1="130.42" y1="59.38" x2="154.11" y2="59.38" xlink:href="#铃琨眄_沭噤桢眚_107"/><linearGradient id="铃琨眄_沭噤桢眚_107-4" x1="136.73" y1="72.89" x2="175.58" y2="47.5" xlink:href="#铃琨眄_沭噤桢眚_107"/><linearGradient id="铃琨眄_沭噤桢眚_107-5" x1="88.12" y1="83.03" x2="134.53" y2="83.03" xlink:href="#铃琨眄_沭噤桢眚_107"/><linearGradient id="铃琨眄_沭噤桢眚_59-2" x1="121.58" y1="83.03" x2="144.79" y2="83.03" xlink:href="#铃琨眄_沭噤桢眚_59"/><linearGradient id="铃琨眄_沭噤桢眚_107-6" x1="98.38" y1="77.91" x2="144.79" y2="77.91" xlink:href="#铃琨眄_沭噤桢眚_107"/><linearGradient id="铃琨眄_沭噤桢眚_107-7" x1="98.38" y1="77.91" x2="122.07" y2="77.91" xlink:href="#铃琨眄_沭噤桢眚_107"/><linearGradient id="铃琨眄_沭噤桢眚_107-8" x1="104.69" y1="91.41" x2="143.54" y2="66.02" xlink:href="#铃琨眄_沭噤桢眚_107"/><linearGradient id="铃琨眄_沭噤桢眚_107-9" x1="152.2" y1="82.88" x2="198.61" y2="82.88" xlink:href="#铃琨眄_沭噤桢眚_107"/><linearGradient id="铃琨眄_沭噤桢眚_59-3" x1="185.66" y1="82.87" x2="208.86" y2="82.87" xlink:href="#铃琨眄_沭噤桢眚_59"/><linearGradient id="铃琨眄_沭噤桢眚_107-10" x1="162.46" y1="77.75" x2="208.87" y2="77.75" xlink:href="#铃琨眄_沭噤桢眚_107"/><linearGradient id="铃琨眄_沭噤桢眚_107-11" x1="162.46" y1="77.75" x2="186.14" y2="77.75" xlink:href="#铃琨眄_沭噤桢眚_107"/><linearGradient id="铃琨眄_沭噤桢眚_107-12" x1="168.77" y1="91.25" x2="207.61" y2="65.86" xlink:href="#铃琨眄_沭噤桢眚_107"/><linearGradient id="铃琨眄_沭噤桢眚_107-13" x1="120.16" y1="50.48" x2="166.57" y2="50.48" xlink:href="#铃琨眄_沭噤桢眚_107"/><linearGradient id="铃琨眄_沭噤桢眚_59-4" x1="153.62" y1="50.48" x2="176.83" y2="50.48" xlink:href="#铃琨眄_沭噤桢眚_59"/><linearGradient id="铃琨眄_沭噤桢眚_107-14" x1="130.42" y1="45.36" x2="176.83" y2="45.36" xlink:href="#铃琨眄_沭噤桢眚_107"/><linearGradient id="铃琨眄_沭噤桢眚_107-15" x1="130.42" y1="45.36" x2="154.11" y2="45.36" xlink:href="#铃琨眄_沭噤桢眚_107"/><linearGradient id="铃琨眄_沭噤桢眚_107-16" x1="136.73" y1="58.86" x2="175.58" y2="33.47" xlink:href="#铃琨眄_沭噤桢眚_107"/><linearGradient id="铃琨眄_沭噤桢眚_107-17" x1="88.12" y1="69.01" x2="134.53" y2="69.01" xlink:href="#铃琨眄_沭噤桢眚_107"/><linearGradient id="铃琨眄_沭噤桢眚_59-5" x1="121.58" y1="69" x2="144.79" y2="69" xlink:href="#铃琨眄_沭噤桢眚_59"/><linearGradient id="铃琨眄_沭噤桢眚_107-18" x1="98.38" y1="63.88" x2="144.79" y2="63.88" xlink:href="#铃琨眄_沭噤桢眚_107"/><linearGradient id="铃琨眄_沭噤桢眚_107-19" x1="98.38" y1="63.88" x2="122.07" y2="63.88" xlink:href="#铃琨眄_沭噤桢眚_107"/><linearGradient id="铃琨眄_沭噤桢眚_107-20" x1="104.69" y1="77.38" x2="143.54" y2="51.99" xlink:href="#铃琨眄_沭噤桢眚_107"/><linearGradient id="铃琨眄_沭噤桢眚_107-21" x1="152.2" y1="68.85" x2="198.61" y2="68.85" xlink:href="#铃琨眄_沭噤桢眚_107"/><linearGradient id="铃琨眄_沭噤桢眚_59-6" x1="185.66" y1="68.85" x2="208.86" y2="68.85" xlink:href="#铃琨眄_沭噤桢眚_59"/><linearGradient id="铃琨眄_沭噤桢眚_107-22" x1="162.46" y1="63.72" x2="208.87" y2="63.72" xlink:href="#铃琨眄_沭噤桢眚_107"/><linearGradient id="铃琨眄_沭噤桢眚_107-23" x1="162.46" y1="63.72" x2="186.14" y2="63.72" xlink:href="#铃琨眄_沭噤桢眚_107"/><linearGradient id="铃琨眄_沭噤桢眚_107-24" x1="168.77" y1="77.23" x2="207.61" y2="51.84" xlink:href="#铃琨眄_沭噤桢眚_107"/><linearGradient id="铃琨眄_沭噤桢眚_107-25" x1="120.16" y1="101.4" x2="166.57" y2="101.4" xlink:href="#铃琨眄_沭噤桢眚_107"/><linearGradient id="铃琨眄_沭噤桢眚_59-7" x1="153.62" y1="101.4" x2="176.83" y2="101.4" xlink:href="#铃琨眄_沭噤桢眚_59"/><linearGradient id="铃琨眄_沭噤桢眚_107-26" x1="130.42" y1="96.27" x2="176.83" y2="96.27" xlink:href="#铃琨眄_沭噤桢眚_107"/><linearGradient id="铃琨眄_沭噤桢眚_107-27" x1="130.42" y1="96.27" x2="154.11" y2="96.27" xlink:href="#铃琨眄_沭噤桢眚_107"/><linearGradient id="铃琨眄_沭噤桢眚_107-28" x1="136.73" y1="109.78" x2="175.58" y2="84.39" xlink:href="#铃琨眄_沭噤桢眚_107"/><linearGradient id="铃琨眄_沭噤桢眚_107-29" x1="120.16" y1="87.37" x2="166.57" y2="87.37" xlink:href="#铃琨眄_沭噤桢眚_107"/><linearGradient id="铃琨眄_沭噤桢眚_59-8" x1="153.62" y1="87.37" x2="176.83" y2="87.37" xlink:href="#铃琨眄_沭噤桢眚_59"/><linearGradient id="铃琨眄_沭噤桢眚_107-30" x1="130.42" y1="82.24" x2="176.83" y2="82.24" xlink:href="#铃琨眄_沭噤桢眚_107"/><linearGradient id="铃琨眄_沭噤桢眚_107-31" x1="130.42" y1="82.25" x2="154.11" y2="82.25" xlink:href="#铃琨眄_沭噤桢眚_107"/><linearGradient id="铃琨眄_沭噤桢眚_107-32" x1="136.73" y1="95.75" x2="175.58" y2="70.36" xlink:href="#铃琨眄_沭噤桢眚_107"/><linearGradient id="铃琨眄_沭噤桢眚_370" x1="121.59" y1="74.67" x2="121.59" y2="8.42" gradientUnits="userSpaceOnUse"><stop offset="0.01" stop-color="#25bfec"/><stop offset="0.05" stop-color="#24b4e1"/><stop offset="0.22" stop-color="#1f83b0"/><stop offset="0.39" stop-color="#1b5a86"/><stop offset="0.56" stop-color="#173a66"/><stop offset="0.72" stop-color="#152350"/><stop offset="0.87" stop-color="#131642"/><stop offset="1" stop-color="#13113d"/></linearGradient><radialGradient id="铃琨眄_沭噤桢眚_26-6" cx="-1557.59" cy="274.9" r="16.81" gradientTransform="matrix(0.87, 0.5, -0.87, 0.5, 1766.2, 686.03)" xlink:href="#铃琨眄_沭噤桢眚_26"/><radialGradient id="铃琨眄_沭噤桢眚_26-7" cx="-1523.14" cy="283.68" r="16.81" gradientTransform="matrix(0.87, 0.5, -0.87, 0.5, 1766.2, 686.03)" xlink:href="#铃琨眄_沭噤桢眚_26"/><radialGradient id="铃琨眄_沭噤桢眚_26-8" cx="-1557.63" cy="296.53" r="12.92" gradientTransform="matrix(0.87, 0.5, -0.87, 0.5, 1766.2, 686.03)" xlink:href="#铃琨眄_沭噤桢眚_26"/><radialGradient id="铃琨眄_沭噤桢眚_26-9" cx="179.45" cy="45.11" r="2.95" gradientTransform="matrix(1, 0, 0, 1, 0, 0)" xlink:href="#铃琨眄_沭噤桢眚_26"/><radialGradient id="铃琨眄_沭噤桢眚_26-10" cx="160.5" cy="56.08" r="2.95" gradientTransform="matrix(1, 0, 0, 1, 0, 0)" xlink:href="#铃琨眄_沭噤桢眚_26"/><radialGradient id="铃琨眄_沭噤桢眚_26-11" cx="199.64" cy="67.43" r="2.95" gradientTransform="matrix(1, 0, 0, 1, 0, 0)" xlink:href="#铃琨眄_沭噤桢眚_26"/><radialGradient id="铃琨眄_沭噤桢眚_26-12" cx="205.11" cy="64.21" r="2.95" gradientTransform="matrix(1, 0, 0, 1, 0, 0)" xlink:href="#铃琨眄_沭噤桢眚_26"/><radialGradient id="铃琨眄_沭噤桢眚_26-13" cx="210.58" cy="61.03" r="2.95" gradientTransform="matrix(1, 0, 0, 1, 0, 0)" xlink:href="#铃琨眄_沭噤桢眚_26"/></defs><g style="isolation:isolate"><g id="图层_1" data-name="图层 1"><path d="M153.65,128.43a9.85,9.85,0,0,1-4.81-1.11L92.74,94.93A3.36,3.36,0,0,1,90.8,92.1c0-1.33,1-2.66,2.73-3.67L148.06,57c3.26-1.88,8.21-2.08,11-.45l56.1,32.39a3.36,3.36,0,0,1,2,2.83c0,1.33-1,2.67-2.73,3.67l-54.53,31.48A12.81,12.81,0,0,1,153.65,128.43Zm-4.7-1.29c2.77,1.6,7.63,1.4,10.84-.45l54.52-31.48c1.67-1,2.63-2.24,2.63-3.49a3.17,3.17,0,0,0-1.84-2.65L159,56.68c-2.77-1.6-7.63-1.39-10.84.46L93.63,88.62C92,89.58,91,90.85,91,92.1a3.16,3.16,0,0,0,1.84,2.65Z" fill="#6ee8fc"/><circle cx="140.09" cy="61.66" r="4.23" transform="translate(-2.57 117.12) rotate(-45)" fill="url(#铃琨眄_沭噤桢眚_26)" style="mix-blend-mode:lighten"/><circle cx="140.09" cy="61.66" r="1.21" fill="#6ee8fc"/><circle cx="97.39" cy="86.36" r="4.23" transform="translate(-8.96 161.41) rotate(-76.78)" fill="url(#铃琨眄_沭噤桢眚_26-2)" style="mix-blend-mode:lighten"/><path d="M98.6,86.36a1.21,1.21,0,1,1-1.21-1.21A1.21,1.21,0,0,1,98.6,86.36Z" fill="#6ee8fc"/><circle cx="190.06" cy="109.33" r="4.23" transform="translate(-21.64 166.42) rotate(-45)" fill="url(#铃琨眄_沭噤桢眚_26-3)" style="mix-blend-mode:lighten"/><circle cx="190.06" cy="109.33" r="1.21" fill="#6ee8fc"/><circle cx="197.91" cy="104.7" r="4.23" transform="translate(50.54 273.26) rotate(-76.72)" fill="url(#铃琨眄_沭噤桢眚_26-4)" style="mix-blend-mode:lighten"/><circle cx="197.91" cy="104.7" r="1.21" fill="#6ee8fc"/><circle cx="205.76" cy="100.15" r="4.23" transform="translate(61.02 277.4) rotate(-76.72)" fill="url(#铃琨眄_沭噤桢眚_26-5)" style="mix-blend-mode:lighten"/><path d="M207,100.15a1.21,1.21,0,1,1-1.21-1.21A1.21,1.21,0,0,1,207,100.15Z" fill="#6ee8fc"/><path d="M151.2,85,133.58,74.84c-1.34-.78-1.17-2.13.37-3l16.87-9.74a5.84,5.84,0,0,1,5.23-.22L173.67,72c1.34.77,1.17,2.12-.37,3L156.42,84.8A5.81,5.81,0,0,1,151.2,85Z" fill="#0b0244" opacity="0.5"/><path d="M176.82,63V59.38h-9.4L156.31,53a6.42,6.42,0,0,0-5.79.24l-10.69,6.17h-9.41v3.85h0a1.68,1.68,0,0,0,1,1.55l19.52,11.27a6.42,6.42,0,0,0,5.79-.24L175.41,65C176.4,64.45,176.88,63.71,176.82,63Z" fill="#312a91"/><path d="M176.82,63V59.38h-9.4L156.31,53a6.42,6.42,0,0,0-5.79.24l-10.69,6.17h-9.41v3.85h0a1.68,1.68,0,0,0,1,1.55l19.52,11.27a6.42,6.42,0,0,0,5.79-.24L175.41,65C176.4,64.45,176.88,63.71,176.82,63Z" opacity="0.5" fill="url(#铃琨眄_沭噤桢眚_107)"/><path d="M156.31,53a5.3,5.3,0,0,0-2.69-.58V76.63a6.67,6.67,0,0,0,3.11-.82L175.41,65c1-.57,1.47-1.31,1.41-2V59.38h-9.4Z" fill="url(#铃琨眄_沭噤桢眚_59)"/><path d="M150.94,72.2,131.42,60.93c-1.48-.85-1.3-2.35.42-3.34L150.52,46.8a6.49,6.49,0,0,1,5.79-.24l19.52,11.27c1.48.86,1.29,2.36-.42,3.34L156.73,72A6.42,6.42,0,0,1,150.94,72.2Z" fill="#312a91"/><path d="M150.94,72.2,131.42,60.93c-1.48-.85-1.3-2.35.42-3.34L150.52,46.8a6.49,6.49,0,0,1,5.79-.24l19.52,11.27c1.48.86,1.29,2.36-.42,3.34L156.73,72A6.42,6.42,0,0,1,150.94,72.2Z" opacity="0.5" fill="url(#铃琨眄_沭噤桢眚_107-2)"/><path d="M151.46,69.71l-15.72-9.08c-1.2-.69-1.05-1.89.33-2.69l15.06-8.69a5.17,5.17,0,0,1,4.66-.19l15.72,9.07c1.2.69,1.05,1.9-.33,2.7l-15.06,8.69A5.17,5.17,0,0,1,151.46,69.71Z" fill="#5cfff3"/><path d="M136.07,59.12l15.06-8.69a5.17,5.17,0,0,1,4.66-.2l15.72,9.08a1.68,1.68,0,0,1,.64.59,1.25,1.25,0,0,0-.64-1.77l-15.72-9.07a5.17,5.17,0,0,0-4.66.19l-15.06,8.69c-1,.6-1.38,1.43-1,2.1A2.48,2.48,0,0,1,136.07,59.12Z" fill="#42e8e0"/><path d="M151.59,72.2,132.08,60.93c-1.49-.85-1.84-2.11.41-3.34L151.18,46.8a6.7,6.7,0,0,1,2.93-.8,6.78,6.78,0,0,0-3.59.8L131.84,57.59c-1.72,1-1.9,2.49-.42,3.34L150.94,72.2a5.31,5.31,0,0,0,2.86.57A4.91,4.91,0,0,1,151.59,72.2Z" opacity="0.5" fill="url(#铃琨眄_沭噤桢眚_107-3)"/><path d="M175.41,62.8,156.73,73.59a6.42,6.42,0,0,1-5.79.24L131.42,62.56a1.68,1.68,0,0,1-1-1.55h0v.8h0a1.68,1.68,0,0,0,1,1.55l19.52,11.27a6.46,6.46,0,0,0,5.79-.24L175.41,63.6c1-.57,1.47-1.31,1.41-2v-.8C176.88,61.49,176.4,62.23,175.41,62.8Z" opacity="0.5" fill="url(#铃琨眄_沭噤桢眚_107-4)"/><path d="M172,61.74c.22.12.22.32,0,.44a.81.81,0,0,1-.77,0,.23.23,0,0,1,0-.44A.87.87,0,0,1,172,61.74Z" fill="#fccc6b"/><path d="M173.22,61.05c.22.12.22.32,0,.44a.87.87,0,0,1-.77,0,.23.23,0,0,1,0-.44A.81.81,0,0,1,173.22,61.05Z" fill="#fccc6b"/><path d="M174.43,60.35c.21.12.21.32,0,.45a.89.89,0,0,1-.78,0c-.21-.13-.21-.33,0-.45A.89.89,0,0,1,174.43,60.35Z" fill="#fccc6b"/><path d="M119.16,103.53,101.54,93.36c-1.34-.77-1.17-2.12.37-3l16.88-9.74a5.78,5.78,0,0,1,5.22-.21l17.62,10.17c1.34.77,1.17,2.12-.37,3l-16.87,9.74A5.8,5.8,0,0,1,119.16,103.53Z" fill="#0b0244" opacity="0.5"/><path d="M144.78,81.55V77.91h-9.4l-11.11-6.42a6.42,6.42,0,0,0-5.79.24l-10.69,6.18H98.38v3.85h0a1.69,1.69,0,0,0,1,1.55L118.9,94.57a6.42,6.42,0,0,0,5.79-.24l18.68-10.78C144.36,83,144.84,82.24,144.78,81.55Z" fill="#312a91"/><path d="M144.78,81.55V77.91h-9.4l-11.11-6.42a6.42,6.42,0,0,0-5.79.24l-10.69,6.18H98.38v3.85h0a1.69,1.69,0,0,0,1,1.55L118.9,94.57a6.42,6.42,0,0,0,5.79-.24l18.68-10.78C144.36,83,144.84,82.24,144.78,81.55Z" opacity="0.5" fill="url(#铃琨眄_沭噤桢眚_107-5)"/><path d="M124.27,71.49a5.19,5.19,0,0,0-2.69-.57V95.15a6.67,6.67,0,0,0,3.11-.82l18.68-10.78c1-.57,1.47-1.31,1.41-2V77.91h-9.4Z" fill="url(#铃琨眄_沭噤桢眚_59-2)"/><path d="M118.9,90.72,99.38,79.46c-1.48-.86-1.29-2.36.42-3.34l18.68-10.79a6.42,6.42,0,0,1,5.79-.24l19.52,11.27c1.48.85,1.3,2.35-.42,3.34L124.69,90.48A6.42,6.42,0,0,1,118.9,90.72Z" fill="#312a91"/><path d="M118.9,90.72,99.38,79.46c-1.48-.86-1.29-2.36.42-3.34l18.68-10.79a6.42,6.42,0,0,1,5.79-.24l19.52,11.27c1.48.85,1.3,2.35-.42,3.34L124.69,90.48A6.42,6.42,0,0,1,118.9,90.72Z" opacity="0.5" fill="url(#铃琨眄_沭噤桢眚_107-6)"/><path d="M119.42,88.23,103.7,79.15c-1.2-.69-1-1.89.33-2.69l15.06-8.69a5.17,5.17,0,0,1,4.66-.19l15.72,9.08c1.2.69,1.05,1.89-.33,2.69L124.08,88A5.17,5.17,0,0,1,119.42,88.23Z" fill="#5cfff3"/><path d="M104,77.64,119.09,69a5.17,5.17,0,0,1,4.66-.19l15.72,9.07a1.81,1.81,0,0,1,.65.6,1.26,1.26,0,0,0-.65-1.77l-15.72-9.08a5.17,5.17,0,0,0-4.66.19L104,76.46c-1,.6-1.38,1.43-1,2.1A2.48,2.48,0,0,1,104,77.64Z" fill="#42e8e0"/><path d="M119.56,90.72,100,79.46c-1.48-.86-1.84-2.12.41-3.34l18.69-10.79a6.58,6.58,0,0,1,2.93-.81,6.78,6.78,0,0,0-3.59.81L99.8,76.12c-1.71,1-1.9,2.48-.42,3.34L118.9,90.72a5.31,5.31,0,0,0,2.86.57A4.71,4.71,0,0,1,119.56,90.72Z" opacity="0.5" fill="url(#铃琨眄_沭噤桢眚_107-7)"/><path d="M143.37,81.32,124.69,92.11a6.42,6.42,0,0,1-5.79.24L99.38,81.08a1.68,1.68,0,0,1-1-1.55h0v.8h0a1.68,1.68,0,0,0,1,1.55L118.9,93.15a6.42,6.42,0,0,0,5.79-.24l18.68-10.79c1-.57,1.47-1.31,1.41-2v-.79C144.84,80,144.36,80.75,143.37,81.32Z" opacity="0.5" fill="url(#铃琨眄_沭噤桢眚_107-8)"/><path d="M140,80.26c.22.12.22.32,0,.45a.87.87,0,0,1-.77,0c-.21-.13-.21-.33,0-.45A.87.87,0,0,1,140,80.26Z" fill="#fccc6b"/><path d="M141.19,79.57a.23.23,0,0,1,0,.44.83.83,0,0,1-.78,0,.23.23,0,0,1,0-.44A.83.83,0,0,1,141.19,79.57Z" fill="#fccc6b"/><path d="M142.39,78.87c.21.13.21.33,0,.45a.87.87,0,0,1-.77,0c-.22-.12-.22-.32,0-.45A.87.87,0,0,1,142.39,78.87Z" fill="#fccc6b"/><path d="M183.24,103.38,165.62,93.2c-1.34-.77-1.17-2.12.37-3l16.87-9.74a5.81,5.81,0,0,1,5.23-.22L205.71,90.4c1.34.78,1.17,2.13-.38,3l-16.87,9.74A5.82,5.82,0,0,1,183.24,103.38Z" fill="#0b0244" opacity="0.5"/><path d="M208.86,81.39V77.75h-9.4l-11.11-6.42a6.45,6.45,0,0,0-5.79.24l-10.7,6.18h-9.4V81.6h0a1.66,1.66,0,0,0,1,1.55L183,94.42a6.43,6.43,0,0,0,5.78-.24l18.69-10.79A2.3,2.3,0,0,0,208.86,81.39Z" fill="#312a91"/><path d="M208.86,81.39V77.75h-9.4l-11.11-6.42a6.45,6.45,0,0,0-5.79.24l-10.7,6.18h-9.4V81.6h0a1.66,1.66,0,0,0,1,1.55L183,94.42a6.43,6.43,0,0,0,5.78-.24l18.69-10.79A2.3,2.3,0,0,0,208.86,81.39Z" opacity="0.5" fill="url(#铃琨眄_沭噤桢眚_107-9)"/><path d="M188.35,71.33a5.29,5.29,0,0,0-2.69-.57V95a6.62,6.62,0,0,0,3.1-.81l18.69-10.79a2.3,2.3,0,0,0,1.41-2V77.75h-9.4Z" fill="url(#铃琨眄_沭噤桢眚_59-3)"/><path d="M183,90.57,163.46,79.3c-1.48-.86-1.3-2.35.42-3.34l18.68-10.79a6.42,6.42,0,0,1,5.79-.24L207.87,76.2c1.48.86,1.29,2.35-.42,3.34L188.76,90.33A6.43,6.43,0,0,1,183,90.57Z" fill="#312a91"/><path d="M183,90.57,163.46,79.3c-1.48-.86-1.3-2.35.42-3.34l18.68-10.79a6.42,6.42,0,0,1,5.79-.24L207.87,76.2c1.48.86,1.29,2.35-.42,3.34L188.76,90.33A6.43,6.43,0,0,1,183,90.57Z" opacity="0.5" fill="url(#铃琨眄_沭噤桢眚_107-10)"/><path d="M183.5,88.08,167.77,79c-1.19-.69-1-1.9.34-2.69l15-8.7a5.22,5.22,0,0,1,4.67-.19l15.72,9.08c1.2.69,1,1.9-.33,2.69l-15.06,8.69A5.17,5.17,0,0,1,183.5,88.08Z" fill="#5cfff3"/><path d="M168.11,77.48l15-8.69a5.22,5.22,0,0,1,4.67-.19l15.72,9.08a1.68,1.68,0,0,1,.64.59,1.25,1.25,0,0,0-.64-1.77l-15.72-9.08a5.22,5.22,0,0,0-4.67.19l-15,8.7c-1,.6-1.38,1.43-1,2.1A2.6,2.6,0,0,1,168.11,77.48Z" fill="#42e8e0"/><path d="M183.63,90.57,164.12,79.3c-1.49-.86-1.84-2.11.41-3.34l18.69-10.79a6.53,6.53,0,0,1,2.92-.81,6.84,6.84,0,0,0-3.58.81L163.88,76c-1.72,1-1.9,2.48-.42,3.34L183,90.57a5.4,5.4,0,0,0,2.86.57A5,5,0,0,1,183.63,90.57Z" opacity="0.5" fill="url(#铃琨眄_沭噤桢眚_107-11)"/><path d="M207.45,81.17,188.76,92a6.47,6.47,0,0,1-5.78.24L163.46,80.93a1.66,1.66,0,0,1-1-1.55h0v.79h0a1.66,1.66,0,0,0,1,1.55L183,93a6.4,6.4,0,0,0,5.78-.24L207.45,82a2.29,2.29,0,0,0,1.41-2v-.8A2.3,2.3,0,0,1,207.45,81.17Z" opacity="0.5" fill="url(#铃琨眄_沭噤桢眚_107-12)"/><path d="M204.06,80.1c.21.13.21.33,0,.45a.87.87,0,0,1-.77,0c-.21-.12-.21-.32,0-.45A.87.87,0,0,1,204.06,80.1Z" fill="#fccc6b"/><path d="M205.26,79.41c.22.12.22.32,0,.45a.87.87,0,0,1-.77,0c-.21-.13-.21-.33,0-.45A.87.87,0,0,1,205.26,79.41Z" fill="#fccc6b"/><path d="M206.46,78.72c.22.12.22.32,0,.44a.81.81,0,0,1-.77,0,.23.23,0,0,1,0-.44A.81.81,0,0,1,206.46,78.72Z" fill="#fccc6b"/><path d="M151.93,67.51l-12.34-7.12c-.94-.54-.82-1.49.26-2.11l11.81-6.82a4.09,4.09,0,0,1,3.66-.15l12.34,7.12c.93.54.82,1.49-.27,2.11l-11.81,6.82A4,4,0,0,1,151.93,67.51Z" fill="#0b0244" opacity="0.5"/><path d="M176.82,59.38a.74.74,0,0,0,0-.21V49l-16.17.08-4.34-2.51a6.4,6.4,0,0,0-5.78.24l-4,2.33-16.07.07V59.38h0a1.68,1.68,0,0,0,1,1.55L150.94,72.2a6.49,6.49,0,0,0,5.79-.24l18.68-10.79a2.46,2.46,0,0,0,1.41-1.79Z" fill="#5cfff3" opacity="0.5"/><path d="M176.82,49V45.36h-9.4l-11.11-6.42a6.46,6.46,0,0,0-5.79.24l-10.69,6.18h-9.41v3.85h0a1.68,1.68,0,0,0,1,1.55L150.94,62a6.49,6.49,0,0,0,5.79-.24L175.41,51C176.4,50.43,176.88,49.69,176.82,49Z" fill="#312a91"/><path d="M176.82,49V45.36h-9.4l-11.11-6.42a6.46,6.46,0,0,0-5.79.24l-10.69,6.18h-9.41v3.85h0a1.68,1.68,0,0,0,1,1.55L150.94,62a6.49,6.49,0,0,0,5.79-.24L175.41,51C176.4,50.43,176.88,49.69,176.82,49Z" opacity="0.5" fill="url(#铃琨眄_沭噤桢眚_107-13)"/><path d="M156.31,38.94a5.19,5.19,0,0,0-2.69-.57V62.6a6.78,6.78,0,0,0,3.11-.81L175.41,51c1-.57,1.47-1.31,1.41-2V45.36h-9.4Z" fill="url(#铃琨眄_沭噤桢眚_59-4)"/><path d="M150.94,58.18,131.42,46.91c-1.48-.86-1.3-2.35.42-3.34l18.68-10.79a6.42,6.42,0,0,1,5.79-.24l19.52,11.27c1.48.85,1.29,2.35-.42,3.34L156.73,57.94A6.49,6.49,0,0,1,150.94,58.18Z" fill="#312a91"/><path d="M150.94,58.18,131.42,46.91c-1.48-.86-1.3-2.35.42-3.34l18.68-10.79a6.42,6.42,0,0,1,5.79-.24l19.52,11.27c1.48.85,1.29,2.35-.42,3.34L156.73,57.94A6.49,6.49,0,0,1,150.94,58.18Z" opacity="0.5" fill="url(#铃琨眄_沭噤桢眚_107-14)"/><path d="M151.59,58.18,132.08,46.91c-1.49-.86-1.84-2.12.41-3.34l18.69-10.79a6.58,6.58,0,0,1,2.93-.81,6.78,6.78,0,0,0-3.59.81L131.84,43.57c-1.72,1-1.9,2.48-.42,3.34l19.52,11.27a5.31,5.31,0,0,0,2.86.56A4.91,4.91,0,0,1,151.59,58.18Z" opacity="0.5" fill="url(#铃琨眄_沭噤桢眚_107-15)"/><path d="M175.41,48.77,156.73,59.56a6.42,6.42,0,0,1-5.79.24L131.42,48.53a1.68,1.68,0,0,1-1-1.55h0v.8h0a1.68,1.68,0,0,0,1,1.55L150.94,60.6a6.42,6.42,0,0,0,5.79-.24l18.68-10.79c1-.57,1.47-1.31,1.41-2v-.8C176.88,47.47,176.4,48.2,175.41,48.77Z" opacity="0.5" fill="url(#铃琨眄_沭噤桢眚_107-16)"/><path d="M119.89,86l-12.34-7.12c-.93-.54-.82-1.48.27-2.11L119.63,70a4.07,4.07,0,0,1,3.65-.15L135.62,77c.94.54.82,1.49-.26,2.12l-11.81,6.81A4,4,0,0,1,119.89,86Z" fill="#0b0244" opacity="0.5"/><path d="M144.78,77.91a.74.74,0,0,0,0-.21V67.52l-16.17.07-4.34-2.5a6.4,6.4,0,0,0-5.78.24l-4,2.33-16.07.07V77.91h0a1.69,1.69,0,0,0,1,1.55L118.9,90.72a6.42,6.42,0,0,0,5.79-.24L143.37,79.7a2.46,2.46,0,0,0,1.41-1.79Z" fill="#5cfff3" opacity="0.5"/><path d="M144.78,67.52V63.88h-9.4l-11.11-6.42a6.46,6.46,0,0,0-5.79.24l-10.69,6.18H98.38v3.85h0a1.68,1.68,0,0,0,1,1.55L118.9,80.55a6.46,6.46,0,0,0,5.79-.24l18.68-10.79C144.36,69,144.84,68.21,144.78,67.52Z" fill="#312a91"/><path d="M144.78,67.52V63.88h-9.4l-11.11-6.42a6.46,6.46,0,0,0-5.79.24l-10.69,6.18H98.38v3.85h0a1.68,1.68,0,0,0,1,1.55L118.9,80.55a6.46,6.46,0,0,0,5.79-.24l18.68-10.79C144.36,69,144.84,68.21,144.78,67.52Z" opacity="0.5" fill="url(#铃琨眄_沭噤桢眚_107-17)"/><path d="M124.27,57.46a5.29,5.29,0,0,0-2.69-.57V81.12a6.66,6.66,0,0,0,3.11-.81l18.68-10.79c1-.57,1.47-1.31,1.41-2V63.88h-9.4Z" fill="url(#铃琨眄_沭噤桢眚_59-5)"/><path d="M118.9,76.7,99.38,65.43c-1.48-.86-1.29-2.35.42-3.34L118.48,51.3a6.42,6.42,0,0,1,5.79-.24l19.52,11.27c1.48.86,1.3,2.35-.42,3.34L124.69,76.46A6.46,6.46,0,0,1,118.9,76.7Z" fill="#312a91"/><path d="M118.9,76.7,99.38,65.43c-1.48-.86-1.29-2.35.42-3.34L118.48,51.3a6.42,6.42,0,0,1,5.79-.24l19.52,11.27c1.48.86,1.3,2.35-.42,3.34L124.69,76.46A6.46,6.46,0,0,1,118.9,76.7Z" opacity="0.5" fill="url(#铃琨眄_沭噤桢眚_107-18)"/><path d="M119.42,74.21,103.7,65.13c-1.2-.69-1-1.9.33-2.69l15.06-8.7a5.2,5.2,0,0,1,4.66-.19l15.72,9.08c1.2.69,1.05,1.9-.33,2.69L124.08,74A5.17,5.17,0,0,1,119.42,74.21Z" fill="#5cfff3"/><path d="M104,63.61l15.06-8.69a5.2,5.2,0,0,1,4.66-.19l15.72,9.08a1.79,1.79,0,0,1,.65.59,1.26,1.26,0,0,0-.65-1.77l-15.72-9.08a5.2,5.2,0,0,0-4.66.19L104,62.44c-1,.6-1.38,1.43-1,2.1A2.56,2.56,0,0,1,104,63.61Z" fill="#42e8e0"/><path d="M119.56,76.7,100,65.43c-1.48-.86-1.84-2.11.41-3.34L119.14,51.3a6.58,6.58,0,0,1,2.93-.81,6.88,6.88,0,0,0-3.59.81L99.8,62.09c-1.71,1-1.9,2.48-.42,3.34L118.9,76.7a5.4,5.4,0,0,0,2.86.57A5,5,0,0,1,119.56,76.7Z" opacity="0.5" fill="url(#铃琨眄_沭噤桢眚_107-19)"/><path d="M143.37,67.3,124.69,78.09a6.49,6.49,0,0,1-5.79.24L99.38,67.06a1.68,1.68,0,0,1-1-1.55h0v.79h0a1.68,1.68,0,0,0,1,1.55L118.9,79.12a6.42,6.42,0,0,0,5.79-.24l18.68-10.79c1-.57,1.47-1.3,1.41-2v-.8C144.84,66,144.36,66.73,143.37,67.3Z" opacity="0.5" fill="url(#铃琨眄_沭噤桢眚_107-20)"/><path d="M140,66.23c.22.13.22.33,0,.45a.87.87,0,0,1-.77,0c-.21-.12-.21-.32,0-.45A.87.87,0,0,1,140,66.23Z" fill="#fccc6b"/><path d="M141.19,65.54c.21.12.21.32,0,.45a.89.89,0,0,1-.78,0c-.21-.13-.21-.33,0-.45A.89.89,0,0,1,141.19,65.54Z" fill="#fccc6b"/><path d="M142.39,64.85a.23.23,0,0,1,0,.44.81.81,0,0,1-.77,0c-.22-.12-.22-.32,0-.44A.81.81,0,0,1,142.39,64.85Z" fill="#fccc6b"/><path d="M184,85.88l-12.34-7.12c-.94-.54-.82-1.49.26-2.11l11.81-6.82a4,4,0,0,1,3.66-.15L199.7,76.8c.93.54.82,1.48-.27,2.11l-11.81,6.82A4.07,4.07,0,0,1,184,85.88Z" fill="#0b0244" opacity="0.5"/><path d="M208.86,77.76a.74.74,0,0,0,0-.21V67.38l-16.17.07-4.34-2.51a6.42,6.42,0,0,0-5.79.24l-4,2.33-16.07.07V77.76h0a1.68,1.68,0,0,0,1,1.55L183,90.58a6.46,6.46,0,0,0,5.79-.24l18.68-10.79a2.43,2.43,0,0,0,1.41-1.79Z" fill="#5cfff3" opacity="0.5"/><path d="M208.86,67.37V63.72h-9.4l-11.11-6.41a6.42,6.42,0,0,0-5.79.24l-10.7,6.17h-9.4v3.85h0a1.66,1.66,0,0,0,1,1.55L183,80.39a6.4,6.4,0,0,0,5.78-.24l18.69-10.79A2.3,2.3,0,0,0,208.86,67.37Z" fill="#312a91"/><path d="M208.86,67.37V63.72h-9.4l-11.11-6.41a6.42,6.42,0,0,0-5.79.24l-10.7,6.17h-9.4v3.85h0a1.66,1.66,0,0,0,1,1.55L183,80.39a6.4,6.4,0,0,0,5.78-.24l18.69-10.79A2.3,2.3,0,0,0,208.86,67.37Z" opacity="0.5" fill="url(#铃琨眄_沭噤桢眚_107-21)"/><path d="M188.35,57.31a5.3,5.3,0,0,0-2.69-.58V81a6.5,6.5,0,0,0,3.1-.81l18.69-10.79a2.3,2.3,0,0,0,1.41-2V63.72h-9.4Z" fill="url(#铃琨眄_沭噤桢眚_59-6)"/><path d="M183,76.54,163.46,65.27c-1.48-.85-1.3-2.35.42-3.34l18.68-10.79a6.49,6.49,0,0,1,5.79-.24l19.52,11.27c1.48.86,1.29,2.35-.42,3.34L188.76,76.3A6.4,6.4,0,0,1,183,76.54Z" fill="#312a91"/><path d="M183,76.54,163.46,65.27c-1.48-.85-1.3-2.35.42-3.34l18.68-10.79a6.49,6.49,0,0,1,5.79-.24l19.52,11.27c1.48.86,1.29,2.35-.42,3.34L188.76,76.3A6.4,6.4,0,0,1,183,76.54Z" opacity="0.5" fill="url(#铃琨眄_沭噤桢眚_107-22)"/><path d="M183.63,76.54,164.12,65.27c-1.49-.85-1.84-2.11.41-3.34l18.69-10.79a6.66,6.66,0,0,1,2.92-.8,6.74,6.74,0,0,0-3.58.8L163.88,61.93c-1.72,1-1.9,2.49-.42,3.34L183,76.54a5.31,5.31,0,0,0,2.86.57A4.91,4.91,0,0,1,183.63,76.54Z" opacity="0.5" fill="url(#铃琨眄_沭噤桢眚_107-23)"/><path d="M207.45,67.14,188.76,77.93a6.4,6.4,0,0,1-5.78.24L163.46,66.9a1.66,1.66,0,0,1-1-1.55h0v.8h0a1.66,1.66,0,0,0,1,1.55L183,79a6.43,6.43,0,0,0,5.78-.24l18.69-10.79a2.3,2.3,0,0,0,1.41-2v-.8A2.3,2.3,0,0,1,207.45,67.14Z" opacity="0.5" fill="url(#铃琨眄_沭噤桢眚_107-24)"/><path d="M151.2,121.9l-17.62-10.17c-1.34-.78-1.17-2.13.37-3L150.82,99a5.84,5.84,0,0,1,5.23-.22l17.62,10.18c1.34.77,1.17,2.12-.37,3l-16.88,9.74A5.78,5.78,0,0,1,151.2,121.9Z" fill="#0b0244" opacity="0.5"/><path d="M176.82,99.92V96.27h-9.4l-11.11-6.41a6.42,6.42,0,0,0-5.79.24l-10.69,6.17h-9.41v3.85h0a1.68,1.68,0,0,0,1,1.55l19.52,11.27a6.42,6.42,0,0,0,5.79-.24l18.68-10.79C176.4,101.34,176.88,100.6,176.82,99.92Z" fill="#312a91"/><path d="M176.82,99.92V96.27h-9.4l-11.11-6.41a6.42,6.42,0,0,0-5.79.24l-10.69,6.17h-9.41v3.85h0a1.68,1.68,0,0,0,1,1.55l19.52,11.27a6.42,6.42,0,0,0,5.79-.24l18.68-10.79C176.4,101.34,176.88,100.6,176.82,99.92Z" opacity="0.5" fill="url(#铃琨眄_沭噤桢眚_107-25)"/><path d="M156.31,89.86a5.19,5.19,0,0,0-2.69-.58v24.23a6.66,6.66,0,0,0,3.11-.81l18.68-10.79c1-.57,1.47-1.31,1.41-2V96.27h-9.4Z" fill="url(#铃琨眄_沭噤桢眚_59-7)"/><path d="M150.94,109.09,131.42,97.82c-1.48-.85-1.3-2.35.42-3.34l18.68-10.79a6.46,6.46,0,0,1,5.79-.24l19.52,11.27c1.48.86,1.29,2.35-.42,3.34l-18.68,10.79A6.42,6.42,0,0,1,150.94,109.09Z" fill="#312a91"/><path d="M150.94,109.09,131.42,97.82c-1.48-.85-1.3-2.35.42-3.34l18.68-10.79a6.46,6.46,0,0,1,5.79-.24l19.52,11.27c1.48.86,1.29,2.35-.42,3.34l-18.68,10.79A6.42,6.42,0,0,1,150.94,109.09Z" opacity="0.5" fill="url(#铃琨眄_沭噤桢眚_107-26)"/><path d="M151.46,106.6l-15.72-9.08c-1.2-.69-1.05-1.89.33-2.69l15.06-8.69a5.17,5.17,0,0,1,4.66-.2L171.51,95c1.2.69,1.05,1.9-.33,2.69l-15.06,8.7A5.2,5.2,0,0,1,151.46,106.6Z" fill="#5cfff3"/><path d="M136.07,96l15.06-8.7a5.2,5.2,0,0,1,4.66-.19l15.72,9.08a1.68,1.68,0,0,1,.64.59,1.25,1.25,0,0,0-.64-1.77l-15.72-9.08a5.17,5.17,0,0,0-4.66.2l-15.06,8.69c-1,.6-1.38,1.43-1,2.1A2.48,2.48,0,0,1,136.07,96Z" fill="#42e8e0"/><path d="M151.59,109.09,132.08,97.82c-1.49-.85-1.84-2.11.41-3.34l18.69-10.79a6.71,6.71,0,0,1,2.93-.81,6.88,6.88,0,0,0-3.59.81L131.84,94.48c-1.72,1-1.9,2.49-.42,3.34l19.52,11.27a5.31,5.31,0,0,0,2.86.57A4.91,4.91,0,0,1,151.59,109.09Z" opacity="0.5" fill="url(#铃琨眄_沭噤桢眚_107-27)"/><path d="M175.41,99.69l-18.68,10.79a6.46,6.46,0,0,1-5.79.24L131.42,99.45a1.68,1.68,0,0,1-1-1.55h0v.8h0a1.68,1.68,0,0,0,1,1.55l19.52,11.27a6.49,6.49,0,0,0,5.79-.24l18.68-10.79c1-.57,1.47-1.31,1.41-2v-.8C176.88,98.38,176.4,99.12,175.41,99.69Z" opacity="0.5" fill="url(#铃琨眄_沭噤桢眚_107-28)"/><path d="M172,98.63c.22.12.22.32,0,.44a.81.81,0,0,1-.77,0,.23.23,0,0,1,0-.44A.81.81,0,0,1,172,98.63Z" fill="#fccc6b"/><path d="M173.22,97.93c.22.13.22.33,0,.45a.87.87,0,0,1-.77,0c-.21-.12-.21-.32,0-.45A.87.87,0,0,1,173.22,97.93Z" fill="#fccc6b"/><path d="M174.43,97.24a.23.23,0,0,1,0,.44.83.83,0,0,1-.78,0,.23.23,0,0,1,0-.44A.89.89,0,0,1,174.43,97.24Z" fill="#fccc6b"/><path d="M151.93,104.4l-12.34-7.12c-.94-.54-.82-1.49.26-2.11l11.81-6.82a4.06,4.06,0,0,1,3.66-.15l12.34,7.12c.93.54.82,1.49-.27,2.11l-11.81,6.82A4.07,4.07,0,0,1,151.93,104.4Z" fill="#0b0244" opacity="0.5"/><path d="M176.82,96.27a.67.67,0,0,0,0-.2V85.89L160.65,86l-4.34-2.51a6.46,6.46,0,0,0-5.79.24l-4,2.33-16.07.07V96.27h0a1.68,1.68,0,0,0,1,1.55l19.52,11.27a6.42,6.42,0,0,0,5.79-.24l18.68-10.79a2.43,2.43,0,0,0,1.41-1.79Z" fill="#5cfff3" opacity="0.5"/><path d="M176.82,85.89V82.24h-9.4l-11.11-6.41a6.42,6.42,0,0,0-5.79.24l-10.69,6.17h-9.41v3.85h0a1.68,1.68,0,0,0,1,1.55l19.52,11.27a6.42,6.42,0,0,0,5.79-.24l18.68-10.78C176.4,87.31,176.88,86.58,176.82,85.89Z" fill="#312a91"/><path d="M176.82,85.89V82.24h-9.4l-11.11-6.41a6.42,6.42,0,0,0-5.79.24l-10.69,6.17h-9.41v3.85h0a1.68,1.68,0,0,0,1,1.55l19.52,11.27a6.42,6.42,0,0,0,5.79-.24l18.68-10.78C176.4,87.31,176.88,86.58,176.82,85.89Z" opacity="0.5" fill="url(#铃琨眄_沭噤桢眚_107-29)"/><path d="M156.31,75.83a5.19,5.19,0,0,0-2.69-.57V99.49a6.67,6.67,0,0,0,3.11-.82l18.68-10.78c1-.58,1.47-1.31,1.41-2V82.24h-9.4Z" fill="url(#铃琨眄_沭噤桢眚_59-8)"/><path d="M150.94,95.06,131.42,83.8c-1.48-.86-1.3-2.36.42-3.35l18.68-10.78a6.42,6.42,0,0,1,5.79-.24l19.52,11.26c1.48.86,1.29,2.36-.42,3.35L156.73,94.82A6.42,6.42,0,0,1,150.94,95.06Z" fill="#312a91"/><path d="M150.94,95.06,131.42,83.8c-1.48-.86-1.3-2.36.42-3.35l18.68-10.78a6.42,6.42,0,0,1,5.79-.24l19.52,11.26c1.48.86,1.29,2.36-.42,3.35L156.73,94.82A6.42,6.42,0,0,1,150.94,95.06Z" opacity="0.5" fill="url(#铃琨眄_沭噤桢眚_107-30)"/><path d="M151.59,95.06,132.08,83.8c-1.49-.86-1.84-2.12.41-3.35l18.69-10.78a6.58,6.58,0,0,1,2.93-.81,6.78,6.78,0,0,0-3.59.81L131.84,80.45c-1.72,1-1.9,2.49-.42,3.35l19.52,11.26a5.31,5.31,0,0,0,2.86.57A4.91,4.91,0,0,1,151.59,95.06Z" opacity="0.5" fill="url(#铃琨眄_沭噤桢眚_107-31)"/><path d="M175.41,85.66,156.73,96.45a6.42,6.42,0,0,1-5.79.24L131.42,85.42a1.68,1.68,0,0,1-1-1.55h0v.8h0a1.68,1.68,0,0,0,1,1.55l19.52,11.27a6.42,6.42,0,0,0,5.79-.24l18.68-10.79c1-.57,1.47-1.31,1.41-2v-.79C176.88,84.35,176.4,85.09,175.41,85.66Z" opacity="0.5" fill="url(#铃琨眄_沭噤桢眚_107-32)"/><path d="M152.07,83.06c.41.23.41.61,0,.85a1.65,1.65,0,0,1-1.47,0,.45.45,0,0,1,0-.85A1.65,1.65,0,0,1,152.07,83.06Z" fill="#5cfff3" opacity="0.2"/><path d="M154.36,81.74a.45.45,0,0,1,0,.85,1.65,1.65,0,0,1-1.47,0,.45.45,0,0,1,0-.85A1.65,1.65,0,0,1,154.36,81.74Z" fill="#5cfff3" opacity="0.6"/><path d="M156.64,80.42c.41.24.41.61,0,.85a1.63,1.63,0,0,1-1.46,0c-.41-.24-.41-.61,0-.85A1.63,1.63,0,0,1,156.64,80.42Z" fill="#5cfff3"/><path d="M153.5,92.29a3.88,3.88,0,0,1-1.93-.44l-14.44-8.33a1.42,1.42,0,0,1-.81-1.2,1.91,1.91,0,0,1,1.12-1.53l13.82-8a4.88,4.88,0,0,1,4.42-.18L170.11,81a1.41,1.41,0,0,1,.82,1.2,1.93,1.93,0,0,1-1.12,1.53l-13.82,8A5.14,5.14,0,0,1,153.5,92.29Zm-1.79-.69a4.65,4.65,0,0,0,4.13-.18l13.82-8a1.63,1.63,0,0,0,1-1.27,1.12,1.12,0,0,0-.66-.94l-14.43-8.34a4.65,4.65,0,0,0-4.13.18l-13.82,8a1.65,1.65,0,0,0-1,1.27,1.13,1.13,0,0,0,.67.94Z" fill="#0b0244" opacity="0.5"/><path d="M185.53,73.93a4,4,0,0,1-1.93-.44l-14.43-8.34a1.42,1.42,0,0,1-.81-1.2,1.91,1.91,0,0,1,1.12-1.52l13.81-8a5,5,0,0,1,4.43-.18l14.43,8.34a1.41,1.41,0,0,1,.82,1.2,1.91,1.91,0,0,1-1.13,1.52l-13.81,8A5.15,5.15,0,0,1,185.53,73.93Zm-1.78-.7a4.58,4.58,0,0,0,4.13-.18l13.82-8a1.63,1.63,0,0,0,1-1.27,1.15,1.15,0,0,0-.67-1l-14.43-8.33a4.58,4.58,0,0,0-4.13.18l-13.81,8a1.65,1.65,0,0,0-1,1.27,1.15,1.15,0,0,0,.67,1Z" fill="#0b0244" opacity="0.5"/><path d="M153.5,55.47a4.07,4.07,0,0,1-2-.45L137.1,46.69a1.49,1.49,0,0,1-.84-1.26,2,2,0,0,1,1.15-1.58l13.82-8a4.94,4.94,0,0,1,4.48-.18L170.15,44a1.47,1.47,0,0,1,.84,1.25,2,2,0,0,1-1.15,1.58l-13.82,8A5.12,5.12,0,0,1,153.5,55.47Zm-1.76-.82a4.55,4.55,0,0,0,4.07-.17l13.82-8a1.58,1.58,0,0,0,.94-1.22,1.09,1.09,0,0,0-.63-.89L155.5,36.06a4.5,4.5,0,0,0-4.06.18l-13.82,8a1.57,1.57,0,0,0-.94,1.21,1.06,1.06,0,0,0,.63.89Z" fill="#0b0244" opacity="0.5"/><polygon points="132.64 65.44 119.61 57.91 120.54 57.38 133.58 64.9 132.64 65.44" fill="#42e8e0"/><polygon points="130.64 66.6 117.6 59.07 118.54 58.53 131.58 66.06 130.64 66.6" fill="#42e8e0"/><polygon points="128.64 67.75 115.6 60.23 116.54 59.69 129.57 67.22 128.64 67.75" fill="#42e8e0"/><polygon points="126.64 68.91 113.6 61.38 114.53 60.84 127.57 68.37 126.64 68.91" fill="#42e8e0"/><polygon points="124.63 70.07 111.59 62.54 112.53 62 125.57 69.53 124.63 70.07" fill="#42e8e0"/><polygon points="122.63 71.22 109.59 63.7 110.53 63.16 123.57 70.68 122.63 71.22" fill="#42e8e0"/><path d="M152.07,46.25c.41.24.41.62,0,.85a1.65,1.65,0,0,1-1.47,0,.45.45,0,0,1,0-.85A1.65,1.65,0,0,1,152.07,46.25Z" fill="#5cfff3" opacity="0.2"/><path d="M154.36,44.93a.45.45,0,0,1,0,.85,1.65,1.65,0,0,1-1.47,0,.45.45,0,0,1,0-.85A1.65,1.65,0,0,1,154.36,44.93Z" fill="#5cfff3" opacity="0.6"/><path d="M156.64,43.61c.41.24.41.62,0,.85a1.63,1.63,0,0,1-1.46,0c-.41-.23-.41-.61,0-.85A1.63,1.63,0,0,1,156.64,43.61Z" fill="#5cfff3"/><path d="M140.25,63.56V8.42H102.89V64h0a1.44,1.44,0,0,0,.81,1.11l15.72,9.08a5.17,5.17,0,0,0,4.66-.2l15.06-8.69C140,64.82,140.39,64.16,140.25,63.56Z" opacity="0.4" fill="url(#铃琨眄_沭噤桢眚_370)" style="mix-blend-mode:lighten"/><path d="M185.47,74.78a4.38,4.38,0,0,1-2.15-.5l-24.9-14.37a1.53,1.53,0,0,1-.88-1.29A2.08,2.08,0,0,1,158.77,57L183,43a5.48,5.48,0,0,1,4.93-.2l24.9,14.37a1.53,1.53,0,0,1,.88,1.29,2.08,2.08,0,0,1-1.23,1.65l-24.2,14A5.71,5.71,0,0,1,185.47,74.78Zm.28-32.33a5.56,5.56,0,0,0-2.71.68l-24.2,14a2,2,0,0,0-1.15,1.52,1.4,1.4,0,0,0,.8,1.16l24.9,14.37a5.29,5.29,0,0,0,4.78-.2l24.21-14a2,2,0,0,0,1.15-1.52,1.39,1.39,0,0,0-.81-1.16L187.83,42.93A4.26,4.26,0,0,0,185.75,42.45Z" fill="#6ee8fc"/><ellipse cx="179.26" cy="44.69" rx="20.59" ry="11.89" opacity="0.3" fill="url(#铃琨眄_沭噤桢眚_26-6)" style="mix-blend-mode:lighten"/><ellipse cx="201.5" cy="66.31" rx="20.59" ry="11.89" opacity="0.3" fill="url(#铃琨眄_沭噤桢眚_26-7)" style="mix-blend-mode:lighten"/><ellipse cx="160.5" cy="55.48" rx="15.83" ry="9.14" opacity="0.3" fill="url(#铃琨眄_沭噤桢眚_26-8)" style="mix-blend-mode:lighten"/><circle cx="179.45" cy="45.11" r="2.95" fill="url(#铃琨眄_沭噤桢眚_26-9)" style="mix-blend-mode:lighten"/><path d="M180.29,45.11a.84.84,0,1,1-.84-.84A.84.84,0,0,1,180.29,45.11Z" fill="#6ee8fc"/><path d="M163.45,56.08a3,3,0,1,1-2.95-3A3,3,0,0,1,163.45,56.08Z" fill="url(#铃琨眄_沭噤桢眚_26-10)" style="mix-blend-mode:lighten"/><path d="M161.34,56.08a.84.84,0,1,1-.84-.85A.85.85,0,0,1,161.34,56.08Z" fill="#6ee8fc"/><path d="M202.59,67.43a3,3,0,1,1-3-3A2.95,2.95,0,0,1,202.59,67.43Z" fill="url(#铃琨眄_沭噤桢眚_26-11)" style="mix-blend-mode:lighten"/><path d="M200.48,67.43a.84.84,0,0,1-1.68,0,.84.84,0,0,1,1.68,0Z" fill="#6ee8fc"/><path d="M208.06,64.21a2.95,2.95,0,1,1-2.95-2.95A2.95,2.95,0,0,1,208.06,64.21Z" fill="url(#铃琨眄_沭噤桢眚_26-12)" style="mix-blend-mode:lighten"/><path d="M206,64.21a.84.84,0,1,1-.84-.84A.84.84,0,0,1,206,64.21Z" fill="#6ee8fc"/><circle cx="210.58" cy="61.03" r="2.95" fill="url(#铃琨眄_沭噤桢眚_26-13)" style="mix-blend-mode:lighten"/><path d="M211.42,61a.84.84,0,1,1-.84-.84A.85.85,0,0,1,211.42,61Z" fill="#6ee8fc"/><path d="M186.5,56.5h.61l.35,0a8.24,8.24,0,0,1,1.2.23c1.19.34,2,1,2.11,1.73.15,1.06-1.48,1.77-3.36,1.81-2.62.16-6.62.2-5.88,2.56.13.42.2.75,1.29,1.74a9.1,9.1,0,0,1-2.75-1.6,1.92,1.92,0,0,1,0-2.31c1-1.12,5.06-1.48,6.76-1.54,2.34-.08,2-1.69-.77-1.58-1.47,0-4.92.59-6.23,1.66a2,2,0,0,0-.87,2.28,2.83,2.83,0,0,1-.25-.57C178.33,58.17,182.46,56.45,186.5,56.5Z" fill="#6ee8fc"/><path d="M188.47,65.61h-.62l-.34,0a7,7,0,0,1-1.21-.23c-1.18-.34-2-1-2.1-1.72-.15-1.07,1.47-1.78,3.36-1.82,2.61-.16,6.61-.2,5.88-2.55-.14-.43-.21-.76-1.3-1.75a9.28,9.28,0,0,1,2.76,1.6,1.92,1.92,0,0,1,0,2.31c-1.05,1.12-5.05,1.48-6.75,1.54-2.35.08-2.05,1.7.77,1.59,1.47-.06,4.92-.6,6.23-1.67A2,2,0,0,0,196,60.6a3.46,3.46,0,0,1,.24.57C196.63,63.94,192.5,65.66,188.47,65.61Z" fill="#6ee8fc"/></g></g></svg>