<svg width="249" height="170" viewBox="0 0 249 170" fill="none" xmlns="http://www.w3.org/2000/svg">
  <g opacity="0.2">
    <rect x="24" y="24" width="225" height="146" rx="8" fill="#79C0FC"/>
  </g>
  <g clip-path="url(#clip0_2780_12565)">
    <rect width="225" height="169" rx="8" fill="url(#paint0_linear_2780_12565)"/>
    <path d="M89.5 0L194.722 182.25H-15.7221L89.5 0Z" fill="url(#paint1_linear_2780_12565)"/>
    <path d="M159.501 44.8334C158.806 45.1914 158.018 44.5658 158.158 43.7665L159.652 35.2419L153.311 29.1919C152.719 28.6265 153.026 27.5927 153.819 27.4797L162.637 26.2255L166.568 18.4272C166.922 17.7248 167.882 17.7248 168.236 18.4272L172.167 26.2255L180.984 27.4797C181.778 27.5927 182.085 28.6265 181.492 29.1919L175.152 35.2419L176.646 43.7665C176.786 44.5658 175.998 45.1914 175.303 44.8334L167.402 40.7673L159.501 44.8334Z" fill="#FFE080"/>
    <path fill-rule="evenodd" clip-rule="evenodd" d="M135.285 66.9395C135.285 64.7303 137.076 62.9395 139.285 62.9395H174.714C176.923 62.9395 178.714 64.7303 178.714 66.9395V147.001C178.714 149.21 176.923 151.001 174.714 151.001H139.285C137.076 151.001 135.285 149.21 135.285 147.001V66.9395ZM81 94.1191C81 91.91 82.7909 90.1191 85 90.1191H120.429C122.638 90.1191 124.429 91.91 124.429 94.1191V147.001C124.429 149.21 122.638 151.001 120.429 151.001H85C82.7909 151.001 81 149.21 81 147.001V94.1191ZM194 111C191.791 111 190 112.791 190 115V147C190 149.209 191.791 151 194 151H229C231.209 151 233 149.209 233 147V115C233 112.791 231.209 111 229 111H194Z" fill="url(#paint2_linear_2780_12565)"/>
  </g>
  <defs>
    <linearGradient id="paint0_linear_2780_12565" x1="45.5" y1="-32.5" x2="170.69" y2="117.66" gradientUnits="userSpaceOnUse">
      <stop offset="0.015625" stop-color="#6EE5B3"/>
      <stop offset="0.430034" stop-color="#68D8E2"/>
      <stop offset="1" stop-color="#4475F6"/>
    </linearGradient>
    <linearGradient id="paint1_linear_2780_12565" x1="172.96" y1="181.114" x2="21.9369" y2="40.3107" gradientUnits="userSpaceOnUse">
      <stop stop-color="#DCC0FF" stop-opacity="0"/>
      <stop offset="1" stop-color="#D4B4FF" stop-opacity="0.9"/>
    </linearGradient>
    <linearGradient id="paint2_linear_2780_12565" x1="133.929" y1="53.7381" x2="210.833" y2="161.405" gradientUnits="userSpaceOnUse">
      <stop stop-color="white"/>
      <stop offset="1" stop-color="white" stop-opacity="0"/>
    </linearGradient>
    <clipPath id="clip0_2780_12565">
      <rect width="225" height="146" rx="8" fill="white"/>
    </clipPath>
  </defs>
</svg>
