<?xml version="1.0" encoding="UTF-8"?>
<svg xmlns="http://www.w3.org/2000/svg" xmlns:xlink="http://www.w3.org/1999/xlink" width="1080pt" height="692.11pt" viewBox="0 0 1080 692.11" version="1.1">
<defs>
<clipPath id="clip1">
  <path d="M 0 687 L 1080 687 L 1080 692.109375 L 0 692.109375 Z M 0 687 "/>
</clipPath>
</defs>
<g id="surface1">
<path style=" stroke:none;fill-rule:nonzero;fill:rgb(100%,100%,100%);fill-opacity:1;" d="M 899.921875 174.671875 L 874.273438 318.480469 L 841.925781 313.796875 L 715.722656 295.507813 L 682.164063 290.644531 L 701.566406 206.5 C 701.671875 206.042969 701.78125 205.585938 701.898438 205.132813 C 705.117188 192.464844 712.214844 181.105469 722.242188 172.691406 C 727.0625 168.652344 732.742188 164.375 739.046875 160.527344 C 749.554688 154.117188 761.6875 151.050781 773.859375 151.535156 C 776.929688 151.65625 780.003906 152.003906 783.054688 152.578125 "/>
<path style=" stroke:none;fill-rule:nonzero;fill:rgb(0%,0%,0%);fill-opacity:1;" d="M 684.460938 289.074219 L 872.734375 316.351563 L 897.738281 176.179688 L 782.703125 154.433594 C 779.769531 153.882813 776.769531 153.539063 773.785156 153.417969 C 761.828125 152.941406 750.152344 155.960938 740.027344 162.140625 C 734.507813 165.507813 728.933594 169.546875 723.457031 174.136719 C 713.699219 182.320313 706.878906 193.199219 703.726563 205.597656 C 703.609375 206.039063 703.507813 206.484375 703.402344 206.925781 Z M 874.273438 320.367188 C 874.183594 320.367188 874.09375 320.359375 874 320.347656 L 681.894531 292.511719 C 681.371094 292.4375 680.90625 292.148438 680.605469 291.710938 C 680.308594 291.277344 680.207031 290.738281 680.324219 290.222656 L 699.726563 206.078125 C 699.839844 205.601563 699.949219 205.128906 700.070313 204.65625 C 703.417969 191.5 710.664063 179.941406 721.03125 171.246094 C 726.652344 166.53125 732.382813 162.386719 738.0625 158.917969 C 748.824219 152.351563 761.226563 149.144531 773.933594 149.648438 C 777.105469 149.777344 780.289063 150.140625 783.402344 150.726563 L 900.273438 172.820313 C 901.289063 173.011719 901.960938 173.984375 901.777344 175.003906 L 876.128906 318.8125 C 875.964844 319.722656 875.171875 320.367188 874.273438 320.367188 "/>
<path style=" stroke:none;fill-rule:nonzero;fill:rgb(35.693359%,68.943787%,91.40625%);fill-opacity:1;" d="M 854.894531 227.066406 L 841.925781 313.792969 L 715.722656 295.507813 L 743.015625 182.859375 L 834.703125 198.140625 C 834.703125 198.140625 831.429688 221.0625 854.894531 227.066406 "/>
<path style=" stroke:none;fill-rule:nonzero;fill:rgb(0%,0%,0%);fill-opacity:1;" d="M 718.042969 293.9375 L 840.339844 311.65625 L 852.785156 228.433594 C 833.570313 222.605469 832.507813 205.402344 832.703125 199.71875 L 744.4375 185.007813 Z M 843.515625 315.929688 L 713.402344 297.078125 L 741.597656 180.710938 L 836.832031 196.582031 L 836.570313 198.40625 C 836.449219 199.273438 833.863281 219.738281 855.363281 225.238281 L 857.015625 225.660156 "/>
<path style=" stroke:none;fill-rule:nonzero;fill:rgb(35.693359%,68.943787%,91.40625%);fill-opacity:1;" d="M 773.859375 151.535156 L 762.664063 207.964844 C 744.667969 202.074219 719.316406 203.246094 701.898438 205.132813 C 705.117188 192.46875 712.214844 181.105469 722.246094 172.691406 C 727.0625 168.652344 732.742188 164.375 739.046875 160.527344 C 749.554688 154.117188 761.6875 151.050781 773.859375 151.535156 "/>
<path style=" stroke:none;fill-rule:nonzero;fill:rgb(0%,0%,0%);fill-opacity:1;" d="M 728.453125 201.710938 C 739.808594 201.710938 751.425781 202.691406 761.222656 205.542969 L 771.570313 153.371094 C 760.378906 153.300781 749.527344 156.34375 740.027344 162.140625 C 734.507813 165.507813 728.933594 169.546875 723.457031 174.136719 C 714.394531 181.738281 707.863281 191.664063 704.453125 202.96875 C 711.746094 202.25 720.027344 201.710938 728.453125 201.710938 M 762.664063 209.851563 C 762.464844 209.851563 762.269531 209.820313 762.074219 209.757813 C 744.53125 204.015625 719.777344 205.09375 702.101563 207.007813 C 701.480469 207.074219 700.878906 206.835938 700.472656 206.367188 C 700.066406 205.902344 699.917969 205.265625 700.070313 204.667969 C 703.417969 191.5 710.664063 179.941406 721.03125 171.246094 C 726.652344 166.535156 732.382813 162.386719 738.0625 158.917969 C 748.824219 152.351563 761.226563 149.144531 773.933594 149.648438 C 774.484375 149.671875 775 149.933594 775.339844 150.367188 C 775.683594 150.800781 775.816406 151.359375 775.710938 151.902344 L 764.515625 208.332031 C 764.40625 208.859375 764.082031 209.320313 763.617188 209.59375 C 763.324219 209.761719 762.996094 209.851563 762.664063 209.851563 "/>
<path style=" stroke:none;fill-rule:nonzero;fill:rgb(100%,100%,100%);fill-opacity:1;" d="M 808.234375 230.339844 C 808.234375 239.230469 801.027344 246.441406 792.132813 246.441406 C 783.242188 246.441406 776.035156 239.230469 776.035156 230.339844 C 776.035156 221.445313 783.242188 214.238281 792.132813 214.238281 C 801.027344 214.238281 808.234375 221.445313 808.234375 230.339844 "/>
<path style=" stroke:none;fill-rule:nonzero;fill:rgb(0%,0%,0%);fill-opacity:1;" d="M 792.132813 216.125 C 784.296875 216.125 777.921875 222.503906 777.921875 230.339844 C 777.921875 238.175781 784.296875 244.554688 792.132813 244.554688 C 799.972656 244.554688 806.347656 238.175781 806.347656 230.339844 C 806.347656 222.503906 799.972656 216.125 792.132813 216.125 M 792.132813 248.324219 C 782.214844 248.324219 774.148438 240.257813 774.148438 230.339844 C 774.148438 220.421875 782.214844 212.355469 792.132813 212.355469 C 802.050781 212.355469 810.121094 220.421875 810.121094 230.339844 C 810.121094 240.257813 802.050781 248.324219 792.132813 248.324219 "/>
<path style=" stroke:none;fill-rule:nonzero;fill:rgb(100%,100%,100%);fill-opacity:1;" d="M 978.238281 395.703125 L 895.28125 236.617188 L 757.203125 308.382813 L 833.339844 470.746094 Z M 978.238281 395.703125 "/>
<path style=" stroke:none;fill-rule:nonzero;fill:rgb(0%,0%,0%);fill-opacity:1;" d="M 759.683594 309.222656 L 834.214844 468.171875 L 975.691406 394.898438 L 894.480469 239.15625 Z M 833.339844 472.632813 C 833.136719 472.632813 832.929688 472.601563 832.730469 472.53125 C 832.246094 472.367188 831.847656 472.015625 831.628906 471.546875 L 755.496094 309.183594 C 755.066406 308.269531 755.4375 307.179688 756.335938 306.710938 L 894.414063 234.941406 C 895.339844 234.460938 896.472656 234.820313 896.953125 235.742188 L 979.910156 394.832031 C 980.144531 395.277344 980.1875 395.796875 980.035156 396.273438 C 979.886719 396.75 979.550781 397.148438 979.105469 397.378906 L 834.203125 472.421875 C 833.9375 472.5625 833.636719 472.632813 833.339844 472.632813 "/>
<path style=" stroke:none;fill-rule:nonzero;fill:rgb(35.693359%,68.943787%,91.40625%);fill-opacity:1;" d="M 822.152344 295.21875 L 822.152344 381.789063 L 636.046875 381.789063 L 636.046875 262.8125 L 789.746094 262.8125 C 807.644531 262.8125 822.152344 277.320313 822.152344 295.21875 "/>
<path style=" stroke:none;fill-rule:nonzero;fill:rgb(35.693359%,68.943787%,91.40625%);fill-opacity:1;" d="M 637.933594 379.902344 L 820.265625 379.902344 L 820.265625 295.21875 C 820.265625 278.390625 806.574219 264.699219 789.746094 264.699219 L 637.933594 264.699219 Z M 824.039063 383.675781 L 634.160156 383.675781 L 634.160156 260.925781 L 789.746094 260.925781 C 808.652344 260.925781 824.039063 276.308594 824.039063 295.21875 "/>
<path style=" stroke:none;fill-rule:nonzero;fill:rgb(100%,100%,100%);fill-opacity:1;" d="M 769.210938 323.390625 C 769.210938 345.546875 751.253906 363.507813 729.097656 363.507813 C 706.945313 363.507813 688.984375 345.546875 688.984375 323.390625 C 688.984375 301.238281 706.945313 283.277344 729.097656 283.277344 C 751.253906 283.277344 769.210938 301.238281 769.210938 323.390625 "/>
<path style="fill:none;stroke-width:10;stroke-linecap:butt;stroke-linejoin:miter;stroke:rgb(13.330078%,9.008789%,7.835388%);stroke-opacity:1;stroke-miterlimit:10;" d="M 7692.109375 3687.19375 C 7692.109375 3465.63125 7512.539063 3286.021875 7290.976563 3286.021875 C 7069.453125 3286.021875 6889.84375 3465.63125 6889.84375 3687.19375 C 6889.84375 3908.717188 7069.453125 4088.326563 7290.976563 4088.326563 C 7512.539063 4088.326563 7692.109375 3908.717188 7692.109375 3687.19375 Z M 7692.109375 3687.19375 " transform="matrix(0.1,0,0,-0.1,0,692.11)"/>
<path style=" stroke:none;fill-rule:nonzero;fill:rgb(0%,0%,0%);fill-opacity:1;" d="M 729.097656 285.164063 C 708.019531 285.164063 690.871094 302.3125 690.871094 323.390625 C 690.871094 344.472656 708.019531 361.617188 729.097656 361.617188 C 750.175781 361.617188 767.328125 344.472656 767.328125 323.390625 C 767.328125 302.3125 750.175781 285.164063 729.097656 285.164063 M 729.097656 365.390625 C 705.941406 365.390625 687.097656 346.550781 687.097656 323.390625 C 687.097656 300.234375 705.941406 281.394531 729.097656 281.394531 C 752.257813 281.394531 771.097656 300.234375 771.097656 323.390625 C 771.097656 346.550781 752.257813 365.390625 729.097656 365.390625 "/>
<path style=" stroke:none;fill-rule:nonzero;fill:rgb(100%,100%,100%);fill-opacity:1;" d="M 636.046875 381.789063 L 667.15625 381.789063 L 667.15625 262.8125 L 636.046875 262.8125 Z M 636.046875 381.789063 "/>
<path style=" stroke:none;fill-rule:nonzero;fill:rgb(0%,0%,0%);fill-opacity:1;" d="M 637.933594 379.902344 L 665.269531 379.902344 L 665.269531 264.699219 L 637.933594 264.699219 Z M 669.042969 383.675781 L 634.160156 383.675781 L 634.160156 260.925781 L 669.042969 260.925781 Z M 669.042969 383.675781 "/>
<path style=" stroke:none;fill-rule:nonzero;fill:rgb(100%,100%,100%);fill-opacity:1;" d="M 751.203125 309.796875 L 564.277344 309.796875 L 564.277344 290.226563 C 564.277344 270.289063 580.441406 262.8125 600.378906 262.8125 L 787.019531 262.8125 C 743.972656 268.816406 751.203125 309.796875 751.203125 309.796875 "/>
<path style=" stroke:none;fill-rule:nonzero;fill:rgb(0%,0%,0%);fill-opacity:1;" d="M 566.164063 307.910156 L 749.0625 307.910156 C 748.550781 302.578125 748.222656 288.710938 756.621094 277.164063 C 760.59375 271.703125 765.960938 267.535156 772.65625 264.699219 L 600.378906 264.699219 C 587.601563 264.699219 566.164063 268.015625 566.164063 290.226563 Z M 751.203125 311.679688 L 564.277344 311.679688 C 563.238281 311.679688 562.394531 310.835938 562.394531 309.796875 L 562.394531 290.226563 C 562.394531 271.605469 576.238281 260.925781 600.378906 260.925781 L 787.019531 260.925781 C 788.011719 260.925781 788.835938 261.691406 788.902344 262.679688 C 788.972656 263.671875 788.261719 264.542969 787.28125 264.679688 C 774.804688 266.421875 765.519531 271.359375 759.691406 279.355469 C 750.214844 292.359375 753.03125 309.300781 753.0625 309.472656 C 753.15625 310.019531 753.003906 310.582031 752.644531 311.007813 C 752.285156 311.433594 751.757813 311.679688 751.203125 311.679688 "/>
<path style=" stroke:none;fill-rule:nonzero;fill:rgb(35.693359%,68.943787%,91.40625%);fill-opacity:1;" d="M 725.203125 262.8125 C 711.644531 267.574219 697.546875 277.75 696.078125 289.324219 L 628.40625 289.324219 C 628.40625 289.324219 625.976563 275.878906 608.980469 262.8125 "/>
<path style=" stroke:none;fill-rule:nonzero;fill:rgb(0%,0%,0%);fill-opacity:1;" d="M 629.875 287.4375 L 694.496094 287.4375 C 696.550781 278.113281 705.738281 270.011719 716.066406 264.699219 L 614.222656 264.699219 C 625.199219 274.464844 628.820313 283.820313 629.875 287.4375 M 697.742188 291.210938 L 626.828125 291.210938 L 626.550781 289.660156 C 626.527344 289.535156 623.964844 276.710938 607.828125 264.308594 L 603.429688 260.925781 L 736.265625 260.925781 L 725.828125 264.59375 C 713.371094 268.96875 699.335938 278.644531 697.953125 289.558594 "/>
<path style=" stroke:none;fill-rule:nonzero;fill:rgb(35.693359%,68.943787%,91.40625%);fill-opacity:1;" d="M 968.414063 431.453125 L 895.28125 302.105469 C 895.28125 302.105469 871.765625 313.710938 860.355469 290.644531 L 786.949219 329.394531 L 857.898438 475.660156 "/>
<path style=" stroke:none;fill-rule:nonzero;fill:rgb(0%,0%,0%);fill-opacity:1;" d="M 789.441406 330.214844 L 858.828125 473.253906 L 965.710938 430.503906 L 894.464844 304.492188 C 888.816406 306.640625 870.070313 311.976563 859.5625 293.195313 Z M 857.898438 477.546875 C 857.195313 477.546875 856.523438 477.152344 856.203125 476.484375 L 785.253906 330.21875 C 784.808594 329.304688 785.171875 328.203125 786.070313 327.726563 L 859.472656 288.980469 C 859.921875 288.738281 860.453125 288.695313 860.933594 288.851563 C 861.421875 289.007813 861.820313 289.355469 862.046875 289.808594 C 872.46875 310.878906 893.558594 300.851563 894.453125 300.414063 C 895.347656 299.976563 896.433594 300.3125 896.925781 301.179688 L 970.054688 430.523438 C 970.324219 430.996094 970.375 431.566406 970.195313 432.078125 C 970.011719 432.59375 969.621094 433.003906 969.113281 433.203125 L 858.597656 477.410156 C 858.371094 477.503906 858.132813 477.546875 857.898438 477.546875 "/>
<path style=" stroke:none;fill-rule:nonzero;fill:rgb(100%,100%,100%);fill-opacity:1;" d="M 885.1875 350.679688 C 885.1875 359.570313 877.980469 366.78125 869.085938 366.78125 C 860.195313 366.78125 852.988281 359.570313 852.988281 350.679688 C 852.988281 341.789063 860.195313 334.578125 869.085938 334.578125 C 877.980469 334.578125 885.1875 341.789063 885.1875 350.679688 "/>
<path style=" stroke:none;fill-rule:nonzero;fill:rgb(0%,0%,0%);fill-opacity:1;" d="M 869.085938 336.464844 C 861.25 336.464844 854.871094 342.84375 854.871094 350.679688 C 854.871094 358.519531 861.25 364.894531 869.085938 364.894531 C 876.925781 364.894531 883.300781 358.519531 883.300781 350.679688 C 883.300781 342.84375 876.925781 336.464844 869.085938 336.464844 M 869.085938 368.664063 C 859.167969 368.664063 851.101563 360.597656 851.101563 350.679688 C 851.101563 340.761719 859.167969 332.695313 869.085938 332.695313 C 879.003906 332.695313 887.074219 340.761719 887.074219 350.679688 C 887.074219 360.597656 879.003906 368.664063 869.085938 368.664063 "/>
<path style=" stroke:none;fill-rule:nonzero;fill:rgb(100%,100%,100%);fill-opacity:1;" d="M 822.152344 295.21875 L 822.152344 381.789063 L 786.949219 381.789063 L 786.949219 262.8125 L 789.746094 262.8125 C 807.644531 262.8125 822.152344 277.320313 822.152344 295.21875 "/>
<path style=" stroke:none;fill-rule:nonzero;fill:rgb(0%,0%,0%);fill-opacity:1;" d="M 788.835938 379.902344 L 820.265625 379.902344 L 820.265625 295.21875 C 820.265625 278.390625 806.574219 264.699219 789.742188 264.699219 L 788.835938 264.699219 Z M 824.039063 383.675781 L 785.0625 383.675781 L 785.0625 260.925781 L 789.742188 260.925781 C 808.652344 260.925781 824.039063 276.308594 824.039063 295.21875 "/>
<path style=" stroke:none;fill-rule:nonzero;fill:rgb(0%,0%,0%);fill-opacity:1;" d="M 617.21875 363.507813 L 983.695313 363.507813 C 991.230469 363.507813 997.339844 369.613281 997.339844 377.148438 L 997.339844 674.316406 C 997.339844 681.851563 991.230469 687.960938 983.695313 687.960938 L 617.21875 687.960938 "/>
<path style=" stroke:none;fill-rule:nonzero;fill:rgb(0%,0%,0%);fill-opacity:1;" d="M 619.105469 686.074219 L 983.695313 686.074219 C 990.179688 686.074219 995.453125 680.800781 995.453125 674.316406 L 995.453125 377.148438 C 995.453125 370.664063 990.179688 365.390625 983.695313 365.390625 L 619.105469 365.390625 Z M 983.695313 689.847656 L 615.332031 689.847656 L 615.332031 361.617188 L 983.695313 361.617188 C 992.257813 361.617188 999.226563 368.585938 999.226563 377.148438 L 999.226563 674.316406 C 999.226563 682.878906 992.257813 689.847656 983.695313 689.847656 "/>
<path style=" stroke:none;fill-rule:nonzero;fill:rgb(100%,100%,100%);fill-opacity:1;" d="M 592.386719 363.507813 L 945.21875 363.507813 C 952.757813 363.507813 958.863281 369.613281 958.863281 377.148438 L 958.863281 674.316406 C 958.863281 681.851563 952.757813 687.960938 945.21875 687.960938 L 592.386719 687.960938 C 584.851563 687.960938 578.742188 681.851563 578.742188 674.316406 L 578.742188 377.148438 C 578.742188 369.613281 584.851563 363.507813 592.386719 363.507813 "/>
<path style=" stroke:none;fill-rule:nonzero;fill:rgb(0%,0%,0%);fill-opacity:1;" d="M 592.386719 365.390625 C 585.902344 365.390625 580.628906 370.664063 580.628906 377.148438 L 580.628906 674.316406 C 580.628906 680.796875 585.902344 686.074219 592.386719 686.074219 L 945.21875 686.074219 C 951.703125 686.074219 956.980469 680.796875 956.980469 674.316406 L 956.980469 377.148438 C 956.980469 370.664063 951.703125 365.390625 945.21875 365.390625 Z M 945.21875 689.847656 L 592.386719 689.847656 C 583.824219 689.847656 576.855469 682.878906 576.855469 674.316406 L 576.855469 377.148438 C 576.855469 368.585938 583.824219 361.617188 592.386719 361.617188 L 945.21875 361.617188 C 953.785156 361.617188 960.75 368.585938 960.75 377.148438 L 960.75 674.316406 C 960.75 682.878906 953.785156 689.847656 945.21875 689.847656 "/>
<path style=" stroke:none;fill-rule:nonzero;fill:rgb(0%,0%,0%);fill-opacity:1;" d="M 597.84375 389.40625 L 604.636719 389.40625 L 604.636719 385.632813 L 597.84375 385.632813 Z M 597.84375 389.40625 "/>
<path style=" stroke:none;fill-rule:nonzero;fill:rgb(0%,0%,0%);fill-opacity:1;" d="M 631.773438 389.40625 L 618.203125 389.40625 L 618.203125 385.632813 L 631.773438 385.632813 Z M 658.910156 389.40625 L 645.34375 389.40625 L 645.34375 385.632813 L 658.910156 385.632813 Z M 686.046875 389.40625 L 672.480469 389.40625 L 672.480469 385.632813 L 686.046875 385.632813 Z M 713.1875 389.40625 L 699.617188 389.40625 L 699.617188 385.632813 L 713.1875 385.632813 Z M 740.324219 389.40625 L 726.757813 389.40625 L 726.757813 385.632813 L 740.324219 385.632813 Z M 767.464844 389.40625 L 753.894531 389.40625 L 753.894531 385.632813 L 767.464844 385.632813 Z M 794.601563 389.40625 L 781.03125 389.40625 L 781.03125 385.632813 L 794.601563 385.632813 Z M 821.738281 389.40625 L 808.171875 389.40625 L 808.171875 385.632813 L 821.738281 385.632813 Z M 848.878906 389.40625 L 835.308594 389.40625 L 835.308594 385.632813 L 848.878906 385.632813 Z M 876.015625 389.40625 L 862.445313 389.40625 L 862.445313 385.632813 L 876.015625 385.632813 Z M 903.152344 389.40625 L 889.585938 389.40625 L 889.585938 385.632813 L 903.152344 385.632813 Z M 929.140625 390.785156 C 927.445313 389.882813 925.523438 389.40625 923.589844 389.40625 L 916.722656 389.40625 L 916.722656 385.632813 L 923.589844 385.632813 C 926.140625 385.632813 928.675781 386.261719 930.914063 387.453125 Z M 939.191406 413.519531 L 935.421875 413.519531 L 935.421875 401.234375 C 935.421875 400.867188 935.402344 400.492188 935.367188 400.128906 L 939.125 399.78125 C 939.171875 400.261719 939.191406 400.75 939.191406 401.234375 Z M 939.191406 440.660156 L 935.417969 440.660156 L 935.417969 427.089844 L 939.191406 427.089844 Z M 939.191406 467.796875 L 935.417969 467.796875 L 935.417969 454.226563 L 939.191406 454.226563 Z M 939.191406 494.933594 L 935.417969 494.933594 L 935.417969 481.367188 L 939.191406 481.367188 Z M 939.191406 522.074219 L 935.417969 522.074219 L 935.417969 508.503906 L 939.191406 508.503906 Z M 939.191406 549.210938 L 935.417969 549.210938 L 935.417969 535.640625 L 939.191406 535.640625 Z M 939.191406 576.347656 L 935.417969 576.347656 L 935.417969 562.78125 L 939.191406 562.78125 Z M 939.191406 603.488281 L 935.417969 603.488281 L 935.417969 589.917969 L 939.191406 589.917969 Z M 939.191406 630.625 L 935.417969 630.625 L 935.417969 617.054688 L 939.191406 617.054688 Z M 939.128906 657.933594 L 935.371094 657.589844 C 935.402344 657.230469 935.421875 656.867188 935.421875 656.503906 L 935.421875 644.195313 L 939.191406 644.195313 L 939.191406 656.503906 C 939.191406 656.980469 939.171875 657.460938 939.128906 657.933594 M 631.800781 672.109375 L 618.230469 672.109375 L 618.230469 668.335938 L 631.800781 668.335938 Z M 658.9375 672.109375 L 645.371094 672.109375 L 645.371094 668.335938 L 658.9375 668.335938 Z M 686.074219 672.109375 L 672.507813 672.109375 L 672.507813 668.335938 L 686.074219 668.335938 Z M 713.214844 672.109375 L 699.644531 672.109375 L 699.644531 668.335938 L 713.214844 668.335938 Z M 740.351563 672.109375 L 726.785156 672.109375 L 726.785156 668.335938 L 740.351563 668.335938 Z M 767.492188 672.109375 L 753.921875 672.109375 L 753.921875 668.335938 L 767.492188 668.335938 Z M 794.628906 672.109375 L 781.058594 672.109375 L 781.058594 668.335938 L 794.628906 668.335938 Z M 821.765625 672.109375 L 808.199219 672.109375 L 808.199219 668.335938 L 821.765625 668.335938 Z M 848.90625 672.109375 L 835.335938 672.109375 L 835.335938 668.335938 L 848.90625 668.335938 Z M 876.042969 672.109375 L 862.472656 672.109375 L 862.472656 668.335938 L 876.042969 668.335938 Z M 903.179688 672.109375 L 889.613281 672.109375 L 889.613281 668.335938 L 903.179688 668.335938 Z M 923.589844 672.109375 L 916.75 672.109375 L 916.75 668.335938 L 923.589844 668.335938 C 925.53125 668.335938 927.460938 667.855469 929.160156 666.945313 L 930.941406 670.269531 C 928.695313 671.472656 926.152344 672.109375 923.589844 672.109375 "/>
<path style=" stroke:none;fill-rule:nonzero;fill:rgb(0%,0%,0%);fill-opacity:1;" d="M 597.84375 672.109375 L 604.636719 672.109375 L 604.636719 668.335938 L 597.84375 668.335938 Z M 597.84375 672.109375 "/>
<path style=" stroke:none;fill-rule:nonzero;fill:rgb(35.693359%,68.943787%,91.40625%);fill-opacity:1;" d="M 1012.078125 488.484375 L 1012.078125 568.710938 C 1012.078125 574.289063 1007.558594 578.808594 1001.980469 578.808594 L 872.359375 578.808594 C 844.632813 578.808594 822.152344 556.328125 822.152344 528.597656 C 822.152344 500.867188 844.632813 478.386719 872.359375 478.386719 L 1001.980469 478.386719 C 1007.558594 478.386719 1012.078125 482.90625 1012.078125 488.484375 "/>
<path style=" stroke:none;fill-rule:nonzero;fill:rgb(0%,0%,0%);fill-opacity:1;" d="M 872.359375 480.273438 C 845.714844 480.273438 824.039063 501.953125 824.039063 528.597656 C 824.039063 555.242188 845.714844 576.921875 872.359375 576.921875 L 1001.980469 576.921875 C 1006.511719 576.921875 1010.191406 573.238281 1010.191406 568.710938 L 1010.191406 488.484375 C 1010.191406 483.957031 1006.511719 480.273438 1001.980469 480.273438 Z M 1001.980469 580.695313 L 872.359375 580.695313 C 843.632813 580.695313 820.265625 557.324219 820.265625 528.597656 C 820.265625 499.871094 843.632813 476.503906 872.359375 476.503906 L 1001.980469 476.503906 C 1008.589844 476.503906 1013.960938 481.878906 1013.960938 488.484375 L 1013.960938 568.710938 C 1013.960938 575.316406 1008.589844 580.695313 1001.980469 580.695313 "/>
<path style=" stroke:none;fill-rule:nonzero;fill:rgb(100%,100%,100%);fill-opacity:1;" d="M 895.28125 528.597656 C 895.28125 540.050781 885.996094 549.335938 874.542969 549.335938 C 863.089844 549.335938 853.804688 540.050781 853.804688 528.597656 C 853.804688 517.144531 863.089844 507.859375 874.542969 507.859375 C 885.996094 507.859375 895.28125 517.144531 895.28125 528.597656 "/>
<path style=" stroke:none;fill-rule:nonzero;fill:rgb(0%,0%,0%);fill-opacity:1;" d="M 874.542969 509.746094 C 864.148438 509.746094 855.691406 518.203125 855.691406 528.597656 C 855.691406 538.992188 864.148438 547.449219 874.542969 547.449219 C 884.941406 547.449219 893.398438 538.992188 893.398438 528.597656 C 893.398438 518.203125 884.941406 509.746094 874.542969 509.746094 M 874.542969 551.222656 C 862.066406 551.222656 851.917969 541.074219 851.917969 528.597656 C 851.917969 516.121094 862.066406 505.972656 874.542969 505.972656 C 887.019531 505.972656 897.167969 516.121094 897.167969 528.597656 C 897.167969 541.074219 887.019531 551.222656 874.542969 551.222656 "/>
<path style=" stroke:none;fill-rule:nonzero;fill:rgb(0%,0%,0%);fill-opacity:1;" d="M 564.277344 549.214844 C 564.277344 625.703125 502.273438 687.707031 425.785156 687.707031 C 349.300781 687.707031 287.296875 625.703125 287.296875 549.214844 C 287.296875 472.726563 349.300781 410.722656 425.785156 410.722656 C 502.273438 410.722656 564.277344 472.726563 564.277344 549.214844 "/>
<path style=" stroke:none;fill-rule:nonzero;fill:rgb(0%,0%,0%);fill-opacity:1;" d="M 425.785156 412.609375 C 350.464844 412.609375 289.183594 473.890625 289.183594 549.214844 C 289.183594 624.539063 350.464844 685.820313 425.785156 685.820313 C 501.113281 685.820313 562.390625 624.539063 562.390625 549.214844 C 562.390625 473.890625 501.113281 412.609375 425.785156 412.609375 M 425.785156 689.59375 C 348.382813 689.59375 285.410156 626.621094 285.410156 549.214844 C 285.410156 471.8125 348.382813 408.835938 425.785156 408.835938 C 503.191406 408.835938 566.164063 471.8125 566.164063 549.214844 C 566.164063 626.621094 503.191406 689.59375 425.785156 689.59375 "/>
<path style=" stroke:none;fill-rule:nonzero;fill:rgb(35.693359%,68.943787%,91.40625%);fill-opacity:1;" d="M 539.320313 549.214844 C 539.320313 625.703125 477.3125 687.707031 400.828125 687.707031 C 324.339844 687.707031 262.335938 625.703125 262.335938 549.214844 C 262.335938 472.726563 324.339844 410.722656 400.828125 410.722656 C 477.3125 410.722656 539.320313 472.726563 539.320313 549.214844 "/>
<path style=" stroke:none;fill-rule:nonzero;fill:rgb(0%,0%,0%);fill-opacity:1;" d="M 400.828125 412.609375 C 325.503906 412.609375 264.222656 473.890625 264.222656 549.214844 C 264.222656 624.539063 325.503906 685.820313 400.828125 685.820313 C 476.152344 685.820313 537.433594 624.539063 537.433594 549.214844 C 537.433594 473.890625 476.152344 412.609375 400.828125 412.609375 M 400.828125 689.59375 C 323.421875 689.59375 260.449219 626.621094 260.449219 549.214844 C 260.449219 471.8125 323.421875 408.835938 400.828125 408.835938 C 478.230469 408.835938 541.203125 471.8125 541.203125 549.214844 C 541.203125 626.621094 478.230469 689.59375 400.828125 689.59375 "/>
<path style=" stroke:none;fill-rule:nonzero;fill:rgb(100%,100%,100%);fill-opacity:1;" d="M 503.15625 549.214844 C 503.15625 605.730469 457.34375 651.542969 400.828125 651.542969 C 344.3125 651.542969 298.5 605.730469 298.5 549.214844 C 298.5 492.699219 344.3125 446.886719 400.828125 446.886719 C 457.34375 446.886719 503.15625 492.699219 503.15625 549.214844 "/>
<path style=" stroke:none;fill-rule:nonzero;fill:rgb(0%,0%,0%);fill-opacity:1;" d="M 400.828125 448.773438 C 345.445313 448.773438 300.386719 493.832031 300.386719 549.214844 C 300.386719 604.597656 345.445313 649.65625 400.828125 649.65625 C 456.210938 649.65625 501.269531 604.597656 501.269531 549.214844 C 501.269531 493.832031 456.210938 448.773438 400.828125 448.773438 M 400.828125 653.429688 C 343.363281 653.429688 296.613281 606.679688 296.613281 549.214844 C 296.613281 491.753906 343.363281 445.003906 400.828125 445.003906 C 458.289063 445.003906 505.042969 491.753906 505.042969 549.214844 C 505.042969 606.679688 458.289063 653.429688 400.828125 653.429688 "/>
<path style=" stroke:none;fill-rule:nonzero;fill:rgb(35.693359%,68.943787%,91.40625%);fill-opacity:1;" d="M 743.070313 568.96875 L 849.882813 568.96875 C 851.964844 568.96875 853.652344 570.65625 853.652344 572.738281 L 853.652344 588.996094 C 853.652344 591.078125 851.964844 592.769531 849.882813 592.769531 L 743.070313 592.769531 C 740.984375 592.769531 739.296875 591.078125 739.296875 588.996094 L 739.296875 572.738281 C 739.296875 570.65625 740.984375 568.96875 743.070313 568.96875 "/>
<path style=" stroke:none;fill-rule:nonzero;fill:rgb(0%,0%,0%);fill-opacity:1;" d="M 743.070313 570.851563 C 742.03125 570.851563 741.183594 571.699219 741.183594 572.738281 L 741.183594 588.996094 C 741.183594 590.035156 742.03125 590.882813 743.070313 590.882813 L 849.882813 590.882813 C 850.921875 590.882813 851.765625 590.035156 851.765625 588.996094 L 851.765625 572.738281 C 851.765625 571.699219 850.921875 570.851563 849.882813 570.851563 Z M 849.882813 594.65625 L 743.070313 594.65625 C 739.949219 594.65625 737.410156 592.117188 737.410156 588.996094 L 737.410156 572.738281 C 737.410156 569.617188 739.949219 567.078125 743.070313 567.078125 L 849.882813 567.078125 C 853.003906 567.078125 855.539063 569.617188 855.539063 572.738281 L 855.539063 588.996094 C 855.539063 592.117188 853.003906 594.65625 849.882813 594.65625 "/>
<path style=" stroke:none;fill-rule:nonzero;fill:rgb(35.693359%,68.943787%,91.40625%);fill-opacity:1;" d="M 590.164063 569.226563 L 696.976563 569.226563 C 699.058594 569.226563 700.746094 570.914063 700.746094 572.996094 L 700.746094 589.253906 C 700.746094 591.339844 699.058594 593.027344 696.976563 593.027344 L 590.164063 593.027344 C 588.078125 593.027344 586.390625 591.339844 586.390625 589.253906 L 586.390625 572.996094 C 586.390625 570.914063 588.078125 569.226563 590.164063 569.226563 "/>
<path style=" stroke:none;fill-rule:nonzero;fill:rgb(0%,0%,0%);fill-opacity:1;" d="M 590.164063 571.113281 C 589.125 571.113281 588.277344 571.957031 588.277344 572.996094 L 588.277344 589.257813 C 588.277344 590.296875 589.125 591.140625 590.164063 591.140625 L 696.976563 591.140625 C 698.015625 591.140625 698.859375 590.296875 698.859375 589.257813 L 698.859375 572.996094 C 698.859375 571.957031 698.015625 571.113281 696.976563 571.113281 Z M 696.976563 594.914063 L 590.164063 594.914063 C 587.042969 594.914063 584.503906 592.375 584.503906 589.257813 L 584.503906 572.996094 C 584.503906 569.878906 587.042969 567.339844 590.164063 567.339844 L 696.976563 567.339844 C 700.097656 567.339844 702.632813 569.878906 702.632813 572.996094 L 702.632813 589.257813 C 702.632813 592.375 700.097656 594.914063 696.976563 594.914063 "/>
<path style=" stroke:none;fill-rule:nonzero;fill:rgb(35.693359%,68.943787%,91.40625%);fill-opacity:1;" d="M 550.320313 545.421875 L 657.132813 545.421875 C 659.214844 545.421875 660.902344 547.113281 660.902344 549.195313 L 660.902344 565.453125 C 660.902344 567.535156 659.214844 569.226563 657.132813 569.226563 L 550.320313 569.226563 C 548.234375 569.226563 546.546875 567.535156 546.546875 565.453125 L 546.546875 549.195313 C 546.546875 547.113281 548.234375 545.421875 550.320313 545.421875 "/>
<path style=" stroke:none;fill-rule:nonzero;fill:rgb(0%,0%,0%);fill-opacity:1;" d="M 550.320313 547.308594 C 549.28125 547.308594 548.433594 548.15625 548.433594 549.195313 L 548.433594 565.453125 C 548.433594 566.492188 549.28125 567.339844 550.320313 567.339844 L 657.132813 567.339844 C 658.171875 567.339844 659.015625 566.492188 659.015625 565.453125 L 659.015625 549.195313 C 659.015625 548.15625 658.171875 547.308594 657.132813 547.308594 Z M 657.132813 571.113281 L 550.320313 571.113281 C 547.199219 571.113281 544.660156 568.574219 544.660156 565.453125 L 544.660156 549.195313 C 544.660156 546.074219 547.199219 543.535156 550.320313 543.535156 L 657.132813 543.535156 C 660.253906 543.535156 662.789063 546.074219 662.789063 549.195313 L 662.789063 565.453125 C 662.789063 568.574219 660.253906 571.113281 657.132813 571.113281 "/>
<path style=" stroke:none;fill-rule:nonzero;fill:rgb(35.693359%,68.943787%,91.40625%);fill-opacity:1;" d="M 557.109375 521.621094 L 663.921875 521.621094 C 666.007813 521.621094 667.695313 523.308594 667.695313 525.390625 L 667.695313 541.648438 C 667.695313 543.734375 666.007813 545.421875 663.921875 545.421875 L 557.109375 545.421875 C 555.027344 545.421875 553.339844 543.734375 553.339844 541.648438 L 553.339844 525.390625 C 553.339844 523.308594 555.027344 521.621094 557.109375 521.621094 "/>
<path style=" stroke:none;fill-rule:nonzero;fill:rgb(0%,0%,0%);fill-opacity:1;" d="M 557.109375 523.507813 C 556.070313 523.507813 555.222656 524.351563 555.222656 525.394531 L 555.222656 541.648438 C 555.222656 542.691406 556.070313 543.535156 557.109375 543.535156 L 663.921875 543.535156 C 664.964844 543.535156 665.808594 542.691406 665.808594 541.648438 L 665.808594 525.394531 C 665.808594 524.351563 664.964844 523.507813 663.921875 523.507813 Z M 663.921875 547.308594 L 557.109375 547.308594 C 553.988281 547.308594 551.453125 544.769531 551.453125 541.648438 L 551.453125 525.394531 C 551.453125 522.273438 553.988281 519.734375 557.109375 519.734375 L 663.921875 519.734375 C 667.042969 519.734375 669.582031 522.273438 669.582031 525.394531 L 669.582031 541.648438 C 669.582031 544.769531 667.042969 547.308594 663.921875 547.308594 "/>
<path style=" stroke:none;fill-rule:nonzero;fill:rgb(35.693359%,68.943787%,91.40625%);fill-opacity:1;" d="M 557.109375 497.816406 L 663.921875 497.816406 C 666.007813 497.816406 667.695313 499.507813 667.695313 501.589844 L 667.695313 517.847656 C 667.695313 519.929688 666.007813 521.621094 663.921875 521.621094 L 557.109375 521.621094 C 555.027344 521.621094 553.339844 519.929688 553.339844 517.847656 L 553.339844 501.589844 C 553.339844 499.507813 555.027344 497.816406 557.109375 497.816406 "/>
<path style=" stroke:none;fill-rule:nonzero;fill:rgb(0%,0%,0%);fill-opacity:1;" d="M 557.109375 499.703125 C 556.070313 499.703125 555.222656 500.550781 555.222656 501.589844 L 555.222656 517.847656 C 555.222656 518.886719 556.070313 519.734375 557.109375 519.734375 L 663.921875 519.734375 C 664.964844 519.734375 665.808594 518.886719 665.808594 517.847656 L 665.808594 501.589844 C 665.808594 500.550781 664.964844 499.703125 663.921875 499.703125 Z M 663.921875 523.507813 L 557.109375 523.507813 C 553.988281 523.507813 551.453125 520.96875 551.453125 517.847656 L 551.453125 501.589844 C 551.453125 498.46875 553.988281 495.929688 557.109375 495.929688 L 663.921875 495.929688 C 667.042969 495.929688 669.582031 498.46875 669.582031 501.589844 L 669.582031 517.847656 C 669.582031 520.96875 667.042969 523.507813 663.921875 523.507813 "/>
<path style=" stroke:none;fill-rule:nonzero;fill:rgb(35.693359%,68.943787%,91.40625%);fill-opacity:1;" d="M 556.011719 593.027344 L 662.824219 593.027344 C 664.90625 593.027344 666.597656 594.714844 666.597656 596.800781 L 666.597656 613.058594 C 666.597656 615.140625 664.90625 616.832031 662.824219 616.832031 L 556.011719 616.832031 C 553.929688 616.832031 552.238281 615.140625 552.238281 613.058594 L 552.238281 596.800781 C 552.238281 594.714844 553.929688 593.027344 556.011719 593.027344 "/>
<path style=" stroke:none;fill-rule:nonzero;fill:rgb(0%,0%,0%);fill-opacity:1;" d="M 556.011719 594.914063 C 554.972656 594.914063 554.125 595.761719 554.125 596.800781 L 554.125 613.058594 C 554.125 614.097656 554.972656 614.945313 556.011719 614.945313 L 662.824219 614.945313 C 663.863281 614.945313 664.710938 614.097656 664.710938 613.058594 L 664.710938 596.800781 C 664.710938 595.761719 663.863281 594.914063 662.824219 594.914063 Z M 662.824219 618.71875 L 556.011719 618.71875 C 552.890625 618.71875 550.355469 616.179688 550.355469 613.058594 L 550.355469 596.800781 C 550.355469 593.679688 552.890625 591.140625 556.011719 591.140625 L 662.824219 591.140625 C 665.945313 591.140625 668.484375 593.679688 668.484375 596.800781 L 668.484375 613.058594 C 668.484375 616.179688 665.945313 618.71875 662.824219 618.71875 "/>
<path style=" stroke:none;fill-rule:nonzero;fill:rgb(35.693359%,68.943787%,91.40625%);fill-opacity:1;" d="M 556.011719 616.832031 L 662.824219 616.832031 C 664.90625 616.832031 666.597656 618.519531 666.597656 620.601563 L 666.597656 636.859375 C 666.597656 638.945313 664.90625 640.632813 662.824219 640.632813 L 556.011719 640.632813 C 553.929688 640.632813 552.238281 638.945313 552.238281 636.859375 L 552.238281 620.601563 C 552.238281 618.519531 553.929688 616.832031 556.011719 616.832031 "/>
<path style=" stroke:none;fill-rule:nonzero;fill:rgb(0%,0%,0%);fill-opacity:1;" d="M 556.011719 618.71875 C 554.972656 618.71875 554.125 619.5625 554.125 620.601563 L 554.125 636.859375 C 554.125 637.902344 554.972656 638.746094 556.011719 638.746094 L 662.824219 638.746094 C 663.863281 638.746094 664.710938 637.902344 664.710938 636.859375 L 664.710938 620.601563 C 664.710938 619.5625 663.863281 618.71875 662.824219 618.71875 Z M 662.824219 642.519531 L 556.011719 642.519531 C 552.890625 642.519531 550.355469 639.980469 550.355469 636.859375 L 550.355469 620.601563 C 550.355469 617.484375 552.890625 614.945313 556.011719 614.945313 L 662.824219 614.945313 C 665.945313 614.945313 668.484375 617.484375 668.484375 620.601563 L 668.484375 636.859375 C 668.484375 639.980469 665.945313 642.519531 662.824219 642.519531 "/>
<path style=" stroke:none;fill-rule:nonzero;fill:rgb(35.693359%,68.943787%,91.40625%);fill-opacity:1;" d="M 543.1875 640.632813 L 649.996094 640.632813 C 652.078125 640.632813 653.769531 642.320313 653.769531 644.40625 L 653.769531 660.664063 C 653.769531 662.746094 652.078125 664.4375 649.996094 664.4375 L 543.1875 664.4375 C 541.101563 664.4375 539.414063 662.746094 539.414063 660.664063 L 539.414063 644.40625 C 539.414063 642.320313 541.101563 640.632813 543.1875 640.632813 "/>
<path style=" stroke:none;fill-rule:nonzero;fill:rgb(0%,0%,0%);fill-opacity:1;" d="M 543.1875 642.519531 C 542.144531 642.519531 541.296875 643.367188 541.296875 644.40625 L 541.296875 660.664063 C 541.296875 661.703125 542.144531 662.550781 543.1875 662.550781 L 649.996094 662.550781 C 651.039063 662.550781 651.882813 661.703125 651.882813 660.664063 L 651.882813 644.40625 C 651.882813 643.367188 651.039063 642.519531 649.996094 642.519531 Z M 649.996094 666.324219 L 543.1875 666.324219 C 540.0625 666.324219 537.527344 663.785156 537.527344 660.664063 L 537.527344 644.40625 C 537.527344 641.285156 540.0625 638.746094 543.1875 638.746094 L 649.996094 638.746094 C 653.117188 638.746094 655.65625 641.285156 655.65625 644.40625 L 655.65625 660.664063 C 655.65625 663.785156 653.117188 666.324219 649.996094 666.324219 "/>
<path style=" stroke:none;fill-rule:nonzero;fill:rgb(35.693359%,68.943787%,91.40625%);fill-opacity:1;" d="M 556.011719 664.4375 L 662.824219 664.4375 C 664.90625 664.4375 666.597656 666.125 666.597656 668.207031 L 666.597656 684.464844 C 666.597656 686.550781 664.90625 688.238281 662.824219 688.238281 L 556.011719 688.238281 C 553.929688 688.238281 552.238281 686.550781 552.238281 684.464844 L 552.238281 668.207031 C 552.238281 666.125 553.929688 664.4375 556.011719 664.4375 "/>
<path style=" stroke:none;fill-rule:nonzero;fill:rgb(0%,0%,0%);fill-opacity:1;" d="M 556.011719 666.324219 C 554.972656 666.324219 554.125 667.167969 554.125 668.207031 L 554.125 684.464844 C 554.125 685.507813 554.972656 686.351563 556.011719 686.351563 L 662.824219 686.351563 C 663.863281 686.351563 664.710938 685.507813 664.710938 684.464844 L 664.710938 668.207031 C 664.710938 667.167969 663.863281 666.324219 662.824219 666.324219 Z M 662.824219 690.125 L 556.011719 690.125 C 552.890625 690.125 550.355469 687.585938 550.355469 684.464844 L 550.355469 668.207031 C 550.355469 665.089844 552.890625 662.550781 556.011719 662.550781 L 662.824219 662.550781 C 665.945313 662.550781 668.484375 665.089844 668.484375 668.207031 L 668.484375 684.464844 C 668.484375 687.585938 665.945313 690.125 662.824219 690.125 "/>
<path style=" stroke:none;fill-rule:nonzero;fill:rgb(35.693359%,68.943787%,91.40625%);fill-opacity:1;" d="M 724.699219 593.027344 L 831.511719 593.027344 C 833.597656 593.027344 835.285156 594.714844 835.285156 596.800781 L 835.285156 613.058594 C 835.285156 615.140625 833.597656 616.832031 831.511719 616.832031 L 724.699219 616.832031 C 722.617188 616.832031 720.929688 615.140625 720.929688 613.058594 L 720.929688 596.800781 C 720.929688 594.714844 722.617188 593.027344 724.699219 593.027344 "/>
<path style=" stroke:none;fill-rule:nonzero;fill:rgb(0%,0%,0%);fill-opacity:1;" d="M 724.699219 594.914063 C 723.660156 594.914063 722.8125 595.761719 722.8125 596.800781 L 722.8125 613.058594 C 722.8125 614.097656 723.660156 614.945313 724.699219 614.945313 L 831.511719 614.945313 C 832.550781 614.945313 833.398438 614.097656 833.398438 613.058594 L 833.398438 596.800781 C 833.398438 595.761719 832.550781 594.914063 831.511719 594.914063 Z M 831.511719 618.71875 L 724.699219 618.71875 C 721.578125 618.71875 719.042969 616.179688 719.042969 613.058594 L 719.042969 596.800781 C 719.042969 593.679688 721.578125 591.140625 724.699219 591.140625 L 831.511719 591.140625 C 834.632813 591.140625 837.171875 593.679688 837.171875 596.800781 L 837.171875 613.058594 C 837.171875 616.179688 834.632813 618.71875 831.511719 618.71875 "/>
<path style=" stroke:none;fill-rule:nonzero;fill:rgb(35.693359%,68.943787%,91.40625%);fill-opacity:1;" d="M 752.644531 616.832031 L 859.453125 616.832031 C 861.539063 616.832031 863.226563 618.519531 863.226563 620.601563 L 863.226563 636.859375 C 863.226563 638.945313 861.539063 640.632813 859.453125 640.632813 L 752.644531 640.632813 C 750.558594 640.632813 748.871094 638.945313 748.871094 636.859375 L 748.871094 620.601563 C 748.871094 618.519531 750.558594 616.832031 752.644531 616.832031 "/>
<path style=" stroke:none;fill-rule:nonzero;fill:rgb(0%,0%,0%);fill-opacity:1;" d="M 752.644531 618.71875 C 751.601563 618.71875 750.757813 619.5625 750.757813 620.601563 L 750.757813 636.859375 C 750.757813 637.902344 751.601563 638.746094 752.644531 638.746094 L 859.453125 638.746094 C 860.496094 638.746094 861.339844 637.902344 861.339844 636.859375 L 861.339844 620.601563 C 861.339844 619.5625 860.496094 618.71875 859.453125 618.71875 Z M 859.453125 642.519531 L 752.644531 642.519531 C 749.523438 642.519531 746.984375 639.980469 746.984375 636.859375 L 746.984375 620.601563 C 746.984375 617.484375 749.523438 614.945313 752.644531 614.945313 L 859.453125 614.945313 C 862.574219 614.945313 865.113281 617.484375 865.113281 620.601563 L 865.113281 636.859375 C 865.113281 639.980469 862.574219 642.519531 859.453125 642.519531 "/>
<path style=" stroke:none;fill-rule:nonzero;fill:rgb(35.693359%,68.943787%,91.40625%);fill-opacity:1;" d="M 721.078125 640.632813 L 827.890625 640.632813 C 829.972656 640.632813 831.660156 642.320313 831.660156 644.40625 L 831.660156 660.664063 C 831.660156 662.746094 829.972656 664.4375 827.890625 664.4375 L 721.078125 664.4375 C 718.996094 664.4375 717.304688 662.746094 717.304688 660.664063 L 717.304688 644.40625 C 717.304688 642.320313 718.996094 640.632813 721.078125 640.632813 "/>
<path style=" stroke:none;fill-rule:nonzero;fill:rgb(0%,0%,0%);fill-opacity:1;" d="M 721.078125 642.519531 C 720.039063 642.519531 719.191406 643.367188 719.191406 644.40625 L 719.191406 660.664063 C 719.191406 661.703125 720.039063 662.550781 721.078125 662.550781 L 827.890625 662.550781 C 828.929688 662.550781 829.777344 661.703125 829.777344 660.664063 L 829.777344 644.40625 C 829.777344 643.367188 828.929688 642.519531 827.890625 642.519531 Z M 827.890625 666.324219 L 721.078125 666.324219 C 717.957031 666.324219 715.421875 663.785156 715.421875 660.664063 L 715.421875 644.40625 C 715.421875 641.285156 717.957031 638.746094 721.078125 638.746094 L 827.890625 638.746094 C 831.011719 638.746094 833.550781 641.285156 833.550781 644.40625 L 833.550781 660.664063 C 833.550781 663.785156 831.011719 666.324219 827.890625 666.324219 "/>
<path style=" stroke:none;fill-rule:nonzero;fill:rgb(35.693359%,68.943787%,91.40625%);fill-opacity:1;" d="M 721.078125 664.4375 L 827.890625 664.4375 C 829.972656 664.4375 831.660156 666.125 831.660156 668.207031 L 831.660156 684.464844 C 831.660156 686.550781 829.972656 688.238281 827.890625 688.238281 L 721.078125 688.238281 C 718.996094 688.238281 717.304688 686.550781 717.304688 684.464844 L 717.304688 668.207031 C 717.304688 666.125 718.996094 664.4375 721.078125 664.4375 "/>
<path style=" stroke:none;fill-rule:nonzero;fill:rgb(0%,0%,0%);fill-opacity:1;" d="M 721.078125 666.324219 C 720.039063 666.324219 719.191406 667.167969 719.191406 668.207031 L 719.191406 684.464844 C 719.191406 685.507813 720.039063 686.351563 721.078125 686.351563 L 827.890625 686.351563 C 828.929688 686.351563 829.777344 685.507813 829.777344 684.464844 L 829.777344 668.207031 C 829.777344 667.167969 828.929688 666.324219 827.890625 666.324219 Z M 827.890625 690.125 L 721.078125 690.125 C 717.957031 690.125 715.421875 687.585938 715.421875 684.464844 L 715.421875 668.207031 C 715.421875 665.089844 717.957031 662.550781 721.078125 662.550781 L 827.890625 662.550781 C 831.011719 662.550781 833.550781 665.089844 833.550781 668.207031 L 833.550781 684.464844 C 833.550781 687.585938 831.011719 690.125 827.890625 690.125 "/>
<path style=" stroke:none;fill-rule:nonzero;fill:rgb(35.693359%,68.943787%,91.40625%);fill-opacity:1;" d="M 835.4375 664.4375 L 942.246094 664.4375 C 944.328125 664.4375 946.019531 666.125 946.019531 668.207031 L 946.019531 684.464844 C 946.019531 686.550781 944.328125 688.238281 942.246094 688.238281 L 835.4375 688.238281 C 833.351563 688.238281 831.664063 686.550781 831.664063 684.464844 L 831.664063 668.207031 C 831.664063 666.125 833.351563 664.4375 835.4375 664.4375 "/>
<path style=" stroke:none;fill-rule:nonzero;fill:rgb(0%,0%,0%);fill-opacity:1;" d="M 835.4375 666.324219 C 834.394531 666.324219 833.546875 667.167969 833.546875 668.207031 L 833.546875 684.464844 C 833.546875 685.507813 834.394531 686.351563 835.4375 686.351563 L 942.246094 686.351563 C 943.289063 686.351563 944.132813 685.507813 944.132813 684.464844 L 944.132813 668.207031 C 944.132813 667.167969 943.289063 666.324219 942.246094 666.324219 Z M 942.246094 690.125 L 835.4375 690.125 C 832.3125 690.125 829.777344 687.585938 829.777344 684.464844 L 829.777344 668.207031 C 829.777344 665.089844 832.3125 662.550781 835.4375 662.550781 L 942.246094 662.550781 C 945.367188 662.550781 947.90625 665.089844 947.90625 668.207031 L 947.90625 684.464844 C 947.90625 687.585938 945.367188 690.125 942.246094 690.125 "/>
<path style=" stroke:none;fill-rule:nonzero;fill:rgb(0%,0%,0%);fill-opacity:1;" d="M 764.347656 626.339844 C 764.347656 660.230469 736.871094 687.707031 702.976563 687.707031 C 669.085938 687.707031 641.609375 660.230469 641.609375 626.339844 C 641.609375 592.445313 669.085938 564.972656 702.976563 564.972656 C 736.871094 564.972656 764.347656 592.445313 764.347656 626.339844 "/>
<path style=" stroke:none;fill-rule:nonzero;fill:rgb(0%,0%,0%);fill-opacity:1;" d="M 702.976563 566.855469 C 670.179688 566.855469 643.496094 593.542969 643.496094 626.339844 C 643.496094 659.136719 670.179688 685.820313 702.976563 685.820313 C 735.773438 685.820313 762.460938 659.136719 762.460938 626.339844 C 762.460938 593.542969 735.773438 566.855469 702.976563 566.855469 M 702.976563 689.59375 C 668.097656 689.59375 639.722656 661.21875 639.722656 626.339844 C 639.722656 591.460938 668.097656 563.085938 702.976563 563.085938 C 737.855469 563.085938 766.230469 591.460938 766.230469 626.339844 C 766.230469 661.21875 737.855469 689.59375 702.976563 689.59375 "/>
<path style=" stroke:none;fill-rule:nonzero;fill:rgb(35.693359%,68.943787%,91.40625%);fill-opacity:1;" d="M 753.285156 626.339844 C 753.285156 660.230469 725.808594 687.707031 691.917969 687.707031 C 658.023438 687.707031 630.550781 660.230469 630.550781 626.339844 C 630.550781 592.445313 658.023438 564.972656 691.917969 564.972656 C 725.808594 564.972656 753.285156 592.445313 753.285156 626.339844 "/>
<path style=" stroke:none;fill-rule:nonzero;fill:rgb(0%,0%,0%);fill-opacity:1;" d="M 691.917969 566.855469 C 659.117188 566.855469 632.433594 593.542969 632.433594 626.339844 C 632.433594 659.136719 659.117188 685.820313 691.917969 685.820313 C 724.714844 685.820313 751.398438 659.136719 751.398438 626.339844 C 751.398438 593.542969 724.714844 566.855469 691.917969 566.855469 M 691.917969 689.59375 C 657.039063 689.59375 628.660156 661.21875 628.660156 626.339844 C 628.660156 591.460938 657.039063 563.085938 691.917969 563.085938 C 726.796875 563.085938 755.171875 591.460938 755.171875 626.339844 C 755.171875 661.21875 726.796875 689.59375 691.917969 689.59375 "/>
<path style=" stroke:none;fill-rule:nonzero;fill:rgb(100%,100%,100%);fill-opacity:1;" d="M 737.261719 626.339844 C 737.261719 651.382813 716.960938 671.683594 691.917969 671.683594 C 666.875 671.683594 646.574219 651.382813 646.574219 626.339844 C 646.574219 601.296875 666.875 580.996094 691.917969 580.996094 C 716.960938 580.996094 737.261719 601.296875 737.261719 626.339844 "/>
<path style=" stroke:none;fill-rule:nonzero;fill:rgb(0%,0%,0%);fill-opacity:1;" d="M 691.917969 582.882813 C 667.953125 582.882813 648.460938 602.378906 648.460938 626.339844 C 648.460938 650.300781 667.953125 669.796875 691.917969 669.796875 C 715.878906 669.796875 735.375 650.300781 735.375 626.339844 C 735.375 602.378906 715.878906 582.882813 691.917969 582.882813 M 691.917969 673.566406 C 665.875 673.566406 644.6875 652.382813 644.6875 626.339844 C 644.6875 600.296875 665.875 579.109375 691.917969 579.109375 C 717.960938 579.109375 739.144531 600.296875 739.144531 626.339844 C 739.144531 652.382813 717.960938 673.566406 691.917969 673.566406 "/>
<path style=" stroke:none;fill-rule:nonzero;fill:rgb(35.693359%,68.943787%,91.40625%);fill-opacity:1;" d="M 668.316406 605.953125 C 668.703125 605.464844 669.113281 605 669.523438 604.53125 C 669.539063 604.507813 669.585938 604.503906 669.601563 604.480469 C 669.636719 604.433594 669.699219 604.40625 669.734375 604.359375 L 669.769531 604.3125 C 670.058594 604.046875 670.363281 603.761719 670.714844 603.511719 C 671.953125 602.566406 673.238281 601.851563 674.597656 601.382813 C 678.953125 599.851563 683.800781 600.796875 687.601563 604.382813 C 692.910156 609.359375 692.433594 617.375 688.195313 622.703125 C 682.839844 630.640625 673.640625 641.722656 686.378906 651.644531 C 688.671875 653.429688 690.371094 654.902344 697.585938 656.988281 C 692.867188 657.855469 688.492188 657.585938 683.621094 656.34375 C 680.175781 654.398438 674.761719 650.234375 672.917969 644.609375 C 670.132813 636.085938 677.820313 623.335938 681.535156 618.425781 C 686.636719 611.632813 678.382813 604.277344 672.304688 612.488281 C 669.128906 616.769531 663.570313 628.878906 665.503906 637.859375 C 666.632813 642.953125 668.136719 646.667969 674.105469 651.765625 C 673 651.117188 671.921875 650.375 670.882813 649.546875 C 657.015625 636.628906 658.625 616.660156 668.316406 605.953125 "/>
<path style="fill:none;stroke-width:5;stroke-linecap:butt;stroke-linejoin:round;stroke:rgb(0%,0%,0%);stroke-opacity:1;stroke-miterlimit:10;" d="M 6683.164063 861.56875 C 6687.03125 866.451563 6691.132813 871.1 6695.234375 875.7875 C 6695.390625 876.021875 6695.859375 876.060938 6696.015625 876.295313 C 6696.367188 876.764063 6696.992188 877.0375 6697.34375 877.50625 L 6697.695313 877.975 C 6700.585938 880.63125 6703.632813 883.482813 6707.148438 885.982813 C 6719.53125 895.435938 6732.382813 902.584375 6745.976563 907.271875 C 6789.53125 922.584375 6838.007813 913.13125 6876.015625 877.271875 C 6929.101563 827.50625 6924.335938 747.35 6881.953125 694.06875 C 6828.398438 614.69375 6736.40625 503.873438 6863.789063 404.654688 C 6886.71875 386.803125 6903.710938 372.076563 6975.859375 351.217188 C 6928.671875 342.545313 6884.921875 345.240625 6836.210938 357.6625 C 6801.757813 377.115625 6747.617188 418.75625 6729.179688 475.00625 C 6701.328125 560.240625 6778.203125 687.740625 6815.351563 736.842188 C 6866.367188 804.771875 6783.828125 878.326563 6723.046875 796.217188 C 6691.289063 753.404688 6635.703125 632.310938 6655.039063 542.50625 C 6666.328125 491.56875 6681.367188 454.420313 6741.054688 403.44375 C 6730 409.928125 6719.21875 417.35 6708.828125 425.63125 C 6570.15625 554.810938 6586.25 754.498438 6683.164063 861.56875 Z M 6683.164063 861.56875 " transform="matrix(0.1,0,0,-0.1,0,692.11)"/>
<path style=" stroke:none;fill-rule:nonzero;fill:rgb(35.693359%,68.943787%,91.40625%);fill-opacity:1;" d="M 715.519531 646.722656 C 715.128906 647.210938 714.722656 647.679688 714.3125 648.144531 C 714.289063 648.171875 714.25 648.175781 714.230469 648.195313 C 714.195313 648.246094 714.136719 648.273438 714.097656 648.316406 L 714.0625 648.367188 C 713.777344 648.628906 713.472656 648.917969 713.121094 649.167969 C 711.878906 650.109375 710.59375 650.824219 709.234375 651.296875 C 704.878906 652.824219 700.035156 651.882813 696.230469 648.292969 C 690.925781 643.316406 691.398438 635.304688 695.636719 629.976563 C 700.992188 622.035156 710.191406 610.957031 697.453125 601.03125 C 695.164063 599.246094 693.464844 597.773438 686.246094 595.691406 C 690.964844 594.820313 695.339844 595.089844 700.210938 596.335938 C 703.65625 598.28125 709.074219 602.441406 710.914063 608.066406 C 713.703125 616.59375 706.011719 629.339844 702.296875 634.25 C 697.195313 641.042969 705.449219 648.398438 711.527344 640.1875 C 714.703125 635.910156 720.261719 623.800781 718.328125 614.816406 C 717.203125 609.722656 715.695313 606.011719 709.726563 600.910156 C 710.835938 601.5625 711.910156 602.304688 712.953125 603.132813 C 726.816406 616.046875 725.210938 636.019531 715.519531 646.722656 "/>
<path style="fill:none;stroke-width:5;stroke-linecap:butt;stroke-linejoin:round;stroke:rgb(0%,0%,0%);stroke-opacity:1;stroke-miterlimit:10;" d="M 7155.195313 453.873438 C 7151.289063 448.990625 7147.226563 444.303125 7143.125 439.654688 C 7142.890625 439.38125 7142.5 439.342188 7142.304688 439.146875 C 7141.953125 438.639063 7141.367188 438.365625 7140.976563 437.935938 L 7140.625 437.428125 C 7137.773438 434.810938 7134.726563 431.920313 7131.210938 429.420313 C 7118.789063 420.00625 7105.9375 412.857813 7092.34375 408.13125 C 7048.789063 392.857813 7000.351563 402.271875 6962.304688 438.170313 C 6909.257813 487.935938 6913.984375 568.053125 6956.367188 621.334375 C 7009.921875 700.748438 7101.914063 811.529688 6974.53125 910.7875 C 6951.640625 928.639063 6934.648438 943.365625 6862.460938 964.185938 C 6909.648438 972.896875 6953.398438 970.201563 7002.109375 957.740625 C 7036.5625 938.2875 7090.742188 896.685938 7109.140625 840.435938 C 7137.03125 755.1625 7060.117188 627.701563 7022.96875 578.6 C 6971.953125 510.670313 7054.492188 437.115625 7115.273438 519.225 C 7147.03125 561.998438 7202.617188 683.092188 7183.28125 772.935938 C 7172.03125 823.873438 7156.953125 860.982813 7097.265625 911.998438 C 7108.359375 905.475 7119.101563 898.053125 7129.53125 889.771875 C 7268.164063 760.63125 7252.109375 560.904688 7155.195313 453.873438 Z M 7155.195313 453.873438 " transform="matrix(0.1,0,0,-0.1,0,692.11)"/>
<path style=" stroke:none;fill-rule:nonzero;fill:rgb(35.693359%,68.943787%,91.40625%);fill-opacity:1;" d="M 153.058594 58.859375 L 153.058594 183.929688 L 209.648438 121.394531 "/>
<path style=" stroke:none;fill-rule:nonzero;fill:rgb(0%,0%,0%);fill-opacity:1;" d="M 195.6875 80.183594 C 195.6875 82.683594 197.714844 84.710938 200.214844 84.710938 C 202.714844 84.710938 204.742188 82.683594 204.742188 80.183594 C 204.742188 77.683594 202.714844 75.65625 200.214844 75.65625 C 197.714844 75.65625 195.6875 77.683594 195.6875 80.183594 "/>
<path style=" stroke:none;fill-rule:nonzero;fill:rgb(0%,0%,0%);fill-opacity:1;" d="M 195.3125 100.929688 C 195.3125 103.429688 197.339844 105.457031 199.839844 105.457031 C 202.339844 105.457031 204.367188 103.429688 204.367188 100.929688 C 204.367188 98.429688 202.339844 96.40625 199.839844 96.40625 C 197.339844 96.40625 195.3125 98.429688 195.3125 100.929688 "/>
<path style=" stroke:none;fill-rule:nonzero;fill:rgb(0%,0%,0%);fill-opacity:1;" d="M 195.3125 122.058594 C 195.3125 124.558594 197.339844 126.585938 199.839844 126.585938 C 202.339844 126.585938 204.367188 124.558594 204.367188 122.058594 C 204.367188 119.558594 202.339844 117.53125 199.839844 117.53125 C 197.339844 117.53125 195.3125 119.558594 195.3125 122.058594 "/>
<path style=" stroke:none;fill-rule:nonzero;fill:rgb(0%,0%,0%);fill-opacity:1;" d="M 195.3125 143.183594 C 195.3125 145.683594 197.339844 147.710938 199.839844 147.710938 C 202.339844 147.710938 204.367188 145.683594 204.367188 143.183594 C 204.367188 140.683594 202.339844 138.65625 199.839844 138.65625 C 197.339844 138.65625 195.3125 140.683594 195.3125 143.183594 "/>
<path style=" stroke:none;fill-rule:nonzero;fill:rgb(0%,0%,0%);fill-opacity:1;" d="M 214.175781 100.929688 C 214.175781 103.429688 216.203125 105.457031 218.703125 105.457031 C 221.203125 105.457031 223.230469 103.429688 223.230469 100.929688 C 223.230469 98.429688 221.203125 96.40625 218.703125 96.40625 C 216.203125 96.40625 214.175781 98.429688 214.175781 100.929688 "/>
<path style=" stroke:none;fill-rule:nonzero;fill:rgb(0%,0%,0%);fill-opacity:1;" d="M 214.175781 122.058594 C 214.175781 124.558594 216.203125 126.585938 218.703125 126.585938 C 221.203125 126.585938 223.230469 124.558594 223.230469 122.058594 C 223.230469 119.558594 221.203125 117.53125 218.703125 117.53125 C 216.203125 117.53125 214.175781 119.558594 214.175781 122.058594 "/>
<path style=" stroke:none;fill-rule:nonzero;fill:rgb(0%,0%,0%);fill-opacity:1;" d="M 233.039063 122.058594 C 233.039063 124.558594 235.066406 126.585938 237.566406 126.585938 C 240.066406 126.585938 242.09375 124.558594 242.09375 122.058594 C 242.09375 119.558594 240.066406 117.53125 237.566406 117.53125 C 235.066406 117.53125 233.039063 119.558594 233.039063 122.058594 "/>
<path style=" stroke:none;fill-rule:nonzero;fill:rgb(0%,0%,0%);fill-opacity:1;" d="M 214.175781 143.183594 C 214.175781 145.683594 216.203125 147.710938 218.703125 147.710938 C 221.203125 147.710938 223.230469 145.683594 223.230469 143.183594 C 223.230469 140.683594 221.203125 138.65625 218.703125 138.65625 C 216.203125 138.65625 214.175781 140.683594 214.175781 143.183594 "/>
<path style=" stroke:none;fill-rule:nonzero;fill:rgb(0%,0%,0%);fill-opacity:1;" d="M 195.3125 164.3125 C 195.3125 166.8125 197.339844 168.839844 199.839844 168.839844 C 202.339844 168.839844 204.367188 166.8125 204.367188 164.3125 C 204.367188 161.8125 202.339844 159.785156 199.839844 159.785156 C 197.339844 159.785156 195.3125 161.8125 195.3125 164.3125 "/>
<path style=" stroke:none;fill-rule:nonzero;fill:rgb(0%,0%,0%);fill-opacity:1;" d="M 176.070313 80.183594 C 176.070313 82.683594 178.097656 84.710938 180.597656 84.710938 C 183.097656 84.710938 185.125 82.683594 185.125 80.183594 C 185.125 77.683594 183.097656 75.65625 180.597656 75.65625 C 178.097656 75.65625 176.070313 77.683594 176.070313 80.183594 "/>
<path style=" stroke:none;fill-rule:nonzero;fill:rgb(0%,0%,0%);fill-opacity:1;" d="M 176.449219 59.433594 C 176.449219 61.933594 178.472656 63.960938 180.976563 63.960938 C 183.476563 63.960938 185.503906 61.933594 185.503906 59.433594 C 185.503906 56.933594 183.476563 54.90625 180.976563 54.90625 C 178.472656 54.90625 176.449219 56.933594 176.449219 59.433594 "/>
<path style=" stroke:none;fill-rule:nonzero;fill:rgb(0%,0%,0%);fill-opacity:1;" d="M 175.691406 100.929688 C 175.691406 103.429688 177.71875 105.457031 180.21875 105.457031 C 182.71875 105.457031 184.746094 103.429688 184.746094 100.929688 C 184.746094 98.429688 182.71875 96.40625 180.21875 96.40625 C 177.71875 96.40625 175.691406 98.429688 175.691406 100.929688 "/>
<path style=" stroke:none;fill-rule:nonzero;fill:rgb(0%,0%,0%);fill-opacity:1;" d="M 175.691406 122.058594 C 175.691406 124.558594 177.71875 126.585938 180.21875 126.585938 C 182.71875 126.585938 184.746094 124.558594 184.746094 122.058594 C 184.746094 119.558594 182.71875 117.53125 180.21875 117.53125 C 177.71875 117.53125 175.691406 119.558594 175.691406 122.058594 "/>
<path style=" stroke:none;fill-rule:nonzero;fill:rgb(0%,0%,0%);fill-opacity:1;" d="M 175.691406 143.183594 C 175.691406 145.683594 177.71875 147.710938 180.21875 147.710938 C 182.71875 147.710938 184.746094 145.683594 184.746094 143.183594 C 184.746094 140.683594 182.71875 138.65625 180.21875 138.65625 C 177.71875 138.65625 175.691406 140.683594 175.691406 143.183594 "/>
<path style=" stroke:none;fill-rule:nonzero;fill:rgb(0%,0%,0%);fill-opacity:1;" d="M 175.691406 164.3125 C 175.691406 166.8125 177.71875 168.839844 180.21875 168.839844 C 182.71875 168.839844 184.746094 166.8125 184.746094 164.3125 C 184.746094 161.8125 182.71875 159.785156 180.21875 159.785156 C 177.71875 159.785156 175.691406 161.8125 175.691406 164.3125 "/>
<path style=" stroke:none;fill-rule:nonzero;fill:rgb(0%,0%,0%);fill-opacity:1;" d="M 175.691406 185.441406 C 175.691406 187.941406 177.71875 189.96875 180.21875 189.96875 C 182.71875 189.96875 184.746094 187.941406 184.746094 185.441406 C 184.746094 182.941406 182.71875 180.914063 180.21875 180.914063 C 177.71875 180.914063 175.691406 182.941406 175.691406 185.441406 "/>
<path style=" stroke:none;fill-rule:nonzero;fill:rgb(100%,100%,100%);fill-opacity:1;" d="M 586.914063 126.441406 C 586.914063 162.570313 557.625 191.863281 521.496094 191.863281 C 485.363281 191.863281 456.074219 162.570313 456.074219 126.441406 C 456.074219 90.3125 485.363281 61.023438 521.496094 61.023438 C 557.625 61.023438 586.914063 90.3125 586.914063 126.441406 "/>
<path style=" stroke:none;fill-rule:nonzero;fill:rgb(0%,0%,0%);fill-opacity:1;" d="M 521.496094 62.90625 C 486.460938 62.90625 457.960938 91.410156 457.960938 126.441406 C 457.960938 161.476563 486.460938 189.976563 521.496094 189.976563 C 556.527344 189.976563 585.027344 161.476563 585.027344 126.441406 C 585.027344 91.410156 556.527344 62.90625 521.496094 62.90625 M 521.496094 193.75 C 484.382813 193.75 454.1875 163.554688 454.1875 126.441406 C 454.1875 89.328125 484.382813 59.136719 521.496094 59.136719 C 558.605469 59.136719 588.800781 89.328125 588.800781 126.441406 C 588.800781 163.554688 558.605469 193.75 521.496094 193.75 "/>
<path style=" stroke:none;fill-rule:nonzero;fill:rgb(100%,82.8125%,13.330078%);fill-opacity:1;" d="M 511.070313 159.105469 L 480.535156 130.175781 C 477.300781 127.109375 477.160156 121.996094 480.226563 118.757813 C 483.296875 115.523438 488.40625 115.382813 491.644531 118.449219 L 510.765625 136.566406 L 551.1875 96.144531 C 554.34375 92.992188 559.453125 92.992188 562.609375 96.144531 C 565.761719 99.300781 565.761719 104.414063 562.609375 107.566406 "/>
<path style=" stroke:none;fill-rule:nonzero;fill:rgb(0%,0%,0%);fill-opacity:1;" d="M 486.09375 118.125 C 484.453125 118.125 482.8125 118.773438 481.597656 120.054688 C 479.25 122.535156 479.355469 126.460938 481.835938 128.808594 L 511.035156 156.472656 L 561.277344 106.234375 C 563.691406 103.820313 563.691406 99.890625 561.277344 97.480469 C 560.105469 96.308594 558.550781 95.664063 556.898438 95.664063 C 555.246094 95.664063 553.691406 96.308594 552.523438 97.476563 L 512.101563 137.898438 C 511.378906 138.621094 510.210938 138.636719 509.46875 137.933594 L 490.347656 119.820313 C 489.152344 118.6875 487.621094 118.125 486.09375 118.125 M 511.070313 160.992188 C 510.605469 160.992188 510.140625 160.820313 509.773438 160.472656 L 479.238281 131.546875 C 475.25 127.769531 475.078125 121.449219 478.859375 117.460938 C 482.636719 113.472656 488.953125 113.300781 492.945313 117.082031 L 510.730469 133.933594 L 549.855469 94.8125 C 551.734375 92.929688 554.238281 91.890625 556.898438 91.890625 C 559.558594 91.890625 562.0625 92.929688 563.945313 94.808594 C 567.828125 98.695313 567.828125 105.015625 563.945313 108.898438 L 512.40625 160.4375 C 512.035156 160.804688 511.554688 160.992188 511.070313 160.992188 "/>
<path style=" stroke:none;fill-rule:nonzero;fill:rgb(100%,100%,100%);fill-opacity:1;" d="M 1046.078125 195.121094 L 1000.988281 144.285156 L 955.894531 195.121094 L 981.730469 195.121094 L 981.730469 246.269531 L 1020.25 246.269531 L 1020.25 195.121094 "/>
<path style=" stroke:none;fill-rule:nonzero;fill:rgb(0%,0%,0%);fill-opacity:1;" d="M 983.617188 244.382813 L 1018.359375 244.382813 L 1018.359375 193.238281 L 1041.890625 193.238281 L 1000.988281 147.128906 L 960.089844 193.238281 L 983.617188 193.238281 Z M 1022.128906 248.15625 L 979.847656 248.15625 L 979.847656 197.011719 L 951.699219 197.011719 L 1000.988281 141.441406 L 1050.28125 197.011719 L 1022.128906 197.011719 "/>
<path style=" stroke:none;fill-rule:nonzero;fill:rgb(35.693359%,68.943787%,91.40625%);fill-opacity:1;" d="M 836.308594 53.679688 L 791.214844 2.84375 L 746.121094 53.679688 L 771.960938 53.679688 L 771.960938 104.824219 L 810.472656 104.824219 L 810.472656 53.679688 "/>
<path style=" stroke:none;fill-rule:nonzero;fill:rgb(0%,0%,0%);fill-opacity:1;" d="M 773.84375 102.941406 L 808.585938 102.941406 L 808.585938 51.792969 L 832.113281 51.792969 L 791.214844 5.683594 L 750.316406 51.792969 L 773.84375 51.792969 Z M 812.359375 106.714844 L 770.074219 106.714844 L 770.074219 55.566406 L 741.929688 55.566406 L 791.214844 0 L 840.503906 55.566406 L 812.359375 55.566406 "/>
<path style=" stroke:none;fill-rule:nonzero;fill:rgb(100%,82.8125%,13.330078%);fill-opacity:1;" d="M 170.035156 350.304688 C 170.035156 350.304688 175.691406 416.328125 261.710938 408.78125 L 277.933594 385.015625 L 197.195313 333.703125 "/>
<path style=" stroke:none;fill-rule:nonzero;fill:rgb(0%,0%,0%);fill-opacity:1;" d="M 172.058594 351.277344 C 172.640625 355.214844 175.265625 368.703125 185.214844 381.351563 C 200.601563 400.917969 226.683594 409.769531 260.65625 406.976563 L 275.277344 385.558594 L 197.179688 335.929688 Z M 248.40625 411.269531 C 224.839844 411.269531 205.785156 405.273438 191.628906 393.378906 C 170.539063 375.65625 168.242188 351.488281 168.15625 350.46875 L 168.054688 349.304688 L 197.21875 331.484375 L 280.589844 384.46875 L 262.765625 410.582031 L 261.875 410.660156 C 257.234375 411.066406 252.742188 411.269531 248.40625 411.269531 "/>
<path style=" stroke:none;fill-rule:nonzero;fill:rgb(100%,82.8125%,13.330078%);fill-opacity:1;" d="M 51.195313 618.542969 C 51.195313 618.542969 54.214844 656.269531 88.921875 663.0625 L 99.484375 647.214844 L 65.53125 612.507813 "/>
<path style=" stroke:none;fill-rule:nonzero;fill:rgb(0%,0%,0%);fill-opacity:1;" d="M 53.238281 619.730469 C 53.648438 622.636719 54.980469 629.890625 58.789063 637.53125 C 65.085938 650.164063 74.925781 658.039063 88.058594 660.953125 L 97.066406 647.441406 L 65.082031 614.742188 Z M 89.792969 665.152344 L 88.558594 664.910156 C 73.769531 662.019531 62.285156 653.089844 55.351563 639.09375 C 50.15625 628.605469 49.347656 619.09375 49.316406 618.691406 L 49.207031 617.332031 L 65.980469 610.269531 L 101.902344 646.988281 "/>
<path style=" stroke:none;fill-rule:nonzero;fill:rgb(100%,100%,100%);fill-opacity:1;" d="M 311.75 261.703125 L 345.589844 232.546875 L 375.480469 208.558594 L 401.542969 236.09375 C 401.542969 236.09375 379.105469 291.28125 357.558594 264.550781 L 337.746094 289.308594 "/>
<path style=" stroke:none;fill-rule:nonzero;fill:rgb(0%,0%,0%);fill-opacity:1;" d="M 314.476563 261.847656 L 337.628906 286.433594 L 357.550781 261.535156 L 359.027344 263.363281 C 363.074219 268.386719 367.191406 270.511719 371.613281 269.859375 C 384.90625 267.90625 396.835938 242.1875 399.324219 236.492188 L 375.304688 211.117188 L 346.769531 234.019531 Z M 337.859375 292.179688 L 309.027344 261.558594 L 344.355469 231.117188 L 375.652344 206 L 403.746094 235.679688 L 403.289063 236.804688 C 402.722656 238.203125 389.164063 271.089844 372.164063 273.589844 C 366.976563 274.355469 362.097656 272.304688 357.613281 267.496094 "/>
<path style=" stroke:none;fill-rule:nonzero;fill:rgb(0%,0%,0%);fill-opacity:1;" d="M 413.566406 245.203125 C 418.558594 239.609375 410.878906 231.828125 410.878906 231.828125 C 414.195313 233.574219 416.351563 232.765625 417.296875 231.46875 C 422.675781 224.078125 404.871094 216.710938 404.871094 216.710938 C 410.007813 216.421875 406.546875 212.109375 406.546875 212.109375 C 401.941406 207.257813 389.9375 203.0625 381.285156 200.535156 C 379.113281 198.785156 351.183594 177.628906 339.585938 235.210938 C 339.585938 235.210938 350.796875 251.320313 364.195313 237.683594 C 364.195313 237.683594 366.242188 226.941406 373.761719 231.273438 C 375.195313 232.097656 375.996094 233.726563 375.824219 235.371094 C 375.589844 237.609375 375.085938 239.285156 374.675781 240.335938 C 374.359375 241.15625 374.574219 242.078125 375.230469 242.664063 C 376.09375 243.433594 377.414063 243.359375 378.1875 242.496094 L 383.210938 236.871094 C 395.230469 246.429688 410.035156 249.15625 413.566406 245.203125 "/>
<path style=" stroke:none;fill-rule:nonzero;fill:rgb(100%,100%,100%);fill-opacity:1;" d="M 85.179688 628.960938 C 85.179688 628.960938 71.191406 655.875 71.191406 665.949219 L 71.191406 675.308594 C 71.191406 675.308594 84.148438 678.1875 86.308594 686.828125 L 51.753906 686.828125 L 35.914063 647.953125 L 60.78125 616.65625 "/>
<path style=" stroke:none;fill-rule:nonzero;fill:rgb(0%,0%,0%);fill-opacity:1;" d="M 53.023438 684.941406 L 83.5 684.941406 C 80.113281 679.289063 70.886719 677.175781 70.78125 677.152344 L 71.1875 675.320313 L 69.304688 675.320313 L 69.304688 665.949219 C 69.304688 656.925781 79.527344 635.960938 82.636719 629.792969 L 61.304688 619.03125 L 38.078125 648.265625 Z M 88.722656 688.714844 L 50.484375 688.714844 L 33.75 647.644531 L 60.261719 614.28125 L 87.734375 628.136719 L 86.851563 629.828125 C 86.714844 630.09375 73.078125 656.449219 73.078125 665.949219 L 73.078125 673.863281 C 76.769531 674.960938 86.167969 678.484375 88.140625 686.371094 "/>
<path style=" stroke:none;fill-rule:nonzero;fill:rgb(0%,0%,0%);fill-opacity:1;" d="M 183.617188 378.976563 L 149.660156 504.984375 L 49.308594 617.410156 C 49.308594 617.410156 86.65625 625.332031 89.300781 664.945313 L 190.40625 546.484375 L 228.886719 486.121094 "/>
<path style=" stroke:none;fill-rule:nonzero;fill:rgb(100%,100%,100%);fill-opacity:1;" d="M 356.402344 315.597656 L 371.496094 341.25 L 426.574219 392.558594 L 443.378906 397.359375 C 446.195313 398.164063 448.695313 399.808594 450.550781 402.074219 L 457.769531 410.902344 C 459.007813 412.414063 457.730469 414.65625 455.800781 414.359375 L 426.574219 409.914063 C 426.574219 409.914063 428.425781 413.609375 429.777344 417.722656 C 430.671875 420.429688 427.410156 422.59375 425.242188 420.738281 L 404.695313 403.121094 L 342.066406 361.621094 L 327.730469 340.496094 "/>
<path style=" stroke:none;fill-rule:nonzero;fill:rgb(0%,0%,0%);fill-opacity:1;" d="M 343.421875 360.257813 L 405.835938 401.613281 L 426.472656 419.304688 C 426.964844 419.722656 427.4375 419.488281 427.617188 419.367188 C 427.835938 419.222656 428.175781 418.890625 427.984375 418.308594 C 426.691406 414.375 424.90625 410.792969 424.890625 410.757813 L 423.261719 407.5 L 456.085938 412.496094 C 456.140625 412.503906 456.25 412.523438 456.335938 412.375 C 456.417969 412.226563 456.351563 412.140625 456.3125 412.097656 L 449.09375 403.269531 C 447.472656 401.292969 445.320313 399.875 442.859375 399.175781 L 425.621094 394.25 L 370.007813 342.445313 L 355.929688 318.507813 L 330.234375 340.820313 Z M 427.078125 423.316406 C 425.988281 423.316406 424.902344 422.929688 424.015625 422.167969 L 403.554688 404.632813 L 340.71875 362.988281 L 325.230469 340.171875 L 356.882813 312.683594 L 372.984375 340.058594 L 427.53125 390.871094 L 443.898438 395.546875 C 447.097656 396.460938 449.902344 398.304688 452.011719 400.882813 L 459.230469 409.707031 C 460.292969 411.003906 460.441406 412.785156 459.613281 414.242188 C 458.78125 415.699219 457.171875 416.476563 455.515625 416.226563 L 429.738281 412.304688 C 430.316406 413.671875 430.984375 415.359375 431.570313 417.132813 C 432.234375 419.15625 431.492188 421.316406 429.714844 422.503906 C 428.90625 423.046875 427.988281 423.316406 427.078125 423.316406 "/>
<path style=" stroke:none;fill-rule:nonzero;fill:rgb(100%,82.8125%,13.330078%);fill-opacity:1;" d="M 294.15625 667.585938 C 294.15625 667.585938 320.5625 674.378906 341.691406 643.441406 L 330.371094 629.859375 L 290.382813 648.722656 "/>
<path style=" stroke:none;fill-rule:nonzero;fill:rgb(0%,0%,0%);fill-opacity:1;" d="M 295.761719 665.988281 C 300.851563 666.84375 321.613281 668.511719 339.320313 643.546875 L 329.859375 632.1875 L 292.523438 649.800781 Z M 300.625 670.109375 C 296.460938 670.109375 293.859375 669.460938 293.6875 669.414063 L 292.539063 669.117188 L 288.242188 647.648438 L 330.890625 627.53125 L 344.054688 643.328125 L 343.25 644.507813 C 331.992188 660.988281 319.191406 666.898438 310.433594 668.953125 C 306.664063 669.835938 303.316406 670.109375 300.625 670.109375 "/>
<path style=" stroke:none;fill-rule:nonzero;fill:rgb(100%,100%,100%);fill-opacity:1;" d="M 333.59375 635.308594 C 333.59375 635.308594 335.878906 656.371094 351.746094 654.097656 C 360.667969 652.820313 377.410156 646.058594 387.699219 656.683594 L 322.40625 686.746094 L 306.464844 643.828125 "/>
<path style=" stroke:none;fill-rule:nonzero;fill:rgb(0%,0%,0%);fill-opacity:1;" d="M 308.921875 645.03125 L 323.464844 684.179688 L 384.273438 656.183594 C 376.6875 650.605469 365.984375 652.988281 357.988281 654.773438 C 355.824219 655.257813 353.78125 655.710938 352.015625 655.964844 C 347.550781 656.605469 343.628906 655.640625 340.359375 653.105469 C 334.949219 648.90625 332.835938 641.484375 332.085938 637.757813 Z M 321.34375 689.308594 L 304.003906 642.621094 L 335.222656 632.820313 L 335.46875 635.105469 C 335.488281 635.285156 336.703125 645.5 342.683594 650.132813 C 345.148438 652.039063 348.019531 652.726563 351.480469 652.230469 C 353.101563 651.996094 355.074219 651.558594 357.167969 651.09375 C 366.796875 648.945313 379.984375 646.003906 389.054688 655.367188 L 390.90625 657.28125 "/>
<path style=" stroke:none;fill-rule:nonzero;fill:rgb(0%,0%,0%);fill-opacity:1;" d="M 198.328125 341.628906 C 198.328125 341.628906 138.722656 382.371094 196.820313 469.144531 L 228.511719 525.734375 L 292.644531 669.097656 C 292.644531 669.097656 311.511719 640.425781 343.953125 643.441406 C 343.953125 643.441406 295.328125 536.398438 283.59375 498.570313 C 273.867188 467.230469 253.410156 369.546875 253.410156 369.546875 "/>
<path style=" stroke:none;fill-rule:nonzero;fill:rgb(100%,100%,100%);fill-opacity:1;" d="M 172.296875 348.042969 C 172.296875 348.042969 240.207031 348.042969 262.84375 406.140625 L 323.203125 337.480469 L 332.261719 351.058594 L 364.703125 321.632813 L 348.859375 277.117188 C 348.859375 277.117188 337.539063 285.414063 329.996094 243.160156 L 298.488281 244.9375 C 284.261719 245.738281 270.8125 251.671875 260.628906 261.632813 "/>
<path style=" stroke:none;fill-rule:nonzero;fill:rgb(0%,0%,0%);fill-opacity:1;" d="M 176.71875 346.355469 C 183.101563 346.820313 195.648438 348.371094 209.730469 353.53125 C 227.589844 360.078125 251.117188 373.882813 263.4375 402.609375 L 323.410156 334.386719 L 332.613281 348.191406 L 362.507813 321.082031 L 347.722656 279.542969 C 346.617188 279.746094 345.261719 279.714844 343.78125 279.121094 C 337.324219 276.535156 332.164063 265.105469 328.441406 245.136719 L 298.59375 246.820313 C 284.824219 247.597656 271.808594 253.335938 261.945313 262.980469 Z M 262.210938 409.714844 L 261.085938 406.824219 C 251.917969 383.296875 234.242188 366.570313 208.550781 357.117188 C 189.269531 350.023438 172.464844 349.929688 172.296875 349.929688 L 167.679688 349.925781 L 259.308594 260.285156 C 269.820313 250 283.699219 243.878906 298.382813 243.054688 L 331.558594 241.183594 L 331.851563 242.828125 C 336.617188 269.515625 342.765625 274.648438 345.183594 275.617188 C 346.71875 276.234375 347.734375 275.601563 347.742188 275.59375 L 349.785156 274.097656 L 366.902344 322.183594 L 331.90625 353.929688 L 323 340.570313 "/>
<path style=" stroke:none;fill-rule:nonzero;fill:rgb(100%,82.8125%,13.330078%);fill-opacity:1;" d="M 314.90625 320.125 C 314.90625 320.125 299.058594 307.296875 265.859375 311.824219 C 265.859375 311.824219 265.859375 322.386719 291.515625 328.425781 C 291.515625 328.425781 308.113281 329.933594 314.90625 320.125 "/>
<path style=" stroke:none;fill-rule:nonzero;fill:rgb(0%,0%,0%);fill-opacity:1;" d="M 291.804688 326.554688 C 293.175781 326.648438 305.800781 327.320313 312.152344 320.535156 C 307.597656 317.738281 293.113281 310.535156 268.25 313.421875 C 269.585938 316.300781 274.414063 322.433594 291.804688 326.554688 M 294.007813 330.398438 C 292.492188 330.398438 291.507813 330.316406 291.34375 330.304688 L 291.082031 330.261719 C 264.734375 324.058594 263.972656 313.058594 263.972656 311.824219 L 263.972656 310.179688 L 265.605469 309.953125 C 299.226563 305.371094 315.417969 318.113281 316.09375 318.65625 L 317.453125 319.757813 L 316.457031 321.195313 C 310.769531 329.410156 299.242188 330.398438 294.007813 330.398438 "/>
<path style=" stroke:none;fill-rule:nonzero;fill:rgb(100%,100%,100%);fill-opacity:1;" d="M 274.914063 311.070313 C 274.914063 311.070313 286.164063 310.683594 294.632813 312.042969 C 307.359375 314.085938 315.660156 319.367188 315.660156 319.367188 L 311.132813 341.25 L 360.179688 405.386719 L 379.71875 403.363281 C 381.257813 403.207031 382.8125 403.398438 384.269531 403.929688 L 399.1875 409.367188 C 401.074219 410.484375 400.785156 413.296875 398.707031 413.996094 C 389.445313 417.109375 370.050781 423.15625 358.457031 423.367188 C 355.195313 423.429688 352.050781 422.195313 349.667969 419.972656 L 278.261719 353.28125 C 274.710938 349.964844 272.824219 345.230469 273.121094 340.378906 "/>
<path style=" stroke:none;fill-rule:nonzero;fill:rgb(0%,0%,0%);fill-opacity:1;" d="M 276.691406 312.921875 L 275.003906 340.496094 C 274.738281 344.800781 276.394531 348.957031 279.546875 351.902344 L 350.953125 418.59375 C 353.003906 420.507813 355.625 421.515625 358.421875 421.480469 C 369.976563 421.269531 390.023438 414.925781 398.105469 412.207031 C 398.460938 412.089844 398.539063 411.804688 398.558594 411.644531 C 398.574219 411.503906 398.558594 411.253906 398.332031 411.066406 L 383.621094 405.699219 C 382.441406 405.269531 381.160156 405.113281 379.914063 405.242188 L 359.320313 407.371094 L 309.109375 341.714844 L 313.535156 320.320313 C 310.921875 318.890625 303.882813 315.441406 294.332031 313.90625 C 288.066406 312.898438 280.128906 312.875 276.691406 312.921875 M 358.226563 425.257813 C 354.570313 425.257813 351.082031 423.875 348.378906 421.351563 L 276.972656 354.660156 C 272.996094 350.945313 270.902344 345.695313 271.238281 340.265625 L 273.136719 309.242188 L 274.847656 309.183594 C 275.316406 309.167969 286.382813 308.808594 294.929688 310.179688 C 307.894531 312.265625 316.320313 317.554688 316.671875 317.777344 L 317.769531 318.476563 L 313.152344 340.789063 L 361.035156 403.402344 L 379.523438 401.488281 C 381.339844 401.300781 383.203125 401.53125 384.914063 402.15625 L 400.148438 407.746094 C 401.664063 408.640625 402.496094 410.289063 402.3125 412.039063 C 402.128906 413.789063 400.976563 415.222656 399.308594 415.78125 C 389.0625 419.230469 370.136719 425.039063 358.492188 425.253906 C 358.402344 425.253906 358.3125 425.257813 358.226563 425.257813 "/>
<path style=" stroke:none;fill-rule:nonzero;fill:rgb(100%,100%,100%);fill-opacity:1;" d="M 216.691406 508.195313 C 182.304688 448.902344 172.035156 419.167969 171.933594 418.875 L 175.503906 417.660156 C 175.605469 417.949219 185.796875 447.394531 219.957031 506.304688 "/>
<path style=" stroke:none;fill-rule:nonzero;fill:rgb(0%,0%,0%);fill-opacity:1;" d="M 267.671875 311.605469 L 264.050781 310.535156 L 276.125 269.789063 L 279.742188 270.859375 Z M 267.671875 311.605469 "/>
<path style=" stroke:none;fill-rule:nonzero;fill:rgb(0%,0%,0%);fill-opacity:1;" d="M 317.480469 320.617188 L 313.839844 319.632813 L 321.382813 291.714844 L 325.027344 292.699219 Z M 317.480469 320.617188 "/>
<path style=" stroke:none;fill-rule:nonzero;fill:rgb(0%,0%,0%);fill-opacity:1;" d="M 322.566406 341.058594 L 319.671875 338.644531 L 336.089844 318.917969 L 338.988281 321.332031 Z M 322.566406 341.058594 "/>
<g clip-path="url(#clip1)" clip-rule="nonzero">
<path style=" stroke:none;fill-rule:nonzero;fill:rgb(0%,0%,0%);fill-opacity:1;" d="M 0 692.109375 L 1080 692.109375 L 1080 687.582031 L 0 687.582031 Z M 0 692.109375 "/>
</g>
<path style=" stroke:none;fill-rule:nonzero;fill:rgb(35.693359%,68.943787%,91.40625%);fill-opacity:1;" d="M 343.125 499.378906 C 344.070313 498.1875 345.074219 497.042969 346.078125 495.898438 C 346.121094 495.84375 346.222656 495.832031 346.269531 495.773438 C 346.359375 495.660156 346.507813 495.59375 346.597656 495.480469 L 346.6875 495.367188 C 347.386719 494.71875 348.128906 494.015625 348.984375 493.40625 C 352.019531 491.101563 355.164063 489.355469 358.484375 488.203125 C 369.132813 484.464844 380.980469 486.769531 390.273438 495.542969 C 403.253906 507.703125 402.089844 527.300781 391.730469 540.324219 C 378.640625 559.738281 356.148438 586.828125 387.292969 611.089844 C 392.894531 615.453125 397.046875 619.050781 414.6875 624.148438 C 403.148438 626.273438 392.453125 625.613281 380.546875 622.570313 C 372.125 617.816406 358.882813 607.640625 354.378906 593.890625 C 347.566406 573.042969 366.363281 541.878906 375.449219 529.875 C 387.921875 513.265625 367.738281 495.28125 352.882813 515.355469 C 345.113281 525.820313 331.527344 555.425781 336.25 577.386719 C 339.011719 589.839844 342.691406 598.917969 357.28125 611.386719 C 354.574219 609.792969 351.949219 607.980469 349.398438 605.953125 C 315.5 574.378906 319.433594 525.550781 343.125 499.378906 "/>
<path style="fill:none;stroke-width:10;stroke-linecap:butt;stroke-linejoin:round;stroke:rgb(0%,0%,0%);stroke-opacity:1;stroke-miterlimit:10;" d="M 3431.25 1927.310938 C 3440.703125 1939.225 3450.742188 1950.670313 3460.78125 1962.115625 C 3461.210938 1962.6625 3462.226563 1962.779688 3462.695313 1963.365625 C 3463.59375 1964.498438 3465.078125 1965.1625 3465.976563 1966.295313 L 3466.875 1967.428125 C 3473.867188 1973.9125 3481.289063 1980.94375 3489.84375 1987.0375 C 3520.195313 2010.084375 3551.640625 2027.545313 3584.84375 2039.06875 C 3691.328125 2076.451563 3809.804688 2053.404688 3902.734375 1965.670313 C 4032.539063 1844.06875 4020.898438 1648.092188 3917.304688 1517.857813 C 3786.40625 1323.717188 3561.484375 1052.81875 3872.929688 810.201563 C 3928.945313 766.56875 3970.46875 730.592188 4146.875 679.615625 C 4031.484375 658.365625 3924.53125 664.967188 3805.46875 695.396875 C 3721.25 742.935938 3588.828125 844.69375 3543.789063 982.19375 C 3475.664063 1190.670313 3663.632813 1502.310938 3754.492188 1622.35 C 3879.21875 1788.44375 3677.382813 1968.2875 3528.828125 1767.545313 C 3451.132813 1662.896875 3315.273438 1366.842188 3362.5 1147.232813 C 3390.117188 1022.701563 3426.914063 931.920313 3572.8125 807.232813 C 3545.742188 823.170313 3519.492188 841.295313 3493.984375 861.56875 C 3155 1177.310938 3194.335938 1665.592188 3431.25 1927.310938 Z M 3431.25 1927.310938 " transform="matrix(0.1,0,0,-0.1,0,692.11)"/>
<path style=" stroke:none;fill-rule:nonzero;fill:rgb(35.693359%,68.943787%,91.40625%);fill-opacity:1;" d="M 458.527344 599.058594 C 457.582031 600.246094 456.578125 601.390625 455.578125 602.535156 C 455.53125 602.589844 455.429688 602.605469 455.386719 602.660156 C 455.296875 602.773438 455.148438 602.839844 455.058594 602.953125 L 454.96875 603.070313 C 454.269531 603.714844 453.527344 604.414063 452.671875 605.03125 C 449.636719 607.332031 446.488281 609.082031 443.167969 610.230469 C 432.523438 613.972656 420.671875 611.667969 411.378906 602.894531 C 398.402344 590.730469 399.566406 571.136719 409.925781 558.109375 C 423.011719 538.695313 445.507813 511.609375 414.359375 487.34375 C 408.761719 482.980469 404.605469 479.382813 386.964844 474.285156 C 398.503906 472.160156 409.199219 472.820313 421.109375 475.863281 C 429.53125 480.617188 442.773438 490.796875 447.277344 504.542969 C 454.085938 525.390625 435.289063 556.554688 426.207031 568.558594 C 413.734375 585.171875 433.914063 603.152344 448.773438 583.078125 C 456.539063 572.613281 470.125 543.007813 465.402344 521.046875 C 462.644531 508.59375 458.964844 499.515625 444.371094 487.046875 C 447.078125 488.640625 449.707031 490.453125 452.253906 492.480469 C 486.15625 524.058594 482.222656 572.886719 458.527344 599.058594 "/>
<path style="fill:none;stroke-width:10;stroke-linecap:butt;stroke-linejoin:round;stroke:rgb(0%,0%,0%);stroke-opacity:1;stroke-miterlimit:10;" d="M 4585.273438 930.514063 C 4575.820313 918.639063 4565.78125 907.19375 4555.78125 895.748438 C 4555.3125 895.201563 4554.296875 895.045313 4553.867188 894.498438 C 4552.96875 893.365625 4551.484375 892.701563 4550.585938 891.56875 L 4549.6875 890.396875 C 4542.695313 883.951563 4535.273438 876.959375 4526.71875 870.7875 C 4496.367188 847.779688 4464.882813 830.279688 4431.679688 818.795313 C 4325.234375 781.373438 4206.71875 804.420313 4113.789063 892.154688 C 3984.023438 1013.795313 3995.664063 1209.732813 4099.257813 1340.00625 C 4230.117188 1534.146875 4455.078125 1805.00625 4143.59375 2047.6625 C 4087.617188 2091.295313 4046.054688 2127.271875 3869.648438 2178.248438 C 3985.039063 2199.498438 4091.992188 2192.896875 4211.09375 2162.467188 C 4295.3125 2114.928125 4427.734375 2013.13125 4472.773438 1875.670313 C 4540.859375 1667.19375 4352.890625 1355.553125 4262.070313 1235.514063 C 4137.34375 1069.38125 4339.140625 889.576563 4487.734375 1090.31875 C 4565.390625 1194.967188 4701.25 1491.021875 4654.023438 1710.63125 C 4626.445313 1835.1625 4589.648438 1925.94375 4443.710938 2050.63125 C 4470.78125 2034.69375 4497.070313 2016.56875 4522.539063 1996.295313 C 4861.5625 1680.514063 4822.226563 1192.232813 4585.273438 930.514063 Z M 4585.273438 930.514063 " transform="matrix(0.1,0,0,-0.1,0,692.11)"/>
<path style=" stroke:none;fill-rule:evenodd;fill:rgb(0%,0%,0%);fill-opacity:1;" d="M 882.808594 522.359375 C 882.808594 522.6875 883.074219 522.9375 883.386719 522.9375 C 883.699219 522.9375 883.964844 522.671875 883.964844 522.359375 L 883.964844 520.957031 C 883.964844 520.628906 883.699219 520.378906 883.386719 520.378906 C 883.074219 520.378906 882.808594 520.644531 882.808594 520.957031 Z M 878.269531 525.496094 C 877.945313 525.496094 877.695313 525.230469 877.695313 524.917969 L 877.695313 522.828125 C 877.695313 522.5 877.960938 522.25 878.269531 522.25 C 878.582031 522.25 878.847656 522.515625 878.847656 522.828125 L 878.847656 524.917969 C 878.863281 525.230469 878.597656 525.496094 878.269531 525.496094 M 871.175781 533.292969 C 871.175781 533.621094 871.441406 533.871094 871.753906 533.871094 C 872.078125 533.871094 872.328125 533.605469 872.328125 533.292969 L 872.328125 531.65625 C 872.328125 531.328125 872.0625 531.078125 871.753906 531.078125 C 871.425781 531.078125 871.175781 531.34375 871.175781 531.65625 Z M 866.636719 537.597656 C 866.308594 537.597656 866.058594 537.332031 866.058594 537.019531 L 866.058594 534.929688 C 866.058594 534.601563 866.324219 534.351563 866.636719 534.351563 C 866.964844 534.351563 867.214844 534.617188 867.214844 534.929688 L 867.214844 537.019531 C 867.214844 537.347656 866.949219 537.597656 866.636719 537.597656 M 863.613281 537.144531 C 863.285156 537.144531 863.035156 536.878906 863.035156 536.566406 L 863.035156 534.929688 C 863.035156 534.601563 863.300781 534.351563 863.613281 534.351563 C 863.9375 534.351563 864.1875 534.617188 864.1875 534.929688 L 864.1875 536.566406 C 864.1875 536.878906 863.921875 537.144531 863.613281 537.144531 M 868.617188 535.398438 C 868.617188 535.726563 868.882813 535.972656 869.195313 535.972656 C 869.523438 535.972656 869.769531 535.710938 869.769531 535.398438 L 869.769531 532.605469 C 869.769531 532.277344 869.507813 532.027344 869.195313 532.027344 C 868.867188 532.027344 868.617188 532.296875 868.617188 532.605469 Z M 875.136719 526.773438 C 875.136719 527.101563 875.402344 527.351563 875.714844 527.351563 C 876.039063 527.351563 876.289063 527.085938 876.289063 526.773438 L 876.289063 524.683594 C 876.289063 524.355469 876.023438 524.105469 875.714844 524.105469 C 875.386719 524.105469 875.136719 524.371094 875.136719 524.683594 Z M 880.253906 523.746094 C 880.253906 524.074219 880.519531 524.324219 880.828125 524.324219 C 881.140625 524.324219 881.40625 524.058594 881.40625 523.746094 L 881.40625 520.957031 C 881.40625 520.628906 881.140625 520.378906 880.828125 520.378906 C 880.519531 520.378906 880.253906 520.644531 880.253906 520.957031 "/>
<path style=" stroke:none;fill-rule:evenodd;fill:rgb(0%,0%,0%);fill-opacity:1;" d="M 861.738281 522.203125 C 861.785156 522.84375 862.332031 523.328125 862.972656 523.296875 C 864.984375 523.171875 869.894531 524.183594 872.4375 529.613281 L 872.453125 529.660156 L 872.484375 529.703125 C 873.625 531.671875 874.902344 533.464844 876.695313 534.789063 C 878.507813 536.132813 880.734375 536.957031 883.667969 537.160156 C 884.304688 537.207031 884.867188 536.722656 884.914063 536.085938 C 884.960938 535.445313 884.476563 534.882813 883.839844 534.835938 C 881.28125 534.664063 879.488281 533.964844 878.097656 532.933594 C 876.695313 531.890625 875.605469 530.4375 874.542969 528.597656 C 871.488281 522.140625 865.558594 520.816406 862.847656 520.988281 C 862.191406 521.019531 861.710938 521.5625 861.738281 522.203125 "/>
</g>
</svg>
