<svg width="16" height="17" viewBox="0 0 16 17" fill="none" xmlns="http://www.w3.org/2000/svg">
<path d="M8 4C8 3.72386 7.77614 3.5 7.5 3.5C7.22386 3.5 7 3.72386 7 4V9.5C7 9.67943 7.09614 9.8451 7.25193 9.93412L10.7519 11.9341C10.9917 12.0711 11.2971 11.9878 11.4341 11.7481C11.5711 11.5083 11.4878 11.2029 11.2481 11.0659L8 9.20984V4Z" fill="white"/>
<path d="M8 16.5C12.4183 16.5 16 12.9183 16 8.5C16 4.08172 12.4183 0.5 8 0.5C3.58172 0.5 0 4.08172 0 8.5C0 12.9183 3.58172 16.5 8 16.5ZM15 8.5C15 12.366 11.866 15.5 8 15.5C4.13401 15.5 1 12.366 1 8.5C1 4.63401 4.13401 1.5 8 1.5C11.866 1.5 15 4.63401 15 8.5Z" fill="white"/>
</svg>
