<svg width="16" height="17" viewBox="0 0 16 17" fill="none" xmlns="http://www.w3.org/2000/svg">
<path fill-rule="evenodd" clip-rule="evenodd" d="M0 0.5H1V15.5H16V16.5H0V0.5ZM10 4C10 3.72386 10.2239 3.5 10.5 3.5H14.5C14.7761 3.5 15 3.72386 15 4V8C15 8.27614 14.7761 8.5 14.5 8.5C14.2239 8.5 14 8.27614 14 8V5.4007L10.387 9.81662C10.2975 9.92595 10.166 9.99234 10.0249 9.99938C9.88382 10.0064 9.74634 9.95344 9.64645 9.85355L7.0602 7.26731L3.40437 12.2941C3.24195 12.5174 2.92924 12.5668 2.70591 12.4044C2.48259 12.2419 2.43321 11.9292 2.59563 11.7059L6.59563 6.20591C6.68164 6.08765 6.81511 6.01297 6.96089 6.00153C7.10667 5.99009 7.25015 6.04305 7.35355 6.14645L9.96288 8.75577L13.4449 4.5H10.5C10.2239 4.5 10 4.27614 10 4Z" fill="white"/>
</svg>
