<svg width="375" height="700" viewBox="0 0 375 700" fill="none" xmlns="http://www.w3.org/2000/svg">
  <g clip-path="url(#clip0_5428_6293)">
    <g opacity="0.3" filter="url(#filter0_f_5428_6293)">
      <path d="M376.753 10.9045C403.433 -10.5213 443.473 -12.1256 463.877 -0.990654C504.004 20.9074 513.237 77.8387 506.243 104.867C497.682 137.948 472.431 183.204 444.423 206.076C416.414 228.949 369.937 250.832 333.945 253.422C280.628 257.259 214.305 218.311 190.715 188.911C172.374 166.053 176.974 149.282 179.436 143.397C185.515 125.562 210.208 94.9653 260.341 115.256C310.475 135.546 333.816 95.1085 339.219 72.3532C344.623 49.598 350.073 32.3303 376.753 10.9045Z" fill="url(#paint0_linear_5428_6293)"/>
    </g>
    <g opacity="0.3" filter="url(#filter1_f_5428_6293)">
      <path d="M0.329331 232.674C14.8316 214.963 51.6187 207.605 76.2429 211.375C124.669 218.789 161.329 253.143 168.057 271.257C176.291 293.427 174.847 325.904 159.81 344.735C144.773 363.566 111.917 384.704 79.4134 392.041C31.2639 402.909 -50.1311 388.922 -86.7272 374.166C-115.18 362.693 -119.11 351.412 -119.694 347.319C-122.758 335.134 -114.631 311.969 -57.6045 316.785C-0.577904 321.601 1.44126 292.459 -4.67748 277.286C-10.7962 262.112 -14.1729 250.384 0.329331 232.674Z" fill="url(#paint1_linear_5428_6293)"/>
    </g>
  </g>
  <defs>
    <filter id="filter0_f_5428_6293" x="-22.9423" y="-207.786" width="731.317" height="661.472" filterUnits="userSpaceOnUse" color-interpolation-filters="sRGB">
      <feFlood flood-opacity="0" result="BackgroundImageFix"/>
      <feBlend mode="normal" in="SourceGraphic" in2="BackgroundImageFix" result="shape"/>
      <feGaussianBlur stdDeviation="100" result="effect1_foregroundBlur_5428_6293"/>
    </filter>
    <filter id="filter1_f_5428_6293" x="-320.25" y="10.4131" width="693.292" height="585.495" filterUnits="userSpaceOnUse" color-interpolation-filters="sRGB">
      <feFlood flood-opacity="0" result="BackgroundImageFix"/>
      <feBlend mode="normal" in="SourceGraphic" in2="BackgroundImageFix" result="shape"/>
      <feGaussianBlur stdDeviation="100" result="effect1_foregroundBlur_5428_6293"/>
    </filter>
    <linearGradient id="paint0_linear_5428_6293" x1="433.553" y1="-17.5394" x2="285.992" y2="252.856" gradientUnits="userSpaceOnUse">
      <stop stop-color="#0082FA"/>
      <stop offset="1" stop-color="#00F2FE"/>
    </linearGradient>
    <linearGradient id="paint1_linear_5428_6293" x1="39.6467" y1="205.772" x2="10.5709" y2="395.681" gradientUnits="userSpaceOnUse">
      <stop stop-color="#0082FA"/>
      <stop offset="1" stop-color="#00F2FE"/>
    </linearGradient>
    <clipPath id="clip0_5428_6293">
      <rect width="375" height="700" fill="white"/>
    </clipPath>
  </defs>
</svg>
