<svg id="图层_1" data-name="图层 1" xmlns="http://www.w3.org/2000/svg" xmlns:xlink="http://www.w3.org/1999/xlink" viewBox="0 0 102.54 100.02"><defs><style>.cls-1,.cls-2{opacity:0.95;}.cls-1{fill:url(#未命名的渐变_14);}.cls-2{fill:url(#未命名的渐变_14-2);}</style><linearGradient id="未命名的渐变_14" x1="19.17" y1="90.58" x2="56.62" y2="25.71" gradientUnits="userSpaceOnUse"><stop offset="0" stop-color="#174e5b"/><stop offset="0.07" stop-color="#195a6c"/><stop offset="0.21" stop-color="#1e779a"/><stop offset="0.4" stop-color="#27a7e3"/><stop offset="0.47" stop-color="#2abaff"/><stop offset="0.7" stop-color="#1ddaf0"/><stop offset="1" stop-color="#0effe0"/></linearGradient><linearGradient id="未命名的渐变_14-2" x1="-698.88" y1="2347.33" x2="-749.22" y2="2260.15" gradientTransform="translate(-650.27 2341.86) rotate(180)" xlink:href="#未命名的渐变_14"/></defs><title>20200426.injective.logocompact</title><path class="cls-1" d="M64.76,97.3a1.25,1.25,0,0,0-.78-.46,57.73,57.73,0,0,1-16.59-6.31C36.77,84.35,30,75,29.74,64.35a27.18,27.18,0,0,1,2.45-11.78c1.08-2.4,6.88-11,7.84-12.57,3.95-6.19,2.68-5.8-2.88-13.53l-8-11.85L23.74,6.73l0,0,0,0v0a74.74,74.74,0,0,0-8.78,7,51.27,51.27,0,0,0,11.39,81C8.53,81.67.4,62.09,7.22,42.34a51.06,51.06,0,0,1,8.06-14.67l5.86,8.62A2.82,2.82,0,0,1,21,39.63a38.33,38.33,0,0,0-6.45,11.5C7.06,72.87,27.3,95.39,48.68,99.06c4.1.7,11.57,1.48,15.43.49A1.37,1.37,0,0,0,64.76,97.3Z"/><path class="cls-2" d="M37.78,2.72a1.23,1.23,0,0,0,.78.46A57.85,57.85,0,0,1,55.15,9.49C65.77,15.67,72.56,25,72.8,35.67a27,27,0,0,1-2.46,11.77C69.27,49.85,63.47,58.5,62.5,60c-3.94,6.19-2.67,5.8,2.88,13.53L73.44,85.4l5.35,7.88h0l0,0v0a72.88,72.88,0,0,0,8.77-7A51.25,51.25,0,0,0,76.22,5.32c17.79,13,25.91,32.61,19.1,52.36a50.91,50.91,0,0,1-8.07,14.66L81.4,63.73a2.79,2.79,0,0,1,.13-3.34A38.47,38.47,0,0,0,88,48.88C95.48,27.15,75.23,4.63,53.86,1,49.76.26,42.29-.52,38.43.47A1.36,1.36,0,0,0,37.78,2.72Z"/></svg>