<svg id="图层_1" data-name="图层 1" xmlns="http://www.w3.org/2000/svg" xmlns:xlink="http://www.w3.org/1999/xlink" viewBox="0 0 348.72 100.02"><defs><style>.cls-1,.cls-2{opacity:0.95;}.cls-1{fill:url(#未命名的渐变_14);}.cls-2{fill:url(#未命名的渐变_14-2);}.cls-3{fill:#f7f8f8;}</style><linearGradient id="未命名的渐变_14" x1="78.78" y1="237.69" x2="116.23" y2="172.83" gradientUnits="userSpaceOnUse"><stop offset="0" stop-color="#174e5b"/><stop offset="0.07" stop-color="#195a6c"/><stop offset="0.21" stop-color="#1e779a"/><stop offset="0.4" stop-color="#27a7e3"/><stop offset="0.47" stop-color="#2abaff"/><stop offset="0.7" stop-color="#1ddaf0"/><stop offset="1" stop-color="#0effe0"/></linearGradient><linearGradient id="未命名的渐变_14-2" x1="-491.11" y1="2494.45" x2="-541.44" y2="2407.27" gradientTransform="translate(-382.88 2636.09) rotate(180)" xlink:href="#未命名的渐变_14"/></defs><title>20200426.injective.logo</title><path class="cls-1" d="M124.37,244.42a1.17,1.17,0,0,0-.78-.46A57.73,57.73,0,0,1,107,237.65c-10.62-6.18-17.41-15.49-17.65-26.18a27,27,0,0,1,2.46-11.78c1.07-2.4,6.87-11.05,7.83-12.57,4-6.2,2.68-5.81-2.88-13.53l-8.05-11.85-5.35-7.89h0l0,0v.05a73.88,73.88,0,0,0-8.77,7,51.25,51.25,0,0,0,11.38,80.95c-17.79-13-25.91-32.6-19.1-52.36a51.25,51.25,0,0,1,8.06-14.66l5.86,8.62a2.79,2.79,0,0,1-.13,3.34,38.33,38.33,0,0,0-6.45,11.5c-7.5,21.74,12.75,44.26,34.12,47.92,4.1.71,11.57,1.49,15.43.49A1.36,1.36,0,0,0,124.37,244.42Z" transform="translate(-59.61 -147.12)"/><path class="cls-2" d="M97.39,149.83a1.17,1.17,0,0,0,.78.46,57.85,57.85,0,0,1,16.59,6.31c10.62,6.18,17.41,15.49,17.65,26.18A27,27,0,0,1,130,194.56c-1.07,2.4-6.87,11.05-7.84,12.57-3.94,6.2-2.67,5.81,2.89,13.53l8.05,11.86,5.35,7.88h0l0,0v-.05a73.88,73.88,0,0,0,8.77-7,51.25,51.25,0,0,0-11.38-80.95c17.79,13,25.91,32.6,19.1,52.36a51.25,51.25,0,0,1-8.06,14.66L141,210.84a2.79,2.79,0,0,1,.13-3.34,38.21,38.21,0,0,0,6.45-11.5c7.5-21.74-12.75-44.25-34.12-47.92-4.1-.71-11.57-1.49-15.43-.49A1.36,1.36,0,0,0,97.39,149.83Z" transform="translate(-59.61 -147.12)"/><path class="cls-3" d="M192.26,199.56H185.4V169.88h6.86Z" transform="translate(-59.61 -147.12)"/><path class="cls-3" d="M202,199.56V169.88h6L224.08,189V169.88h6.85v29.68h-6l-16.11-19.22v19.22Z" transform="translate(-59.61 -147.12)"/><path class="cls-3" d="M252.52,169.88v20.21c0,2.22-.14,5.51-2.58,7.92a8.4,8.4,0,0,1-6.28,2.22,8.6,8.6,0,0,1-4.72-1.07,12.32,12.32,0,0,1-2.8-2.49l4.27-4.8a7.38,7.38,0,0,0,1.07,1.64,2.21,2.21,0,0,0,1.69.67,2.08,2.08,0,0,0,1.6-.62c.85-.85.89-2.27.89-3.52V169.88Z" transform="translate(-59.61 -147.12)"/><path class="cls-3" d="M278.91,175.67H269v5.74h9.44v5.78H269v6.59h9.93v5.78H262.13V169.88h16.78Z" transform="translate(-59.61 -147.12)"/><path class="cls-3" d="M309,198.63a13.86,13.86,0,0,1-6.55,1.6c-5.47,0-9.16-1.87-11.65-4.32a15.89,15.89,0,0,1,0-22.42,15.73,15.73,0,0,1,11.08-4.28,17.8,17.8,0,0,1,7.12,1.65v7.92a9.44,9.44,0,0,0-7-3.16,8.31,8.31,0,0,0-6,2.32,9.52,9.52,0,0,0-2.8,6.85,8.68,8.68,0,0,0,9,9,9.37,9.37,0,0,0,6.81-3.07Z" transform="translate(-59.61 -147.12)"/><path class="cls-3" d="M328,175.67v23.89h-6.85V175.67h-6.45v-5.79h19.75v5.79Z" transform="translate(-59.61 -147.12)"/><path class="cls-3" d="M348.2,199.56h-6.85V169.88h6.85Z" transform="translate(-59.61 -147.12)"/><path class="cls-3" d="M362.27,169.88l7.52,19,7.52-19h7.38L372.1,199.56h-4.63l-12.59-29.68Z" transform="translate(-59.61 -147.12)"/><path class="cls-3" d="M408,175.67h-9.92v5.74h9.44v5.78h-9.44v6.59H408v5.78H391.24V169.88H408Z" transform="translate(-59.61 -147.12)"/><path class="cls-3" d="M190.77,218.08h2a4.32,4.32,0,0,0,3.06-.92,3.43,3.43,0,0,0,.92-2.44,3.24,3.24,0,0,0-.92-2.4,4.44,4.44,0,0,0-3.17-.92h-1.93Zm3-11.33a9.23,9.23,0,0,1,6.46,2,7.58,7.58,0,0,1,2.4,6,7.9,7.9,0,0,1-2.11,5.8,8.4,8.4,0,0,1-6.27,2.18h-3.48v8.64h-5.68V206.75Z" transform="translate(-59.61 -147.12)"/><path class="cls-3" d="M217.44,217.93h1.29a4.69,4.69,0,0,0,3.4-1.07,3.33,3.33,0,0,0,.92-2.4,3,3,0,0,0-1.14-2.51,5.57,5.57,0,0,0-3.14-.77h-1.33Zm2.95-11.18a8.8,8.8,0,0,1,6.28,2.14,7.43,7.43,0,0,1,2.14,5.5,6.72,6.72,0,0,1-1.92,5,7.88,7.88,0,0,1-3.43,1.89L231,231.38h-6.94l-6.65-9.72v9.72h-5.69V206.75Z" transform="translate(-59.61 -147.12)"/><path class="cls-3" d="M246.58,213.54a7.54,7.54,0,0,0-2.18,5.58,7.37,7.37,0,0,0,2.25,5.54,7.26,7.26,0,0,0,5.28,2,7.49,7.49,0,0,0,5.47-2.11,7.37,7.37,0,0,0,2.14-5.5,7.8,7.8,0,0,0-2.14-5.54,7.92,7.92,0,0,0-5.43-2.11A7.56,7.56,0,0,0,246.58,213.54Zm14.95-3.77a13.11,13.11,0,0,1,0,18.54,13.14,13.14,0,0,1-9.53,3.62,13.58,13.58,0,0,1-9.6-3.62,12.58,12.58,0,0,1-3.84-9.16,13.75,13.75,0,0,1,3.81-9.34,14.55,14.55,0,0,1,19.16,0Z" transform="translate(-59.61 -147.12)"/><path class="cls-3" d="M283.06,211.55v19.83h-5.68V211.55H272v-4.8h16.4v4.8Z" transform="translate(-59.61 -147.12)"/><path class="cls-3" d="M303.08,213.54a7.54,7.54,0,0,0-2.18,5.58,7.37,7.37,0,0,0,2.25,5.54,7.26,7.26,0,0,0,5.28,2,7.46,7.46,0,0,0,5.47-2.11,7.37,7.37,0,0,0,2.14-5.5,7.76,7.76,0,0,0-2.14-5.54,7.92,7.92,0,0,0-5.43-2.11A7.56,7.56,0,0,0,303.08,213.54Zm15-3.77a13.11,13.11,0,0,1,0,18.54,13.15,13.15,0,0,1-9.53,3.62,13.54,13.54,0,0,1-9.6-3.62,12.54,12.54,0,0,1-3.84-9.16,13.79,13.79,0,0,1,3.8-9.34,14.56,14.56,0,0,1,19.17,0Z" transform="translate(-59.61 -147.12)"/><path class="cls-3" d="M349.46,230.6a11.39,11.39,0,0,1-5.42,1.33c-4.55,0-7.61-1.55-9.68-3.58a13.19,13.19,0,0,1,0-18.61,13.07,13.07,0,0,1,9.2-3.55,14.56,14.56,0,0,1,5.9,1.37v6.57a7.78,7.78,0,0,0-5.76-2.62,6.9,6.9,0,0,0-5,1.92,7.91,7.91,0,0,0-2.32,5.69,7.2,7.2,0,0,0,7.45,7.49,7.72,7.72,0,0,0,5.65-2.55Z" transform="translate(-59.61 -147.12)"/><path class="cls-3" d="M366.42,213.54a7.54,7.54,0,0,0-2.18,5.58,7.37,7.37,0,0,0,2.25,5.54,7.26,7.26,0,0,0,5.28,2,7.49,7.49,0,0,0,5.47-2.11,7.37,7.37,0,0,0,2.14-5.5,7.8,7.8,0,0,0-2.14-5.54,7.92,7.92,0,0,0-5.43-2.11A7.56,7.56,0,0,0,366.42,213.54Zm14.95-3.77a13.11,13.11,0,0,1,0,18.54,13.14,13.14,0,0,1-9.53,3.62,13.58,13.58,0,0,1-9.6-3.62,12.58,12.58,0,0,1-3.84-9.16,13.75,13.75,0,0,1,3.81-9.34,14.55,14.55,0,0,1,19.16,0Z" transform="translate(-59.61 -147.12)"/><path class="cls-3" d="M400.69,206.75v19.83h7.64v4.8H395V206.75Z" transform="translate(-59.61 -147.12)"/></svg>