<svg width="80" height="80" viewBox="0 0 80 80" fill="none" xmlns="http://www.w3.org/2000/svg">
<path fill-rule="evenodd" clip-rule="evenodd" d="M63.6 22C63.6 23.1046 64.4954 24 65.6 24C66.7046 24 67.6 23.1046 67.6 22V12.4C67.6 11.2955 66.7046 10.4 65.6 10.4C64.4954 10.4 63.6 11.2955 63.6 12.4V22ZM46 32.4C46 33.5046 46.8954 34.4 48 34.4C49.1046 34.4 50 33.5046 50 32.4V25.2C50 24.0955 49.1046 23.2 48 23.2C46.8954 23.2 46 24.0955 46 25.2V32.4ZM23.6 62C23.6 63.1046 24.4954 64 25.6 64C26.7046 64 27.6 63.1046 27.6 62V52.4C27.6 51.2955 26.7046 50.4 25.6 50.4C24.4954 50.4 23.6 51.2955 23.6 52.4V62ZM6.39999 68C5.29542 68 4.39999 67.1046 4.39999 66V60.4C4.39999 59.2955 5.29542 58.4 6.39999 58.4C7.50456 58.4 8.39999 59.2955 8.39999 60.4V66C8.39999 67.1046 7.50456 68 6.39999 68ZM16.8 69.6C15.6954 69.6 14.8 68.7046 14.8 67.6V60.4C14.8 59.2955 15.6954 58.4 16.8 58.4C17.9046 58.4 18.8 59.2955 18.8 60.4V67.6C18.8 68.7046 17.9046 69.6 16.8 69.6ZM32.4 54.8C32.4 55.9046 33.2954 56.8 34.4 56.8C35.5046 56.8 36.4 55.9046 36.4 54.8V49.2C36.4 48.0955 35.5046 47.2 34.4 47.2C33.2954 47.2 32.4 48.0955 32.4 49.2V54.8ZM56.8 28C55.6954 28 54.8 27.1046 54.8 26V18.8C54.8 17.6955 55.6954 16.8 56.8 16.8C57.9046 16.8 58.8 17.6955 58.8 18.8V26C58.8 27.1046 57.9046 28 56.8 28ZM72.4 17.2C72.4 18.3046 73.2954 19.2 74.4 19.2C75.5046 19.2 76.4 18.3046 76.4 17.2V12.4C76.4 11.2955 75.5046 10.4 74.4 10.4C73.2954 10.4 72.4 11.2955 72.4 12.4V17.2Z" fill="url(#paint0_linear_263_419)"/>
<path fill-rule="evenodd" clip-rule="evenodd" d="M0.00871989 16.7051C0.153271 18.9095 2.05748 20.5794 4.26188 20.4348C11.1716 19.9817 28.0402 23.4997 36.7783 42.1411L36.851 42.2961L36.9366 42.4443C40.8468 49.213 45.2529 55.3333 51.3784 59.9029C57.5741 64.525 65.2404 67.3504 75.3296 68.0344C77.5337 68.1838 79.4416 66.5182 79.591 64.3141C79.7404 62.11 78.0748 60.2021 75.8707 60.0527C67.0799 59.4567 60.9462 57.0597 56.1619 53.4907C51.344 49.8964 47.61 44.9052 43.9471 38.5865C33.4627 16.4052 13.0731 11.8399 3.73841 12.452C1.53401 12.5965 -0.135832 14.5007 0.00871989 16.7051Z" fill="#5BB1E9"/>
<defs>
<linearGradient id="paint0_linear_263_419" x1="-3.19797" y1="-0.399976" x2="72.4343" y2="30.8111" gradientUnits="userSpaceOnUse">
<stop offset="0.015625" stop-color="#6EE5B3"/>
<stop offset="0.430034" stop-color="#68D8E2"/>
<stop offset="1" stop-color="#4475F6"/>
</linearGradient>
</defs>
</svg>
