<svg width="80" height="80" viewBox="0 0 80 80" fill="none" xmlns="http://www.w3.org/2000/svg">
  <g clip-path="url(#clip0_9379_4183)">
    <circle cx="40" cy="40" r="40" fill="#FFF27E" />
    <path d="M66.5 18L64 21.0755L66.5 24L69 21.0755L66.5 18Z" fill="#80BEF8" />
    <path d="M9.5 45L7 48.0755L9.5 51L12 48.0755L9.5 45Z" fill="#0EE29B" />
    <path
      d="M17.5858 27.9142L38.0858 7.41421C38.8668 6.63316 40.1332 6.63316 40.9142 7.41421L61.4142 27.9142C61.7893 28.2893 62 28.798 62 29.3284V49.6716C62 50.202 61.7893 50.7107 61.4142 51.0858L40.9142 71.5858C40.1332 72.3668 38.8668 72.3668 38.0858 71.5858L17.5858 51.0858C17.2107 50.7107 17 50.202 17 49.6716V29.3284C17 28.798 17.2107 28.2893 17.5858 27.9142Z"
      fill="#E37CDC" />
    <path d="M37.5 51H17.5L38 71.5L37.5 51Z" fill="#CE59C6" />
    <path d="M33 29L47 51L62 29H33Z" fill="#CE59C6" />
    <path d="M18 51L33 29L47 51H18Z" fill="#EFA2EA" />
    <path d="M40.9953 29L41 7.5L62 28.5C62 28.5 62 29 61.9971 29H61.9956H40.9953Z" fill="#EFA2EA" />
    <path d="M61.5 51H47L40.5 72L61.5 51Z" fill="#EFA2EA" />
    <path d="M35 10.5L33 29L17.5 28L35 10.5Z" fill="#CE59C6" />
  </g>
  <defs>
    <clipPath id="clip0_9379_4183">
      <rect width="80" height="80" rx="40" fill="white" />
    </clipPath>
  </defs>
</svg>
