<svg width="80" height="80" viewBox="0 0 80 80" fill="none" xmlns="http://www.w3.org/2000/svg">
  <g clip-path="url(#clip0_9370_4152)">
    <circle cx="40" cy="40" r="40" fill="#23C58F" />
    <path
      d="M47.3186 21.3721C38.4522 24.1317 27.6273 23.1175 21.5151 21.932C20.2318 21.683 19 22.6461 19 23.9533V57.3697C19 58.149 19.4491 58.8647 20.1756 59.1466C29.3413 62.7016 42.2305 60.3487 47.3186 58.6478C55.1227 56.6911 62.1587 57.1738 66.3099 57.973C67.6511 58.2312 69 57.2362 69 55.8704V22.8333C69 21.9629 68.4389 21.1852 67.5953 20.971C60.0589 19.0574 51.065 20.398 47.3186 21.3721Z"
      fill="#3A3A3A" />
    <path
      d="M37.6417 39.9614L33.7073 36.3943C33.0184 35.7697 31.9245 36.3413 32.0439 37.2636L33.3801 47.5834C33.4471 48.1008 33.9007 48.4798 34.4218 48.4537L52.6647 47.5417C53.148 47.5175 53.5446 47.1508 53.6066 46.6709L55.0377 35.5791C55.1675 34.5734 53.8904 34.0355 53.2615 34.831L49.8035 39.2053C49.3949 39.7221 48.6069 39.7095 48.2151 39.1798L44.4821 34.1337C44.0691 33.5754 43.2267 33.5978 42.8438 34.1772L39.1477 39.7718C38.8099 40.2832 38.0957 40.3731 37.6417 39.9614Z"
      fill="#EBC659" />
    <rect x="16" y="17" width="4" height="60" rx="2" fill="#77716F" />
    <circle cx="18" cy="16" r="4" fill="#EBC659" />
  </g>
  <defs>
    <clipPath id="clip0_9370_4152">
      <rect width="80" height="80" rx="40" fill="white" />
    </clipPath>
  </defs>
</svg>
