<svg width="80" height="80" viewBox="0 0 80 80" fill="none" xmlns="http://www.w3.org/2000/svg">
  <g clip-path="url(#clip0_9484_1424)">
    <circle cx="40" cy="40" r="40" fill="#74777B" />
    <path
      d="M53.8748 7.79792C49.3134 8.12873 40.2134 11.7972 40.305 23.8247C43.4169 24.3631 55.6923 19.5571 53.8748 7.79792Z"
      fill="#FFE080" />
    <path
      d="M48.3681 19H30.0762C28.0397 19 26.3283 20.53 26.1011 22.5538L21.4991 63.5538C21.233 65.9248 23.0883 68 25.4741 68H54.3717C56.8115 68 58.6829 65.8346 58.3294 63.4205L52.3259 22.4205C52.0382 20.4561 50.3534 19 48.3681 19Z"
      fill="#F1B741" />
    <path
      d="M56 26H24C21.7909 26 20 27.7909 20 30V47.0304C20 48.2723 20.5768 49.4437 21.5612 50.2009L37.1212 62.1701C38.5307 63.2544 40.4869 63.2779 41.9221 62.2278L58.362 50.1985C59.3915 49.4452 60 48.2461 60 46.9704V30C60 27.7909 58.2091 26 56 26Z"
      fill="#DDDDDD" />
    <path
      d="M28 34.5C28 33.6716 28.6716 33 29.5 33C30.3284 33 31 33.6716 31 34.5V44.5C31 45.3284 30.3284 46 29.5 46C28.6716 46 28 45.3284 28 44.5V34.5Z"
      fill="#585858" />
    <path
      d="M49 34.5C49 33.6716 49.6716 33 50.5 33C51.3284 33 52 33.6716 52 34.5V44.5C52 45.3284 51.3284 46 50.5 46C49.6716 46 49 45.3284 49 44.5V34.5Z"
      fill="#585858" />
    <path
      d="M35 34.5C35 33.6716 35.6716 33 36.5 33C37.3284 33 38 33.6716 38 34.5V48.5C38 49.3284 37.3284 50 36.5 50C35.6716 50 35 49.3284 35 48.5V34.5Z"
      fill="#585858" />
    <path
      d="M42 34.5C42 33.6716 42.6716 33 43.5 33C44.3284 33 45 33.6716 45 34.5V48.5C45 49.3284 44.3284 50 43.5 50C42.6716 50 42 49.3284 42 48.5V34.5Z"
      fill="#585858" />
  </g>
  <defs>
    <clipPath id="clip0_9484_1424">
      <rect width="80" height="80" rx="40" fill="white" />
    </clipPath>
  </defs>
</svg>
