<svg width="80" height="80" viewBox="0 0 80 80" fill="none" xmlns="http://www.w3.org/2000/svg">
  <g clip-path="url(#clip0_9387_4205)">
    <circle cx="40" cy="40" r="40" fill="#74777B" />
    <path
      d="M26.6593 52.4135C27.4407 51.6328 28.7071 51.6335 29.4877 52.4149L30.9012 53.8298C31.6819 54.6113 31.6812 55.8776 30.8998 56.6583L22.4282 65.1214C21.6468 65.9021 20.3804 65.9014 19.5998 65.12L18.1863 63.7051C17.4056 62.9236 17.4062 61.6573 18.1877 60.8766L26.6593 52.4135Z"
      fill="#66463C" />
    <path
      d="M51 13.0056C49.4 25.4056 35.3333 43.0057 28.5 50.5057L32 55.0057C32.8 55.0057 41.3333 46.339 45.5 42.0057C59.9 25.6057 53 7.50574 51 13.0056Z"
      fill="#91CEF2" />
    <path
      d="M50.5 22.0001C46.5 30.0001 35.5 46.0001 30 52.5001L32.5 55C36 51.5 43.6434 45.5604 47.5 39.5C51 34.0001 51.1389 34 52.5 30.5001C56 21.5 54 14.5001 53.5 14.5001C53.1 13.7001 52.5 14.3333 52.5 15C52.5 17.4 51 20.5001 50.5 22.0001Z"
      fill="#D1EDFE" />
    <path
      d="M23.8992 46.9934C24.4236 46.4447 25.278 46.4104 25.8077 46.9167L35.3989 56.0836C35.9286 56.5898 35.933 57.445 35.4086 57.9936L34.4592 58.987C33.9348 59.5356 33.0804 59.5699 32.5507 59.0636L22.9595 49.8968C22.4298 49.3905 22.4255 48.5353 22.9498 47.9867L23.8992 46.9934Z"
      fill="#EBC659" />
    <path
      d="M52.8622 52.4135C52.0807 51.6328 50.8144 51.6335 50.0338 52.4149L48.6203 53.8298C47.8396 54.6113 47.8402 55.8776 48.6217 56.6583L57.0933 65.1214C57.8747 65.9021 59.1411 65.9014 59.9217 65.12L61.3352 63.7051C62.1159 62.9236 62.1152 61.6573 61.3338 60.8766L52.8622 52.4135Z"
      fill="#66463C" />
    <path
      d="M28.5215 13.0056C30.1215 25.4056 44.1882 43.0057 51.0215 50.5057L47.5215 55.0057C46.7215 55.0057 38.1882 46.339 34.0215 42.0057C19.6215 25.6057 26.5215 7.50574 28.5215 13.0056Z"
      fill="#91CEF2" />
    <path
      d="M29.0215 22.0001C33.0215 30.0001 44.0215 46.0001 49.5215 52.5001L47.0215 55C43.5215 51.5 35.8781 45.5604 32.0215 39.5C28.5215 34.0001 28.3826 34 27.0215 30.5001C23.5215 21.5 25.5215 14.5001 26.0215 14.5001C26.4215 13.7001 27.0215 14.3333 27.0215 15C27.0215 17.4 28.5215 20.5001 29.0215 22.0001Z"
      fill="#D1EDFE" />
    <path
      d="M55.6223 46.9934C55.0979 46.4447 54.2434 46.4104 53.7137 46.9167L44.1226 56.0836C43.5929 56.5898 43.5885 57.445 44.1129 57.9936L45.0623 58.987C45.5866 59.5356 46.4411 59.5699 46.9708 59.0636L56.562 49.8968C57.0917 49.3905 57.096 48.5353 56.5717 47.9867L55.6223 46.9934Z"
      fill="#EBC659" />
  </g>
  <defs>
    <clipPath id="clip0_9387_4205">
      <rect width="80" height="80" rx="40" fill="white" />
    </clipPath>
  </defs>
</svg>
