<svg width="80" height="80" viewBox="0 0 80 80" fill="none" xmlns="http://www.w3.org/2000/svg">
  <g clip-path="url(#clip0_9484_1399)">
    <circle cx="40" cy="40" r="40" fill="#283276" />
    <circle cx="40" cy="40" r="40" fill="#FFF27E" />
    <path fill-rule="evenodd" clip-rule="evenodd"
      d="M40.1812 14.9998C39.7926 14.999 39.3222 14.9962 38.7885 14.9929C34.9807 14.9696 27.9459 14.9266 24.3625 15.5C20.3627 16.0798 19.0293 19.7416 18.8625 21.5C18.0292 25.5 17.0625 38.1 19.8625 52.5C22.6625 66.9 34.3333 71.1667 40 71.5C45.5003 71.9999 57.6998 66.8998 60.4998 52.5C63.2998 38.1 62.3331 25.5 61.4998 21.5C61.333 19.7416 59.9996 16.0798 55.9998 15.5C52.4164 14.9266 45.3816 14.9696 41.5738 14.9929C41.0401 14.9962 40.5697 14.999 40.1812 14.9998Z"
      fill="#283276" />
    <path fill-rule="evenodd" clip-rule="evenodd"
      d="M38.7045 13.4924L38.7976 13.493C39.3312 13.4962 39.797 13.4991 40.1812 13.4998C40.5653 13.4991 41.0311 13.4962 41.5647 13.493L41.6578 13.4924C45.4235 13.4693 52.5168 13.4259 56.2261 14.0172C58.6905 14.3777 60.3616 15.7069 61.4118 17.1919C62.4103 18.6036 62.8647 20.1709 62.9843 21.2719C63.8569 25.5598 64.79 38.2945 61.9722 52.7863C60.4952 60.3822 56.5199 65.5759 52.1525 68.7949C47.8529 71.9638 43.0845 73.2777 39.8885 72.9961C33.7622 72.6259 21.3568 68.0436 18.3901 52.7863C15.5723 38.2945 16.5054 25.5598 17.378 21.272C17.4976 20.1709 17.952 18.6036 18.9505 17.1919C20.0007 15.7069 21.6718 14.3777 24.1362 14.0172C27.8455 13.4259 34.9388 13.4693 38.7045 13.4924ZM38.7793 16.4929C34.9081 16.4693 28.0291 16.4324 24.5995 16.9812L24.5886 16.9829L24.5777 16.9845C23.0484 17.2062 22.0563 17.9959 21.3998 18.9242C20.7163 19.8905 20.4178 20.9876 20.3558 21.6416L20.348 21.7245L20.331 21.806C19.5414 25.5962 18.5701 37.9942 21.335 52.2137C23.9645 65.7369 34.8728 69.6958 40.0881 70.0026L40.112 70.004L40.1358 70.0062C42.44 70.2156 46.5082 69.2281 50.3726 66.3799C54.1799 63.5738 57.7044 59.0176 59.0274 52.2137C61.7922 37.9942 60.8209 25.5962 60.0313 21.806L60.0143 21.7245L60.0065 21.6416C59.9445 20.9876 59.646 19.8905 58.9625 18.9242C58.306 17.9959 57.3139 17.2062 55.7846 16.9845L55.7737 16.9829L55.7628 16.9812C52.3332 16.4324 45.4542 16.4693 41.583 16.4929L41.5801 16.4929C41.0486 16.4962 40.5757 16.4991 40.184 16.4998H40.1783C39.7866 16.4991 39.3137 16.4962 38.7822 16.4929L38.7793 16.4929Z"
      fill="#22BBFF" />
    <path d="M38 16.5H42V70.9452C42 70.9452 41 71 40 71C39 71 38 70.7059 38 70.7059V16.5Z" fill="#22BBFF" />
    <path d="M19 39H61V42.9959C61 42.9959 50.5 43 40 43C29.5 43 19 42.9782 19 42.9782V39Z" fill="#22BBFF" />
    <circle cx="40" cy="41" r="10" fill="#22BBFF" />
    <circle cx="40" cy="41" r="6" fill="#283276" />
    <circle cx="40" cy="41" r="3" fill="#F3164D" />
    <circle cx="29" cy="26" r="3" fill="#22BBFF" />
    <circle cx="30" cy="54" r="3" fill="#22BBFF" />
    <circle cx="51.4004" cy="26" r="3" fill="#22BBFF" />
    <circle cx="50.4004" cy="54" r="3" fill="#22BBFF" />
  </g>
  <defs>
    <clipPath id="clip0_9484_1399">
      <rect width="80" height="80" rx="40" fill="white" />
    </clipPath>
  </defs>
</svg>
