<svg width="80" height="80" viewBox="0 0 80 80" fill="none" xmlns="http://www.w3.org/2000/svg">
  <g clip-path="url(#clip0_9484_1348)">
    <circle cx="40" cy="40" r="40" fill="#23C58F" />
    <path d="M31 8L27 12.6133L31 17L35 12.6133L31 8Z" fill="#F183B7" />
    <path d="M14.4843 35.7398L7.07163 37.9309L8.18261 45.3596L15.4366 43.4106L14.4843 35.7398Z" fill="#80BEF8" />
    <path d="M68 35L64 39.6133L68 44L72 39.6133L68 35Z" fill="#F1DDA0" />
    <path d="M51.1131 17.3409L59.0684 14.6967L59.3046 23.0767L35.6325 56.8839L27.441 51.1482L51.1131 17.3409Z"
      fill="#ECF8FC" />
    <path
      d="M51.3676 16.9774L56.6925 15.4747L59.0684 14.6967L55.4634 19.8453L31.5367 54.016L27.441 51.1482L51.3676 16.9774Z"
      fill="#9DE0F8" />
    <path
      d="M25.72 53.6056C26.3536 52.7008 27.6007 52.4809 28.5055 53.1144L33.4204 56.5559C34.3252 57.1895 34.5451 58.4365 33.9116 59.3414L28.1758 67.5329C27.5422 68.4377 26.2951 68.6576 25.3903 68.024L20.4754 64.5826C19.5706 63.949 19.3507 62.7019 19.9843 61.7971L25.72 53.6056Z"
      fill="#895242" />
    <path
      d="M22.2806 46.3141C22.9141 45.4093 24.1612 45.1894 25.066 45.8229L41.4491 57.2945C42.3539 57.928 42.5738 59.1751 41.9402 60.0799L40.7931 61.7182C40.1595 62.623 38.9124 62.8429 38.0076 62.2094L21.6246 50.7378C20.7198 50.1043 20.4999 48.8572 21.1334 47.9524L22.2806 46.3141Z"
      fill="#EBC659" />
  </g>
  <defs>
    <clipPath id="clip0_9484_1348">
      <rect width="80" height="80" rx="40" fill="white" />
    </clipPath>
  </defs>
</svg>
