<svg width="40" height="40" viewBox="0 0 40 40" fill="none" xmlns="http://www.w3.org/2000/svg">
  <path
    d="M18.087 0.995149C19.1631 0.379221 20.489 0.379221 21.5652 0.995149L35.2569 8.83128C36.333 9.44721 36.996 10.5855 36.996 11.8173V27.4896C36.996 28.7215 36.333 29.8597 35.2569 30.4757L21.5652 38.3118C20.489 38.9277 19.1631 38.9277 18.087 38.3118L4.39532 30.4757C3.31914 29.8597 2.65619 28.7215 2.65619 27.4896V11.8173C2.65619 10.5855 3.31914 9.44721 4.39532 8.83128L18.087 0.995149Z"
    fill="url(#paint0_radial_3639_568)" />
  <path fill-rule="evenodd" clip-rule="evenodd"
    d="M33.8655 11.2201L20.1739 3.384C19.9587 3.26082 19.6935 3.26082 19.4783 3.384L5.78662 11.2201C5.57139 11.3433 5.4388 11.571 5.4388 11.8173V27.4896C5.4388 27.736 5.57139 27.9636 5.78662 28.0868L19.4783 35.923C19.6935 36.0461 19.9587 36.0461 20.1739 35.923L33.8655 28.0868C34.0808 27.9636 34.2134 27.736 34.2134 27.4896V11.8173C34.2134 11.571 34.0808 11.3433 33.8655 11.2201ZM21.5652 0.995149C20.489 0.379221 19.1631 0.379221 18.087 0.995149L4.39532 8.83128C3.31914 9.44721 2.65619 10.5855 2.65619 11.8173V27.4896C2.65619 28.7215 3.31914 29.8597 4.39532 30.4757L18.087 38.3118C19.1631 38.9277 20.489 38.9277 21.5652 38.3118L35.2569 30.4757C36.333 29.8597 36.996 28.7215 36.996 27.4896V11.8173C36.996 10.5855 36.333 9.44721 35.2569 8.83128L21.5652 0.995149Z"
    fill="url(#paint1_linear_3639_568)" />
  <path
    d="M14.6158 25.5151V22.6429L19.5584 19.1287C20.3084 18.6049 20.5981 18.1487 20.5981 17.6926C20.5981 17.1857 20.2061 16.814 19.5244 16.814C18.8426 16.814 18.212 17.2364 17.2235 18.2839L14.5988 16.0706C15.9793 14.3811 17.3769 13.4688 19.8652 13.4688C22.5922 13.4688 24.5522 15.0907 24.5522 17.3378V17.3716C24.5522 19.1794 23.5807 20.1593 22.149 21.0716L20.0186 22.4232H24.6715V25.5151H14.6158Z"
    fill="white" />
  <defs>
    <radialGradient id="paint0_radial_3639_568" cx="0" cy="0" r="1" gradientUnits="userSpaceOnUse"
      gradientTransform="translate(19.8261 18.2743) rotate(-90) scale(18.2745 18.4348)">
      <stop stop-color="#9E9A9A" />
      <stop offset="1" stop-color="#202020" stop-opacity="0.8" />
    </radialGradient>
    <linearGradient id="paint1_linear_3639_568" x1="15.4783" y1="-0.000206217" x2="30.3836" y2="36.8123"
      gradientUnits="userSpaceOnUse">
      <stop stop-color="#F4F4F4" />
      <stop offset="1" stop-color="#A9A9A9" />
    </linearGradient>
  </defs>
</svg>
