<svg width="40" height="40" viewBox="0 0 40 40" fill="none" xmlns="http://www.w3.org/2000/svg">
  <path
    d="M18.4348 0.995149C19.511 0.379221 20.8369 0.379221 21.913 0.99515L35.6047 8.83128C36.6809 9.44721 37.3438 10.5855 37.3438 11.8173V27.4896C37.3438 28.7215 36.6809 29.8597 35.6047 30.4757L21.913 38.3118C20.8369 38.9277 19.511 38.9277 18.4348 38.3118L4.74314 30.4757C3.66697 29.8597 3.00401 28.7215 3.00401 27.4896V11.8173C3.00401 10.5855 3.66697 9.44721 4.74314 8.83128L18.4348 0.995149Z"
    fill="url(#paint0_radial_3626_568)" />
  <path fill-rule="evenodd" clip-rule="evenodd"
    d="M34.2134 11.2201L20.5217 3.384C20.3065 3.26082 20.0413 3.26082 19.8261 3.384L6.13445 11.2201C5.91921 11.3433 5.78662 11.571 5.78662 11.8173V27.4896C5.78662 27.736 5.91921 27.9636 6.13445 28.0868L19.8261 35.923C20.0413 36.0461 20.3065 36.0461 20.5217 35.923L34.2134 28.0868C34.4286 27.9636 34.5612 27.736 34.5612 27.4896V11.8173C34.5612 11.571 34.4286 11.3433 34.2134 11.2201ZM21.913 0.99515C20.8369 0.379221 19.511 0.379221 18.4348 0.995149L4.74314 8.83128C3.66697 9.44721 3.00401 10.5855 3.00401 11.8173V27.4896C3.00401 28.7215 3.66697 29.8597 4.74314 30.4757L18.4348 38.3118C19.511 38.9277 20.8369 38.9277 21.913 38.3118L35.6047 30.4757C36.6809 29.8597 37.3438 28.7215 37.3438 27.4896V11.8173C37.3438 10.5855 36.6809 9.44721 35.6047 8.83128L21.913 0.99515Z"
    fill="url(#paint1_linear_3626_568)" />
  <path d="M18.9273 25.5157V17.068L16.9844 17.4904L16.2685 14.5675L19.8306 13.6045H22.8473V25.5157H18.9273Z"
    fill="#FEFC8C" />
  <defs>
    <radialGradient id="paint0_radial_3626_568" cx="0" cy="0" r="1" gradientUnits="userSpaceOnUse"
      gradientTransform="translate(20.1739 18.2743) rotate(-90) scale(18.2745 18.4348)">
      <stop stop-color="#9E9A9A" />
      <stop offset="1" stop-color="#202020" stop-opacity="0.8" />
    </radialGradient>
    <linearGradient id="paint1_linear_3626_568" x1="15.8261" y1="-0.000161255" x2="30.7314" y2="36.8123"
      gradientUnits="userSpaceOnUse">
      <stop stop-color="#FEFC8C" />
      <stop offset="1" stop-color="#D09928" />
    </linearGradient>
  </defs>
</svg>
